<svg width="22" height="21" viewBox="0 0 22 21" fill="none" xmlns="http://www.w3.org/2000/svg">
<path d="M11 20.5C7.40625 20.5 4.125 18.625 2.32812 15.5C0.53125 12.4141 0.53125 8.625 2.32812 5.5C4.125 2.41406 7.40625 0.5 11 0.5C14.5547 0.5 17.8359 2.41406 19.6328 5.5C21.4297 8.625 21.4297 12.4141 19.6328 15.5C17.8359 18.625 14.5547 20.5 11 20.5ZM11 5.5C10.4531 5.5 10.0625 5.92969 10.0625 6.4375V10.8125C10.0625 11.3594 10.4531 11.75 11 11.75C11.5078 11.75 11.9375 11.3594 11.9375 10.8125V6.4375C11.9375 5.92969 11.5078 5.5 11 5.5ZM9.75 14.25C9.75 14.9531 10.2969 15.5 11 15.5C11.6641 15.5 12.25 14.9531 12.25 14.25C12.25 13.5859 11.6641 13 11 13C10.2969 13 9.75 13.5859 9.75 14.25Z" fill="#FFAA00"/>
</svg>
