<svg width="23" height="20" viewBox="0 0 23 20" fill="none" xmlns="http://www.w3.org/2000/svg">
<path d="M22.7432 17.1875L13.161 0.9375C12.4274 -0.3125 10.5761 -0.3125 9.83759 0.9375L0.259898 17.1875C-0.477296 18.433 0.440895 20 1.91847 20H21.0828C22.5545 20 23.4755 18.4375 22.7432 17.1875ZM10.4207 6.07143C10.4207 5.47991 10.9036 5 11.4989 5C12.0941 5 12.577 5.48214 12.577 6.07143V11.7857C12.577 12.3772 12.0941 12.8571 11.5393 12.8571C10.9845 12.8571 10.4207 12.3795 10.4207 11.7857V6.07143ZM11.4989 17.1429C10.719 17.1429 10.0865 16.5143 10.0865 15.7393C10.0865 14.9643 10.7185 14.3357 11.4989 14.3357C12.2792 14.3357 12.9113 14.9643 12.9113 15.7393C12.9095 16.5134 12.2805 17.1429 11.4989 17.1429Z" fill="#FFAA00"/>
</svg>
