<svg width="40" height="41" viewBox="0 0 40 41" fill="none" xmlns="http://www.w3.org/2000/svg">
<path d="M20 0.5C8.95312 0.5 0 9.45312 0 20.5C0 31.5469 8.95312 40.5 20 40.5C31.0469 40.5 40 31.5469 40 20.5C40 9.45312 31.0469 0.5 20 0.5ZM18.125 12.375C18.125 11.3438 18.9688 10.5 20 10.5C21.0312 10.5 21.875 11.3398 21.875 12.375V22.375C21.875 23.4102 21.0352 24.25 20 24.25C18.9648 24.25 18.125 23.4141 18.125 22.375V12.375ZM20 31.75C18.6437 31.75 17.5438 30.65 17.5438 29.2938C17.5438 27.9375 18.643 26.8375 20 26.8375C21.357 26.8375 22.4562 27.9375 22.4562 29.2938C22.4531 30.6484 21.3594 31.75 20 31.75Z" fill="#FFAA00"/>
</svg>
