<svg width="29" height="28" viewBox="0 0 29 28" fill="none" xmlns="http://www.w3.org/2000/svg">
<path d="M24.52 10.46L28.04 15.54C25.96 16.82 24.08 18.0733 22.4 19.3C20.7467 20.5267 19.2667 21.7933 17.96 23.1C16.6533 24.4333 15.4533 25.8467 14.36 27.34L14.12 27.34C13.0267 25.8467 11.8133 24.4333 10.48 23.1C9.17333 21.7933 7.69333 20.5267 6.04 19.3C4.38667 18.0733 2.50667 16.82 0.399999 15.54L3.92 10.46C5.65333 11.6067 7.14667 12.7933 8.4 14.02C9.68 15.2733 10.76 16.54 11.64 17.82C12.52 19.1 13.2267 20.34 13.76 21.54C14.2933 22.74 14.68 23.8467 14.92 24.86L13.56 24.86C13.8 23.8467 14.1733 22.74 14.68 21.54C15.2133 20.34 15.92 19.1 16.8 17.82C17.68 16.54 18.76 15.2733 20.04 14.02C21.32 12.7933 22.8133 11.6067 24.52 10.46ZM17.64 0.7L17.64 10.1C17.64 12.2867 17.5067 14.3533 17.24 16.3C17 18.2733 16.68 20.0867 16.28 21.74L14.24 25.1L12.2 21.74C11.8 20.0867 11.4667 18.2733 11.2 16.3C10.96 14.3533 10.84 12.2867 10.84 10.1L10.84 0.699999L17.64 0.7Z" fill="black"/>
</svg>
