<svg width="29" height="28" viewBox="0 0 29 28" fill="none" xmlns="http://www.w3.org/2000/svg">
<path d="M4.48 17.54L0.959997 12.46C3.04 11.18 4.92 9.92666 6.6 8.7C8.25333 7.47333 9.73333 6.20666 11.04 4.9C12.3467 3.56667 13.5467 2.15333 14.64 0.659999L14.88 0.659999C15.9733 2.15333 17.1867 3.56667 18.52 4.9C19.8267 6.20666 21.3067 7.47333 22.96 8.7C24.6133 9.92666 26.4933 11.18 28.6 12.46L25.08 17.54C23.3467 16.3933 21.8533 15.2067 20.6 13.98C19.32 12.7267 18.24 11.46 17.36 10.18C16.48 8.9 15.7733 7.66 15.24 6.46C14.7067 5.26 14.32 4.15333 14.08 3.14L15.44 3.14C15.2 4.15333 14.8267 5.26 14.32 6.46C13.7867 7.66 13.08 8.9 12.2 10.18C11.32 11.46 10.24 12.7267 8.96 13.98C7.68 15.2067 6.18666 16.3933 4.48 17.54ZM11.36 27.3L11.36 17.9C11.36 15.7133 11.4933 13.6467 11.76 11.7C12 9.72666 12.32 7.91333 12.72 6.26L14.76 2.9L16.8 6.26C17.2 7.91333 17.5333 9.72666 17.8 11.7C18.04 13.6467 18.16 15.7133 18.16 17.9L18.16 27.3L11.36 27.3Z" fill="black"/>
</svg>
