<svg width="28" height="29" viewBox="0 0 28 29" fill="none" xmlns="http://www.w3.org/2000/svg">
<path d="M17.54 24.52L12.46 28.04C11.18 25.96 9.92666 24.08 8.7 22.4C7.47333 20.7467 6.20666 19.2667 4.9 17.96C3.56666 16.6533 2.15333 15.4533 0.659998 14.36L0.659998 14.12C2.15333 13.0267 3.56666 11.8133 4.9 10.48C6.20666 9.17334 7.47333 7.69334 8.7 6.04C9.92666 4.38667 11.18 2.50667 12.46 0.400001L17.54 3.92C16.3933 5.65333 15.2067 7.14667 13.98 8.4C12.7267 9.68 11.46 10.76 10.18 11.64C8.9 12.52 7.66 13.2267 6.46 13.76C5.26 14.2933 4.15333 14.68 3.14 14.92L3.14 13.56C4.15333 13.8 5.26 14.1733 6.46 14.68C7.66 15.2133 8.9 15.92 10.18 16.8C11.46 17.68 12.7267 18.76 13.98 20.04C15.2067 21.32 16.3933 22.8133 17.54 24.52ZM27.3 17.64L17.9 17.64C15.7133 17.64 13.6467 17.5067 11.7 17.24C9.72666 17 7.91333 16.68 6.26 16.28L2.9 14.24L6.26 12.2C7.91333 11.8 9.72666 11.4667 11.7 11.2C13.6467 10.96 15.7133 10.84 17.9 10.84L27.3 10.84L27.3 17.64Z" fill="black"/>
</svg>
