<svg width="28" height="29" viewBox="0 0 28 29" fill="none" xmlns="http://www.w3.org/2000/svg">
<path d="M10.46 4.48L15.54 0.959998C16.82 3.04 18.0733 4.92 19.3 6.6C20.5267 8.25333 21.7933 9.73333 23.1 11.04C24.4333 12.3467 25.8467 13.5467 27.34 14.64V14.88C25.8467 15.9733 24.4333 17.1867 23.1 18.52C21.7933 19.8267 20.5267 21.3067 19.3 22.96C18.0733 24.6133 16.82 26.4933 15.54 28.6L10.46 25.08C11.6067 23.3467 12.7933 21.8533 14.02 20.6C15.2733 19.32 16.54 18.24 17.82 17.36C19.1 16.48 20.34 15.7733 21.54 15.24C22.74 14.7067 23.8467 14.32 24.86 14.08V15.44C23.8467 15.2 22.74 14.8267 21.54 14.32C20.34 13.7867 19.1 13.08 17.82 12.2C16.54 11.32 15.2733 10.24 14.02 8.96C12.7933 7.68 11.6067 6.18667 10.46 4.48ZM0.7 11.36H10.1C12.2867 11.36 14.3533 11.4933 16.3 11.76C18.2733 12 20.0867 12.32 21.74 12.72L25.1 14.76L21.74 16.8C20.0867 17.2 18.2733 17.5333 16.3 17.8C14.3533 18.04 12.2867 18.16 10.1 18.16H0.7V11.36Z" fill="black"/>
</svg>
