<svg width="33" height="33" viewBox="0 0 33 33" fill="none" xmlns="http://www.w3.org/2000/svg">
<path d="M0 7.30401V20.4386C2.56337 17.5509 5.23563 16.1545 7.99333 15.8293C10.751 15.4907 13.5945 16.2224 16.5 17.2809C19.4058 18.3393 22.249 19.6298 25.0067 20.36C27.7644 21.1036 30.4366 21.2862 33 20.4386C33 16.0606 33 11.6821 33 7.30401C22 15.2859 11 -0.677467 0 7.30401Z" fill="#1C3160"/>
<path d="M0 19.7553V26.6653C11 18.5778 22 34.7529 33 26.6653C33 24.3621 33 22.0585 33 19.7553C30.4366 20.6141 27.7644 20.4287 25.0067 19.6756C22.249 18.9357 19.4055 17.6281 16.5 16.5555C13.5942 15.483 10.751 14.7415 7.99333 15.0847C5.23563 15.4142 2.56337 16.8287 0 19.7553Z" fill="#D0202A"/>
<path d="M16.4998 14.0843C16.1574 14.6215 15.8153 15.1583 15.4729 15.6965C14.6952 15.5506 13.9175 15.4101 13.1403 15.2878C13.7061 15.9455 14.2723 16.6126 14.8381 17.2844C14.7 17.9479 14.5618 18.6117 14.4236 19.2759C15.1157 19.1482 15.8081 19.0292 16.5002 18.9102C17.1923 19.4681 17.8843 20.0256 18.5764 20.5748C18.4382 19.8266 18.3 19.0779 18.1619 18.3293C18.7277 18.0068 19.2939 17.68 19.8597 17.3434C19.0821 17.0246 18.3044 16.6879 17.5271 16.3458C17.1847 15.5928 16.8426 14.8387 16.5002 14.0846L16.4998 14.0843ZM21.7105 19.7996C22.8072 19.6355 23.9034 19.416 25 19.1056C23.9034 18.5651 22.8068 17.9337 21.7101 17.2466C22.4273 16.5489 23.1448 15.8276 23.862 15.0724C22.6789 15.0185 21.4963 14.8729 20.3133 14.68C20.459 13.6384 20.6048 12.5961 20.7505 11.5531C19.8012 11.9585 18.8519 12.3301 17.9026 12.6904C17.4348 11.5385 16.9673 10.3841 16.4994 9.22928C16.0359 10.0849 15.5724 10.9405 15.1089 11.7991C14.156 10.847 13.2028 9.90622 12.2499 9C12.3956 10.1191 12.541 11.2393 12.6867 12.3599C11.5037 11.9028 10.3207 11.4926 9.13724 11.1746C9.85478 12.1547 10.5723 13.1682 11.2899 14.2055C10.1932 14.3736 9.09662 14.5971 8 14.9119C9.09622 15.4483 10.1928 16.0754 11.2891 16.7582C10.5719 17.4558 9.85438 18.1775 9.13724 18.9327C10.3203 18.9848 11.5033 19.1282 12.6867 19.3192C12.541 20.3626 12.3952 21.4064 12.2499 22.4513C13.1992 22.0459 14.1485 21.6743 15.0978 21.314C15.5656 22.4641 16.0335 23.6167 16.5014 24.7696C16.9649 23.9122 17.428 23.0547 17.8915 22.1947C18.8444 23.1486 19.7976 24.0916 20.7505 25C20.6048 23.8805 20.459 22.7603 20.3137 21.6397C21.4971 22.099 22.6805 22.511 23.8636 22.8313C23.146 21.8512 22.4285 20.8376 21.7109 19.8L21.7105 19.7996ZM20.1584 23.9024C19.3373 23.1086 18.5166 22.2926 17.6956 21.4698C17.2966 22.2097 16.8976 22.9481 16.4986 23.6862C16.096 22.6937 15.6931 21.7016 15.2905 20.7109C14.4738 21.0196 13.6575 21.3355 12.8408 21.6732C12.9662 20.7757 13.0917 19.8786 13.2167 18.9822C12.1989 18.8064 11.1808 18.6612 10.163 18.5739C10.7802 17.9497 11.3974 17.347 12.0146 16.7596C11.0701 16.1518 10.1255 15.5794 9.18143 15.0651C10.1255 14.8467 11.0701 14.6859 12.0142 14.561C11.397 13.6559 10.7802 12.7661 10.163 11.8977C11.1808 12.214 12.1989 12.5885 13.2167 12.9932C13.0913 12.0265 12.9658 11.0603 12.8404 10.0947C13.6615 10.887 14.4822 11.7012 15.3032 12.5222C15.7022 11.7842 16.1008 11.0479 16.4998 10.3116C16.9028 11.3059 17.3053 12.3002 17.7083 13.2927C18.525 12.9841 19.3413 12.6682 20.158 12.3304C20.0326 13.2257 19.9075 14.1207 19.7821 15.0152C20.8003 15.1928 21.8184 15.3399 22.8366 15.4287C22.2194 16.0528 21.6018 16.6555 20.9846 17.2433C21.9287 17.8544 22.8733 18.4301 23.8174 18.948C22.8729 19.1631 21.9283 19.3203 20.9842 19.4419C21.601 20.3466 22.2182 21.2365 22.835 22.1048C21.8173 21.7871 20.7999 21.4108 19.7821 21.0043C19.9075 21.9705 20.033 22.9368 20.1584 23.9024Z" fill="white"/>
<path d="M0 7.25128V26.7487C11 18.9499 22 34.5475 33 26.7487C33 24.5277 33 22.3063 33 20.0853C33 15.8074 33 11.5292 33 7.25128C22 15.0505 11 -0.547525 0 7.25128Z" fill="url(#paint0_linear_211_2852)"/>
<defs>
<linearGradient id="paint0_linear_211_2852" x1="0" y1="17.0002" x2="33" y2="17.0002" gradientUnits="userSpaceOnUse">
<stop stop-opacity="0.2"/>
<stop offset="0.1" stop-color="white" stop-opacity="0"/>
<stop offset="0.64" stop-opacity="0.2"/>
<stop offset="0.98" stop-color="#DADADA" stop-opacity="0.03"/>
<stop offset="1" stop-color="white" stop-opacity="0"/>
</linearGradient>
</defs>
</svg>
