<svg width="33" height="33" viewBox="0 0 33 33" fill="none" xmlns="http://www.w3.org/2000/svg">
<path d="M1.52165 12.386C1.53632 12.4153 1.55832 12.452 1.58765 12.4997C2.86365 14.696 4.14332 16.6907 5.59899 18.3553C5.67477 18.4433 5.66743 18.5228 5.57699 18.5937C3.86465 19.943 2.14499 20.9513 0.498654 21.7433C0.465654 21.758 0.432654 21.7727 0.40332 21.791C0.77732 18.656 1.15132 15.521 1.52532 12.386H1.52165Z" fill="#FEFEFE"/>
<path d="M1.52166 12.386C1.53632 12.4153 1.55832 12.452 1.58766 12.4997C2.86366 14.696 4.14332 16.6907 5.59899 18.3553C5.67477 18.4433 5.66744 18.5228 5.57699 18.5937C3.86466 19.943 2.14499 20.9513 0.498658 21.7433C0.465658 21.758 0.432658 21.7727 0.403325 21.791C0.777325 18.656 1.15132 15.521 1.52532 12.386M1.52166 12.3713C1.52166 12.3713 1.52166 12.3787 1.52166 12.386C1.14766 15.521 0.769992 18.656 0.399658 21.791C0.399658 21.7983 0.399658 21.7983 0.399658 21.8057C0.403325 21.8057 0.406992 21.802 0.410658 21.7983C0.421658 21.791 0.428992 21.7873 0.439992 21.7837C0.461992 21.7727 0.483992 21.7617 0.505992 21.7507C2.16332 20.9697 3.87199 19.9503 5.58432 18.601C5.65399 18.546 5.69066 18.5167 5.69066 18.4837C5.69066 18.4507 5.66499 18.4177 5.60632 18.3517C5.50732 18.238 5.45966 18.183 5.36066 18.0657C3.99666 16.467 2.83432 14.597 1.59499 12.496C1.57666 12.463 1.55832 12.4337 1.54366 12.4117C1.53632 12.4007 1.53266 12.3897 1.52532 12.3823C1.52532 12.3787 1.52532 12.375 1.52166 12.375V12.3713Z" fill="#1A1A1A"/>
<path d="M32.5197 26.6566C23.4007 22.3556 15.2424 27.5146 5.83002 27.5256C6.35435 27.2103 7.45435 25.9673 8.64968 24.816C8.66802 24.7976 8.69002 24.783 8.71202 24.7646C8.78535 24.7573 8.85868 24.7573 8.92835 24.7463C16.8704 23.5326 23.9104 19.8916 32.0283 23.2723C32.087 23.3053 32.1494 23.3383 32.2044 23.3786C32.2117 23.4226 32.2153 23.4703 32.2227 23.5143C32.3327 24.5703 33.517 26.4623 32.5233 26.6493L32.5197 26.6566Z" fill="#9E248E"/>
<path d="M8.71203 24.7683C8.69003 24.7867 8.66803 24.8013 8.6497 24.8197C7.45803 25.9673 6.35436 27.2103 5.83003 27.5293C4.97936 27.4377 4.14703 27.2727 3.3367 27.027C3.2927 27.0013 3.32203 27.0013 3.32936 26.994C7.01436 24.2733 10.0834 21.153 13.079 17.7027C13.211 17.545 13.2037 17.5743 13.0864 17.49C9.6067 14.982 6.87503 12.0927 4.32303 8.668C4.29736 8.61666 4.2717 8.57633 4.2497 8.547C4.99403 8.778 5.77136 8.92466 6.55236 8.99066C6.56703 9.00533 6.57803 9.02366 6.59636 9.042C7.45803 10.12 8.44436 11.1173 9.39036 11.9973C9.4087 12.012 9.4307 12.0267 9.44903 12.0413C9.4637 12.0597 9.47836 12.078 9.4967 12.0963C10.461 12.9837 11.4474 13.7903 12.4447 14.5567C12.4594 14.5677 12.4777 14.575 12.496 14.586C12.5217 14.6117 12.551 14.6373 12.5767 14.6593C13.5704 15.4183 14.5787 16.1407 15.6164 16.863C15.5834 16.9107 15.5504 16.9583 15.5137 17.006C14.5017 18.3003 13.464 19.5837 12.3897 20.8303C12.3494 20.8743 12.3164 20.922 12.2797 20.966C12.254 20.9917 12.2284 21.0173 12.2027 21.043C11.099 22.3153 9.95503 23.5473 8.77803 24.6913C8.75236 24.717 8.73036 24.7427 8.70836 24.7683H8.71203Z" fill="black"/>
<path d="M4.24966 8.54699C4.27166 8.57632 4.29733 8.61666 4.323 8.66799C6.875 12.0963 9.60666 14.982 13.0863 17.49C13.2 17.5743 13.2073 17.5413 13.079 17.7027C10.0833 21.153 7.01433 24.2733 3.32933 26.994C3.322 27.0013 3.29266 27.0013 3.33666 27.027C2.508 26.7777 1.68666 26.433 0.912996 26.0223C0.901996 26.0187 0.887329 26.0077 0.887329 26.0077C0.927662 26.0223 0.806662 26.0847 1.25766 25.8537C4.89866 23.9323 7.78066 21.2043 10.6187 18.2747C10.714 18.172 10.7103 18.1317 10.6297 18.062C7.09866 14.9857 4.213 11.7553 2.178 7.81732C2.13033 7.72566 2.112 7.65599 2.10466 7.64132C2.464 7.53132 3.51266 8.31966 4.24966 8.54699Z" fill="#603917"/>
<path d="M2.101 7.64136C2.101 7.64136 2.12667 7.72569 2.17434 7.81736C4.20934 11.7554 7.095 14.9857 10.626 18.062C10.7103 18.128 10.7103 18.172 10.615 18.2747C7.777 21.208 4.895 23.9324 1.254 25.8537C0.803003 26.0847 0.924003 26.0224 0.883669 26.0077C0.883669 26.0077 0.902003 26.0187 0.909336 26.0224C0.850669 25.993 0.814003 25.971 0.770003 25.9454C0.106336 25.5824 0.0220026 24.8967 0.110003 24.1487C0.143003 24.134 0.176003 24.123 0.209003 24.1084C3.223 22.8177 5.665 20.7204 8.11434 18.6047C8.21334 18.513 8.20234 18.4727 8.12534 18.3994C5.55134 15.741 3.75467 13.3064 1.85167 10.1237C1.82967 10.0834 1.81867 10.0357 1.79667 10.0357C1.892 9.24369 1.86634 8.03002 2.09 7.64869C2.09 7.64869 2.09 7.64869 2.09367 7.64869L2.101 7.64136Z" fill="#7CBFE8"/>
<path d="M1.80031 10.032C1.81865 10.032 1.82965 10.0797 1.85531 10.12C3.75831 13.3063 5.55498 15.7373 8.12898 18.3957C8.20965 18.469 8.21698 18.5093 8.11798 18.601C5.66865 20.7167 3.23031 22.814 0.212647 24.1047C0.179647 24.1193 0.146647 24.1303 0.113647 24.145C0.205314 23.3603 0.300647 22.5757 0.395981 21.7873C0.425314 21.769 0.458314 21.7543 0.491314 21.736C2.11931 20.9293 3.85731 19.9393 5.56965 18.59C5.66009 18.5191 5.66743 18.4397 5.59165 18.3517C4.13965 16.687 2.80498 14.641 1.58398 12.4923C1.55831 12.4447 1.53631 12.408 1.52165 12.3823C1.61331 11.5977 1.70865 10.813 1.80398 10.0247L1.80031 10.032Z" fill="#F398BF"/>
<path d="M31.8486 20.0163C31.922 20.713 31.999 21.4097 32.0723 22.1027C32.1163 22.5317 32.1603 22.957 32.2043 23.3823C32.1493 23.3457 32.087 23.309 32.0283 23.276C23.9103 19.8917 16.8703 23.5363 8.92831 24.75C8.85864 24.761 8.78531 24.761 8.71198 24.7683C8.73398 24.7427 8.75598 24.717 8.78164 24.6913C9.95864 23.5473 11.099 22.319 12.2063 21.043C12.2283 21.0173 12.2576 20.9917 12.2833 20.966C12.3273 20.955 12.375 20.9477 12.419 20.9367C19.2903 19.0667 24.9773 17.0867 31.8523 20.0163H31.8486Z" fill="#0054A5"/>
<path d="M6.55231 8.99072C6.59997 8.99072 6.64764 8.99805 6.69164 8.99805C14.5383 9.06039 22.8176 3.17172 30.2976 6.48272C30.426 6.53772 30.4333 6.55972 30.4516 6.72105C30.558 7.73305 30.6643 8.74505 30.7706 9.75705C30.7743 9.80105 30.778 9.84505 30.7816 9.88905C30.7376 9.84872 30.6753 9.82305 30.6203 9.79372C23.1146 7.12072 17.017 10.3584 9.65797 12.0047C9.58831 12.0157 9.51864 12.0267 9.44897 12.0341C9.43064 12.0194 9.40864 12.0084 9.39031 11.9901C8.44431 11.1101 7.45797 10.1127 6.59631 9.03472C6.58164 9.01272 6.56697 8.99438 6.55231 8.98338V8.99072Z" fill="#ED3124"/>
<path d="M9.44897 12.0414C9.51864 12.0304 9.58831 12.0194 9.65797 12.012C17.017 10.3657 23.111 7.12804 30.6203 9.80104C30.6753 9.83038 30.7376 9.85604 30.7816 9.89638C30.8843 10.8534 30.987 11.814 31.0896 12.771C31.108 12.9397 31.1226 13.1047 31.141 13.2734C31.0933 13.233 31.031 13.2074 30.976 13.178C24.4456 10.6187 19.1106 12.65 12.6976 14.531C12.6316 14.5494 12.5656 14.5677 12.4996 14.586C12.4813 14.575 12.463 14.5677 12.4483 14.5567C11.451 13.7904 10.4646 12.9837 9.50031 12.0964C9.48197 12.0817 9.46731 12.0597 9.45264 12.0414H9.44897Z" fill="#F47E29"/>
<path d="M31.8487 20.0163C24.9737 17.0867 19.2867 19.0667 12.4153 20.9367C12.3713 20.9477 12.3237 20.9587 12.2797 20.966C12.3163 20.922 12.353 20.8743 12.3897 20.8303C13.4603 19.5837 14.5017 18.3003 15.5137 17.006C15.5503 16.9583 15.5833 16.9107 15.6163 16.863C15.6787 16.8447 15.741 16.8263 15.807 16.808C21.5307 15.1543 25.9087 14.2963 31.493 16.6393C31.5663 17.3213 31.6397 18.007 31.713 18.689C31.7607 19.1327 31.8047 19.5763 31.8487 20.0163Z" fill="#58B847"/>
<path d="M31.493 16.6393C25.9086 14.2963 21.5343 15.1543 15.807 16.808C15.7446 16.8263 15.6823 16.8447 15.6163 16.863C14.5786 16.1407 13.5703 15.4183 12.5766 14.6593C12.5473 14.6373 12.5216 14.6117 12.496 14.586C12.562 14.5677 12.628 14.5493 12.694 14.531C19.107 12.65 24.442 10.6187 30.9723 13.178C31.0273 13.2073 31.0896 13.2367 31.1373 13.2733C31.2363 14.2047 31.3353 15.1323 31.4343 16.0637C31.4563 16.258 31.4746 16.4487 31.493 16.6393Z" fill="#FEEF00"/>
</svg>
