<svg width="33" height="33" viewBox="0 0 33 33" fill="none" xmlns="http://www.w3.org/2000/svg">
<path d="M1.52165 12.386C1.53632 12.4153 1.55832 12.452 1.58765 12.4997C2.86365 14.696 4.14332 16.6907 5.59899 18.3553C5.67477 18.4433 5.66743 18.5228 5.57699 18.5937C3.86465 19.943 2.14499 20.9513 0.498654 21.7433C0.465654 21.758 0.432654 21.7727 0.40332 21.791C0.77732 18.656 1.15132 15.521 1.52532 12.386H1.52165Z" fill="#FEFEFE"/>
<path d="M1.52166 12.386C1.53632 12.4153 1.55832 12.452 1.58766 12.4997C2.86366 14.696 4.14332 16.6907 5.59899 18.3553C5.67477 18.4433 5.66744 18.5228 5.57699 18.5937C3.86466 19.943 2.14499 20.9513 0.498658 21.7433C0.465658 21.758 0.432658 21.7727 0.403325 21.791C0.777325 18.656 1.15132 15.521 1.52532 12.386M1.52166 12.3713C1.52166 12.3713 1.52166 12.3787 1.52166 12.386C1.14766 15.521 0.769992 18.656 0.399658 21.791C0.399658 21.7983 0.399658 21.7983 0.399658 21.8057C0.403325 21.8057 0.406992 21.802 0.410658 21.7983C0.421658 21.791 0.428992 21.7873 0.439992 21.7837C0.461992 21.7727 0.483992 21.7617 0.505992 21.7507C2.16332 20.9697 3.87199 19.9503 5.58432 18.601C5.65399 18.546 5.69066 18.5167 5.69066 18.4837C5.69066 18.4507 5.66499 18.4177 5.60632 18.3517C5.50732 18.238 5.45966 18.183 5.36066 18.0657C3.99666 16.467 2.83432 14.597 1.59499 12.496C1.57666 12.463 1.55832 12.4337 1.54366 12.4117C1.53632 12.4007 1.53266 12.3897 1.52532 12.3823C1.52532 12.3787 1.52532 12.375 1.52166 12.375V12.3713Z" fill="#1A1A1A"/>
<path d="M32.5197 26.6567C23.4007 22.3557 15.2424 27.5147 5.83008 27.5257C6.35441 27.2103 7.45441 25.9673 8.64974 24.816C8.66808 24.7977 8.69008 24.783 8.71208 24.7647C8.78541 24.7573 8.85875 24.7573 8.92841 24.7463C16.8704 23.5327 23.9104 19.8917 32.0284 23.2723C32.0871 23.3053 32.1494 23.3383 32.2044 23.3787C32.2117 23.4227 32.2154 23.4703 32.2227 23.5143C32.3327 24.5703 33.5171 26.4623 32.5234 26.6493L32.5197 26.6567Z" fill="#9E248E"/>
<path d="M8.71203 24.7683C8.69003 24.7867 8.66803 24.8013 8.6497 24.8197C7.45803 25.9673 6.35436 27.2103 5.83003 27.5293C4.97936 27.4377 4.14703 27.2727 3.3367 27.027C3.2927 27.0013 3.32203 27.0013 3.32936 26.994C7.01436 24.2733 10.0834 21.153 13.079 17.7027C13.211 17.545 13.2037 17.5743 13.0864 17.49C9.6067 14.982 6.87503 12.0927 4.32303 8.668C4.29736 8.61666 4.2717 8.57633 4.2497 8.547C4.99403 8.778 5.77136 8.92466 6.55236 8.99066C6.56703 9.00533 6.57803 9.02366 6.59636 9.042C7.45803 10.12 8.44436 11.1173 9.39036 11.9973C9.4087 12.012 9.4307 12.0267 9.44903 12.0413C9.4637 12.0597 9.47836 12.078 9.4967 12.0963C10.461 12.9837 11.4474 13.7903 12.4447 14.5567C12.4594 14.5677 12.4777 14.575 12.496 14.586C12.5217 14.6117 12.551 14.6373 12.5767 14.6593C13.5704 15.4183 14.5787 16.1407 15.6164 16.863C15.5834 16.9107 15.5504 16.9583 15.5137 17.006C14.5017 18.3003 13.464 19.5837 12.3897 20.8303C12.3494 20.8743 12.3164 20.922 12.2797 20.966C12.254 20.9917 12.2284 21.0173 12.2027 21.043C11.099 22.3153 9.95503 23.5473 8.77803 24.6913C8.75236 24.717 8.73036 24.7427 8.70836 24.7683H8.71203Z" fill="black"/>
<path d="M4.24978 8.54699C4.27178 8.57632 4.29745 8.61666 4.32312 8.66799C6.87512 12.0963 9.60678 14.982 13.0865 17.49C13.2001 17.5743 13.2075 17.5413 13.0791 17.7027C10.0835 21.153 7.01445 24.2733 3.32945 26.994C3.32212 27.0013 3.29278 27.0013 3.33678 27.027C2.50812 26.7777 1.68678 26.433 0.913118 26.0223C0.902118 26.0187 0.887451 26.0077 0.887451 26.0077C0.927785 26.0223 0.806784 26.0847 1.25778 25.8537C4.89878 23.9323 7.78078 21.2043 10.6188 18.2747C10.7141 18.172 10.7105 18.1317 10.6298 18.062C7.09878 14.9857 4.21312 11.7553 2.17812 7.81732C2.13045 7.72566 2.11212 7.65599 2.10478 7.64132C2.46412 7.53132 3.51278 8.31966 4.24978 8.54699Z" fill="#603917"/>
<path d="M2.10094 7.64133C2.10094 7.64133 2.12661 7.72566 2.17427 7.81733C4.20927 11.7553 7.09494 14.9857 10.6259 18.062C10.7103 18.128 10.7103 18.172 10.6149 18.2747C7.77694 21.208 4.89494 23.9323 1.25394 25.8537C0.802942 26.0847 0.923942 26.0223 0.883608 26.0077C0.883608 26.0077 0.901942 26.0187 0.909275 26.0223C0.850608 25.993 0.813942 25.971 0.769942 25.9453C0.106275 25.5823 0.0219416 24.8967 0.109942 24.1487C0.142942 24.134 0.175942 24.123 0.208942 24.1083C3.22294 22.8177 5.66494 20.7203 8.11427 18.6047C8.21327 18.513 8.20228 18.4727 8.12527 18.3993C5.55127 15.741 3.75461 13.3063 1.85161 10.1237C1.82961 10.0833 1.81861 10.0357 1.79661 10.0357C1.89194 9.24366 1.86627 8.02999 2.08994 7.64866C2.08994 7.64866 2.08994 7.64866 2.09361 7.64866L2.10094 7.64133Z" fill="#7CBFE8"/>
<path d="M1.80044 10.032C1.81877 10.032 1.82977 10.0797 1.85544 10.12C3.75844 13.3063 5.5551 15.7373 8.1291 18.3957C8.20977 18.469 8.2171 18.5093 8.1181 18.601C5.66877 20.7167 3.23044 22.814 0.21277 24.1047C0.17977 24.1193 0.14677 24.1303 0.11377 24.145C0.205436 23.3603 0.30077 22.5757 0.396103 21.7873C0.425436 21.769 0.458436 21.7543 0.491436 21.736C2.11944 20.9293 3.85744 19.9393 5.56977 18.59C5.66021 18.5191 5.66755 18.4397 5.59177 18.3517C4.13977 16.687 2.8051 14.641 1.5841 12.4923C1.55844 12.4447 1.53644 12.408 1.52177 12.3823C1.61344 11.5977 1.70877 10.813 1.8041 10.0247L1.80044 10.032Z" fill="#F398BF"/>
<path d="M31.8486 20.0163C31.9219 20.713 31.9989 21.4097 32.0722 22.1027C32.1162 22.5317 32.1602 22.957 32.2042 23.3823C32.1492 23.3457 32.0869 23.309 32.0282 23.276C23.9102 19.8917 16.8702 23.5363 8.92825 24.75C8.85858 24.761 8.78525 24.761 8.71191 24.7683C8.73391 24.7427 8.75591 24.717 8.78158 24.6913C9.95858 23.5473 11.0989 22.319 12.2062 21.043C12.2282 21.0173 12.2576 20.9917 12.2832 20.966C12.3272 20.955 12.3749 20.9477 12.4189 20.9367C19.2902 19.0667 24.9772 17.0867 31.8522 20.0163H31.8486Z" fill="#0054A5"/>
<path d="M6.55225 8.99066C6.59991 8.99066 6.64758 8.99799 6.69158 8.99799C14.5382 9.06032 22.8176 3.17166 30.2976 6.48266C30.4259 6.53766 30.4332 6.55966 30.4516 6.72099C30.5579 7.73299 30.6642 8.74499 30.7706 9.75699C30.7742 9.80099 30.7779 9.84499 30.7816 9.88899C30.7376 9.84866 30.6752 9.82299 30.6202 9.79366C23.1146 7.12066 17.0169 10.3583 9.65791 12.0047C9.58825 12.0157 9.51858 12.0267 9.44891 12.034C9.43058 12.0193 9.40858 12.0083 9.39025 11.99C8.44425 11.11 7.45791 10.1127 6.59625 9.03466C6.58158 9.01266 6.56691 8.99432 6.55225 8.98332V8.99066Z" fill="#ED3124"/>
<path d="M9.44897 12.0413C9.51864 12.0303 9.58831 12.0193 9.65797 12.012C17.017 10.3657 23.111 7.12801 30.6203 9.80101C30.6753 9.83035 30.7376 9.85601 30.7816 9.89635C30.8843 10.8533 30.987 11.814 31.0896 12.771C31.108 12.9397 31.1226 13.1047 31.141 13.2733C31.0933 13.233 31.031 13.2073 30.976 13.178C24.4456 10.6187 19.1106 12.65 12.6976 14.531C12.6316 14.5493 12.5656 14.5677 12.4996 14.586C12.4813 14.575 12.463 14.5677 12.4483 14.5567C11.451 13.7903 10.4646 12.9837 9.50031 12.0963C9.48197 12.0817 9.46731 12.0597 9.45264 12.0413H9.44897Z" fill="#F47E29"/>
<path d="M31.8488 20.0163C24.9738 17.0867 19.2868 19.0667 12.4155 20.9367C12.3715 20.9477 12.3238 20.9587 12.2798 20.966C12.3165 20.922 12.3531 20.8743 12.3898 20.8303C13.4605 19.5837 14.5018 18.3003 15.5138 17.006C15.5505 16.9583 15.5835 16.9107 15.6165 16.863C15.6788 16.8447 15.7411 16.8263 15.8071 16.808C21.5308 15.1543 25.9088 14.2963 31.4931 16.6393C31.5665 17.3213 31.6398 18.007 31.7131 18.689C31.7608 19.1327 31.8048 19.5763 31.8488 20.0163Z" fill="#58B847"/>
<path d="M31.4931 16.6393C25.9088 14.2963 21.5344 15.1543 15.8071 16.808C15.7448 16.8263 15.6824 16.8447 15.6164 16.863C14.5788 16.1407 13.5704 15.4183 12.5768 14.6593C12.5474 14.6373 12.5218 14.6117 12.4961 14.586C12.5621 14.5677 12.6281 14.5493 12.6941 14.531C19.1071 12.65 24.4421 10.6187 30.9724 13.178C31.0274 13.2073 31.0898 13.2367 31.1374 13.2733C31.2364 14.2047 31.3354 15.1323 31.4344 16.0637C31.4564 16.258 31.4748 16.4487 31.4931 16.6393Z" fill="#FEEF00"/>
</svg>
