<svg width="17" height="33" viewBox="0 0 17 33" fill="none" xmlns="http://www.w3.org/2000/svg">
<g clip-path="url(#clip0_211_7012)">
<path d="M16.4822 27.6801C16.3199 27.3589 16.162 27.0356 16.0003 26.7142C15.7833 26.2829 14.8659 24.5481 14.6443 24.1363C14.498 23.8646 14.3602 23.5885 14.2008 23.3237C14.049 23.0713 13.914 22.8087 13.7704 22.5514C13.6758 22.3819 12.7364 20.748 12.5241 20.3633C12.2877 19.9351 12.021 19.5239 11.7678 19.105C11.7004 18.9935 11.7002 18.9305 11.7801 18.83C11.9326 18.6381 14.0632 15.257 14.1265 15.1443C14.2388 14.9443 14.3361 14.7352 14.4578 14.5413C14.6112 14.2969 14.7456 14.0433 14.8721 13.7846C15.016 13.4948 15.1611 13.2057 15.3035 12.9152C15.4803 12.5541 16.1855 10.7657 16.3001 9.5577C16.3588 8.93917 16.1978 7.78617 16.1727 7.59505C16.1247 7.23085 16.0305 6.87854 15.9286 6.52734C15.9167 6.48671 15.8444 6.18098 15.8068 6.07292C15.6818 5.71355 15.561 5.35297 15.4103 5.00278C15.1911 4.49322 14.9338 4.00533 14.6339 3.53952C14.5214 3.36482 14.397 3.1984 14.2833 3.02441C14.2022 2.90032 13.2922 1.92484 13.1245 1.78664C12.9585 1.64975 12.8004 1.50469 12.6269 1.37496C12.016 0.918319 11.3493 0.573973 10.6313 0.325794C10.3598 0.231946 10.085 0.141727 9.80089 0.103321C9.08352 0.0063476 7.67926 -0.0788315 6.77958 0.124893C6.06993 0.285574 5.39124 0.540607 4.76213 0.915798C4.49115 1.07739 3.39573 1.52899 2.5283 2.74539C2.12109 3.31634 1.7281 3.88951 1.43138 4.52921C1.12894 5.18121 0.915068 5.86103 0.731546 6.55294C0.724533 6.57411 0.718823 6.59578 0.715618 6.61796C0.703396 6.72048 0.704799 6.82562 0.663326 6.92289C0.427211 7.98294 0.412986 9.04279 0.666431 10.1027C0.824209 10.8681 1.05562 11.6115 1.32389 12.3438C1.53987 12.9333 1.80243 13.5031 2.05768 14.076C2.50045 14.9937 2.99312 15.8832 3.52345 16.7524C3.76398 17.1466 4.03155 17.5228 4.26876 17.919C4.42534 18.1344 4.5724 18.3564 4.72827 18.5724C4.87603 18.7769 4.88244 18.8921 4.74871 19.1057C4.66476 19.2398 0.316216 26.7471 0.053454 27.3095C-0.0322967 27.4931 -0.00905584 27.6552 0.0873135 27.8232C0.402267 28.3727 3.17163 32.3898 3.3239 32.6169C3.4374 32.7863 3.49941 32.7782 3.59889 32.6077C3.71549 32.4079 3.80915 32.1963 3.91454 31.9909C4.37946 31.0845 4.8605 30.1872 5.36369 29.3018C6.01002 28.1133 7.54592 25.5522 7.61514 25.4291C7.77663 25.1571 7.93811 24.8851 8.11222 24.6208C8.19206 24.4996 8.24285 24.5128 8.30325 24.6338C8.43819 24.9039 12.7398 32.7479 12.8416 32.8955C12.8701 32.9367 12.8896 32.9852 12.9546 33.0002C13.0028 32.9341 13.0543 32.8659 13.1032 32.7959C13.5148 32.2062 13.9204 31.6121 14.339 31.0275C14.7074 30.5129 16.0121 28.6057 16.1928 28.3287C16.2949 28.1721 16.3965 28.0147 16.4756 27.8441C16.5012 27.7892 16.5123 27.7396 16.4823 27.6802L16.4822 27.6801ZM8.94318 12.963C8.84781 13.0987 8.76016 13.2397 8.66559 13.3758C8.6144 13.4495 8.56461 13.4516 8.51192 13.3851C8.40012 13.2441 7.95053 12.7059 7.84475 12.5732C7.65812 12.339 7.49012 12.0897 7.31421 11.8467C7.27655 11.7947 7.23718 11.7438 7.20112 11.6906C6.95629 11.3293 6.70985 10.9692 6.46893 10.6053C6.35844 10.4384 6.25936 10.2639 6.15508 10.093C6.04699 9.90668 5.9391 9.72029 5.83061 9.53431C5.74746 9.39178 5.658 9.25257 5.58087 9.1069C5.39564 8.75742 5.20481 8.41025 5.03651 8.0524C4.78597 7.51955 4.54244 6.98267 4.35411 6.42301C4.3473 6.40274 4.13132 5.74409 4.09766 5.61829C4.19123 5.52847 4.84628 5.13685 4.9155 5.09734C5.40256 4.81861 5.93279 4.58505 6.47103 4.4284C6.80993 4.32982 7.15283 4.25885 7.49814 4.19827C7.73776 4.15623 7.98179 4.13517 8.22662 4.13839C8.49259 4.14202 8.75865 4.14343 9.02472 4.14414C9.30571 4.14494 9.5798 4.20079 9.85498 4.24776C10.1384 4.29615 10.4169 4.36742 10.6886 4.45875C11.3051 4.666 11.8878 4.93988 12.3977 5.35691C12.5434 5.47616 12.6747 5.60831 12.8107 5.73684C12.8818 5.80407 12.9064 5.87524 12.8668 5.96929C12.8 6.12775 11.4943 9.33321 8.94308 12.9629L8.94318 12.963Z" fill="#EB81B4"/>
<path d="M14.0677 4.12555C14.0677 4.12555 14.5848 4.91161 14.712 5.19538C14.8896 5.59194 15.0225 6.00332 15.155 6.4151C15.2543 6.72346 15.3227 7.04069 15.3938 7.35711C15.4474 7.59612 15.494 7.83603 15.5326 8.07756C15.5655 8.28319 15.6031 9.00223 15.6073 9.15404C15.6162 9.47328 15.5678 9.78729 15.5085 10.098C15.3767 10.7874 15.1593 11.4519 14.8864 12.0968C14.7292 12.4683 14.5695 12.8404 14.3805 13.1959C14.1639 13.603 13.9594 14.0168 13.7248 14.415C13.5091 14.7811 13.2999 15.1514 13.0826 15.5167C12.9538 15.7334 12.8257 15.9507 12.6918 16.1642C12.3169 16.7623 11.9425 17.3608 11.5613 17.9548C11.2189 18.4884 10.8665 19.0154 10.5209 19.5468C10.1243 20.1567 9.7294 20.7677 9.33541 21.3793C9.05071 21.8213 8.76501 22.2629 8.48622 22.7087C8.09293 23.3377 7.70575 23.9706 7.31566 24.6016C7.23232 24.7364 7.15057 24.8723 7.06322 25.0044C6.74526 25.4853 6.46407 25.9889 6.16604 26.482C6.01327 26.7347 5.8597 26.987 5.71054 27.2418C5.53223 27.5466 5.35842 27.8539 5.18221 28.1599C5.03836 28.4096 4.892 28.6578 4.74995 28.9085C4.60079 29.1719 4.45433 29.437 4.30858 29.7025C4.07607 30.1258 3.84466 30.5498 3.61356 30.974C3.55836 31.0753 3.50827 31.1795 3.45197 31.2802C3.42803 31.3232 3.37634 31.3267 3.34208 31.2924C3.31683 31.2671 3.29239 31.2401 3.27206 31.2108C2.85673 30.6138 2.4452 30.0144 2.0483 29.4047C1.76521 28.9699 1.49153 28.5298 1.23487 28.0785C1.1348 27.9026 1.04674 27.7211 0.950174 27.5439C0.912308 27.4743 0.909803 27.4075 0.938354 27.3375C0.960192 27.2841 0.984735 27.2318 1.01038 27.1802C1.25751 26.6819 1.49503 26.1785 1.75569 25.6875C1.97868 25.2673 2.18865 24.8397 2.43579 24.4324C2.53666 24.2662 2.62231 24.0907 2.71538 23.9197C2.74603 23.8632 2.76577 23.7981 2.83038 23.7675C2.901 23.878 2.81866 23.9632 2.77428 24.0459C2.23073 25.0575 1.76451 26.1095 1.20472 27.1121C1.06518 27.362 1.08441 27.5507 1.23748 27.7823C1.85046 28.7093 2.44109 29.6515 3.05137 30.5804C3.11368 30.6752 3.17398 30.7709 3.21776 30.8758C2.93877 30.1628 2.70726 29.4327 2.45171 28.7115C2.29975 28.2824 2.15369 27.8509 1.99962 27.4227C1.93571 27.2451 1.95644 27.1095 2.05271 26.9571C2.61189 26.0721 3.14814 25.1728 3.6946 24.2799C4.40304 23.1223 5.11019 21.964 5.81943 20.8068C7.18503 18.5787 8.54352 16.3462 9.90822 14.1175C10.8017 12.6584 11.6943 11.1986 12.5804 9.73487C13.0071 9.03015 13.2734 8.25447 13.5311 7.48443C13.7241 6.90763 14.0678 4.12524 14.0678 4.12524L14.0677 4.12555Z" fill="#FFBBDD"/>
<path d="M2.87684 3.59863C2.88716 3.6074 2.90519 3.61496 2.9067 3.62494C2.92583 3.75276 2.95248 3.88048 2.95769 4.00911C2.9683 4.26948 3.0204 4.5232 3.06367 4.77834C3.13369 5.19063 3.25 5.59203 3.35619 5.99564C3.39646 6.14887 3.45015 6.29896 3.50324 6.44835C3.65541 6.87637 3.81459 7.30135 3.99902 7.71707C4.1599 8.07986 4.31597 8.44467 4.49789 8.79748C4.70946 9.20765 4.93256 9.61127 5.16156 10.012C5.47281 10.5567 5.80809 11.0861 6.15561 11.6072C6.53878 12.1818 6.93908 12.7449 7.36503 13.2888C7.57771 13.5604 7.78868 13.8333 8.00365 14.1032C8.06136 14.1757 8.06987 14.246 8.02159 14.3216C7.97901 14.3882 7.92962 14.4502 7.88535 14.5157C7.62279 14.9032 7.36123 15.2914 7.09856 15.6787C6.73893 16.2091 6.379 16.7392 6.01836 17.2688C5.8684 17.489 5.71593 17.7074 5.56547 17.9274C5.54113 17.963 5.5249 18.005 5.48533 18.0273C5.39297 18.0791 5.3565 18.1014 5.29089 17.9967C5.09184 17.6794 4.88658 17.3661 4.69043 17.047C4.43017 16.6236 4.17553 16.1968 3.91998 15.7706C3.83112 15.6223 3.74377 15.4729 3.66122 15.321C3.53039 15.0802 3.41118 14.8327 3.27414 14.5957C3.12578 14.3391 2.99645 14.0731 2.86683 13.8073C2.44609 12.9442 2.07353 12.0614 1.79174 11.1413C1.65449 10.6932 1.54941 10.237 1.46376 9.77739C1.4326 9.61006 1.39033 9.43809 1.40616 9.26289C1.32922 8.86895 1.3744 8.47058 1.36418 8.07422C1.35637 7.77059 1.40606 7.47212 1.44052 7.17172C1.47929 6.83383 1.55151 6.50379 1.63526 6.17659C1.74265 5.75714 1.8875 5.35 2.05971 4.95162C2.25545 4.49881 2.50579 4.07987 2.78428 3.67585C2.80051 3.65236 2.81754 3.62897 2.83767 3.60912C2.84599 3.60085 2.86342 3.60196 2.87674 3.59883L2.87684 3.59863Z" fill="#FFBBDD"/>
<path d="M12.9467 31.3152C12.8954 31.3118 12.8758 31.2904 12.8606 31.2657C12.819 31.1983 12.7778 31.1307 12.7386 31.0618C12.6602 30.924 12.5825 30.7857 12.5059 30.6468C12.2899 30.2556 12.0746 29.8641 11.8592 29.4726C11.8522 29.46 11.8466 29.4466 11.8399 29.4338C11.6601 29.0882 11.48 28.7426 11.3006 28.3968C11.1144 28.0381 10.9372 27.6744 10.7408 27.3216C10.5756 27.0249 10.4293 26.7191 10.2744 26.4175C10.017 25.9168 9.76938 25.4109 9.50181 24.9158C9.33702 24.6109 9.18535 24.2996 9.02477 23.9929C8.96466 23.8779 8.90055 23.765 8.83594 23.6526C8.78044 23.5561 8.78124 23.4746 8.84766 23.3738C9.17674 22.8748 9.4949 22.3685 9.81987 21.8668C10.1645 21.3348 10.5127 20.8051 10.8588 20.2741C10.9727 20.0994 11.0838 19.9228 11.1988 19.7488C11.2373 19.6906 11.2789 19.6879 11.3175 19.7414C11.3595 19.7994 11.3925 19.8638 11.4304 19.9249C11.6657 20.3049 11.8811 20.6962 12.0955 21.0884C12.2509 21.3729 12.4171 21.6514 12.5756 21.9341C12.6708 22.1039 12.7617 22.2762 12.8526 22.4483C13.0108 22.7483 13.1627 23.0517 13.3255 23.349C13.6616 23.963 13.9727 24.5901 14.2982 25.2096C14.53 25.6506 14.7503 26.097 14.9724 26.5428C15.1459 26.891 15.3064 27.2456 15.4775 27.595C15.517 27.6754 15.5187 27.7445 15.4729 27.8189C15.4503 27.8557 15.4348 27.8972 15.4105 27.9327C15.2029 28.2354 15.0085 28.547 14.7843 28.8385C14.5783 29.1063 14.3892 29.3872 14.1894 29.6599C13.9134 30.0371 13.6338 30.4114 13.3569 30.7879C13.2461 30.9385 13.139 31.092 13.0293 31.2434C13.0041 31.2782 12.9738 31.3086 12.9468 31.3154L12.9467 31.3152Z" fill="#FFBBDD"/>
<path d="M3.69659 3.10816C3.69659 2.9997 3.6995 2.89113 3.69589 2.78277C3.69118 2.64074 3.74718 2.53812 3.86118 2.45132C4.04941 2.30808 4.21931 2.14176 4.41415 2.00557C4.61441 1.86566 4.81346 1.72554 5.02603 1.60397C5.20715 1.50034 5.38897 1.39883 5.577 1.30892C6.07137 1.07263 6.58767 0.905803 7.12462 0.797237C7.36324 0.748952 7.60526 0.727078 7.84338 0.678995C7.86432 0.674761 7.88626 0.67335 7.90769 0.67335C8.2527 0.673047 8.59941 0.651374 8.94201 0.679801C9.24635 0.705103 9.54948 0.760142 9.85111 0.825261C10.368 0.936951 10.8521 1.12777 11.3228 1.36053C11.6909 1.54258 12.0286 1.77463 12.3534 2.02493C12.6095 2.2223 12.8521 2.4359 13.0795 2.66704C13.2658 2.85645 13.3648 3.07903 13.3599 3.34576C13.3561 3.55442 13.3545 3.76167 13.329 3.97124C13.2996 4.21388 13.269 4.45611 13.2301 4.69733C13.2233 4.73937 13.2101 4.7811 13.1946 4.82092C13.1751 4.87092 13.1415 4.88049 13.0912 4.85317C13.0597 4.83614 13.0275 4.8188 13 4.79622C12.5701 4.44129 12.095 4.15803 11.5898 3.92991C11.0593 3.6904 10.5102 3.5013 9.93426 3.40291C9.78249 3.37701 9.63082 3.34999 9.47876 3.3256C9.40172 3.3133 9.32448 3.3016 9.24725 3.29112C9.18394 3.28255 9.12283 3.26582 9.05952 3.25987C8.87209 3.24233 8.68366 3.2515 8.49613 3.26108C8.28546 3.27187 8.07499 3.26642 7.86492 3.27711C7.65485 3.28779 7.44027 3.32287 7.2287 3.35221C6.95883 3.38971 6.69216 3.4396 6.4293 3.50966C6.04773 3.61137 5.67757 3.74645 5.31043 3.89241C4.92054 4.04745 4.56772 4.2674 4.21631 4.49149C4.12575 4.54925 4.0423 4.6184 3.95405 4.67999C3.91728 4.7056 3.88102 4.69199 3.8726 4.64905C3.84085 4.48675 3.80719 4.32476 3.78305 4.16126C3.75159 3.94816 3.72254 3.73435 3.70411 3.51984C3.69239 3.38356 3.7019 3.24536 3.7019 3.10806C3.7001 3.10806 3.6983 3.10806 3.69649 3.10806L3.69659 3.10816Z" fill="#FFBBDD"/>
<path d="M14.0321 4.79868C14.0384 4.77943 14.0546 4.7635 14.0912 4.70947C14.0714 4.83739 14.0593 4.92529 14.0442 5.01269C14.0037 5.24585 13.9629 5.47901 13.9203 5.71176C13.8686 5.99401 13.8138 6.27566 13.7626 6.55801C13.7281 6.74863 13.6877 6.93895 13.6677 7.13128C13.6369 7.42926 13.53 7.70193 13.4207 7.97541C13.2523 8.39657 13.0911 8.82085 12.9169 9.23949C12.851 9.39795 12.7803 9.55581 12.6673 9.6924C12.5951 9.7797 12.5521 9.89108 12.4934 9.99017C12.3943 10.1573 12.2944 10.3239 12.1927 10.4895C12.0497 10.7224 11.9041 10.9538 11.7611 11.1867C11.6406 11.3829 11.5227 11.5806 11.4028 11.7771C11.2604 12.0105 11.1171 12.2432 10.9746 12.4766C10.7684 12.8144 10.563 13.1526 10.3566 13.4902C10.2178 13.7173 10.0774 13.9434 9.93868 14.1705C9.73232 14.5082 9.52706 14.8465 9.3208 15.1842C9.18205 15.4113 9.04151 15.6373 8.90276 15.8644C8.6964 16.2021 8.49314 16.5416 8.28387 16.8775C8.20423 17.0053 8.13541 17.1392 8.04125 17.2593C7.9579 17.3657 7.90491 17.4958 7.83418 17.6128C7.66679 17.8901 7.49679 18.1656 7.32809 18.4419C7.14818 18.7366 6.96866 19.0316 6.78895 19.3263C6.6466 19.5597 6.50405 19.793 6.3618 20.0264C6.15203 20.3704 5.94276 20.7147 5.73259 21.0584C5.59755 21.2794 5.46091 21.4993 5.32588 21.7203C5.11581 22.0641 4.90684 22.4086 4.69667 22.7523C4.56163 22.9733 4.42499 23.1932 4.28985 23.4142C4.15852 23.629 4.0288 23.8448 3.89726 24.0595C3.79579 24.2252 3.6915 24.389 3.59032 24.5548C3.38416 24.8926 3.1796 25.2314 2.97344 25.5692C2.78611 25.8762 2.59778 26.1827 2.40955 26.4892C2.27401 26.7099 2.13837 26.9305 2.00133 27.1504C1.97989 27.1849 1.9812 27.2152 1.99412 27.2519C2.16342 27.7346 2.33171 28.2177 2.49971 28.701C2.71268 29.3135 2.92305 29.927 3.13933 30.5384C3.19152 30.686 3.25944 30.8279 3.2928 30.9834C3.23129 30.9969 3.21276 30.9506 3.19283 30.9185C3.06751 30.7169 2.9505 30.51 2.82097 30.3111C2.56983 29.9254 2.30807 29.5467 2.05853 29.16C1.71142 28.622 1.37263 28.0786 1.02662 27.5399C0.989954 27.4828 0.984444 27.4403 1.0156 27.3823C1.14533 27.1411 1.2454 26.8843 1.39727 26.6544C1.42893 26.6067 1.45016 26.5519 1.47591 26.5001C1.7555 25.9375 2.03319 25.3739 2.31528 24.8125C2.45773 24.5291 2.6088 24.25 2.75426 23.9681C2.78701 23.9047 2.83109 23.8446 2.82989 23.7677C2.87917 23.591 2.99237 23.4473 3.07983 23.2913C3.28409 22.927 3.50057 22.5696 3.71504 22.2111C3.85559 21.9763 3.99994 21.7439 4.1449 21.5117C4.61022 20.7663 5.09156 20.0312 5.565 19.2912C5.96891 18.66 6.40086 18.0483 6.81068 17.4215C7.11011 16.9637 7.42847 16.5183 7.73761 16.0669C8.16466 15.4432 8.5839 14.8141 9.01907 14.1962C9.65368 13.2951 10.2588 12.3743 10.8607 11.4513C11.2422 10.8664 11.6115 10.2727 11.9672 9.67153C12.2165 9.25017 12.4569 8.82297 12.6847 8.3884C12.8389 8.09416 12.9789 7.79376 13.1169 7.49286C13.3512 6.98189 13.5623 6.46023 13.7275 5.92144C13.7802 5.74956 14.0208 4.83245 14.0318 4.79868H14.0321Z" fill="#FFC6E4"/>
</g>
<defs>
<clipPath id="clip0_211_7012">
<rect width="16.5" height="33" fill="white"/>
</clipPath>
</defs>
</svg>
