<svg width="33" height="33" viewBox="0 0 33 33" fill="none" xmlns="http://www.w3.org/2000/svg">
<path d="M33 26.4968C22 18.4273 11 34.0149 0 25.9454V6.77846C11 14.4534 22 -1.52877 33 6.14619V26.4968Z" fill="white"/>
<path d="M33 26.4969C22 18.4274 11 34.015 0 25.9455V24.4539C11 32.4923 22 16.8744 33 24.9128V26.4959V26.4969Z" fill="#D0202B"/>
<path d="M33 23.3687C22 15.3605 11 31.0085 0 22.9994V21.5079C11 29.4858 22 13.8076 33 21.7855V23.3687Z" fill="#D0202B"/>
<path d="M33 20.2413C22 12.2926 11 28.0011 0 20.0533V18.5618C11 26.4793 22 10.7397 33 18.6572V20.2404V20.2413Z" fill="#D0202B"/>
<path d="M33 17.1131C22 9.22571 11 24.9946 0 17.1072V15.6157C11 23.4728 22 7.67279 33 15.529V17.1121V17.1131Z" fill="#D0202B"/>
<path d="M33 13.9848C22 6.15788 11 21.9881 0 14.1612V12.6696C11 20.4654 22 4.60496 33 12.4017V13.9848Z" fill="#D0202B"/>
<path d="M33 10.8576C22 3.09105 11 18.9817 0 11.2151V9.72359C11 17.459 22 1.53813 33 9.27349V10.8566V10.8576Z" fill="#D0202B"/>
<path d="M33 7.72931C22 0.0241449 11 15.9752 0 8.26903V6.77749C11 14.4524 22 -1.52975 33 6.14521V7.72833V7.72931Z" fill="#D0202B"/>
<path d="M13.1618 18.2568C8.77487 19.6353 4.38695 20.253 0 17.1072V6.77844C4.38695 9.83946 8.77487 9.13705 13.1618 7.67376V18.2568Z" fill="#223165"/>
<path d="M1.09407 7.84534C1.14278 8.01388 1.19052 8.18145 1.23923 8.34901C1.39218 8.43377 1.54513 8.51366 1.69809 8.58965C1.57534 8.6179 1.45161 8.64323 1.32886 8.66661C1.37464 8.8332 1.42141 8.9998 1.4672 9.16541C1.3425 9.01441 1.21779 8.86048 1.09309 8.70363C0.968392 8.72019 0.843691 8.73383 0.71899 8.74455C0.764779 8.63056 0.811542 8.51658 0.85733 8.40259C0.734578 8.24185 0.610851 8.0772 0.488098 7.91061C0.641052 8.00706 0.794006 8.09864 0.946959 8.18632C0.995671 8.07331 1.04341 7.95932 1.09212 7.84534H1.09407Z" fill="white"/>
<path d="M3.30165 8.80005C3.35036 8.9569 3.3981 9.11375 3.44681 9.26963C3.59976 9.31639 3.75272 9.35926 3.90567 9.3992C3.78292 9.45765 3.65919 9.51318 3.53644 9.56579C3.58223 9.72167 3.62899 9.87754 3.67478 10.0324C3.55008 9.91164 3.42538 9.78792 3.30067 9.66224C3.17597 9.70998 3.05127 9.75577 2.92657 9.79863C2.97236 9.67296 3.01912 9.54631 3.06491 9.41966C2.94216 9.28911 2.81843 9.15662 2.69568 9.02217C2.84863 9.07868 3.00159 9.13129 3.15454 9.18C3.20325 9.05432 3.25099 8.92767 3.2997 8.80102L3.30165 8.80005Z" fill="white"/>
<path d="M5.50828 9.24719C5.55699 9.3943 5.60473 9.54141 5.65344 9.68754C5.8064 9.70216 5.95935 9.71385 6.1123 9.72262C5.98955 9.80542 5.86582 9.88726 5.74307 9.96617C5.78886 10.1133 5.83562 10.2594 5.88141 10.4065C5.75671 10.3101 5.63201 10.2127 5.50731 10.1123C5.38261 10.1873 5.25791 10.2594 5.1332 10.3296C5.17899 10.1932 5.22576 10.0558 5.27155 9.91844C5.14879 9.81419 5.02507 9.708 4.90231 9.59986C5.05527 9.62227 5.20822 9.64175 5.36117 9.65832C5.40989 9.52192 5.45762 9.38456 5.50633 9.24719H5.50828Z" fill="white"/>
<path d="M7.71589 9.27161C7.7646 9.41092 7.81234 9.55024 7.86105 9.68955C8.01401 9.67786 8.16696 9.66422 8.31991 9.64863C8.19716 9.7519 8.07343 9.85419 7.95068 9.95454C7.99647 10.0939 8.04323 10.2341 8.08902 10.3735C7.96432 10.2975 7.83962 10.2205 7.71492 10.1416C7.59022 10.238 7.46552 10.3325 7.34082 10.4261C7.3866 10.2809 7.43337 10.1348 7.47916 9.98864C7.3564 9.90583 7.23268 9.82107 7.10992 9.73534C7.26288 9.72949 7.41583 9.7217 7.56879 9.71098C7.6175 9.56485 7.66523 9.41871 7.71394 9.27258L7.71589 9.27161Z" fill="white"/>
<path d="M9.92347 8.95691C9.97219 9.09038 10.0199 9.22385 10.0686 9.35732C10.2216 9.32614 10.3745 9.29302 10.5275 9.25795C10.4047 9.3768 10.281 9.49468 10.1583 9.61159C10.2041 9.74603 10.2508 9.88048 10.2966 10.0139C10.1719 9.95354 10.0472 9.89217 9.9225 9.82982C9.7978 9.94283 9.6731 10.0558 9.5484 10.1659C9.59419 10.013 9.64095 9.86002 9.68674 9.70706C9.56398 9.64082 9.44026 9.5736 9.3175 9.5054C9.47046 9.47812 9.62341 9.44792 9.77637 9.41674C9.82508 9.26379 9.87281 9.11084 9.92153 8.95691H9.92347Z" fill="white"/>
<path d="M12.1311 8.38989C12.1798 8.51946 12.2275 8.64903 12.2762 8.77763C12.4292 8.73184 12.5822 8.68508 12.7351 8.63734C12.6124 8.76692 12.4886 8.89649 12.3659 9.02411C12.4117 9.15466 12.4584 9.28521 12.5042 9.41575C12.3795 9.36607 12.2548 9.31638 12.1301 9.26475C12.0054 9.39042 11.8807 9.51512 11.756 9.63885C11.8018 9.48102 11.8486 9.3232 11.8943 9.1644C11.7716 9.10984 11.6479 9.05529 11.5251 8.99976C11.6781 8.95592 11.831 8.9111 11.984 8.86434C12.0327 8.70554 12.0804 8.54772 12.1291 8.38892L12.1311 8.38989Z" fill="white"/>
<path d="M2.19786 9.45666C2.24657 9.61936 2.29431 9.78108 2.34302 9.9428C2.49597 10.0081 2.64893 10.0695 2.80188 10.126C2.67913 10.1698 2.5554 10.2107 2.43265 10.2487C2.47844 10.4095 2.5252 10.5702 2.57099 10.731C2.44629 10.5955 2.32158 10.4572 2.19688 10.3159C2.07218 10.3481 1.94748 10.3783 1.82278 10.4056C1.86857 10.2857 1.91533 10.1649 1.96112 10.0441C1.83837 9.89896 1.71464 9.75088 1.59189 9.60085C1.74484 9.67684 1.8978 9.74893 2.05075 9.81615C2.09946 9.69632 2.1472 9.57649 2.19591 9.45569L2.19786 9.45666Z" fill="white"/>
<path d="M4.40547 10.1522C4.45418 10.3042 4.50192 10.4552 4.55063 10.6072C4.70358 10.6374 4.85654 10.6647 5.00949 10.688C4.88674 10.7592 4.76301 10.8274 4.64026 10.8946C4.68605 11.0456 4.73281 11.1966 4.7786 11.3476C4.6539 11.2395 4.5292 11.1294 4.40449 11.0164C4.27979 11.0777 4.15509 11.1372 4.03039 11.1946C4.07618 11.0631 4.12294 10.9316 4.16873 10.7991C4.04598 10.6822 3.92225 10.5633 3.7995 10.4416C3.95245 10.4805 4.10541 10.5166 4.25836 10.5487C4.30707 10.4172 4.35481 10.2857 4.40352 10.1532L4.40547 10.1522Z" fill="white"/>
<path d="M6.61207 10.3812C6.66078 10.5244 6.70852 10.6676 6.75723 10.8099C6.91019 10.8109 7.06314 10.8099 7.21609 10.806C7.09334 10.8995 6.96961 10.9911 6.84686 11.0817C6.89265 11.2249 6.93941 11.3681 6.9852 11.5104C6.8605 11.4246 6.7358 11.3379 6.6111 11.2483C6.4864 11.334 6.3617 11.4178 6.23699 11.4996C6.28278 11.3584 6.32955 11.2171 6.37534 11.0749C6.25258 10.9813 6.12886 10.8868 6.0061 10.7904C6.15906 10.7982 6.31201 10.804 6.46496 10.806C6.51368 10.6647 6.56141 10.5225 6.61012 10.3802L6.61207 10.3812Z" fill="white"/>
<path d="M8.81968 10.2302C8.8684 10.3666 8.91613 10.503 8.96484 10.6384C9.1178 10.617 9.27075 10.5926 9.42371 10.5673C9.30095 10.6784 9.17723 10.7894 9.05447 10.8976C9.10026 11.034 9.14702 11.1713 9.19281 11.3077C9.06811 11.2405 8.94341 11.1713 8.81871 11.1012C8.69401 11.2064 8.56931 11.3106 8.44461 11.4129C8.4904 11.2639 8.53716 11.1138 8.58295 10.9648C8.46019 10.8908 8.33647 10.8148 8.21371 10.7388C8.36667 10.7222 8.51962 10.7027 8.67258 10.6813C8.72129 10.5313 8.76902 10.3822 8.81774 10.2322L8.81968 10.2302Z" fill="white"/>
<path d="M11.0273 9.78296C11.076 9.91448 11.1237 10.046 11.1724 10.1765C11.3254 10.1376 11.4783 10.0976 11.6313 10.0557C11.5085 10.1804 11.3848 10.3042 11.2621 10.4269C11.3078 10.5594 11.3546 10.6919 11.4004 10.8234C11.2757 10.7689 11.151 10.7133 11.0263 10.6568C10.9016 10.7767 10.7769 10.8955 10.6522 11.0134C10.698 10.8575 10.7447 10.7026 10.7905 10.5468C10.6678 10.4873 10.544 10.4259 10.4213 10.3646C10.5742 10.3285 10.7272 10.2905 10.8802 10.2516C10.9289 10.0957 10.9766 9.93981 11.0253 9.78393L11.0273 9.78296Z" fill="white"/>
<path d="M2.19786 11.5415C2.24657 11.7042 2.29431 11.8659 2.34302 12.0286C2.49597 12.0939 2.64893 12.1562 2.80188 12.2137C2.67913 12.2566 2.5554 12.2975 2.43265 12.3355C2.47844 12.4972 2.5252 12.658 2.57099 12.8187C2.44629 12.6823 2.32158 12.544 2.19688 12.4027C2.07218 12.4349 1.94748 12.4641 1.82278 12.4904C1.86857 12.3706 1.91533 12.2507 1.96112 12.1299C1.83837 11.9838 1.71464 11.8357 1.59189 11.6847C1.74484 11.7617 1.8978 11.8338 2.05075 11.902C2.09946 11.7821 2.1472 11.6623 2.19591 11.5425L2.19786 11.5415Z" fill="white"/>
<path d="M4.40547 12.2449C4.45418 12.3969 4.50192 12.5488 4.55063 12.6998C4.70358 12.731 4.85654 12.7583 5.00949 12.7826C4.88674 12.8528 4.76301 12.921 4.64026 12.9872C4.68605 13.1382 4.73281 13.2902 4.7786 13.4402C4.6539 13.3311 4.5292 13.221 4.40449 13.108C4.27979 13.1694 4.15509 13.2279 4.03039 13.2844C4.07618 13.1529 4.12294 13.0213 4.16873 12.8888C4.04598 12.7719 3.92225 12.6521 3.7995 12.5303C3.95245 12.5703 4.10541 12.6063 4.25836 12.6385C4.30707 12.5069 4.35481 12.3754 4.40352 12.2439L4.40547 12.2449Z" fill="white"/>
<path d="M6.61207 12.4825C6.66078 12.6258 6.70852 12.769 6.75723 12.9122C6.91019 12.9141 7.06314 12.9132 7.21609 12.9102C7.09334 13.0038 6.96961 13.0944 6.84686 13.184C6.89265 13.3272 6.93941 13.4704 6.9852 13.6136C6.8605 13.5279 6.7358 13.4402 6.6111 13.3506C6.4864 13.4363 6.3617 13.5191 6.23699 13.601C6.28278 13.4597 6.32955 13.3184 6.37534 13.1772C6.25258 13.0836 6.12886 12.9882 6.0061 12.8907C6.15906 12.8995 6.31201 12.9054 6.46496 12.9083C6.51368 12.767 6.56141 12.6258 6.61012 12.4835L6.61207 12.4825Z" fill="white"/>
<path d="M8.81968 12.3403C8.8684 12.4767 8.91613 12.6131 8.96484 12.7495C9.1178 12.7281 9.27075 12.7047 9.42371 12.6794C9.30095 12.7904 9.17723 12.9005 9.05447 13.0086C9.10026 13.146 9.14702 13.2824 9.19281 13.4188C9.06811 13.3506 8.94341 13.2814 8.81871 13.2103C8.69401 13.3155 8.56931 13.4188 8.44461 13.5201C8.4904 13.3711 8.53716 13.222 8.58295 13.072C8.46019 12.997 8.33647 12.921 8.21371 12.844C8.36667 12.8274 8.51962 12.8089 8.67258 12.7885C8.72129 12.6394 8.76902 12.4894 8.81774 12.3394L8.81968 12.3403Z" fill="white"/>
<path d="M11.0273 11.902C11.076 12.0335 11.1237 12.165 11.1724 12.2965C11.3254 12.2585 11.4783 12.2186 11.6313 12.1777C11.5085 12.3014 11.3848 12.4251 11.2621 12.5479C11.3078 12.6804 11.3546 12.8129 11.4004 12.9454C11.2757 12.8908 11.151 12.8343 11.0263 12.7778C10.9016 12.8976 10.7769 13.0155 10.6522 13.1324C10.698 12.9775 10.7447 12.8216 10.7905 12.6658C10.6678 12.6054 10.544 12.544 10.4213 12.4816C10.5742 12.4466 10.7272 12.4086 10.8802 12.3706C10.9289 12.2147 10.9766 12.0588 11.0253 11.903L11.0273 11.902Z" fill="white"/>
<path d="M2.19786 13.6263C2.24657 13.789 2.29431 13.9517 2.34302 14.1135C2.49597 14.1797 2.64893 14.2421 2.80188 14.3005C2.67913 14.3434 2.5554 14.3833 2.43265 14.4203C2.47844 14.5821 2.5252 14.7428 2.57099 14.9036C2.44629 14.7672 2.32158 14.6278 2.19688 14.4856C2.07218 14.5168 1.94748 14.546 1.82278 14.5723C1.86857 14.4525 1.91533 14.3327 1.96112 14.2119C1.83837 14.0657 1.71464 13.9167 1.59189 13.7657C1.74484 13.8426 1.8978 13.9157 2.05075 13.9849C2.09946 13.866 2.1472 13.7462 2.19591 13.6254L2.19786 13.6263Z" fill="white"/>
<path d="M4.40547 14.3375C4.45418 14.4895 4.50192 14.6415 4.55063 14.7935C4.70358 14.8246 4.85654 14.8529 5.00949 14.8782C4.88674 14.9484 4.76301 15.0156 4.64026 15.0818C4.68605 15.2338 4.73281 15.3848 4.7786 15.5358C4.6539 15.4267 4.5292 15.3156 4.40449 15.2017C4.27979 15.2621 4.15509 15.3205 4.03039 15.377C4.07618 15.2455 4.12294 15.114 4.16873 14.9825C4.04598 14.8646 3.92225 14.7448 3.7995 14.623C3.95245 14.6629 4.10541 14.6999 4.25836 14.7331C4.30707 14.6015 4.35481 14.471 4.40352 14.3385L4.40547 14.3375Z" fill="white"/>
<path d="M6.61207 14.584C6.66078 14.7272 6.70852 14.8704 6.75723 15.0136C6.91019 15.0165 7.06314 15.0156 7.21609 15.0136C7.09334 15.1062 6.96961 15.1968 6.84686 15.2864C6.89265 15.4296 6.93941 15.5728 6.9852 15.716C6.8605 15.6293 6.7358 15.5416 6.6111 15.451C6.4864 15.5358 6.3617 15.6186 6.23699 15.6995C6.28278 15.5582 6.32955 15.4169 6.37534 15.2757C6.25258 15.1812 6.12886 15.0857 6.0061 14.9883C6.15906 14.998 6.31201 15.0039 6.46496 15.0078C6.51368 14.8665 6.56141 14.7252 6.61012 14.584H6.61207Z" fill="white"/>
<path d="M8.81968 14.4506C8.8684 14.587 8.91613 14.7233 8.96484 14.8597C9.1178 14.8393 9.27075 14.8169 9.42371 14.7915C9.30095 14.9016 9.17723 15.0117 9.05447 15.1189C9.10026 15.2562 9.14702 15.3936 9.19281 15.53C9.06811 15.4618 8.94341 15.3917 8.81871 15.3205C8.69401 15.4248 8.56931 15.5281 8.44461 15.6294C8.4904 15.4803 8.53716 15.3313 8.58295 15.1822C8.46019 15.1072 8.33647 15.0312 8.21371 14.9533C8.36667 14.9377 8.51962 14.9192 8.67258 14.8997C8.72129 14.7506 8.76902 14.6006 8.81774 14.4515L8.81968 14.4506Z" fill="white"/>
<path d="M11.0273 14.0209C11.076 14.1524 11.1237 14.2839 11.1724 14.4154C11.3254 14.3774 11.4783 14.3385 11.6313 14.2976C11.5085 14.4213 11.3848 14.544 11.2621 14.6658C11.3078 14.7983 11.3546 14.9308 11.4004 15.0633C11.2757 15.0078 11.151 14.9513 11.0263 14.8938C10.9016 15.0126 10.7769 15.1305 10.6522 15.2474C10.698 15.0925 10.7447 14.9376 10.7905 14.7817C10.6678 14.7213 10.544 14.659 10.4213 14.5966C10.5742 14.5616 10.7272 14.5255 10.8802 14.4866C10.9289 14.3307 10.9766 14.1758 11.0253 14.0199L11.0273 14.0209Z" fill="white"/>
<path d="M2.19786 15.7102C2.24657 15.8729 2.29431 16.0356 2.34302 16.1983C2.49597 16.2655 2.64893 16.3279 2.80188 16.3873C2.67913 16.4292 2.5554 16.4691 2.43265 16.5061C2.47844 16.6679 2.5252 16.8286 2.57099 16.9903C2.44629 16.853 2.32158 16.7137 2.19688 16.5714C2.07218 16.6026 1.94748 16.6308 1.82278 16.6562C1.86857 16.5363 1.91533 16.4165 1.96112 16.2967C1.83837 16.1496 1.71464 16.0005 1.59189 15.8485C1.74484 15.9265 1.8978 15.9996 2.05075 16.0697C2.09946 15.9508 2.1472 15.831 2.19591 15.7112L2.19786 15.7102Z" fill="white"/>
<path d="M4.40547 16.4312C4.45418 16.5831 4.50192 16.7361 4.55063 16.8871C4.70358 16.9192 4.85654 16.9475 5.00949 16.9738C4.88674 17.043 4.76301 17.1102 4.64026 17.1755C4.68605 17.3274 4.73281 17.4784 4.7786 17.6304C4.6539 17.5203 4.5292 17.4093 4.40449 17.2953C4.27979 17.3557 4.15509 17.4132 4.03039 17.4687C4.07618 17.3382 4.12294 17.2066 4.16873 17.0751C4.04598 16.9572 3.92225 16.8364 3.7995 16.7137C3.95245 16.7546 4.10541 16.7916 4.25836 16.8257C4.30707 16.6952 4.35481 16.5636 4.40352 16.4321L4.40547 16.4312Z" fill="white"/>
<path d="M6.61207 16.6864C6.66078 16.8306 6.70852 16.9738 6.75723 17.117C6.91019 17.1199 7.06314 17.1209 7.21609 17.118C7.09334 17.2105 6.96961 17.3002 6.84686 17.3888C6.89265 17.532 6.93941 17.6762 6.9852 17.8194C6.8605 17.7327 6.7358 17.6441 6.6111 17.5535C6.4864 17.6382 6.3617 17.7201 6.23699 17.8009C6.28278 17.6606 6.32955 17.5194 6.37534 17.3781C6.25258 17.2836 6.12886 17.1872 6.0061 17.0888C6.15906 17.0985 6.31201 17.1053 6.46496 17.1102C6.51368 16.9689 6.56141 16.8277 6.61012 16.6864H6.61207Z" fill="white"/>
<path d="M8.81968 16.5607C8.8684 16.698 8.91613 16.8344 8.96484 16.9708C9.1178 16.9504 9.27075 16.9289 9.42371 16.9046C9.30095 17.0147 9.17723 17.1238 9.05447 17.2309C9.10026 17.3683 9.14702 17.5057 9.19281 17.643C9.06811 17.5739 8.94341 17.5037 8.81871 17.4316C8.69401 17.5359 8.56931 17.6382 8.44461 17.7385C8.4904 17.5894 8.53716 17.4414 8.58295 17.2913C8.46019 17.2153 8.33647 17.1394 8.21371 17.0604C8.36667 17.0449 8.51962 17.0283 8.67258 17.0078C8.72129 16.8588 8.76902 16.7097 8.81774 16.5597L8.81968 16.5607Z" fill="white"/>
<path d="M11.0273 16.1389C11.076 16.2704 11.1237 16.4029 11.1724 16.5345C11.3254 16.4974 11.4783 16.4585 11.6313 16.4185C11.5085 16.5422 11.3848 16.664 11.2621 16.7858C11.3078 16.9183 11.3546 17.0518 11.4004 17.1843C11.2757 17.1287 11.151 17.0713 11.0263 17.0138C10.9016 17.1326 10.7769 17.2495 10.6522 17.3655C10.698 17.2106 10.7447 17.0557 10.7905 16.9008C10.6678 16.8394 10.544 16.777 10.4213 16.7137C10.5742 16.6796 10.7272 16.6436 10.8802 16.6056C10.9289 16.4507 10.9766 16.2948 11.0253 16.1389H11.0273Z" fill="white"/>
<path d="M1.09407 9.9408C1.14278 10.1093 1.19052 10.2779 1.23923 10.4454C1.39218 10.5302 1.54513 10.6111 1.69809 10.688C1.57534 10.7153 1.45161 10.7406 1.32886 10.763C1.37464 10.9296 1.42141 11.0962 1.4672 11.2618C1.3425 11.1099 1.21779 10.9559 1.09309 10.7991C0.968392 10.8147 0.843691 10.8283 0.71899 10.8381C0.764779 10.7241 0.811542 10.6111 0.85733 10.4961C0.734578 10.3344 0.610851 10.1697 0.488098 10.0031C0.641052 10.0996 0.794006 10.1921 0.946959 10.2808C0.995671 10.1678 1.04341 10.0548 1.09212 9.9408H1.09407Z" fill="white"/>
<path d="M3.30165 10.9043C3.35036 11.0611 3.3981 11.218 3.44681 11.3739C3.59976 11.4206 3.75272 11.4645 3.90567 11.5044C3.78292 11.5619 3.65919 11.6174 3.53644 11.67C3.58223 11.8259 3.62899 11.9818 3.67478 12.1377C3.55008 12.0159 3.42538 11.8922 3.30067 11.7655C3.17597 11.8132 3.05127 11.8581 2.92657 11.9C2.97236 11.7743 3.01912 11.6476 3.06491 11.521C2.94216 11.3904 2.81843 11.257 2.69568 11.1215C2.84863 11.179 3.00159 11.2316 3.15454 11.2813C3.20325 11.1556 3.25099 11.03 3.2997 10.9033L3.30165 10.9043Z" fill="white"/>
<path d="M5.50828 11.3602C5.55699 11.5073 5.60473 11.6544 5.65344 11.8016C5.8064 11.8171 5.95935 11.8288 6.1123 11.8386C5.98955 11.9214 5.86582 12.0022 5.74307 12.0802C5.78886 12.2273 5.83562 12.3744 5.88141 12.5205C5.75671 12.4241 5.63201 12.3257 5.50731 12.2253C5.38261 12.2994 5.25791 12.3715 5.1332 12.4416C5.17899 12.3052 5.22576 12.1679 5.27155 12.0315C5.14879 11.9272 5.02507 11.8201 4.90231 11.7119C5.05527 11.7353 5.20822 11.7548 5.36117 11.7723C5.40989 11.6359 5.45762 11.4986 5.50633 11.3612L5.50828 11.3602Z" fill="white"/>
<path d="M7.71589 11.3934C7.7646 11.5327 7.81234 11.6721 7.86105 11.8114C8.01401 11.8007 8.16696 11.788 8.31991 11.7724C8.19716 11.8757 8.07343 11.977 7.95068 12.0764C7.99647 12.2167 8.04323 12.356 8.08902 12.4953C7.96432 12.4193 7.83962 12.3414 7.71492 12.2624C7.59022 12.3579 7.46552 12.4524 7.34082 12.545C7.3866 12.3998 7.43337 12.2537 7.47916 12.1085C7.3564 12.0257 7.23268 11.94 7.10992 11.8542C7.26288 11.8494 7.41583 11.8416 7.56879 11.8318C7.6175 11.6867 7.66523 11.5405 7.71394 11.3944L7.71589 11.3934Z" fill="white"/>
<path d="M9.92347 11.0875C9.97219 11.221 10.0199 11.3545 10.0686 11.4879C10.2216 11.4568 10.3745 11.4246 10.5275 11.3905C10.4047 11.5094 10.281 11.6263 10.1583 11.7422C10.2041 11.8766 10.2508 12.0111 10.2966 12.1455C10.1719 12.0851 10.0472 12.0228 9.9225 11.9604C9.7978 12.0734 9.6731 12.1855 9.5484 12.2956C9.59419 12.1436 9.64095 11.9906 9.68674 11.8377C9.56398 11.7714 9.44026 11.7032 9.3175 11.6341C9.47046 11.6068 9.62341 11.5785 9.77637 11.5474C9.82508 11.3944 9.87281 11.2415 9.92153 11.0885L9.92347 11.0875Z" fill="white"/>
<path d="M12.1311 10.5293C12.1798 10.6589 12.2275 10.7884 12.2762 10.918C12.4292 10.8732 12.5822 10.8264 12.7351 10.7797C12.6124 10.9092 12.4886 11.0378 12.3659 11.1655C12.4117 11.296 12.4584 11.4266 12.5042 11.5581C12.3795 11.5084 12.2548 11.4577 12.1301 11.4061C12.0054 11.5308 11.8807 11.6555 11.756 11.7792C11.8018 11.6214 11.8486 11.4636 11.8943 11.3058C11.7716 11.2512 11.6479 11.1957 11.5251 11.1392C11.6781 11.0963 11.831 11.0515 11.984 11.0057C12.0327 10.8479 12.0804 10.6891 12.1291 10.5303L12.1311 10.5293Z" fill="white"/>
<path d="M1.09407 12.0364C1.14278 12.2049 1.19052 12.3735 1.23923 12.541C1.39218 12.6268 1.54513 12.7076 1.69809 12.7856C1.57534 12.8128 1.45161 12.8372 1.32886 12.8596C1.37464 13.0262 1.42141 13.1928 1.4672 13.3594C1.3425 13.2074 1.21779 13.0525 1.09309 12.8947C0.968392 12.9103 0.843691 12.9229 0.71899 12.9327C0.764779 12.8197 0.811542 12.7057 0.85733 12.5917C0.734578 12.43 0.610851 12.2643 0.488098 12.0968C0.641052 12.1942 0.794006 12.2877 0.946959 12.3764C0.995671 12.2634 1.04341 12.1504 1.09212 12.0374L1.09407 12.0364Z" fill="white"/>
<path d="M3.30165 13.0087C3.35036 13.1655 3.3981 13.3224 3.44681 13.4792C3.59976 13.527 3.75272 13.5708 3.90567 13.6117C3.78292 13.6692 3.65919 13.7237 3.53644 13.7764C3.58223 13.9322 3.62899 14.0881 3.67478 14.244C3.55008 14.1222 3.42538 13.9975 3.30067 13.8709C3.17597 13.9176 3.05127 13.9624 2.92657 14.0043C2.97236 13.8787 3.01912 13.753 3.06491 13.6263C2.94216 13.4948 2.81843 13.3613 2.69568 13.2259C2.84863 13.2834 3.00159 13.337 3.15454 13.3876C3.20325 13.262 3.25099 13.1363 3.2997 13.0096L3.30165 13.0087Z" fill="white"/>
<path d="M5.50828 13.4734C5.55699 13.6205 5.60473 13.7686 5.65344 13.9157C5.8064 13.9313 5.95935 13.9449 6.1123 13.9547C5.98955 14.0365 5.86582 14.1174 5.74307 14.1953C5.78886 14.3424 5.83562 14.4895 5.88141 14.6366C5.75671 14.5392 5.63201 14.4408 5.50731 14.3395C5.38261 14.4135 5.25791 14.4846 5.1332 14.5538C5.17899 14.4174 5.22576 14.281 5.27155 14.1437C5.14879 14.0384 5.02507 13.9313 4.90231 13.8222C5.05527 13.8455 5.20822 13.866 5.36117 13.8835C5.40989 13.7471 5.45762 13.6108 5.50633 13.4734H5.50828Z" fill="white"/>
<path d="M7.71589 13.5143C7.7646 13.6536 7.81234 13.7939 7.86105 13.9332C8.01401 13.9235 8.16696 13.9108 8.31991 13.8962C8.19716 13.9985 8.07343 14.0998 7.95068 14.1992C7.99647 14.3395 8.04323 14.4788 8.08902 14.6191C7.96432 14.5421 7.83962 14.4642 7.71492 14.3843C7.59022 14.4797 7.46552 14.5733 7.34082 14.6658C7.3866 14.5207 7.43337 14.3755 7.47916 14.2294C7.3564 14.1456 7.23268 14.0608 7.10992 13.9731C7.26288 13.9692 7.41583 13.9624 7.56879 13.9527C7.6175 13.8075 7.66523 13.6614 7.71394 13.5153L7.71589 13.5143Z" fill="white"/>
<path d="M9.92347 13.2172C9.97219 13.3506 10.0199 13.4851 10.0686 13.6185C10.2216 13.5883 10.3745 13.5562 10.5275 13.5231C10.4047 13.641 10.281 13.7579 10.1583 13.8738C10.2041 14.0082 10.2508 14.1427 10.2966 14.2771C10.1719 14.2157 10.0472 14.1534 9.9225 14.0901C9.7978 14.2021 9.6731 14.3141 9.5484 14.4233C9.59419 14.2713 9.64095 14.1183 9.68674 13.9663C9.56398 13.8991 9.44026 13.8309 9.3175 13.7618C9.47046 13.7355 9.62341 13.7072 9.77637 13.677C9.82508 13.524 9.87281 13.3711 9.92153 13.2181L9.92347 13.2172Z" fill="white"/>
<path d="M12.1311 12.6677C12.1798 12.7973 12.2275 12.9269 12.2762 13.0574C12.4292 13.0126 12.5822 12.9678 12.7351 12.921C12.6124 13.0496 12.4886 13.1782 12.3659 13.3049C12.4117 13.4354 12.4584 13.5669 12.5042 13.6975C12.3795 13.6468 12.2548 13.5962 12.1301 13.5436C12.0054 13.6683 11.8807 13.792 11.756 13.9147C11.8018 13.7569 11.8486 13.5991 11.8943 13.4413C11.7716 13.3857 11.6479 13.3302 11.5251 13.2737C11.6781 13.2308 11.831 13.187 11.984 13.1422C12.0327 12.9843 12.0804 12.8265 12.1291 12.6677H12.1311Z" fill="white"/>
<path d="M1.09407 14.132C1.14278 14.3005 1.19052 14.469 1.23923 14.6376C1.39218 14.7233 1.54513 14.8061 1.69809 14.8841C1.57534 14.9113 1.45161 14.9347 1.32886 14.9562C1.37464 15.1237 1.42141 15.2903 1.4672 15.4569C1.3425 15.304 1.21779 15.1491 1.09309 14.9912C0.968392 15.0058 0.843691 15.0185 0.71899 15.0273C0.764779 14.9143 0.811542 14.8003 0.85733 14.6863C0.734578 14.5236 0.610851 14.358 0.488098 14.1904C0.641052 14.2888 0.794006 14.3823 0.946959 14.471C0.995671 14.359 1.04341 14.2459 1.09212 14.132H1.09407Z" fill="white"/>
<path d="M3.30165 15.113C3.35036 15.2709 3.3981 15.4277 3.44681 15.5846C3.59976 15.6333 3.75272 15.6781 3.90567 15.719C3.78292 15.7755 3.65919 15.8301 3.53644 15.8817C3.58223 16.0386 3.62899 16.1944 3.67478 16.3503C3.55008 16.2276 3.42538 16.1029 3.30067 15.9752C3.17597 16.022 3.05127 16.0658 2.92657 16.1067C2.97236 15.9811 3.01912 15.8554 3.06491 15.7287C2.94216 15.5972 2.81843 15.4628 2.69568 15.3264C2.84863 15.3848 3.00159 15.4394 3.15454 15.4901C3.20325 15.3644 3.25099 15.2387 3.2997 15.113H3.30165Z" fill="white"/>
<path d="M5.50828 15.5856C5.55699 15.7337 5.60473 15.8808 5.65344 16.0279C5.8064 16.0444 5.95935 16.0581 6.1123 16.0688C5.98955 16.1506 5.86582 16.2305 5.74307 16.3075C5.78886 16.4546 5.83562 16.6017 5.88141 16.7488C5.75671 16.6514 5.63201 16.552 5.50731 16.4507C5.38261 16.5238 5.25791 16.5949 5.1332 16.664C5.17899 16.5276 5.22576 16.3913 5.27155 16.2549C5.14879 16.1496 5.02507 16.0415 4.90231 15.9324C5.05527 15.9568 5.20822 15.9782 5.36117 15.9957C5.40989 15.8593 5.45762 15.7229 5.50633 15.5856H5.50828Z" fill="white"/>
<path d="M7.71589 15.6362C7.7646 15.7765 7.81234 15.9158 7.86105 16.0551C8.01401 16.0454 8.16696 16.0337 8.31991 16.0201C8.19716 16.1224 8.07343 16.2227 7.95068 16.3211C7.99647 16.4614 8.04323 16.6017 8.08902 16.741C7.96432 16.664 7.83962 16.5851 7.71492 16.5052C7.59022 16.5997 7.46552 16.6933 7.34082 16.7848C7.3866 16.6397 7.43337 16.4945 7.47916 16.3494C7.3564 16.2656 7.23268 16.1798 7.10992 16.0922C7.26288 16.0883 7.41583 16.0824 7.56879 16.0737C7.6175 15.9285 7.66523 15.7824 7.71394 15.6372L7.71589 15.6362Z" fill="white"/>
<path d="M9.92347 15.3478C9.97219 15.4822 10.0199 15.6157 10.0686 15.7492C10.2216 15.7199 10.3745 15.6878 10.5275 15.6547C10.4047 15.7725 10.281 15.8885 10.1583 16.0034C10.2041 16.1379 10.2508 16.2733 10.2966 16.4077C10.1719 16.3464 10.0472 16.283 9.9225 16.2197C9.7978 16.3317 9.6731 16.4428 9.5484 16.5519C9.59419 16.3999 9.64095 16.248 9.68674 16.095C9.56398 16.0278 9.44026 15.9586 9.3175 15.8885C9.47046 15.8631 9.62341 15.8349 9.77637 15.8057C9.82508 15.6537 9.87281 15.5007 9.92153 15.3478H9.92347Z" fill="white"/>
<path d="M12.1311 14.8062C12.1798 14.9357 12.2275 15.0663 12.2762 15.1958C12.4292 15.152 12.5822 15.1072 12.7351 15.0614C12.6124 15.19 12.4886 15.3176 12.3659 15.4443C12.4117 15.5758 12.4584 15.7063 12.5042 15.8379C12.3795 15.7872 12.2548 15.7356 12.1301 15.683C12.0054 15.8067 11.8807 15.9304 11.756 16.0532C11.8018 15.8953 11.8486 15.7385 11.8943 15.5807C11.7716 15.5251 11.6479 15.4686 11.5251 15.4111C11.6781 15.3693 11.831 15.3254 11.984 15.2816C12.0327 15.1238 12.0804 14.9659 12.1291 14.8081L12.1311 14.8062Z" fill="white"/>
<path d="M1.09407 16.2275C1.14278 16.3971 1.19052 16.5656 1.23923 16.7332C1.39218 16.8199 1.54513 16.9027 1.69809 16.9806C1.57534 17.0069 1.45161 17.0303 1.32886 17.0517C1.37464 17.2193 1.42141 17.3859 1.4672 17.5525C1.3425 17.3995 1.21779 17.2437 1.09309 17.0849C0.968392 17.0995 0.843691 17.1112 0.71899 17.1199C0.764779 17.0069 0.811542 16.8939 0.85733 16.7799C0.734578 16.6172 0.610851 16.4506 0.488098 16.2821C0.641052 16.3805 0.794006 16.475 0.946959 16.5646C0.995671 16.4526 1.04341 16.3396 1.09212 16.2266L1.09407 16.2275Z" fill="white"/>
<path d="M3.30165 17.2173C3.35036 17.3751 3.3981 17.532 3.44681 17.6888C3.59976 17.7375 3.75272 17.7833 3.90567 17.8252C3.78292 17.8817 3.65919 17.9353 3.53644 17.9869C3.58223 18.1438 3.62899 18.2997 3.67478 18.4555C3.55008 18.3328 3.42538 18.2071 3.30067 18.0795C3.17597 18.1253 3.05127 18.1691 2.92657 18.21C2.97236 18.0843 3.01912 17.9587 3.06491 17.833C2.94216 17.7005 2.81843 17.5661 2.69568 17.4297C2.84863 17.4881 3.00159 17.5437 3.15454 17.5953C3.20325 17.4706 3.25099 17.3449 3.2997 17.2192L3.30165 17.2173Z" fill="white"/>
<path d="M5.50828 17.6986C5.55699 17.8467 5.60473 17.9938 5.65344 18.1419C5.8064 18.1594 5.95935 18.1731 6.1123 18.1847C5.98955 18.2656 5.86582 18.3455 5.74307 18.4225C5.78886 18.5705 5.83562 18.7177 5.88141 18.8648C5.75671 18.7664 5.63201 18.667 5.50731 18.5647C5.38261 18.6378 5.25791 18.7079 5.1332 18.7761C5.17899 18.6397 5.22576 18.5043 5.27155 18.3669C5.14879 18.2607 5.02507 18.1526 4.90231 18.0425C5.05527 18.0678 5.20822 18.0893 5.36117 18.1078C5.40989 17.9714 5.45762 17.835 5.50633 17.6986H5.50828Z" fill="white"/>
<path d="M7.71589 17.7571C7.7646 17.8974 7.81234 18.0377 7.86105 18.177C8.01401 18.1682 8.16696 18.1565 8.31991 18.1429C8.19716 18.2442 8.07343 18.3445 7.95068 18.4429C7.99647 18.5832 8.04323 18.7235 8.08902 18.8638C7.96432 18.7859 7.83962 18.707 7.71492 18.6261C7.59022 18.7206 7.46552 18.8131 7.34082 18.9047C7.3866 18.7596 7.43337 18.6144 7.47916 18.4692C7.3564 18.3845 7.23268 18.2988 7.10992 18.2101C7.26288 18.2072 7.41583 18.2013 7.56879 18.1935C7.6175 18.0484 7.66523 17.9032 7.71394 17.7571H7.71589Z" fill="white"/>
<path d="M9.92347 17.4774C9.97219 17.6119 10.0199 17.7463 10.0686 17.8798C10.2216 17.8505 10.3745 17.8203 10.5275 17.7872C10.4047 17.9041 10.281 18.0201 10.1583 18.135C10.2041 18.2704 10.2508 18.4049 10.2966 18.5393C10.1719 18.477 10.0472 18.4136 9.9225 18.3493C9.7978 18.4604 9.6731 18.5715 9.5484 18.6796C9.59419 18.5276 9.64095 18.3757 9.68674 18.2237C9.56398 18.1555 9.44026 18.0863 9.3175 18.0162C9.47046 17.9908 9.62341 17.9636 9.77637 17.9343C9.82508 17.7823 9.87281 17.6294 9.92153 17.4764L9.92347 17.4774Z" fill="white"/>
<path d="M12.1311 16.9446C12.1798 17.0751 12.2275 17.2047 12.2762 17.3352C12.4292 17.2924 12.5822 17.2476 12.7351 17.2018C12.6124 17.3294 12.4886 17.457 12.3659 17.5827C12.4117 17.7142 12.4584 17.8457 12.5042 17.9763C12.3795 17.9246 12.2548 17.873 12.1301 17.8194C12.0054 17.9432 11.8807 18.0659 11.756 18.1877C11.8018 18.0308 11.8486 17.873 11.8943 17.7152C11.7716 17.6587 11.6479 17.6022 11.5251 17.5447C11.6781 17.5028 11.831 17.4609 11.984 17.4161C12.0327 17.2583 12.0804 17.1005 12.1291 16.9426L12.1311 16.9446Z" fill="white"/>
</svg>
