<svg width="20" height="20" viewBox="0 0 20 20" fill="none" xmlns="http://www.w3.org/2000/svg">
<g clip-path="url(#clip0_867_24773)">
<path fill-rule="evenodd" clip-rule="evenodd" d="M8.125 8.125H2.5V11.875H8.125V17.5H11.875V11.875H17.5V8.125H11.875V2.5H8.125V8.125ZM5.625 2.5C5.625 1.11929 6.74429 0 8.125 0H11.875C13.2557 0 14.375 1.11929 14.375 2.5V5.625H17.5C18.8807 5.625 20 6.74429 20 8.125V11.875C20 13.2557 18.8807 14.375 17.5 14.375H14.375V17.5C14.375 18.8807 13.2557 20 11.875 20H8.125C6.74429 20 5.625 18.8807 5.625 17.5V14.375H2.5C1.11929 14.375 0 13.2557 0 11.875V8.125C0 6.74429 1.11929 5.625 2.5 5.625H5.625V2.5Z" fill="#D92D20"/>
</g>
<defs>
<clipPath id="clip0_867_24773">
<rect width="20" height="20" fill="white"/>
</clipPath>
</defs>
</svg>
