<svg width="40" height="40" viewBox="0 0 40 40" fill="none" xmlns="http://www.w3.org/2000/svg">
<path fill-rule="evenodd" clip-rule="evenodd" d="M16.25 16.25H5V23.75H16.25V35H23.75V23.75H35V16.25H23.75V5H16.25V16.25ZM11.25 5C11.25 2.23858 13.4886 0 16.25 0H23.75C26.5115 0 28.75 2.23858 28.75 5V11.25H35C37.7615 11.25 40 13.4886 40 16.25V23.75C40 26.5115 37.7615 28.75 35 28.75H28.75V35C28.75 37.7615 26.5115 40 23.75 40H16.25C13.4886 40 11.25 37.7615 11.25 35V28.75H5C2.23858 28.75 0 26.5115 0 23.75V16.25C0 13.4886 2.23857 11.25 5 11.25H11.25V5Z" fill="black"/>
</svg>
