<svg width="15" height="14" viewBox="0 0 15 14" fill="none" xmlns="http://www.w3.org/2000/svg">
<path d="M8.04375 9.04683L6.45625 7.3735L6.475 7.3535C7.5625 6.06016 8.3375 4.5735 8.79375 3.00016H10.625V1.66683H6.25V0.333496H5V1.66683H0.625V2.9935H7.60625C7.1875 4.28016 6.525 5.50016 5.625 6.56683C5.04375 5.88016 4.5625 5.12683 4.18125 4.3335H2.93125C3.3875 5.42016 4.0125 6.44683 4.79375 7.3735L1.6125 10.7202L2.5 11.6668L5.625 8.3335L7.56875 10.4068L8.04375 9.04683ZM11.5625 5.66683H10.3125L7.5 13.6668H8.75L9.45 11.6668H12.4188L13.125 13.6668H14.375L11.5625 5.66683ZM9.925 10.3335L10.9375 7.44683L11.95 10.3335H9.925V10.3335Z" fill="#66C7C3"/>
</svg>
