<svg width="40" height="31" viewBox="0 0 40 31" fill="none" xmlns="http://www.w3.org/2000/svg">
<path d="M9.62238 16.5224C12.1958 16.5224 14.1352 17.1325 15.4406 18.3528C16.7832 19.573 17.4545 21.1342 17.4545 23.0363C17.4545 25.1538 16.6527 26.8944 15.049 28.2582C13.4452 29.5861 11.5058 30.25 9.23077 30.25C6.54545 30.25 4.32634 29.3348 2.57343 27.5045C0.857809 25.6741 0 22.821 0 18.9449C0 15.2843 0.727273 12.144 2.18182 9.52406C3.67366 6.90416 5.50117 4.84054 7.66434 3.33319C9.8648 1.78997 12.028 0.803017 14.1538 0.37235C15.0117 0.192905 15.683 0.210848 16.1678 0.426179C16.69 0.641515 16.9883 1.00041 17.0629 1.50286C17.1748 1.96942 17.0443 2.41803 16.6713 2.8487C16.3357 3.27936 15.627 3.69209 14.5455 4.08687C12.6807 4.80465 11.0769 5.73776 9.73427 6.88621C8.4289 7.99877 7.42191 9.20106 6.71329 10.4931C6.04196 11.7492 5.70629 12.9694 5.70629 14.1538C5.70629 14.9074 5.91142 15.4996 6.32168 15.9303C6.73193 16.325 7.45921 16.5224 8.5035 16.5224H9.62238ZM32.2238 16.5224C34.7599 16.5224 36.6807 17.1325 37.986 18.3528C39.3287 19.573 40 21.1342 40 23.0363C40 25.1538 39.1981 26.8944 37.5944 28.2582C35.9907 29.5861 34.0513 30.25 31.7762 30.25C29.0909 30.25 26.8718 29.3348 25.1189 27.5045C23.4033 25.6741 22.5455 22.821 22.5455 18.9449C22.5455 15.2843 23.2727 12.144 24.7273 9.52406C26.2191 6.90416 28.0466 4.84054 30.2098 3.33319C32.4103 1.78997 34.5734 0.803017 36.6993 0.37235C37.5944 0.192905 38.2844 0.210848 38.7692 0.426179C39.2541 0.641515 39.5524 1.00041 39.6643 1.50286C39.7389 1.96942 39.5897 2.41803 39.2168 2.8487C38.8811 3.27936 38.1725 3.69209 37.0909 4.08687C35.2261 4.80465 33.6224 5.71982 32.2797 6.83238C30.9744 7.94494 29.9674 9.14723 29.2587 10.4392C28.5874 11.7312 28.2517 12.9694 28.2517 14.1538C28.2517 14.9074 28.4569 15.4996 28.8671 15.9303C29.2774 16.325 30.0047 16.5224 31.049 16.5224H32.2238Z" fill="#3DB1AD"/>
</svg>
