<svg width="229" height="18" viewBox="0 0 229 18" fill="none" xmlns="http://www.w3.org/2000/svg">
<path d="M18.2173 17.7061C20.2936 17.7061 22.2656 15.7028 22.2656 13.6839C22.2656 13.0683 22.2656 0 22.2656 0H16.0993V10.9867C16.0993 11.425 15.6141 12.317 14.7638 12.317H7.50187C6.65152 12.317 6.16635 11.425 6.16635 10.9867V0H0C0 0 0 13.2352 0 13.6839C0 15.7028 1.97198 17.7061 4.0483 17.7061H18.2173Z" fill="#1A5632"/>
<path d="M37.8332 0H30.7487L21.0088 17.7061H28.2342L29.5749 14.9464H39.0018L40.3425 17.7061H47.5679L37.8332 0ZM31.9538 10.0738L34.2962 5.26383L36.6386 10.0738H31.959H31.9538Z" fill="#1A5632"/>
<path d="M47.9434 0.0258789H63.8444C67.4597 0.0258789 69.0717 1.61181 69.0717 4.43414C69.0717 5.99399 68.3048 7.35559 66.9641 7.87728V7.92423C69.2439 8.51895 69.9847 10.6474 69.9847 11.9621C69.9847 15.4313 68.2527 17.7059 63.0775 17.7059H47.9434V0.0258789ZM54.7775 6.60958H60.0517C61.4655 6.60958 61.7837 6.14006 61.7837 5.44621C61.7837 4.80454 61.4603 4.3298 60.0517 4.3298H54.7775V6.60958ZM54.7775 13.3967H60.7456C62.1333 13.3967 62.5558 12.802 62.5558 12.009C62.5558 11.2161 62.1333 10.6214 60.7456 10.6214H54.7775V13.3967Z" fill="#1A5632"/>
<path d="M227.9 15.4473C228.505 15.4473 229 15.9429 229 16.548C229 17.1532 228.505 17.6488 227.9 17.6488C227.294 17.6488 226.799 17.1532 226.799 16.548C226.799 15.9429 227.294 15.4473 227.9 15.4473ZM227.9 17.4871C228.421 17.4871 228.839 17.0697 228.839 16.548C228.839 16.0263 228.421 15.609 227.9 15.609C227.378 15.609 226.961 16.0263 226.961 16.548C226.961 17.0697 227.378 17.4871 227.9 17.4871ZM227.66 17.1741H227.498V15.9064H227.983C228.27 15.9064 228.38 16.0316 228.38 16.2559C228.38 16.4802 228.233 16.5845 228.061 16.6158L228.437 17.1688H228.254L227.879 16.6158H227.649V17.1688L227.66 17.1741ZM227.66 16.475H227.863C228.035 16.475 228.228 16.4646 228.228 16.2559C228.228 16.0942 228.082 16.0472 227.947 16.0472H227.665V16.475H227.66Z" fill="black"/>
<path d="M84.9152 12.7603C84.9152 12.3377 84.8422 11.9465 84.6909 11.5917C84.5396 11.237 84.2631 10.9292 83.851 10.6683C83.4441 10.4075 82.8441 10.2092 82.0564 10.0684L79.907 9.69278C78.775 9.48932 77.8151 9.20239 77.0377 8.83199C76.2604 8.46159 75.6657 7.95034 75.2536 7.29823C74.8467 6.64612 74.638 5.8062 74.638 4.7837C74.638 3.76119 74.9145 2.84823 75.4622 2.13874C76.0152 1.42924 76.7665 0.897123 77.7316 0.542375C78.6915 0.187628 79.7766 0.0102539 80.9921 0.0102539C82.4737 0.0102539 83.6475 0.218929 84.524 0.636279C85.4004 1.05363 86.0525 1.6014 86.4959 2.2796C86.9342 2.95779 87.2263 3.69859 87.3672 4.50198L84.8891 4.90368C84.6544 4.00638 84.2631 3.32297 83.7206 2.85867C83.178 2.39437 82.2755 2.15961 81.0182 2.15961C79.6149 2.15961 78.6393 2.39958 78.0915 2.87954C77.5386 3.35949 77.2673 3.95421 77.2673 4.66371C77.2673 5.42015 77.476 5.98879 77.8933 6.37484C78.3107 6.76089 79.0619 7.05825 80.147 7.26171L82.4842 7.71036C84.2631 8.03903 85.5673 8.59202 86.3916 9.36411C87.2159 10.1362 87.6332 11.2631 87.6332 12.7394C87.6332 13.6837 87.3984 14.5288 86.9237 15.2801C86.449 16.0261 85.7447 16.6208 84.8109 17.0642C83.8718 17.5024 82.698 17.7268 81.2791 17.7268C79.2497 17.7268 77.6168 17.3042 76.3804 16.4539C75.144 15.6035 74.4397 14.2523 74.2676 12.3899H76.8656C77.0377 13.4907 77.4812 14.2941 78.1907 14.8001C78.9002 15.3061 79.9435 15.5565 81.3312 15.5565C82.2442 15.5565 82.9589 15.4313 83.4806 15.1809C84.0023 14.9305 84.3674 14.5914 84.5918 14.1636C84.8109 13.7411 84.9204 13.2768 84.9204 12.7707L84.9152 12.7603Z" fill="#231F20"/>
<path d="M93.8465 2.74418H88.3896V0.433105H101.922V2.7494H96.4654V17.2993H93.8413V2.74418H93.8465Z" fill="#231F20"/>
<path d="M101.093 14.2002H103.764V17.2938H101.093V14.2002Z" fill="#231F20"/>
<path d="M117.437 14.1744L122.326 0.433105H125.138L118.856 17.294H116.024L109.737 0.433105H112.643L117.437 14.1796V14.1744Z" fill="#231F20"/>
<path d="M126.744 0.433105H129.368V17.294H126.744V0.433105Z" fill="#231F20"/>
<path d="M132.456 0.433105H134.96L143.083 13.1414V0.433105H145.587V17.294H143.177L134.96 4.61182V17.294H132.456V0.433105Z" fill="#231F20"/>
<path d="M148.112 8.91024C148.112 7.00608 148.441 5.39407 149.104 4.06898C149.766 2.74911 150.669 1.73704 151.821 1.04841C152.969 0.354568 154.284 0.0102539 155.765 0.0102539C157.169 0.0102539 158.322 0.245013 159.224 0.709315C160.127 1.17362 160.847 1.82573 161.374 2.65521C161.901 3.48991 162.276 4.4759 162.495 5.60796L159.923 6.00966C159.657 4.8463 159.219 3.93334 158.614 3.2708C158.009 2.60826 157.049 2.2796 155.745 2.2796C154.706 2.2796 153.82 2.55087 153.089 3.09343C152.359 3.63598 151.801 4.39765 151.425 5.38364C151.049 6.36963 150.856 7.52777 150.856 8.86851C150.856 10.8666 151.284 12.4682 152.145 13.6628C153.001 14.8575 154.221 15.4574 155.792 15.4574C156.751 15.4574 157.524 15.2957 158.108 14.9723C158.692 14.6488 159.136 14.2002 159.443 13.6263C159.751 13.0524 159.96 12.3847 160.069 11.6282H162.735C162.626 12.8073 162.292 13.8558 161.744 14.7688C161.191 15.6817 160.419 16.4017 159.428 16.9286C158.437 17.4555 157.205 17.7215 155.745 17.7215C154.169 17.7215 152.813 17.3772 151.67 16.6834C150.528 15.9895 149.651 14.9879 149.036 13.6733C148.42 12.3586 148.112 10.7727 148.112 8.91546V8.91024Z" fill="#231F20"/>
<path d="M165.046 0.433105H176.194V2.65549H167.67V7.52284H175.725V9.74523H167.67V15.0821H176.643L176.288 17.3045H165.046V0.433105Z" fill="#231F20"/>
<path d="M178.72 0.433105H181.224L189.347 13.1414V0.433105H191.851V17.294H189.44L181.224 4.61182V17.294H178.72V0.433105Z" fill="#231F20"/>
<path d="M199.055 2.74418H193.599V0.433105H207.131V2.7494H201.674V17.2993H199.05V2.74418H199.055Z" fill="#231F20"/>
<path d="M209.16 0.433105H211.685L210.386 5.81692H208.425L209.155 0.433105H209.16Z" fill="#231F20"/>
<path d="M223.757 12.7603C223.757 12.3377 223.684 11.9465 223.533 11.5917C223.381 11.237 223.105 10.9292 222.693 10.6683C222.281 10.4075 221.686 10.2092 220.898 10.0684L218.749 9.69278C217.617 9.48932 216.657 9.20239 215.88 8.83199C215.102 8.46159 214.508 7.95034 214.095 7.29823C213.683 6.64612 213.48 5.8062 213.48 4.7837C213.48 3.76119 213.756 2.84823 214.304 2.13874C214.857 1.42924 215.608 0.897123 216.573 0.542375C217.533 0.187628 218.618 0.0102539 219.834 0.0102539C221.316 0.0102539 222.489 0.218929 223.366 0.636279C224.237 1.05363 224.9 1.6014 225.338 2.2796C225.776 2.95779 226.068 3.69859 226.209 4.50198L223.731 4.90368C223.496 4.00638 223.105 3.32297 222.562 2.85867C222.02 2.39437 221.117 2.15961 219.86 2.15961C218.457 2.15961 217.481 2.39958 216.933 2.87954C216.38 3.35949 216.109 3.95421 216.109 4.66371C216.109 5.42015 216.318 5.98879 216.735 6.37484C217.152 6.76089 217.904 7.05825 218.989 7.26171L221.326 7.71036C223.105 8.03903 224.409 8.59202 225.233 9.36411C226.058 10.1362 226.475 11.2631 226.475 12.7394C226.475 13.6837 226.24 14.5288 225.766 15.2801C225.296 16.0261 224.587 16.6208 223.653 17.0642C222.714 17.5024 221.54 17.7268 220.121 17.7268C218.091 17.7268 216.453 17.3042 215.222 16.4539C213.986 15.6035 213.282 14.2523 213.109 12.3899H215.707C215.88 13.4907 216.323 14.2941 217.027 14.8001C217.737 15.3061 218.78 15.5565 220.168 15.5565C221.081 15.5565 221.795 15.4313 222.317 15.1809C222.839 14.9305 223.204 14.5914 223.428 14.1636C223.647 13.7411 223.757 13.2768 223.757 12.7707V12.7603Z" fill="#231F20"/>
</svg>
