<svg width="229" height="35" viewBox="0 0 229 35" fill="none" xmlns="http://www.w3.org/2000/svg">
<path d="M9.98242 0.561157H14.2393V4.83401H9.98242V0.561157Z" fill="#006241"/>
<path d="M9.99524 22.6711H14.2521V26.944H9.99524V22.6711Z" fill="#006241"/>
<path d="M20.4175 11.0697H25.5795L25.5838 16.2554H20.4175V11.0697Z" fill="#006241"/>
<path d="M14.884 5.84546H19.8027L19.807 10.7869L14.884 10.7826V5.84546Z" fill="#006241"/>
<path d="M15.0505 16.7911H19.9692V21.7283H15.0505V16.7911Z" fill="#006241"/>
<path d="M0 11.5969H3.38584L3.39011 14.9997H0V11.5969Z" fill="#006241"/>
<path d="M5.07239 6.56543H8.6589V10.1654H5.07239V6.56543Z" fill="#006241"/>
<path d="M5.27307 16.4783H8.85959V20.0783H5.27307V16.4783Z" fill="#006241"/>
<path d="M89.1463 12.7197H98.5994V6.83115C98.5994 5.7983 98.531 5.11687 98.403 4.79115C98.3005 4.54258 98.087 4.3283 97.7668 4.15258C97.3313 3.91258 96.8701 3.79258 96.3877 3.79258H95.6618V3.23115H104.419V3.79258H103.693C103.211 3.79258 102.749 3.9083 102.314 4.13544C101.994 4.29401 101.772 4.53401 101.656 4.85544C101.541 5.17687 101.481 5.83687 101.481 6.82687V20.104C101.481 21.1326 101.55 21.814 101.678 22.1397C101.78 22.3926 101.985 22.6026 102.301 22.7826C102.745 23.0226 103.211 23.1426 103.693 23.1426H104.419V23.704H95.6618V23.1426H96.3877C97.2245 23.1426 97.8394 22.8983 98.2194 22.4097C98.4713 22.0883 98.5994 21.3212 98.5994 20.104V13.8383H89.1463V20.104C89.1463 21.1326 89.2104 21.814 89.3385 22.1397C89.4367 22.3926 89.6501 22.6026 89.9746 22.7826C90.4059 23.0226 90.8585 23.1426 91.3409 23.1426H92.0796V23.704H83.3225V23.1426H84.0484C84.898 23.1426 85.5086 22.8983 85.8928 22.4097C86.1362 22.0883 86.2558 21.3212 86.2558 20.104V6.82687C86.2558 5.79401 86.1875 5.11258 86.0594 4.78687C85.9569 4.5383 85.7477 4.32401 85.436 4.1483C84.9919 3.9083 84.5266 3.7883 84.0441 3.7883H83.3182V3.22687H92.0753V3.7883H91.3367C90.8542 3.7883 90.4016 3.90401 89.9704 4.13115C89.6544 4.28972 89.4409 4.52972 89.3214 4.85115C89.2018 5.17258 89.1421 5.83258 89.1421 6.82258V12.7112L89.1463 12.7197Z" fill="#006241"/>
<path d="M109.555 9.62117V15.4883H112.749C113.603 15.4883 114.171 15.3597 114.457 15.1069C114.841 14.7726 115.055 14.1812 115.093 13.3412H115.503V18.5226H115.093C114.991 17.7983 114.888 17.3355 114.786 17.1297C114.649 16.8726 114.436 16.6712 114.137 16.5255C113.838 16.3797 113.372 16.3069 112.749 16.3069H109.555V21.1926C109.555 21.8483 109.585 22.2469 109.645 22.3883C109.705 22.5297 109.807 22.6412 109.948 22.7269C110.093 22.8126 110.371 22.8555 110.781 22.8555H113.296C114.137 22.8555 114.743 22.7955 115.123 22.6797C115.507 22.564 115.87 22.3326 116.22 21.9897C116.673 21.5397 117.138 20.8583 117.612 19.954H118.086L116.801 23.704H105.311V23.2926H105.841C106.191 23.2926 106.528 23.2069 106.844 23.0397C107.083 22.924 107.237 22.7483 107.322 22.5126C107.408 22.2769 107.45 21.8012 107.45 21.0769V11.3912C107.45 10.4355 107.356 9.84402 107.169 9.62117C106.9 9.32545 106.46 9.17545 105.845 9.17545H105.316V8.76831H116.763L116.933 12.0426H116.459C116.306 11.2669 116.139 10.7355 115.951 10.4483C115.772 10.1612 115.494 9.93831 115.132 9.78831C114.841 9.68117 114.333 9.62545 113.603 9.62545H109.56L109.555 9.62117Z" fill="#006241"/>
<path d="M128.88 18.724H123.09L122.078 21.0597C121.831 21.6383 121.707 22.0711 121.707 22.3583C121.707 22.5854 121.814 22.7826 122.031 22.9583C122.245 23.1297 122.71 23.2411 123.427 23.2926V23.704H118.752V23.2926C119.376 23.1811 119.777 23.0397 119.956 22.8597C120.332 22.504 120.742 21.7883 121.199 20.704L126.527 8.42114H126.95L132.031 20.8497C132.449 21.8483 132.825 22.4954 133.167 22.7911C133.504 23.0869 133.982 23.254 134.588 23.2926V23.704H128.683V23.2926C129.277 23.2626 129.678 23.164 129.887 22.9969C130.097 22.8297 130.195 22.624 130.195 22.384C130.195 22.0626 130.05 21.5569 129.759 20.8669L128.884 18.724H128.88ZM128.534 17.8711L126.07 11.8411L123.462 17.8711H128.53H128.534Z" fill="#006241"/>
<path d="M147.636 19.5769L148.008 19.654L146.748 23.704H135.233V23.2926H135.792C136.42 23.2926 136.873 23.0912 137.142 22.684C137.295 22.4526 137.372 21.9169 137.372 21.0769V11.3912C137.372 10.4655 137.27 9.88688 137.065 9.65545C136.779 9.33831 136.352 9.17545 135.792 9.17545H135.233V8.76831H141.928V9.17545C141.151 9.16688 140.609 9.23974 140.297 9.39403C139.981 9.54831 139.772 9.73688 139.656 9.9726C139.541 10.204 139.481 10.7569 139.481 11.6355V21.0426C139.481 21.6512 139.541 22.0712 139.656 22.2983C139.746 22.4526 139.883 22.5683 140.062 22.6412C140.246 22.714 140.813 22.7526 141.77 22.7526H142.854C143.99 22.7526 144.789 22.6669 145.245 22.4997C145.702 22.3326 146.125 22.0326 146.505 21.604C146.885 21.1755 147.265 20.5026 147.641 19.5812L147.636 19.5769Z" fill="#006241"/>
<path d="M159.425 8.76832L159.596 12.2526H159.177C159.096 11.6355 158.985 11.194 158.844 10.9326C158.618 10.5083 158.319 10.1955 157.939 9.98975C157.563 9.78832 157.068 9.68547 156.453 9.68547H154.361V21.1112C154.361 22.0283 154.464 22.6026 154.664 22.8298C154.946 23.1383 155.386 23.2926 155.975 23.2926H156.5V23.704H150.113V23.2926H150.651C151.287 23.2926 151.744 23.0998 152.009 22.7183C152.175 22.4826 152.256 21.9469 152.256 21.1112V9.68547H150.471C149.78 9.68547 149.289 9.7369 148.998 9.83975C148.614 9.9769 148.294 10.2469 148.021 10.6412C147.752 11.0355 147.594 11.5712 147.542 12.2483H147.128L147.299 8.76404H159.429L159.425 8.76832Z" fill="#006241"/>
<path d="M164.779 15.6897H171.675V11.3912C171.675 10.6369 171.628 10.1397 171.534 9.90402C171.457 9.72402 171.303 9.56545 171.068 9.43688C170.752 9.26117 170.419 9.17545 170.065 9.17545H169.531V8.76831H175.919V9.17545H175.389C175.035 9.17545 174.706 9.26117 174.386 9.42831C174.151 9.54403 173.989 9.71974 173.903 9.95545C173.818 10.1912 173.775 10.6712 173.775 11.3955V21.0812C173.775 21.8312 173.822 22.3283 173.92 22.564C173.993 22.7483 174.147 22.9026 174.373 23.0355C174.697 23.2112 175.035 23.2969 175.389 23.2969H175.919V23.7083H169.531V23.2969H170.065C170.675 23.2969 171.12 23.1212 171.397 22.7612C171.581 22.5297 171.675 21.9683 171.675 21.0812V16.5126H164.779V21.0812C164.779 21.8312 164.826 22.3283 164.924 22.564C164.997 22.7483 165.151 22.9026 165.381 23.0355C165.697 23.2112 166.03 23.2969 166.384 23.2969H166.918V23.7083H160.531V23.2969H161.064C161.679 23.2969 162.128 23.1212 162.409 22.7612C162.584 22.5297 162.674 21.9683 162.674 21.0812V11.3955C162.674 10.6412 162.627 10.144 162.533 9.90831C162.461 9.72831 162.311 9.56974 162.081 9.44117C161.756 9.26545 161.419 9.17974 161.069 9.17974H160.535V8.7726H166.922V9.17974H166.389C166.034 9.17974 165.701 9.26545 165.385 9.4326C165.163 9.54831 165.001 9.72403 164.916 9.95974C164.83 10.1955 164.783 10.6755 164.783 11.3997V15.6983L164.779 15.6897Z" fill="#006241"/>
<path d="M33.6748 3.56972V4.13114C32.9191 4.13972 32.4024 4.18686 32.1292 4.27686C31.651 4.43543 31.4076 4.75686 31.4076 5.23686C31.4076 5.48543 31.4887 5.82829 31.6595 6.274C31.8388 6.71543 32.1591 7.46114 32.633 8.50257L37.3467 19.0454L41.6334 7.62829C41.8213 7.12686 41.9622 6.70257 42.0604 6.35972C42.1586 6.01257 42.2056 5.734 42.2056 5.51543C42.2056 4.93686 41.9579 4.53829 41.4541 4.33257C41.1638 4.21686 40.6728 4.144 39.9939 4.12686V3.56543H46.1678V4.084C45.5316 4.174 45.0577 4.34543 44.7546 4.60257C44.2892 4.98829 43.8366 5.75972 43.384 6.92543L36.7105 23.9611H36.2537L28.8159 7.31114C28.1883 5.90114 27.6802 5.02257 27.2959 4.67543C26.9245 4.33257 26.3737 4.13543 25.6478 4.084V3.56543H33.6748" fill="#006241"/>
<path d="M43.0938 23.1983C44.0117 23.1297 44.6095 22.9926 44.8827 22.7868C45.156 22.5726 45.2926 22.024 45.2926 21.1454V11.044C45.2926 10.2083 45.156 9.67256 44.8827 9.43684C44.6138 9.19256 44.0117 9.04684 43.0938 9.00398V8.58398H49.7886V9.00398C48.8663 9.04684 48.2729 9.19256 47.9996 9.43684C47.7263 9.67256 47.5897 10.2083 47.5897 11.044V21.1454C47.5897 22.0283 47.7263 22.5726 47.9996 22.7868C48.2729 22.9926 48.8706 23.1297 49.7886 23.1983V23.6054H43.0938V23.1983Z" fill="#006241"/>
<path d="M55.7447 8.57544V8.99544C55.1768 9.00401 54.7883 9.0383 54.5834 9.10687C54.2204 9.22687 54.0411 9.46687 54.0411 9.83115C54.0411 10.0154 54.1052 10.2726 54.229 10.6069C54.3613 10.9369 54.6047 11.4983 54.9591 12.2826L58.4944 20.1897L61.7094 11.6269C61.8503 11.2497 61.9571 10.9326 62.0297 10.6754C62.1022 10.4183 62.1407 10.204 62.1407 10.0412C62.1407 9.60401 61.9528 9.3083 61.5771 9.15401C61.355 9.06401 60.9879 9.01687 60.4798 8.99973V8.57972H65.1081V8.96973C64.6299 9.03401 64.2755 9.16687 64.0492 9.35973C63.7034 9.64687 63.3618 10.2297 63.0202 11.0997L58.0162 23.8797H57.6746L52.0984 11.3912C51.6245 10.3326 51.2445 9.67687 50.9584 9.41544C50.6766 9.1583 50.2667 9.0083 49.7202 8.97401V8.58401H55.7447" fill="#006241"/>
<path fill-rule="evenodd" clip-rule="evenodd" d="M61.3038 23.6055V23.1983C61.8845 23.1297 62.32 22.9112 62.6061 22.5297C62.9007 22.1526 63.4002 21.1283 64.109 19.4612L68.827 8.31403H69.2668L74.9027 21.1926C75.2784 22.0497 75.5816 22.5812 75.7993 22.7912C76.0256 22.9883 76.4056 23.1255 76.9351 23.2026V23.6097H71.1796V23.2026C71.8414 23.1426 72.2726 23.0697 72.4605 22.9883C72.6526 22.8983 72.7465 22.6883 72.7465 22.3583C72.7465 22.2469 72.7124 22.0497 72.6398 21.7712C72.5629 21.4883 72.4605 21.1969 72.3281 20.884L71.3888 18.7026H65.4668C64.8775 20.1855 64.5232 21.094 64.4079 21.4283C64.2969 21.754 64.2414 22.0112 64.2414 22.204C64.2414 22.5855 64.3951 22.8512 64.7068 23.0012C64.8989 23.0912 65.2575 23.1597 65.787 23.2026V23.6097H61.3038M71.0686 17.7726L68.4513 11.5155L65.8638 17.7726H71.0686Z" fill="#006241"/>
<path d="M177.763 3.21832C178.079 3.21832 178.382 3.29975 178.681 3.45832C178.98 3.62118 179.215 3.84832 179.381 4.14832C179.548 4.44832 179.633 4.76118 179.633 5.08689C179.633 5.41261 179.552 5.72118 179.386 6.01689C179.219 6.31261 178.989 6.54404 178.694 6.71118C178.395 6.87404 178.088 6.95975 177.763 6.95975C177.439 6.95975 177.131 6.87832 176.832 6.71118C176.538 6.54832 176.307 6.31689 176.141 6.01689C175.974 5.72118 175.893 5.40832 175.893 5.08689C175.893 4.76547 175.978 4.44832 176.145 4.14832C176.311 3.84832 176.546 3.61689 176.845 3.45832C177.144 3.29547 177.451 3.21832 177.763 3.21832ZM177.763 3.45404C177.49 3.45404 177.221 3.52261 176.96 3.66404C176.7 3.80547 176.495 4.00689 176.35 4.26832C176.205 4.52975 176.128 4.80404 176.128 5.08689C176.128 5.36975 176.2 5.63975 176.346 5.90118C176.491 6.16261 176.691 6.36404 176.952 6.50547C177.212 6.65118 177.481 6.71975 177.763 6.71975C178.045 6.71975 178.318 6.64689 178.574 6.50547C178.835 6.35975 179.036 6.15832 179.181 5.90118C179.326 5.63975 179.398 5.36975 179.398 5.08689C179.398 4.80404 179.326 4.52975 179.181 4.26832C179.036 4.00689 178.831 3.80547 178.57 3.66404C178.31 3.52261 178.041 3.45404 177.763 3.45404ZM176.768 3.99832H177.72C178.041 3.99832 178.263 4.03689 178.387 4.11404C178.562 4.22547 178.651 4.37975 178.651 4.57689C178.651 4.70118 178.613 4.81261 178.536 4.91118C178.459 5.00975 178.34 5.07832 178.182 5.12547L178.545 5.78975C178.596 5.88404 178.651 5.95261 178.707 5.99547C178.732 6.01689 178.771 6.03404 178.818 6.04261V6.13689H178.177L177.639 5.16404H177.52V5.68689C177.52 5.83261 177.541 5.92689 177.58 5.96975C177.618 6.01261 177.708 6.03404 177.84 6.03832V6.13261H176.721V6.03832C176.832 6.03832 176.901 6.02118 176.931 5.98261C176.973 5.93118 176.995 5.83261 176.995 5.68261V4.43118C176.995 4.28975 176.978 4.19975 176.948 4.16118C176.918 4.12261 176.854 4.09689 176.76 4.08832V3.99404L176.768 3.99832ZM177.524 5.02689C177.584 5.03547 177.635 5.03975 177.674 5.03975C177.789 5.03975 177.883 4.99689 177.968 4.91118C178.049 4.82547 178.092 4.70975 178.092 4.56832C178.092 4.42689 178.054 4.31118 177.977 4.23404C177.9 4.15689 177.785 4.11832 177.627 4.11832H177.528V5.02689H177.524Z" fill="#006241"/>
<path d="M220.938 1.89404L220.874 1.90261L195.969 1.89404H195.333C191.507 1.89404 188.403 5.00547 188.403 8.84976L188.331 10.1055V18.0683C188.331 21.9083 191.435 25.024 195.26 25.024H212.518C212.599 25.0755 212.676 25.1398 212.757 25.2169C215.255 27.6983 217.766 30.1669 220.276 32.6355C220.417 32.7726 220.562 32.9055 220.814 33.1455C220.827 31.9798 220.84 30.9512 220.848 29.9226C220.861 28.2898 220.874 26.6569 220.882 25.024H220.942C224.768 25.024 227.872 21.9126 227.872 18.0683V8.84976C227.872 5.00976 224.772 1.89404 220.942 1.89404H220.938Z" fill="#FCD672"/>
<path d="M197.152 17.4555C197.527 17.4512 197.942 17.3012 198.394 16.9969C198.847 16.6969 199.286 16.3412 199.713 15.9383C200.14 15.5312 200.529 15.1198 200.888 14.6998C201.238 14.2755 201.511 13.9369 201.69 13.6798C201.797 13.5212 201.9 13.4269 201.998 13.3926C202.096 13.3626 202.169 13.3755 202.22 13.4355C202.267 13.4955 202.284 13.5898 202.275 13.7183C202.262 13.8426 202.211 13.9883 202.113 14.1469C202.028 14.2926 201.887 14.5026 201.69 14.7812C201.49 15.0555 201.259 15.3598 200.986 15.6812C200.717 16.0026 200.405 16.3369 200.064 16.6755C199.722 17.0098 199.363 17.3183 198.988 17.5926C198.612 17.8712 198.223 18.0983 197.826 18.2783C197.425 18.454 197.032 18.5483 196.644 18.5526C196.11 18.5526 195.662 18.4583 195.303 18.2612C194.944 18.064 194.654 17.8069 194.44 17.4898C194.227 17.1726 194.073 16.8255 193.988 16.444C193.902 16.0583 193.855 15.6812 193.855 15.304C193.855 14.9269 193.932 14.4555 194.099 13.894C194.265 13.3326 194.513 12.7926 194.842 12.274C195.171 11.7555 195.589 11.3055 196.097 10.9326C196.605 10.5598 197.203 10.3669 197.895 10.3626C198.283 10.3626 198.612 10.4955 198.889 10.7569C199.167 11.0226 199.299 11.3869 199.291 11.8498C199.291 12.0683 199.257 12.2826 199.188 12.5012C199.116 12.7112 199.022 12.904 198.898 13.0669C198.778 13.2298 198.637 13.3626 198.475 13.4612C198.313 13.5598 198.134 13.6112 197.942 13.6112C197.784 13.6112 197.664 13.5555 197.583 13.4398C197.506 13.324 197.455 13.1912 197.433 13.0412C197.416 12.8869 197.412 12.7369 197.433 12.5912C197.451 12.4455 197.468 12.3469 197.493 12.2998C197.553 12.214 197.621 12.154 197.69 12.1155C197.762 12.0769 197.848 12.034 197.946 11.9826C198.018 11.9483 198.074 11.8926 198.117 11.8198C198.159 11.7469 198.181 11.6655 198.181 11.5798C198.181 11.494 198.155 11.4212 198.108 11.3612C198.061 11.3012 197.98 11.2712 197.873 11.2712C197.762 11.2712 197.566 11.3612 197.284 11.5369C196.998 11.7169 196.712 11.9783 196.417 12.3298C196.123 12.6812 195.862 13.1183 195.636 13.6412C195.41 14.1683 195.29 14.7769 195.286 15.4712C195.277 15.874 195.333 16.204 195.457 16.4569C195.576 16.7098 195.734 16.9112 195.913 17.0569C196.097 17.2026 196.298 17.3055 196.515 17.3655C196.733 17.4255 196.947 17.4555 197.152 17.4512V17.4555Z" fill="#006241"/>
<path d="M210.14 14.344C209.973 14.5883 209.756 14.8926 209.495 15.2526C209.231 15.6169 208.953 15.9769 208.671 16.3412C208.389 16.7012 208.116 17.0312 207.843 17.3312C207.574 17.6312 207.348 17.8412 207.164 17.9654C207.044 18.0383 206.904 18.0983 206.746 18.1497C206.588 18.2012 206.43 18.2312 206.263 18.244C206.097 18.2569 205.947 18.2483 205.798 18.2183C205.653 18.1883 205.524 18.1412 205.413 18.0683C205.302 17.9826 205.213 17.8626 205.14 17.704C205.076 17.5712 205.021 17.3954 204.965 17.1769C204.91 16.9583 204.888 16.684 204.897 16.3583C204.606 16.8469 204.291 17.224 203.94 17.4897C203.59 17.7512 203.257 17.9483 202.946 18.0726C202.583 18.2097 202.22 18.2912 201.853 18.3169C201.686 18.3169 201.502 18.2612 201.306 18.1454C201.11 18.0297 200.947 17.8497 200.811 17.6012C200.674 17.3526 200.589 17.0312 200.55 16.6369C200.508 16.2426 200.555 15.7669 200.683 15.2183C200.849 14.4769 201.11 13.7955 201.477 13.1869C201.844 12.574 202.245 12.0512 202.677 11.614C203.112 11.1812 203.539 10.8512 203.962 10.6283C204.384 10.4054 204.735 10.3069 205.012 10.3283C205.341 10.3883 205.674 10.4483 205.879 10.5812C206.383 10.9112 206.724 11.1469 206.75 11.9397C206.75 11.9655 206.72 12.094 206.72 12.1712C206.72 12.2483 206.703 12.394 206.669 12.604C206.635 12.8097 206.579 13.0883 206.511 13.444C206.442 13.7997 206.348 14.254 206.229 14.8154C206.208 14.9269 206.186 15.0254 206.169 15.1197C206.152 15.2097 206.135 15.304 206.118 15.394C206.101 15.484 206.079 15.5912 206.054 15.7154C206.028 15.8354 206.003 15.9897 205.964 16.174C205.956 16.2854 205.951 16.4012 205.96 16.5297C205.964 16.6583 205.99 16.774 206.024 16.8854C206.062 16.9969 206.122 17.0826 206.199 17.1512C206.276 17.2197 206.387 17.2497 206.536 17.2497C206.656 17.2497 206.814 17.1726 207.006 17.0183C207.198 16.864 207.403 16.6669 207.621 16.4269C207.839 16.1869 208.065 15.9254 208.3 15.6383C208.535 15.3512 208.752 15.0726 208.957 14.8026C209.162 14.5326 209.35 14.2969 209.504 14.0869C209.666 13.8769 209.786 13.7226 209.854 13.6283C209.952 13.5169 210.05 13.4526 210.144 13.4312C210.238 13.414 210.315 13.4397 210.362 13.5169C210.409 13.5855 210.422 13.7012 210.392 13.8426C210.362 13.9926 210.277 14.1597 210.131 14.3569L210.14 14.344ZM204.816 15.1883C204.875 14.944 204.944 14.6569 205.029 14.3312C205.115 14.0012 205.183 13.684 205.243 13.3797C205.298 13.0755 205.345 12.8226 205.375 12.6212C205.401 12.4197 205.413 12.2526 205.413 12.1969C205.401 11.6869 204.957 11.524 204.769 11.4812C204.602 11.4469 204.355 11.5026 204.026 11.7897C203.693 12.0812 203.313 12.6083 202.882 13.3797C202.702 13.7012 202.561 14.0397 202.45 14.3954C202.344 14.7554 202.271 15.094 202.233 15.4112C202.19 15.7283 202.186 16.0069 202.211 16.2426C202.237 16.4826 202.288 16.6369 202.361 16.7097C202.493 16.8426 202.647 16.9069 202.817 16.8983C202.988 16.894 203.159 16.8426 203.334 16.7483C203.509 16.6583 203.684 16.5383 203.859 16.3883C204.034 16.2383 204.192 16.0883 204.329 15.9297C204.466 15.7712 204.581 15.6254 204.671 15.4926C204.76 15.3554 204.811 15.2612 204.82 15.1969L204.816 15.1883Z" fill="#006241"/>
<path d="M223.918 14.4126C223.568 14.9355 223.175 15.4455 222.727 15.9383C222.283 16.4312 221.813 16.8726 221.314 17.2626C220.814 17.6483 220.306 17.9655 219.781 18.2055C219.26 18.4455 218.752 18.5655 218.257 18.574C218 18.574 217.714 18.514 217.416 18.394C217.112 18.2697 216.839 18.0812 216.587 17.824C216.34 17.5669 216.139 17.2283 215.989 16.8169C215.84 16.4012 215.793 15.8997 215.844 15.3083C215.887 14.824 216.032 14.314 216.284 13.7697C216.536 13.2297 216.843 12.7326 217.211 12.2826C217.578 11.8326 217.996 11.4555 218.457 11.1555C218.923 10.8555 219.388 10.7055 219.858 10.7012C220.306 10.6969 220.631 10.8083 220.836 11.0312C221.036 11.254 221.126 11.5326 221.105 11.8626C221.07 12.2312 220.972 12.5697 220.806 12.8783C220.635 13.1869 220.434 13.4655 220.199 13.7183C219.965 13.9712 219.717 14.194 219.452 14.3955C219.187 14.6012 218.936 14.7855 218.705 14.9526C218.449 15.1326 218.201 15.304 217.966 15.4626C217.732 15.6255 217.527 15.7712 217.352 15.8997C217.364 16.1955 217.42 16.444 217.518 16.6455C217.612 16.8469 217.732 17.0097 217.877 17.134C218.018 17.2583 218.18 17.344 218.363 17.3955C218.547 17.4469 218.735 17.4726 218.923 17.4726C219.324 17.4726 219.738 17.3397 220.174 17.0826C220.609 16.8255 221.032 16.5169 221.45 16.1483C221.865 15.784 222.253 15.4026 222.607 15.0126C222.966 14.6183 223.256 14.2797 223.491 13.9926C223.572 13.8983 223.658 13.8383 223.747 13.8212C223.837 13.804 223.905 13.8169 223.961 13.8555C224.016 13.8983 224.042 13.9712 224.042 14.0697C224.042 14.1683 224.004 14.284 223.918 14.4169V14.4126ZM219.371 11.7169C219.23 11.7169 219.059 11.7897 218.867 11.9355C218.675 12.0812 218.483 12.2826 218.295 12.5483C218.107 12.814 217.936 13.144 217.77 13.5297C217.608 13.9155 217.488 14.3569 217.411 14.854C217.552 14.7469 217.702 14.6397 217.868 14.524C218.035 14.4083 218.197 14.2883 218.359 14.1555C218.863 13.7612 219.213 13.4183 219.414 13.1183C219.61 12.8226 219.721 12.5655 219.743 12.3555C219.764 12.1283 219.738 11.9655 219.666 11.8669C219.597 11.7683 219.495 11.7169 219.367 11.7212L219.371 11.7169ZM220.789 7.2126C220.895 7.12689 221.011 7.13546 221.143 7.22546C221.271 7.31974 221.365 7.46117 221.429 7.64974C221.514 7.89832 221.523 8.08689 221.45 8.21117C221.382 8.33546 221.275 8.44689 221.134 8.54117C221.062 8.60546 220.929 8.68689 220.737 8.79403C220.545 8.90117 220.332 9.0126 220.101 9.12832C219.875 9.24403 219.649 9.3426 219.422 9.43689C219.2 9.52689 219.029 9.57832 218.914 9.59117C218.782 9.60403 218.684 9.59117 218.611 9.54832C218.538 9.50974 218.483 9.45403 218.44 9.39832C218.402 9.33832 218.372 9.27403 218.363 9.1926C218.351 9.11546 218.342 9.05117 218.342 8.98689C219.256 8.33974 219.896 7.88117 220.259 7.60689C220.468 7.4526 220.648 7.31975 220.789 7.2126Z" fill="#006241"/>
<path fill-rule="evenodd" clip-rule="evenodd" d="M211.865 5.07836C214.26 4.59836 216.438 6.1155 216.579 8.3655C216.668 9.8355 215.614 11.1555 214.119 11.4469C212.642 11.7341 211.498 11.0955 211.024 9.71978C210.593 8.46407 211.493 7.11407 212.813 7.12264C213.206 7.12693 213.645 7.35407 213.961 7.60264C214.128 7.73121 214.674 8.27978 214.128 8.41264C213.902 8.46407 213.641 8.41264 213.453 8.29264C212.975 7.99693 212.625 8.28407 212.599 8.38264C212.518 8.70836 212.493 9.17121 212.668 9.41978C213.274 10.2812 214.683 10.1012 215.174 9.14978C215.763 7.99693 215.238 6.65978 214 6.28693C212.535 5.84121 211.242 6.23978 210.23 7.34978C209.205 8.48121 209.427 9.82264 209.973 11.0441C210.405 12.0169 211.037 12.9169 211.673 13.7741C213.201 15.8269 214.329 18.0341 214.645 20.6098C214.691 20.9912 214.751 21.3812 214.726 21.7584C214.713 21.9941 214.683 22.4226 214.435 22.4441C214.179 22.4655 214.089 22.0412 214.017 21.8098C213.85 21.2998 213.761 20.7641 213.624 20.2412C213.048 18.0298 211.835 16.1912 210.383 14.4598C209.623 13.5512 208.927 12.5226 208.453 11.4384C207.185 8.53693 208.752 5.70836 211.856 5.08264L211.865 5.07836Z" fill="#006241"/>
<path d="M211.438 15.2355C212.766 15.1669 214.371 14.9269 214.896 13.0798C215.11 12.3298 214.38 12.2312 214.265 12.6641C213.867 14.1383 212.326 14.2069 211.318 14.2583C210.96 14.2755 211.075 15.2526 211.438 15.2355Z" fill="#006241"/>
</svg>
