<svg width="425" height="81" viewBox="0 0 425 81" fill="none" xmlns="http://www.w3.org/2000/svg">
<path d="M390.57 13.5036C390.43 11.9636 389.63 11.5936 388.98 11.5536C388.21 11.5136 387.31 11.7236 386.33 12.2036C385.4 12.6636 384.45 13.1736 383.5 13.7336C382.54 14.3036 381.34 15.1136 379.93 16.1436C378.52 17.1736 376.79 18.5236 374.77 20.1536C372.74 21.7936 371.09 23.1436 369.79 24.2236C368.51 25.2836 366.97 26.4736 365.21 27.7536C363.43 29.0536 361.38 30.5636 359.06 32.2936C358.21 32.9236 357.69 33.2536 357.38 33.4236C357.42 33.3636 357.45 33.2936 357.49 33.2236C358.34 31.7436 359.15 30.3636 359.92 29.0636C360.68 27.7736 361.44 26.4536 362.19 25.1136C362.94 23.7736 363.8 22.2636 364.78 20.5836C365.75 18.9236 366.93 17.2236 368.3 15.5136C369.69 13.7836 371.05 12.0736 372.39 10.3736C373.72 8.68356 374.74 7.45356 375.41 6.72356C376.17 5.89356 376.54 5.09356 376.5 4.35356C376.46 3.64356 376.21 2.99356 375.75 2.42356C375.31 1.88356 374.61 1.37356 373.69 0.90356L373.43 0.77356L372.08 2.01356C370.05 4.02356 367.97 5.85356 365.92 7.47356C363.87 9.09356 361.25 11.2336 358.13 13.8136C355.02 16.3936 352.11 19.1336 349.47 21.9636C346.86 24.7536 344.05 27.3536 341.1 29.7036C338.16 32.0336 335.33 33.8636 332.68 35.1136C330.02 36.3736 327.74 37.2736 325.93 37.7736C324.15 38.2636 322.83 38.4336 322.03 38.2836C321.33 38.1436 320.94 37.7736 320.8 37.1236C320.66 36.4336 320.94 35.6336 321.65 34.7636C322.52 33.6936 322.94 32.8536 322.94 32.2036C322.94 31.4336 322.5 30.9636 321.73 30.8936C321.11 30.8536 320.32 31.0336 319.34 31.4936C318.38 31.9436 317.52 32.6436 316.8 33.5636C316.07 34.4836 315.56 35.8736 315.26 37.7736C315.32 39.2136 315.66 40.4136 316.26 41.3436C316.88 42.3036 318.02 43.0936 319.74 43.7536L321.82 43.8336L321.89 43.8136C324.08 43.1236 326.33 42.3236 328.58 41.4336C330.85 40.5436 333.46 39.2936 336.37 37.6936C339.28 36.0936 342.41 33.8036 345.68 30.8636C348.93 27.9436 351.53 25.4836 353.41 23.5536C355.28 21.6336 357.5 19.4736 359.99 17.1136C362.06 15.1536 363.52 13.8536 364.34 13.2236C363.9 14.0036 363.41 14.7836 362.88 15.5536C362.28 16.4136 361.41 17.7136 360.28 19.4636C359.15 21.2036 357.99 22.9036 356.85 24.5236C355.7 26.1536 354.57 27.9436 353.49 29.8436C352.43 31.6936 351.41 33.1536 350.44 34.2036C349.44 35.2936 348.64 36.2436 348.09 37.0536C347.49 37.9236 347.21 38.8436 347.27 39.7936C347.32 40.7836 347.72 41.5436 348.43 42.0536C349.16 42.5836 350.16 42.5936 351.39 42.0836C352.52 41.6236 353.96 40.6436 355.66 39.1836C357.32 37.7636 359.02 36.5036 360.72 35.4336C362.45 34.3536 363.97 33.3236 365.25 32.3836C366.27 31.6336 367.37 30.8636 368.52 30.0836C368.52 30.0936 368.5 30.0936 368.5 30.1036C366.78 31.9236 365.38 33.4536 364.33 34.6536C363.25 35.8636 362.4 37.3036 361.79 38.9436C361.14 40.6836 361.06 41.8736 361.53 42.5636C361.98 43.2136 362.82 43.6836 364.01 43.9536H364.07H364.13C366.85 43.7936 369.02 43.5836 370.58 43.3136C372.15 43.0536 373.76 42.6736 375.37 42.1836C376.98 41.6936 378.33 41.2836 379.42 40.9436C380.65 40.5636 381.43 39.8336 381.76 38.7936L381.8 38.6636L381.76 38.5336C381.6 38.0236 381.12 36.4736 379.97 36.4736C379.74 36.4736 379.51 36.5436 379.28 36.6636C378.52 37.0736 377.7 37.4436 376.86 37.7636C376.01 38.0836 375.01 38.3736 373.88 38.6336C372.75 38.8936 371.53 39.0836 370.25 39.1836C369.68 39.2236 369.27 39.1536 369.13 38.9736C369 38.8136 369.03 38.5336 369.08 38.3236C369.31 37.3236 369.57 36.4836 369.85 35.8236C370.13 35.1636 370.82 33.9936 371.89 32.3336C372.97 30.6636 374.22 28.9036 375.59 27.0736C376.96 25.2536 378.3 23.6936 379.57 22.4236C380.84 21.1436 382.12 20.0136 383.38 19.0436C384.64 18.0836 385.84 17.2636 386.98 16.6236C388.13 15.9736 389.25 15.3536 390.34 14.7636L390.56 14.6436V13.4636L390.57 13.5036Z" fill="#231F20"/>
<path d="M403.33 18.7036C404.61 18.0436 405.58 17.7236 406.26 17.7236C406.89 17.7236 407.28 18.0036 407.39 18.5936C407.63 19.7836 406.93 21.1036 405.3 22.5436C403.66 23.9736 400.42 25.4936 395.56 27.0836C396.44 25.4036 397.34 23.9136 398.25 22.6036C399.17 21.2836 400.86 19.9936 403.33 18.7136M423.7 39.2436C423.06 38.3036 421.69 39.0136 418.32 39.8736C414.87 40.7536 413.86 40.4236 408.54 40.1236C402.93 39.8236 399.47 39.1036 397.67 37.8836C394.86 35.9936 394.75 34.1736 395.15 32.9836C395.68 31.3836 397.63 30.2936 402.33 28.9636C405.74 28.0036 408.83 26.4136 411.52 24.2336C414.04 22.2036 415.37 19.8836 415.61 17.1636C415.93 13.4136 414.54 12.4436 414.08 12.1136C412.54 11.0436 410.76 10.4836 408.64 10.4236L406.24 10.5336C404.08 11.1236 401.93 12.2036 399.84 13.7636C397.57 15.4536 395.28 17.4836 393.01 19.7936C390.82 22.0236 389.23 24.1736 388.3 26.2036C387.4 28.1436 386.93 31.0436 386.92 34.8036C387.34 37.0936 388 38.7936 388.88 39.8636C389.82 41.0036 391.2 42.0236 392.98 42.9036C394.23 43.5136 397.18 44.3836 404.1 45.0436H407.11C412.25 44.8036 414.07 44.8136 417.6 43.7536C421.15 42.6836 425.24 41.5036 423.71 39.2536" fill="#231F20"/>
<path d="M55.15 10.8735V11.7335C53.98 11.7435 53.18 11.8235 52.75 11.9635C52.01 12.2135 51.63 12.7035 51.63 13.4535C51.63 13.8335 51.76 14.3635 52.02 15.0535C52.29 15.7335 52.8 16.8835 53.53 18.5035L60.84 34.7835L67.48 17.1535C67.77 16.3735 67.99 15.7235 68.14 15.1935C68.29 14.6635 68.37 14.2235 68.37 13.8935C68.37 13.0035 67.98 12.3935 67.21 12.0735C66.75 11.8835 66 11.7835 64.95 11.7435V10.8835H74.51V11.6835C73.52 11.8235 72.79 12.0835 72.32 12.4835C71.6 13.0735 70.9 14.2635 70.2 16.0635L59.86 42.3635H59.15L47.62 16.6535C46.64 14.4835 45.86 13.1235 45.27 12.5935C44.69 12.0635 43.84 11.7635 42.71 11.6835V10.8835H55.15V10.8735Z" fill="#231F20"/>
<path d="M69.74 41.1735C71.16 41.0735 72.09 40.8635 72.51 40.5435C72.93 40.2135 73.14 39.3735 73.14 38.0135V22.4135C73.14 21.1235 72.93 20.2935 72.51 19.9235C72.09 19.5535 71.16 19.3235 69.74 19.2535V18.6035H80.11V19.2535C78.69 19.3235 77.76 19.5435 77.34 19.9235C76.92 20.2935 76.71 21.1135 76.71 22.4135V38.0135C76.71 39.3735 76.92 40.2135 77.34 40.5435C77.76 40.8635 78.69 41.0735 80.11 41.1735V41.8135H69.74V41.1735Z" fill="#231F20"/>
<path d="M89.34 18.6035V19.2535C88.46 19.2535 87.86 19.3235 87.54 19.4235C86.98 19.6035 86.7 19.9735 86.7 20.5335C86.7 20.8235 86.8 21.2135 87 21.7335C87.21 22.2535 87.58 23.1135 88.13 24.3235L93.61 36.5235L98.59 23.3135C98.81 22.7235 98.97 22.2335 99.09 21.8335C99.21 21.4335 99.26 21.1135 99.26 20.8535C99.26 20.1835 98.97 19.7235 98.39 19.4835C98.05 19.3435 97.48 19.2635 96.69 19.2435V18.5935H103.87V19.1935C103.13 19.2935 102.58 19.4935 102.23 19.7935C101.69 20.2335 101.16 21.1335 100.63 22.4835L92.87 42.2035H92.34L83.69 22.9235C82.96 21.2835 82.38 20.2735 81.92 19.8735C81.49 19.4735 80.85 19.2435 80 19.1935V18.5935H89.34V18.6035Z" fill="#231F20"/>
<path d="M113.09 32.8036L109.03 23.1436L105.02 32.8036H113.08H113.09ZM97.9499 41.8036V41.1736C98.8499 41.0736 99.5299 40.7336 99.9699 40.1436C100.43 39.5636 101.2 37.9836 102.3 35.4036L109.61 18.1936H110.29L119.02 38.0736C119.61 39.3936 120.07 40.2236 120.41 40.5436C120.76 40.8536 121.35 41.0636 122.17 41.1736V41.8036H113.25V41.1736C114.27 41.0836 114.94 40.9736 115.23 40.8436C115.53 40.7136 115.67 40.3836 115.67 39.8736C115.67 39.6936 115.62 39.3936 115.51 38.9636C115.39 38.5336 115.23 38.0736 115.03 37.5936L113.57 34.2236H104.39C103.48 36.5236 102.93 37.9236 102.75 38.4336C102.57 38.9336 102.49 39.3336 102.49 39.6336C102.49 40.2236 102.73 40.6436 103.21 40.8636C103.51 41.0036 104.07 41.1036 104.89 41.1736V41.8036H97.9399H97.9499Z" fill="#231F20"/>
<path d="M168.87 41.0435C168.87 41.3335 168.55 41.4735 167.92 41.4735H167.42C166.99 41.4735 166.22 41.4735 165.1 41.4335C163.98 41.4035 163.12 41.3835 162.51 41.3835C161.6 41.3835 160.54 41.3935 159.33 41.4335H156.56C155.92 41.4335 155.6 41.2935 155.6 41.0335C155.6 40.7435 156.04 40.5935 156.92 40.5935C158.47 40.5935 159.41 40.4235 159.74 40.1035C159.9 39.9635 159.97 38.9735 159.97 37.1635V14.4435C159.97 14.4435 159.81 14.9835 159.47 15.9735C158.26 19.5235 156.5 24.8435 154.2 31.9635L152.06 38.9435C151.63 40.3235 151.33 41.0035 151.15 41.0035C150.93 41.0035 150.71 40.6535 150.46 39.9535C149.59 37.2935 147.09 30.6535 143 20.0235L141.18 15.3335C141.21 15.8835 141.23 16.6435 141.23 17.6135V31.8835C141.23 37.2335 141.28 39.9435 141.37 40.0035C141.58 40.3835 142.31 40.5735 143.55 40.5735C144.55 40.5735 145.05 40.7035 145.05 40.9735C145.05 41.2635 144.73 41.4135 144.1 41.4135C143.7 41.4135 143.34 41.3935 143 41.3635C142.58 41.3335 142.2 41.3135 141.86 41.3135L136.63 41.4535C136.08 41.4535 135.81 41.3135 135.81 41.0535C135.81 40.7635 136.67 40.5935 138.41 40.5735C139.14 40.5735 139.56 40.4535 139.68 40.2135C139.8 39.9835 139.86 39.2235 139.86 37.9335V16.9035C139.86 14.4735 139.82 13.1635 139.77 12.9535C139.65 12.5535 139.39 12.2735 138.99 12.1235C138.6 11.9735 137.75 11.8635 136.45 11.7735C135.97 11.7435 135.72 11.6135 135.72 11.3735C135.72 11.0535 136.16 10.8935 137.04 10.8935C137.16 10.8935 137.41 10.9035 137.81 10.9435H140.17C141.96 10.9435 143.22 10.9335 143.95 10.8935C144.1 11.2735 145 13.5635 146.63 17.7835C147.33 19.5435 149.28 24.6635 152.5 33.1435C153.07 31.2435 153.67 29.3735 154.27 27.5235L159.09 12.9935C159.36 12.1435 159.6 11.4435 159.81 10.8835L166.63 10.8335C167.63 10.8335 168.21 10.8835 168.36 10.9735C168.51 11.0535 168.59 11.1935 168.59 11.3635C168.59 11.6635 168.34 11.8035 167.82 11.8035C166.97 11.8035 166.4 11.8335 166.09 11.8935C165.36 12.0135 164.86 12.2435 164.58 12.5935C164.43 12.7935 164.36 14.5135 164.36 17.7335V38.1435C164.36 39.3135 164.48 40.0035 164.72 40.2035C165.11 40.4735 166.1 40.6035 167.68 40.6035H167.95C168.56 40.6035 168.86 40.7435 168.86 41.0435" fill="#231F20"/>
<path d="M188.41 36.0635C188.41 36.1435 188.38 36.6835 188.34 37.6735C188.29 38.6635 188.27 39.6035 188.27 40.5035V41.5935C186.04 41.4835 181.63 41.4335 175.03 41.4335C174.24 41.4335 173.45 41.4435 172.68 41.4735H170.77C170.34 41.4735 170.12 41.3735 170.12 41.1735C170.12 41.0335 170.19 40.9635 170.32 40.9435C170.39 40.9435 170.82 40.9135 171.62 40.8435C172.21 40.8035 172.56 40.6835 172.68 40.4835C172.82 40.2835 172.89 39.7735 172.89 38.9335V20.4235C172.89 19.7935 172.78 19.4135 172.58 19.3035C172.39 19.1735 171.78 19.1035 170.73 19.1035C170.36 19.1035 170.19 19.0035 170.19 18.8035C170.19 18.6035 170.44 18.5035 170.94 18.5035L176.77 18.5435C176.98 18.5435 178.26 18.5335 180.63 18.5035H185.4C186.08 18.5035 186.71 18.4635 187.28 18.3735C187.33 19.3235 187.42 20.6235 187.59 22.2935L187.72 23.7135C187.74 23.8235 187.76 23.9635 187.76 24.1435C187.76 24.3635 187.66 24.4735 187.45 24.4735C187.2 24.4735 187.02 24.1935 186.9 23.6435C186.47 21.6635 185.76 20.4135 184.79 19.8935C184.06 19.4935 182.15 19.3035 179.06 19.3035H176.26V28.9535H177.08C179.63 28.9535 181.17 28.7735 181.72 28.3935C182.29 28.0235 182.68 26.9435 182.88 25.1435C182.93 24.6835 183.05 24.4535 183.25 24.4535C183.5 24.4535 183.63 24.6535 183.63 25.0435C183.63 25.4335 183.61 26.0135 183.56 26.7835C183.52 27.5535 183.5 28.1335 183.5 28.5335C183.5 30.8735 183.54 32.4935 183.64 33.3635C183.66 33.5835 183.67 33.7735 183.67 33.9335C183.67 34.2235 183.55 34.3535 183.3 34.3535C183.14 34.3535 183.03 34.2735 182.96 34.0935C182.92 33.8935 182.82 33.2735 182.69 32.2435C182.51 30.9435 181.95 30.1535 181.02 29.8435C180.61 29.7135 179.54 29.6435 177.81 29.6435H176.28V40.7035C181.28 40.7035 184.22 40.6035 185.08 40.4035C186.58 40.0735 187.43 38.6735 187.64 36.1935C187.69 35.6535 187.84 35.3735 188.09 35.3735C188.32 35.3735 188.43 35.6035 188.43 36.0735" fill="#231F20"/>
<path d="M212.09 30.0035C212.09 33.8635 210.69 36.8736 207.89 39.0236C205.85 40.6036 203.11 41.3936 199.67 41.3936C199.59 41.3936 199.17 41.3836 198.44 41.3636C197.74 41.3436 196.7 41.3236 195.33 41.3236H193.63L190.94 41.3636C190.78 41.3836 190.61 41.3936 190.43 41.3936C190 41.3936 189.78 41.2835 189.78 41.0635C189.78 40.8635 190.15 40.7635 190.88 40.7635C191.81 40.7635 192.39 40.6035 192.62 40.2635C192.71 40.1136 192.76 39.6936 192.76 39.0135V21.2635C192.76 20.1935 192.66 19.5636 192.49 19.3936C192.33 19.2136 191.75 19.1336 190.75 19.1336C190.23 19.1336 189.97 19.0136 189.97 18.7736C189.97 18.5936 190.16 18.5135 190.55 18.5135C190.52 18.5135 190.78 18.5236 191.3 18.5436C191.82 18.5636 192.34 18.5736 192.84 18.5736H196.49C200.59 18.5736 203.48 18.8536 205.19 19.4036C207.26 20.0636 208.93 21.3636 210.21 23.3236C211.48 25.2536 212.12 27.4835 212.12 30.0035M208.26 29.8736C208.26 26.2336 207.52 23.5636 206.04 21.8736C204.56 20.1536 202.25 19.3036 199.11 19.3036C197.59 19.3036 196.66 19.4535 196.35 19.7635C196.21 19.9135 196.14 20.4435 196.14 21.3435V38.8535C196.14 39.4636 196.15 39.8435 196.17 39.9735C196.22 40.1035 196.32 40.2036 196.48 40.3036C197.03 40.5736 198.18 40.7035 199.93 40.7035C202.38 40.7035 204.36 39.8735 205.86 38.2035C207.45 36.4435 208.25 33.6736 208.25 29.8736" fill="#231F20"/>
<path d="M223.34 41.1335C223.34 41.3135 223.2 41.4035 222.93 41.4035H222.59C222.45 41.3335 220.91 41.3035 217.95 41.3035C217.38 41.3035 216.81 41.3235 216.25 41.3735C215.95 41.3935 215.49 41.4035 214.88 41.4035C214.58 41.4035 214.44 41.3035 214.44 41.1035C214.44 40.9235 214.73 40.8235 215.32 40.8135C216.23 40.7935 216.76 40.6935 216.93 40.5135C217.09 40.3135 217.16 39.6835 217.16 38.6035V21.2835C217.16 20.2135 217.1 19.6135 216.99 19.4735C216.85 19.2535 216.23 19.1235 215.12 19.0735C214.69 19.0535 214.47 18.9635 214.47 18.8135C214.47 18.6135 214.61 18.5135 214.88 18.5135L219.49 18.5735C219.83 18.5735 220.49 18.5735 221.47 18.5435L222.77 18.5035C223.13 18.5035 223.32 18.6035 223.32 18.8035C223.32 18.9835 222.82 19.0935 221.81 19.1335C221.24 19.1535 220.89 19.2435 220.75 19.4235C220.64 19.6035 220.58 20.0635 220.58 20.8035V38.3835C220.58 39.6335 220.64 40.3135 220.75 40.4235C221 40.6635 221.74 40.8035 222.97 40.8435C223.22 40.8435 223.35 40.9335 223.35 41.1135" fill="#231F20"/>
<path d="M244.97 34.0536C244.97 34.0536 244.95 34.3036 244.9 34.9436C244.81 36.2136 244.76 37.4436 244.76 38.6336C244.76 38.7736 244.78 39.0436 244.83 39.4636C244.87 39.8536 244.9 40.3336 244.9 40.9136V41.2136C244.9 41.4936 244.81 41.6336 244.63 41.6336C244.45 41.6336 244.29 41.4736 244.15 41.1436C243.83 40.4236 243.51 39.9436 243.19 39.7236C241.55 41.1136 239.59 41.8036 237.29 41.8036C233.94 41.8036 231.17 40.6836 228.97 38.4436C226.78 36.1836 225.69 33.3436 225.69 29.9136C225.69 26.4836 226.69 23.6536 228.7 21.4836C230.72 19.2836 233.32 18.1936 236.51 18.1936C237.67 18.1936 238.59 18.2936 239.27 18.4936C239.97 18.6636 240.84 19.0436 241.86 19.6136C242.36 19.8936 242.74 20.0436 242.99 20.0436C243.2 20.0436 243.39 19.8736 243.57 19.5136C243.87 18.9036 244.1 18.5936 244.29 18.5936C244.48 18.5936 244.56 18.6836 244.56 18.8636C244.56 18.9436 244.54 19.0936 244.49 19.2836C244.24 20.3336 244.11 22.3136 244.11 25.2136C244.11 25.6336 244.08 25.8736 244.01 25.9436C243.94 26.0136 243.85 26.0436 243.74 26.0436C243.51 26.0436 243.37 25.8336 243.3 25.4136C243 23.6636 242.59 22.3536 242.04 21.4936C240.93 19.7436 239.18 18.8636 236.79 18.8636C234.94 18.8636 233.49 19.4536 232.42 20.6336C230.49 22.7736 229.52 25.8836 229.52 29.9936C229.52 33.6536 230.32 36.5036 231.91 38.5236C233.3 40.2736 235.14 41.1536 237.44 41.1536C238.62 41.1536 239.7 40.8836 240.68 40.3336C241.66 39.7636 242.41 38.9936 242.93 38.0336C243.52 36.9136 243.94 35.6936 244.2 34.3736C244.29 33.8436 244.44 33.5836 244.64 33.5836C244.87 33.5836 244.98 33.7536 244.98 34.0736" fill="#231F20"/>
<path d="M269.6 41.1735C269.6 41.3735 269.42 41.4635 269.08 41.4635C268.86 41.4635 268.65 41.4535 268.47 41.4235L264.14 41.3635L259.8 41.4235C259.64 41.4535 259.47 41.4635 259.29 41.4635C258.84 41.4635 258.61 41.3535 258.61 41.1335C258.61 40.8935 258.92 40.7735 259.53 40.7735C261.53 40.7535 262.53 40.5535 262.53 40.1835C262.53 40.1535 262.51 40.0735 262.46 39.9135L262.19 39.0235L262.02 38.5635C261.82 37.8835 261.32 36.3735 260.52 34.0435H253.22C251.85 37.5635 251.17 39.5835 251.17 40.1035C251.17 40.4135 251.31 40.6035 251.58 40.6635C251.65 40.6835 252.22 40.7335 253.28 40.7935C253.94 40.8135 254.27 40.9235 254.27 41.1235C254.27 41.3435 253.97 41.4535 253.38 41.4535C252.34 41.4535 251.12 41.4035 249.73 41.3135C249.39 41.2935 249.04 41.2835 248.68 41.2835C248.32 41.2835 247.96 41.3035 247.62 41.3535C247.44 41.3735 247.29 41.3835 247.17 41.3835C246.85 41.3835 246.69 41.2835 246.69 41.0935C246.69 40.9035 247.04 40.7835 247.75 40.7635C248.48 40.7435 249 40.6435 249.32 40.4635C249.64 40.2635 249.89 39.9035 250.08 39.3835C253.01 31.3035 255.4 24.8235 257.24 19.9135C257.29 19.6535 257.38 19.3635 257.52 19.0335L257.69 18.4335C257.76 18.1935 257.85 18.0735 257.96 18.0735C258.03 18.0735 258.08 18.1435 258.13 18.2735C258.43 19.1235 259.1 20.9135 260.14 23.6335C260.96 25.7635 263 31.1135 266.25 39.6635C266.43 40.1435 266.66 40.4535 266.93 40.5935C267.23 40.7235 267.82 40.8035 268.71 40.8235C269.3 40.8435 269.6 40.9535 269.6 41.1535M260.32 33.3035C259.96 32.3135 259.35 30.6735 258.51 28.3935L256.87 23.8835C255.91 26.2935 254.76 29.4335 253.42 33.3035H260.32Z" fill="#231F20"/>
<path d="M288.33 40.4036C288.33 41.3236 287.53 41.7936 285.94 41.7936C284.17 41.7936 282.78 41.0836 281.78 39.6536C281.35 39.0336 281.06 38.4436 280.93 37.8736C280.82 37.3036 280.63 35.8536 280.38 33.5236C280.24 32.1236 279.78 31.1336 278.98 30.5636C278.18 29.9736 276.89 29.6536 275.09 29.6136V39.9836C275.09 40.4236 275.46 40.6936 276.18 40.8036C276.39 40.8236 276.91 40.8436 277.75 40.8636C278.05 40.8636 278.19 40.9536 278.19 41.1336C278.19 41.3336 278 41.4236 277.61 41.4236H277.2C276.99 41.4036 276 41.3936 274.23 41.3936C273.89 41.3936 273.31 41.4036 272.49 41.4236H269.59C269.08 41.4236 268.83 41.3236 268.83 41.1336C268.83 40.9836 269.16 40.8836 269.83 40.8636C270.9 40.8436 271.47 40.7136 271.57 40.4736C271.66 40.3736 271.71 39.9336 271.71 39.1936V21.0236C271.71 20.1436 271.61 19.6136 271.4 19.4436C271.22 19.2636 270.64 19.1736 269.66 19.1536C269.09 19.1536 268.81 19.0536 268.81 18.8636C268.81 18.6436 268.99 18.5336 269.36 18.5336C269.43 18.5336 269.53 18.5436 269.67 18.5636L274.21 18.6636C274.66 18.6636 275.3 18.6636 276.12 18.6236C277.03 18.5836 277.67 18.5636 278.03 18.5636C280.14 18.5636 281.82 19.0236 283.05 19.9436C284.3 20.8436 284.92 22.0736 284.92 23.6336C284.92 25.1936 284.28 26.4336 283.01 27.4536C281.74 28.4436 280.01 29.0236 277.83 29.2036C277.63 29.2236 277.51 29.2536 277.49 29.3036C277.49 29.3936 277.6 29.4336 277.83 29.4336C280.21 29.8236 281.86 30.6436 282.74 31.8736C283.65 33.0836 284.25 35.2736 284.55 38.4536C284.73 40.2536 285.37 41.1536 286.46 41.1536C286.8 41.1536 286.96 41.0936 286.96 40.9536C286.96 40.9336 286.96 40.9036 286.93 40.8836C286.82 40.6436 286.76 40.4436 286.76 40.2936C286.76 39.8336 287.01 39.6036 287.51 39.6036C288.06 39.6036 288.33 39.8736 288.33 40.4236M281.27 23.9136C281.27 20.7736 279.86 19.2036 277.04 19.2036C276.29 19.2036 275.78 19.3036 275.51 19.5036C275.24 19.7036 275.1 20.0536 275.1 20.5636V28.9236C277.28 28.9436 278.85 28.5536 279.81 27.7736C280.79 26.9836 281.27 25.6936 281.27 23.9236" fill="#231F20"/>
<path d="M307.3 36.0635C307.3 36.1435 307.27 36.6835 307.23 37.6735C307.19 38.6635 307.16 39.6035 307.16 40.5035V41.5935C304.93 41.4835 300.52 41.4335 293.93 41.4335C293.13 41.4335 292.35 41.4435 291.58 41.4735H289.67C289.23 41.4735 289.02 41.3735 289.02 41.1735C289.02 41.0335 289.09 40.9635 289.22 40.9435C289.29 40.9435 289.72 40.9135 290.52 40.8435C291.11 40.8035 291.46 40.6835 291.58 40.4835C291.72 40.2835 291.79 39.7735 291.79 38.9335V20.4235C291.79 19.7935 291.68 19.4135 291.48 19.3035C291.3 19.1735 290.68 19.1035 289.64 19.1035C289.28 19.1035 289.09 19.0035 289.09 18.8035C289.09 18.6035 289.34 18.5035 289.84 18.5035L295.67 18.5435C295.88 18.5435 297.16 18.5335 299.53 18.5035H304.3C304.98 18.5035 305.61 18.4635 306.18 18.3735C306.23 19.3235 306.33 20.6235 306.49 22.2935L306.63 23.7135C306.66 23.8235 306.66 23.9635 306.66 24.1435C306.66 24.3635 306.56 24.4735 306.35 24.4735C306.1 24.4735 305.92 24.1935 305.8 23.6435C305.37 21.6635 304.67 20.4135 303.69 19.8935C302.96 19.4935 301.05 19.3035 297.96 19.3035H295.17V28.9535H295.99C298.54 28.9535 300.09 28.7735 300.63 28.3935C301.2 28.0235 301.58 26.9435 301.79 25.1435C301.84 24.6835 301.96 24.4535 302.17 24.4535C302.42 24.4535 302.54 24.6535 302.54 25.0435C302.54 25.4335 302.52 26.0135 302.47 26.7835C302.42 27.5535 302.4 28.1335 302.4 28.5335C302.4 30.8735 302.45 32.4935 302.54 33.3635C302.56 33.5835 302.57 33.7735 302.57 33.9335C302.57 34.2235 302.44 34.3535 302.2 34.3535C302.04 34.3535 301.92 34.2735 301.86 34.0935C301.82 33.8935 301.72 33.2735 301.59 32.2435C301.41 30.9435 300.85 30.1535 299.92 29.8435C299.51 29.7135 298.44 29.6435 296.71 29.6435H295.18V40.7035C300.18 40.7035 303.12 40.6035 303.98 40.4035C305.48 40.0735 306.33 38.6735 306.54 36.1935C306.59 35.6535 306.74 35.3735 306.99 35.3735C307.21 35.3735 307.33 35.6035 307.33 36.0735" fill="#231F20"/>
<path d="M23.1999 3.52356H15.1899V11.5336H23.1999V3.52356Z" fill="#231F20"/>
<path d="M43.33 21.7236H33.61V31.4436H43.33V21.7236Z" fill="#231F20"/>
<path d="M33.66 12.5336H24.4V21.7936H33.66V12.5336Z" fill="#231F20"/>
<path d="M33.66 31.5336H24.4V40.7936H33.66V31.5336Z" fill="#231F20"/>
<path d="M6.38 23.0135H0V29.3936H6.38V23.0135Z" fill="#231F20"/>
<path d="M13.9 13.5735H7.15002V20.3235H13.9V13.5735Z" fill="#231F20"/>
<path d="M14.27 32.1636H7.52002V38.9136H14.27V32.1636Z" fill="#231F20"/>
<path d="M23.1999 41.6636H15.1899V49.6736H23.1999V41.6636Z" fill="#231F20"/>
<path d="M335.17 80.0935C335.17 80.4135 335.04 80.5435 334.72 80.5735C330.8 77.9935 328.16 72.7335 328.16 66.7835C328.16 60.8335 330.8 55.5735 334.72 52.9935C335.04 53.0235 335.17 53.1535 335.17 53.4735C332.02 56.7835 330.27 61.0535 330.27 66.7835C330.27 72.5135 332.02 76.7835 335.17 80.0935Z" fill="#231F20"/>
<path d="M344.08 65.0836C342.55 65.0836 342.49 65.1435 342.49 66.1035V70.5935C342.49 73.9435 342.65 74.3836 344.43 74.5736L345.35 74.6735C345.54 74.8035 345.48 75.3736 345.29 75.4736C343.57 75.4136 342.49 75.3735 341.24 75.3735C339.87 75.3735 338.79 75.4336 337.55 75.4736C337.36 75.3736 337.3 74.8636 337.49 74.6735L338.03 74.5736C339.81 74.2536 339.88 73.9435 339.88 70.5935V59.1236C339.88 55.7836 339.66 55.2436 338 55.1136L337.17 55.0536C336.98 54.9236 337.04 54.3535 337.23 54.2635C338.79 54.2935 339.87 54.3535 341.24 54.3535C342.48 54.3535 343.56 54.3235 344.93 54.2635C345.12 54.3535 345.18 54.9336 344.99 55.0536L344.39 55.1136C342.54 55.3036 342.48 55.7836 342.48 59.1236V62.7836C342.48 63.7736 342.54 63.8036 344.07 63.8036H353.18C354.71 63.8036 354.77 63.7736 354.77 62.7836V59.1236C354.77 55.7836 354.71 55.3036 352.83 55.1136L352.22 55.0536C352.03 54.9236 352.09 54.3535 352.28 54.2635C353.75 54.3235 354.83 54.3535 356.13 54.3535C357.43 54.3535 358.45 54.3235 359.89 54.2635C360.08 54.3535 360.14 54.9336 359.95 55.0536L359.28 55.1136C357.43 55.3036 357.37 55.7836 357.37 59.1236V70.5935C357.37 73.9435 357.43 74.3536 359.28 74.5736L360.04 74.6735C360.23 74.8035 360.17 75.3736 359.98 75.4736C358.45 75.4136 357.37 75.3735 356.13 75.3735C354.82 75.3735 353.68 75.4036 352.28 75.4736C352.09 75.3736 352.03 74.8636 352.22 74.6735L352.83 74.5736C354.77 74.2536 354.77 73.9435 354.77 70.5935V66.1035C354.77 65.1536 354.71 65.0836 353.18 65.0836H344.07H344.08Z" fill="#231F20"/>
<path d="M373.86 66.8735C374.59 68.3735 375.29 69.8335 376.06 71.2335H376.12C376.98 69.7335 377.78 68.0835 378.57 66.4535L381.56 60.3735C382.99 57.4735 383.92 55.7235 383.98 54.2535C385.06 54.3435 385.73 54.3435 386.37 54.3435C387.16 54.3435 388.22 54.3135 389.2 54.2535C389.39 54.3835 389.39 54.9235 389.23 55.0435L388.56 55.1035C386.55 55.2935 386.3 55.9035 386.33 58.1335C386.39 61.5135 386.43 67.4035 386.68 71.9835C386.78 73.5735 386.74 74.4335 388.24 74.5635L389.26 74.6635C389.45 74.8535 389.42 75.3335 389.2 75.4635C387.89 75.4035 386.59 75.3635 385.44 75.3635C384.29 75.3635 382.89 75.3935 381.59 75.4635C381.37 75.3035 381.34 74.8535 381.53 74.6635L382.46 74.5635C384.02 74.4035 384.02 73.8935 384.02 71.8535L383.92 58.5735H383.86C383.63 58.9235 382.43 61.4735 381.79 62.7135L378.96 68.2835C377.53 71.0835 376.09 74.0835 375.52 75.5435C375.46 75.6435 375.33 75.6735 375.2 75.6735C375.14 75.6735 374.98 75.6435 374.91 75.5435C374.37 73.8535 372.84 70.7335 372.11 69.1735L369.25 63.0235C368.58 61.5535 367.91 59.9035 367.21 58.4335H367.15C367.02 60.4035 366.93 62.2535 366.83 64.1035C366.73 66.0435 366.61 68.8835 366.61 71.5835C366.61 73.9435 366.8 74.4535 368.04 74.5435L369.25 74.6435C369.47 74.8335 369.44 75.3435 369.22 75.4435C368.14 75.3835 366.89 75.3435 365.68 75.3435C364.66 75.3435 363.51 75.3735 362.43 75.4435C362.24 75.2835 362.18 74.8035 362.37 74.6435L363.07 74.5435C364.41 74.3535 364.85 74.1635 365.04 71.9335C365.23 69.8335 365.39 68.0835 365.58 64.9235C365.74 62.2835 365.87 59.5735 365.93 57.8235C365.99 55.8135 365.74 55.3335 363.8 55.0835L363.29 55.0235C363.13 54.8335 363.16 54.3535 363.42 54.2335C364.38 54.2935 365.14 54.3235 365.94 54.3235C366.67 54.3235 367.53 54.3235 368.58 54.2335C368.45 55.4735 369.25 57.4535 370.24 59.4835L373.87 66.8435L373.86 66.8735Z" fill="#231F20"/>
<path d="M411.19 65.7535C411.19 60.4935 408.87 54.8235 402.78 54.8235C399.47 54.8235 395.17 57.0835 395.17 64.0635C395.17 68.7735 397.46 74.8935 403.74 74.8935C407.56 74.8935 411.19 72.0235 411.19 65.7535ZM391.98 65.0835C391.98 58.7135 396.76 53.8435 403.32 53.8435C410.68 53.8435 414.37 59.1635 414.37 64.7635C414.37 71.1935 409.47 75.8835 403.32 75.8835C396.25 75.8835 391.98 70.8135 391.98 65.0835Z" fill="#231F20"/>
<path d="M416.47 53.4635C416.47 53.1435 416.6 53.0135 416.92 52.9835C420.84 55.5635 423.48 60.8235 423.48 66.7735C423.48 72.7235 420.84 77.9835 416.92 80.5635C416.6 80.5335 416.47 80.4035 416.47 80.0835C419.62 76.7735 421.37 72.5035 421.37 66.7735C421.37 61.0435 419.62 56.7735 416.47 53.4635Z" fill="#231F20"/>
</svg>
