<svg width="398" height="73" viewBox="0 0 398 73" fill="none" xmlns="http://www.w3.org/2000/svg">
<g clip-path="url(#clip0_406_38675)">
<path d="M23.1671 0.525146H15.1654V8.52056H23.1671V0.525146Z" fill="#006489"/>
<path d="M23.1735 38.6121H15.1718V46.6075H23.1735V38.6121Z" fill="#006489"/>
<path d="M43.2723 18.696H33.5631V28.4052H43.2723V18.696Z" fill="#006489"/>
<path d="M33.6135 9.52246H24.3643V18.7717H33.6135V9.52246Z" fill="#006489"/>
<path d="M33.6072 28.4996H24.3643V37.7426H33.6072V28.4996Z" fill="#006489"/>
<path d="M6.36986 19.9939H0V26.3638H6.36986V19.9939Z" fill="#006489"/>
<path d="M13.8801 10.5682H7.13855V17.3098H13.8801V10.5682Z" fill="#006489"/>
<path d="M14.2519 29.1296H7.51025V35.8712H14.2519V29.1296Z" fill="#006489"/>
<path d="M55.1866 7.83374V8.69692C54.021 8.70952 53.2271 8.78512 52.805 8.92374C52.0678 9.16316 51.6898 9.6546 51.6898 10.3981C51.6898 10.7824 51.8221 11.3053 52.0741 11.9858C52.3451 12.6663 52.8491 13.8067 53.5737 15.407L60.8319 31.5742L67.4286 14.0713C67.7121 13.3026 67.9327 12.6474 68.0839 12.1244C68.2351 11.5952 68.3107 11.1667 68.317 10.8328C68.317 9.93813 67.9263 9.33327 67.1577 9.01824C66.704 8.83553 65.9543 8.73472 64.9147 8.70322V7.84004H74.4159V8.63391C73.433 8.76622 72.7085 9.03085 72.2359 9.42778C71.524 10.02 70.8246 11.2045 70.1315 12.9876L59.8616 39.1034H59.1623L47.7142 13.5798C46.7439 11.4188 45.9689 10.0704 45.3766 9.54119C44.8033 9.01194 43.9527 8.70952 42.8375 8.63391V7.84004H55.1929L55.1866 7.83374Z" fill="#006489"/>
<path d="M69.6779 37.9253C71.0955 37.8245 72.0154 37.6166 72.4312 37.2952C72.847 36.9676 73.0613 36.1296 73.0613 34.7813V19.2945C73.0613 18.0092 72.847 17.1902 72.4312 16.8247C72.0154 16.453 71.0955 16.2325 69.6779 16.1632V15.5205H79.9793V16.1632C78.5616 16.2325 77.6481 16.453 77.2259 16.8247C76.8101 17.1902 76.5959 18.0092 76.5959 19.2945V34.7813C76.5959 36.1296 76.8038 36.9676 77.2259 37.2952C77.6481 37.6166 78.5679 37.8245 79.9793 37.9253V38.5554H69.6779V37.9253Z" fill="#006489"/>
<path d="M89.1466 15.5142V16.1631C88.2708 16.1757 87.6786 16.2262 87.3636 16.3333C86.8091 16.516 86.5319 16.8814 86.5319 17.4422C86.5319 17.7257 86.6264 18.1163 86.8154 18.633C87.0233 19.1433 87.3951 20.0002 87.9369 21.1973L93.3743 33.3196L98.3202 20.1955C98.5345 19.6159 98.6983 19.1307 98.8117 18.7338C98.9251 18.3368 98.9818 18.0155 98.9818 17.7635C98.9818 17.0893 98.692 16.642 98.1123 16.4026C97.7721 16.264 97.2113 16.1883 96.4301 16.1631V15.5142H103.556V16.1064C102.819 16.2072 102.271 16.4089 101.924 16.6987C101.395 17.1397 100.866 18.0281 100.343 19.3638L92.6434 38.9523H92.1142L83.5265 19.8049C82.802 18.1793 82.216 17.1775 81.775 16.7743C81.3465 16.3774 80.7102 16.1505 79.8722 16.0938V15.5016H89.1403L89.1466 15.5142Z" fill="#006489"/>
<path d="M112.73 29.6085L108.697 20.019L104.722 29.6085H112.73ZM97.6964 38.5553V37.9315C98.5911 37.8307 99.259 37.4905 99.7 36.9108C100.154 36.3375 100.922 34.7623 102.012 32.2043L109.271 15.1172H109.951L118.621 34.8568C119.194 36.1737 119.654 36.9864 119.994 37.3015C120.347 37.6102 120.927 37.8181 121.746 37.9315V38.5553H112.887V37.9315C113.908 37.837 114.569 37.7299 114.859 37.6039C115.149 37.4716 115.3 37.1439 115.3 36.6336C115.3 36.4635 115.243 36.1674 115.13 35.7326C115.017 35.3042 114.859 34.8505 114.651 34.378L113.208 31.0261H104.098C103.191 33.3006 102.649 34.6993 102.466 35.2097C102.296 35.7074 102.208 36.1043 102.208 36.4005C102.208 36.9927 102.447 37.4023 102.926 37.6291C103.216 37.7614 103.776 37.8685 104.589 37.9378V38.5616H97.6838L97.6964 38.5553Z" fill="#006489"/>
<path d="M168.118 37.7993C168.118 38.0891 167.803 38.234 167.166 38.234H166.675C166.253 38.234 165.484 38.2151 164.369 38.1899C163.254 38.1647 162.397 38.1458 161.792 38.1458C160.891 38.1458 159.839 38.1647 158.635 38.1899H155.882C155.246 38.1899 154.931 38.0576 154.931 37.7993C154.931 37.5094 155.372 37.3645 156.241 37.3645C157.779 37.3645 158.711 37.207 159.039 36.8857C159.19 36.7408 159.265 35.7705 159.265 33.9622V11.381C159.265 11.381 159.102 11.9166 158.774 12.9057C157.571 16.4215 155.825 21.7076 153.532 28.7706L151.409 35.7012C150.987 37.0684 150.684 37.7488 150.501 37.7488C150.287 37.7488 150.06 37.4023 149.827 36.703C148.951 34.0567 146.482 27.46 142.418 16.9129L140.609 12.2505C140.641 12.7986 140.66 13.5547 140.66 14.5187V28.6823C140.66 34 140.704 36.6904 140.792 36.7471C141 37.1251 141.725 37.3141 142.96 37.3141C143.949 37.3141 144.453 37.4464 144.453 37.7047C144.453 37.9946 144.138 38.1395 143.501 38.1395C143.111 38.1395 142.752 38.1269 142.418 38.0954C141.996 38.0702 141.618 38.0513 141.29 38.0513L136.098 38.1836C135.556 38.1836 135.286 38.0513 135.286 37.793C135.286 37.5031 136.142 37.3393 137.862 37.3141C138.587 37.3141 139.003 37.2007 139.129 36.9676C139.255 36.7345 139.312 35.9784 139.312 34.6994V13.8256C139.312 11.4125 139.28 10.1083 139.223 9.90038C139.104 9.49084 138.845 9.21992 138.455 9.07501C138.064 8.93009 137.22 8.81668 135.922 8.72848C135.443 8.70327 135.204 8.57096 135.204 8.33784C135.204 8.02281 135.638 7.859 136.514 7.859C136.634 7.859 136.892 7.8716 137.283 7.9031H139.633C141.41 7.9031 142.657 7.8842 143.382 7.859C143.533 8.23703 144.421 10.5178 146.047 14.7014C146.74 16.4467 148.681 21.5312 151.869 29.9551C152.442 28.0649 153.028 26.2062 153.626 24.3728L158.415 9.94448C158.686 9.10021 158.925 8.40085 159.133 7.8527L165.913 7.80859C166.908 7.80859 167.475 7.8527 167.626 7.94091C167.777 8.02911 167.853 8.15512 167.853 8.33154C167.853 8.62137 167.595 8.76628 167.084 8.76628C166.24 8.76628 165.667 8.79778 165.371 8.85449C164.646 8.9742 164.155 9.20732 163.884 9.55385C163.726 9.75547 163.657 11.4566 163.657 14.651V34.9199C163.657 36.0792 163.777 36.7597 164.016 36.9676C164.407 37.2259 165.39 37.3582 166.952 37.3582H167.223C167.822 37.3582 168.13 37.5031 168.13 37.793" fill="#006489"/>
<path d="M187.517 32.8471C187.517 32.9353 187.492 33.4708 187.454 34.4537C187.404 35.4366 187.385 36.3691 187.385 37.2638V38.3411C185.173 38.234 180.788 38.1836 174.242 38.1836C173.448 38.1836 172.673 38.1899 171.904 38.2151H170.008C169.58 38.2151 169.365 38.1143 169.365 37.9253C169.365 37.793 169.435 37.7174 169.567 37.6922C169.636 37.6922 170.065 37.6607 170.859 37.5914C171.445 37.5473 171.791 37.4276 171.911 37.2322C172.043 37.0369 172.112 36.5266 172.112 35.6949V17.3225C172.112 16.6924 172.012 16.3207 171.804 16.2073C171.627 16.075 171.016 16.012 169.977 16.012C169.611 16.012 169.435 15.9112 169.435 15.7158C169.435 15.5205 169.68 15.426 170.178 15.426L175.975 15.4575C176.183 15.4575 177.455 15.4512 179.805 15.426H184.55C185.224 15.426 185.848 15.3819 186.415 15.2937C186.459 16.2325 186.56 17.5241 186.717 19.1874L186.856 20.5925C186.881 20.6996 186.887 20.8445 186.887 21.0209C186.887 21.2351 186.786 21.3422 186.578 21.3422C186.333 21.3422 186.15 21.0713 186.037 20.5295C185.608 18.5637 184.909 17.3225 183.939 16.8058C183.214 16.4152 181.318 16.2136 178.249 16.2136H175.471V25.7904H176.283C178.81 25.7904 180.347 25.6077 180.889 25.236C181.456 24.8643 181.84 23.7869 182.042 21.9975C182.086 21.5376 182.212 21.3107 182.414 21.3107C182.666 21.3107 182.792 21.5061 182.792 21.903C182.792 22.2999 182.767 22.8733 182.723 23.6356C182.678 24.398 182.653 24.9714 182.653 25.3683C182.653 27.6995 182.697 29.2998 182.792 30.1756C182.817 30.3898 182.823 30.5789 182.823 30.7301C182.823 31.0136 182.697 31.1585 182.452 31.1585C182.294 31.1585 182.181 31.0703 182.111 30.8939C182.067 30.6986 181.979 30.0937 181.84 29.0667C181.658 27.7814 181.11 26.9875 180.183 26.6788C179.774 26.5465 178.715 26.4835 177.002 26.4835H175.477V37.4717C180.448 37.4717 183.359 37.3709 184.216 37.1755C185.709 36.8479 186.553 35.4555 186.755 32.992C186.799 32.4501 186.944 32.1729 187.196 32.1729C187.423 32.1729 187.536 32.406 187.536 32.8597" fill="#006489"/>
<path d="M211.025 26.8363C211.025 30.6734 209.632 33.6598 206.86 35.7894C204.831 37.3583 202.109 38.1458 198.701 38.1458C198.613 38.1458 198.203 38.1395 197.478 38.1143C196.779 38.0891 195.752 38.0765 194.397 38.0765H192.709L190.031 38.1143C189.874 38.1395 189.704 38.1458 189.527 38.1458C189.099 38.1458 188.878 38.0387 188.878 37.8182C188.878 37.6229 189.244 37.5221 189.962 37.5221C190.888 37.5221 191.461 37.3583 191.688 37.0306C191.776 36.8794 191.827 36.4636 191.827 35.7894V18.1668C191.827 17.102 191.732 16.4782 191.556 16.3018C191.398 16.1254 190.825 16.0435 189.823 16.0435C189.307 16.0435 189.048 15.9238 189.048 15.6843C189.048 15.5079 189.244 15.426 189.622 15.426C189.596 15.426 189.848 15.4386 190.365 15.4575C190.882 15.4764 191.392 15.489 191.89 15.489H195.513C199.577 15.489 202.456 15.76 204.151 16.3081C206.205 16.9634 207.862 18.2613 209.128 20.1955C210.395 22.1109 211.025 24.3287 211.025 26.8363ZM207.232 26.704C207.232 23.0875 206.501 20.4413 205.033 18.759C203.565 17.0579 201.271 16.2073 198.159 16.2073C196.647 16.2073 195.727 16.3585 195.418 16.6672C195.28 16.8248 195.21 17.3414 195.21 18.2361V35.6256C195.21 36.2368 195.223 36.6085 195.242 36.7345C195.286 36.8668 195.393 36.9739 195.55 37.0684C196.092 37.3268 197.233 37.4591 198.972 37.4591C201.41 37.4591 203.376 36.6337 204.869 34.9767C206.45 33.2314 207.238 30.4718 207.238 26.704" fill="#006489"/>
<path d="M222.202 37.8874C222.202 38.0639 222.069 38.1458 221.798 38.1458H221.458C221.326 38.0828 219.789 38.0513 216.853 38.0513C216.292 38.0513 215.725 38.0765 215.158 38.1143C214.868 38.1395 214.414 38.1458 213.803 38.1458C213.513 38.1458 213.362 38.0513 213.362 37.8559C213.362 37.6795 213.658 37.5787 214.244 37.5598C215.151 37.5346 215.674 37.4401 215.838 37.2637C215.996 37.0684 216.071 36.4383 216.071 35.3672V18.173C216.071 17.1082 216.015 16.5096 215.901 16.3773C215.769 16.1568 215.145 16.0308 214.036 15.9867C213.608 15.9615 213.387 15.8796 213.387 15.7284C213.387 15.5331 213.526 15.4323 213.797 15.4323L218.371 15.4953C218.705 15.4953 219.36 15.489 220.337 15.4638L221.622 15.4323C221.981 15.4323 222.164 15.5331 222.164 15.7284C222.164 15.9048 221.666 16.0119 220.671 16.056C220.104 16.0812 219.757 16.1757 219.619 16.3521C219.511 16.5285 219.455 16.9822 219.455 17.7257V35.1845C219.455 36.4257 219.511 37.0999 219.619 37.2133C219.871 37.4527 220.601 37.5976 221.824 37.6417C222.069 37.6417 222.195 37.7236 222.195 37.9" fill="#006489"/>
<path d="M243.68 30.856C243.68 30.8119 243.662 31.1081 243.617 31.7381C243.523 33.0045 243.479 34.2205 243.479 35.3987C243.479 35.5311 243.504 35.802 243.548 36.2178C243.592 36.6084 243.617 37.0873 243.617 37.6543V37.9505C243.617 38.234 243.523 38.3726 243.347 38.3726C243.17 38.3726 243.006 38.2088 242.874 37.8812C242.559 37.1566 242.244 36.6904 241.923 36.4761C240.297 37.8497 238.344 38.5364 236.063 38.5364C232.743 38.5364 229.989 37.4212 227.797 35.1971C225.629 32.9541 224.546 30.1315 224.546 26.7292C224.546 23.3269 225.541 20.5168 227.526 18.362C229.536 16.182 232.119 15.092 235.288 15.092C236.435 15.092 237.355 15.1928 238.029 15.3882C238.728 15.5646 239.585 15.93 240.606 16.4971C241.097 16.7806 241.475 16.9255 241.721 16.9255C241.929 16.9255 242.118 16.7491 242.301 16.4026C242.59 15.7914 242.83 15.489 243.013 15.489C243.195 15.489 243.284 15.5772 243.284 15.7536C243.284 15.8418 243.265 15.9804 243.214 16.1757C242.968 17.2216 242.842 19.1811 242.842 22.0605C242.842 22.4763 242.811 22.7157 242.742 22.7787C242.672 22.848 242.584 22.8795 242.471 22.8795C242.244 22.8795 242.099 22.6716 242.03 22.2558C241.734 20.5105 241.318 19.2126 240.776 18.3683C239.673 16.6231 237.928 15.7536 235.559 15.7536C233.732 15.7536 232.289 16.3396 231.224 17.5178C229.309 19.6347 228.351 22.7283 228.351 26.8048C228.351 30.4465 229.139 33.2692 230.72 35.2727C232.1 37.018 233.927 37.8875 236.208 37.8875C237.386 37.8875 238.457 37.6102 239.428 37.0684C240.398 36.5013 241.141 35.739 241.664 34.7813C242.25 33.6661 242.666 32.4564 242.912 31.1522C243.006 30.6292 243.151 30.3709 243.353 30.3709C243.58 30.3709 243.687 30.5284 243.687 30.8623" fill="#006489"/>
<path d="M268.139 37.919C268.139 38.1144 267.969 38.2089 267.629 38.2089C267.402 38.2089 267.2 38.1963 267.018 38.1774L262.721 38.1144L258.417 38.1774C258.26 38.1963 258.09 38.2089 257.913 38.2089C257.46 38.2089 257.239 38.1018 257.239 37.8812C257.239 37.6418 257.542 37.5221 258.153 37.5221C260.144 37.5032 261.133 37.3079 261.133 36.9299C261.133 36.9046 261.108 36.8227 261.064 36.6715L260.793 35.7895L260.623 35.3295C260.415 34.6554 259.923 33.1621 259.129 30.8561H251.884C250.529 34.3403 249.849 36.3439 249.849 36.8731C249.849 37.1756 249.981 37.3646 250.258 37.4276C250.328 37.4528 250.888 37.4969 251.953 37.5599C252.608 37.5788 252.936 37.6922 252.936 37.8875C252.936 38.1018 252.64 38.2152 252.054 38.2152C251.014 38.2152 249.805 38.1711 248.431 38.0829C248.091 38.064 247.738 38.0514 247.379 38.0514C247.02 38.0514 246.667 38.0766 246.327 38.1207C246.144 38.1396 245.999 38.1522 245.886 38.1522C245.571 38.1522 245.413 38.0513 245.413 37.8623C245.413 37.6733 245.766 37.5536 246.459 37.5347C247.184 37.5158 247.7 37.415 248.015 37.2386C248.33 37.0433 248.582 36.6841 248.765 36.1612C251.676 28.1406 254.045 21.7014 255.878 16.8374C255.922 16.579 256.011 16.2829 256.149 15.9553L256.319 15.363C256.382 15.1236 256.477 15.0039 256.59 15.0039C256.66 15.0039 256.716 15.0669 256.754 15.1992C257.05 16.0498 257.712 17.8266 258.751 20.5295C259.564 22.6465 261.587 27.9516 264.819 36.451C265.002 36.9299 265.222 37.2323 265.493 37.3646C265.783 37.4969 266.375 37.5725 267.251 37.5914C267.837 37.6166 268.133 37.7237 268.133 37.919M258.928 30.1063C258.562 29.1235 257.964 27.4979 257.132 25.236L255.507 20.7563C254.555 23.1568 253.415 26.2693 252.085 30.1063H258.928Z" fill="#006489"/>
<path d="M286.732 37.1628C286.732 38.0764 285.945 38.5363 284.363 38.5363C282.605 38.5363 281.225 37.8307 280.23 36.413C279.801 35.8019 279.518 35.2159 279.379 34.6489C279.266 34.0818 279.083 32.6453 278.837 30.333C278.699 28.9343 278.239 27.9577 277.451 27.3906C276.657 26.8047 275.372 26.4834 273.589 26.4456V36.7407C273.589 37.1817 273.955 37.4526 274.673 37.5597C274.881 37.5786 275.397 37.6038 276.229 37.6227C276.525 37.6227 276.67 37.711 276.67 37.8811C276.67 38.0764 276.475 38.1772 276.097 38.1772H275.687C275.486 38.152 274.503 38.1457 272.739 38.1457C272.398 38.1457 271.825 38.1583 271.006 38.1772H268.133C267.635 38.1772 267.383 38.0764 267.383 37.8811C267.383 37.7299 267.711 37.6416 268.366 37.6227C269.424 37.5975 270.004 37.4652 270.092 37.2321C270.187 37.125 270.231 36.7029 270.231 35.9594V17.9146C270.231 17.0388 270.13 16.5222 269.929 16.3458C269.746 16.1693 269.172 16.0748 268.196 16.0559C267.629 16.0559 267.352 15.9614 267.352 15.7661C267.352 15.5456 267.534 15.4385 267.893 15.4385C267.963 15.4385 268.064 15.4448 268.196 15.47L272.701 15.5645C273.154 15.5645 273.784 15.5582 274.597 15.533C275.504 15.4889 276.135 15.47 276.494 15.47C278.592 15.47 280.249 15.9236 281.471 16.8435C282.712 17.7382 283.336 18.9605 283.336 20.5041C283.336 22.0478 282.706 23.2953 281.44 24.2971C280.173 25.2799 278.459 25.8533 276.292 26.0297C276.09 26.0549 275.977 26.0864 275.952 26.1305C275.952 26.2187 276.065 26.2628 276.292 26.2628C278.661 26.6535 280.293 27.4599 281.169 28.6823C282.076 29.8794 282.675 32.0594 282.964 35.2222C283.147 37.0116 283.777 37.9063 284.855 37.9063C285.195 37.9063 285.365 37.8433 285.365 37.711C285.365 37.6857 285.359 37.6668 285.333 37.6416C285.22 37.4022 285.163 37.2069 285.163 37.0494C285.163 36.5958 285.409 36.3626 285.907 36.3626C286.449 36.3626 286.719 36.6336 286.719 37.1817M279.72 20.7877C279.72 17.6689 278.321 16.1126 275.523 16.1126C274.774 16.1126 274.27 16.2134 273.999 16.4088C273.728 16.6041 273.595 16.9506 273.595 17.4547V25.7588C275.763 25.784 277.319 25.3997 278.27 24.6184C279.241 23.8371 279.726 22.5581 279.726 20.794" fill="#006489"/>
<path d="M305.571 32.8471C305.571 32.9353 305.546 33.4708 305.501 34.4537C305.451 35.4366 305.432 36.3691 305.432 37.2638V38.3411C303.214 38.234 298.836 38.1836 292.289 38.1836C291.495 38.1836 290.72 38.1899 289.952 38.2151H288.055C287.627 38.2151 287.413 38.1143 287.413 37.9253C287.413 37.793 287.476 37.7174 287.621 37.6922C287.69 37.6922 288.112 37.6607 288.906 37.5914C289.492 37.5473 289.838 37.4276 289.958 37.2322C290.09 37.0369 290.16 36.5266 290.16 35.6949V17.3225C290.16 16.6924 290.059 16.3207 289.851 16.2073C289.668 16.075 289.057 16.012 288.024 16.012C287.658 16.012 287.482 15.9112 287.482 15.7158C287.482 15.5205 287.734 15.426 288.232 15.426L294.028 15.4575C294.23 15.4575 295.509 15.4512 297.859 15.426H302.603C303.277 15.426 303.901 15.3819 304.468 15.2937C304.512 16.2325 304.619 17.5241 304.777 19.1874L304.909 20.5925C304.934 20.6996 304.941 20.8445 304.941 21.0209C304.941 21.2351 304.84 21.3422 304.632 21.3422C304.386 21.3422 304.204 21.0713 304.09 20.5295C303.662 18.5637 302.962 17.3225 301.992 16.8058C301.268 16.4152 299.371 16.2136 296.303 16.2136H293.524V25.7904H294.337C296.863 25.7904 298.401 25.6077 298.943 25.236C299.51 24.8643 299.894 23.7869 300.096 21.9975C300.14 21.5376 300.266 21.3107 300.467 21.3107C300.719 21.3107 300.839 21.5061 300.839 21.903C300.839 22.2999 300.82 22.8733 300.77 23.6356C300.726 24.398 300.7 24.9714 300.7 25.3683C300.7 27.6995 300.745 29.2998 300.833 30.1756C300.858 30.3898 300.864 30.5789 300.864 30.7301C300.864 31.0136 300.738 31.1585 300.493 31.1585C300.335 31.1585 300.222 31.0703 300.152 30.8939C300.108 30.6986 300.02 30.0937 299.881 29.0667C299.699 27.7814 299.144 26.9875 298.218 26.6788C297.815 26.5465 296.75 26.4835 295.036 26.4835H293.512V37.4717C298.483 37.4717 301.394 37.3709 302.25 37.1755C303.744 36.8479 304.588 35.4555 304.79 32.992C304.834 32.4501 304.985 32.1729 305.231 32.1729C305.451 32.1729 305.565 32.406 305.565 32.8597" fill="#006489"/>
<path d="M330.067 11.0282C330.244 11.0282 330.382 11.1605 330.382 11.3432C330.382 11.4755 330.338 11.6078 330.294 11.7906C330.023 12.8112 329.715 14.9534 329.494 17.0389C329.494 17.3539 329.4 17.4422 329.091 17.4422C328.587 17.4422 328.335 16.9969 328.335 16.1064C328.335 14.5061 327.976 13.5673 327.087 12.994C326.111 12.3702 324.51 11.9733 323.036 11.9733C320.32 11.9733 318.185 14.1092 318.185 16.8688C318.185 18.9165 319.249 20.3404 323.389 23.938C327.39 27.4096 328.461 29.01 328.461 31.7696C328.461 36.3501 324.592 39.5571 319.073 39.5571C317.025 39.5571 315.601 39.3807 312.886 38.7569C312.621 38.7128 312.357 38.6687 312.174 38.6687C312.086 38.6687 311.909 38.6687 311.777 38.7128H311.556C311.33 38.7128 311.241 38.5364 311.241 38.2655C311.241 37.2007 311.512 34.0819 311.777 32.4375C311.997 31.1018 311.997 31.0136 312.489 31.0136C313.018 31.0136 313.201 31.1459 313.201 31.5428L313.157 33.1431C313.157 34.6112 313.692 35.8146 314.625 36.5265C315.734 37.3708 317.605 37.9946 319.161 37.9946C322.412 37.9946 324.989 35.5941 324.989 32.6139C324.989 30.3898 324.321 29.5014 319.205 25.0091C315.916 22.1172 314.889 20.4664 314.889 17.9777C314.889 15.93 315.91 13.7941 317.561 12.4584C319.249 11.0786 321.209 10.4548 323.88 10.4548C325.26 10.4548 325.707 10.4989 328.417 10.9904C328.732 11.0345 328.996 11.0786 329.261 11.0786C329.437 11.0786 329.62 11.0786 329.885 11.0345H330.061L330.067 11.0282Z" fill="#006489"/>
<path d="M339.991 27.1828C341.37 26.2503 342.303 24.6437 342.303 23.2198C342.303 22.0163 341.415 21.1721 340.123 21.1721C337.54 21.1721 335.36 24.1081 334.295 28.9596C336.966 28.6508 338.567 28.1594 339.991 27.1828ZM343.147 33.7228L343.418 34.0819C343.462 34.126 343.506 34.2583 343.506 34.3024C343.506 34.523 342.839 35.3672 342.038 36.1737C339.77 38.4419 337.502 39.5508 335.278 39.5508C332.342 39.5508 330.609 37.3708 330.609 33.6346C330.609 26.3385 335.416 19.8427 340.885 19.8427C343.506 19.8427 345.289 21.3107 345.289 23.4025C345.289 25.803 343.198 27.9893 339.953 28.9659C338.214 29.5014 337.326 29.6337 334.119 29.7723C333.854 30.9757 333.81 31.505 333.81 32.3934C333.81 35.2853 334.963 36.8857 337.143 36.8857C339.102 36.8857 341.1 35.8209 343.015 33.7291H343.147V33.7228Z" fill="#006489"/>
<path d="M353.827 32.8721V33.4959C353.827 33.8991 353.739 34.0314 352.579 35.2285C349.731 38.2528 347.911 39.5444 346.569 39.5444C345.68 39.5444 345.056 38.8325 345.056 37.8055C345.056 37.0053 345.233 36.0728 345.812 33.8928C346.039 32.9603 347.104 28.6445 347.955 25.2611C348.396 23.3898 348.887 21.5248 349.379 19.6536C350.67 14.4493 351.206 12.0488 351.206 11.11C351.206 10.1712 350.758 9.9066 348.711 9.55377C348.534 9.50967 348.49 9.46556 348.49 9.33325C348.49 8.88591 348.623 8.7095 349.07 8.66539L350.223 8.44487C353.203 7.91563 354.274 7.73291 355.03 7.73291C355.295 7.73291 355.433 7.82112 355.433 8.04164C355.433 8.17395 355.389 8.31256 355.345 8.48898C354.501 11.1163 348.358 34.9639 348.358 35.6759C348.358 35.9846 348.49 36.1232 348.761 36.1232C349.561 36.1232 351.609 34.7434 353.568 32.8721H353.833H353.827Z" fill="#006489"/>
<path d="M364.5 27.1828C365.88 26.2503 366.812 24.6437 366.812 23.2198C366.812 22.0163 365.924 21.1721 364.632 21.1721C362.049 21.1721 359.875 24.1081 358.804 28.9596C361.476 28.6508 363.076 28.1594 364.5 27.1828ZM367.663 33.7228L367.927 34.0819C367.972 34.126 368.016 34.2583 368.016 34.3024C368.016 34.523 367.348 35.3672 366.548 36.1737C364.279 38.4419 362.005 39.5508 359.781 39.5508C356.845 39.5508 355.112 37.3708 355.112 33.6346C355.112 26.3385 359.919 19.8427 365.388 19.8427C368.016 19.8427 369.792 21.3107 369.792 23.4025C369.792 25.803 367.701 27.9893 364.449 28.9659C362.717 29.5014 361.828 29.6337 358.621 29.7723C358.357 30.9757 358.306 31.505 358.306 32.3934C358.306 35.2853 359.466 36.8857 361.646 36.8857C363.605 36.8857 365.609 35.8209 367.518 33.7291H367.65L367.663 33.7228Z" fill="#006489"/>
<path d="M381.322 32.9667L381.726 33.3699C381.814 33.4581 381.902 33.6345 381.902 33.7291C381.902 33.9055 381.366 34.838 380.699 35.6885C378.79 38.2655 376.742 39.5571 374.65 39.5571C371.714 39.5571 369.755 37.1125 369.755 33.4203C369.755 29.7282 371.317 25.8156 373.762 23.0559C375.671 20.92 377.813 19.8552 380.213 19.8552C382.614 19.8552 384.485 20.7877 384.485 22.1234C384.485 23.1063 383.906 23.7742 383.061 23.7742C382.305 23.7742 381.776 23.4591 380.44 22.1738C379.772 21.5942 379.375 21.3737 378.928 21.3737C377.548 21.3737 376.036 22.7976 374.877 25.0658C373.724 27.4663 372.924 30.4024 372.924 32.45C372.924 35.1656 374.171 36.8541 376.124 36.8541C377.819 36.8541 379.728 35.3861 381.24 33.0297L381.329 32.9856L381.322 32.9667Z" fill="#006489"/>
<path d="M394.894 32.784V33.496C394.894 33.8551 394.894 33.8929 394.673 34.1198C394.453 34.2521 394.27 34.4348 394.144 34.6112C390.761 37.7237 388.051 39.5067 386.577 39.5067C385.733 39.5067 385.286 38.883 385.286 37.6355C385.286 35.8965 385.859 33.0991 387.686 26.2504L388.663 22.5582H385.947C385.815 22.5582 385.72 22.5141 385.72 22.3818C385.72 22.3377 385.72 22.2495 385.764 22.1613L385.897 21.5439C385.955 21.3044 386.134 21.1847 386.432 21.1847L389.148 20.8319L390.301 16.8247C390.528 15.9364 390.616 15.8481 391.189 15.7158C391.769 15.6276 392.657 15.489 393.016 15.489C393.42 15.489 393.596 15.6654 393.596 15.9805C393.596 16.0687 393.567 16.2325 393.508 16.4719L392.26 20.7437H397.647C397.956 20.7437 398 20.7878 398 20.876V21.0524L397.735 22.3881C397.691 22.5645 397.471 22.7032 397.338 22.6086H391.731L390.666 26.2567C388.486 33.9938 388.266 34.838 388.266 35.8209C388.266 36.0855 388.398 36.2242 388.625 36.2242C389.425 36.2242 391.517 35.0207 394.629 32.7966H394.894V32.784Z" fill="#006489"/>
<path d="M317.038 72.3451C317.038 72.6286 316.924 72.7421 316.641 72.7736C313.144 70.4739 310.788 65.7799 310.788 60.4686C310.788 55.1572 313.144 50.4633 316.641 48.1636C316.924 48.1888 317.038 48.3085 317.038 48.592C314.221 51.547 312.659 55.3588 312.659 60.4686C312.659 65.5783 314.221 69.3902 317.038 72.3451Z" fill="#006489"/>
<path d="M326.388 60.0718C325.027 60.0718 324.964 60.1285 324.964 60.9791V64.9862C324.964 67.9727 325.109 68.3696 326.697 68.5397L327.522 68.628C327.692 68.7414 327.635 69.2517 327.465 69.3399C325.928 69.2832 324.964 69.2517 323.855 69.2517C322.633 69.2517 321.669 69.3084 320.56 69.3399C320.39 69.2517 320.333 68.7981 320.503 68.628L320.988 68.5397C322.582 68.2562 322.639 67.9727 322.639 64.9862V54.7541C322.639 51.7677 322.437 51.2888 320.963 51.1754L320.226 51.1187C320.056 51.0053 320.112 50.4949 320.283 50.4067C321.675 50.4319 322.639 50.4949 323.868 50.4949C324.977 50.4949 325.94 50.4697 327.163 50.4067C327.333 50.4949 327.39 51.0053 327.219 51.1187L326.678 51.1754C325.027 51.3455 324.97 51.774 324.97 54.7541V58.0241C324.97 58.9062 325.027 58.9314 326.394 58.9314H334.522C335.889 58.9314 335.946 58.9062 335.946 58.0241V54.7541C335.946 51.7677 335.889 51.3455 334.213 51.1754L333.671 51.1187C333.501 51.0053 333.558 50.4949 333.728 50.4067C335.032 50.4634 336.002 50.4949 337.168 50.4949C338.334 50.4949 339.241 50.4697 340.52 50.4067C340.69 50.4949 340.747 51.0053 340.577 51.1187L339.978 51.1754C338.327 51.3455 338.271 51.774 338.271 54.7541V64.9862C338.271 67.9727 338.327 68.3381 339.978 68.5397L340.659 68.628C340.829 68.7414 340.772 69.2517 340.602 69.3399C339.235 69.2832 338.271 69.2517 337.162 69.2517C335.996 69.2517 334.975 69.2769 333.722 69.3399C333.552 69.2517 333.495 68.7981 333.665 68.628L334.207 68.5397C335.939 68.2562 335.939 67.9727 335.939 64.9862V60.9791C335.939 60.1285 335.883 60.0718 334.516 60.0718H326.388Z" fill="#006489"/>
<path d="M352.964 61.6595C353.619 62.9952 354.243 64.3057 354.923 65.5532H354.98C355.748 64.2175 356.46 62.7432 357.166 61.2941L359.838 55.863C361.117 53.2797 361.942 51.7172 361.999 50.4067C362.963 50.4949 363.561 50.4949 364.128 50.4949C364.84 50.4949 365.779 50.4697 366.661 50.4067C366.831 50.5201 366.831 51.0052 366.686 51.1187L366.088 51.1754C364.298 51.3455 364.072 51.8873 364.097 53.8783C364.153 56.89 364.179 62.1446 364.412 66.24C364.494 67.6639 364.468 68.4263 365.804 68.5397L366.711 68.6279C366.882 68.798 366.856 69.2265 366.655 69.3399C365.489 69.2832 364.324 69.2517 363.303 69.2517C362.282 69.2517 361.028 69.2769 359.863 69.3399C359.661 69.195 359.636 68.798 359.806 68.6279L360.631 68.5397C362.024 68.3948 362.024 67.9411 362.024 66.1266L361.942 54.2752H361.885C361.684 54.5903 360.606 56.8585 360.039 57.9737L357.513 62.9448C356.234 65.4461 354.955 68.1176 354.444 69.4218C354.388 69.51 354.274 69.5352 354.161 69.5352C354.104 69.5352 353.959 69.51 353.902 69.4218C353.417 67.9159 352.056 65.1311 351.401 63.7387L348.843 58.2509C348.244 56.9467 347.646 55.466 347.022 54.1555H346.965C346.852 55.9197 346.764 57.5641 346.682 59.2149C346.594 60.9475 346.48 63.4803 346.48 65.8935C346.48 67.9979 346.65 68.4515 347.759 68.5334L348.837 68.6216C349.038 68.7917 349.007 69.2454 348.812 69.3336C347.848 69.2769 346.739 69.2454 345.655 69.2454C344.748 69.2454 343.721 69.2706 342.757 69.3336C342.587 69.1887 342.53 68.7665 342.7 68.6216L343.324 68.5334C344.521 68.3633 344.918 68.1932 345.088 66.2022C345.258 64.3246 345.403 62.7621 345.573 59.952C345.718 57.5956 345.831 55.1762 345.888 53.6137C345.945 51.8243 345.718 51.3959 343.985 51.1691L343.532 51.1124C343.387 50.9422 343.418 50.5138 343.645 50.4004C344.496 50.4571 345.182 50.4886 345.888 50.4886C346.543 50.4886 347.312 50.4886 348.244 50.4004C348.131 51.5093 348.843 53.2734 349.725 55.088L352.964 61.6532V61.6595Z" fill="#006489"/>
<path d="M386.275 60.664C386.275 55.9764 384.202 50.917 378.771 50.917C375.816 50.917 371.979 52.9332 371.979 59.1582C371.979 63.3669 374.026 68.8232 379.621 68.8232C383.03 68.8232 386.268 66.2652 386.268 60.664M369.137 60.0718C369.137 54.3886 373.403 50.0413 379.256 50.0413C385.821 50.0413 389.116 54.7856 389.116 59.7882C389.116 65.528 384.737 69.7053 379.256 69.7053C372.949 69.7053 369.137 65.1878 369.137 60.0718Z" fill="#006489"/>
<path d="M390.49 48.5858C390.49 48.3023 390.603 48.1889 390.887 48.1573C394.383 50.4571 396.74 55.151 396.74 60.4623C396.74 65.7737 394.383 70.4676 390.887 72.7673C390.603 72.7421 390.49 72.6224 390.49 72.3389C393.306 69.3839 394.869 65.5721 394.869 60.4623C394.869 55.3526 393.306 51.5407 390.49 48.5858Z" fill="#006489"/>
</g>
<defs>
<clipPath id="clip0_406_38675">
<rect width="398" height="72.2485" fill="white" transform="translate(0 0.525146)"/>
</clipPath>
</defs>
</svg>
