<svg width="440" height="73" viewBox="0 0 440 73" fill="none" xmlns="http://www.w3.org/2000/svg">
<g clip-path="url(#clip0_406_38719)">
<path d="M54.9567 7.91968V8.7831C53.7844 8.79571 52.9903 8.87764 52.5618 9.00999C51.8244 9.25578 51.4462 9.75367 51.4462 10.491C51.4462 10.8692 51.5786 11.3986 51.837 12.0855C52.108 12.7662 52.6122 13.9069 53.337 15.5203L60.6225 31.7426L67.24 14.1779C67.5299 13.4027 67.7505 12.7536 67.8954 12.2242C68.0467 11.6885 68.1223 11.2599 68.1223 10.9259C68.1223 10.0373 67.7379 9.42594 66.9627 9.11083C66.5089 8.92175 65.7589 8.81461 64.7127 8.7894V7.92598H74.2419V8.72008C73.2588 8.85873 72.5277 9.12343 72.055 9.52048C71.3428 10.1129 70.637 11.2977 69.9437 13.0939L59.6393 39.3055H58.9335L47.4442 13.6863C46.4737 11.5246 45.6922 10.1696 45.0998 9.63392C44.5199 9.11083 43.6754 8.80201 42.5473 8.72638V7.93228H54.9504L54.9567 7.91968Z" fill="white"/>
<path d="M69.5026 38.1142C70.9206 38.0134 71.847 37.7991 72.2693 37.484C72.6916 37.1499 72.8995 36.318 72.8995 34.9567V19.4088C72.8995 18.1231 72.6916 17.2975 72.2693 16.9319C71.847 16.5601 70.9206 16.3395 69.5026 16.2639V15.6147H79.8385V16.2639C78.4204 16.3332 77.494 16.5601 77.0717 16.9319C76.6495 17.2975 76.4415 18.1231 76.4415 19.4088V34.9567C76.4415 36.3117 76.6495 37.1499 77.0717 37.484C77.494 37.8054 78.4204 38.0134 79.8385 38.1142V38.7507H69.5026V38.1142Z" fill="white"/>
<path d="M89.0399 15.6211V16.2702C88.1638 16.2765 87.5588 16.3396 87.2437 16.4404C86.6891 16.6232 86.4055 16.9887 86.4055 17.5433C86.4055 17.8269 86.5063 18.224 86.7017 18.7408C86.9097 19.2576 87.2815 20.1147 87.8298 21.3247L93.2877 33.4883L98.2539 20.3227C98.4682 19.7365 98.6384 19.245 98.7518 18.8479C98.8653 18.4509 98.922 18.1231 98.922 17.8773C98.922 17.203 98.6321 16.7492 98.0523 16.5097C97.7119 16.3774 97.1447 16.2954 96.3632 16.2702V15.6211H103.516V16.2198C102.779 16.327 102.231 16.516 101.878 16.8185C101.342 17.2597 100.813 18.1546 100.29 19.4971L92.5629 39.1541H92.0335L83.4182 19.9382C82.6934 18.3059 82.1073 17.2975 81.6598 16.9005C81.2312 16.5034 80.5947 16.2702 79.7502 16.2198V15.6211H89.0588H89.0399Z" fill="white"/>
<path d="M112.705 29.7699L108.659 20.1462L104.67 29.7762H112.705V29.7699ZM97.6237 38.7445V38.1142C98.525 38.0134 99.193 37.6731 99.6405 37.0933C100.101 36.5197 100.869 34.9378 101.96 32.3665L109.252 15.2114H109.932L118.636 35.0261C119.222 36.3433 119.682 37.1689 120.022 37.484C120.375 37.7865 120.961 37.9945 121.781 38.1142V38.7445H112.894V38.1142C113.915 38.026 114.577 37.9126 114.867 37.7928C115.163 37.6605 115.308 37.3327 115.308 36.8223C115.308 36.6458 115.251 36.3433 115.144 35.9084C115.031 35.4798 114.867 35.0198 114.665 34.5471L113.209 31.1879H104.065C103.151 33.4757 102.609 34.8748 102.426 35.3853C102.25 35.8832 102.168 36.2802 102.168 36.5765C102.168 37.1689 102.407 37.5785 102.886 37.8054C103.182 37.9441 103.743 38.0449 104.556 38.1079V38.7382H97.63L97.6237 38.7445Z" fill="white"/>
<path d="M168.305 37.9882C168.305 38.2781 167.99 38.4167 167.353 38.4167H166.855C166.427 38.4167 165.658 38.4104 164.542 38.3789C163.427 38.3474 162.563 38.3348 161.958 38.3348C161.051 38.3348 159.998 38.3474 158.782 38.3789H156.021C155.385 38.3789 155.07 38.2466 155.07 37.9819C155.07 37.692 155.505 37.547 156.387 37.547C157.931 37.547 158.864 37.3832 159.198 37.0617C159.355 36.9168 159.425 35.9399 159.425 34.1311V11.4741C159.425 11.4741 159.261 12.0098 158.927 12.9993C157.717 16.5349 155.965 21.8415 153.671 28.9317L151.54 35.8832C151.112 37.2571 150.816 37.9378 150.633 37.9378C150.419 37.9378 150.192 37.5848 149.946 36.8853C149.076 34.232 146.593 27.6145 142.516 17.0202L140.707 12.3438C140.738 12.8921 140.751 13.6484 140.751 14.619V28.8371C140.751 34.1689 140.795 36.8727 140.889 36.9357C141.097 37.3138 141.829 37.5029 143.064 37.5029C144.06 37.5029 144.557 37.6353 144.557 37.9C144.557 38.1899 144.242 38.3348 143.612 38.3348C143.215 38.3348 142.85 38.3159 142.516 38.2907C142.093 38.2655 141.715 38.2466 141.387 38.2466L136.175 38.3789C135.627 38.3789 135.356 38.2466 135.356 37.9819C135.356 37.692 136.219 37.5281 137.94 37.5029C138.665 37.5029 139.087 37.3832 139.207 37.1437C139.327 36.9168 139.39 36.1605 139.39 34.8748V13.9257C139.39 11.5056 139.352 10.201 139.295 9.98675C139.169 9.5834 138.917 9.3061 138.52 9.16114C138.129 9.01619 137.285 8.89644 135.986 8.80821C135.501 8.7767 135.261 8.65065 135.261 8.41116C135.261 8.09604 135.696 7.93218 136.579 7.93218C136.698 7.93218 136.951 7.94478 137.348 7.97629H139.698C141.482 7.97629 142.742 7.96369 143.467 7.93218C143.618 8.31032 144.513 10.5981 146.139 14.8018C146.839 16.5538 148.786 21.6524 151.988 30.1102C152.561 28.2132 153.154 26.354 153.759 24.5137L158.561 10.0309C158.832 9.18635 159.072 8.48679 159.286 7.93218L166.086 7.88806C167.082 7.88806 167.656 7.93218 167.807 8.02041C167.958 8.10234 168.034 8.23469 168.034 8.41116C168.034 8.70737 167.782 8.84602 167.265 8.84602C166.42 8.84602 165.847 8.87753 165.544 8.93425C164.82 9.054 164.322 9.28719 164.044 9.63382C163.893 9.83549 163.824 11.5497 163.824 14.7513V35.0954C163.824 36.2613 163.944 36.9483 164.183 37.1437C164.574 37.4147 165.557 37.547 167.133 37.547H167.404C168.009 37.547 168.311 37.692 168.311 37.9819" fill="white"/>
<path d="M187.773 33.0219C187.773 33.1039 187.748 33.6396 187.703 34.629C187.659 35.6185 187.634 36.5513 187.634 37.4525V38.5365C185.409 38.4231 181.017 38.3727 174.443 38.3727C173.656 38.3727 172.868 38.3853 172.099 38.4105H170.196C169.767 38.4105 169.553 38.3096 169.553 38.1143C169.553 37.9819 169.622 37.9063 169.754 37.8811C169.817 37.8811 170.252 37.8496 171.046 37.7802C171.632 37.7424 171.985 37.6164 172.099 37.421C172.237 37.2193 172.307 36.7151 172.307 35.8769V17.4362C172.307 16.8059 172.2 16.4341 172.004 16.3207C171.815 16.1883 171.21 16.1253 170.164 16.1253C169.798 16.1253 169.622 16.0244 169.622 15.8291C169.622 15.6337 169.868 15.5329 170.366 15.5329L176.176 15.5707C176.384 15.5707 177.664 15.5581 180.027 15.5329H184.779C185.46 15.5329 186.084 15.4887 186.651 15.4005C186.695 16.3396 186.796 17.6379 186.96 19.308L187.092 20.7197C187.117 20.8269 187.13 20.9718 187.13 21.1483C187.13 21.3689 187.023 21.476 186.821 21.476C186.569 21.476 186.393 21.1987 186.279 20.6504C185.851 18.684 185.145 17.4299 184.174 16.9068C183.449 16.5097 181.546 16.3144 178.464 16.3144H175.679V25.9255H176.492C179.031 25.9255 180.569 25.749 181.118 25.3646C181.685 24.999 182.069 23.915 182.271 22.1251C182.321 21.6651 182.441 21.4382 182.643 21.4382C182.895 21.4382 183.021 21.6336 183.021 22.0306C183.021 22.4277 182.996 23.0012 182.945 23.7638C182.901 24.5326 182.882 25.1125 182.882 25.5095C182.882 27.8477 182.92 29.4548 183.015 30.3245C183.033 30.5451 183.04 30.7342 183.04 30.8917C183.04 31.1753 182.914 31.314 182.668 31.314C182.51 31.314 182.397 31.2321 182.328 31.0556C182.283 30.8602 182.195 30.2426 182.057 29.2153C181.874 27.9233 181.319 27.1292 180.386 26.8204C179.983 26.6881 178.912 26.625 177.185 26.625H175.66V37.6479C180.645 37.6479 183.569 37.5533 184.433 37.3517C185.926 37.0302 186.777 35.6311 186.979 33.1543C187.029 32.6123 187.174 32.335 187.426 32.335C187.653 32.335 187.767 32.5682 187.767 33.0282" fill="white"/>
<path d="M211.369 26.9843C211.369 30.835 209.97 33.8287 207.178 35.9715C205.142 37.5471 202.413 38.3349 198.985 38.3349C198.903 38.3349 198.493 38.3223 197.762 38.3033C197.062 38.2781 196.029 38.2655 194.668 38.2655H192.972L190.287 38.3033C190.13 38.3223 189.96 38.3349 189.777 38.3349C189.348 38.3349 189.128 38.2277 189.128 38.0134C189.128 37.8118 189.493 37.7172 190.218 37.7172C191.145 37.7172 191.724 37.5534 191.951 37.2256C192.04 37.0744 192.09 36.6584 192.09 35.9841V18.2933C192.09 17.2282 191.995 16.6043 191.819 16.4278C191.661 16.2514 191.082 16.1631 190.086 16.1631C189.569 16.1631 189.304 16.0434 189.304 15.8039C189.304 15.6211 189.493 15.5392 189.884 15.5392C189.859 15.5392 190.111 15.5518 190.628 15.5707C191.151 15.5959 191.661 15.5959 192.159 15.5959H195.789C199.873 15.5959 202.76 15.8732 204.461 16.4215C206.522 17.077 208.186 18.3816 209.459 20.329C210.726 22.2512 211.369 24.4759 211.369 26.9906M207.562 26.8519C207.562 23.2281 206.825 20.5622 205.356 18.8794C203.882 17.1715 201.581 16.3207 198.455 16.3207C196.943 16.3207 196.016 16.4719 195.701 16.7808C195.563 16.932 195.493 17.4551 195.493 18.3563V35.8139C195.493 36.4252 195.506 36.7971 195.525 36.9294C195.569 37.0618 195.67 37.1626 195.834 37.2508C196.376 37.5155 197.523 37.6479 199.268 37.6479C201.714 37.6479 203.686 36.816 205.18 35.1585C206.768 33.4001 207.562 30.6397 207.562 26.8519Z" fill="white"/>
<path d="M222.587 38.0764C222.587 38.2529 222.448 38.3411 222.177 38.3411H221.843C221.705 38.2718 220.167 38.2403 217.217 38.2403C216.65 38.2403 216.089 38.2655 215.522 38.3096C215.226 38.3285 214.766 38.3411 214.161 38.3411C213.865 38.3411 213.72 38.2403 213.72 38.0449C213.72 37.8684 214.016 37.7676 214.602 37.7487C215.51 37.7235 216.039 37.629 216.203 37.4525C216.36 37.2571 216.436 36.6269 216.436 35.5492V18.287C216.436 17.2219 216.379 16.6168 216.266 16.4845C216.133 16.2702 215.51 16.1316 214.4 16.0874C213.972 16.0685 213.751 15.9803 213.751 15.829C213.751 15.6274 213.884 15.5328 214.161 15.5328L218.749 15.5959C219.089 15.5959 219.745 15.5959 220.722 15.5707L222.014 15.5328C222.373 15.5328 222.556 15.6274 222.556 15.829C222.556 16.0055 222.058 16.1127 221.056 16.1568C220.488 16.1757 220.142 16.2702 220.003 16.4467C219.89 16.6231 219.833 17.0832 219.833 17.8206V35.3412C219.833 36.5891 219.89 37.2697 220.003 37.3769C220.255 37.6163 220.993 37.755 222.215 37.7991C222.461 37.7991 222.593 37.8936 222.593 38.0638" fill="white"/>
<path d="M244.141 31.0178C244.141 30.9737 244.122 31.2699 244.078 31.9064C243.984 33.1732 243.94 34.4021 243.94 35.5807C243.94 35.713 243.965 35.984 244.009 36.4063C244.053 36.797 244.078 37.276 244.078 37.8495V38.1458C244.078 38.4231 243.984 38.568 243.807 38.568C243.631 38.568 243.467 38.4104 243.335 38.0764C243.019 37.3517 242.698 36.8853 242.383 36.6647C240.751 38.0449 238.791 38.7382 236.503 38.7382C233.169 38.7382 230.402 37.6164 228.209 35.3853C226.028 33.1354 224.944 30.2993 224.944 26.8897C224.944 23.4801 225.94 20.6567 227.938 18.495C229.955 16.3017 232.545 15.2114 235.721 15.2114C236.875 15.2114 237.795 15.3123 238.469 15.5076C239.169 15.6778 240.032 16.0496 241.053 16.6232C241.557 16.9068 241.929 17.0517 242.175 17.0517C242.383 17.0517 242.572 16.8816 242.755 16.5223C243.051 15.911 243.29 15.6022 243.467 15.6022C243.643 15.6022 243.738 15.6904 243.738 15.8732C243.738 15.9551 243.719 16.1001 243.669 16.2954C243.423 17.3479 243.29 19.3143 243.29 22.2071C243.29 22.6293 243.259 22.8625 243.19 22.9318C243.127 22.9949 243.032 23.0327 242.919 23.0327C242.692 23.0327 242.547 22.8184 242.477 22.4087C242.181 20.6567 241.765 19.3584 241.223 18.5013C240.114 16.7492 238.368 15.8795 235.986 15.8795C234.146 15.8795 232.702 16.4656 231.631 17.6441C229.702 19.7743 228.745 22.8751 228.745 26.9716C228.745 30.6207 229.539 33.4568 231.121 35.4672C232.507 37.213 234.341 38.089 236.629 38.089C237.807 38.089 238.885 37.818 239.856 37.2697C240.832 36.7025 241.576 35.9399 242.093 34.9757C242.685 33.8601 243.101 32.6501 243.353 31.3329C243.448 30.8098 243.593 30.5451 243.795 30.5451C244.021 30.5451 244.135 30.7153 244.135 31.0367" fill="white"/>
<path d="M268.695 38.1143C268.695 38.3097 268.519 38.4105 268.178 38.4105C267.958 38.4105 267.75 38.3979 267.567 38.3727L263.25 38.3097L258.927 38.3727C258.769 38.3979 258.599 38.4105 258.416 38.4105C257.969 38.4105 257.735 38.2971 257.735 38.0765C257.735 37.837 258.038 37.7172 258.649 37.7172C260.647 37.6983 261.643 37.4967 261.643 37.1248C261.643 37.0996 261.618 37.0177 261.574 36.8538L261.303 35.9715L261.132 35.5177C260.931 34.8371 260.433 33.3371 259.639 31.0178H252.366C251.004 34.5219 250.324 36.5324 250.324 37.0618C250.324 37.3643 250.462 37.5534 250.733 37.6164C250.796 37.6416 251.37 37.6794 252.429 37.7488C253.084 37.7677 253.412 37.8811 253.412 38.0702C253.412 38.2908 253.116 38.4042 252.53 38.4042C251.49 38.4042 250.273 38.3538 248.893 38.2719C248.553 38.2466 248.206 38.2403 247.841 38.2403C247.475 38.2403 247.122 38.2592 246.788 38.3097C246.605 38.3286 246.46 38.3412 246.341 38.3412C246.026 38.3412 245.868 38.2403 245.868 38.045C245.868 37.8496 246.221 37.7362 246.921 37.7172C247.645 37.6983 248.168 37.5975 248.484 37.421C248.805 37.2257 249.051 36.8601 249.24 36.3433C252.164 28.2952 254.54 21.829 256.374 16.9446C256.425 16.6862 256.513 16.3963 256.651 16.0686L256.815 15.4762C256.885 15.2367 256.973 15.1169 257.086 15.1169C257.156 15.1169 257.212 15.1863 257.256 15.3186C257.553 16.1694 258.221 17.9467 259.261 20.663C260.08 22.7869 262.109 28.1124 265.349 36.6458C265.525 37.1248 265.752 37.4336 266.023 37.566C266.319 37.692 266.912 37.774 267.794 37.7929C268.38 37.8181 268.683 37.9252 268.683 38.1269M259.437 30.2678C259.078 29.2847 258.473 27.6524 257.635 25.3709L256.002 20.8773C255.051 23.2785 253.904 26.4108 252.561 30.2615H259.431L259.437 30.2678Z" fill="white"/>
<path d="M287.357 37.3516C287.357 38.2718 286.562 38.7319 284.974 38.7319C283.21 38.7319 281.823 38.0197 280.827 36.6017C280.399 35.984 280.115 35.3979 279.977 34.8244C279.863 34.2572 279.68 32.8076 279.428 30.4884C279.296 29.0892 278.829 28.1061 278.035 27.5389C277.241 26.9527 275.949 26.6313 274.159 26.5935V36.9294C274.159 37.3642 274.525 37.6416 275.25 37.7487C275.458 37.7676 275.975 37.7928 276.813 37.8117C277.109 37.8117 277.254 37.9062 277.254 38.0764C277.254 38.2718 277.065 38.3726 276.68 38.3726H276.271C276.063 38.3537 275.08 38.3411 273.309 38.3411C272.968 38.3411 272.395 38.3537 271.575 38.3726H268.689C268.185 38.3726 267.933 38.2718 267.933 38.0764C267.933 37.9252 268.267 37.8306 268.928 37.8117C269.994 37.7928 270.567 37.6605 270.662 37.421C270.756 37.3138 270.8 36.8853 270.8 36.1416V18.0286C270.8 17.1525 270.693 16.6294 270.491 16.453C270.315 16.2765 269.735 16.182 268.758 16.1568C268.191 16.1568 267.907 16.0622 267.907 15.8606C267.907 15.64 268.09 15.5328 268.456 15.5328C268.519 15.5328 268.62 15.5454 268.758 15.5643L273.283 15.6652C273.737 15.6652 274.367 15.6589 275.187 15.6274C276.094 15.5833 276.724 15.5643 277.09 15.5643C279.195 15.5643 280.865 16.0244 282.088 16.9383C283.336 17.8332 283.953 19.0622 283.953 20.6189C283.953 22.1755 283.317 23.4171 282.05 24.4255C280.783 25.4087 279.063 25.9885 276.882 26.1649C276.68 26.1838 276.567 26.2154 276.542 26.2595C276.542 26.3477 276.655 26.3918 276.882 26.3918C279.258 26.7826 280.897 27.5956 281.779 28.8182C282.687 30.022 283.285 32.2026 283.581 35.379C283.758 37.1752 284.394 38.0701 285.485 38.0701C285.825 38.0701 285.989 38.0071 285.989 37.8747C285.989 37.8495 285.989 37.8243 285.957 37.8054C285.844 37.5659 285.794 37.3706 285.794 37.213C285.794 36.7529 286.039 36.526 286.537 36.526C287.079 36.526 287.357 36.797 287.357 37.339M280.317 20.9151C280.317 17.7891 278.911 16.2198 276.101 16.2198C275.351 16.2198 274.84 16.3206 274.569 16.516C274.298 16.7177 274.159 17.0643 274.159 17.5685V25.9065C276.334 25.9254 277.903 25.541 278.855 24.7595C279.832 23.9717 280.311 22.686 280.311 20.9214" fill="white"/>
<path d="M306.257 33.0219C306.257 33.1039 306.232 33.6396 306.182 34.629C306.138 35.6185 306.112 36.5513 306.112 37.4525V38.5365C303.894 38.4231 299.495 38.3727 292.928 38.3727C292.134 38.3727 291.352 38.3853 290.583 38.4105H288.68C288.245 38.4105 288.031 38.3096 288.031 38.1143C288.031 37.9819 288.1 37.9063 288.233 37.8811C288.302 37.8811 288.73 37.8496 289.525 37.7802C290.117 37.7424 290.464 37.6164 290.577 37.421C290.709 37.2193 290.785 36.7151 290.785 35.8769V17.4362C290.785 16.8059 290.678 16.4341 290.476 16.3207C290.3 16.1883 289.682 16.1253 288.642 16.1253C288.283 16.1253 288.1 16.0244 288.1 15.8291C288.1 15.6337 288.346 15.5329 288.85 15.5329L294.661 15.5707C294.869 15.5707 296.142 15.5581 298.505 15.5329H303.264C303.944 15.5329 304.568 15.4887 305.136 15.4005C305.18 16.3396 305.28 17.6379 305.438 19.308L305.577 20.7197C305.602 20.8269 305.608 20.9718 305.608 21.1483C305.608 21.3689 305.507 21.476 305.306 21.476C305.06 21.476 304.877 21.1987 304.764 20.6504C304.335 18.684 303.636 17.4299 302.659 16.9068C301.934 16.5097 300.024 16.3144 296.942 16.3144H294.157V25.9255H294.97C297.51 25.9255 299.054 25.749 299.596 25.3646C300.163 24.999 300.547 23.915 300.755 22.1251C300.799 21.6651 300.926 21.4382 301.134 21.4382C301.379 21.4382 301.505 21.6336 301.505 22.0306C301.505 22.4277 301.486 23.0012 301.436 23.7638C301.392 24.5326 301.367 25.1125 301.367 25.5095C301.367 27.8477 301.411 29.4548 301.505 30.3245C301.524 30.5451 301.537 30.7342 301.537 30.8917C301.537 31.1753 301.411 31.314 301.165 31.314C301.001 31.314 300.888 31.2321 300.825 31.0556C300.781 30.8602 300.692 30.2426 300.554 29.2153C300.377 27.9233 299.816 27.1292 298.89 26.8204C298.487 26.6881 297.415 26.625 295.695 26.625H294.163V37.6479C299.148 37.6479 302.073 37.5533 302.936 37.3517C304.43 37.0302 305.28 35.6311 305.482 33.1543C305.533 32.6123 305.678 32.335 305.93 32.335C306.15 32.335 306.27 32.5682 306.27 33.0282" fill="white"/>
<path d="M23.1234 0.589966H15.1383V8.57507H23.1234V0.589966Z" fill="white"/>
<path d="M43.1838 18.7281H33.4971V28.4149H43.1838V18.7281Z" fill="white"/>
<path d="M33.5475 9.5708H24.3209V18.8038H33.5475V9.5708Z" fill="white"/>
<path d="M33.5475 28.5095H24.3209V37.7362H33.5475V28.5095Z" fill="white"/>
<path d="M6.35909 20.0201H0V26.3792H6.35909V20.0201Z" fill="white"/>
<path d="M13.8526 10.6107H7.1217V17.3416H13.8526V10.6107Z" fill="white"/>
<path d="M14.2307 29.1396H7.49976V35.8706H14.2307V29.1396Z" fill="white"/>
<path d="M23.1298 38.6058H15.1447V46.5909H23.1298V38.6058Z" fill="white"/>
<path d="M323.576 25.9697C327.232 25.9697 329.57 25.0873 331.026 23.1462C332.173 21.6021 332.916 19.1379 332.916 16.9762C332.916 15.1737 332.078 13.4973 330.755 12.7473C329.564 12.0414 328.064 11.7326 325.643 11.7326C324.364 11.7326 324.143 11.865 323.923 12.7914C322.835 17.493 321.849 21.8416 320.967 25.8373C322.158 25.9255 322.732 25.9697 323.57 25.9697M317.009 10.762C320.841 10.762 322.87 10.7179 325.562 10.6297C326.664 10.5856 327.591 10.5856 328.297 10.5856C333.849 10.5856 336.54 12.7473 336.54 17.2409C336.54 19.8438 335.481 22.4025 333.761 24.1609C331.732 26.1902 328.826 27.2049 325.076 27.2049C323.797 27.2049 322.826 27.1167 320.803 26.8961C320.583 28.1314 320.539 28.3078 320.186 30.0284C319.303 34.3455 319.171 35.2278 319.171 35.8014C319.171 37.169 320.23 37.6543 323.186 37.6984C323.538 37.7425 323.627 37.7866 323.627 38.0954C323.627 38.5366 323.494 38.7131 323.053 38.7131C322.921 38.7131 322.568 38.713 322.171 38.6689C321.377 38.6248 318.862 38.5807 316.663 38.5807C315.721 38.5807 314.089 38.6248 311.766 38.7131H311.324C311.06 38.7131 310.927 38.6248 310.927 38.4925C310.927 37.9631 311.06 37.7425 311.501 37.7425C313.707 37.6101 314.81 37.0807 315.333 35.8896C315.995 34.3455 320.186 14.9972 320.186 13.409C320.186 12.3944 319.524 11.9091 317.98 11.8208C316.862 11.7326 316.303 11.6003 316.303 11.4238C316.303 11.0267 316.48 10.762 316.745 10.762H317.009Z" fill="white"/>
<path d="M335.21 26.0578V25.0873C335.21 24.602 335.299 24.4255 335.74 23.7196C337.41 20.8962 339.086 19.5349 340.719 19.5349C341.822 19.5349 342.395 20.1084 342.395 21.2113C342.395 22.4907 342.042 24.1671 340.498 30.2489C340.366 30.8665 340.233 31.4337 340.057 32.0514L340.851 30.3308L342.086 27.5956C343.454 24.5957 345.174 21.7785 346.359 20.7197C347.242 19.9256 348.168 19.5286 349.139 19.5286C350.727 19.5286 351.697 20.4991 351.697 22.0432C351.697 23.4991 350.859 24.4255 349.668 24.4255C348.653 24.4255 348.389 24.0726 348.389 22.7932C348.389 22.2638 348.168 21.955 347.859 21.955C347.153 21.955 346.006 23.1902 344.513 25.5284C342.616 28.5725 341.116 31.8308 339.181 37.2067C338.696 38.5743 338.21 39.0596 337.284 39.0596C336.446 39.0596 335.828 38.6184 335.828 38.0449C335.828 37.7214 336.196 36.3118 336.931 33.816C337.24 32.8896 337.505 31.919 337.725 30.9485C337.99 29.9779 338.254 29.0514 338.519 28.125C339.534 24.331 339.843 23.2281 339.843 22.8814C339.843 22.6608 339.754 22.5726 339.534 22.5726C338.563 22.5726 337.328 23.6755 335.614 26.0515H335.217L335.21 26.0578Z" fill="white"/>
<path d="M359.764 26.8519C361.132 25.9255 362.058 24.3373 362.058 22.9318C362.058 21.7407 361.176 20.9025 359.897 20.9025C357.338 20.9025 355.176 23.8079 354.124 28.6166C356.771 28.3078 358.353 27.8225 359.764 26.8519ZM362.897 33.3308L363.161 33.6837C363.206 33.7278 363.25 33.8602 363.25 33.9043C363.25 34.1249 362.588 34.9631 361.8 35.7572C359.55 38.0071 357.3 39.1037 355.101 39.1037C352.189 39.1037 350.475 36.942 350.475 33.2425C350.475 26.0137 355.233 19.579 360.653 19.579C363.256 19.579 365.014 21.0285 365.014 23.102C365.014 25.4843 362.941 27.6397 359.727 28.6103C358.006 29.1397 357.124 29.272 353.954 29.4044C353.689 30.5892 353.645 31.1249 353.645 32.0073C353.645 34.8748 354.786 36.4567 356.947 36.4567C358.888 36.4567 360.867 35.3979 362.764 33.3244H362.897V33.3308Z" fill="white"/>
<path d="M366.42 26.146V25.4843C366.42 24.9549 366.552 24.6902 367.258 23.6314C369.149 20.8962 370.913 19.4907 372.502 19.4907C373.384 19.4907 374.09 20.1525 374.09 21.0789C374.09 22.0054 373.384 24.4318 371.619 29.7195C373.34 26.9842 375.016 24.7784 377.525 22.1818C379.245 20.3731 380.833 19.4907 382.195 19.4907C383.474 19.4907 384.312 20.4172 384.312 21.873C384.312 23.1083 384.092 23.9465 382.195 30.2048C386.776 22.9759 390.173 19.5853 392.865 19.5853C394.182 19.5853 395.07 20.5999 395.07 22.2323C395.07 23.3352 394.762 24.5704 393.615 28.1817C393.262 29.3287 391.497 34.5723 391.276 35.1458C391.188 35.4105 391.144 35.5429 391.144 35.6311C391.144 35.7193 391.188 35.8076 391.32 35.8076C391.85 35.8076 394.1 33.7782 396.344 31.2699H396.564V32.0639C396.564 32.3581 396.329 32.8139 395.858 33.4316C393.52 36.5197 390.3 39.1604 388.806 39.1604C388.232 39.1604 387.879 38.7634 387.879 38.234C387.879 37.881 388.012 37.2193 388.365 36.1605C388.953 34.3076 389.732 31.7362 390.703 28.4464C391.806 24.8792 392.026 23.9969 392.026 23.2028C392.026 22.5852 391.762 22.2764 391.276 22.2764C389.65 22.2764 387.003 24.8351 384.798 28.4905C383.342 30.8728 381.319 35.2782 380.525 37.8369C380.26 38.7193 379.951 39.0281 379.289 39.0281C378.451 39.0281 377.657 38.4546 377.657 37.881C377.657 37.6163 377.745 37.3075 377.833 36.9546C378.142 36.0723 378.407 35.2845 378.628 34.4462C378.98 33.2992 379.378 32.1522 379.73 31.0493C381.054 26.7763 381.716 24.1734 381.716 23.1587C381.716 22.5411 381.407 22.144 380.833 22.144C377.657 22.144 372.81 29.3287 370.737 36.9546C370.296 38.5428 370.075 38.8957 369.369 38.8957C368.399 38.8957 367.605 38.3663 367.605 37.7487C367.605 37.5428 367.781 36.8517 368.134 35.6752C368.928 33.2047 371.619 23.7259 371.619 23.4171C371.619 23.1083 371.399 22.9318 371.002 22.9318C369.855 22.9318 368.708 23.77 367.082 25.8372L366.817 26.146H366.42Z" fill="white"/>
<path d="M408.078 11.6444C408.078 12.5708 407.108 13.5351 406.188 13.5351C405.268 13.5351 404.379 12.6086 404.379 11.7326C404.379 10.8061 405.35 9.83557 406.276 9.83557C407.202 9.83557 408.078 10.762 408.078 11.6444ZM406.623 33.022V33.8602C406.623 34.2573 406.402 34.5661 405.52 35.4484C403.182 37.9189 401.329 39.1038 399.917 39.1038C398.99 39.1038 398.461 38.5303 398.461 37.5597C398.461 36.9862 398.726 35.9715 399.299 34.2573C399.696 33.2867 400.049 32.2279 400.402 31.125C402.255 25.7428 403.182 23.0138 403.358 22.5727C403.402 22.4844 403.402 22.3962 403.402 22.308C403.402 22.2197 403.314 22.1315 403.226 22.1315C402.608 22.1315 401.373 23.0138 399.173 24.9991H398.953V24.2932C398.953 23.9844 399.041 23.852 399.967 22.9256C401.953 20.8521 404.114 19.5727 405.482 19.5727C406.188 19.5727 406.673 20.0139 406.673 20.6756C406.673 21.1168 406.497 21.7344 406.055 22.9697C405.482 24.5075 403.85 28.9633 403.629 29.7132C403.32 30.5515 403.011 31.3834 402.747 32.272C402.261 33.6396 402.394 33.2426 402.306 33.5073C401.732 35.0072 401.562 35.6249 401.562 36.066C401.562 36.2866 401.65 36.3749 401.871 36.3749C402.665 36.3749 404.959 34.6606 406.364 33.022H406.629H406.623Z" fill="white"/>
<path d="M417.419 26.8519C418.786 25.9255 419.713 24.3373 419.713 22.9318C419.713 21.7407 418.83 20.9025 417.551 20.9025C414.992 20.9025 412.831 23.8079 411.772 28.6166C414.419 28.3078 416.007 27.8225 417.412 26.8519M420.551 33.3308L420.816 33.6837C420.86 33.7278 420.904 33.8602 420.904 33.9043C420.904 34.1249 420.242 34.9631 419.454 35.7572C417.204 38.0071 414.954 39.1037 412.749 39.1037C409.843 39.1037 408.123 36.942 408.123 33.2425C408.123 26.0137 412.887 19.579 418.307 19.579C420.91 19.579 422.669 21.0285 422.669 23.102C422.669 25.4843 420.595 27.6397 417.381 28.6103C415.66 29.1397 414.778 29.272 411.608 29.4044C411.343 30.5892 411.299 31.1249 411.299 32.0073C411.299 34.8748 412.446 36.4567 414.601 36.4567C416.543 36.4567 418.522 35.3979 420.419 33.3244H420.551V33.3308Z" fill="white"/>
<path d="M423.507 26.0578V25.0873C423.507 24.602 423.595 24.4255 424.036 23.7196C425.706 20.8962 427.383 19.5349 429.015 19.5349C430.118 19.5349 430.691 20.1084 430.691 21.2113C430.691 22.4907 430.338 24.1671 428.801 30.2489C428.668 30.8665 428.536 31.4337 428.359 32.0514L429.154 30.3308L430.389 27.5956C431.756 24.5957 433.477 21.7785 434.662 20.7197C435.544 19.9256 436.471 19.5286 437.441 19.5286C439.029 19.5286 440 20.4991 440 22.0432C440 23.4991 439.162 24.4255 437.971 24.4255C436.956 24.4255 436.691 24.0726 436.691 22.7932C436.691 22.2638 436.471 21.955 436.162 21.955C435.456 21.955 434.315 23.1902 432.815 25.5284C430.918 28.5725 429.418 31.8308 427.483 37.2067C426.998 38.5743 426.513 39.0596 425.586 39.0596C424.748 39.0596 424.131 38.6184 424.131 38.0449C424.131 37.7214 424.498 36.3118 425.233 33.816C425.542 32.8896 425.807 31.919 426.028 30.9485C426.292 29.9779 426.557 29.0514 426.822 28.125C427.836 24.331 428.145 23.2281 428.145 22.8814C428.145 22.6608 428.057 22.5726 427.836 22.5726C426.866 22.5726 425.631 23.6755 423.91 26.0515H423.513L423.507 26.0578Z" fill="white"/>
<path d="M358.857 72.3614C358.857 72.645 358.744 72.7584 358.46 72.7899C354.956 70.4832 352.592 65.7817 352.592 60.4562C352.592 55.1307 354.956 50.4291 358.46 48.1224C358.744 48.1476 358.857 48.2674 358.857 48.551C356.04 51.5131 354.471 55.3323 354.471 60.4562C354.471 65.58 356.04 69.3992 358.857 72.3614Z" fill="white"/>
<path d="M368.222 60.0591C366.855 60.0591 366.798 60.1158 366.798 60.9729V64.9876C366.798 67.9812 366.943 68.3782 368.537 68.5484L369.363 68.6366C369.533 68.7501 369.476 69.2606 369.306 69.3488C367.769 69.2921 366.798 69.2606 365.689 69.2606C364.466 69.2606 363.496 69.3173 362.386 69.3488C362.216 69.2606 362.159 68.8068 362.33 68.6366L362.815 68.5484C364.409 68.2648 364.466 67.9812 364.466 64.9876V54.7336C364.466 51.74 364.264 51.261 362.783 51.1476L362.046 51.0908C361.876 50.9774 361.933 50.4669 362.103 50.3787C363.496 50.4039 364.466 50.4669 365.695 50.4669C366.804 50.4669 367.775 50.4417 368.997 50.3787C369.168 50.4669 369.224 50.9774 369.054 51.0908L368.512 51.1476C366.861 51.3177 366.804 51.7463 366.804 54.7336V58.0108C366.804 58.8932 366.861 58.9247 368.229 58.9247H376.378C377.745 58.9247 377.802 58.8995 377.802 58.0108V54.7336C377.802 51.74 377.745 51.3177 376.062 51.1476L375.52 51.0908C375.35 50.9774 375.407 50.4669 375.577 50.3787C376.888 50.4354 377.859 50.4669 379.025 50.4669C380.191 50.4669 381.104 50.4417 382.384 50.3787C382.554 50.4669 382.611 50.9774 382.44 51.0908L381.842 51.1476C380.19 51.3177 380.134 51.7463 380.134 54.7336V64.9876C380.134 67.9812 380.19 68.3467 381.842 68.5484L382.522 68.6366C382.693 68.7501 382.636 69.2606 382.466 69.3488C381.098 69.2921 380.127 69.2606 379.018 69.2606C377.852 69.2606 376.825 69.2858 375.571 69.3488C375.401 69.2606 375.344 68.8068 375.514 68.6366L376.056 68.5484C377.796 68.2648 377.796 67.9812 377.796 64.9876V60.9729C377.796 60.1221 377.739 60.0591 376.371 60.0591H368.222Z" fill="white"/>
<path d="M394.856 61.6536C395.512 62.9897 396.136 64.3006 396.822 65.5548H396.879C397.648 64.2187 398.36 62.7376 399.072 61.2818L401.751 55.8428C403.03 53.2526 403.856 51.6833 403.913 50.3724C404.883 50.4606 405.482 50.4606 406.049 50.4606C406.761 50.4606 407.7 50.4354 408.583 50.3724C408.753 50.4858 408.753 50.9711 408.608 51.0846L408.009 51.1413C406.213 51.3114 405.986 51.8534 406.018 53.845C406.074 56.8638 406.1 62.1326 406.333 66.2355C406.415 67.6598 406.389 68.4287 407.726 68.5421L408.639 68.6304C408.81 68.8005 408.784 69.2291 408.583 69.3425C407.417 69.2858 406.245 69.2543 405.224 69.2543C404.203 69.2543 402.942 69.2795 401.776 69.3425C401.574 69.1976 401.549 68.8005 401.719 68.6304L402.545 68.5421C403.938 68.3972 403.938 67.9434 403.938 66.122L403.856 54.242H403.799C403.598 54.5572 402.52 56.8323 401.946 57.9478L399.413 62.933C398.133 65.4414 396.848 68.1136 396.337 69.4245C396.28 69.5127 396.167 69.5379 396.054 69.5379C395.997 69.5379 395.852 69.5127 395.795 69.4245C395.31 67.9182 393.942 65.1262 393.287 63.7271L390.722 58.2314C390.123 56.9206 389.524 55.4395 388.9 54.1286H388.844C388.73 55.8933 388.642 57.5445 388.56 59.202C388.472 60.9415 388.358 63.475 388.358 65.8951C388.358 68.0001 388.529 68.4602 389.644 68.5421L390.728 68.6304C390.93 68.8005 390.898 69.2543 390.703 69.3425C389.732 69.2858 388.623 69.2543 387.539 69.2543C386.625 69.2543 385.604 69.2795 384.634 69.3425C384.464 69.1976 384.407 68.7753 384.577 68.6304L385.201 68.5421C386.398 68.372 386.795 68.2018 386.966 66.2039C387.136 64.3258 387.281 62.7565 387.451 59.9394C387.596 57.576 387.709 55.1559 387.766 53.5866C387.823 51.7904 387.596 51.3619 385.856 51.135L385.403 51.0783C385.258 50.9081 385.289 50.4795 385.516 50.3661C386.367 50.4228 387.054 50.4543 387.766 50.4543C388.421 50.4543 389.19 50.4543 390.129 50.3661C390.016 51.4753 390.728 53.24 391.61 55.0677L394.856 61.6473V61.6536Z" fill="white"/>
<path d="M428.24 60.6578C428.24 55.9563 426.16 50.8892 420.721 50.8892C417.759 50.8892 413.914 52.9122 413.914 59.1516C413.914 63.3679 415.963 68.832 421.578 68.832C424.994 68.832 428.24 66.2669 428.24 60.6578ZM411.066 60.0591C411.066 54.3618 415.339 50.0068 421.206 50.0068C427.786 50.0068 431.088 54.7651 431.088 59.7755C431.088 65.5296 426.702 69.7143 421.206 69.7143C414.885 69.7143 411.066 65.1829 411.066 60.0591Z" fill="white"/>
<path d="M432.462 48.551C432.462 48.2674 432.576 48.1539 432.859 48.1224C436.363 50.4291 438.727 55.1307 438.727 60.4562C438.727 65.7817 436.363 70.4832 432.859 72.7899C432.576 72.7647 432.462 72.645 432.462 72.3614C435.279 69.3992 436.849 65.58 436.849 60.4562C436.849 55.3323 435.279 51.5131 432.462 48.551Z" fill="white"/>
</g>
<defs>
<clipPath id="clip0_406_38719">
<rect width="440" height="72.1999" fill="white" transform="translate(0 0.589966)"/>
</clipPath>
</defs>
</svg>
