<svg width="229" height="35" viewBox="0 0 229 35" fill="none" xmlns="http://www.w3.org/2000/svg">
<g clip-path="url(#clip0_113_13188)">
<g filter="url(#filter0_d_113_13188)">
<path d="M9.98242 0.287109H14.2393V4.55997H9.98242V0.287109Z" fill="#006241"/>
<path d="M9.99524 22.3971H14.2521V26.67H9.99524V22.3971Z" fill="#006241"/>
<path d="M20.4175 10.7957H25.5795L25.5838 15.9814H20.4175V10.7957Z" fill="#006241"/>
<path d="M14.884 5.57141H19.8027L19.807 10.5128L14.884 10.5086V5.57141Z" fill="#006241"/>
<path d="M15.0505 16.5171H19.9692V21.4542H15.0505V16.5171Z" fill="#006241"/>
<path d="M0 11.3228H3.38584L3.39011 14.7257H0V11.3228Z" fill="#006241"/>
<path d="M5.07239 6.29138H8.6589V9.89138H5.07239V6.29138Z" fill="#006241"/>
<path d="M5.27307 16.2042H8.85959V19.8042H5.27307V16.2042Z" fill="#006241"/>
<path d="M89.1463 12.4457H98.5994V6.55711C98.5994 5.52425 98.531 4.84282 98.403 4.51711C98.3005 4.26853 98.087 4.05425 97.7668 3.87853C97.3313 3.63853 96.8701 3.51853 96.3877 3.51853H95.6618V2.95711H104.419V3.51853H103.693C103.211 3.51853 102.749 3.63425 102.314 3.86139C101.994 4.01996 101.772 4.25996 101.656 4.58139C101.541 4.90282 101.481 5.56282 101.481 6.55282V19.83C101.481 20.8585 101.55 21.54 101.678 21.8657C101.78 22.1185 101.985 22.3285 102.301 22.5085C102.745 22.7485 103.211 22.8685 103.693 22.8685H104.419V23.43H95.6618V22.8685H96.3877C97.2245 22.8685 97.8394 22.6243 98.2194 22.1357C98.4713 21.8142 98.5994 21.0471 98.5994 19.83V13.5642H89.1463V19.83C89.1463 20.8585 89.2104 21.54 89.3385 21.8657C89.4367 22.1185 89.6501 22.3285 89.9746 22.5085C90.4059 22.7485 90.8585 22.8685 91.3409 22.8685H92.0796V23.43H83.3225V22.8685H84.0484C84.898 22.8685 85.5086 22.6243 85.8928 22.1357C86.1362 21.8142 86.2558 21.0471 86.2558 19.83V6.55282C86.2558 5.51996 86.1875 4.83853 86.0594 4.51282C85.9569 4.26425 85.7477 4.04996 85.436 3.87425C84.9919 3.63425 84.5266 3.51425 84.0441 3.51425H83.3182V2.95282H92.0753V3.51425H91.3367C90.8542 3.51425 90.4016 3.62996 89.9704 3.85711C89.6544 4.01568 89.4409 4.25568 89.3214 4.57711C89.2018 4.89853 89.1421 5.55853 89.1421 6.54853V12.4371L89.1463 12.4457Z" fill="#006241"/>
<path d="M109.555 9.34712V15.2143H112.749C113.603 15.2143 114.171 15.0857 114.457 14.8328C114.841 14.4985 115.055 13.9071 115.093 13.0671H115.503V18.2485H115.093C114.991 17.5243 114.888 17.0614 114.786 16.8557C114.649 16.5985 114.436 16.3971 114.137 16.2514C113.838 16.1057 113.372 16.0328 112.749 16.0328H109.555V20.9185C109.555 21.5743 109.585 21.9728 109.645 22.1143C109.705 22.2557 109.807 22.3671 109.948 22.4528C110.093 22.5385 110.371 22.5814 110.781 22.5814H113.296C114.137 22.5814 114.743 22.5214 115.123 22.4057C115.507 22.29 115.87 22.0585 116.22 21.7157C116.673 21.2657 117.138 20.5843 117.612 19.68H118.086L116.801 23.43H105.311V23.0185H105.841C106.191 23.0185 106.528 22.9328 106.844 22.7657C107.083 22.65 107.237 22.4743 107.322 22.2385C107.408 22.0028 107.45 21.5271 107.45 20.8028V11.1171C107.45 10.1614 107.356 9.56998 107.169 9.34712C106.9 9.05141 106.46 8.90141 105.845 8.90141H105.316V8.49426H116.763L116.933 11.7685H116.459C116.306 10.9928 116.139 10.4614 115.951 10.1743C115.772 9.88712 115.494 9.66426 115.132 9.51426C114.841 9.40712 114.333 9.35141 113.603 9.35141H109.56L109.555 9.34712Z" fill="#006241"/>
<path d="M128.88 18.45H123.09L122.078 20.7857C121.831 21.3642 121.707 21.7971 121.707 22.0842C121.707 22.3114 121.814 22.5085 122.031 22.6842C122.245 22.8557 122.71 22.9671 123.427 23.0185V23.43H118.752V23.0185C119.376 22.9071 119.777 22.7657 119.956 22.5857C120.332 22.23 120.742 21.5142 121.199 20.43L126.527 8.14709H126.95L132.031 20.5757C132.449 21.5742 132.825 22.2214 133.167 22.5171C133.504 22.8128 133.982 22.98 134.588 23.0185V23.43H128.683V23.0185C129.277 22.9885 129.678 22.89 129.887 22.7228C130.097 22.5557 130.195 22.35 130.195 22.11C130.195 21.7885 130.05 21.2828 129.759 20.5928L128.884 18.45H128.88ZM128.534 17.5971L126.07 11.5671L123.462 17.5971H128.53H128.534Z" fill="#006241"/>
<path d="M147.636 19.3028L148.008 19.38L146.748 23.43H135.233V23.0185H135.792C136.42 23.0185 136.873 22.8171 137.142 22.41C137.295 22.1785 137.372 21.6428 137.372 20.8028V11.1171C137.372 10.1914 137.27 9.61283 137.065 9.38141C136.779 9.06426 136.352 8.90141 135.792 8.90141H135.233V8.49426H141.928V8.90141C141.151 8.89283 140.609 8.96569 140.297 9.11998C139.981 9.27426 139.772 9.46283 139.656 9.69855C139.541 9.92998 139.481 10.4828 139.481 11.3614V20.7685C139.481 21.3771 139.541 21.7971 139.656 22.0243C139.746 22.1785 139.883 22.2943 140.062 22.3671C140.246 22.44 140.813 22.4785 141.77 22.4785H142.854C143.99 22.4785 144.789 22.3928 145.245 22.2257C145.702 22.0585 146.125 21.7585 146.505 21.33C146.885 20.9014 147.265 20.2285 147.641 19.3071L147.636 19.3028Z" fill="#006241"/>
<path d="M159.425 8.49428L159.596 11.9786H159.177C159.096 11.3614 158.985 10.92 158.844 10.6586C158.618 10.2343 158.319 9.92142 157.939 9.7157C157.563 9.51428 157.068 9.41142 156.453 9.41142H154.361V20.8371C154.361 21.7543 154.464 22.3286 154.664 22.5557C154.946 22.8643 155.386 23.0186 155.975 23.0186H156.5V23.43H150.113V23.0186H150.651C151.287 23.0186 151.744 22.8257 152.009 22.4443C152.175 22.2086 152.256 21.6728 152.256 20.8371V9.41142H150.471C149.78 9.41142 149.289 9.46285 148.998 9.5657C148.614 9.70285 148.294 9.97285 148.021 10.3671C147.752 10.7614 147.594 11.2971 147.542 11.9743H147.128L147.299 8.48999H159.429L159.425 8.49428Z" fill="#006241"/>
<path d="M164.779 15.4157H171.675V11.1171C171.675 10.3628 171.628 9.86569 171.534 9.62998C171.457 9.44998 171.303 9.29141 171.068 9.16283C170.752 8.98712 170.419 8.90141 170.065 8.90141H169.531V8.49426H175.919V8.90141H175.389C175.035 8.90141 174.706 8.98712 174.386 9.15426C174.151 9.26998 173.989 9.44569 173.903 9.68141C173.818 9.91712 173.775 10.3971 173.775 11.1214V20.8071C173.775 21.5571 173.822 22.0543 173.92 22.29C173.993 22.4743 174.147 22.6285 174.373 22.7614C174.697 22.9371 175.035 23.0228 175.389 23.0228H175.919V23.4343H169.531V23.0228H170.065C170.675 23.0228 171.12 22.8471 171.397 22.4871C171.581 22.2557 171.675 21.6943 171.675 20.8071V16.2385H164.779V20.8071C164.779 21.5571 164.826 22.0543 164.924 22.29C164.997 22.4743 165.151 22.6285 165.381 22.7614C165.697 22.9371 166.03 23.0228 166.384 23.0228H166.918V23.4343H160.531V23.0228H161.064C161.679 23.0228 162.128 22.8471 162.409 22.4871C162.584 22.2557 162.674 21.6943 162.674 20.8071V11.1214C162.674 10.3671 162.627 9.86998 162.533 9.63426C162.461 9.45426 162.311 9.29569 162.081 9.16712C161.756 8.99141 161.419 8.90569 161.069 8.90569H160.535V8.49855H166.922V8.90569H166.389C166.034 8.90569 165.701 8.99141 165.385 9.15855C165.163 9.27426 165.001 9.44998 164.916 9.68569C164.83 9.92141 164.783 10.4014 164.783 11.1257V15.4243L164.779 15.4157Z" fill="#006241"/>
<path d="M33.6748 3.29567V3.8571C32.9191 3.86567 32.4024 3.91281 32.1292 4.00281C31.651 4.16138 31.4076 4.48281 31.4076 4.96281C31.4076 5.21138 31.4887 5.55424 31.6595 5.99995C31.8388 6.44138 32.1591 7.1871 32.633 8.22852L37.3467 18.7714L41.6334 7.35424C41.8213 6.85281 41.9622 6.42852 42.0604 6.08567C42.1586 5.73852 42.2056 5.45995 42.2056 5.24138C42.2056 4.66281 41.9579 4.26424 41.4541 4.05852C41.1638 3.94281 40.6728 3.86995 39.9939 3.85281V3.29138H46.1678V3.80995C45.5316 3.89995 45.0577 4.07138 44.7546 4.32852C44.2892 4.71424 43.8366 5.48567 43.384 6.65138L36.7105 23.6871H36.2537L28.8159 7.0371C28.1883 5.6271 27.6802 4.74852 27.2959 4.40138C26.9245 4.05852 26.3737 3.86138 25.6478 3.80995V3.29138H33.6748" fill="#006241"/>
<path d="M43.0938 22.9242C44.0117 22.8557 44.6095 22.7185 44.8827 22.5128C45.156 22.2985 45.2926 21.7499 45.2926 20.8714V10.7699C45.2926 9.93422 45.156 9.39851 44.8827 9.16279C44.6138 8.91851 44.0117 8.77279 43.0938 8.72994V8.30994H49.7886V8.72994C48.8663 8.77279 48.2729 8.91851 47.9996 9.16279C47.7263 9.39851 47.5897 9.93422 47.5897 10.7699V20.8714C47.5897 21.7542 47.7263 22.2985 47.9996 22.5128C48.2729 22.7185 48.8706 22.8557 49.7886 22.9242V23.3314H43.0938V22.9242Z" fill="#006241"/>
<path d="M55.7447 8.30139V8.72139C55.1768 8.72996 54.7883 8.76425 54.5834 8.83282C54.2204 8.95282 54.0411 9.19282 54.0411 9.55711C54.0411 9.74139 54.1052 9.99853 54.229 10.3328C54.3613 10.6628 54.6047 11.2242 54.9591 12.0085L58.4944 19.9157L61.7094 11.3528C61.8503 10.9757 61.9571 10.6585 62.0297 10.4014C62.1022 10.1442 62.1407 9.92996 62.1407 9.76711C62.1407 9.32996 61.9528 9.03425 61.5771 8.87996C61.355 8.78996 60.9879 8.74282 60.4798 8.72568V8.30568H65.1081V8.69568C64.6299 8.75996 64.2755 8.89282 64.0492 9.08568C63.7034 9.37282 63.3618 9.95568 63.0202 10.8257L58.0162 23.6057H57.6746L52.0984 11.1171C51.6245 10.0585 51.2445 9.40282 50.9584 9.14139C50.6766 8.88425 50.2667 8.73425 49.7202 8.69996V8.30996H55.7447" fill="#006241"/>
<path fill-rule="evenodd" clip-rule="evenodd" d="M61.3038 23.3314V22.9243C61.8845 22.8557 62.32 22.6371 62.6061 22.2557C62.9007 21.8785 63.4002 20.8543 64.109 19.1871L68.827 8.03998H69.2668L74.9027 20.9186C75.2784 21.7757 75.5816 22.3071 75.7993 22.5171C76.0256 22.7143 76.4056 22.8514 76.9351 22.9285V23.3357H71.1796V22.9285C71.8414 22.8685 72.2726 22.7957 72.4605 22.7143C72.6526 22.6243 72.7465 22.4143 72.7465 22.0843C72.7465 21.9728 72.7124 21.7757 72.6398 21.4971C72.5629 21.2143 72.4605 20.9228 72.3281 20.61L71.3888 18.4285H65.4668C64.8775 19.9114 64.5232 20.82 64.4079 21.1543C64.2969 21.48 64.2414 21.7371 64.2414 21.93C64.2414 22.3114 64.3951 22.5771 64.7068 22.7271C64.8989 22.8171 65.2575 22.8857 65.787 22.9285V23.3357H61.3038M71.0686 17.4986L68.4513 11.2414L65.8638 17.4986H71.0686Z" fill="#006241"/>
<path d="M177.763 2.94427C178.079 2.94427 178.382 3.0257 178.681 3.18428C178.98 3.34713 179.215 3.57427 179.381 3.87427C179.548 4.17427 179.633 4.48713 179.633 4.81285C179.633 5.13856 179.552 5.44713 179.386 5.74285C179.219 6.03856 178.989 6.26999 178.694 6.43713C178.395 6.59999 178.088 6.6857 177.763 6.6857C177.439 6.6857 177.131 6.60428 176.832 6.43713C176.538 6.27428 176.307 6.04285 176.141 5.74285C175.974 5.44713 175.893 5.13427 175.893 4.81285C175.893 4.49142 175.978 4.17427 176.145 3.87427C176.311 3.57427 176.546 3.34285 176.845 3.18428C177.144 3.02142 177.451 2.94427 177.763 2.94427ZM177.763 3.17999C177.49 3.17999 177.221 3.24856 176.96 3.38999C176.7 3.53142 176.495 3.73285 176.35 3.99427C176.205 4.2557 176.128 4.52999 176.128 4.81285C176.128 5.0957 176.2 5.3657 176.346 5.62713C176.491 5.88856 176.691 6.08999 176.952 6.23142C177.212 6.37713 177.481 6.4457 177.763 6.4457C178.045 6.4457 178.318 6.37285 178.574 6.23142C178.835 6.0857 179.036 5.88427 179.181 5.62713C179.326 5.3657 179.398 5.0957 179.398 4.81285C179.398 4.52999 179.326 4.2557 179.181 3.99427C179.036 3.73285 178.831 3.53142 178.57 3.38999C178.31 3.24856 178.041 3.17999 177.763 3.17999ZM176.768 3.72427H177.72C178.041 3.72427 178.263 3.76285 178.387 3.83999C178.562 3.95142 178.651 4.1057 178.651 4.30285C178.651 4.42713 178.613 4.53856 178.536 4.63713C178.459 4.7357 178.34 4.80427 178.182 4.85142L178.545 5.5157C178.596 5.60999 178.651 5.67856 178.707 5.72142C178.732 5.74285 178.771 5.75999 178.818 5.76856V5.86285H178.177L177.639 4.88999H177.52V5.41285C177.52 5.55856 177.541 5.65285 177.58 5.6957C177.618 5.73856 177.708 5.75999 177.84 5.76428V5.85856H176.721V5.76428C176.832 5.76428 176.901 5.74713 176.931 5.70856C176.973 5.65713 176.995 5.55856 176.995 5.40856V4.15713C176.995 4.0157 176.978 3.9257 176.948 3.88713C176.918 3.84856 176.854 3.82285 176.76 3.81427V3.71999L176.768 3.72427ZM177.524 4.75285C177.584 4.76142 177.635 4.7657 177.674 4.7657C177.789 4.7657 177.883 4.72285 177.968 4.63713C178.049 4.55142 178.092 4.4357 178.092 4.29428C178.092 4.15285 178.054 4.03713 177.977 3.95999C177.9 3.88285 177.785 3.84428 177.627 3.84428H177.528V4.75285H177.524Z" fill="#006241"/>
</g>
<g filter="url(#filter1_d_113_13188)">
<path d="M220.938 1.62L220.874 1.62857L195.969 1.62H195.333C191.507 1.62 188.403 4.73142 188.403 8.57571L188.331 9.83142V17.7943C188.331 21.6343 191.435 24.75 195.26 24.75H212.518C212.599 24.8014 212.676 24.8657 212.757 24.9429C215.255 27.4243 217.766 29.8929 220.276 32.3614C220.417 32.4986 220.562 32.6314 220.814 32.8714C220.827 31.7057 220.84 30.6771 220.848 29.6486C220.861 28.0157 220.874 26.3829 220.882 24.75H220.942C224.768 24.75 227.872 21.6386 227.872 17.7943V8.57571C227.872 4.73571 224.772 1.62 220.942 1.62H220.938Z" fill="#FCD672"/>
<path d="M197.152 17.1814C197.527 17.1771 197.942 17.0271 198.394 16.7228C198.847 16.4228 199.286 16.0671 199.713 15.6643C200.14 15.2571 200.529 14.8457 200.888 14.4257C201.238 14.0014 201.511 13.6628 201.69 13.4057C201.797 13.2471 201.9 13.1528 201.998 13.1186C202.096 13.0886 202.169 13.1014 202.22 13.1614C202.267 13.2214 202.284 13.3157 202.275 13.4443C202.262 13.5686 202.211 13.7143 202.113 13.8728C202.028 14.0186 201.887 14.2286 201.69 14.5071C201.49 14.7814 201.259 15.0857 200.986 15.4071C200.717 15.7286 200.405 16.0628 200.064 16.4014C199.722 16.7357 199.363 17.0443 198.988 17.3186C198.612 17.5971 198.223 17.8243 197.826 18.0043C197.425 18.18 197.032 18.2743 196.644 18.2786C196.11 18.2786 195.662 18.1843 195.303 17.9871C194.944 17.79 194.654 17.5328 194.44 17.2157C194.227 16.8986 194.073 16.5514 193.988 16.17C193.902 15.7843 193.855 15.4071 193.855 15.03C193.855 14.6528 193.932 14.1814 194.099 13.62C194.265 13.0586 194.513 12.5186 194.842 12C195.171 11.4814 195.589 11.0314 196.097 10.6586C196.605 10.2857 197.203 10.0928 197.895 10.0886C198.283 10.0886 198.612 10.2214 198.889 10.4828C199.167 10.7486 199.299 11.1128 199.291 11.5757C199.291 11.7943 199.257 12.0086 199.188 12.2271C199.116 12.4371 199.022 12.63 198.898 12.7928C198.778 12.9557 198.637 13.0886 198.475 13.1871C198.313 13.2857 198.134 13.3371 197.942 13.3371C197.784 13.3371 197.664 13.2814 197.583 13.1657C197.506 13.05 197.455 12.9171 197.433 12.7671C197.416 12.6128 197.412 12.4628 197.433 12.3171C197.451 12.1714 197.468 12.0728 197.493 12.0257C197.553 11.94 197.621 11.88 197.69 11.8414C197.762 11.8028 197.848 11.76 197.946 11.7086C198.018 11.6743 198.074 11.6186 198.117 11.5457C198.159 11.4728 198.181 11.3914 198.181 11.3057C198.181 11.22 198.155 11.1471 198.108 11.0871C198.061 11.0271 197.98 10.9971 197.873 10.9971C197.762 10.9971 197.566 11.0871 197.284 11.2628C196.998 11.4428 196.712 11.7043 196.417 12.0557C196.123 12.4071 195.862 12.8443 195.636 13.3671C195.41 13.8943 195.29 14.5028 195.286 15.1971C195.277 15.6 195.333 15.93 195.457 16.1828C195.576 16.4357 195.734 16.6371 195.913 16.7828C196.097 16.9286 196.298 17.0314 196.515 17.0914C196.733 17.1514 196.947 17.1814 197.152 17.1771V17.1814Z" fill="#006241"/>
<path d="M210.14 14.07C209.973 14.3143 209.756 14.6185 209.495 14.9785C209.231 15.3428 208.953 15.7028 208.671 16.0671C208.389 16.4271 208.116 16.7571 207.843 17.0571C207.574 17.3571 207.348 17.5671 207.164 17.6914C207.044 17.7643 206.904 17.8243 206.746 17.8757C206.588 17.9271 206.43 17.9571 206.263 17.97C206.097 17.9828 205.947 17.9743 205.798 17.9443C205.653 17.9143 205.524 17.8671 205.413 17.7943C205.302 17.7085 205.213 17.5885 205.14 17.43C205.076 17.2971 205.021 17.1214 204.965 16.9028C204.91 16.6843 204.888 16.41 204.897 16.0843C204.606 16.5728 204.291 16.95 203.94 17.2157C203.59 17.4771 203.257 17.6743 202.946 17.7985C202.583 17.9357 202.22 18.0171 201.853 18.0428C201.686 18.0428 201.502 17.9871 201.306 17.8714C201.11 17.7557 200.947 17.5757 200.811 17.3271C200.674 17.0785 200.589 16.7571 200.55 16.3628C200.508 15.9685 200.555 15.4928 200.683 14.9443C200.849 14.2028 201.11 13.5214 201.477 12.9128C201.844 12.3 202.245 11.7771 202.677 11.34C203.112 10.9071 203.539 10.5771 203.962 10.3543C204.384 10.1314 204.735 10.0328 205.012 10.0543C205.341 10.1143 205.674 10.1743 205.879 10.3071C206.383 10.6371 206.724 10.8728 206.75 11.6657C206.75 11.6914 206.72 11.82 206.72 11.8971C206.72 11.9743 206.703 12.12 206.669 12.33C206.635 12.5357 206.579 12.8143 206.511 13.17C206.442 13.5257 206.348 13.98 206.229 14.5414C206.208 14.6528 206.186 14.7514 206.169 14.8457C206.152 14.9357 206.135 15.03 206.118 15.12C206.101 15.21 206.079 15.3171 206.054 15.4414C206.028 15.5614 206.003 15.7157 205.964 15.9C205.956 16.0114 205.951 16.1271 205.96 16.2557C205.964 16.3843 205.99 16.5 206.024 16.6114C206.062 16.7228 206.122 16.8085 206.199 16.8771C206.276 16.9457 206.387 16.9757 206.536 16.9757C206.656 16.9757 206.814 16.8985 207.006 16.7443C207.198 16.59 207.403 16.3928 207.621 16.1528C207.839 15.9128 208.065 15.6514 208.3 15.3643C208.535 15.0771 208.752 14.7985 208.957 14.5285C209.162 14.2585 209.35 14.0228 209.504 13.8128C209.666 13.6028 209.786 13.4485 209.854 13.3543C209.952 13.2428 210.05 13.1785 210.144 13.1571C210.238 13.14 210.315 13.1657 210.362 13.2428C210.409 13.3114 210.422 13.4271 210.392 13.5685C210.362 13.7185 210.277 13.8857 210.131 14.0828L210.14 14.07ZM204.816 14.9143C204.875 14.67 204.944 14.3828 205.029 14.0571C205.115 13.7271 205.183 13.41 205.243 13.1057C205.298 12.8014 205.345 12.5485 205.375 12.3471C205.401 12.1457 205.413 11.9785 205.413 11.9228C205.401 11.4128 204.957 11.25 204.769 11.2071C204.602 11.1728 204.355 11.2285 204.026 11.5157C203.693 11.8071 203.313 12.3343 202.882 13.1057C202.702 13.4271 202.561 13.7657 202.45 14.1214C202.344 14.4814 202.271 14.82 202.233 15.1371C202.19 15.4543 202.186 15.7328 202.211 15.9685C202.237 16.2085 202.288 16.3628 202.361 16.4357C202.493 16.5685 202.647 16.6328 202.817 16.6243C202.988 16.62 203.159 16.5685 203.334 16.4743C203.509 16.3843 203.684 16.2643 203.859 16.1143C204.034 15.9643 204.192 15.8143 204.329 15.6557C204.466 15.4971 204.581 15.3514 204.671 15.2185C204.76 15.0814 204.811 14.9871 204.82 14.9228L204.816 14.9143Z" fill="#006241"/>
<path d="M223.918 14.1386C223.568 14.6614 223.175 15.1714 222.727 15.6643C222.283 16.1571 221.813 16.5986 221.314 16.9886C220.814 17.3743 220.306 17.6914 219.781 17.9314C219.26 18.1714 218.752 18.2914 218.257 18.3C218 18.3 217.714 18.24 217.416 18.12C217.112 17.9957 216.839 17.8071 216.587 17.55C216.34 17.2928 216.139 16.9543 215.989 16.5428C215.84 16.1271 215.793 15.6257 215.844 15.0343C215.887 14.55 216.032 14.04 216.284 13.4957C216.536 12.9557 216.843 12.4586 217.211 12.0086C217.578 11.5586 217.996 11.1814 218.457 10.8814C218.923 10.5814 219.388 10.4314 219.858 10.4271C220.306 10.4228 220.631 10.5343 220.836 10.7571C221.036 10.98 221.126 11.2586 221.105 11.5886C221.07 11.9571 220.972 12.2957 220.806 12.6043C220.635 12.9128 220.434 13.1914 220.199 13.4443C219.965 13.6971 219.717 13.92 219.452 14.1214C219.187 14.3271 218.936 14.5114 218.705 14.6786C218.449 14.8586 218.201 15.03 217.966 15.1886C217.732 15.3514 217.527 15.4971 217.352 15.6257C217.364 15.9214 217.42 16.17 217.518 16.3714C217.612 16.5728 217.732 16.7357 217.877 16.86C218.018 16.9843 218.18 17.07 218.363 17.1214C218.547 17.1728 218.735 17.1986 218.923 17.1986C219.324 17.1986 219.738 17.0657 220.174 16.8086C220.609 16.5514 221.032 16.2428 221.45 15.8743C221.865 15.51 222.253 15.1286 222.607 14.7386C222.966 14.3443 223.256 14.0057 223.491 13.7186C223.572 13.6243 223.658 13.5643 223.747 13.5471C223.837 13.53 223.905 13.5428 223.961 13.5814C224.016 13.6243 224.042 13.6971 224.042 13.7957C224.042 13.8943 224.004 14.01 223.918 14.1428V14.1386ZM219.371 11.4428C219.23 11.4428 219.059 11.5157 218.867 11.6614C218.675 11.8071 218.483 12.0086 218.295 12.2743C218.107 12.54 217.936 12.87 217.77 13.2557C217.608 13.6414 217.488 14.0828 217.411 14.58C217.552 14.4728 217.702 14.3657 217.868 14.25C218.035 14.1343 218.197 14.0143 218.359 13.8814C218.863 13.4871 219.213 13.1443 219.414 12.8443C219.61 12.5486 219.721 12.2914 219.743 12.0814C219.764 11.8543 219.738 11.6914 219.666 11.5928C219.597 11.4943 219.495 11.4428 219.367 11.4471L219.371 11.4428ZM220.789 6.93855C220.895 6.85284 221.011 6.86141 221.143 6.95141C221.271 7.0457 221.365 7.18713 221.429 7.3757C221.514 7.62427 221.523 7.81284 221.45 7.93713C221.382 8.06141 221.275 8.17284 221.134 8.26713C221.062 8.33141 220.929 8.41284 220.737 8.51998C220.545 8.62713 220.332 8.73855 220.101 8.85427C219.875 8.96998 219.649 9.06855 219.422 9.16284C219.2 9.25284 219.029 9.30427 218.914 9.31713C218.782 9.32998 218.684 9.31713 218.611 9.27427C218.538 9.2357 218.483 9.17998 218.44 9.12427C218.402 9.06427 218.372 8.99998 218.363 8.91855C218.351 8.84141 218.342 8.77713 218.342 8.71284C219.256 8.0657 219.896 7.60713 220.259 7.33284C220.468 7.17855 220.648 7.0457 220.789 6.93855Z" fill="#006241"/>
<path fill-rule="evenodd" clip-rule="evenodd" d="M211.865 4.80431C214.26 4.32431 216.438 5.84145 216.579 8.09145C216.668 9.56145 215.614 10.8815 214.119 11.1729C212.642 11.46 211.498 10.8215 211.024 9.44574C210.593 8.19002 211.493 6.84002 212.813 6.84859C213.206 6.85288 213.645 7.08002 213.961 7.32859C214.128 7.45717 214.674 8.00574 214.128 8.13859C213.902 8.19002 213.641 8.13859 213.453 8.01859C212.975 7.72288 212.625 8.01002 212.599 8.10859C212.518 8.43431 212.493 8.89716 212.668 9.14574C213.274 10.0072 214.683 9.82716 215.174 8.87574C215.763 7.72288 215.238 6.38574 214 6.01288C212.535 5.56717 211.242 5.96574 210.23 7.07574C209.205 8.20716 209.427 9.54859 209.973 10.77C210.405 11.7429 211.037 12.6429 211.673 13.5C213.201 15.5529 214.329 17.76 214.645 20.3357C214.691 20.7172 214.751 21.1072 214.726 21.4843C214.713 21.72 214.683 22.1486 214.435 22.17C214.179 22.1915 214.089 21.7672 214.017 21.5357C213.85 21.0257 213.761 20.49 213.624 19.9672C213.048 17.7557 211.835 15.9172 210.383 14.1857C209.623 13.2772 208.927 12.2486 208.453 11.1643C207.185 8.26288 208.752 5.43431 211.856 4.80859L211.865 4.80431Z" fill="#006241"/>
<path d="M211.438 14.9614C212.766 14.8929 214.371 14.6529 214.896 12.8057C215.11 12.0557 214.38 11.9572 214.265 12.39C213.867 13.8643 212.326 13.9329 211.318 13.9843C210.96 14.0014 211.075 14.9786 211.438 14.9614Z" fill="#006241"/>
</g>
</g>
<defs>
<filter id="filter0_d_113_13188" x="-10.08" y="-9.79289" width="199.793" height="46.5429" filterUnits="userSpaceOnUse" color-interpolation-filters="sRGB">
<feFlood flood-opacity="0" result="BackgroundImageFix"/>
<feColorMatrix in="SourceAlpha" type="matrix" values="0 0 0 0 0 0 0 0 0 0 0 0 0 0 0 0 0 0 127 0" result="hardAlpha"/>
<feOffset/>
<feGaussianBlur stdDeviation="5.04"/>
<feColorMatrix type="matrix" values="0 0 0 0 0.137255 0 0 0 0 0.121569 0 0 0 0 0.12549 0 0 0 0.5 0"/>
<feBlend mode="normal" in2="BackgroundImageFix" result="effect1_dropShadow_113_13188"/>
<feBlend mode="normal" in="SourceGraphic" in2="effect1_dropShadow_113_13188" result="shape"/>
</filter>
<filter id="filter1_d_113_13188" x="178.251" y="-8.46" width="59.7014" height="51.4114" filterUnits="userSpaceOnUse" color-interpolation-filters="sRGB">
<feFlood flood-opacity="0" result="BackgroundImageFix"/>
<feColorMatrix in="SourceAlpha" type="matrix" values="0 0 0 0 0 0 0 0 0 0 0 0 0 0 0 0 0 0 127 0" result="hardAlpha"/>
<feOffset/>
<feGaussianBlur stdDeviation="5.04"/>
<feColorMatrix type="matrix" values="0 0 0 0 0.137255 0 0 0 0 0.121569 0 0 0 0 0.12549 0 0 0 0.5 0"/>
<feBlend mode="normal" in2="BackgroundImageFix" result="effect1_dropShadow_113_13188"/>
<feBlend mode="normal" in="SourceGraphic" in2="effect1_dropShadow_113_13188" result="shape"/>
</filter>
<clipPath id="clip0_113_13188">
<rect width="229" height="34" fill="white" transform="translate(0 0.294312)"/>
</clipPath>
</defs>
</svg>
