<svg width="206" height="37" viewBox="0 0 206 37" fill="none" xmlns="http://www.w3.org/2000/svg">
<path d="M11.6543 1.72571H17.6781V7.83558H11.6543V1.72571Z" fill="#015A58"/>
<path d="M11.6543 30.8491H17.7182V36.9998H11.6543V30.8491Z" fill="#015A58"/>
<path d="M25.5488 15.6155H32.8577V23.0695H25.5488V15.6155Z" fill="#015A58"/>
<path d="M0.25 16.6334H5.02885V21.4806H0.25V16.6334Z" fill="#015A58"/>
<path d="M18.6035 8.60938H25.5509L25.5911 15.6968H18.6035V8.60938Z" fill="#015A58"/>
<path d="M18.6035 23.1102H25.5911V30.1977H18.6035V23.1102Z" fill="#015A58"/>
<path d="M5.63086 9.42395H10.6908V14.5563H5.63086V9.42395Z" fill="#015A58"/>
<path d="M5.91211 23.5995H10.9721V28.7725H5.91211V23.5995Z" fill="#015A58"/>
<path d="M105.492 18.1283H116.371V11.2803C116.371 10.0351 116.247 9.28807 116.125 8.91455C116.001 8.66552 115.753 8.4165 115.383 8.16748C114.887 7.91846 114.393 7.79394 113.775 7.79394H112.909V7.17139H123.048V7.79394H122.182C121.564 7.79394 121.07 7.91846 120.575 8.16748C120.204 8.29198 119.957 8.66552 119.833 9.03906C119.71 9.41259 119.586 10.1597 119.586 11.2803V26.5951C119.586 27.8402 119.71 28.5874 119.833 28.9608C119.957 29.2099 120.204 29.4589 120.575 29.7079C121.07 29.9569 121.564 30.0815 122.182 30.0815H123.048V30.704H112.909V30.2059H113.775C114.765 30.2059 115.506 29.9569 115.877 29.3344C116.125 28.9608 116.371 28.0892 116.371 26.7197V19.498H105.492V26.7197C105.492 27.9648 105.615 28.7118 105.739 29.0854C105.862 29.3344 106.11 29.5834 106.48 29.8325C106.975 30.0815 107.47 30.2059 108.088 30.2059H108.954V30.8285H98.815V30.2059H99.6805C100.67 30.2059 101.411 29.9569 101.783 29.3344C102.029 28.9608 102.153 28.0892 102.153 26.7197V11.4048C102.153 10.1597 102.029 9.41259 101.906 9.03906C101.783 8.79003 101.535 8.54101 101.164 8.29198C100.67 7.91846 100.175 7.79394 99.5569 7.79394H98.6914V7.17139H108.83V7.79394H107.964C107.47 7.79394 106.852 7.91846 106.357 8.16748C105.986 8.29198 105.739 8.66552 105.615 9.03906C105.492 9.41259 105.368 10.1597 105.368 11.2803V18.1283H105.492Z" fill="#015A58"/>
<path d="M128.917 14.4833V21.3255H132.469C133.416 21.3255 134.008 21.1988 134.363 20.8187C134.837 20.4386 135.074 19.6783 135.074 18.7913H135.548V24.8733H135.074C134.955 23.9863 134.837 23.4796 134.718 23.2261C134.6 22.9727 134.363 22.7192 134.008 22.4659C133.653 22.3392 133.179 22.2125 132.469 22.2125H128.917V27.9144C128.917 28.6746 128.917 29.1815 129.035 29.3081C129.154 29.4348 129.154 29.5615 129.39 29.6882C129.509 29.815 129.864 29.815 130.337 29.815H133.061C134.008 29.815 134.6 29.6882 135.074 29.5615C135.548 29.4348 135.903 29.1815 136.258 28.8013C136.731 28.2944 137.324 27.5342 137.796 26.3938H138.27L136.85 30.8286H124.181V30.3217H124.773C125.128 30.3217 125.483 30.1951 125.838 30.0684C126.075 29.9417 126.312 29.6882 126.312 29.4348C126.43 29.1815 126.43 28.5479 126.43 27.7876V16.3839C126.43 15.2435 126.312 14.61 126.075 14.3566C125.72 13.9764 125.247 13.8498 124.654 13.8498H124.062V13.3429H136.731L136.968 17.1442H136.494C136.376 16.2571 136.139 15.6236 135.903 15.2435C135.665 14.8634 135.429 14.61 134.955 14.4833C134.6 14.3566 134.127 14.2298 133.298 14.2298H128.917V14.4833Z" fill="#015A58"/>
<path d="M150.887 25.041H144.222L143.111 27.7501C142.865 28.3658 142.741 28.8584 142.741 29.2278C142.741 29.4741 142.865 29.7203 143.111 29.9667C143.359 30.2129 143.852 30.336 144.716 30.336V30.8286H139.285V30.336C140.026 30.2129 140.519 30.0898 140.643 29.8435C141.013 29.4741 141.507 28.6121 142.124 27.3807L148.295 13.3429H148.789L154.59 27.5039C155.084 28.6121 155.454 29.351 155.948 29.7203C156.318 30.0898 156.935 30.2129 157.552 30.336V30.8286H150.764V30.336C151.505 30.336 151.874 30.2129 152.122 29.9667C152.369 29.7203 152.492 29.5972 152.492 29.2278C152.492 28.8584 152.369 28.2427 151.998 27.5039L150.887 25.041ZM150.394 24.056L147.555 17.1602L144.593 24.056H150.394Z" fill="#015A58"/>
<path d="M172.416 25.9225L172.774 26.0483L171.341 30.8286H158.566V30.3254H159.163C159.88 30.3254 160.358 30.0738 160.716 29.5707C160.835 29.3191 160.954 28.6901 160.954 27.6836V16.3621C160.954 15.2298 160.835 14.6008 160.596 14.3492C160.238 13.9719 159.76 13.8461 159.163 13.8461H158.566V13.3429H165.969V13.7203C165.134 13.7203 164.536 13.8461 164.178 13.9719C163.819 14.0977 163.581 14.3492 163.462 14.6008C163.342 14.8524 163.223 15.4814 163.223 16.4879V27.4321C163.223 28.1869 163.342 28.6901 163.462 28.9417C163.581 29.0675 163.701 29.1933 163.939 29.3191C164.178 29.4449 164.775 29.4449 165.849 29.4449H167.043C168.357 29.4449 169.193 29.3191 169.67 29.1933C170.148 28.9417 170.625 28.6901 171.103 28.1869C171.581 27.8094 172.058 27.0547 172.416 25.9225Z" fill="#015A58"/>
<path d="M185.725 13.4687L185.968 17.4942H185.482C185.361 16.7394 185.239 16.2362 185.117 15.9846C184.875 15.4814 184.51 15.104 184.146 14.8524C183.66 14.6008 183.175 14.475 182.446 14.475H180.018V27.8094C180.018 28.9417 180.139 29.5707 180.382 29.8223C180.746 30.1996 181.232 30.3254 181.839 30.3254H182.446V30.8286H175.16V30.3254H175.768C176.496 30.3254 176.981 30.0738 177.346 29.6965C177.589 29.4449 177.589 28.8159 177.589 27.8094V14.475H175.524C174.795 14.475 174.188 14.475 173.824 14.6008C173.339 14.7266 172.975 15.104 172.731 15.4814C172.489 15.9846 172.246 16.6136 172.246 17.3684H171.76L172.002 13.3429H185.725V13.4687Z" fill="#015A58"/>
<path d="M192.112 21.711H200.12V16.7152C200.12 15.8409 200.12 15.2163 199.995 14.9666C199.87 14.7168 199.744 14.5919 199.495 14.467C199.119 14.2172 198.744 14.2172 198.368 14.2172H197.743V13.7176H205.25V14.0923H204.499C204.123 14.0923 203.749 14.2172 203.373 14.3421C203.123 14.467 202.873 14.7168 202.873 14.9666C202.747 15.2163 202.747 15.8409 202.747 16.5902V27.831C202.747 28.7053 202.747 29.3299 202.873 29.5796C202.998 29.8295 203.123 29.9543 203.373 30.0792C203.749 30.329 204.123 30.329 204.499 30.329H205.125V30.8286H197.617V30.329H198.243C198.994 30.329 199.495 30.0792 199.744 29.7045C199.995 29.4547 200.12 28.8302 200.12 27.7062V22.4605H192.112V27.7062C192.112 28.5805 192.112 29.2049 192.237 29.4547C192.362 29.7045 192.488 29.8295 192.738 29.9543C193.113 30.2042 193.489 30.2042 193.864 30.2042H194.489V30.7037H186.982V30.2042H187.608C188.359 30.2042 188.859 29.9543 189.234 29.5796C189.485 29.3299 189.485 28.7053 189.485 27.5813V16.3405C189.485 15.4662 189.485 14.8416 189.359 14.5919C189.234 14.342 189.11 14.2172 188.859 14.0923C188.483 13.8425 188.109 13.8425 187.733 13.8425H187.107V13.3429H194.615V14.0923H193.989C193.613 14.0923 193.238 14.2172 192.863 14.3421C192.613 14.467 192.362 14.7168 192.362 14.9666C192.237 15.2163 192.237 15.8409 192.237 16.5902V21.711H192.112Z" fill="#015A58"/>
<path d="M41.8155 7.17139V7.79394C40.9556 7.79394 40.3414 7.91846 40.0957 7.91846C39.6042 8.04297 39.2357 8.4165 39.2357 9.03906C39.2357 9.28807 39.3585 9.66161 39.4814 10.2842C39.7271 10.7822 40.0957 11.6538 40.5871 12.8989L45.9925 25.101L50.9065 11.9028C51.1522 11.2803 51.275 10.7822 51.3979 10.4087C51.5208 10.0351 51.5208 9.66161 51.5208 9.41259C51.5208 8.79003 51.275 8.29198 50.6608 8.04297C50.2922 7.91846 49.8008 7.79394 48.9408 7.79394V7.17139H56.0662V7.79394C55.3291 7.91846 54.8377 8.04297 54.4691 8.4165C53.9777 8.91455 53.3634 9.78613 52.872 11.1557L45.2554 30.8285H44.764L36.2872 11.5292C35.5502 9.91064 34.9359 8.91455 34.5674 8.54101C34.1988 8.16748 33.4617 7.91846 32.7246 7.91846V7.17139H41.8155Z" fill="#015A58"/>
<path d="M53.0215 30.329C54.0527 30.2042 54.6256 30.0792 54.9694 29.8295C55.3131 29.5796 55.4277 28.9552 55.4277 27.9559V16.2156C55.4277 15.2163 55.3131 14.5919 54.9694 14.3421C54.6256 14.0923 54.0527 13.8425 53.0215 13.8425V13.3429H60.1254V13.8425C59.0943 13.8425 58.5214 14.0923 58.1775 14.3421C57.8338 14.5919 57.7192 15.2163 57.7192 16.2156V27.9559C57.7192 28.9552 57.8338 29.5796 58.1775 29.8295C58.5214 30.0792 59.0943 30.2042 60.1254 30.329V30.8286H53.0215V30.329Z" fill="#015A58"/>
<path d="M67.3079 13.3429V13.832C66.678 13.832 66.174 13.832 65.9221 13.9543C65.5441 14.0766 65.2922 14.3211 65.2922 14.8103C65.2922 15.0547 65.4182 15.2993 65.5441 15.6661C65.6702 16.033 66.0481 16.6444 66.426 17.6226L70.5834 26.5489L74.3629 16.7667C74.4888 16.2775 74.6149 16.033 74.7408 15.6661C74.8668 15.4216 74.8668 15.177 74.8668 14.9326C74.8668 14.4434 74.6149 14.0766 74.2369 13.9543C73.985 13.832 73.607 13.832 72.9771 13.832V13.3429H78.3943V13.832C77.8903 13.9543 77.3864 14.0766 77.1344 14.3211C76.7565 14.688 76.3786 15.2993 75.8746 16.2775L69.9536 30.8286H69.5755L63.0246 16.5221C62.5206 15.2993 62.0167 14.5657 61.6388 14.3211C61.2607 14.0766 60.8828 13.832 60.127 13.832V13.3429H67.3079Z" fill="#015A58"/>
<path d="M73.3184 30.8286V30.3395C73.9439 30.2172 74.4444 29.9726 74.8198 29.6058C75.1951 29.239 75.6956 28.0162 76.5715 26.0597L82.0766 13.3429H82.5772L89.2084 28.0162C89.7089 28.9945 89.9592 29.6058 90.2093 29.8504C90.4596 30.0949 90.9601 30.2172 91.5857 30.3395V30.8286H84.8293V30.3395C85.58 30.2172 86.0804 30.2172 86.3307 30.0949C86.5809 29.9726 86.7061 29.7281 86.7061 29.3612C86.7061 29.239 86.7061 28.9945 86.5809 28.7499C86.4558 28.3831 86.3307 28.1385 86.2056 27.7717L85.0795 25.3261H78.198C77.5724 27.038 77.0719 28.0162 76.9468 28.3831C76.8217 28.7499 76.6966 28.9945 76.6966 29.239C76.6966 29.7281 76.8217 29.9726 77.197 30.0949C77.4473 30.2172 77.8227 30.2172 78.4482 30.3395V30.8286H73.3184ZM84.7042 24.2256L81.7013 17.1335L78.6985 24.2256H84.7042Z" fill="#015A58"/>
</svg>
