<svg width="493" height="73" viewBox="0 0 493 73" fill="none" xmlns="http://www.w3.org/2000/svg">
<g clip-path="url(#clip0_406_38677)">
<path d="M23.3068 0.77356H15.2593V8.74152H23.3068V0.77356Z" fill="#AB3E24"/>
<path d="M23.3131 38.7202H15.2656V46.6882H23.3131V38.7202Z" fill="#AB3E24"/>
<path d="M43.5363 18.8785H33.7666V28.5517H43.5363V18.8785Z" fill="#AB3E24"/>
<path d="M33.8173 9.73828H24.5161V18.9475H33.8173V9.73828Z" fill="#AB3E24"/>
<path d="M33.8173 28.6395H24.5161V37.8488H33.8173V28.6395Z" fill="#AB3E24"/>
<path d="M6.40761 20.1637H0V26.508H6.40761V20.1637Z" fill="#AB3E24"/>
<path d="M13.9612 10.7791H7.18005V17.4932H13.9612V10.7791Z" fill="#AB3E24"/>
<path d="M14.3411 29.2664H7.55994V35.9805H14.3411V29.2664Z" fill="#AB3E24"/>
<path d="M55.5348 8.05823V8.91709C54.3634 8.92963 53.5657 9.00485 53.1414 9.14277C52.3943 9.38727 52.0207 9.87625 52.0207 10.616C52.0207 10.9921 52.1474 11.5187 52.407 12.1958C52.6792 12.8729 53.1858 14.0138 53.9139 15.6062L61.2143 31.7113L67.8498 14.2771C68.1411 13.506 68.3564 12.8603 68.5083 12.3337C68.6603 11.8071 68.7363 11.3746 68.7363 11.0486C68.7363 10.1584 68.35 9.55653 67.5712 9.24308C67.1154 9.06128 66.3619 8.9547 65.3108 8.92963V8.07077H74.8716V8.86067C73.8839 8.99232 73.1557 9.25562 72.6809 9.65057C71.9654 10.2399 71.2626 11.4184 70.5598 13.1988L60.2265 39.2154H59.5174L48.0002 13.7881C47.0251 11.6379 46.24 10.2963 45.6511 9.76968C45.0749 9.24308 44.2202 8.94216 43.0931 8.86693V8.07703H55.5285L55.5348 8.05823Z" fill="#AB3E24"/>
<path d="M70.1102 38.0305C71.5348 37.9302 72.4593 37.7234 72.8835 37.4036C73.3077 37.0777 73.5166 36.2439 73.5166 34.896V19.4616C73.5166 18.1827 73.3077 17.3678 72.8835 17.0042C72.4593 16.628 71.5412 16.4086 70.1102 16.3459V15.7002H80.4751V16.3459C79.0505 16.4149 78.1261 16.6343 77.7019 17.0042C77.2776 17.3678 77.0687 18.1827 77.0687 19.4616V34.896C77.0687 36.2376 77.2776 37.0777 77.7019 37.4036C78.1261 37.7234 79.0505 37.9302 80.4751 38.0305V38.6575H70.1102V38.0305Z" fill="#AB3E24"/>
<path d="M89.7002 15.7064V16.3521C88.8201 16.3647 88.2249 16.4211 87.9083 16.5214C87.3448 16.7032 87.0662 17.0731 87.0662 17.6247C87.0662 17.9069 87.1612 18.3018 87.3575 18.8096C87.5664 19.3174 87.94 20.17 88.4909 21.3674L93.9614 33.4416L98.9444 20.3643C99.1597 19.7876 99.3243 19.3049 99.4383 18.9099C99.5522 18.515 99.6092 18.189 99.6092 17.9445C99.6092 17.28 99.318 16.8286 98.7354 16.5904C98.3935 16.4524 97.83 16.3772 97.0449 16.3521V15.7064H104.212V16.302C103.472 16.4023 102.921 16.6029 102.572 16.8975C102.041 17.3364 101.509 18.2266 100.983 19.5556L93.2333 39.0712H92.7014L84.0651 19.9945C83.3369 18.377 82.7481 17.374 82.3049 16.979C81.8743 16.5841 81.2348 16.3584 80.3927 16.302V15.7064H89.7192H89.7002Z" fill="#AB3E24"/>
<path d="M113.425 29.7491L109.373 20.1951L105.371 29.7491H113.431H113.425ZM98.3049 38.6574V38.0305C99.204 37.9302 99.8752 37.5917 100.325 37.0149C100.781 36.4382 101.553 34.8772 102.655 32.3257L109.961 15.299H110.645L119.37 34.965C119.953 36.2752 120.415 37.0839 120.757 37.4036C121.111 37.7108 121.694 37.9177 122.517 38.0305V38.6574H113.602V38.0305C114.628 37.9365 115.286 37.8299 115.584 37.7045C115.882 37.5729 116.027 37.2469 116.027 36.7391C116.027 36.5698 115.97 36.2689 115.856 35.8426C115.742 35.4163 115.578 34.965 115.375 34.4885L113.919 31.1534H104.751C103.839 33.4228 103.288 34.8082 103.111 35.3223C102.94 35.8175 102.851 36.2125 102.851 36.5071C102.851 37.0902 103.092 37.4977 103.573 37.7296C103.87 37.8613 104.428 37.9678 105.251 38.0368V38.6637H98.3049V38.6574Z" fill="#AB3E24"/>
<path d="M169.162 37.9052C169.162 38.1936 168.846 38.3378 168.206 38.3378H167.706C167.282 38.3378 166.509 38.3252 165.388 38.2939C164.268 38.2626 163.407 38.25 162.799 38.25C161.887 38.25 160.83 38.2626 159.614 38.2939H156.847C156.208 38.2939 155.891 38.1623 155.891 37.9052C155.891 37.6106 156.328 37.4727 157.208 37.4727C158.753 37.4727 159.696 37.3159 160.026 36.9962C160.178 36.852 160.254 35.8803 160.254 34.0874V11.5878C160.254 11.5878 160.089 12.1206 159.753 13.1049C158.544 16.6093 156.784 21.8753 154.479 28.9154L152.345 35.8176C151.921 37.178 151.617 37.8613 151.434 37.8613C151.225 37.8613 150.997 37.5103 150.75 36.8207C149.87 34.1877 147.388 27.6177 143.297 17.1045L141.48 12.4592C141.512 13.0046 141.525 13.7568 141.525 14.716V28.8276C141.525 34.125 141.569 36.8019 141.664 36.8646C141.873 37.2407 142.601 37.4288 143.848 37.4288C144.849 37.4288 145.349 37.5604 145.349 37.8175C145.349 38.1058 145.032 38.25 144.393 38.25C144 38.25 143.633 38.2375 143.304 38.2061C142.88 38.1748 142.5 38.1622 142.17 38.1622L136.94 38.2939C136.396 38.2939 136.124 38.1623 136.124 37.9052C136.124 37.6106 136.991 37.4538 138.713 37.4288C139.441 37.4288 139.866 37.3159 139.986 37.0777C140.106 36.8458 140.17 36.0935 140.17 34.8208V14.0201C140.17 11.6191 140.138 10.3151 140.081 10.1083C139.954 9.70704 139.701 9.4312 139.308 9.28701C138.916 9.14282 138.067 9.02998 136.763 8.94222C136.276 8.91087 136.035 8.77922 136.035 8.55353C136.035 8.23381 136.472 8.07709 137.352 8.07709C137.472 8.07709 137.732 8.08962 138.124 8.12097H140.486C142.272 8.12097 143.532 8.10216 144.26 8.07709C144.412 8.45323 145.305 10.7289 146.944 14.8978C147.641 16.6343 149.591 21.6997 152.808 30.094C153.384 28.2133 153.973 26.3576 154.58 24.5333L159.399 10.1584C159.671 9.31836 159.912 8.62249 160.127 8.07709L166.94 8.0332C167.94 8.0332 168.516 8.07709 168.668 8.16485C168.82 8.25262 168.896 8.38427 168.896 8.55353C168.896 8.84191 168.637 8.9861 168.124 8.9861C167.275 8.9861 166.699 9.01744 166.395 9.07387C165.667 9.19298 165.167 9.42493 164.895 9.76973C164.743 9.97034 164.667 11.6693 164.667 14.8477V35.0403C164.667 36.2 164.787 36.8771 165.028 37.0777C165.42 37.3347 166.408 37.4727 167.978 37.4727H168.25C168.858 37.4727 169.156 37.6168 169.156 37.9052" fill="#AB3E24"/>
<path d="M188.683 32.9777C188.683 33.0655 188.657 33.5983 188.613 34.5763C188.569 35.5543 188.543 36.4884 188.543 37.3786V38.4506C186.315 38.344 181.908 38.2876 175.317 38.2876C174.519 38.2876 173.74 38.3001 172.968 38.3189H171.055C170.625 38.3189 170.41 38.2249 170.41 38.0243C170.41 37.8926 170.479 37.8174 170.612 37.7986C170.682 37.7986 171.112 37.7673 171.904 37.6983C172.493 37.6544 172.847 37.5353 172.961 37.341C173.101 37.1466 173.164 36.6388 173.164 35.8113V17.512C173.164 16.8788 173.063 16.5152 172.854 16.4023C172.67 16.2707 172.056 16.208 171.011 16.208C170.65 16.208 170.467 16.1077 170.467 15.9134C170.467 15.719 170.714 15.6187 171.214 15.6187L177.039 15.6501C177.241 15.6501 178.527 15.6375 180.889 15.6187H185.663C186.34 15.6187 186.967 15.5748 187.537 15.4871C187.581 16.4211 187.682 17.7126 187.847 19.3676L187.98 20.7656C188.005 20.8722 188.018 21.0164 188.018 21.1919C188.018 21.4113 187.917 21.5179 187.708 21.5179C187.461 21.5179 187.277 21.242 187.163 20.7029C186.733 18.747 186.03 17.512 185.048 16.9916C184.32 16.603 182.414 16.4023 179.318 16.4023H176.526V25.9438H177.343C179.888 25.9438 181.433 25.762 181.978 25.3922C182.547 25.0223 182.934 23.944 183.136 22.1636C183.181 21.706 183.307 21.4803 183.51 21.4803C183.757 21.4803 183.89 21.6746 183.89 22.0696C183.89 22.4645 183.864 23.035 183.82 23.7936C183.776 24.5521 183.75 25.1289 183.75 25.5175C183.75 27.8434 183.795 29.4357 183.89 30.3071C183.909 30.5202 183.921 30.7083 183.921 30.8588C183.921 31.1409 183.795 31.2851 183.548 31.2851C183.39 31.2851 183.276 31.1973 183.206 31.0218C183.162 30.8274 183.067 30.2193 182.934 29.1975C182.75 27.9186 182.193 27.1287 181.262 26.8215C180.851 26.6898 179.787 26.6272 178.058 26.6272H176.526V37.5729C181.528 37.5729 184.46 37.4789 185.321 37.2783C186.821 36.9523 187.67 35.5606 187.879 33.1094C187.923 32.5702 188.075 32.2944 188.322 32.2944C188.55 32.2944 188.664 32.5201 188.664 32.9777" fill="#AB3E24"/>
<path d="M212.338 26.9844C212.338 30.8086 210.938 33.7801 208.146 35.9116C206.101 37.4788 203.366 38.2562 199.934 38.2562C199.845 38.2562 199.434 38.2436 198.706 38.2248C198.003 38.1998 196.964 38.1872 195.603 38.1872H193.9L191.203 38.2248C191.044 38.2436 190.873 38.2562 190.696 38.2562C190.266 38.2562 190.05 38.1496 190.05 37.9302C190.05 37.7359 190.411 37.6355 191.139 37.6355C192.07 37.6355 192.646 37.4726 192.874 37.1466C192.963 36.9961 193.013 36.5823 193.013 35.9116V18.3582C193.013 17.2925 192.919 16.6719 192.741 16.5026C192.577 16.3271 192 16.2393 191 16.2393C190.475 16.2393 190.215 16.1202 190.215 15.882C190.215 15.7064 190.405 15.6187 190.791 15.6187C190.766 15.6187 191.019 15.6312 191.538 15.65C192.064 15.6751 192.57 15.6813 193.077 15.6813H196.724C200.814 15.6813 203.714 15.9509 205.417 16.4963C207.488 17.1483 209.153 18.4397 210.425 20.3706C211.698 22.2826 212.338 24.4894 212.338 26.9844ZM208.52 26.8528C208.52 23.2481 207.779 20.6088 206.304 18.935C204.828 17.2423 202.517 16.396 199.383 16.396C197.857 16.396 196.939 16.5465 196.623 16.8537C196.49 17.0041 196.42 17.5244 196.42 18.4146V35.7423C196.42 36.3504 196.433 36.7203 196.452 36.8456C196.496 36.9773 196.604 37.0839 196.762 37.1716C197.306 37.4287 198.452 37.5603 200.206 37.5603C202.663 37.5603 204.638 36.7328 206.133 35.0903C207.728 33.3475 208.52 30.6017 208.52 26.8465" fill="#AB3E24"/>
<path d="M223.589 37.993C223.589 38.1685 223.45 38.25 223.184 38.25H222.842C222.703 38.1873 221.158 38.1497 218.207 38.1497C217.637 38.1497 217.074 38.1748 216.504 38.2187C216.206 38.2375 215.757 38.25 215.143 38.25C214.845 38.25 214.699 38.1497 214.699 37.9554C214.699 37.7798 214.991 37.6858 215.586 37.6607C216.498 37.6356 217.029 37.5416 217.188 37.3661C217.346 37.1717 217.428 36.5448 217.428 35.4791V18.3458C217.428 17.28 217.371 16.6845 217.257 16.5591C217.118 16.3397 216.498 16.208 215.383 16.1641C214.953 16.1453 214.737 16.0576 214.737 15.9008C214.737 15.7065 214.877 15.6062 215.149 15.6062L219.752 15.6689C220.094 15.6689 220.752 15.6564 221.727 15.6375L223.019 15.6062C223.386 15.6062 223.564 15.7065 223.564 15.9008C223.564 16.0764 223.063 16.183 222.063 16.2268C221.493 16.2519 221.145 16.3459 221.006 16.5215C220.892 16.697 220.835 17.1484 220.835 17.8881V35.2847C220.835 36.526 220.892 37.1968 221.006 37.3034C221.259 37.5416 221.993 37.6795 223.222 37.7297C223.475 37.7297 223.595 37.8174 223.595 37.993" fill="#AB3E24"/>
<path d="M245.192 30.9903C245.192 30.9465 245.173 31.2411 245.123 31.868C245.034 33.1281 244.984 34.3443 244.984 35.5166C244.984 35.6482 245.003 35.9178 245.053 36.3316C245.098 36.7203 245.123 37.203 245.123 37.7672V38.0618C245.123 38.3439 245.034 38.4819 244.851 38.4819C244.667 38.4819 244.509 38.3189 244.369 37.9929C244.053 37.2782 243.736 36.808 243.413 36.5886C241.78 37.9615 239.811 38.6386 237.519 38.6386C234.175 38.6386 231.402 37.5352 229.205 35.316C227.021 33.0779 225.932 30.2694 225.932 26.8778C225.932 23.4863 226.932 20.6903 228.933 18.54C230.953 16.3709 233.555 15.2864 236.74 15.2864C237.898 15.2864 238.817 15.3867 239.5 15.581C240.203 15.7566 241.071 16.1264 242.09 16.6844C242.59 16.9665 242.964 17.1107 243.217 17.1107C243.42 17.1107 243.616 16.9351 243.8 16.5903C244.097 15.9822 244.331 15.6751 244.515 15.6751C244.699 15.6751 244.787 15.7628 244.787 15.9384C244.787 16.0261 244.762 16.164 244.718 16.3584C244.464 17.399 244.344 19.355 244.344 22.2199C244.344 22.6337 244.312 22.8719 244.243 22.9409C244.173 23.0036 244.084 23.0412 243.97 23.0412C243.743 23.0412 243.597 22.8343 243.527 22.4206C243.23 20.684 242.812 19.3926 242.267 18.5463C241.153 16.8098 239.405 15.9446 237.018 15.9446C235.176 15.9446 233.726 16.5276 232.656 17.7C230.725 19.8064 229.762 22.8907 229.762 26.9531C229.762 30.5766 230.56 33.3914 232.143 35.3912C233.53 37.1277 235.372 37.9929 237.664 37.9929C238.848 37.9929 239.925 37.7233 240.906 37.1779C241.881 36.6137 242.634 35.8551 243.154 34.896C243.743 33.7863 244.167 32.5827 244.414 31.2787C244.502 30.7521 244.654 30.4951 244.857 30.4951C245.085 30.4951 245.199 30.6581 245.199 30.9841" fill="#AB3E24"/>
<path d="M269.804 38.0243C269.804 38.2186 269.633 38.3189 269.291 38.3189C269.063 38.3189 268.86 38.3064 268.677 38.2876L264.346 38.2249L260.015 38.2876C259.857 38.3064 259.686 38.3189 259.508 38.3189C259.052 38.3189 258.824 38.2124 258.824 37.9929C258.824 37.7547 259.135 37.6356 259.749 37.6356C261.75 37.6168 262.744 37.4225 262.744 37.0526C262.744 37.0275 262.718 36.946 262.674 36.7893L262.402 35.9116L262.231 35.454C262.028 34.7832 261.528 33.2912 260.73 30.9904H253.436C252.075 34.4635 251.391 36.4633 251.391 36.9836C251.391 37.2908 251.524 37.4726 251.796 37.5353C251.866 37.5541 252.436 37.598 253.5 37.667C254.158 37.692 254.487 37.7986 254.487 37.9929C254.487 38.2124 254.19 38.3189 253.601 38.3189C252.556 38.3189 251.334 38.2751 249.954 38.1873C249.612 38.1685 249.264 38.1559 248.896 38.1559C248.529 38.1559 248.181 38.181 247.839 38.2249C247.655 38.2437 247.51 38.2562 247.396 38.2562C247.079 38.2562 246.921 38.1622 246.921 37.9679C246.921 37.7735 247.276 37.6607 247.978 37.6419C248.707 37.6231 249.226 37.5228 249.542 37.3472C249.865 37.1529 250.112 36.7956 250.296 36.2752C253.227 28.2885 255.608 21.869 257.451 17.0292C257.495 16.7659 257.59 16.4776 257.723 16.1516L257.894 15.5623C257.963 15.3241 258.052 15.205 258.166 15.205C258.236 15.205 258.293 15.2676 258.337 15.4056C258.635 16.2519 259.306 18.0198 260.35 20.7154C261.167 22.8218 263.2 28.1129 266.448 36.5761C266.631 37.0526 266.859 37.3535 267.125 37.4914C267.423 37.6231 268.012 37.6983 268.898 37.7171C269.487 37.7422 269.785 37.8488 269.785 38.0431M260.534 30.2444C260.167 29.2664 259.565 27.649 258.723 25.3922L257.09 20.9286C256.134 23.3171 254.988 26.4203 253.645 30.2444H260.534Z" fill="#AB3E24"/>
<path d="M288.52 37.2782C288.52 38.1872 287.728 38.6449 286.133 38.6449C284.36 38.6449 282.973 37.9365 281.973 36.5259C281.542 35.9178 281.257 35.3348 281.118 34.7643C281.004 34.2001 280.821 32.7645 280.574 30.4638C280.441 29.072 279.972 28.0941 279.174 27.5361C278.383 26.9531 277.085 26.6334 275.287 26.5895V36.8457C275.287 37.2845 275.648 37.5541 276.376 37.6606C276.578 37.6857 277.104 37.7045 277.946 37.7233C278.244 37.7233 278.389 37.8111 278.389 37.9866C278.389 38.181 278.193 38.2813 277.813 38.2813H277.402C277.199 38.2562 276.211 38.2437 274.438 38.2437C274.096 38.2437 273.52 38.2562 272.697 38.2813H269.804C269.303 38.2813 269.056 38.181 269.056 37.9866C269.056 37.8362 269.386 37.7484 270.044 37.7233C271.114 37.6982 271.69 37.5729 271.785 37.3284C271.88 37.2218 271.925 36.7955 271.925 36.0558V18.0761C271.925 17.2047 271.823 16.6844 271.621 16.5151C271.437 16.3396 270.855 16.2456 269.88 16.2205C269.31 16.2205 269.025 16.1202 269.025 15.9258C269.025 15.7064 269.208 15.5999 269.569 15.5999C269.639 15.5999 269.74 15.6124 269.873 15.6312L274.407 15.7315C274.863 15.7315 275.496 15.719 276.312 15.7002C277.224 15.6563 277.857 15.6375 278.225 15.6375C280.339 15.6375 282.005 16.0951 283.233 17.0041C284.48 17.8943 285.107 19.1105 285.107 20.6527C285.107 22.1949 284.474 23.4299 283.201 24.4329C281.929 25.4109 280.2 25.9877 278.022 26.1569C277.819 26.1757 277.705 26.2134 277.68 26.2572C277.68 26.345 277.794 26.3889 278.022 26.3889C280.409 26.7776 282.043 27.5863 282.929 28.8025C283.834 29.9999 284.442 32.1689 284.734 35.316C284.917 37.0964 285.557 37.9866 286.646 37.9866C286.988 37.9866 287.159 37.9177 287.159 37.7923C287.159 37.7672 287.152 37.7484 287.127 37.7296C287.013 37.4914 286.956 37.297 286.956 37.1403C286.956 36.6889 287.203 36.457 287.703 36.457C288.248 36.457 288.52 36.7328 288.52 37.272M281.46 20.9599C281.46 17.8567 280.048 16.302 277.237 16.302C276.483 16.302 275.977 16.4023 275.705 16.5966C275.432 16.791 275.293 17.142 275.293 17.6373V25.9124C277.478 25.9312 279.041 25.5551 279.997 24.7715C280.979 23.9878 281.46 22.7215 281.46 20.9599Z" fill="#AB3E24"/>
<path d="M307.47 32.9777C307.47 33.0655 307.445 33.5983 307.401 34.5763C307.357 35.5543 307.331 36.4884 307.331 37.3786V38.4506C305.102 38.344 300.696 38.2876 294.111 38.2876C293.313 38.2876 292.528 38.3001 291.762 38.3189H289.85C289.419 38.3189 289.204 38.2249 289.204 38.0243C289.204 37.8926 289.273 37.8174 289.406 37.7986C289.476 37.7986 289.907 37.7673 290.704 37.6983C291.293 37.6544 291.648 37.5353 291.762 37.341C291.895 37.1466 291.964 36.6388 291.964 35.8113V17.512C291.964 16.8788 291.863 16.5152 291.66 16.4023C291.477 16.2707 290.863 16.208 289.818 16.208C289.457 16.208 289.273 16.1077 289.273 15.9134C289.273 15.719 289.527 15.6187 290.027 15.6187L295.858 15.6501C296.061 15.6501 297.346 15.6375 299.708 15.6187H304.482C305.166 15.6187 305.786 15.5748 306.356 15.4871C306.4 16.4211 306.508 17.7126 306.66 19.3676L306.793 20.7656C306.818 20.8722 306.831 21.0164 306.831 21.1919C306.831 21.4113 306.73 21.5179 306.527 21.5179C306.274 21.5179 306.097 21.242 305.983 20.7029C305.552 18.747 304.849 17.512 303.868 16.9916C303.14 16.603 301.234 16.4023 298.144 16.4023H295.345V25.9438H296.162C298.708 25.9438 300.252 25.762 300.797 25.3922C301.367 25.0223 301.753 23.944 301.956 22.1636C302 21.706 302.127 21.4803 302.329 21.4803C302.582 21.4803 302.703 21.6746 302.703 22.0696C302.703 22.4645 302.677 23.035 302.633 23.7936C302.589 24.5521 302.563 25.1289 302.563 25.5175C302.563 27.8434 302.608 29.4357 302.696 30.3071C302.722 30.5202 302.728 30.7083 302.728 30.8588C302.728 31.1409 302.601 31.2851 302.355 31.2851C302.196 31.2851 302.082 31.1973 302.013 31.0218C301.968 30.8274 301.873 30.2193 301.74 29.1975C301.557 27.9186 301 27.1287 300.069 26.8215C299.664 26.6898 298.594 26.6272 296.865 26.6272H295.326V37.5729C300.328 37.5729 303.26 37.4789 304.121 37.2783C305.622 36.9523 306.47 35.5606 306.679 33.1094C306.723 32.5702 306.875 32.2944 307.122 32.2944C307.35 32.2944 307.464 32.5201 307.464 32.9777" fill="#AB3E24"/>
<path d="M335.71 17.4304C335.754 16.7659 335.798 16.1076 335.798 15.6186C335.798 13.0546 334.152 12.3525 328.352 12.3525C326.522 12.3525 325.585 12.3964 325.452 12.4402C325.231 12.528 325.142 12.7474 325.003 13.3681C324.87 14.0765 324.737 14.7849 324.515 15.487C324.294 16.2832 323.755 18.8848 322.685 23.7872C331.069 23.8311 331.201 23.7872 332.632 20.8721C332.81 20.4709 332.898 20.3831 333.126 20.3831C333.481 20.3831 333.702 20.4709 333.702 20.6903C333.702 20.7488 333.584 21.1751 333.348 21.9692C332.411 25.4611 332.234 26.251 331.746 28.9466C331.702 29.2538 331.613 29.3416 331.385 29.3416C330.898 29.3416 330.714 29.2538 330.714 28.9466V28.7272C330.758 28.2884 330.758 27.8433 330.758 27.7555C330.758 26.2572 330.087 25.5488 328.397 25.3733C327.725 25.2855 325.098 25.2416 322.375 25.1978C320.545 33.6735 320.324 34.9148 320.324 35.9743C320.324 37.4349 320.856 37.5666 326.117 37.5666C328.884 37.5666 330.309 37.2594 331.645 36.3316C332.848 35.4477 333.835 34.081 334.456 32.4887C334.633 31.9997 334.722 31.868 334.899 31.868C335.298 31.868 335.659 32.0874 335.659 32.3069C335.659 32.752 334.855 35.0903 334.051 36.946L333.652 37.8738L333.475 38.3565C333.253 38.9332 333.069 39.1088 332.721 39.1088H332.36C331.74 39.021 325.623 38.9771 321.748 38.9771C319.52 38.9771 314.48 39.021 313.676 39.0649C313.27 39.1088 312.96 39.1088 312.827 39.1088C312.023 39.1088 311.934 39.0649 311.934 38.8016C311.934 38.2248 312.067 38.0932 312.65 38.0493C315.461 37.7421 316.265 37.1215 316.841 34.6954C318.893 26.088 321.21 15.1297 321.21 14.0263C321.21 12.7035 320.457 12.3023 317.823 12.0829C317.418 12.039 317.24 11.9513 317.24 11.7757C317.24 11.3745 317.462 11.0234 317.728 11.0234H318.133C319.203 11.1112 325.984 11.1551 331.157 11.1551L337.938 11.1112C338.388 11.1112 338.565 11.199 338.565 11.4184C338.565 11.55 338.521 11.7695 338.432 11.945C337.717 13.8445 337.223 15.4368 336.78 17.4241C336.647 17.9507 336.602 18.0009 336.336 18.0009C335.887 18.0009 335.71 17.9131 335.71 17.6498V17.4304Z" fill="#AB3E24"/>
<path d="M356.579 32.8398V33.6798C356.579 34.1688 356.534 34.3443 356.18 35.0527C354.749 37.8362 352.925 39.4661 351.228 39.4661C349.981 39.4661 349.177 38.67 348.329 36.551C348.107 35.9304 347.752 34.9587 346.499 31.0782C342.573 36.2439 342.079 36.9084 341.06 37.924C339.85 39.1151 339.008 39.6041 338.071 39.6041C336.735 39.6041 335.887 38.5446 335.887 36.9084C335.887 35.4038 336.691 34.4384 337.894 34.4384C338.381 34.4384 338.603 34.7017 338.698 35.454C338.787 36.0746 338.964 36.3818 339.274 36.3818C340.123 36.3818 343.156 33.4667 346.055 29.7993C344.27 24.0129 343.738 22.8218 342.89 22.8218C341.908 22.8218 340.971 24.2825 340.528 26.577H340.395L339.996 26.0943C339.907 25.9626 339.863 25.8748 339.863 25.7432C339.863 25.2605 340.135 23.9753 340.446 23.1415C341.155 21.1981 342.453 19.9631 343.877 19.9631C345.169 19.9631 345.884 20.6715 346.644 22.7466C346.777 23.1917 346.999 23.8938 348.158 27.6929C353.065 21.4677 354.578 20.007 356.186 20.007C357.433 20.007 358.06 20.7593 358.06 22.2137C358.06 23.0538 357.927 23.8061 357.655 24.1571C357.433 24.5082 356.718 24.8655 356.319 24.8655C356.009 24.8655 355.914 24.7339 355.831 24.1571C355.743 23.4487 355.566 23.1415 355.205 23.1415C354.578 23.1415 353.78 23.6681 352.26 25.0849C350.614 26.6334 349.538 27.6929 348.607 28.884C349.095 30.6957 349.899 32.9463 350.659 34.7142C351.285 36.0871 351.817 36.6576 352.444 36.6576C353.47 36.6576 354.806 35.3348 356.325 32.8586H356.591L356.579 32.8398Z" fill="#AB3E24"/>
<path d="M369.16 32.7958V33.5042C369.16 33.8552 369.16 33.8991 368.938 34.1248C368.71 34.2564 368.533 34.432 368.4 34.6138C365.012 37.7044 362.29 39.4723 360.821 39.4723C359.972 39.4723 359.529 38.8517 359.529 37.6167C359.529 35.8927 360.105 33.1092 361.935 26.3136L362.917 22.6462H360.194C360.061 22.6462 359.973 22.6023 359.973 22.4706C359.973 22.4268 359.972 22.339 360.017 22.2512L360.15 21.6306C360.209 21.3965 360.386 21.2795 360.682 21.2795L363.404 20.9285L364.563 16.9539C364.785 16.0699 364.873 15.9822 365.456 15.8505C366.038 15.7628 366.925 15.6311 367.286 15.6311C367.691 15.6311 367.862 15.8066 367.862 16.1138C367.862 16.2016 367.832 16.3646 367.773 16.6028L366.526 20.8407H371.92C372.231 20.8407 372.275 20.8846 372.275 20.9723V21.1479L372.009 22.4706C371.965 22.6462 371.743 22.7778 371.61 22.6901H365.994L364.924 26.3073C362.739 33.9931 362.518 34.8332 362.518 35.8049C362.518 36.0682 362.651 36.2061 362.872 36.2061C363.676 36.2061 365.772 35.015 368.894 32.802H369.16V32.7958Z" fill="#AB3E24"/>
<path d="M371.964 26.439V25.4673C371.964 24.9783 372.053 24.8028 372.496 24.0944C374.193 21.267 375.884 19.9004 377.536 19.9004C378.651 19.9004 379.233 20.4771 379.233 21.5805C379.233 22.8594 378.879 24.5395 377.315 30.633C377.182 31.2536 377.049 31.8241 376.871 32.4448L377.676 30.7208L378.923 27.9812C380.303 24.9783 382.044 22.151 383.247 21.0915C384.14 20.2953 385.077 19.9004 386.059 19.9004C387.661 19.9004 388.642 20.8721 388.642 22.4205C388.642 23.8812 387.794 24.8028 386.591 24.8028C385.565 24.8028 385.299 24.4517 385.299 23.1728C385.299 22.64 385.077 22.3328 384.767 22.3328C384.052 22.3328 382.893 23.5678 381.38 25.9061C379.461 28.9529 377.942 32.2191 375.985 37.6104C375.498 38.9834 375.004 39.4661 374.067 39.4661C373.218 39.4661 372.591 39.0273 372.591 38.4505C372.591 38.1287 372.963 36.7161 373.706 34.2126C374.016 33.2848 374.288 32.3131 374.51 31.3414C374.776 30.3697 375.042 29.4419 375.314 28.5141C376.34 24.715 376.65 23.6117 376.65 23.2606C376.65 23.0412 376.561 22.9534 376.34 22.9534C375.358 22.9534 374.111 24.0568 372.37 26.439H371.964Z" fill="#AB3E24"/>
<path d="M386.951 34.1249C386.951 35.5354 387.623 36.3755 388.693 36.3755C390.257 36.3755 392.884 34.1249 395.29 30.7208C396.848 28.558 397.785 26.3074 397.785 24.8028C397.785 24.0066 397.342 23.5678 396.449 23.5678C392.568 23.5678 386.945 29.8369 386.945 34.1186M402.92 30.8524L403.141 31.028C403.363 31.2474 403.407 31.2474 403.407 31.379C403.407 31.8179 402.249 33.987 401.267 35.4414C399.526 38.043 397.696 39.5037 396.227 39.5037C395.246 39.5037 394.537 38.7953 394.537 37.8675C394.537 36.6764 395.246 34.1562 396.677 30.445C395.695 31.9495 394.404 33.755 393.156 35.3035C390.839 38.1747 388.876 39.4975 386.914 39.4975C385.084 39.4975 383.836 38.1747 383.836 36.1435C383.836 33.5356 385.578 30.1378 388.471 27.0471C391.593 23.7371 395.474 21.3925 399.444 20.427C399.843 19.3675 400.204 19.1042 401.001 19.1042C401.673 19.1042 402.116 19.3675 402.116 19.7688C402.116 20.0321 401.983 20.5148 401.407 22.1071C399.71 26.9656 397.525 34.338 397.525 35.1342C397.525 35.6232 397.791 35.8865 398.241 35.8865C399.444 35.8865 401.229 33.8553 402.749 30.8524H402.926H402.92Z" fill="#AB3E24"/>
<path d="M417.635 25.9563C417.901 28.046 418.302 30.7396 418.838 34.0372C428.158 18.2266 429.943 14.9604 429.943 13.5938C429.943 13.1048 429.589 12.666 429.051 12.4465C428.468 12.1832 428.335 12.1832 426.638 12.0516C426.284 12.0516 426.151 12.0077 426.151 11.8322C426.151 11.3495 426.328 11.036 426.638 11.036C426.993 11.036 427.664 11.036 428.468 11.0799L431.013 11.1238C432.349 11.1238 434.806 11.0799 436.186 11.036H436.319C436.541 11.036 436.63 11.1238 436.63 11.2554C436.63 11.8259 436.452 12.0516 435.876 12.1394C434.445 12.4027 433.825 12.8916 432.533 14.9228C426.467 24.3264 419.11 36.4758 418.173 38.5947C418.084 38.8142 417.951 38.9019 417.818 38.9458C416.957 39.2384 416.465 39.3846 416.343 39.3846C416.221 39.3846 416.029 38.5174 415.767 36.783C415.545 35.059 415.279 33.2911 415.051 31.5295C414.785 29.7617 414.519 28.0816 414.292 26.4077C413 17.2674 412.683 15.3679 412.284 13.9574C411.93 12.6346 411.347 12.2334 409.429 12.0579C409.074 12.0579 408.941 11.9701 408.941 11.7507C408.941 11.268 409.119 11.0423 409.479 11.0423C409.79 11.0423 410.461 11.0423 411.17 11.0862L415.096 11.13C415.45 11.13 416.077 11.13 416.881 11.0862H418.622L420.003 11.0423H420.269C420.49 11.0423 420.623 11.13 420.623 11.3056C420.623 11.9262 420.446 12.1017 419.775 12.1017C417.096 12.2334 416.204 12.8102 416.204 14.3962C416.204 15.1485 416.558 18.0197 417.096 22.0382L417.635 25.9689V25.9563Z" fill="#AB3E24"/>
<path d="M429.544 34.1249C429.544 35.5354 430.215 36.3755 431.286 36.3755C432.849 36.3755 435.477 34.1249 437.883 30.7208C439.447 28.558 440.378 26.3074 440.378 24.8028C440.378 24.0066 439.935 23.5678 439.042 23.5678C435.16 23.5678 429.544 29.8369 429.544 34.1186M445.506 30.8524L445.728 31.028C445.95 31.2474 445.994 31.2474 445.994 31.379C445.994 31.8179 444.835 33.987 443.854 35.4414C442.113 38.043 440.283 39.5037 438.814 39.5037C437.832 39.5037 437.117 38.7953 437.117 37.8675C437.117 36.6764 437.826 34.1562 439.257 30.445C438.276 31.9495 436.984 33.755 435.737 35.3035C433.413 38.1747 431.457 39.4975 429.494 39.4975C427.664 39.4975 426.417 38.1747 426.417 36.1435C426.417 33.5356 428.158 30.1378 431.051 27.0471C434.173 23.7371 438.054 21.3925 442.024 20.427C442.423 19.3675 442.777 19.1042 443.582 19.1042C444.253 19.1042 444.696 19.3675 444.696 19.7688C444.696 20.0321 444.563 20.5148 443.987 22.1071C442.29 26.9656 440.106 34.338 440.106 35.1342C440.106 35.6232 440.371 35.8865 440.821 35.8865C442.024 35.8865 443.81 33.8553 445.323 30.8524H445.5H445.506Z" fill="#AB3E24"/>
<path d="M455.586 32.8899V33.5105C455.586 33.9054 455.498 34.0371 454.339 35.2345C451.483 38.2374 449.654 39.5162 448.318 39.5162C447.425 39.5162 446.798 38.8078 446.798 37.7923C446.798 36.9961 446.975 36.0683 447.558 33.9054C447.779 32.9776 448.849 28.6959 449.698 25.3419C450.141 23.4863 450.635 21.6306 451.122 19.7813C452.414 14.6156 452.952 12.2271 452.952 11.2993C452.952 10.3714 452.503 10.1081 450.458 9.75707C450.28 9.71318 450.236 9.6693 450.236 9.53765C450.236 9.09255 450.369 8.91702 450.812 8.87313L451.971 8.65372C454.959 8.12085 456.03 7.94531 456.789 7.94531C457.062 7.94531 457.195 8.03308 457.195 8.2525C457.195 8.38415 457.15 8.5158 457.106 8.69133C456.257 11.293 450.103 34.9649 450.103 35.6733C450.103 35.9805 450.242 36.1121 450.508 36.1121C451.312 36.1121 453.364 34.7455 455.327 32.8899H455.593H455.586Z" fill="#AB3E24"/>
<path d="M476.683 30.8524V31.9119C476.683 32.3946 476.639 32.4824 476.145 33.1908C473.872 36.5447 472.846 37.6982 471.061 38.8016C470.434 39.1965 469.769 39.4159 469.231 39.4159C468.161 39.4159 467.578 38.7514 467.578 37.6481C467.578 36.3253 467.756 35.8802 471.814 25.9939C469.003 29.7929 465.66 33.8114 463.387 36.062C461.025 38.4442 459.55 39.4159 458.303 39.4159C457.321 39.4159 456.827 38.8016 456.827 37.5603C456.827 36.319 457.41 34.2001 458.613 31.0656C459.284 29.3416 461.063 25.1915 461.646 24.0881C461.734 23.8687 461.779 23.7809 461.779 23.6932C461.779 23.6493 461.734 23.6054 461.69 23.6054C461.424 23.6054 459.373 25.3733 457.543 27.1349H457.366L457.144 26.5205C457.1 26.3889 457.055 26.3011 457.055 26.2572C457.055 26.0817 457.815 25.1977 459.151 23.7872C461.779 21.0037 463.298 19.9004 464.368 19.9004C464.951 19.9004 465.394 20.3016 465.394 20.7843C465.394 21.267 465.261 21.6683 461.424 31.3853C460.576 33.5481 460.088 35.0527 460.088 35.4476C460.088 35.667 460.177 35.7987 460.398 35.7987C462.627 35.7987 469.586 27.8057 472.308 22.1949C473.201 20.2953 473.467 19.9443 474.094 19.9443C474.809 19.9443 475.563 20.4771 475.563 21.0476C475.563 21.3172 475.518 21.3987 475.024 22.5961C473.689 25.9061 470.656 34.7392 470.656 35.4037C470.656 35.7109 470.877 35.9366 471.143 35.9366C472.435 35.9366 474.531 33.8177 476.272 30.8587H476.671L476.683 30.8524Z" fill="#AB3E24"/>
<path d="M487.7 27.2352C489.087 26.3074 490.018 24.7151 490.018 23.3045C490.018 22.1134 489.125 21.2734 487.833 21.2734C485.244 21.2734 483.059 24.1885 481.989 29.0031C484.668 28.6959 486.269 28.2069 487.7 27.2352ZM490.866 33.7237L491.132 34.0748C491.176 34.1187 491.221 34.2503 491.221 34.2942C491.221 34.5136 490.55 35.3537 489.752 36.1498C487.472 38.4004 485.199 39.5038 482.971 39.5038C480.026 39.5038 478.285 37.3409 478.285 33.6297C478.285 26.3889 483.104 19.9443 488.587 19.9443C491.221 19.9443 493 21.3988 493 23.4738C493 25.856 490.904 28.0189 487.65 28.9968C485.909 29.5234 485.016 29.6614 481.806 29.793C481.54 30.9841 481.495 31.517 481.495 32.3947C481.495 35.2659 482.654 36.8582 484.839 36.8582C486.801 36.8582 488.808 35.7988 490.727 33.7237H490.86H490.866Z" fill="#AB3E24"/>
<path d="M351.697 72.3472C351.697 72.6293 351.583 72.7422 351.298 72.7735C347.784 70.4853 345.416 65.8149 345.416 60.5301C345.416 55.2453 347.784 50.5748 351.298 48.2866C351.583 48.3117 351.697 48.4308 351.697 48.7129C348.867 51.6531 347.297 55.4459 347.297 60.5301C347.297 65.6143 348.867 69.407 351.697 72.3472Z" fill="#AB3E24"/>
<path d="M360.808 59.853C359.441 59.853 359.377 59.9095 359.377 60.7558V64.7429C359.377 67.7144 359.523 68.1094 361.119 68.2786L361.948 68.3664C362.119 68.4793 362.062 68.987 361.891 69.0748C360.346 69.0184 359.377 68.987 358.263 68.987C357.035 68.987 356.066 69.0435 354.951 69.0748C354.781 68.987 354.724 68.5357 354.895 68.3664L355.382 68.2786C356.984 67.9965 357.041 67.7144 357.041 64.7429V54.562C357.041 51.5904 356.838 51.114 355.357 51.0012L354.616 50.9447C354.445 50.8319 354.502 50.3241 354.673 50.2363C356.072 50.2614 357.041 50.3241 358.276 50.3241C359.39 50.3241 360.359 50.299 361.587 50.2363C361.758 50.3241 361.815 50.8319 361.644 50.9447L361.1 51.0012C359.441 51.1704 359.384 51.5967 359.384 54.562V57.8156C359.384 58.6933 359.441 58.7183 360.815 58.7183H368.982C370.356 58.7183 370.413 58.6933 370.413 57.8156V54.562C370.413 51.5904 370.356 51.1704 368.672 51.0012L368.128 50.9447C367.957 50.8319 368.014 50.3241 368.185 50.2363C369.495 50.2927 370.47 50.3241 371.642 50.3241C372.813 50.3241 373.725 50.299 375.01 50.2363C375.181 50.3241 375.238 50.8319 375.067 50.9447L374.466 51.0012C372.807 51.1704 372.75 51.5967 372.75 54.562V64.7429C372.75 67.7144 372.807 68.078 374.466 68.2786L375.149 68.3664C375.32 68.4793 375.263 68.987 375.092 69.0748C373.718 69.0184 372.75 68.987 371.635 68.987C370.464 68.987 369.438 69.0121 368.178 69.0748C368.007 68.987 367.95 68.5357 368.121 68.3664L368.666 68.2786C370.407 67.9965 370.407 67.7144 370.407 64.7429V60.7558C370.407 59.9095 370.35 59.853 368.976 59.853H360.808Z" fill="#AB3E24"/>
<path d="M387.521 61.4391C388.18 62.7682 388.807 64.0721 389.49 65.3134H389.547C390.32 63.9843 391.035 62.5174 391.745 61.0755L394.429 55.6716C395.714 53.1013 396.544 51.5466 396.601 50.2426C397.57 50.3304 398.171 50.3304 398.741 50.3304C399.456 50.3304 400.4 50.3053 401.286 50.2426C401.457 50.3554 401.457 50.8382 401.312 50.951L400.71 51.0074C398.912 51.1767 398.684 51.7158 398.709 53.6968C398.766 56.6934 398.792 61.9218 399.026 65.9967C399.108 67.4135 399.083 68.1721 400.425 68.2849L401.337 68.3727C401.508 68.542 401.483 68.9682 401.28 69.0811C400.109 69.0247 398.937 68.9933 397.912 68.9933C396.886 68.9933 395.626 69.0184 394.454 69.0811C394.252 68.9369 394.227 68.542 394.397 68.3727L395.227 68.2849C396.626 68.1407 396.626 67.6894 396.626 65.8839L396.544 54.0918H396.487C396.284 54.4052 395.202 56.6621 394.632 57.7717L392.093 62.718C390.807 65.2068 389.522 67.8649 389.009 69.1626C388.952 69.2503 388.838 69.2754 388.724 69.2754C388.667 69.2754 388.522 69.2503 388.465 69.1626C387.977 67.6643 386.61 64.8934 385.951 63.5079L383.38 58.0476C382.779 56.7499 382.177 55.2766 381.551 53.9727H381.494C381.38 55.728 381.291 57.3642 381.209 59.0067C381.12 60.7307 381.006 63.2509 381.006 65.6519C381.006 67.7458 381.177 68.1972 382.291 68.2786L383.374 68.3664C383.577 68.5357 383.545 68.987 383.349 69.0748C382.38 69.0184 381.266 68.987 380.177 68.987C379.265 68.987 378.233 69.0121 377.264 69.0748C377.093 68.9306 377.036 68.5106 377.207 68.3664L377.834 68.2786C379.037 68.1094 379.436 67.9401 379.607 65.9591C379.778 64.0909 379.923 62.5362 380.094 59.7402C380.24 57.3956 380.354 54.9883 380.411 53.4335C380.468 51.6531 380.24 51.2268 378.499 51.0012L378.043 50.9447C377.897 50.7755 377.929 50.3492 378.157 50.2363C379.012 50.2927 379.702 50.3241 380.411 50.3241C381.069 50.3241 381.842 50.3241 382.779 50.2363C382.665 51.3397 383.38 53.095 384.267 54.9005L387.521 61.4328V61.4391Z" fill="#AB3E24"/>
<path d="M420.997 60.4487C420.997 55.7845 418.914 50.7505 413.456 50.7505C410.486 50.7505 406.63 52.7566 406.63 58.9504C406.63 63.1381 408.688 68.5671 414.31 68.5671C417.736 68.5671 420.99 66.0219 420.99 60.4487M403.775 59.8531C403.775 54.1984 408.061 49.8728 413.943 49.8728C420.541 49.8728 423.852 54.5934 423.852 59.571C423.852 65.2821 419.452 69.4385 413.943 69.4385C407.605 69.4385 403.775 64.9436 403.775 59.8531Z" fill="#AB3E24"/>
<path d="M438.713 69.4447C436.313 69.4447 434.8 68.7113 434.255 68.3978C433.913 67.7772 433.54 65.7648 433.483 64.4358C433.628 64.2352 434.053 64.1787 434.166 64.348C434.597 65.7899 435.768 68.5608 439.08 68.5608C441.479 68.5608 442.651 67.0061 442.651 65.3072C442.651 64.0596 442.391 62.6742 440.308 61.3451L437.592 59.5898C436.167 58.6557 434.508 57.0446 434.508 54.725C434.508 52.0356 436.623 49.8602 440.333 49.8602C441.22 49.8602 442.246 50.0295 442.986 50.2301C443.36 50.3429 443.759 50.3994 443.987 50.3994C444.246 51.0764 444.5 52.6625 444.5 53.8473C444.386 54.0166 443.93 54.1044 443.784 53.9351C443.411 52.5747 442.645 50.7379 439.903 50.7379C437.161 50.7379 436.503 52.5747 436.503 53.8787C436.503 55.5212 437.877 56.706 438.928 57.358L441.214 58.7748C443.012 59.8782 444.785 61.5144 444.785 64.2038C444.785 67.3133 442.417 69.4385 438.7 69.4385" fill="#AB3E24"/>
<path d="M465.299 64.185C465.299 65.0314 465.299 68.3978 465.388 69.1313C465.331 69.3006 465.16 69.4448 464.843 69.4448C464.501 68.9621 463.672 67.9715 461.19 65.1755L454.567 57.7091C453.795 56.8314 451.851 54.5119 451.256 53.8913H451.199C451.085 54.2298 451.053 54.8818 451.053 55.7281V61.8906C451.053 63.2196 451.085 66.8933 451.566 67.7459C451.737 68.0593 452.307 68.2286 453.022 68.285L453.909 68.3728C454.08 68.5984 454.054 68.937 453.852 69.0812C452.566 69.0247 451.566 68.9997 450.509 68.9997C449.312 68.9997 448.539 69.0247 447.539 69.0812C447.336 68.937 447.311 68.542 447.482 68.3728L448.254 68.285C448.913 68.2035 449.369 68.0342 449.514 67.7208C449.913 66.6989 449.888 63.2509 449.888 61.8968V53.722C449.888 52.9321 449.863 52.3365 449.261 51.6846C448.862 51.2896 448.178 51.089 447.488 51.0075L447.001 50.9511C446.83 50.7818 446.83 50.3555 447.058 50.2427C448.254 50.3242 449.774 50.3242 450.287 50.3242C450.743 50.3242 451.23 50.2991 451.598 50.2427C452.167 51.6846 455.542 55.4146 456.479 56.4616L459.246 59.5459C461.215 61.7213 462.615 63.3074 463.957 64.6615H464.014C464.128 64.5173 464.128 64.0659 464.128 63.4766V57.427C464.128 56.098 464.103 52.4243 463.558 51.5717C463.387 51.3147 462.931 51.1454 461.785 51.0075L461.298 50.9511C461.095 50.7818 461.127 50.3304 461.355 50.2427C462.665 50.2991 463.64 50.3242 464.723 50.3242C465.951 50.3242 466.692 50.2991 467.667 50.2427C467.895 50.3869 467.895 50.7818 467.724 50.9511L467.325 51.0075C466.414 51.1517 465.837 51.3774 465.73 51.6031C465.242 52.6186 465.299 56.1293 465.299 57.427V64.185Z" fill="#AB3E24"/>
<path d="M474.645 64.7493C474.645 67.7208 474.702 68.0844 476.531 68.285L477.304 68.3665C477.475 68.5107 477.418 68.9871 477.247 69.0749C475.62 69.0185 474.676 68.9871 473.537 68.9871C472.34 68.9871 471.308 69.0122 470.054 69.0749C469.883 68.9871 469.826 68.5358 469.997 68.3665L470.599 68.285C472.258 68.0593 472.315 67.7208 472.315 64.7493V54.3176C472.315 51.9165 472.258 51.4338 470.972 51.2896L469.947 51.1768C469.744 51.0075 469.776 50.5812 470.004 50.4684C471.517 50.2677 473.29 50.2427 475.658 50.2427C478.026 50.2427 479.799 50.5561 481.141 51.3711C482.452 52.1923 483.427 53.6593 483.427 55.6152C483.427 58.2169 481.799 59.5146 480.571 60.1102C479.317 60.7057 477.804 60.9565 476.626 60.9565C476.43 60.875 476.43 60.4487 476.601 60.3923C479.685 59.828 480.799 58.1041 480.799 55.6403C480.799 52.9007 479.172 51.1141 476.202 51.1141C474.689 51.1141 474.664 51.2269 474.664 52.1297V64.743L474.645 64.7493Z" fill="#AB3E24"/>
<path d="M485.459 48.7067C485.459 48.4246 485.573 48.3117 485.858 48.2804C489.372 50.5686 491.74 55.239 491.74 60.5238C491.74 65.8087 489.372 70.4791 485.858 72.7673C485.573 72.7422 485.459 72.6231 485.459 72.341C488.289 69.4008 489.859 65.608 489.859 60.5238C489.859 55.4396 488.289 51.6469 485.459 48.7067Z" fill="#AB3E24"/>
</g>
<defs>
<clipPath id="clip0_406_38677">
<rect width="493" height="72" fill="white" transform="translate(0 0.77356)"/>
</clipPath>
</defs>
</svg>
