<svg width="379" height="73" viewBox="0 0 379 73" fill="none" xmlns="http://www.w3.org/2000/svg">
<g clip-path="url(#clip0_406_38680)">
<path d="M55.22 7.35999V8.21999C54.04 8.22999 53.24 8.30999 52.82 8.44999C52.08 8.69999 51.7 9.19998 51.7 9.93998C51.7 10.32 51.83 10.85 52.09 11.54C52.36 12.22 52.87 13.37 53.6 14.99L60.92 31.29L67.57 13.64C67.86 12.86 68.08 12.21 68.23 11.68C68.38 11.14 68.46 10.71 68.46 10.38C68.46 9.47999 68.07 8.87999 67.3 8.54999C66.84 8.35999 66.09 8.25999 65.04 8.21999V7.35999H74.61V8.15999C73.62 8.29999 72.89 8.56999 72.41 8.95999C71.69 9.55999 70.99 10.75 70.29 12.55L59.94 38.88H59.23L47.69 13.14C46.71 10.97 45.93 9.60998 45.33 9.06998C44.75 8.53998 43.9 8.22999 42.77 8.15999V7.35999H55.23H55.22Z" fill="#03704A"/>
<path d="M69.8301 37.7C71.2601 37.6 72.1901 37.39 72.6101 37.07C73.0401 36.74 73.2401 35.9 73.2401 34.53V18.91C73.2401 17.62 73.0301 16.79 72.6101 16.42C72.1901 16.05 71.2601 15.82 69.8301 15.75V15.1H80.2201V15.75C78.7901 15.82 77.8701 16.04 77.4401 16.42C77.0101 16.79 76.8101 17.62 76.8101 18.91V34.53C76.8101 35.89 77.0201 36.73 77.4401 37.07C77.8701 37.39 78.7901 37.6 80.2201 37.7V38.34H69.8301V37.7Z" fill="#03704A"/>
<path d="M89.46 15.1V15.75C88.58 15.75 87.97 15.82 87.65 15.92C87.09 16.1 86.81 16.47 86.81 17.03C86.81 17.32 86.91 17.72 87.11 18.23C87.32 18.75 87.69 19.61 88.24 20.82L93.72 33.04L98.71 19.81C98.93 19.22 99.1 18.73 99.21 18.33C99.33 17.93 99.38 17.6 99.38 17.35C99.38 16.68 99.09 16.22 98.51 15.98C98.17 15.84 97.6 15.76 96.81 15.74V15.09H103.99V15.69C103.25 15.79 102.7 15.99 102.35 16.29C101.81 16.73 101.28 17.63 100.75 18.98L92.98 38.73H92.45L83.79 19.43C83.06 17.79 82.47 16.78 82.02 16.38C81.59 15.98 80.95 15.75 80.1 15.69V15.09H89.45L89.46 15.1Z" fill="#03704A"/>
<path d="M113.24 29.3199L109.18 19.6499L105.17 29.3199H113.24ZM98.0801 38.3299V37.6999C98.9801 37.5999 99.6601 37.2599 100.1 36.6699C100.56 36.0899 101.34 34.4999 102.43 31.9199L109.75 14.6899H110.43L119.17 34.5999C119.76 35.9299 120.22 36.7499 120.56 37.0699C120.91 37.3799 121.5 37.5899 122.33 37.6999V38.3299H113.4V37.6999C114.43 37.6099 115.09 37.4999 115.38 37.3699C115.68 37.2399 115.82 36.9099 115.82 36.3999C115.82 36.2199 115.77 35.9199 115.66 35.4799C115.54 35.0499 115.38 34.5899 115.18 34.1099L113.72 30.7299H104.53C103.61 33.0299 103.06 34.4299 102.89 34.9499C102.71 35.4499 102.63 35.8499 102.63 36.1499C102.63 36.7399 102.87 37.1599 103.35 37.3899C103.65 37.5299 104.21 37.6299 105.03 37.6999V38.3299H98.0701H98.0801Z" fill="#03704A"/>
<path d="M169.1 37.58C169.1 37.87 168.78 38.01 168.14 38.01H167.64C167.21 38.01 166.44 38.01 165.31 37.97C164.19 37.94 163.32 37.92 162.71 37.92C161.8 37.92 160.74 37.93 159.52 37.97H156.75C156.11 37.97 155.79 37.83 155.79 37.57C155.79 37.28 156.23 37.13 157.11 37.13C158.66 37.13 159.6 36.96 159.93 36.64C160.09 36.5 160.16 35.51 160.16 33.7V10.94C160.16 10.94 160 11.48 159.66 12.47C158.45 16.02 156.68 21.35 154.38 28.48L152.24 35.47C151.81 36.85 151.51 37.54 151.33 37.54C151.11 37.54 150.89 37.19 150.64 36.49C149.77 33.82 147.27 27.17 143.17 16.53L141.35 11.83C141.38 12.38 141.4 13.14 141.4 14.11V28.39C141.4 33.75 141.45 36.46 141.54 36.52C141.75 36.9 142.48 37.09 143.73 37.09C144.73 37.09 145.23 37.22 145.23 37.49C145.23 37.78 144.91 37.93 144.28 37.93C143.88 37.93 143.51 37.91 143.18 37.88C142.76 37.85 142.38 37.83 142.04 37.83L136.8 37.97C136.25 37.97 135.98 37.83 135.98 37.57C135.98 37.28 136.84 37.11 138.58 37.09C139.31 37.09 139.73 36.97 139.86 36.73C139.98 36.5 140.04 35.74 140.04 34.45V13.4C140.04 10.97 140 9.65996 139.95 9.43996C139.83 9.02996 139.57 8.75996 139.17 8.60996C138.78 8.45996 137.93 8.34996 136.62 8.25996C136.14 8.22996 135.89 8.09996 135.89 7.85996C135.89 7.53996 136.33 7.37996 137.21 7.37996C137.33 7.37996 137.58 7.38996 137.98 7.42996H140.34C142.13 7.42996 143.4 7.41996 144.12 7.37996C144.27 7.75996 145.17 10.06 146.81 14.28C147.51 16.04 149.47 21.16 152.69 29.66C153.27 27.76 153.86 25.88 154.47 24.04L159.3 9.48996C159.57 8.63996 159.81 7.93996 160.03 7.37996L166.86 7.32996C167.86 7.32996 168.44 7.37996 168.59 7.46996C168.74 7.55996 168.82 7.68996 168.82 7.85996C168.82 8.15996 168.56 8.29996 168.05 8.29996C167.2 8.29996 166.62 8.32996 166.32 8.38996C165.59 8.50996 165.09 8.73996 164.81 9.08996C164.66 9.28996 164.59 11.01 164.59 14.23V34.67C164.59 35.84 164.71 36.53 164.95 36.73C165.34 37 166.33 37.14 167.91 37.14H168.18C168.79 37.14 169.09 37.28 169.09 37.58" fill="#03704A"/>
<path d="M188.66 32.59C188.66 32.67 188.63 33.21 188.59 34.2C188.54 35.19 188.52 36.13 188.52 37.03V38.12C186.29 38.01 181.87 37.96 175.26 37.96C174.47 37.96 173.68 37.97 172.91 38H171C170.57 38 170.35 37.9 170.35 37.7C170.35 37.56 170.42 37.49 170.55 37.47C170.62 37.47 171.05 37.44 171.85 37.37C172.44 37.33 172.79 37.21 172.91 37.01C173.05 36.81 173.12 36.3 173.12 35.46V16.93C173.12 16.3 173.01 15.92 172.81 15.81C172.62 15.68 172.01 15.61 170.96 15.61C170.59 15.61 170.42 15.51 170.42 15.31C170.42 15.11 170.67 15.01 171.17 15.01L177.01 15.05C177.22 15.05 178.5 15.04 180.88 15.01H185.66C186.35 15.01 186.97 14.97 187.54 14.88C187.59 15.83 187.68 17.13 187.85 18.81L187.98 20.23C188 20.34 188.02 20.48 188.02 20.66C188.02 20.88 187.92 20.99 187.71 20.99C187.46 20.99 187.28 20.71 187.16 20.16C186.73 18.18 186.02 16.93 185.04 16.4C184.31 16 182.4 15.8 179.3 15.8H176.5V25.46H177.32C179.87 25.46 181.42 25.28 181.97 24.9C182.54 24.53 182.93 23.44 183.13 21.64C183.18 21.18 183.3 20.95 183.5 20.95C183.75 20.95 183.88 21.15 183.88 21.54C183.88 21.93 183.86 22.51 183.81 23.28C183.77 24.05 183.75 24.63 183.75 25.03C183.75 27.38 183.79 28.99 183.89 29.87C183.91 30.09 183.92 30.28 183.92 30.44C183.92 30.73 183.8 30.86 183.55 30.86C183.39 30.86 183.28 30.78 183.21 30.6C183.17 30.4 183.07 29.78 182.94 28.75C182.76 27.45 182.2 26.66 181.27 26.34C180.86 26.21 179.79 26.14 178.06 26.14H176.53V37.21C181.54 37.21 184.48 37.11 185.34 36.91C186.84 36.58 187.7 35.18 187.9 32.69C187.95 32.15 188.1 31.87 188.35 31.87C188.58 31.87 188.69 32.1 188.69 32.57" fill="#03704A"/>
<path d="M212.37 26.52C212.37 30.39 210.96 33.4 208.16 35.55C206.11 37.13 203.37 37.92 199.93 37.92C199.84 37.92 199.43 37.91 198.7 37.89C197.99 37.87 196.96 37.85 195.59 37.85H193.88L191.18 37.89C191.02 37.91 190.85 37.92 190.67 37.92C190.24 37.92 190.02 37.81 190.02 37.59C190.02 37.39 190.39 37.29 191.12 37.29C192.05 37.29 192.63 37.13 192.86 36.79C192.95 36.64 193 36.22 193 35.54V17.76C193 16.69 192.9 16.06 192.73 15.89C192.57 15.71 191.99 15.63 190.99 15.63C190.47 15.63 190.2 15.51 190.2 15.27C190.2 15.09 190.39 15.01 190.78 15.01C190.75 15.01 191.01 15.02 191.53 15.04C192.05 15.06 192.57 15.07 193.07 15.07H196.72C200.82 15.07 203.72 15.35 205.43 15.9C207.5 16.56 209.17 17.87 210.45 19.83C211.73 21.76 212.37 23.99 212.37 26.52ZM208.54 26.39C208.54 22.75 207.8 20.07 206.32 18.38C204.84 16.66 202.53 15.81 199.38 15.81C197.86 15.81 196.93 15.96 196.61 16.27C196.47 16.42 196.4 16.95 196.4 17.85V35.39C196.4 36.01 196.41 36.38 196.43 36.51C196.48 36.64 196.58 36.75 196.74 36.84C197.29 37.11 198.44 37.24 200.19 37.24C202.65 37.24 204.63 36.41 206.13 34.74C207.73 32.97 208.52 30.2 208.52 26.4" fill="#03704A"/>
<path d="M223.64 37.66C223.64 37.84 223.5 37.93 223.23 37.93H222.89C222.75 37.86 221.2 37.83 218.24 37.83C217.67 37.83 217.1 37.85 216.54 37.9C216.24 37.92 215.78 37.93 215.17 37.93C214.87 37.93 214.73 37.83 214.73 37.63C214.73 37.45 215.02 37.35 215.61 37.34C216.52 37.32 217.06 37.22 217.22 37.04C217.38 36.84 217.46 36.21 217.46 35.13V17.79C217.46 16.72 217.4 16.12 217.29 15.98C217.15 15.76 216.53 15.63 215.41 15.58C214.98 15.56 214.76 15.47 214.76 15.32C214.76 15.12 214.9 15.02 215.17 15.02L219.78 15.08C220.12 15.08 220.78 15.08 221.76 15.05L223.06 15.01C223.42 15.01 223.61 15.11 223.61 15.31C223.61 15.49 223.11 15.6 222.1 15.64C221.53 15.66 221.18 15.75 221.04 15.93C220.93 16.11 220.87 16.57 220.87 17.31V34.92C220.87 36.18 220.93 36.86 221.04 36.97C221.29 37.21 222.03 37.35 223.26 37.4C223.51 37.4 223.64 37.49 223.64 37.67" fill="#03704A"/>
<path d="M245.29 30.57C245.29 30.57 245.27 30.83 245.22 31.46C245.13 32.74 245.08 33.97 245.08 35.15C245.08 35.29 245.1 35.56 245.15 35.98C245.19 36.37 245.22 36.86 245.22 37.43V37.73C245.22 38.01 245.13 38.15 244.95 38.15C244.77 38.15 244.61 37.99 244.47 37.66C244.15 36.93 243.83 36.46 243.51 36.24C241.87 37.63 239.9 38.32 237.6 38.32C234.25 38.32 231.47 37.19 229.26 34.95C227.07 32.69 225.98 29.84 225.98 26.41C225.98 22.98 226.98 20.15 228.99 17.97C231.02 15.77 233.62 14.67 236.81 14.67C237.97 14.67 238.89 14.77 239.57 14.97C240.27 15.14 241.14 15.52 242.17 16.09C242.67 16.37 243.05 16.52 243.3 16.52C243.51 16.52 243.7 16.35 243.88 15.99C244.18 15.37 244.42 15.07 244.6 15.07C244.78 15.07 244.87 15.16 244.87 15.34C244.87 15.43 244.85 15.57 244.8 15.76C244.55 16.81 244.42 18.8 244.42 21.7C244.42 22.12 244.39 22.36 244.32 22.43C244.25 22.5 244.16 22.53 244.05 22.53C243.82 22.53 243.68 22.32 243.61 21.9C243.31 20.14 242.9 18.83 242.35 17.97C241.24 16.21 239.48 15.33 237.09 15.33C235.24 15.33 233.79 15.92 232.72 17.1C230.78 19.24 229.82 22.35 229.82 26.47C229.82 30.13 230.62 32.99 232.21 35.01C233.6 36.76 235.45 37.64 237.75 37.64C238.93 37.64 240.01 37.37 241 36.82C241.98 36.25 242.73 35.48 243.25 34.51C243.85 33.39 244.26 32.17 244.52 30.85C244.61 30.32 244.76 30.06 244.96 30.06C245.19 30.06 245.3 30.23 245.3 30.55" fill="#03704A"/>
<path d="M269.96 37.7C269.96 37.9 269.78 37.99 269.44 37.99C269.22 37.99 269.01 37.98 268.83 37.95L264.49 37.89L260.15 37.95C259.99 37.98 259.82 37.99 259.64 37.99C259.19 37.99 258.96 37.88 258.96 37.66C258.96 37.42 259.27 37.3 259.88 37.3C261.89 37.28 262.89 37.08 262.89 36.71C262.89 36.68 262.87 36.6 262.82 36.44L262.55 35.55L262.38 35.09C262.18 34.4 261.67 32.9 260.88 30.57H253.57C252.2 34.09 251.52 36.11 251.52 36.64C251.52 36.95 251.66 37.14 251.93 37.2C252 37.22 252.57 37.27 253.64 37.33C254.3 37.35 254.63 37.46 254.63 37.66C254.63 37.88 254.33 37.99 253.74 37.99C252.7 37.99 251.48 37.94 250.09 37.85C249.75 37.83 249.4 37.82 249.04 37.82C248.68 37.82 248.32 37.84 247.98 37.89C247.8 37.91 247.65 37.92 247.53 37.92C247.21 37.92 247.05 37.82 247.05 37.63C247.05 37.44 247.4 37.32 248.11 37.3C248.84 37.28 249.36 37.18 249.68 37C250 36.8 250.25 36.44 250.44 35.91C253.38 27.82 255.77 21.33 257.61 16.42C257.66 16.16 257.75 15.87 257.89 15.54L258.06 14.94C258.13 14.7 258.22 14.58 258.33 14.58C258.4 14.58 258.45 14.65 258.5 14.78C258.8 15.63 259.47 17.42 260.52 20.15C261.34 22.28 263.38 27.64 266.64 36.21C266.82 36.69 267.05 37 267.32 37.14C267.62 37.27 268.21 37.35 269.1 37.37C269.69 37.39 269.99 37.5 269.99 37.7M260.66 29.82C260.3 28.83 259.69 27.19 258.85 24.9L257.21 20.39C256.25 22.8 255.1 25.95 253.75 29.82H260.65H260.66Z" fill="#03704A"/>
<path d="M288.71 36.93C288.71 37.85 287.91 38.32 286.32 38.32C284.55 38.32 283.15 37.61 282.15 36.18C281.72 35.56 281.43 34.97 281.3 34.4C281.19 33.83 281 32.38 280.75 30.05C280.61 28.65 280.15 27.66 279.35 27.09C278.55 26.5 277.25 26.18 275.45 26.14V36.52C275.45 36.96 275.82 37.23 276.54 37.34C276.75 37.36 277.27 37.38 278.11 37.4C278.41 37.4 278.55 37.49 278.55 37.67C278.55 37.87 278.36 37.96 277.97 37.96H277.56C277.35 37.94 276.36 37.93 274.59 37.93C274.25 37.93 273.67 37.94 272.85 37.96H269.95C269.44 37.96 269.19 37.86 269.19 37.67C269.19 37.52 269.52 37.42 270.19 37.4C271.26 37.38 271.84 37.25 271.93 37.01C272.02 36.91 272.07 36.47 272.07 35.73V17.53C272.07 16.65 271.97 16.12 271.76 15.95C271.58 15.77 271 15.68 270.02 15.66C269.45 15.66 269.16 15.56 269.16 15.37C269.16 15.15 269.34 15.04 269.71 15.04C269.78 15.04 269.88 15.05 270.02 15.07L274.57 15.17C275.02 15.17 275.66 15.17 276.48 15.13C277.39 15.09 278.03 15.07 278.39 15.07C280.5 15.07 282.18 15.53 283.41 16.45C284.66 17.35 285.29 18.59 285.29 20.15C285.29 21.71 284.65 22.96 283.38 23.98C282.1 24.97 280.38 25.55 278.19 25.73C277.99 25.75 277.87 25.78 277.85 25.83C277.85 25.92 277.96 25.96 278.19 25.96C280.58 26.35 282.22 27.17 283.11 28.4C284.02 29.61 284.62 31.8 284.92 34.99C285.1 36.79 285.74 37.7 286.83 37.7C287.17 37.7 287.33 37.64 287.33 37.5C287.33 37.48 287.33 37.45 287.3 37.43C287.19 37.19 287.13 36.99 287.13 36.84C287.13 36.38 287.38 36.15 287.88 36.15C288.43 36.15 288.7 36.42 288.7 36.97M281.64 20.42C281.64 17.28 280.23 15.7 277.4 15.7C276.65 15.7 276.14 15.8 275.86 16C275.59 16.2 275.45 16.55 275.45 17.06V25.43C277.64 25.45 279.21 25.06 280.17 24.28C281.15 23.49 281.64 22.2 281.64 20.42Z" fill="#03704A"/>
<path d="M307.7 32.59C307.7 32.67 307.67 33.21 307.63 34.2C307.59 35.19 307.56 36.13 307.56 37.03V38.12C305.33 38.01 300.91 37.96 294.31 37.96C293.51 37.96 292.73 37.97 291.95 38H290.04C289.6 38 289.39 37.9 289.39 37.7C289.39 37.56 289.46 37.49 289.59 37.47C289.66 37.47 290.09 37.44 290.89 37.37C291.49 37.33 291.83 37.21 291.95 37.01C292.09 36.81 292.16 36.3 292.16 35.46V16.93C292.16 16.3 292.05 15.92 291.85 15.81C291.67 15.68 291.05 15.61 290.01 15.61C289.65 15.61 289.46 15.51 289.46 15.31C289.46 15.11 289.71 15.01 290.21 15.01L296.05 15.05C296.26 15.05 297.54 15.04 299.91 15.01H304.69C305.37 15.01 306 14.97 306.57 14.88C306.62 15.83 306.72 17.13 306.88 18.81L307.02 20.23C307.05 20.34 307.05 20.48 307.05 20.66C307.05 20.88 306.95 20.99 306.74 20.99C306.49 20.99 306.31 20.71 306.19 20.16C305.76 18.18 305.06 16.93 304.07 16.4C303.34 16 301.43 15.8 298.33 15.8H295.53V25.46H296.35C298.9 25.46 300.45 25.28 301 24.9C301.57 24.53 301.96 23.44 302.16 21.64C302.21 21.18 302.33 20.95 302.54 20.95C302.79 20.95 302.91 21.15 302.91 21.54C302.91 21.93 302.89 22.51 302.84 23.28C302.79 24.05 302.77 24.63 302.77 25.03C302.77 27.38 302.82 28.99 302.91 29.87C302.93 30.09 302.94 30.28 302.94 30.44C302.94 30.73 302.81 30.86 302.57 30.86C302.41 30.86 302.29 30.78 302.23 30.6C302.19 30.4 302.09 29.78 301.96 28.75C301.78 27.45 301.22 26.66 300.29 26.34C299.88 26.21 298.81 26.14 297.08 26.14H295.54V37.21C300.55 37.21 303.49 37.11 304.35 36.91C305.85 36.58 306.71 35.18 306.91 32.69C306.96 32.15 307.11 31.87 307.36 31.87C307.58 31.87 307.7 32.1 307.7 32.57" fill="#03704A"/>
<path d="M23.23 0H15.21V8.02H23.23V0Z" fill="#03704A"/>
<path d="M43.4 18.22H33.66V27.96H43.4V18.22Z" fill="#03704A"/>
<path d="M33.6999 9.02002H24.4299V18.29H33.6999V9.02002Z" fill="#03704A"/>
<path d="M33.7099 28.05H24.4399V37.32H33.7099V28.05Z" fill="#03704A"/>
<path d="M6.39 19.52H0V25.91H6.39V19.52Z" fill="#03704A"/>
<path d="M13.92 10.0701H7.16003V16.8301H13.92V10.0701Z" fill="#03704A"/>
<path d="M14.29 28.6799H7.53003V35.4399H14.29V28.6799Z" fill="#03704A"/>
<path d="M23.23 38.1899H15.21V46.2099H23.23V38.1899Z" fill="#03704A"/>
<path d="M325.51 25.49C329.14 25.49 331.46 24.61 332.9 22.69C334.04 21.16 334.78 18.71 334.78 16.57C334.78 14.78 333.95 13.12 332.64 12.37C331.46 11.67 329.97 11.36 327.57 11.36C326.3 11.36 326.08 11.49 325.86 12.41C324.78 17.0766 323.803 21.39 322.93 25.35C324.11 25.44 324.68 25.48 325.51 25.48M318.99 10.4C322.8 10.4 324.81 10.35 327.48 10.27C328.57 10.22 329.49 10.22 330.19 10.22C335.7 10.22 338.37 12.37 338.37 16.82C338.37 19.4 337.32 21.94 335.62 23.69C333.61 25.7 330.72 26.71 327 26.71C325.73 26.71 324.77 26.62 322.76 26.4C322.54 27.62 322.5 27.8 322.15 29.51C321.28 33.8 321.15 34.67 321.15 35.24C321.15 36.59 322.2 37.08 325.13 37.12C325.48 37.17 325.57 37.21 325.57 37.51C325.57 37.95 325.44 38.12 325 38.12C324.87 38.12 324.52 38.12 324.13 38.08C323.34 38.04 320.85 37.99 318.66 37.99C317.727 37.99 316.11 38.0333 313.81 38.12H313.37C313.11 38.12 312.98 38.03 312.98 37.9C312.98 37.37 313.11 37.15 313.55 37.15C315.74 37.02 316.83 36.49 317.35 35.31C318 33.78 322.16 14.58 322.16 13.01C322.16 12 321.51 11.52 319.97 11.43C318.863 11.3433 318.31 11.2133 318.31 11.04C318.31 10.65 318.49 10.39 318.75 10.39H319.01L318.99 10.4Z" fill="#03704A"/>
<path d="M345.06 31.96V32.57C345.06 32.96 344.97 33.09 343.84 34.28C341.04 37.25 339.25 38.52 337.94 38.52C337.06 38.52 336.45 37.82 336.45 36.81C336.45 36.02 336.62 35.1 337.19 32.96C337.41 32.04 338.46 27.8 339.29 24.47C339.73 22.63 340.21 20.8 340.69 18.96C341.96 13.84 342.48 11.48 342.48 10.56C342.48 9.63998 342.04 9.37998 340.03 9.02998C339.85 8.97998 339.81 8.93998 339.81 8.80998C339.81 8.36998 339.94 8.19998 340.38 8.14998L341.52 7.92998C344.45 7.40998 345.5 7.22998 346.24 7.22998C346.51 7.22998 346.64 7.31998 346.64 7.53998C346.64 7.66998 346.59 7.79998 346.55 7.97998C345.72 10.56 339.69 34 339.69 34.7C339.69 35.01 339.82 35.14 340.08 35.14C340.87 35.14 342.88 33.78 344.8 31.95H345.06V31.96Z" fill="#03704A"/>
<path d="M366.18 29.95V31C366.18 31.48 366.14 31.57 365.66 32.27C363.43 35.59 362.42 36.73 360.67 37.82C360.06 38.21 359.4 38.43 358.88 38.43C357.83 38.43 357.26 37.77 357.26 36.68C357.26 35.37 357.44 34.93 361.41 25.14C358.66 28.9 355.37 32.88 353.15 35.11C350.83 37.47 349.39 38.43 348.16 38.43C347.2 38.43 346.72 37.82 346.72 36.59C346.72 35.36 347.29 33.27 348.47 30.16C349.13 28.46 350.88 24.34 351.45 23.25C351.54 23.03 351.58 22.94 351.58 22.86C351.58 22.82 351.54 22.77 351.49 22.77C351.23 22.77 349.22 24.52 347.42 26.27H347.24L347.02 25.66C346.97 25.53 346.93 25.44 346.93 25.4C346.93 25.23 347.68 24.35 348.99 22.95C351.57 20.2 353.05 19.1 354.11 19.1C354.68 19.1 355.12 19.49 355.12 19.98C355.12 20.47 354.99 20.85 351.23 30.47C350.4 32.61 349.92 34.1 349.92 34.49C349.92 34.71 350.01 34.84 350.23 34.84C352.42 34.84 359.24 26.92 361.91 21.37C362.78 19.49 363.05 19.14 363.66 19.14C364.36 19.14 365.1 19.66 365.1 20.23C365.1 20.49 365.06 20.58 364.58 21.76C363.27 25.04 360.29 33.79 360.29 34.44C360.29 34.75 360.51 34.97 360.77 34.97C362.04 34.97 364.09 32.87 365.8 29.94H366.19L366.18 29.95Z" fill="#03704A"/>
<path d="M378.95 21.25C378.95 22.17 378.47 22.74 377.64 22.74C377.33 22.74 377.07 22.65 376.5 22.39C375.32 21.78 374.58 21.56 373.83 21.56C372.38 21.56 371.47 22.26 371.47 23.4C371.47 24.36 371.86 25.02 374.14 27.86C375.67 29.78 376.28 31.05 376.28 32.28C376.28 35.47 372.74 38.53 368.98 38.53C366.92 38.53 366 37.78 366 36.21C366 35.25 366.44 34.72 367.22 34.72C367.66 34.72 368.14 34.85 369.01 35.29C370.19 35.9 371.07 36.16 371.76 36.16C372.94 36.16 373.9 35.24 373.9 34.15C373.9 33.14 373.29 32.05 371.28 29.51C369.71 27.54 369.23 26.54 369.23 25.4C369.23 22.34 372.68 19.15 375.92 19.15C377.71 19.15 378.94 19.98 378.94 21.25" fill="#03704A"/>
<path d="M296.62 72.16C296.62 72.45 296.51 72.56 296.22 72.59C292.7 70.27 290.32 65.55 290.32 60.19C290.32 54.83 292.7 50.11 296.22 47.79C296.51 47.82 296.62 47.93 296.62 48.22C293.79 51.2 292.21 55.03 292.21 60.19C292.21 65.35 293.78 69.18 296.62 72.16Z" fill="#03704A"/>
<path d="M306.03 59.7901C304.66 59.7901 304.6 59.85 304.6 60.71V64.75C304.6 67.76 304.74 68.1601 306.35 68.3301L307.18 68.42C307.35 68.53 307.29 69.05 307.12 69.14C305.57 69.08 304.6 69.0501 303.48 69.0501C302.25 69.0501 301.27 69.11 300.16 69.14C299.99 69.05 299.93 68.6 300.1 68.42L300.59 68.3301C302.19 68.0401 302.25 67.76 302.25 64.75V54.44C302.25 51.43 302.05 50.9501 300.56 50.8301L299.82 50.7701C299.65 50.6601 299.71 50.14 299.88 50.05C301.28 50.08 302.26 50.14 303.49 50.14C304.61 50.14 305.58 50.11 306.81 50.05C306.98 50.14 307.04 50.6501 306.87 50.7701L306.33 50.8301C304.67 51.0001 304.61 51.43 304.61 54.44V57.73C304.61 58.62 304.67 58.6501 306.04 58.6501H314.23C315.6 58.6501 315.66 58.62 315.66 57.73V54.44C315.66 51.43 315.6 51.0001 313.91 50.8301L313.37 50.7701C313.2 50.6601 313.26 50.14 313.43 50.05C314.75 50.11 315.72 50.14 316.89 50.14C318.06 50.14 318.98 50.11 320.27 50.05C320.44 50.14 320.5 50.6501 320.33 50.7701L319.73 50.8301C318.07 51.0001 318.01 51.43 318.01 54.44V64.75C318.01 67.76 318.07 68.1301 319.73 68.3301L320.42 68.42C320.59 68.53 320.53 69.05 320.36 69.14C318.99 69.08 318.01 69.0501 316.9 69.0501C315.73 69.0501 314.69 69.08 313.44 69.14C313.27 69.05 313.21 68.6 313.38 68.42L313.92 68.3301C315.67 68.0401 315.67 67.76 315.67 64.75V60.71C315.67 59.85 315.61 59.7901 314.24 59.7901H306.05H306.03Z" fill="#03704A"/>
<path d="M332.81 61.39C333.47 62.74 334.1 64.05 334.78 65.31H334.84C335.61 63.96 336.33 62.4801 337.04 61.0201L339.73 55.55C341.02 52.94 341.85 51.37 341.91 50.05C342.88 50.14 343.48 50.14 344.06 50.14C344.78 50.14 345.72 50.11 346.61 50.05C346.78 50.16 346.78 50.6501 346.64 50.7701L346.04 50.8301C344.24 51.0001 344.01 51.55 344.04 53.55C344.1 56.58 344.13 61.88 344.35 66C344.44 67.43 344.41 68.2 345.75 68.32L346.67 68.4101C346.84 68.5801 346.81 69.01 346.61 69.13C345.44 69.07 344.26 69.0401 343.23 69.0401C342.2 69.0401 340.94 69.07 339.77 69.13C339.57 68.99 339.54 68.5901 339.71 68.4101L340.54 68.32C341.94 68.18 341.94 67.72 341.94 65.89L341.85 53.9501H341.79C341.59 54.2701 340.5 56.56 339.93 57.67L337.38 62.68C336.09 65.2001 334.8 67.89 334.29 69.21C334.23 69.3 334.12 69.32 334 69.32C333.94 69.32 333.8 69.29 333.74 69.21C333.25 67.69 331.88 64.89 331.22 63.48L328.64 57.9501C328.04 56.6301 327.44 55.1401 326.81 53.8301H326.75C326.64 55.6101 326.55 57.2701 326.46 58.93C326.37 60.68 326.26 63.2201 326.26 65.6601C326.26 67.7801 326.43 68.24 327.55 68.32L328.64 68.4101C328.84 68.5801 328.81 69.04 328.61 69.13C327.64 69.07 326.52 69.0401 325.43 69.0401C324.51 69.0401 323.48 69.07 322.51 69.13C322.34 68.99 322.28 68.5601 322.45 68.4101L323.08 68.32C324.28 68.15 324.68 67.9801 324.86 65.9701C325.03 64.0801 325.17 62.51 325.35 59.67C325.49 57.29 325.61 54.8601 325.66 53.2901C325.72 51.4901 325.49 51.0601 323.74 50.8301L323.28 50.7701C323.14 50.6001 323.17 50.17 323.39 50.05C324.25 50.11 324.94 50.14 325.65 50.14C326.31 50.14 327.08 50.14 328.03 50.05C327.92 51.17 328.63 52.9401 329.52 54.7701L332.78 61.3801L332.81 61.39Z" fill="#03704A"/>
<path d="M366.37 60.3899C366.37 55.6699 364.28 50.5699 358.81 50.5699C355.83 50.5699 351.97 52.5999 351.97 58.8699C351.97 63.1099 354.03 68.5999 359.67 68.5999C363.1 68.5999 366.37 66.0199 366.37 60.3799M349.1 59.7899C349.1 54.0599 353.39 49.6799 359.29 49.6799C365.9 49.6799 369.23 54.4599 369.23 59.4999C369.23 65.2799 364.82 69.4899 359.29 69.4899C352.93 69.4899 349.1 64.9399 349.1 59.7799" fill="#03704A"/>
<path d="M370.61 48.22C370.61 47.93 370.72 47.82 371.01 47.79C374.53 50.11 376.91 54.83 376.91 60.19C376.91 65.55 374.53 70.27 371.01 72.59C370.72 72.56 370.61 72.45 370.61 72.16C373.44 69.18 375.02 65.35 375.02 60.19C375.02 55.03 373.45 51.2 370.61 48.22Z" fill="#03704A"/>
</g>
<defs>
<clipPath id="clip0_406_38680">
<rect width="378.95" height="72.59" fill="white"/>
</clipPath>
</defs>
</svg>
