<svg width="229" height="35" viewBox="0 0 229 35" fill="none" xmlns="http://www.w3.org/2000/svg">
<path d="M9.98242 0.266846H14.2393V4.5397H9.98242V0.266846Z" fill="white"/>
<path d="M9.99524 22.3768H14.2521V26.6497H9.99524V22.3768Z" fill="white"/>
<path d="M20.4175 10.7754H25.5795L25.5838 15.9611H20.4175V10.7754Z" fill="white"/>
<path d="M14.884 5.55115H19.8027L19.807 10.4926L14.884 10.4883V5.55115Z" fill="white"/>
<path d="M15.0505 16.4968H19.9692V21.434H15.0505V16.4968Z" fill="white"/>
<path d="M0 11.3026H3.38584L3.39011 14.7054H0V11.3026Z" fill="white"/>
<path d="M5.07239 6.27112H8.6589V9.87112H5.07239V6.27112Z" fill="white"/>
<path d="M5.27307 16.184H8.85959V19.784H5.27307V16.184Z" fill="white"/>
<path d="M89.1463 12.4254H98.5994V6.53684C98.5994 5.50398 98.531 4.82256 98.403 4.49684C98.3005 4.24827 98.087 4.03398 97.7668 3.85827C97.3313 3.61827 96.8701 3.49827 96.3877 3.49827H95.6618V2.93684H104.419V3.49827H103.693C103.211 3.49827 102.749 3.61398 102.314 3.84113C101.994 3.9997 101.772 4.2397 101.656 4.56113C101.541 4.88256 101.481 5.54256 101.481 6.53256V19.8097C101.481 20.8383 101.55 21.5197 101.678 21.8454C101.78 22.0983 101.985 22.3083 102.301 22.4883C102.745 22.7283 103.211 22.8483 103.693 22.8483H104.419V23.4097H95.6618V22.8483H96.3877C97.2245 22.8483 97.8394 22.604 98.2194 22.1154C98.4713 21.794 98.5994 21.0268 98.5994 19.8097V13.544H89.1463V19.8097C89.1463 20.8383 89.2104 21.5197 89.3385 21.8454C89.4367 22.0983 89.6501 22.3083 89.9746 22.4883C90.4059 22.7283 90.8585 22.8483 91.3409 22.8483H92.0796V23.4097H83.3225V22.8483H84.0484C84.898 22.8483 85.5086 22.604 85.8928 22.1154C86.1362 21.794 86.2558 21.0268 86.2558 19.8097V6.53256C86.2558 5.4997 86.1875 4.81827 86.0594 4.49256C85.9569 4.24398 85.7477 4.0297 85.436 3.85398C84.9919 3.61398 84.5266 3.49398 84.0441 3.49398H83.3182V2.93256H92.0753V3.49398H91.3367C90.8542 3.49398 90.4016 3.6097 89.9704 3.83684C89.6544 3.99541 89.4409 4.23541 89.3214 4.55684C89.2018 4.87827 89.1421 5.53827 89.1421 6.52827V12.4168L89.1463 12.4254Z" fill="white"/>
<path d="M109.555 9.32686V15.194H112.749C113.603 15.194 114.171 15.0654 114.457 14.8126C114.841 14.4783 115.055 13.8869 115.093 13.0469H115.503V18.2283H115.093C114.991 17.504 114.888 17.0411 114.786 16.8354C114.649 16.5783 114.436 16.3769 114.137 16.2311C113.838 16.0854 113.372 16.0126 112.749 16.0126H109.555V20.8983C109.555 21.554 109.585 21.9526 109.645 22.094C109.705 22.2354 109.807 22.3469 109.948 22.4326C110.093 22.5183 110.371 22.5611 110.781 22.5611H113.296C114.137 22.5611 114.743 22.5011 115.123 22.3854C115.507 22.2697 115.87 22.0383 116.22 21.6954C116.673 21.2454 117.138 20.564 117.612 19.6597H118.086L116.801 23.4097H105.311V22.9983H105.841C106.191 22.9983 106.528 22.9126 106.844 22.7454C107.083 22.6297 107.237 22.454 107.322 22.2183C107.408 21.9826 107.45 21.5069 107.45 20.7826V11.0969C107.45 10.1411 107.356 9.54971 107.169 9.32686C106.9 9.03114 106.46 8.88114 105.845 8.88114H105.316V8.474H116.763L116.933 11.7483H116.459C116.306 10.9726 116.139 10.4411 115.951 10.154C115.772 9.86686 115.494 9.644 115.132 9.494C114.841 9.38686 114.333 9.33114 113.603 9.33114H109.56L109.555 9.32686Z" fill="white"/>
<path d="M128.88 18.4297H123.09L122.078 20.7654C121.831 21.344 121.707 21.7768 121.707 22.064C121.707 22.2911 121.814 22.4883 122.031 22.664C122.245 22.8354 122.71 22.9468 123.427 22.9983V23.4097H118.752V22.9983C119.376 22.8868 119.777 22.7454 119.956 22.5654C120.332 22.2097 120.742 21.494 121.199 20.4097L126.527 8.12683H126.95L132.031 20.5554C132.449 21.554 132.825 22.2011 133.167 22.4968C133.504 22.7925 133.982 22.9597 134.588 22.9983V23.4097H128.683V22.9983C129.277 22.9683 129.678 22.8697 129.887 22.7025C130.097 22.5354 130.195 22.3297 130.195 22.0897C130.195 21.7683 130.05 21.2625 129.759 20.5725L128.884 18.4297H128.88ZM128.534 17.5768L126.07 11.5468L123.462 17.5768H128.53H128.534Z" fill="white"/>
<path d="M147.636 19.2826L148.008 19.3597L146.748 23.4097H135.233V22.9983H135.792C136.42 22.9983 136.873 22.7969 137.142 22.3897C137.295 22.1583 137.372 21.6226 137.372 20.7826V11.0969C137.372 10.1711 137.27 9.59257 137.065 9.36114C136.779 9.044 136.352 8.88114 135.792 8.88114H135.233V8.474H141.928V8.88114C141.151 8.87257 140.609 8.94543 140.297 9.09971C139.981 9.254 139.772 9.44257 139.656 9.67828C139.541 9.90971 139.481 10.4626 139.481 11.3411V20.7483C139.481 21.3569 139.541 21.7769 139.656 22.004C139.746 22.1583 139.883 22.274 140.062 22.3469C140.246 22.4197 140.813 22.4583 141.77 22.4583H142.854C143.99 22.4583 144.789 22.3726 145.245 22.2054C145.702 22.0383 146.125 21.7383 146.505 21.3097C146.885 20.8811 147.265 20.2083 147.641 19.2869L147.636 19.2826Z" fill="white"/>
<path d="M159.425 8.47401L159.596 11.9583H159.177C159.096 11.3412 158.985 10.8997 158.844 10.6383C158.618 10.214 158.319 9.90116 157.939 9.69544C157.563 9.49401 157.068 9.39115 156.453 9.39115H154.361V20.8169C154.361 21.734 154.464 22.3083 154.664 22.5354C154.946 22.844 155.386 22.9983 155.975 22.9983H156.5V23.4097H150.113V22.9983H150.651C151.287 22.9983 151.744 22.8054 152.009 22.424C152.175 22.1883 152.256 21.6526 152.256 20.8169V9.39115H150.471C149.78 9.39115 149.289 9.44258 148.998 9.54544C148.614 9.68258 148.294 9.95258 148.021 10.3469C147.752 10.7412 147.594 11.2769 147.542 11.954H147.128L147.299 8.46973H159.429L159.425 8.47401Z" fill="white"/>
<path d="M164.779 15.3954H171.675V11.0969C171.675 10.3426 171.628 9.84543 171.534 9.60971C171.457 9.42971 171.303 9.27114 171.068 9.14257C170.752 8.96686 170.419 8.88114 170.065 8.88114H169.531V8.474H175.919V8.88114H175.389C175.035 8.88114 174.706 8.96686 174.386 9.134C174.151 9.24971 173.989 9.42543 173.903 9.66114C173.818 9.89686 173.775 10.3769 173.775 11.1011V20.7869C173.775 21.5369 173.822 22.034 173.92 22.2697C173.993 22.454 174.147 22.6083 174.373 22.7411C174.697 22.9169 175.035 23.0026 175.389 23.0026H175.919V23.414H169.531V23.0026H170.065C170.675 23.0026 171.12 22.8269 171.397 22.4669C171.581 22.2354 171.675 21.674 171.675 20.7869V16.2183H164.779V20.7869C164.779 21.5369 164.826 22.034 164.924 22.2697C164.997 22.454 165.151 22.6083 165.381 22.7411C165.697 22.9169 166.03 23.0026 166.384 23.0026H166.918V23.414H160.531V23.0026H161.064C161.679 23.0026 162.128 22.8269 162.409 22.4669C162.584 22.2354 162.674 21.674 162.674 20.7869V11.1011C162.674 10.3469 162.627 9.84971 162.533 9.614C162.461 9.434 162.311 9.27543 162.081 9.14686C161.756 8.97114 161.419 8.88543 161.069 8.88543H160.535V8.47828H166.922V8.88543H166.389C166.034 8.88543 165.701 8.97114 165.385 9.13829C165.163 9.254 165.001 9.42971 164.916 9.66543C164.83 9.90114 164.783 10.3811 164.783 11.1054V15.404L164.779 15.3954Z" fill="white"/>
<path d="M33.6748 3.2754V3.83683C32.9191 3.8454 32.4024 3.89255 32.1292 3.98255C31.651 4.14112 31.4076 4.46255 31.4076 4.94255C31.4076 5.19112 31.4887 5.53398 31.6595 5.97969C31.8388 6.42112 32.1591 7.16683 32.633 8.20826L37.3467 18.7511L41.6334 7.33397C41.8213 6.83255 41.9622 6.40826 42.0604 6.0654C42.1586 5.71826 42.2056 5.43969 42.2056 5.22112C42.2056 4.64255 41.9579 4.24398 41.4541 4.03826C41.1638 3.92255 40.6728 3.84969 39.9939 3.83255V3.27112H46.1678V3.78969C45.5316 3.87969 45.0577 4.05112 44.7546 4.30826C44.2892 4.69398 43.8366 5.4654 43.384 6.63112L36.7105 23.6668H36.2537L28.8159 7.01683C28.1883 5.60683 27.6802 4.72826 27.2959 4.38112C26.9245 4.03826 26.3737 3.84112 25.6478 3.78969V3.27112H33.6748" fill="white"/>
<path d="M43.0938 22.904C44.0117 22.8354 44.6095 22.6982 44.8827 22.4925C45.156 22.2782 45.2926 21.7297 45.2926 20.8511V10.7497C45.2926 9.91396 45.156 9.37824 44.8827 9.14253C44.6138 8.89824 44.0117 8.75253 43.0938 8.70967V8.28967H49.7886V8.70967C48.8663 8.75253 48.2729 8.89824 47.9996 9.14253C47.7263 9.37824 47.5897 9.91396 47.5897 10.7497V20.8511C47.5897 21.734 47.7263 22.2782 47.9996 22.4925C48.2729 22.6982 48.8706 22.8354 49.7886 22.904V23.3111H43.0938V22.904Z" fill="white"/>
<path d="M55.7447 8.28113V8.70113C55.1768 8.7097 54.7883 8.74398 54.5834 8.81256C54.2204 8.93256 54.0411 9.17256 54.0411 9.53684C54.0411 9.72113 54.1052 9.97827 54.229 10.3126C54.3613 10.6426 54.6047 11.204 54.9591 11.9883L58.4944 19.8954L61.7094 11.3326C61.8503 10.9554 61.9571 10.6383 62.0297 10.3811C62.1022 10.124 62.1407 9.9097 62.1407 9.74684C62.1407 9.3097 61.9528 9.01398 61.5771 8.8597C61.355 8.7697 60.9879 8.72256 60.4798 8.70541V8.28541H65.1081V8.67541C64.6299 8.7397 64.2755 8.87256 64.0492 9.06541C63.7034 9.35256 63.3618 9.93541 63.0202 10.8054L58.0162 23.5854H57.6746L52.0984 11.0968C51.6245 10.0383 51.2445 9.38256 50.9584 9.12113C50.6766 8.86398 50.2667 8.71398 49.7202 8.6797V8.2897H55.7447" fill="white"/>
<path fill-rule="evenodd" clip-rule="evenodd" d="M61.3038 23.3111V22.904C61.8845 22.8354 62.32 22.6169 62.6061 22.2354C62.9007 21.8583 63.4002 20.834 64.109 19.1669L68.827 8.01971H69.2668L74.9027 20.8983C75.2784 21.7554 75.5816 22.2869 75.7993 22.4969C76.0256 22.694 76.4056 22.8311 76.9351 22.9083V23.3154H71.1796V22.9083C71.8414 22.8483 72.2726 22.7754 72.4605 22.694C72.6526 22.604 72.7465 22.394 72.7465 22.064C72.7465 21.9526 72.7124 21.7554 72.6398 21.4769C72.5629 21.194 72.4605 20.9026 72.3281 20.5897L71.3888 18.4083H65.4668C64.8775 19.8911 64.5232 20.7997 64.4079 21.134C64.2969 21.4597 64.2414 21.7169 64.2414 21.9097C64.2414 22.2911 64.3951 22.5569 64.7068 22.7069C64.8989 22.7969 65.2575 22.8654 65.787 22.9083V23.3154H61.3038M71.0686 17.4783L68.4513 11.2211L65.8638 17.4783H71.0686Z" fill="white"/>
<path d="M177.763 2.92401C178.079 2.92401 178.382 3.00544 178.681 3.16401C178.98 3.32687 179.215 3.55401 179.381 3.85401C179.548 4.15401 179.633 4.46687 179.633 4.79258C179.633 5.1183 179.552 5.42687 179.386 5.72258C179.219 6.0183 178.989 6.24973 178.694 6.41687C178.395 6.57973 178.088 6.66544 177.763 6.66544C177.439 6.66544 177.131 6.58401 176.832 6.41687C176.538 6.25401 176.307 6.02258 176.141 5.72258C175.974 5.42687 175.893 5.11401 175.893 4.79258C175.893 4.47115 175.978 4.15401 176.145 3.85401C176.311 3.55401 176.546 3.32258 176.845 3.16401C177.144 3.00115 177.451 2.92401 177.763 2.92401ZM177.763 3.15973C177.49 3.15973 177.221 3.2283 176.96 3.36973C176.7 3.51115 176.495 3.71258 176.35 3.97401C176.205 4.23544 176.128 4.50973 176.128 4.79258C176.128 5.07544 176.2 5.34544 176.346 5.60687C176.491 5.8683 176.691 6.06973 176.952 6.21115C177.212 6.35687 177.481 6.42544 177.763 6.42544C178.045 6.42544 178.318 6.35258 178.574 6.21115C178.835 6.06544 179.036 5.86401 179.181 5.60687C179.326 5.34544 179.398 5.07544 179.398 4.79258C179.398 4.50973 179.326 4.23544 179.181 3.97401C179.036 3.71258 178.831 3.51115 178.57 3.36973C178.31 3.2283 178.041 3.15973 177.763 3.15973ZM176.768 3.70401H177.72C178.041 3.70401 178.263 3.74258 178.387 3.81973C178.562 3.93115 178.651 4.08544 178.651 4.28258C178.651 4.40687 178.613 4.5183 178.536 4.61687C178.459 4.71544 178.34 4.78401 178.182 4.83115L178.545 5.49544C178.596 5.58973 178.651 5.6583 178.707 5.70115C178.732 5.72258 178.771 5.73973 178.818 5.7483V5.84258H178.177L177.639 4.86973H177.52V5.39258C177.52 5.5383 177.541 5.63258 177.58 5.67544C177.618 5.7183 177.708 5.73973 177.84 5.74401V5.8383H176.721V5.74401C176.832 5.74401 176.901 5.72687 176.931 5.6883C176.973 5.63687 176.995 5.5383 176.995 5.3883V4.13687C176.995 3.99544 176.978 3.90544 176.948 3.86687C176.918 3.8283 176.854 3.80258 176.76 3.79401V3.69973L176.768 3.70401ZM177.524 4.73258C177.584 4.74115 177.635 4.74544 177.674 4.74544C177.789 4.74544 177.883 4.70258 177.968 4.61687C178.049 4.53115 178.092 4.41544 178.092 4.27401C178.092 4.13258 178.054 4.01687 177.977 3.93973C177.9 3.86258 177.785 3.82401 177.627 3.82401H177.528V4.73258H177.524Z" fill="white"/>
<path d="M220.938 1.59973L220.874 1.6083L195.969 1.59973H195.333C191.507 1.59973 188.403 4.71116 188.403 8.55545L188.331 9.81116V17.774C188.331 21.614 191.435 24.7297 195.26 24.7297H212.518C212.599 24.7812 212.676 24.8454 212.757 24.9226C215.255 27.404 217.766 29.8726 220.276 32.3412C220.417 32.4783 220.562 32.6112 220.814 32.8512C220.827 31.6854 220.84 30.6569 220.848 29.6283C220.861 27.9954 220.874 26.3626 220.882 24.7297H220.942C224.768 24.7297 227.872 21.6183 227.872 17.774V8.55545C227.872 4.71545 224.772 1.59973 220.942 1.59973H220.938Z" fill="white"/>
<path d="M197.152 17.1612C197.527 17.1569 197.942 17.0069 198.394 16.7026C198.847 16.4026 199.286 16.0469 199.713 15.644C200.14 15.2369 200.529 14.8254 200.888 14.4054C201.238 13.9812 201.511 13.6426 201.69 13.3854C201.797 13.2269 201.9 13.1326 201.998 13.0983C202.096 13.0683 202.169 13.0812 202.22 13.1412C202.267 13.2012 202.284 13.2954 202.275 13.424C202.262 13.5483 202.211 13.694 202.113 13.8526C202.028 13.9983 201.887 14.2083 201.69 14.4869C201.49 14.7612 201.259 15.0654 200.986 15.3869C200.717 15.7083 200.405 16.0426 200.064 16.3812C199.722 16.7154 199.363 17.024 198.988 17.2983C198.612 17.5769 198.223 17.804 197.826 17.984C197.425 18.1597 197.032 18.254 196.644 18.2583C196.11 18.2583 195.662 18.164 195.303 17.9669C194.944 17.7697 194.654 17.5126 194.44 17.1954C194.227 16.8783 194.073 16.5312 193.988 16.1497C193.902 15.764 193.855 15.3869 193.855 15.0097C193.855 14.6326 193.932 14.1612 194.099 13.5997C194.265 13.0383 194.513 12.4983 194.842 11.9797C195.171 11.4612 195.589 11.0112 196.097 10.6383C196.605 10.2654 197.203 10.0726 197.895 10.0683C198.283 10.0683 198.612 10.2012 198.889 10.4626C199.167 10.7283 199.299 11.0926 199.291 11.5554C199.291 11.774 199.257 11.9883 199.188 12.2069C199.116 12.4169 199.022 12.6097 198.898 12.7726C198.778 12.9354 198.637 13.0683 198.475 13.1669C198.313 13.2654 198.134 13.3169 197.942 13.3169C197.784 13.3169 197.664 13.2612 197.583 13.1454C197.506 13.0297 197.455 12.8969 197.433 12.7469C197.416 12.5926 197.412 12.4426 197.433 12.2969C197.451 12.1512 197.468 12.0526 197.493 12.0054C197.553 11.9197 197.621 11.8597 197.69 11.8212C197.762 11.7826 197.848 11.7397 197.946 11.6883C198.018 11.654 198.074 11.5983 198.117 11.5254C198.159 11.4526 198.181 11.3712 198.181 11.2854C198.181 11.1997 198.155 11.1269 198.108 11.0669C198.061 11.0069 197.98 10.9769 197.873 10.9769C197.762 10.9769 197.566 11.0669 197.284 11.2426C196.998 11.4226 196.712 11.684 196.417 12.0354C196.123 12.3869 195.862 12.824 195.636 13.3469C195.41 13.874 195.29 14.4826 195.286 15.1769C195.277 15.5797 195.333 15.9097 195.457 16.1626C195.576 16.4154 195.734 16.6169 195.913 16.7626C196.097 16.9083 196.298 17.0112 196.515 17.0712C196.733 17.1312 196.947 17.1612 197.152 17.1569V17.1612Z" fill="#006241"/>
<path d="M210.14 14.0497C209.973 14.294 209.756 14.5983 209.495 14.9583C209.231 15.3226 208.953 15.6826 208.671 16.0469C208.389 16.4069 208.116 16.7369 207.843 17.0369C207.574 17.3369 207.348 17.5469 207.164 17.6711C207.044 17.744 206.904 17.804 206.746 17.8554C206.588 17.9069 206.43 17.9369 206.263 17.9497C206.097 17.9626 205.947 17.954 205.798 17.924C205.653 17.894 205.524 17.8469 205.413 17.774C205.302 17.6883 205.213 17.5683 205.14 17.4097C205.076 17.2769 205.021 17.1011 204.965 16.8826C204.91 16.664 204.888 16.3897 204.897 16.064C204.606 16.5526 204.291 16.9297 203.94 17.1954C203.59 17.4569 203.257 17.654 202.946 17.7783C202.583 17.9154 202.22 17.9969 201.853 18.0226C201.686 18.0226 201.502 17.9669 201.306 17.8511C201.11 17.7354 200.947 17.5554 200.811 17.3069C200.674 17.0583 200.589 16.7369 200.55 16.3426C200.508 15.9483 200.555 15.4726 200.683 14.924C200.849 14.1826 201.11 13.5011 201.477 12.8926C201.844 12.2797 202.245 11.7569 202.677 11.3197C203.112 10.8869 203.539 10.5569 203.962 10.334C204.384 10.1111 204.735 10.0126 205.012 10.034C205.341 10.094 205.674 10.154 205.879 10.2869C206.383 10.6169 206.724 10.8526 206.75 11.6454C206.75 11.6711 206.72 11.7997 206.72 11.8769C206.72 11.954 206.703 12.0997 206.669 12.3097C206.635 12.5154 206.579 12.794 206.511 13.1497C206.442 13.5054 206.348 13.9597 206.229 14.5211C206.208 14.6326 206.186 14.7311 206.169 14.8254C206.152 14.9154 206.135 15.0097 206.118 15.0997C206.101 15.1897 206.079 15.2969 206.054 15.4211C206.028 15.5411 206.003 15.6954 205.964 15.8797C205.956 15.9911 205.951 16.1069 205.96 16.2354C205.964 16.364 205.99 16.4797 206.024 16.5911C206.062 16.7026 206.122 16.7883 206.199 16.8569C206.276 16.9254 206.387 16.9554 206.536 16.9554C206.656 16.9554 206.814 16.8783 207.006 16.724C207.198 16.5697 207.403 16.3726 207.621 16.1326C207.839 15.8926 208.065 15.6311 208.3 15.344C208.535 15.0569 208.752 14.7783 208.957 14.5083C209.162 14.2383 209.35 14.0026 209.504 13.7926C209.666 13.5826 209.786 13.4283 209.854 13.334C209.952 13.2226 210.05 13.1583 210.144 13.1369C210.238 13.1197 210.315 13.1454 210.362 13.2226C210.409 13.2911 210.422 13.4069 210.392 13.5483C210.362 13.6983 210.277 13.8654 210.131 14.0626L210.14 14.0497ZM204.816 14.894C204.875 14.6497 204.944 14.3626 205.029 14.0369C205.115 13.7069 205.183 13.3897 205.243 13.0854C205.298 12.7811 205.345 12.5283 205.375 12.3269C205.401 12.1254 205.413 11.9583 205.413 11.9026C205.401 11.3926 204.957 11.2297 204.769 11.1869C204.602 11.1526 204.355 11.2083 204.026 11.4954C203.693 11.7869 203.313 12.314 202.882 13.0854C202.702 13.4069 202.561 13.7454 202.45 14.1011C202.344 14.4611 202.271 14.7997 202.233 15.1169C202.19 15.434 202.186 15.7126 202.211 15.9483C202.237 16.1883 202.288 16.3426 202.361 16.4154C202.493 16.5483 202.647 16.6126 202.817 16.604C202.988 16.5997 203.159 16.5483 203.334 16.454C203.509 16.364 203.684 16.244 203.859 16.094C204.034 15.944 204.192 15.794 204.329 15.6354C204.466 15.4769 204.581 15.3311 204.671 15.1983C204.76 15.0611 204.811 14.9669 204.82 14.9026L204.816 14.894Z" fill="#006241"/>
<path d="M223.918 14.1183C223.568 14.6411 223.175 15.1511 222.727 15.644C222.283 16.1369 221.813 16.5783 221.314 16.9683C220.814 17.354 220.306 17.6711 219.781 17.9111C219.26 18.1511 218.752 18.2711 218.257 18.2797C218 18.2797 217.714 18.2197 217.416 18.0997C217.112 17.9754 216.839 17.7869 216.587 17.5297C216.34 17.2726 216.139 16.934 215.989 16.5226C215.84 16.1069 215.793 15.6054 215.844 15.014C215.887 14.5297 216.032 14.0197 216.284 13.4754C216.536 12.9354 216.843 12.4383 217.211 11.9883C217.578 11.5383 217.996 11.1611 218.457 10.8611C218.923 10.5611 219.388 10.4111 219.858 10.4069C220.306 10.4026 220.631 10.514 220.836 10.7369C221.036 10.9597 221.126 11.2383 221.105 11.5683C221.07 11.9369 220.972 12.2754 220.806 12.584C220.635 12.8926 220.434 13.1711 220.199 13.424C219.965 13.6769 219.717 13.8997 219.452 14.1011C219.187 14.3069 218.936 14.4911 218.705 14.6583C218.449 14.8383 218.201 15.0097 217.966 15.1683C217.732 15.3311 217.527 15.4769 217.352 15.6054C217.364 15.9011 217.42 16.1497 217.518 16.3511C217.612 16.5526 217.732 16.7154 217.877 16.8397C218.018 16.964 218.18 17.0497 218.363 17.1011C218.547 17.1526 218.735 17.1783 218.923 17.1783C219.324 17.1783 219.738 17.0454 220.174 16.7883C220.609 16.5311 221.032 16.2226 221.45 15.854C221.865 15.4897 222.253 15.1083 222.607 14.7183C222.966 14.324 223.256 13.9854 223.491 13.6983C223.572 13.604 223.658 13.544 223.747 13.5269C223.837 13.5097 223.905 13.5226 223.961 13.5611C224.016 13.604 224.042 13.6769 224.042 13.7754C224.042 13.874 224.004 13.9897 223.918 14.1226V14.1183ZM219.371 11.4226C219.23 11.4226 219.059 11.4954 218.867 11.6411C218.675 11.7869 218.483 11.9883 218.295 12.254C218.107 12.5197 217.936 12.8497 217.77 13.2354C217.608 13.6211 217.488 14.0626 217.411 14.5597C217.552 14.4526 217.702 14.3454 217.868 14.2297C218.035 14.114 218.197 13.994 218.359 13.8611C218.863 13.4669 219.213 13.124 219.414 12.824C219.61 12.5283 219.721 12.2711 219.743 12.0611C219.764 11.834 219.738 11.6711 219.666 11.5726C219.597 11.474 219.495 11.4226 219.367 11.4269L219.371 11.4226ZM220.789 6.91829C220.895 6.83258 221.011 6.84115 221.143 6.93115C221.271 7.02543 221.365 7.16686 221.429 7.35543C221.514 7.604 221.523 7.79258 221.45 7.91686C221.382 8.04115 221.275 8.15258 221.134 8.24686C221.062 8.31115 220.929 8.39258 220.737 8.49972C220.545 8.60686 220.332 8.71829 220.101 8.834C219.875 8.94972 219.649 9.04829 219.422 9.14258C219.2 9.23258 219.029 9.284 218.914 9.29686C218.782 9.30972 218.684 9.29686 218.611 9.254C218.538 9.21543 218.483 9.15972 218.44 9.10401C218.402 9.044 218.372 8.97972 218.363 8.89829C218.351 8.82115 218.342 8.75686 218.342 8.69258C219.256 8.04543 219.896 7.58686 220.259 7.31258C220.468 7.15829 220.648 7.02543 220.789 6.91829Z" fill="#006241"/>
<path fill-rule="evenodd" clip-rule="evenodd" d="M211.865 4.78404C214.26 4.30404 216.438 5.82119 216.579 8.07119C216.668 9.54119 215.614 10.8612 214.119 11.1526C212.642 11.4398 211.498 10.8012 211.024 9.42547C210.593 8.16976 211.493 6.81976 212.813 6.82833C213.206 6.83262 213.645 7.05976 213.961 7.30833C214.128 7.4369 214.674 7.98547 214.128 8.11833C213.902 8.16976 213.641 8.11833 213.453 7.99833C212.975 7.70262 212.625 7.98976 212.599 8.08833C212.518 8.41404 212.493 8.8769 212.668 9.12547C213.274 9.9869 214.683 9.8069 215.174 8.85547C215.763 7.70262 215.238 6.36547 214 5.99262C212.535 5.5469 211.242 5.94547 210.23 7.05547C209.205 8.1869 209.427 9.52833 209.973 10.7498C210.405 11.7226 211.037 12.6226 211.673 13.4798C213.201 15.5326 214.329 17.7398 214.645 20.3155C214.691 20.6969 214.751 21.0869 214.726 21.464C214.713 21.6998 214.683 22.1283 214.435 22.1498C214.179 22.1712 214.089 21.7469 214.017 21.5155C213.85 21.0055 213.761 20.4698 213.624 19.9469C213.048 17.7355 211.835 15.8969 210.383 14.1655C209.623 13.2569 208.927 12.2283 208.453 11.144C207.185 8.24261 208.752 5.41404 211.856 4.78833L211.865 4.78404Z" fill="#006241"/>
<path d="M211.438 14.9412C212.766 14.8726 214.371 14.6326 214.896 12.7855C215.11 12.0355 214.38 11.9369 214.265 12.3697C213.867 13.844 212.326 13.9126 211.318 13.964C210.96 13.9812 211.075 14.9583 211.438 14.9412Z" fill="#006241"/>
</svg>
