<svg width="227" height="35" viewBox="0 0 227 35" fill="none" xmlns="http://www.w3.org/2000/svg">
<g clip-path="url(#clip0_434_46290)">
<path d="M11.2383 0H17.1739V5.94015H11.2383V0Z" fill="white"/>
<path d="M11.2383 28.3146H17.2135V34.2943H11.2383V28.3146Z" fill="white"/>
<path d="M24.9297 13.5041H32.1316V20.7511H24.9297V13.5041Z" fill="white"/>
<path d="M0 14.4938H4.70892V19.2064H0V14.4938Z" fill="white"/>
<path d="M18.0839 6.69238H24.9296L24.9692 13.583H18.0839V6.69238Z" fill="white"/>
<path d="M18.0839 20.7905H24.9692V27.681H18.0839V20.7905Z" fill="white"/>
<path d="M5.30261 7.4845H10.2885V12.4742H5.30261V7.4845Z" fill="white"/>
<path d="M5.57996 21.2659H10.5659V26.2953H5.57996V21.2659Z" fill="white"/>
<path d="M40.9954 5.46477V6.09839C40.1248 6.09839 39.5313 6.17759 39.2147 6.25679C38.6607 6.4548 38.3837 6.81121 38.3837 7.36562C38.3837 7.64283 38.4628 8.03884 38.6607 8.55365C38.8586 9.06846 39.2147 9.90008 39.7687 11.0881L45.1503 23.0872L50.0571 10.0585C50.2549 9.50408 50.4132 8.98926 50.5319 8.59325C50.6506 8.19724 50.6902 7.88043 50.6902 7.64283C50.6902 6.96961 50.4132 6.534 49.8196 6.29639C49.5031 6.17759 48.9095 6.09839 48.1577 6.05879V5.42517H55.2013V6.01919C54.489 6.13799 53.935 6.33599 53.5789 6.6132C53.0644 7.04881 52.5104 7.92003 51.996 9.26647L44.3589 28.671H43.8445L35.4159 9.70208C34.7036 8.07844 34.1101 7.08841 33.6748 6.6924C33.2395 6.29639 32.6064 6.05879 31.7754 6.01919V5.42517H40.9954" fill="white"/>
<path d="M51.7578 27.8001C52.8262 27.7209 53.4989 27.5625 53.8155 27.3249C54.1321 27.0873 54.2903 26.4537 54.2903 25.4636V13.9793C54.2903 13.0289 54.1321 12.4349 53.8155 12.1577C53.4989 11.8805 52.8262 11.7221 51.7578 11.6825V11.2073H59.395V11.6429C58.3266 11.6825 57.6539 11.8409 57.3373 12.1181C57.0207 12.3953 56.8624 12.9893 56.8624 13.9397V25.4636C56.8624 26.4537 57.0207 27.0873 57.3373 27.3249C57.6539 27.5625 58.3266 27.7209 59.395 27.8001V28.2753H51.7578V27.8001Z" fill="white"/>
<path d="M66.2016 11.1674V11.6426C65.5685 11.6426 65.0936 11.6822 64.8958 11.7614C64.5001 11.8802 64.2626 12.1574 64.2626 12.5931C64.2626 12.7911 64.3418 13.1079 64.4605 13.4643C64.6188 13.8603 64.8958 14.4939 65.2915 15.3651L69.3277 24.3942L73.0078 14.6523C73.166 14.2167 73.2847 13.8603 73.3639 13.5831C73.443 13.3059 73.4826 13.0287 73.4826 12.8703C73.4826 12.3554 73.2847 12.0386 72.8495 11.8406C72.612 11.7218 72.1768 11.6822 71.5832 11.6822V11.207H76.8857V11.6426C76.3317 11.7218 75.936 11.8802 75.659 12.0782C75.2633 12.3951 74.8676 13.0683 74.4719 14.0583L68.8133 28.5919H68.4175L62.0467 14.3751C61.4927 13.1871 61.0574 12.4347 60.7408 12.1178C60.4243 11.8406 59.9494 11.6426 59.3163 11.603V11.1674H66.2016Z" fill="white"/>
<path fill-rule="evenodd" clip-rule="evenodd" d="M72.5723 28.2751V27.7999C73.245 27.7207 73.7198 27.4831 74.076 27.0475C74.4321 26.6119 74.9861 25.4634 75.7775 23.5626L81.1591 10.8506H81.6735L88.1236 25.5426C88.5588 26.5327 88.8754 27.1267 89.1524 27.3643C89.4294 27.6019 89.8647 27.7603 90.4582 27.8395V28.2751H83.8499V27.7999C84.6018 27.7207 85.0766 27.6415 85.314 27.5623C85.5515 27.4435 85.6306 27.2059 85.6306 26.8495C85.6306 26.7307 85.591 26.493 85.5119 26.1762C85.4327 25.8594 85.314 25.503 85.1558 25.1466L84.0873 22.6518H77.3208C76.648 24.3546 76.2523 25.3842 76.0941 25.7802C75.9753 26.1366 75.8962 26.4535 75.8962 26.6515C75.8962 27.0871 76.0545 27.4039 76.4106 27.5623C76.648 27.6811 77.0438 27.7207 77.6373 27.7999V28.2751H72.5723ZM83.7312 21.6221L80.7238 14.4939L77.756 21.6221H83.7312Z" fill="white"/>
<path d="M124.885 27.7207C124.885 27.9187 124.648 28.0375 124.173 28.0375H123.817C123.5 28.0375 122.946 28.0375 122.115 27.9979C121.284 27.9583 120.651 27.9583 120.216 27.9583C119.543 27.9583 118.752 27.9583 117.881 27.9979C116.971 27.9979 116.378 27.9979 116.061 27.9979H115.824C115.349 27.9979 115.111 27.9187 115.111 27.7207C115.111 27.5227 115.428 27.4039 116.101 27.4039C117.248 27.4039 117.921 27.2851 118.198 27.0475C118.317 26.9287 118.356 26.2159 118.356 24.8694V8.0786C118.356 8.1182 118.237 8.47461 118 9.22703C117.09 11.8407 115.824 15.7612 114.122 21.0281L112.539 26.1763C112.223 27.2059 111.985 27.6811 111.867 27.6811C111.708 27.6811 111.55 27.4039 111.352 26.8891C110.719 24.909 108.859 20.0381 105.852 12.1575L104.506 8.67262C104.546 9.06863 104.546 9.66264 104.546 10.3755V20.9093C104.546 24.8694 104.586 26.8495 104.665 26.8891C104.823 27.1663 105.377 27.3247 106.287 27.3247C107.039 27.3247 107.395 27.4039 107.395 27.6019C107.395 27.7999 107.158 27.9187 106.683 27.9187C106.406 27.9187 106.129 27.9187 105.891 27.8791C105.575 27.8395 105.298 27.8395 105.06 27.8395L101.182 27.9187C100.787 27.9187 100.589 27.8395 100.589 27.6415C100.589 27.4435 101.222 27.3247 102.488 27.2851C103.042 27.2851 103.319 27.2059 103.438 27.0079C103.517 26.8495 103.557 26.2555 103.557 25.305V9.90025C103.557 8.1182 103.517 7.12818 103.478 6.96977C103.398 6.65296 103.201 6.45496 102.924 6.33616C102.647 6.21735 102.013 6.13815 101.064 6.05895C100.708 6.01935 100.51 5.94015 100.51 5.78174C100.51 5.54414 100.826 5.42533 101.499 5.42533C101.578 5.42533 101.776 5.42533 102.053 5.46493H103.794C105.1 5.46493 106.05 5.46493 106.564 5.42533C106.683 5.70254 107.355 7.40538 108.543 10.4943C109.057 11.8011 110.482 15.5632 112.856 21.8202C113.291 20.4341 113.726 19.0481 114.162 17.662L117.723 6.93017C117.921 6.29655 118.119 5.78174 118.277 5.38573L123.302 5.34613C124.054 5.34613 124.45 5.38573 124.569 5.42533C124.687 5.50453 124.727 5.58374 124.727 5.70254C124.727 5.90054 124.529 6.01935 124.173 6.01935C123.54 6.01935 123.105 6.05895 122.907 6.09855C122.353 6.17775 121.997 6.37576 121.799 6.61336C121.68 6.77177 121.641 8.039 121.641 10.4151V25.503C121.641 26.3743 121.72 26.8891 121.918 27.0079C122.195 27.2059 122.946 27.2851 124.094 27.2851H124.292C124.648 27.4039 124.885 27.5227 124.885 27.7207Z" fill="white"/>
<path d="M139.29 24.0379C139.29 24.1171 139.29 24.5131 139.25 25.2259C139.211 25.9387 139.211 26.6515 139.211 27.3248V28.1168C137.549 28.0376 134.304 27.998 129.437 27.998C128.843 27.998 128.289 27.998 127.696 28.0376C127.142 28.0376 126.746 28.0376 126.548 28.0376H126.311C125.994 28.0376 125.836 27.9584 125.836 27.8C125.836 27.7208 125.876 27.6416 125.994 27.6416C126.034 27.6416 126.35 27.602 126.944 27.5624C127.379 27.5228 127.656 27.4436 127.735 27.2852C127.854 27.1268 127.894 26.7704 127.894 26.1367V12.514C127.894 12.0388 127.814 11.7616 127.656 11.6824C127.537 11.6032 127.063 11.524 126.311 11.524C126.034 11.524 125.915 11.4448 125.915 11.2864C125.915 11.1279 126.113 11.0487 126.469 11.0487L130.782 11.0883C130.941 11.0883 131.89 11.0883 133.631 11.0487C135.372 11.0487 136.56 11.0487 137.153 11.0487C137.668 11.0487 138.103 11.0091 138.538 10.9695C138.578 11.6824 138.657 12.6328 138.776 13.8604L138.894 14.89C138.894 14.9692 138.934 15.0881 138.934 15.2069C138.934 15.3653 138.855 15.4445 138.696 15.4445C138.499 15.4445 138.38 15.2465 138.301 14.8504C137.984 13.3852 137.47 12.4744 136.757 12.0784C136.203 11.8012 134.818 11.6428 132.523 11.6428H130.466V18.7709H131.059C132.919 18.7709 134.067 18.6521 134.462 18.3749C134.898 18.0977 135.175 17.3057 135.333 15.9593C135.372 15.6029 135.452 15.4445 135.61 15.4445C135.808 15.4445 135.887 15.6029 135.887 15.8801C135.887 16.1573 135.887 16.5929 135.847 17.1869C135.808 17.7413 135.808 18.1769 135.808 18.4937C135.808 20.2362 135.847 21.4242 135.926 22.0578C135.926 22.2162 135.966 22.3746 135.966 22.4538C135.966 22.6518 135.887 22.7706 135.689 22.7706C135.57 22.7706 135.491 22.6914 135.452 22.5726C135.412 22.4142 135.333 21.9786 135.254 21.2262C135.135 20.2758 134.7 19.6818 134.027 19.4442C133.711 19.365 132.919 19.2858 131.653 19.2858H130.505V27.4832C134.185 27.4832 136.362 27.404 136.995 27.2456C138.103 27.008 138.736 25.9783 138.894 24.1171C138.934 23.7211 139.053 23.5231 139.211 23.5231C139.211 23.5231 139.29 23.7211 139.29 24.0379Z" fill="white"/>
<path fill-rule="evenodd" clip-rule="evenodd" d="M153.929 19.4836C153.929 16.7907 153.375 14.8106 152.307 13.583C151.199 12.3158 149.497 11.6821 147.202 11.6821C146.094 11.6821 145.382 11.801 145.145 12.0386C145.026 12.1574 144.986 12.5534 144.986 13.187V26.0969C144.986 26.5325 144.986 26.8097 145.026 26.9285C145.065 27.0077 145.145 27.1265 145.263 27.1661C145.659 27.3642 146.53 27.4434 147.796 27.4434C149.616 27.4434 151.08 26.8097 152.188 25.5821C153.336 24.3149 153.929 22.2952 153.929 19.4836ZM156.739 19.5628C156.739 22.414 155.71 24.6317 153.652 26.2157C152.149 27.3642 150.13 27.9582 147.598 27.9582C147.519 27.9582 147.242 27.9582 146.688 27.9186C146.173 27.9186 145.422 27.879 144.393 27.879H143.126L141.148 27.9186C141.029 27.9186 140.91 27.9582 140.752 27.9582C140.436 27.9582 140.277 27.879 140.277 27.7206C140.277 27.5622 140.554 27.483 141.069 27.483C141.741 27.483 142.177 27.3642 142.335 27.1265C142.414 27.0077 142.454 26.6909 142.454 26.2157V13.1474C142.454 12.3554 142.375 11.8802 142.256 11.7614C142.137 11.6425 141.702 11.5633 140.99 11.5633C140.594 11.5633 140.396 11.4841 140.396 11.2861C140.396 11.1673 140.554 11.0881 140.831 11.0881C140.831 11.0881 140.99 11.0881 141.385 11.1277C141.781 11.1277 142.137 11.1673 142.533 11.1673H145.224C148.231 11.1673 150.368 11.3653 151.634 11.7614C153.177 12.2366 154.404 13.2266 155.314 14.6522C156.264 16.0779 156.739 17.7015 156.739 19.5628Z" fill="white"/>
<path d="M165.049 27.7999C165.049 27.9187 164.931 27.9979 164.733 27.9979H164.495C164.377 27.9583 163.269 27.9187 161.053 27.9187C160.617 27.9187 160.222 27.9187 159.786 27.9583C159.549 27.9583 159.232 27.9979 158.797 27.9979C158.56 27.9979 158.481 27.9187 158.481 27.7999C158.481 27.6811 158.718 27.6019 159.153 27.5623C159.826 27.5623 160.222 27.4831 160.34 27.3247C160.459 27.1663 160.499 26.691 160.499 25.899V13.1475C160.499 12.3555 160.459 11.9199 160.38 11.8011C160.261 11.6427 159.826 11.5239 158.995 11.5239C158.678 11.5239 158.52 11.4447 158.52 11.3259C158.52 11.1674 158.639 11.0882 158.837 11.0882L162.24 11.1278C162.477 11.1278 162.992 11.1278 163.704 11.0882L164.654 11.0486C164.931 11.0486 165.049 11.1278 165.049 11.2863C165.049 11.4051 164.693 11.4843 163.941 11.5239C163.506 11.5239 163.269 11.6031 163.15 11.7615C163.071 11.8803 163.031 12.2367 163.031 12.7911V25.7802C163.031 26.691 163.071 27.2059 163.15 27.2851C163.348 27.4831 163.862 27.5623 164.772 27.6019C164.97 27.6019 165.049 27.6415 165.049 27.7999Z" fill="white"/>
<path d="M180.995 22.5726C180.995 22.533 180.995 22.7706 180.956 23.2459C180.877 24.1963 180.837 25.1071 180.837 25.9783C180.837 26.0575 180.837 26.2951 180.877 26.5723C180.916 26.8495 180.916 27.206 180.916 27.6416V27.8792C180.916 28.0772 180.837 28.196 180.718 28.196C180.6 28.196 180.481 28.0772 180.362 27.8396C180.125 27.2852 179.887 26.9683 179.65 26.8099C178.423 27.8396 176.999 28.3544 175.297 28.3544C172.844 28.3544 170.786 27.5228 169.164 25.8595C167.541 24.1963 166.75 22.0974 166.75 19.563C166.75 17.0285 167.502 14.9296 168.966 13.3456C170.47 11.722 172.369 10.9299 174.743 10.9299C175.614 10.9299 176.287 11.0091 176.761 11.1675C177.276 11.2863 177.909 11.5635 178.661 11.9992C179.017 12.1972 179.294 12.316 179.492 12.316C179.65 12.316 179.769 12.1972 179.927 11.92C180.125 11.4843 180.323 11.2467 180.441 11.2467C180.56 11.2467 180.639 11.3259 180.639 11.4447C180.639 11.5239 180.639 11.6031 180.6 11.7616C180.402 12.5536 180.323 13.9792 180.323 16.1177C180.323 16.4345 180.283 16.5929 180.244 16.6721C180.204 16.7117 180.125 16.7513 180.046 16.7513C179.887 16.7513 179.769 16.5929 179.729 16.2761C179.492 14.9692 179.215 14.0188 178.779 13.3852C177.948 12.0784 176.682 11.4447 174.902 11.4447C173.556 11.4447 172.488 11.8804 171.696 12.7516C170.272 14.3356 169.56 16.6325 169.56 19.6422C169.56 22.335 170.153 24.4339 171.301 25.9387C172.329 27.2456 173.675 27.8792 175.376 27.8792C176.247 27.8792 177.038 27.6812 177.751 27.2852C178.463 26.8495 179.017 26.2951 179.413 25.5823C179.848 24.7507 180.164 23.8399 180.362 22.8894C180.441 22.4934 180.521 22.2954 180.679 22.2954C180.916 22.2162 180.995 22.335 180.995 22.5726Z" fill="white"/>
<path fill-rule="evenodd" clip-rule="evenodd" d="M192.313 22.018C192.036 21.3052 191.601 20.0775 190.968 18.4143L189.781 15.0878C189.068 16.8698 188.237 19.1667 187.248 22.0576H192.313V22.018ZM199.159 27.7997C199.159 27.9581 199.04 28.0373 198.763 28.0373C198.605 28.0373 198.447 28.0373 198.328 27.9977L195.123 27.9581L191.917 27.9977C191.799 27.9977 191.68 28.0373 191.522 28.0373C191.205 28.0373 191.007 27.9581 191.007 27.7997C191.007 27.6017 191.245 27.5225 191.68 27.5225C193.144 27.5225 193.896 27.3641 193.896 27.0869C193.896 27.0869 193.896 27.0077 193.856 26.8889L193.659 26.2157L193.54 25.8593C193.382 25.3445 193.025 24.2356 192.432 22.5328H187.05C186.061 25.1068 185.547 26.6117 185.547 27.0077C185.547 27.2453 185.665 27.3641 185.863 27.4037C185.903 27.4037 186.338 27.4433 187.129 27.4829C187.604 27.4829 187.842 27.5621 187.842 27.7205C187.842 27.8789 187.604 27.9581 187.169 27.9581C186.417 27.9581 185.507 27.9185 184.478 27.8789C184.241 27.8789 183.964 27.8393 183.687 27.8393C183.41 27.8393 183.172 27.8393 182.895 27.8789C182.777 27.8789 182.658 27.9185 182.579 27.9185C182.341 27.9185 182.223 27.8393 182.223 27.7205C182.223 27.5621 182.5 27.4829 183.014 27.4829C183.568 27.4829 183.924 27.4037 184.162 27.2453C184.399 27.0869 184.597 26.8493 184.716 26.4533C186.892 20.4735 188.633 15.7214 189.979 12.0781C190.018 11.8801 190.097 11.6821 190.176 11.4049L190.295 10.9693C190.335 10.7713 190.414 10.6921 190.493 10.6921C190.533 10.6921 190.572 10.7317 190.612 10.8505C190.849 11.4841 191.324 12.7909 192.115 14.8106C192.709 16.3946 194.213 20.3151 196.626 26.6513C196.745 27.0077 196.943 27.2453 197.141 27.3245C197.378 27.4037 197.814 27.4829 198.447 27.4829C198.961 27.6017 199.159 27.6809 199.159 27.7997Z" fill="white"/>
<path fill-rule="evenodd" clip-rule="evenodd" d="M207.787 15.0879C207.787 12.7911 206.758 11.603 204.661 11.603C204.107 11.603 203.711 11.6822 203.513 11.8406C203.315 11.999 203.197 12.2366 203.197 12.6326V18.7708C204.819 18.7708 205.967 18.4936 206.679 17.9392C207.431 17.3452 207.787 16.3947 207.787 15.0879ZM212.971 27.2454C212.971 27.9186 212.377 28.275 211.19 28.275C209.884 28.275 208.855 27.7602 208.103 26.691C207.787 26.2554 207.589 25.8198 207.47 25.3842C207.391 24.9486 207.233 23.8793 207.075 22.1765C206.956 21.1469 206.639 20.3944 206.046 19.9984C205.452 19.5628 204.503 19.3252 203.197 19.2856V26.9286C203.197 27.2454 203.474 27.4434 203.988 27.5226C204.146 27.5226 204.542 27.5622 205.136 27.5622C205.373 27.5622 205.452 27.6414 205.452 27.7602C205.452 27.9186 205.294 27.9978 205.017 27.9978H204.7C204.542 27.9978 203.83 27.9582 202.524 27.9582C202.287 27.9582 201.851 27.9582 201.258 27.9978C200.664 27.9978 200.268 27.9978 200.11 27.9978H199.121C198.765 27.9978 198.567 27.9186 198.567 27.7602C198.567 27.6414 198.804 27.5622 199.279 27.5622C200.071 27.5622 200.506 27.4434 200.545 27.285C200.625 27.2058 200.664 26.889 200.664 26.3346V12.9495C200.664 12.3158 200.585 11.9198 200.427 11.801C200.308 11.6822 199.873 11.603 199.16 11.5634C198.725 11.5634 198.527 11.4842 198.527 11.3654C198.527 11.207 198.646 11.1278 198.923 11.1278C198.963 11.1278 199.042 11.1278 199.16 11.1674L202.524 11.2466C202.841 11.2466 203.315 11.2466 203.949 11.207C204.621 11.1674 205.096 11.1674 205.373 11.1674C206.916 11.1674 208.183 11.5238 209.053 12.197C209.963 12.8703 210.438 13.7811 210.438 14.9295C210.438 16.0779 209.963 16.9888 209.014 17.7412C208.064 18.454 206.798 18.8896 205.175 19.048C205.017 19.048 204.938 19.0876 204.938 19.1272C204.938 19.2064 205.017 19.2064 205.175 19.2064C206.956 19.4836 208.143 20.0776 208.816 20.9885C209.488 21.8597 209.924 23.4833 210.161 25.8594C210.28 27.2058 210.755 27.8394 211.586 27.8394C211.823 27.8394 211.981 27.7998 211.981 27.681C211.981 27.681 211.981 27.6414 211.942 27.6414C211.863 27.4434 211.823 27.3246 211.823 27.2058C211.823 26.8494 212.021 26.691 212.377 26.691C212.773 26.6514 212.971 26.8494 212.971 27.2454Z" fill="white"/>
<path d="M226.978 24.0379C226.978 24.1171 226.978 24.5131 226.938 25.2259C226.899 25.9387 226.899 26.6515 226.899 27.3248V28.1168C225.237 28.0376 221.992 27.998 217.125 27.998C216.531 27.998 215.937 27.998 215.384 28.0376C214.83 28.0376 214.434 28.0376 214.236 28.0376H213.999C213.682 28.0376 213.524 27.9584 213.524 27.8C213.524 27.7208 213.563 27.6416 213.682 27.6416C213.722 27.6416 214.038 27.602 214.632 27.5624C215.067 27.5228 215.344 27.4436 215.423 27.2852C215.542 27.1268 215.581 26.7704 215.581 26.1367V12.514C215.581 12.0388 215.502 11.7616 215.344 11.6824C215.225 11.6032 214.75 11.524 213.999 11.524C213.722 11.524 213.603 11.4448 213.603 11.2864C213.603 11.1279 213.801 11.0487 214.157 11.0487L218.47 11.0883C218.628 11.0883 219.578 11.0883 221.319 11.0487C223.06 11.0487 224.247 11.0487 224.841 11.0487C225.355 11.0487 225.791 11.0091 226.226 10.9695C226.265 11.6824 226.345 12.6328 226.463 13.8604L226.582 14.89C226.582 14.9692 226.622 15.0881 226.622 15.2069C226.622 15.3653 226.542 15.4445 226.384 15.4445C226.186 15.4445 226.068 15.2465 225.988 14.8504C225.672 13.3852 225.157 12.4744 224.445 12.0784C223.891 11.8012 222.506 11.6428 220.211 11.6428H218.153V18.7709H218.747C220.607 18.7709 221.754 18.6521 222.15 18.3749C222.585 18.0977 222.862 17.3057 223.021 15.9593C223.06 15.6029 223.139 15.4445 223.298 15.4445C223.495 15.4445 223.575 15.6029 223.575 15.8801C223.575 16.1573 223.575 16.5929 223.535 17.1869C223.495 17.7413 223.495 18.1769 223.495 18.4937C223.495 20.2362 223.535 21.4242 223.614 22.0578C223.614 22.2162 223.654 22.3746 223.654 22.4538C223.654 22.6518 223.575 22.7706 223.377 22.7706C223.258 22.7706 223.179 22.6914 223.139 22.5726C223.1 22.4142 223.021 21.9786 222.941 21.2262C222.823 20.2758 222.388 19.6818 221.715 19.4442C221.398 19.365 220.607 19.2858 219.341 19.2858H218.193V27.4832C221.873 27.4832 224.049 27.404 224.683 27.2456C225.791 27.008 226.424 25.9783 226.582 24.1171C226.622 23.7211 226.74 23.5231 226.899 23.5231C226.899 23.5231 226.978 23.7211 226.978 24.0379Z" fill="white"/>
</g>
<defs>
<clipPath id="clip0_434_46290">
<rect width="226.978" height="34.2943" fill="white"/>
</clipPath>
</defs>
</svg>
