<svg width="416" height="78" viewBox="0 0 416 78" fill="none" xmlns="http://www.w3.org/2000/svg">
<g clip-path="url(#clip0_406_38676)">
<path d="M55.0175 8.12231V8.98025C53.8503 8.99022 53.0523 9.07003 52.6233 9.20969C51.8851 9.45909 51.506 9.94792 51.506 10.6961C51.506 11.0752 51.6357 11.6039 51.8951 12.2923C52.1644 12.9706 52.6732 14.1179 53.4014 15.734L60.6939 31.9749L67.3179 14.3872C67.6072 13.6091 67.8267 12.9607 67.9763 12.4319C68.1259 11.9032 68.2058 11.4643 68.2058 11.1351C68.2058 10.2472 67.8167 9.63866 67.0485 9.31943C66.5897 9.12989 65.8414 9.03013 64.794 8.99022V8.13229H74.331V8.93037C73.3434 9.07003 72.6151 9.32941 72.1463 9.72845C71.428 10.317 70.7297 11.5042 70.0314 13.2998L59.7162 39.5366H59.0079L47.5056 13.8884C46.528 11.7236 45.7499 10.3669 45.1613 9.83818C44.5827 9.30945 43.7347 9.01018 42.6074 8.93037V8.13229H55.0175V8.12231Z" fill="#DA4746"/>
<path d="M69.5724 38.3495C70.989 38.2497 71.9167 38.0402 72.3357 37.721C72.7547 37.3918 72.9642 36.5538 72.9642 35.1971V19.6346C72.9642 18.3477 72.7547 17.5197 72.3357 17.1506C71.9167 16.7815 70.989 16.552 69.5724 16.4822V15.8337H79.9175V16.4822C78.5009 16.552 77.5731 16.7715 77.1541 17.1506C76.7351 17.5197 76.5256 18.3377 76.5256 19.6346V35.1971C76.5256 36.5538 76.7351 37.3918 77.1541 37.721C77.5731 38.0402 78.5009 38.2497 79.9175 38.3495V38.988H69.5724V38.3495Z" fill="#DA4746"/>
<path d="M89.1253 15.8337V16.4821C88.2474 16.4821 87.6489 16.552 87.3296 16.6517C86.771 16.8313 86.4916 17.2004 86.4916 17.7591C86.4916 18.0484 86.5914 18.4374 86.7909 18.9562C87.0004 19.4749 87.3695 20.3329 87.9182 21.54L93.385 33.7106L98.3531 20.5324C98.5725 19.9438 98.7321 19.455 98.8519 19.0559C98.9716 18.6569 99.0215 18.3377 99.0215 18.0783C99.0215 17.4099 98.7322 16.951 98.1535 16.7116C97.8144 16.5719 97.2457 16.4921 96.4576 16.4722V15.8237H103.62V16.4223C102.882 16.522 102.333 16.7216 101.984 17.0208C101.446 17.4598 100.917 18.3576 100.388 19.7044L92.6468 39.377H92.1181L83.4889 20.1433C82.7606 18.5073 82.182 17.4997 81.7231 17.1007C81.2942 16.7016 80.6557 16.4722 79.8077 16.4223V15.8237H89.1253V15.8337Z" fill="#DA4746"/>
<path d="M112.818 29.9995L108.768 20.3627L104.768 29.9995H112.808H112.818ZM97.7146 38.9778V38.3493C98.6124 38.2496 99.2908 37.9104 99.7297 37.3218C100.189 36.7432 100.957 35.167 102.054 32.5932L109.347 15.4246H110.025L118.734 35.2568C119.323 36.5736 119.781 37.4016 120.121 37.7208C120.47 38.0301 121.058 38.2396 121.876 38.3493V38.9778H112.978V38.3493C113.995 38.2596 114.664 38.1498 114.953 38.0201C115.252 37.8904 115.392 37.5612 115.392 37.0525C115.392 36.8729 115.342 36.5736 115.232 36.1446C115.113 35.7157 114.953 35.2568 114.754 34.7779L113.297 31.416H104.139C103.231 33.7105 102.683 35.1071 102.503 35.6159C102.323 36.1147 102.244 36.5138 102.244 36.813C102.244 37.4016 102.483 37.8206 102.962 38.0401C103.261 38.1797 103.82 38.2795 104.638 38.3493V38.9778H97.7046H97.7146Z" fill="#DA4746"/>
<path d="M168.464 38.2297C168.464 38.519 168.145 38.6586 167.516 38.6586H167.018C166.589 38.6586 165.821 38.6586 164.703 38.6187C163.586 38.5888 162.728 38.5688 162.119 38.5688C161.212 38.5688 160.154 38.5788 158.947 38.6187H156.184C155.545 38.6187 155.226 38.4791 155.226 38.2197C155.226 37.9304 155.665 37.7807 156.543 37.7807C158.089 37.7807 159.027 37.6111 159.356 37.2919C159.516 37.1522 159.586 36.1646 159.586 34.359V11.6836C159.586 11.6836 159.426 12.2223 159.087 13.2099C157.88 16.7514 156.124 22.0586 153.829 29.1615L151.695 36.1247C151.266 37.5014 150.966 38.1798 150.787 38.1798C150.567 38.1798 150.348 37.8306 150.098 37.1323C149.23 34.4787 146.736 27.8546 142.656 17.2502L140.841 12.5715C140.871 13.1201 140.891 13.8783 140.891 14.846V29.0817C140.891 34.4188 140.94 37.1223 141.03 37.1822C141.24 37.5613 141.968 37.7508 143.205 37.7508C144.203 37.7508 144.701 37.8805 144.701 38.1498C144.701 38.4391 144.382 38.5888 143.754 38.5888C143.355 38.5888 142.995 38.5688 142.656 38.5389C142.237 38.509 141.858 38.489 141.519 38.489L136.302 38.6287C135.753 38.6287 135.484 38.489 135.484 38.2297C135.484 37.9403 136.342 37.7708 138.077 37.7508C138.806 37.7508 139.225 37.6311 139.344 37.3917C139.464 37.1622 139.524 36.4041 139.524 35.1172V14.1377C139.524 11.7135 139.484 10.4067 139.434 10.1972C139.314 9.79814 139.055 9.51882 138.656 9.36918C138.267 9.21954 137.419 9.1098 136.122 9.02002C135.643 8.99009 135.394 8.8604 135.394 8.62098C135.394 8.30175 135.833 8.14213 136.711 8.14213C136.83 8.14213 137.08 8.15211 137.479 8.19201H139.833C141.619 8.19201 142.876 8.18204 143.604 8.14213C143.754 8.52122 144.652 10.8057 146.278 15.0156C146.976 16.7713 148.921 21.879 152.133 30.3387C152.702 28.4432 153.301 26.5777 153.899 24.7322L158.708 10.2371C158.977 9.38913 159.216 8.69081 159.426 8.13216L166.23 8.08228C167.227 8.08228 167.806 8.13216 167.955 8.22194C168.105 8.30175 168.185 8.44141 168.185 8.611C168.185 8.91028 167.935 9.04994 167.417 9.04994C166.569 9.04994 166 9.07987 165.691 9.13973C164.963 9.25944 164.464 9.48889 164.184 9.83805C164.035 10.0376 163.965 11.7534 163.965 14.9657V35.3266C163.965 36.4938 164.085 37.1822 164.324 37.3817C164.713 37.651 165.701 37.7807 167.277 37.7807H167.546C168.155 37.7807 168.454 37.9204 168.454 38.2197" fill="#DA4746"/>
<path d="M187.957 33.2617C187.957 33.3416 187.927 33.8803 187.887 34.8679C187.838 35.8555 187.818 36.7932 187.818 37.6911V38.7785C185.593 38.6687 181.194 38.6188 174.609 38.6188C173.821 38.6188 173.033 38.6288 172.265 38.6587H170.36C169.931 38.6587 169.711 38.559 169.711 38.3595C169.711 38.2198 169.781 38.15 169.911 38.13C169.981 38.13 170.409 38.1001 171.208 38.0303C171.796 37.9904 172.145 37.8706 172.265 37.6711C172.405 37.4716 172.475 36.9628 172.475 36.1248V17.6593C172.475 17.0308 172.365 16.6518 172.165 16.542C171.976 16.4123 171.367 16.3425 170.32 16.3425C169.951 16.3425 169.781 16.2427 169.781 16.0432C169.781 15.8437 170.03 15.7439 170.529 15.7439L176.345 15.7838C176.555 15.7838 177.832 15.7739 180.196 15.7439H184.954C185.633 15.7439 186.261 15.704 186.83 15.6143C186.88 16.562 186.97 17.8589 187.139 19.5248L187.269 20.9414C187.289 21.0512 187.309 21.1908 187.309 21.3704C187.309 21.5899 187.209 21.6996 187 21.6996C186.75 21.6996 186.571 21.4203 186.451 20.8716C186.022 18.8964 185.314 17.6494 184.346 17.1306C183.618 16.7316 181.712 16.542 178.63 16.542H175.836V26.1688H176.654C179.198 26.1688 180.735 25.9893 181.283 25.6102C181.852 25.2411 182.241 24.1637 182.441 22.368C182.49 21.9091 182.61 21.6796 182.81 21.6796C183.059 21.6796 183.189 21.8792 183.189 22.2682C183.189 22.6573 183.169 23.2359 183.119 24.004C183.079 24.7722 183.059 25.3508 183.059 25.7498C183.059 28.0842 183.099 29.7003 183.199 30.5682C183.219 30.7877 183.229 30.9773 183.229 31.1369C183.229 31.4262 183.109 31.5559 182.86 31.5559C182.7 31.5559 182.59 31.476 182.52 31.2965C182.48 31.097 182.381 30.4785 182.251 29.4509C182.071 28.154 181.513 27.3659 180.585 27.0567C180.176 26.927 179.109 26.8572 177.383 26.8572H175.856V37.8906C180.844 37.8906 183.777 37.7908 184.635 37.5913C186.132 37.2621 186.98 35.8655 187.189 33.3914C187.239 32.8527 187.389 32.5734 187.638 32.5734C187.867 32.5734 187.977 32.8029 187.977 33.2717" fill="#DA4746"/>
<path d="M211.58 27.2163C211.58 31.067 210.184 34.0698 207.39 36.2146C205.355 37.7908 202.622 38.5789 199.19 38.5789C199.11 38.5789 198.691 38.5689 197.963 38.549C197.265 38.529 196.227 38.5091 194.861 38.5091H193.165L190.481 38.549C190.322 38.5689 190.152 38.5789 189.972 38.5789C189.543 38.5789 189.324 38.4692 189.324 38.2497C189.324 38.0502 189.693 37.9504 190.421 37.9504C191.349 37.9504 191.928 37.7908 192.157 37.4516C192.247 37.302 192.297 36.883 192.297 36.2046V18.4973C192.297 17.4299 192.197 16.8014 192.027 16.6318C191.868 16.4522 191.289 16.3724 190.292 16.3724C189.773 16.3724 189.514 16.2527 189.514 16.0133C189.514 15.8337 189.703 15.7539 190.092 15.7539C190.062 15.7539 190.322 15.7639 190.84 15.7838C191.359 15.8038 191.878 15.8138 192.377 15.8138H196.018C200.108 15.8138 202.991 16.0931 204.697 16.6418C206.762 17.3002 208.428 18.5971 209.705 20.5523C210.972 22.4777 211.61 24.7023 211.61 27.2163M207.76 27.0766C207.76 23.4454 207.021 20.7818 205.545 19.0959C204.068 17.38 201.764 16.532 198.632 16.532C197.115 16.532 196.187 16.6817 195.878 16.9909C195.739 17.1406 195.669 17.6693 195.669 18.5671V36.0351C195.669 36.6436 195.679 37.0227 195.699 37.1524C195.748 37.282 195.848 37.3818 196.008 37.4816C196.557 37.7509 197.704 37.8806 199.45 37.8806C201.894 37.8806 203.869 37.0526 205.365 35.3866C206.952 33.6308 207.75 30.8675 207.75 27.0766" fill="#DA4746"/>
<path d="M222.803 38.3095C222.803 38.4891 222.664 38.5789 222.394 38.5789H222.055C221.915 38.509 220.379 38.4791 217.426 38.4791C216.858 38.4791 216.289 38.499 215.73 38.5489C215.431 38.5689 214.972 38.5789 214.364 38.5789C214.064 38.5789 213.925 38.4791 213.925 38.2796C213.925 38.1 214.214 38.0002 214.803 37.9903C215.71 37.9703 216.239 37.8706 216.409 37.691C216.568 37.4915 216.638 36.863 216.638 35.7856V18.5072C216.638 17.4398 216.578 16.8412 216.469 16.7016C216.329 16.4821 215.71 16.3524 214.603 16.3025C214.174 16.2826 213.955 16.1928 213.955 16.0431C213.955 15.8436 214.094 15.7439 214.364 15.7439L218.963 15.8037C219.302 15.8037 219.96 15.8037 220.938 15.7738L222.235 15.7339C222.594 15.7339 222.783 15.8336 222.783 16.0332C222.783 16.2127 222.285 16.3225 221.277 16.3624C220.708 16.3823 220.359 16.4721 220.22 16.6517C220.11 16.8312 220.05 17.2901 220.05 18.0284V35.5661C220.05 36.8131 220.11 37.4915 220.22 37.6012C220.469 37.8406 221.207 37.9803 222.434 38.0202C222.684 38.0202 222.813 38.11 222.813 38.2896" fill="#DA4746"/>
<path d="M244.381 31.2464C244.381 31.2464 244.361 31.4958 244.312 32.1343C244.222 33.4013 244.172 34.6283 244.172 35.8154C244.172 35.9551 244.192 36.2245 244.242 36.6434C244.282 37.0325 244.312 37.5114 244.312 38.09V38.3892C244.312 38.6686 244.222 38.8082 244.042 38.8082C243.863 38.8082 243.703 38.6486 243.563 38.3194C243.244 37.6011 242.925 37.1223 242.606 36.9028C240.97 38.2895 239.014 38.9778 236.72 38.9778C233.378 38.9778 230.615 37.8605 228.42 35.6259C226.235 33.3713 225.148 30.5382 225.148 27.1164C225.148 23.6946 226.145 20.8714 228.15 18.7067C230.166 16.5119 232.759 15.4246 235.942 15.4246C237.099 15.4246 238.017 15.5243 238.695 15.7238C239.393 15.8934 240.261 16.2725 241.279 16.8411C241.778 17.1205 242.157 17.2701 242.406 17.2701C242.616 17.2701 242.805 17.1005 242.985 16.7414C243.284 16.1329 243.513 15.8236 243.703 15.8236C243.893 15.8236 243.972 15.9134 243.972 16.093C243.972 16.1728 243.952 16.3224 243.903 16.5119C243.653 17.5594 243.523 19.5347 243.523 22.4277C243.523 22.8467 243.494 23.0861 243.424 23.1559C243.354 23.2258 243.264 23.2557 243.154 23.2557C242.925 23.2557 242.785 23.0462 242.715 22.6272C242.416 20.8814 242.007 19.5746 241.458 18.7166C240.351 16.9708 238.605 16.093 236.221 16.093C234.375 16.093 232.929 16.6815 231.862 17.8587C229.936 19.9936 228.969 23.0961 228.969 27.1962C228.969 30.8474 229.767 33.6906 231.353 35.7057C232.739 37.4515 234.575 38.3294 236.869 38.3294C238.047 38.3294 239.124 38.06 240.102 37.5114C241.079 36.9427 241.828 36.1746 242.346 35.2169C242.935 34.0996 243.354 32.8825 243.613 31.5657C243.703 31.037 243.853 30.7776 244.052 30.7776C244.282 30.7776 244.391 30.9472 244.391 31.2664" fill="#DA4746"/>
<path d="M268.952 38.3494C268.952 38.5489 268.773 38.6387 268.433 38.6387C268.214 38.6387 268.004 38.6287 267.825 38.5988L263.505 38.539L259.176 38.5988C259.016 38.6287 258.846 38.6387 258.667 38.6387C258.218 38.6387 257.989 38.529 257.989 38.3095C257.989 38.0701 258.298 37.9504 258.906 37.9504C260.902 37.9304 261.899 37.7309 261.899 37.3618C261.899 37.3319 261.879 37.2521 261.829 37.0924L261.56 36.2046L261.39 35.7457C261.191 35.0673 260.692 33.561 259.894 31.2366H252.611C251.245 34.7481 250.566 36.7632 250.566 37.282C250.566 37.5912 250.706 37.7808 250.975 37.8406C251.045 37.8606 251.614 37.9105 252.671 37.9703C253.33 37.9903 253.659 38.1 253.659 38.2995C253.659 38.519 253.36 38.6287 252.771 38.6287C251.734 38.6287 250.517 38.5789 249.13 38.4891C248.791 38.4691 248.442 38.4592 248.082 38.4592C247.723 38.4592 247.364 38.4791 247.025 38.529C246.845 38.5489 246.696 38.5589 246.576 38.5589C246.257 38.5589 246.097 38.4592 246.097 38.2696C246.097 38.0801 246.446 37.9604 247.155 37.9404C247.883 37.9205 248.402 37.8207 248.721 37.6411C249.04 37.4416 249.289 37.0825 249.479 36.5637C252.402 28.5031 254.786 22.0387 256.622 17.1405C256.672 16.8811 256.761 16.5918 256.901 16.2626L257.071 15.6641C257.141 15.4246 257.23 15.3049 257.34 15.3049C257.41 15.3049 257.46 15.3748 257.51 15.5045C257.809 16.3524 258.477 18.1381 259.515 20.8516C260.333 22.9765 262.368 28.3136 265.61 36.843C265.79 37.3219 266.019 37.6311 266.289 37.7708C266.588 37.9005 267.176 37.9803 268.064 38.0003C268.653 38.0202 268.952 38.1299 268.952 38.3295M259.694 30.4983C259.335 29.5107 258.727 27.8747 257.889 25.6001L256.253 21.101C255.295 23.5052 254.148 26.6376 252.811 30.4983H259.694Z" fill="#DA4746"/>
<path d="M287.637 37.5914C287.637 38.5092 286.839 38.978 285.253 38.978C283.487 38.978 282.1 38.2697 281.103 36.8432C280.674 36.2247 280.385 35.6361 280.255 35.0674C280.145 34.4988 279.956 33.0523 279.706 30.7279C279.567 29.3313 279.108 28.3436 278.31 27.775C277.512 27.1864 276.225 26.8672 274.429 26.8273V37.1724C274.429 37.6113 274.798 37.8807 275.516 37.9904C275.726 38.0104 276.245 38.0303 277.083 38.0503C277.382 38.0503 277.522 38.14 277.522 38.3196C277.522 38.5191 277.332 38.6089 276.943 38.6089H276.534C276.324 38.589 275.337 38.579 273.571 38.579C273.232 38.579 272.653 38.589 271.835 38.6089H268.942C268.433 38.6089 268.184 38.5092 268.184 38.3196C268.184 38.17 268.513 38.0702 269.182 38.0503C270.249 38.0303 270.818 37.9006 270.917 37.6612C271.007 37.5614 271.057 37.1225 271.057 36.3843V18.2579C271.057 17.3801 270.957 16.8513 270.748 16.6817C270.568 16.5022 269.99 16.4124 269.012 16.3924C268.443 16.3924 268.164 16.2927 268.164 16.1031C268.164 15.8837 268.344 15.7739 268.713 15.7739C268.783 15.7739 268.882 15.7839 269.022 15.8039L273.551 15.9036C274 15.9036 274.638 15.9036 275.456 15.8637C276.364 15.8238 277.003 15.8039 277.362 15.8039C279.467 15.8039 281.143 16.2627 282.37 17.1805C283.617 18.0784 284.235 19.3054 284.235 20.8617C284.235 22.4179 283.597 23.6549 282.33 24.6725C281.063 25.6601 279.337 26.2387 277.162 26.4183C276.963 26.4382 276.843 26.4682 276.823 26.518C276.823 26.6078 276.933 26.6477 277.162 26.6477C279.537 27.0368 281.183 27.8548 282.061 29.0819C282.968 30.289 283.567 32.4737 283.866 35.6461C284.046 37.4417 284.684 38.3396 285.772 38.3396C286.111 38.3396 286.27 38.2797 286.27 38.14C286.27 38.1201 286.27 38.0902 286.241 38.0702C286.131 37.8308 286.071 37.6313 286.071 37.4816C286.071 37.0227 286.32 36.7933 286.819 36.7933C287.368 36.7933 287.637 37.0626 287.637 37.6113M280.594 21.141C280.594 18.0085 279.188 16.4423 276.374 16.4423C275.626 16.4423 275.117 16.5421 274.848 16.7416C274.579 16.9411 274.439 17.2903 274.439 17.799V26.139C276.614 26.1589 278.18 25.7698 279.138 24.9917C280.115 24.2036 280.594 22.9167 280.594 21.151" fill="#DA4746"/>
<path d="M306.562 33.2617C306.562 33.3416 306.532 33.8803 306.492 34.8679C306.452 35.8555 306.422 36.7932 306.422 37.6911V38.7785C304.197 38.6687 299.798 38.6188 293.224 38.6188C292.426 38.6188 291.647 38.6288 290.879 38.6587H288.974C288.535 38.6587 288.325 38.559 288.325 38.3595C288.325 38.2198 288.395 38.15 288.525 38.13C288.595 38.13 289.024 38.1001 289.822 38.0303C290.41 37.9904 290.76 37.8706 290.879 37.6711C291.019 37.4716 291.089 36.9628 291.089 36.1248V17.6593C291.089 17.0308 290.979 16.6518 290.78 16.542C290.6 16.4123 289.981 16.3425 288.944 16.3425C288.585 16.3425 288.395 16.2427 288.395 16.0432C288.395 15.8437 288.645 15.7439 289.143 15.7439L294.959 15.7838C295.169 15.7838 296.446 15.7739 298.81 15.7439H303.569C304.247 15.7439 304.876 15.704 305.444 15.6143C305.494 16.562 305.594 17.8589 305.753 19.5248L305.893 20.9414C305.923 21.0512 305.923 21.1908 305.923 21.3704C305.923 21.5899 305.823 21.6996 305.614 21.6996C305.364 21.6996 305.185 21.4203 305.065 20.8716C304.636 18.8964 303.938 17.6494 302.96 17.1306C302.232 16.7316 300.327 16.542 297.244 16.542H294.461V26.1688H295.279C297.823 26.1688 299.369 25.9893 299.908 25.6102C300.476 25.2411 300.855 24.1637 301.065 22.368C301.115 21.9091 301.234 21.6796 301.444 21.6796C301.693 21.6796 301.813 21.8792 301.813 22.2682C301.813 22.6573 301.793 23.2359 301.743 24.004C301.693 24.7722 301.673 25.3508 301.673 25.7498C301.673 28.0842 301.723 29.7003 301.813 30.5682C301.833 30.7877 301.843 30.9773 301.843 31.1369C301.843 31.4262 301.713 31.5559 301.474 31.5559C301.314 31.5559 301.194 31.476 301.135 31.2965C301.095 31.097 300.995 30.4785 300.865 29.4509C300.686 28.154 300.127 27.3659 299.199 27.0567C298.79 26.927 297.723 26.8572 295.997 26.8572H294.471V37.8906C299.459 37.8906 302.392 37.7908 303.25 37.5913C304.746 37.2621 305.594 35.8655 305.803 33.3914C305.853 32.8527 306.003 32.5734 306.252 32.5734C306.472 32.5734 306.591 32.8029 306.591 33.2717" fill="#DA4746"/>
<path d="M23.1443 0.789917H15.1536V8.78067H23.1443V0.789917Z" fill="#DA4746"/>
<path d="M43.2258 18.9462H33.5292V28.6428H43.2258V18.9462Z" fill="#DA4746"/>
<path d="M33.5791 9.77832H24.3413V19.0161H33.5791V9.77832Z" fill="#DA4746"/>
<path d="M33.5791 28.7327H24.3413V37.9704H33.5791V28.7327Z" fill="#DA4746"/>
<path d="M6.36467 20.243H0V26.6077H6.36467V20.243Z" fill="#DA4746"/>
<path d="M13.8666 10.8257H7.13281V17.5595H13.8666V10.8257Z" fill="#DA4746"/>
<path d="M14.2357 29.3611H7.50195V36.0949H14.2357V29.3611Z" fill="#DA4746"/>
<path d="M23.1443 38.8483H15.1536V46.839H23.1443V38.8483Z" fill="#DA4746"/>
<path d="M405.523 23.2857C407.109 21.7793 408.606 21.0311 410.022 21.0311C410.701 21.0311 411.229 21.2107 411.589 21.5698C411.958 21.929 412.137 22.3978 412.137 22.9864C412.137 23.9441 411.708 24.9517 410.86 26.0091C410.012 27.0666 408.735 27.9844 407.03 28.7425C405.743 29.3112 404.067 29.7102 402.022 29.9496C402.77 27.0167 403.937 24.7921 405.523 23.2857ZM408.416 29.6404C410.761 28.7924 412.536 27.6851 413.743 26.3184C414.661 25.2609 415.12 24.1636 415.12 23.0163C415.12 22.1983 414.771 21.49 414.063 20.8915C413.354 20.2929 412.267 20.0036 410.8 20.0036C408.765 20.0036 406.78 20.6022 404.855 21.7993C402.929 22.9964 401.323 24.6823 400.056 26.8471C398.779 29.0119 398.141 31.1268 398.141 33.1918C398.141 34.7281 398.65 36.1347 399.677 37.4117C400.705 38.6886 402.231 39.327 404.256 39.327C407.239 39.327 410.371 37.701 413.654 34.4388L413.215 33.8303C411.399 35.2269 410.032 36.1347 409.105 36.5438C408.187 36.9528 407.219 37.1523 406.231 37.1523C404.984 37.1523 403.917 36.7233 403.049 35.8554C402.171 34.9875 401.742 33.94 401.742 32.703C401.742 32.2441 401.792 31.6755 401.882 30.9772C404.695 30.6579 406.88 30.219 408.436 29.6504M368.103 21.3005L368.293 22.0686C369.111 21.899 369.61 21.8192 369.789 21.8192C370.218 21.8192 370.577 21.9389 370.847 22.1883C371.126 22.4278 371.266 22.7071 371.266 23.0064C371.266 23.1261 371.216 23.3256 371.126 23.585L370.627 25.3308L366.776 38.8083H369.859C371.166 34.6782 371.984 32.2341 372.333 31.466C373.051 29.8399 374.069 28.144 375.376 26.3683C376.683 24.5925 377.76 23.4353 378.588 22.8966C379.107 22.5674 379.586 22.3978 380.045 22.3978C380.264 22.3978 380.454 22.4876 380.603 22.6672C380.753 22.8467 380.833 23.1261 380.833 23.4952C380.833 23.9541 380.633 24.8619 380.254 26.2186L376.693 38.7983H379.835C380.793 35.5262 381.82 32.8427 382.918 30.7577C384.584 27.5853 386.369 25.1113 388.285 23.3555C388.933 22.757 389.552 22.4577 390.14 22.4577C390.35 22.4577 390.529 22.5574 390.699 22.747C390.849 22.9465 390.928 23.2159 390.928 23.555C390.928 23.8044 390.908 24.0638 390.868 24.3232C390.839 24.4928 390.609 25.3407 390.18 26.877L388.285 33.551C387.716 35.5661 387.437 36.8929 387.437 37.5613C387.437 38.0501 387.596 38.4591 387.926 38.7883C388.255 39.1176 388.654 39.2871 389.143 39.2871C389.671 39.2871 390.24 39.1176 390.868 38.7684C391.497 38.4192 392.245 37.7608 393.123 36.7932C394.001 35.8255 394.619 35.0573 394.969 34.4987L394.28 34.0597C393.592 35.0573 392.844 35.8654 392.056 36.4739C391.706 36.7333 391.467 36.873 391.327 36.873C391.188 36.873 391.078 36.8231 390.998 36.7233C390.868 36.5837 390.809 36.4141 390.809 36.2245C390.809 36.035 391.058 35.0573 391.557 33.2916L393.841 25.2011C394.091 24.3032 394.22 23.4453 394.22 22.6472C394.22 21.7294 394.011 21.0511 393.612 20.6221C393.203 20.1832 392.674 19.9637 392.046 19.9637C390.948 19.9637 389.841 20.4326 388.714 21.3803C386.689 23.0862 384.554 26.049 382.289 30.2788L383.766 24.9916C384.085 23.8942 384.244 23.0064 384.244 22.328C384.244 21.6496 384.015 21.071 383.556 20.6221C383.097 20.1832 382.519 19.9537 381.83 19.9537C381.022 19.9537 380.254 20.1732 379.516 20.6221C378.269 21.4002 376.982 22.6472 375.665 24.3631C374.817 25.4704 373.79 27.1264 372.583 29.3311L375.286 19.9537L368.113 21.2606L368.103 21.3005ZM356.83 21.1508V21.9589C357.788 21.8092 358.417 21.7294 358.726 21.7294C359.095 21.7294 359.394 21.8292 359.604 22.0187C359.823 22.2083 359.933 22.4577 359.933 22.7669C359.933 23.156 359.713 24.1137 359.265 25.64L356.561 34.9576C356.212 36.1447 356.042 37.0026 356.042 37.5114C356.042 38.0202 356.222 38.4492 356.581 38.7883C356.94 39.1275 357.409 39.2971 357.978 39.2971C358.836 39.2971 359.743 38.928 360.681 38.1998C361.958 37.2121 363.065 36.005 364.003 34.5585L363.275 34.0797C362.467 35.2269 361.679 36.1148 360.881 36.7433C360.591 36.9627 360.342 37.0725 360.132 37.0725C359.953 37.0725 359.793 37.0026 359.664 36.863C359.534 36.7233 359.464 36.5438 359.464 36.3243C359.464 36.1248 359.604 35.5462 359.883 34.5585L364.003 19.9836L356.83 21.1508ZM362.257 12.3421C361.858 12.7411 361.659 13.2299 361.659 13.8185C361.659 14.4071 361.858 14.8759 362.267 15.285C362.676 15.694 363.165 15.8935 363.734 15.8935C364.302 15.8935 364.791 15.694 365.2 15.285C365.609 14.8759 365.819 14.3871 365.819 13.8185C365.819 13.2499 365.619 12.7411 365.21 12.3421C364.811 11.943 364.322 11.7335 363.734 11.7335C363.145 11.7335 362.656 11.933 362.257 12.3421ZM340.011 21.929C340.789 21.8092 341.318 21.7394 341.607 21.7394C342.066 21.7394 342.435 21.8492 342.704 22.0686C342.914 22.2382 343.014 22.4477 343.014 22.6971C343.014 23.3356 342.794 24.403 342.345 25.8994L338.495 38.8083H341.677L342.345 36.1946C342.425 35.8754 342.764 34.9276 343.343 33.3415C343.762 32.1942 344.261 31.1567 344.839 30.2389C346.186 28.0742 347.433 26.3184 348.58 24.9617C349.319 24.0738 349.867 23.5351 350.226 23.3356C350.436 23.2258 350.655 23.176 350.895 23.176C351.044 23.176 351.174 23.2258 351.284 23.3356C351.384 23.4154 351.443 23.5949 351.473 23.8543C351.523 24.2833 351.673 24.6025 351.902 24.812C352.132 25.0215 352.401 25.1213 352.72 25.1213C353.349 25.1213 353.818 24.812 354.157 24.1835C354.626 23.3555 354.865 22.4776 354.865 21.5698C354.865 21.0511 354.735 20.662 354.466 20.3927C354.207 20.1233 353.838 19.9936 353.389 19.9936C352.68 19.9936 351.773 20.4625 350.645 21.4102C348.66 23.0562 346.455 25.9592 344.031 30.0993L347.024 19.9936L339.851 21.1608L340.001 21.929H340.011ZM325.406 12.5216C326.753 12.2922 327.89 12.1725 328.838 12.1725C330.584 12.1725 331.891 12.5815 332.748 13.3995C333.606 14.2175 334.035 15.3249 334.035 16.7315C334.035 18.1381 333.686 19.3751 332.988 20.6221C332.29 21.8691 331.322 22.8068 330.075 23.4254C328.838 24.0538 327.461 24.3631 325.945 24.3631C324.987 24.3631 323.73 24.1636 322.164 23.7645L325.406 12.5316V12.5216ZM318.044 11.3844C319.391 11.4542 320.259 11.6437 320.658 11.963C321.057 12.2822 321.246 12.6812 321.246 13.1701C321.246 13.8185 320.967 15.1154 320.418 17.0407L315.759 33.0921C315.091 35.3766 314.472 36.7732 313.894 37.282C313.315 37.7908 312.298 38.0401 310.831 38.0401L310.602 38.8083H321.805L322.014 38.0401C320.598 37.9603 319.7 37.7708 319.331 37.4815C318.952 37.1922 318.772 36.8231 318.772 36.3841C318.772 35.8055 319.031 34.5984 319.56 32.7629L321.805 25.0714C323.82 25.5403 325.466 25.7797 326.773 25.7797C328.868 25.7797 330.813 25.3607 332.619 24.5227C334.424 23.6847 335.781 22.5874 336.699 21.2506C337.617 19.9138 338.076 18.5172 338.076 17.0906C338.076 15.285 337.357 13.7586 335.911 12.5017C334.464 11.2447 332.29 10.6162 329.387 10.6162H318.283L318.054 11.3844H318.044Z" fill="#DA4746"/>
<path d="M326.174 77.0462C326.174 77.3655 326.045 77.4951 325.725 77.5251C321.815 74.9513 319.181 69.7039 319.181 63.7682C319.181 57.8325 321.815 52.5852 325.725 50.0114C326.045 50.0413 326.174 50.171 326.174 50.4902C323.032 53.7922 321.286 58.052 321.286 63.7682C321.286 69.4844 323.032 73.7442 326.174 77.0462Z" fill="#DA4746"/>
<path d="M335.063 62.0723C333.537 62.0723 333.477 62.1322 333.477 63.0899V67.5691C333.477 70.911 333.636 71.35 335.412 71.5395L336.33 71.6393C336.519 71.769 336.459 72.3376 336.27 72.4373C334.554 72.3775 333.477 72.3376 332.23 72.3376C330.863 72.3376 329.786 72.3974 328.549 72.4373C328.359 72.3376 328.299 71.8288 328.489 71.6393L329.027 71.5395C330.803 71.2203 330.873 70.911 330.873 67.5691V56.1266C330.873 52.7947 330.653 52.256 328.997 52.1263L328.169 52.0664C327.98 51.9367 328.04 51.3681 328.229 51.2783C329.786 51.3082 330.863 51.3681 332.23 51.3681C333.467 51.3681 334.544 51.3382 335.911 51.2783C336.1 51.3681 336.16 51.9467 335.971 52.0664L335.372 52.1263C333.527 52.3158 333.467 52.7947 333.467 56.1266V59.7778C333.467 60.7655 333.527 60.7954 335.053 60.7954H344.141C345.667 60.7954 345.727 60.7655 345.727 59.7778V56.1266C345.727 52.7947 345.667 52.3158 343.792 52.1263L343.183 52.0664C342.994 51.9367 343.054 51.3681 343.243 51.2783C344.71 51.3382 345.787 51.3681 347.084 51.3681C348.381 51.3681 349.398 51.3382 350.835 51.2783C351.024 51.3681 351.084 51.9467 350.895 52.0664L350.226 52.1263C348.381 52.3158 348.321 52.7947 348.321 56.1266V67.5691C348.321 70.911 348.381 71.32 350.226 71.5395L350.984 71.6393C351.174 71.769 351.114 72.3376 350.925 72.4373C349.398 72.3775 348.321 72.3376 347.084 72.3376C345.777 72.3376 344.64 72.3675 343.243 72.4373C343.054 72.3376 342.994 71.8288 343.183 71.6393L343.792 71.5395C345.727 71.2203 345.727 70.911 345.727 67.5691V63.0899C345.727 62.1421 345.667 62.0723 344.141 62.0723H335.053H335.063Z" fill="#DA4746"/>
<path d="M364.771 63.858C365.499 65.3544 366.198 66.8109 366.966 68.2076H367.026C367.884 66.7112 368.682 65.0651 369.47 63.439L372.453 57.3737C373.879 54.4806 374.807 52.7348 374.867 51.2684C375.944 51.3581 376.613 51.3581 377.251 51.3581C378.039 51.3581 379.097 51.3282 380.074 51.2684C380.264 51.398 380.264 51.9368 380.104 52.0565L379.436 52.1163C377.431 52.3059 377.181 52.9144 377.211 55.139C377.271 58.5109 377.311 64.3868 377.56 68.9558C377.66 70.5419 377.62 71.3999 379.117 71.5296L380.134 71.6293C380.324 71.8189 380.294 72.2977 380.074 72.4274C378.767 72.3675 377.471 72.3276 376.323 72.3276C375.176 72.3276 373.78 72.3576 372.483 72.4274C372.263 72.2678 372.233 71.8189 372.423 71.6293L373.351 71.5296C374.907 71.3699 374.907 70.8612 374.907 68.8261L374.807 55.578H374.747C374.518 55.9271 373.321 58.471 372.682 59.708L369.859 65.2646C368.432 68.0579 366.996 71.0507 366.427 72.5072C366.367 72.607 366.238 72.6369 366.108 72.6369C366.048 72.6369 365.889 72.607 365.819 72.5072C365.28 70.8213 363.754 67.7088 363.025 66.1525L360.172 60.0173C359.504 58.5508 358.836 56.9048 358.137 55.4383H358.077C357.948 57.4036 357.858 59.2491 357.758 61.0947C357.658 63.03 357.539 65.8632 357.539 68.5567C357.539 70.911 357.728 71.4198 358.965 71.5096L360.172 71.6094C360.392 71.7989 360.362 72.3077 360.142 72.4074C359.065 72.3476 357.818 72.3077 356.611 72.3077C355.593 72.3077 354.446 72.3376 353.369 72.4074C353.179 72.2478 353.119 71.769 353.309 71.6094L354.007 71.5096C355.344 71.3201 355.783 71.1305 355.972 68.9059C356.162 66.8109 356.322 65.0651 356.511 61.9127C356.671 59.2791 356.8 56.5756 356.86 54.8298C356.92 52.8246 356.671 52.3458 354.735 52.0964L354.227 52.0365C354.067 51.847 354.097 51.3681 354.356 51.2484C355.314 51.3083 356.072 51.3382 356.87 51.3382C357.599 51.3382 358.456 51.3382 359.504 51.2484C359.374 52.4854 360.172 54.4607 361.16 56.4858L364.781 63.8281L364.771 63.858Z" fill="#DA4746"/>
<path d="M402.012 62.7408C402.012 57.4934 399.697 51.837 393.622 51.837C390.32 51.837 386.03 54.0916 386.03 61.0548C386.03 65.7535 388.315 71.8588 394.58 71.8588C398.39 71.8588 402.012 68.9957 402.012 62.7408ZM382.848 62.0724C382.848 55.7177 387.616 50.8594 394.161 50.8594C401.503 50.8594 405.184 56.1666 405.184 61.7531C405.184 68.1677 400.296 72.8464 394.161 72.8464C387.108 72.8464 382.848 67.7886 382.848 62.0724Z" fill="#DA4746"/>
<path d="M407.279 50.4803C407.279 50.1611 407.409 50.0314 407.728 50.0015C411.638 52.5753 414.272 57.8226 414.272 63.7583C414.272 69.694 411.638 74.9414 407.728 77.5152C407.409 77.4853 407.279 77.3556 407.279 77.0363C410.421 73.7343 412.167 69.4746 412.167 63.7583C412.167 58.0421 410.421 53.7824 407.279 50.4803Z" fill="#DA4746"/>
</g>
<defs>
<clipPath id="clip0_406_38676">
<rect width="415.12" height="76.7352" fill="white" transform="translate(0 0.789917)"/>
</clipPath>
</defs>
</svg>
