<svg width="229" height="34" viewBox="0 0 229 34" fill="none" xmlns="http://www.w3.org/2000/svg">
<g clip-path="url(#clip0_434_46262)">
<g filter="url(#filter0_d_434_46262)">
<path d="M9.98242 -0.00720215H14.2393V4.26566H9.98242V-0.00720215Z" fill="white"/>
<path d="M9.99524 22.1028H14.2521V26.3756H9.99524V22.1028Z" fill="white"/>
<path d="M20.4175 10.5013H25.5795L25.5838 15.6871H20.4175V10.5013Z" fill="white"/>
<path d="M14.884 5.2771H19.8027L19.807 10.2185L14.884 10.2142V5.2771Z" fill="white"/>
<path d="M15.0505 16.2228H19.9692V21.1599H15.0505V16.2228Z" fill="white"/>
<path d="M0 11.0285H3.38584L3.39011 14.4314H0V11.0285Z" fill="white"/>
<path d="M5.07239 5.99707H8.6589V9.59707H5.07239V5.99707Z" fill="white"/>
<path d="M5.27307 15.9099H8.85959V19.5099H5.27307V15.9099Z" fill="white"/>
<path d="M89.1463 12.1514H98.5994V6.26279C98.5994 5.22994 98.531 4.54851 98.403 4.22279C98.3005 3.97422 98.087 3.75994 97.7668 3.58422C97.3313 3.34422 96.8701 3.22422 96.3877 3.22422H95.6618V2.66279H104.419V3.22422H103.693C103.211 3.22422 102.749 3.33994 102.314 3.56708C101.994 3.72565 101.772 3.96565 101.656 4.28708C101.541 4.60851 101.481 5.26851 101.481 6.25851V19.5357C101.481 20.5642 101.55 21.2457 101.678 21.5714C101.78 21.8242 101.985 22.0342 102.301 22.2142C102.745 22.4542 103.211 22.5742 103.693 22.5742H104.419V23.1357H95.6618V22.5742H96.3877C97.2245 22.5742 97.8394 22.3299 98.2194 21.8414C98.4713 21.5199 98.5994 20.7528 98.5994 19.5357V13.2699H89.1463V19.5357C89.1463 20.5642 89.2104 21.2457 89.3385 21.5714C89.4367 21.8242 89.6501 22.0342 89.9746 22.2142C90.4059 22.4542 90.8585 22.5742 91.3409 22.5742H92.0796V23.1357H83.3225V22.5742H84.0484C84.898 22.5742 85.5086 22.3299 85.8928 21.8414C86.1362 21.5199 86.2558 20.7528 86.2558 19.5357V6.25851C86.2558 5.22565 86.1875 4.54422 86.0594 4.21851C85.9569 3.96994 85.7477 3.75565 85.436 3.57994C84.9919 3.33994 84.5266 3.21994 84.0441 3.21994H83.3182V2.65851H92.0753V3.21994H91.3367C90.8542 3.21994 90.4016 3.33565 89.9704 3.56279C89.6544 3.72137 89.4409 3.96137 89.3214 4.28279C89.2018 4.60422 89.1421 5.26422 89.1421 6.25422V12.1428L89.1463 12.1514Z" fill="white"/>
<path d="M109.555 9.05281V14.92H112.749C113.603 14.92 114.171 14.7914 114.457 14.5385C114.841 14.2042 115.055 13.6128 115.093 12.7728H115.503V17.9542H115.093C114.991 17.23 114.888 16.7671 114.786 16.5614C114.649 16.3042 114.436 16.1028 114.137 15.9571C113.838 15.8114 113.372 15.7385 112.749 15.7385H109.555V20.6242C109.555 21.28 109.585 21.6785 109.645 21.82C109.705 21.9614 109.807 22.0728 109.948 22.1585C110.093 22.2442 110.371 22.2871 110.781 22.2871H113.296C114.137 22.2871 114.743 22.2271 115.123 22.1114C115.507 21.9957 115.87 21.7642 116.22 21.4214C116.673 20.9714 117.138 20.2899 117.612 19.3857H118.086L116.801 23.1357H105.311V22.7242H105.841C106.191 22.7242 106.528 22.6385 106.844 22.4714C107.083 22.3557 107.237 22.1799 107.322 21.9442C107.408 21.7085 107.45 21.2328 107.45 20.5085V10.8228C107.45 9.86709 107.356 9.27567 107.169 9.05281C106.9 8.75709 106.46 8.60709 105.845 8.60709H105.316V8.19995H116.763L116.933 11.4742H116.459C116.306 10.6985 116.139 10.1671 115.951 9.87995C115.772 9.59281 115.494 9.36995 115.132 9.21995C114.841 9.11281 114.333 9.05709 113.603 9.05709H109.56L109.555 9.05281Z" fill="white"/>
<path d="M128.88 18.1556H123.09L122.078 20.4914C121.831 21.0699 121.707 21.5028 121.707 21.7899C121.707 22.0171 121.814 22.2142 122.031 22.3899C122.245 22.5614 122.71 22.6728 123.427 22.7242V23.1356H118.752V22.7242C119.376 22.6128 119.777 22.4714 119.956 22.2914C120.332 21.9356 120.742 21.2199 121.199 20.1356L126.527 7.85278H126.95L132.031 20.2814C132.449 21.2799 132.825 21.9271 133.167 22.2228C133.504 22.5185 133.982 22.6856 134.588 22.7242V23.1356H128.683V22.7242C129.277 22.6942 129.678 22.5956 129.887 22.4285C130.097 22.2614 130.195 22.0556 130.195 21.8156C130.195 21.4942 130.05 20.9885 129.759 20.2985L128.884 18.1556H128.88ZM128.534 17.3028L126.07 11.2728L123.462 17.3028H128.53H128.534Z" fill="white"/>
<path d="M147.636 19.0085L148.008 19.0857L146.748 23.1357H135.233V22.7242H135.792C136.42 22.7242 136.873 22.5228 137.142 22.1157C137.295 21.8842 137.372 21.3485 137.372 20.5085V10.8228C137.372 9.89709 137.27 9.31852 137.065 9.08709C136.779 8.76995 136.352 8.60709 135.792 8.60709H135.233V8.19995H141.928V8.60709C141.151 8.59852 140.609 8.67138 140.297 8.82567C139.981 8.97995 139.772 9.16852 139.656 9.40424C139.541 9.63567 139.481 10.1885 139.481 11.0671V20.4742C139.481 21.0828 139.541 21.5028 139.656 21.7299C139.746 21.8842 139.883 21.9999 140.062 22.0728C140.246 22.1457 140.813 22.1842 141.77 22.1842H142.854C143.99 22.1842 144.789 22.0985 145.245 21.9314C145.702 21.7642 146.125 21.4642 146.505 21.0357C146.885 20.6071 147.265 19.9342 147.641 19.0128L147.636 19.0085Z" fill="white"/>
<path d="M159.425 8.19996L159.596 11.6843H159.177C159.096 11.0671 158.985 10.6257 158.844 10.3643C158.618 9.93996 158.319 9.62711 157.939 9.42139C157.563 9.21996 157.068 9.11711 156.453 9.11711H154.361V20.5428C154.361 21.46 154.464 22.0342 154.664 22.2614C154.946 22.57 155.386 22.7242 155.975 22.7242H156.5V23.1357H150.113V22.7242H150.651C151.287 22.7242 151.744 22.5314 152.009 22.15C152.175 21.9142 152.256 21.3785 152.256 20.5428V9.11711H150.471C149.78 9.11711 149.289 9.16854 148.998 9.27139C148.614 9.40854 148.294 9.67854 148.021 10.0728C147.752 10.4671 147.594 11.0028 147.542 11.68H147.128L147.299 8.19568H159.429L159.425 8.19996Z" fill="white"/>
<path d="M164.779 15.1214H171.675V10.8228C171.675 10.0685 171.628 9.57138 171.534 9.33567C171.457 9.15567 171.303 8.99709 171.068 8.86852C170.752 8.69281 170.419 8.60709 170.065 8.60709H169.531V8.19995H175.919V8.60709H175.389C175.035 8.60709 174.706 8.69281 174.386 8.85995C174.151 8.97567 173.989 9.15138 173.903 9.38709C173.818 9.62281 173.775 10.1028 173.775 10.8271V20.5128C173.775 21.2628 173.822 21.7599 173.92 21.9957C173.993 22.1799 174.147 22.3342 174.373 22.4671C174.697 22.6428 175.035 22.7285 175.389 22.7285H175.919V23.14H169.531V22.7285H170.065C170.675 22.7285 171.12 22.5528 171.397 22.1928C171.581 21.9614 171.675 21.4 171.675 20.5128V15.9442H164.779V20.5128C164.779 21.2628 164.826 21.7599 164.924 21.9957C164.997 22.1799 165.151 22.3342 165.381 22.4671C165.697 22.6428 166.03 22.7285 166.384 22.7285H166.918V23.14H160.531V22.7285H161.064C161.679 22.7285 162.128 22.5528 162.409 22.1928C162.584 21.9614 162.674 21.4 162.674 20.5128V10.8271C162.674 10.0728 162.627 9.57567 162.533 9.33995C162.461 9.15995 162.311 9.00138 162.081 8.87281C161.756 8.69709 161.419 8.61138 161.069 8.61138H160.535V8.20424H166.922V8.61138H166.389C166.034 8.61138 165.701 8.69709 165.385 8.86424C165.163 8.97995 165.001 9.15567 164.916 9.39138C164.83 9.62709 164.783 10.1071 164.783 10.8314V15.13L164.779 15.1214Z" fill="white"/>
<path d="M33.6748 3.00136V3.56278C32.9191 3.57136 32.4024 3.6185 32.1292 3.7085C31.651 3.86707 31.4076 4.1885 31.4076 4.6685C31.4076 4.91707 31.4887 5.25993 31.6595 5.70564C31.8388 6.14707 32.1591 6.89278 32.633 7.93421L37.3467 18.4771L41.6334 7.05993C41.8213 6.5585 41.9622 6.13421 42.0604 5.79136C42.1586 5.44421 42.2056 5.16564 42.2056 4.94707C42.2056 4.3685 41.9579 3.96993 41.4541 3.76421C41.1638 3.6485 40.6728 3.57564 39.9939 3.5585V2.99707H46.1678V3.51564C45.5316 3.60564 45.0577 3.77707 44.7546 4.03421C44.2892 4.41993 43.8366 5.19136 43.384 6.35707L36.7105 23.3928H36.2537L28.8159 6.74278C28.1883 5.33278 27.6802 4.45421 27.2959 4.10707C26.9245 3.76421 26.3737 3.56707 25.6478 3.51564V2.99707H33.6748" fill="white"/>
<path d="M43.0938 22.6299C44.0117 22.5613 44.6095 22.4242 44.8827 22.2185C45.156 22.0042 45.2926 21.4556 45.2926 20.5771V10.4756C45.2926 9.63991 45.156 9.1042 44.8827 8.86848C44.6138 8.6242 44.0117 8.47848 43.0938 8.43563V8.01562H49.7886V8.43563C48.8663 8.47848 48.2729 8.6242 47.9996 8.86848C47.7263 9.1042 47.5897 9.63991 47.5897 10.4756V20.5771C47.5897 21.4599 47.7263 22.0042 47.9996 22.2185C48.2729 22.4242 48.8706 22.5613 49.7886 22.6299V23.0371H43.0938V22.6299Z" fill="white"/>
<path d="M55.7447 8.00708V8.42708C55.1768 8.43565 54.7883 8.46994 54.5834 8.53851C54.2204 8.65851 54.0411 8.89851 54.0411 9.26279C54.0411 9.44708 54.1052 9.70422 54.229 10.0385C54.3613 10.3685 54.6047 10.9299 54.9591 11.7142L58.4944 19.6214L61.7094 11.0585C61.8503 10.6814 61.9571 10.3642 62.0297 10.1071C62.1022 9.84994 62.1407 9.63565 62.1407 9.47279C62.1407 9.03565 61.9528 8.73994 61.5771 8.58565C61.355 8.49565 60.9879 8.44851 60.4798 8.43137V8.01137H65.1081V8.40137C64.6299 8.46565 64.2755 8.59851 64.0492 8.79137C63.7034 9.07851 63.3618 9.66137 63.0202 10.5314L58.0162 23.3114H57.6746L52.0984 10.8228C51.6245 9.76422 51.2445 9.10851 50.9584 8.84708C50.6766 8.58994 50.2667 8.43994 49.7202 8.40565V8.01565H55.7447" fill="white"/>
<path fill-rule="evenodd" clip-rule="evenodd" d="M61.3038 23.0371V22.63C61.8845 22.5614 62.32 22.3428 62.6061 21.9614C62.9007 21.5842 63.4002 20.56 64.109 18.8928L68.827 7.74567H69.2668L74.9027 20.6242C75.2784 21.4814 75.5816 22.0128 75.7993 22.2228C76.0256 22.42 76.4056 22.5571 76.9351 22.6342V23.0414H71.1796V22.6342C71.8414 22.5742 72.2726 22.5014 72.4605 22.42C72.6526 22.33 72.7465 22.12 72.7465 21.79C72.7465 21.6785 72.7124 21.4814 72.6398 21.2028C72.5629 20.92 72.4605 20.6285 72.3281 20.3157L71.3888 18.1342H65.4668C64.8775 19.6171 64.5232 20.5257 64.4079 20.86C64.2969 21.1857 64.2414 21.4428 64.2414 21.6357C64.2414 22.0171 64.3951 22.2828 64.7068 22.4328C64.8989 22.5228 65.2575 22.5914 65.787 22.6342V23.0414H61.3038M71.0686 17.2042L68.4513 10.9471L65.8638 17.2042H71.0686Z" fill="white"/>
<path d="M177.763 2.64996C178.079 2.64996 178.382 2.73139 178.681 2.88996C178.98 3.05282 179.215 3.27996 179.381 3.57996C179.548 3.87996 179.633 4.19282 179.633 4.51853C179.633 4.84425 179.552 5.15282 179.386 5.44853C179.219 5.74425 178.989 5.97568 178.694 6.14282C178.395 6.30568 178.088 6.39139 177.763 6.39139C177.439 6.39139 177.131 6.30996 176.832 6.14282C176.538 5.97996 176.307 5.74853 176.141 5.44853C175.974 5.15282 175.893 4.83996 175.893 4.51853C175.893 4.19711 175.978 3.87996 176.145 3.57996C176.311 3.27996 176.546 3.04853 176.845 2.88996C177.144 2.72711 177.451 2.64996 177.763 2.64996ZM177.763 2.88568C177.49 2.88568 177.221 2.95425 176.96 3.09568C176.7 3.23711 176.495 3.43853 176.35 3.69996C176.205 3.96139 176.128 4.23568 176.128 4.51853C176.128 4.80139 176.2 5.07139 176.346 5.33282C176.491 5.59425 176.691 5.79568 176.952 5.93711C177.212 6.08282 177.481 6.15139 177.763 6.15139C178.045 6.15139 178.318 6.07854 178.574 5.93711C178.835 5.79139 179.036 5.58996 179.181 5.33282C179.326 5.07139 179.398 4.80139 179.398 4.51853C179.398 4.23568 179.326 3.96139 179.181 3.69996C179.036 3.43853 178.831 3.23711 178.57 3.09568C178.31 2.95425 178.041 2.88568 177.763 2.88568ZM176.768 3.42996H177.72C178.041 3.42996 178.263 3.46853 178.387 3.54568C178.562 3.65711 178.651 3.81139 178.651 4.00853C178.651 4.13282 178.613 4.24425 178.536 4.34282C178.459 4.44139 178.34 4.50996 178.182 4.55711L178.545 5.22139C178.596 5.31568 178.651 5.38425 178.707 5.42711C178.732 5.44853 178.771 5.46568 178.818 5.47425V5.56854H178.177L177.639 4.59568H177.52V5.11853C177.52 5.26425 177.541 5.35854 177.58 5.40139C177.618 5.44425 177.708 5.46568 177.84 5.46996V5.56425H176.721V5.46996C176.832 5.46996 176.901 5.45282 176.931 5.41425C176.973 5.36282 176.995 5.26425 176.995 5.11425V3.86282C176.995 3.72139 176.978 3.63139 176.948 3.59282C176.918 3.55425 176.854 3.52853 176.76 3.51996V3.42568L176.768 3.42996ZM177.524 4.45853C177.584 4.46711 177.635 4.47139 177.674 4.47139C177.789 4.47139 177.883 4.42853 177.968 4.34282C178.049 4.25711 178.092 4.14139 178.092 3.99996C178.092 3.85854 178.054 3.74282 177.977 3.66568C177.9 3.58853 177.785 3.54996 177.627 3.54996H177.528V4.45853H177.524Z" fill="white"/>
</g>
<g filter="url(#filter1_d_434_46262)">
<path d="M220.938 1.32568L220.874 1.33426L195.969 1.32568H195.333C191.507 1.32568 188.403 4.43711 188.403 8.2814L188.331 9.53711V17.5C188.331 21.34 191.435 24.4557 195.26 24.4557H212.518C212.599 24.5071 212.676 24.5714 212.757 24.6485C215.255 27.13 217.766 29.5985 220.276 32.0671C220.417 32.2043 220.562 32.3371 220.814 32.5771C220.827 31.4114 220.84 30.3828 220.848 29.3543C220.861 27.7214 220.874 26.0885 220.882 24.4557H220.942C224.768 24.4557 227.872 21.3443 227.872 17.5V8.2814C227.872 4.4414 224.772 1.32568 220.942 1.32568H220.938Z" fill="white"/>
<path d="M197.152 16.8871C197.527 16.8828 197.942 16.7328 198.394 16.4285C198.847 16.1285 199.286 15.7728 199.713 15.37C200.14 14.9628 200.529 14.5514 200.888 14.1314C201.238 13.7071 201.511 13.3685 201.69 13.1114C201.797 12.9528 201.9 12.8585 201.998 12.8243C202.096 12.7943 202.169 12.8071 202.22 12.8671C202.267 12.9271 202.284 13.0214 202.275 13.15C202.262 13.2742 202.211 13.42 202.113 13.5785C202.028 13.7242 201.887 13.9342 201.69 14.2128C201.49 14.4871 201.259 14.7914 200.986 15.1128C200.717 15.4343 200.405 15.7685 200.064 16.1071C199.722 16.4414 199.363 16.75 198.988 17.0243C198.612 17.3028 198.223 17.53 197.826 17.71C197.425 17.8857 197.032 17.98 196.644 17.9843C196.11 17.9843 195.662 17.89 195.303 17.6928C194.944 17.4957 194.654 17.2385 194.44 16.9214C194.227 16.6042 194.073 16.2571 193.988 15.8757C193.902 15.49 193.855 15.1128 193.855 14.7357C193.855 14.3585 193.932 13.8871 194.099 13.3257C194.265 12.7642 194.513 12.2243 194.842 11.7057C195.171 11.1871 195.589 10.7371 196.097 10.3643C196.605 9.99139 197.203 9.79854 197.895 9.79425C198.283 9.79425 198.612 9.92711 198.889 10.1885C199.167 10.4542 199.299 10.8185 199.291 11.2814C199.291 11.5 199.257 11.7142 199.188 11.9328C199.116 12.1428 199.022 12.3357 198.898 12.4985C198.778 12.6614 198.637 12.7943 198.475 12.8928C198.313 12.9914 198.134 13.0428 197.942 13.0428C197.784 13.0428 197.664 12.9871 197.583 12.8714C197.506 12.7557 197.455 12.6228 197.433 12.4728C197.416 12.3185 197.412 12.1685 197.433 12.0228C197.451 11.8771 197.468 11.7785 197.493 11.7314C197.553 11.6457 197.621 11.5857 197.69 11.5471C197.762 11.5085 197.848 11.4657 197.946 11.4143C198.018 11.38 198.074 11.3243 198.117 11.2514C198.159 11.1785 198.181 11.0971 198.181 11.0114C198.181 10.9257 198.155 10.8528 198.108 10.7928C198.061 10.7328 197.98 10.7028 197.873 10.7028C197.762 10.7028 197.566 10.7928 197.284 10.9685C196.998 11.1485 196.712 11.41 196.417 11.7614C196.123 12.1128 195.862 12.55 195.636 13.0728C195.41 13.6 195.29 14.2085 195.286 14.9028C195.277 15.3057 195.333 15.6357 195.457 15.8885C195.576 16.1414 195.734 16.3428 195.913 16.4885C196.097 16.6343 196.298 16.7371 196.515 16.7971C196.733 16.8571 196.947 16.8871 197.152 16.8828V16.8871Z" fill="#006241"/>
<path d="M210.14 13.7757C209.973 14.0199 209.756 14.3242 209.495 14.6842C209.231 15.0485 208.953 15.4085 208.671 15.7728C208.389 16.1328 208.116 16.4628 207.843 16.7628C207.574 17.0628 207.348 17.2728 207.164 17.3971C207.044 17.4699 206.904 17.5299 206.746 17.5814C206.588 17.6328 206.43 17.6628 206.263 17.6757C206.097 17.6885 205.947 17.6799 205.798 17.6499C205.653 17.6199 205.524 17.5728 205.413 17.4999C205.302 17.4142 205.213 17.2942 205.14 17.1357C205.076 17.0028 205.021 16.8271 204.965 16.6085C204.91 16.3899 204.888 16.1157 204.897 15.7899C204.606 16.2785 204.291 16.6557 203.94 16.9214C203.59 17.1828 203.257 17.3799 202.946 17.5042C202.583 17.6414 202.22 17.7228 201.853 17.7485C201.686 17.7485 201.502 17.6928 201.306 17.5771C201.11 17.4614 200.947 17.2814 200.811 17.0328C200.674 16.7842 200.589 16.4628 200.55 16.0685C200.508 15.6742 200.555 15.1985 200.683 14.6499C200.849 13.9085 201.11 13.2271 201.477 12.6185C201.844 12.0057 202.245 11.4828 202.677 11.0457C203.112 10.6128 203.539 10.2828 203.962 10.0599C204.384 9.83709 204.735 9.73852 205.012 9.75995C205.341 9.81995 205.674 9.87995 205.879 10.0128C206.383 10.3428 206.724 10.5785 206.75 11.3714C206.75 11.3971 206.72 11.5257 206.72 11.6028C206.72 11.6799 206.703 11.8257 206.669 12.0357C206.635 12.2414 206.579 12.5199 206.511 12.8757C206.442 13.2314 206.348 13.6857 206.229 14.2471C206.208 14.3585 206.186 14.4571 206.169 14.5514C206.152 14.6414 206.135 14.7357 206.118 14.8257C206.101 14.9157 206.079 15.0228 206.054 15.1471C206.028 15.2671 206.003 15.4214 205.964 15.6057C205.956 15.7171 205.951 15.8328 205.96 15.9614C205.964 16.0899 205.99 16.2057 206.024 16.3171C206.062 16.4285 206.122 16.5142 206.199 16.5828C206.276 16.6514 206.387 16.6814 206.536 16.6814C206.656 16.6814 206.814 16.6042 207.006 16.4499C207.198 16.2957 207.403 16.0985 207.621 15.8585C207.839 15.6185 208.065 15.3571 208.3 15.0699C208.535 14.7828 208.752 14.5042 208.957 14.2342C209.162 13.9642 209.35 13.7285 209.504 13.5185C209.666 13.3085 209.786 13.1542 209.854 13.0599C209.952 12.9485 210.05 12.8842 210.144 12.8628C210.238 12.8457 210.315 12.8714 210.362 12.9485C210.409 13.0171 210.422 13.1328 210.392 13.2742C210.362 13.4242 210.277 13.5914 210.131 13.7885L210.14 13.7757ZM204.816 14.6199C204.875 14.3757 204.944 14.0885 205.029 13.7628C205.115 13.4328 205.183 13.1157 205.243 12.8114C205.298 12.5071 205.345 12.2542 205.375 12.0528C205.401 11.8514 205.413 11.6842 205.413 11.6285C205.401 11.1185 204.957 10.9557 204.769 10.9128C204.602 10.8785 204.355 10.9342 204.026 11.2214C203.693 11.5128 203.313 12.0399 202.882 12.8114C202.702 13.1328 202.561 13.4714 202.45 13.8271C202.344 14.1871 202.271 14.5257 202.233 14.8428C202.19 15.1599 202.186 15.4385 202.211 15.6742C202.237 15.9142 202.288 16.0685 202.361 16.1414C202.493 16.2742 202.647 16.3385 202.817 16.3299C202.988 16.3257 203.159 16.2742 203.334 16.1799C203.509 16.0899 203.684 15.9699 203.859 15.8199C204.034 15.6699 204.192 15.5199 204.329 15.3614C204.466 15.2028 204.581 15.0571 204.671 14.9242C204.76 14.7871 204.811 14.6928 204.82 14.6285L204.816 14.6199Z" fill="#006241"/>
<path d="M223.918 13.8442C223.568 14.3671 223.175 14.8771 222.727 15.37C222.283 15.8628 221.813 16.3042 221.314 16.6942C220.814 17.08 220.306 17.3971 219.781 17.6371C219.26 17.8771 218.752 17.9971 218.257 18.0057C218 18.0057 217.714 17.9457 217.416 17.8257C217.112 17.7014 216.839 17.5128 216.587 17.2557C216.34 16.9985 216.139 16.66 215.989 16.2485C215.84 15.8328 215.793 15.3314 215.844 14.74C215.887 14.2557 216.032 13.7457 216.284 13.2014C216.536 12.6614 216.843 12.1642 217.211 11.7142C217.578 11.2642 217.996 10.8871 218.457 10.5871C218.923 10.2871 219.388 10.1371 219.858 10.1328C220.306 10.1285 220.631 10.24 220.836 10.4628C221.036 10.6857 221.126 10.9642 221.105 11.2942C221.07 11.6628 220.972 12.0014 220.806 12.31C220.635 12.6185 220.434 12.8971 220.199 13.15C219.965 13.4028 219.717 13.6257 219.452 13.8271C219.187 14.0328 218.936 14.2171 218.705 14.3842C218.449 14.5642 218.201 14.7357 217.966 14.8942C217.732 15.0571 217.527 15.2028 217.352 15.3314C217.364 15.6271 217.42 15.8757 217.518 16.0771C217.612 16.2785 217.732 16.4414 217.877 16.5657C218.018 16.69 218.18 16.7757 218.363 16.8271C218.547 16.8785 218.735 16.9042 218.923 16.9042C219.324 16.9042 219.738 16.7714 220.174 16.5142C220.609 16.2571 221.032 15.9485 221.45 15.58C221.865 15.2157 222.253 14.8342 222.607 14.4442C222.966 14.05 223.256 13.7114 223.491 13.4242C223.572 13.33 223.658 13.27 223.747 13.2528C223.837 13.2357 223.905 13.2485 223.961 13.2871C224.016 13.33 224.042 13.4028 224.042 13.5014C224.042 13.6 224.004 13.7157 223.918 13.8485V13.8442ZM219.371 11.1485C219.23 11.1485 219.059 11.2214 218.867 11.3671C218.675 11.5128 218.483 11.7142 218.295 11.98C218.107 12.2457 217.936 12.5757 217.77 12.9614C217.608 13.3471 217.488 13.7885 217.411 14.2857C217.552 14.1785 217.702 14.0714 217.868 13.9557C218.035 13.84 218.197 13.72 218.359 13.5871C218.863 13.1928 219.213 12.85 219.414 12.55C219.61 12.2542 219.721 11.9971 219.743 11.7871C219.764 11.56 219.738 11.3971 219.666 11.2985C219.597 11.2 219.495 11.1485 219.367 11.1528L219.371 11.1485ZM220.789 6.64424C220.895 6.55853 221.011 6.5671 221.143 6.6571C221.271 6.75139 221.365 6.89281 221.429 7.08139C221.514 7.32996 221.523 7.51853 221.45 7.64281C221.382 7.7671 221.275 7.87853 221.134 7.97281C221.062 8.0371 220.929 8.11853 220.737 8.22567C220.545 8.33281 220.332 8.44424 220.101 8.55996C219.875 8.67567 219.649 8.77424 219.422 8.86853C219.2 8.95853 219.029 9.00996 218.914 9.02281C218.782 9.03567 218.684 9.02281 218.611 8.97996C218.538 8.94139 218.483 8.88567 218.44 8.82996C218.402 8.76996 218.372 8.70567 218.363 8.62424C218.351 8.5471 218.342 8.48281 218.342 8.41853C219.256 7.77139 219.896 7.31281 220.259 7.03853C220.468 6.88424 220.648 6.75139 220.789 6.64424Z" fill="#006241"/>
<path fill-rule="evenodd" clip-rule="evenodd" d="M211.865 4.51C214.26 4.03 216.438 5.54714 216.579 7.79714C216.668 9.26714 215.614 10.5871 214.119 10.8786C212.642 11.1657 211.498 10.5271 211.024 9.15142C210.593 7.89571 211.493 6.54571 212.813 6.55428C213.206 6.55857 213.645 6.78571 213.961 7.03428C214.128 7.16285 214.674 7.71142 214.128 7.84428C213.902 7.89571 213.641 7.84428 213.453 7.72428C212.975 7.42857 212.625 7.71571 212.599 7.81428C212.518 8.14 212.493 8.60285 212.668 8.85142C213.274 9.71285 214.683 9.53285 215.174 8.58142C215.763 7.42857 215.238 6.09143 214 5.71857C212.535 5.27285 211.242 5.67142 210.23 6.78142C209.205 7.91285 209.427 9.25428 209.973 10.4757C210.405 11.4486 211.037 12.3486 211.673 13.2057C213.201 15.2586 214.329 17.4657 214.645 20.0414C214.691 20.4229 214.751 20.8129 214.726 21.19C214.713 21.4257 214.683 21.8543 214.435 21.8757C214.179 21.8971 214.089 21.4729 214.017 21.2414C213.85 20.7314 213.761 20.1957 213.624 19.6729C213.048 17.4614 211.835 15.6229 210.383 13.8914C209.623 12.9829 208.927 11.9543 208.453 10.87C207.185 7.96857 208.752 5.14 211.856 4.51428L211.865 4.51Z" fill="#006241"/>
<path d="M211.438 14.6671C212.766 14.5986 214.371 14.3586 214.896 12.5114C215.11 11.7614 214.38 11.6628 214.265 12.0957C213.867 13.57 212.326 13.6386 211.318 13.69C210.96 13.7071 211.075 14.6843 211.438 14.6671Z" fill="#006241"/>
</g>
</g>
<defs>
<filter id="filter0_d_434_46262" x="-10.08" y="-10.0872" width="199.793" height="46.5429" filterUnits="userSpaceOnUse" color-interpolation-filters="sRGB">
<feFlood flood-opacity="0" result="BackgroundImageFix"/>
<feColorMatrix in="SourceAlpha" type="matrix" values="0 0 0 0 0 0 0 0 0 0 0 0 0 0 0 0 0 0 127 0" result="hardAlpha"/>
<feOffset/>
<feGaussianBlur stdDeviation="5.04"/>
<feColorMatrix type="matrix" values="0 0 0 0 0.137255 0 0 0 0 0.121569 0 0 0 0 0.12549 0 0 0 0.5 0"/>
<feBlend mode="normal" in2="BackgroundImageFix" result="effect1_dropShadow_434_46262"/>
<feBlend mode="normal" in="SourceGraphic" in2="effect1_dropShadow_434_46262" result="shape"/>
</filter>
<filter id="filter1_d_434_46262" x="178.251" y="-8.75432" width="59.7014" height="51.4114" filterUnits="userSpaceOnUse" color-interpolation-filters="sRGB">
<feFlood flood-opacity="0" result="BackgroundImageFix"/>
<feColorMatrix in="SourceAlpha" type="matrix" values="0 0 0 0 0 0 0 0 0 0 0 0 0 0 0 0 0 0 127 0" result="hardAlpha"/>
<feOffset/>
<feGaussianBlur stdDeviation="5.04"/>
<feColorMatrix type="matrix" values="0 0 0 0 0.137255 0 0 0 0 0.121569 0 0 0 0 0.12549 0 0 0 0.5 0"/>
<feBlend mode="normal" in2="BackgroundImageFix" result="effect1_dropShadow_434_46262"/>
<feBlend mode="normal" in="SourceGraphic" in2="effect1_dropShadow_434_46262" result="shape"/>
</filter>
<clipPath id="clip0_434_46262">
<rect width="229" height="34" fill="white"/>
</clipPath>
</defs>
</svg>
