<svg width="16" height="15" viewBox="0 0 16 15" fill="none" xmlns="http://www.w3.org/2000/svg">
<path d="M3.52444 15H0.404444V4.81106H3.52444V15ZM1.88444 3.53688H1.85778C0.733333 3.53688 0 2.75695 0 1.76844C0 0.76179 0.751111 0 1.90667 0C3.05778 0 3.76444 0.76179 3.78667 1.76844C3.78667 2.75242 3.05333 3.53688 1.88444 3.53688ZM16 15H12.4622V9.72642C12.4622 8.34794 11.9111 7.40478 10.6933 7.40478C9.76444 7.40478 9.24444 8.0396 9.00445 8.65175C8.91111 8.86941 8.92889 9.17775 8.92889 9.48156V14.9955H5.42667C5.42667 14.9955 5.47111 5.65447 5.42667 4.80653H8.92889V6.40266C9.13778 5.70435 10.2533 4.70677 12.04 4.70677C14.2578 4.70677 16 6.1714 16 9.32739V15Z" fill="white"/>
</svg>
