<svg width="16" height="11" viewBox="0 0 16 11" fill="none" xmlns="http://www.w3.org/2000/svg">
<path d="M15.649 1.7474C16 2.95052 16 5.52865 16 5.52865C16 5.52865 16 8.07812 15.649 9.3099C15.4735 9.9974 14.9177 10.513 14.245 10.6849C12.9872 11 8.01463 11 8.01463 11C8.01463 11 3.0128 11 1.75503 10.6849C1.08227 10.513 0.526508 9.9974 0.351005 9.3099C0 8.07812 0 5.52865 0 5.52865C0 5.52865 0 2.95052 0.351005 1.7474C0.526508 1.0599 1.08227 0.515625 1.75503 0.34375C3.0128 0 8.01463 0 8.01463 0C8.01463 0 12.9872 0 14.245 0.34375C14.9177 0.515625 15.4735 1.0599 15.649 1.7474ZM6.3766 7.84896L10.5302 5.52865L6.3766 3.20833V7.84896Z" fill="white"/>
</svg>
