<svg width="13" height="12" viewBox="0 0 13 12" fill="none" xmlns="http://www.w3.org/2000/svg">
<path d="M7.29027 0.612958L12.7935 5.43252C13.0019 5.62616 13.0227 5.9489 12.856 6.16406C12.6684 6.37922 12.3557 6.40073 12.1472 6.22861L11.647 5.77677V9.77873C11.647 10.7469 10.8965 11.5 9.97932 11.5H3.97585C3.03781 11.5 2.30822 10.7469 2.30822 9.77873V5.77677L1.78708 6.22861C1.57863 6.40073 1.26595 6.37922 1.07834 6.16406C0.911575 5.9489 0.932421 5.62616 1.14087 5.43252L6.64406 0.612958C6.83167 0.462347 7.10266 0.462347 7.29027 0.612958ZM3.3088 9.77873C3.3088 10.166 3.60063 10.4672 3.97585 10.4672H4.97643V7.19682C4.97643 6.72347 5.3308 6.33619 5.81024 6.33619H8.14493C8.60353 6.33619 8.97874 6.72347 8.97874 7.19682V10.4672H9.97932C10.3337 10.4672 10.6464 10.166 10.6464 9.77873V4.89462L6.97759 1.68875L3.3088 4.89462V9.77873ZM5.97701 10.4672H7.97816V7.36895H5.97701V10.4672Z" fill="#343434"/>
</svg>
