<svg width="9" height="9" viewBox="0 0 9 9" fill="none" xmlns="http://www.w3.org/2000/svg">
<path d="M8.08594 1.71094L5.27344 4.52344L8.0625 7.3125C8.29688 7.52344 8.29688 7.875 8.0625 8.08594C7.85156 8.32031 7.5 8.32031 7.28906 8.08594L4.47656 5.29688L1.6875 8.08594C1.47656 8.32031 1.125 8.32031 0.914062 8.08594C0.679688 7.875 0.679688 7.52344 0.914062 7.28906L3.70312 4.5L0.914062 1.71094C0.679688 1.5 0.679688 1.14844 0.914062 0.914062C1.125 0.703125 1.47656 0.703125 1.71094 0.914062L4.5 3.72656L7.28906 0.9375C7.5 0.703125 7.85156 0.703125 8.08594 0.9375C8.29688 1.14844 8.29688 1.5 8.08594 1.71094Z" fill="#0A5B58"/>
</svg>
