<svg width="150" height="159" viewBox="0 0 150 159" fill="none" xmlns="http://www.w3.org/2000/svg">
<g clip-path="url(#clip0_1550_5954)">
<path d="M146.335 76.3741C153.08 63.8986 148.476 48.2948 136.056 41.5224C130.091 38.2699 125.657 32.7703 123.731 26.2342C119.716 12.6239 105.476 4.85824 91.9247 8.89027C85.4168 10.827 78.411 10.0871 72.4458 6.83459C60.0242 0.0605135 44.4895 4.68406 37.7447 17.1578C34.5062 23.1489 29.0303 27.6018 22.5225 29.5384C8.9693 33.5705 1.23715 47.8723 5.25176 61.4825C7.18008 68.0186 6.44344 75.0565 3.20496 81.0459C-3.53985 93.5214 1.06372 109.124 13.4836 115.898C19.4488 119.15 23.8824 124.65 25.809 131.186C29.8236 144.796 44.0636 152.562 57.6151 148.53C64.1229 146.593 71.1304 147.333 77.094 150.585C89.5156 157.359 105.05 152.736 111.795 140.262C115.034 134.271 120.509 129.818 127.017 127.883C140.569 123.851 148.301 109.549 144.286 95.9392C142.358 89.4032 143.095 82.3652 146.333 76.3758" fill="#EB5651"/>
<path d="M81.9943 21.1177C85.0692 20.2462 87.8499 20.0824 90.3364 20.6263C92.8168 21.1484 94.9565 22.2971 96.7554 24.0725C98.5482 25.8261 99.946 28.1393 100.949 31.0121C101.951 33.8848 102.495 37.2174 102.581 41.0099C102.668 45.2258 102.217 49.0762 101.225 52.5613C100.25 56.0183 98.8467 59.0899 97.0165 61.7761C95.1801 64.4405 93.038 66.6497 90.5902 68.4037C88.1424 70.1576 85.5119 71.4333 82.6987 72.2306C79.4275 73.1577 76.4973 73.3757 73.9079 72.8845C71.3341 72.3653 69.1368 71.2211 67.316 69.4519C65.5171 67.6765 64.1241 65.3384 63.137 62.4376C62.1499 59.5369 61.6013 56.1466 61.4912 52.267C61.3745 47.117 62.127 42.4156 63.7488 38.1629C65.3706 33.9101 67.7445 30.3159 70.8705 27.3803C74.012 24.4166 77.72 22.3291 81.9943 21.1177ZM88.6827 45.0903C88.5071 39.8156 88.1796 35.6677 87.7003 32.6466C87.2148 29.6037 86.4813 27.5145 85.4999 26.3791C84.5402 25.2376 83.2426 24.8985 81.607 25.3621C80.1895 25.7639 78.9853 26.918 77.9942 28.8245C77.0188 30.703 76.2974 33.2281 75.8299 36.3997C75.3624 39.5714 75.2004 43.2808 75.3439 47.528C75.5031 51.7471 75.737 55.2737 76.0454 58.1076C76.3757 60.9354 76.8132 63.1438 77.3578 64.7328C77.9242 66.3157 78.6365 67.3742 79.4947 67.9085C80.3467 68.4209 81.3833 68.504 82.6046 68.1579C83.8912 67.7932 85.0128 66.7214 85.9693 64.9425C86.9414 63.1357 87.6816 60.5935 88.1898 57.316C88.6918 54.0168 88.8562 49.9415 88.6827 45.0903Z" fill="white"/>
<path d="M41.518 73.496C39.055 74.1941 36.9445 74.4929 35.1865 74.3925C33.4439 74.2877 32.0602 73.865 31.0354 73.1244C30.0216 72.364 29.3501 71.3736 29.0208 70.1531C28.6502 68.7282 28.7617 67.4493 29.3553 66.3165C29.9489 65.1837 30.8691 64.4406 32.116 64.0872C33.132 63.7993 33.9977 63.9198 34.713 64.4488C35.4394 64.958 35.8431 65.8248 35.924 67.0491L36.2294 69.1827C36.32 69.9719 36.5538 70.6207 36.9307 71.1292C37.3077 71.6377 37.8575 71.9641 38.5803 72.1085C39.2987 72.2375 40.212 72.1449 41.3204 71.8308C42.9213 71.377 44.1503 70.6379 45.0075 69.6133C45.8756 68.569 46.1957 67.3807 45.9677 66.0484C45.8376 65.2371 45.5127 64.531 44.9931 63.9299C44.4735 63.3288 43.6956 62.7843 42.6592 62.2964C41.6229 61.8085 40.2733 61.3595 38.6105 60.9494C36.4843 60.3712 34.7703 59.6929 33.4687 58.9143C32.1671 58.1358 31.1855 57.2249 30.524 56.1818C29.8735 55.1189 29.4442 53.9268 29.236 52.6054C28.997 51.2929 29.0547 49.971 29.4092 48.6399C29.7637 47.3088 30.407 46.0289 31.3393 44.8001C32.2869 43.567 33.5046 42.4652 34.9924 41.4947C36.4801 40.5242 38.2246 39.7554 40.2258 39.1882C42.658 38.4989 44.7376 38.267 46.4645 38.4927C48.1915 38.7183 49.5574 39.2541 50.5622 40.1002C51.567 40.9463 52.2198 41.9586 52.5206 43.1373C52.8542 44.3731 52.7485 45.5257 52.2034 46.5948C51.6582 47.664 50.7853 48.3687 49.5846 48.709C48.5181 48.9947 47.5875 48.9092 46.7929 48.4526C46.0093 47.9762 45.565 47.1126 45.4599 45.8619L45.2669 43.5966C45.1334 42.3041 44.6859 41.3998 43.9243 40.884C43.1782 40.3637 42.0739 40.3108 40.6115 40.7253C39.6571 40.9958 38.7947 41.4148 38.0243 41.9824C37.2693 42.5457 36.6964 43.2236 36.3057 44.0161C35.915 44.8087 35.8044 45.6799 35.9738 46.6297C36.1171 47.4871 36.4353 48.2284 36.9284 48.8537C37.4216 49.4789 38.1787 50.0376 39.1996 50.5299C40.2205 51.0221 41.581 51.5096 43.281 51.9923C45.5961 52.65 47.4538 53.3957 48.8543 54.2294C50.2701 55.0587 51.3176 55.9675 51.9968 56.9558C52.6871 57.9243 53.1156 58.9669 53.2825 60.0837C53.5694 61.5656 53.4763 62.9973 53.003 64.3787C52.5298 65.7601 51.7469 67.0463 50.6542 68.2374C49.5573 69.4131 48.2232 70.4564 46.6521 71.3674C45.092 72.2585 43.3806 72.9681 41.518 73.496ZM41.9966 54.5017L40.4265 54.9467C40.436 52.516 40.3768 50.3708 40.2489 48.5112C40.132 46.6319 39.9927 44.9668 39.8309 43.5159C39.6845 42.0607 39.5488 40.7604 39.4238 39.6151C39.2987 38.4698 39.2208 37.4026 39.1899 36.4135C39.1891 35.7652 39.343 35.2227 39.6516 34.786C39.9756 34.3449 40.3993 34.0502 40.9227 33.9019C41.3999 33.7666 41.7998 33.8279 42.1223 34.0857C42.4448 34.3435 42.6031 34.8142 42.5973 35.4977C42.6218 36.4054 42.602 37.4504 42.5379 38.6327C42.4849 39.7952 42.4161 41.1368 42.3316 42.6575C42.2471 44.1782 42.1675 45.9219 42.0931 47.8888C42.0296 49.8359 41.9974 52.0402 41.9966 54.5017ZM39.8113 57.441L41.3815 56.9959C41.3763 59.4421 41.4266 61.6147 41.5325 63.5138C41.6494 65.3931 41.7909 67.0659 41.957 68.5322C42.1188 69.9831 42.26 71.2734 42.3807 72.4034C42.5168 73.5289 42.5893 74.5477 42.5984 75.4598C42.6036 76.1236 42.4442 76.676 42.1202 77.117C41.8159 77.5691 41.4021 77.8693 40.8787 78.0177C40.4015 78.1529 39.9995 78.084 39.6726 77.8107C39.3501 77.5529 39.1895 77.0746 39.191 76.3757C39.1645 75.402 39.1833 74.324 39.2473 73.1418C39.307 71.9441 39.3813 70.5926 39.4702 69.0873C39.5547 67.5667 39.6353 65.8559 39.7118 63.955C39.784 62.0387 39.8172 59.8673 39.8113 57.441Z" fill="white"/>
<path d="M48.6868 99.5791L47.4923 100.556L51.0535 90.3426C51.2142 89.9032 51.4092 89.5859 51.6385 89.3906C51.8664 89.1889 52.1039 89.0602 52.3511 89.0045L55.3362 88.3316C55.5833 88.2759 55.7626 88.2833 55.8742 88.3538C55.9923 88.4229 56.0704 88.542 56.1085 88.711C56.1372 88.8686 56.1152 89.0136 56.0426 89.1462C55.9685 89.2722 55.865 89.3742 55.7322 89.4519L55.246 89.705C55.1247 89.7734 55.035 89.8756 54.9768 90.0117C54.9237 90.1399 54.8971 90.3099 54.897 90.5218C54.9064 90.7452 54.9142 91.068 54.9206 91.4903C54.9334 91.9111 54.9472 92.3966 54.9619 92.9469C54.9766 93.4971 54.9921 94.0813 55.0085 94.6995C55.0313 95.3163 55.0502 95.9305 55.0651 96.5422C55.085 97.1459 55.1048 97.7189 55.1245 98.2612C55.1508 98.802 55.1714 99.2723 55.1863 99.6721C55.2013 100.072 55.213 100.367 55.2216 100.556C55.236 100.771 55.2813 100.942 55.3576 101.069C55.4325 101.188 55.5473 101.258 55.7021 101.278L56.2424 101.31C56.3841 101.333 56.4964 101.376 56.579 101.439C56.6681 101.501 56.7234 101.595 56.7447 101.72C56.7858 101.902 56.7512 102.067 56.641 102.214C56.5359 102.354 56.3597 102.452 56.1126 102.508L51.2935 103.594C51.0464 103.65 50.863 103.64 50.7435 103.564C50.624 103.489 50.5484 103.366 50.5168 103.195C50.4816 103.039 50.5018 102.901 50.5773 102.782C50.6594 102.661 50.7596 102.56 50.8779 102.478L51.3544 102.227C51.5053 102.139 51.6091 102.023 51.6657 101.88C51.7289 101.736 51.759 101.521 51.756 101.235C51.7454 100.854 51.734 100.44 51.7218 99.9918C51.7096 99.5435 51.6955 99.0718 51.6795 98.5765C51.6686 98.0732 51.6547 97.557 51.6379 97.0277C51.6262 96.4905 51.6104 95.9507 51.5907 95.4085C51.5775 94.8647 51.5585 94.3257 51.5337 93.7914C51.514 93.2492 51.4907 92.7214 51.4638 92.208L51.7152 92.1411L48.3998 102.217C48.2469 102.6 48.0941 102.877 47.9413 103.048C47.7936 103.211 47.5864 103.323 47.3198 103.383C47.1117 103.43 46.9072 103.387 46.7065 103.255C46.5044 103.116 46.3294 102.885 46.1816 102.563C46.0395 102.206 45.8876 101.82 45.7258 101.405C45.564 100.99 45.3946 100.557 45.2175 100.105C45.0454 99.6448 44.8639 99.1732 44.673 98.69C44.4871 98.1989 44.2958 97.6987 44.099 97.1895C43.9007 96.6738 43.6992 96.1589 43.4945 95.6447C43.2962 95.129 43.0947 94.614 42.8899 94.0998L43.2138 93.9448L42.7688 102.748C42.7607 103.167 42.8173 103.479 42.9387 103.684C43.0651 103.881 43.2556 103.998 43.5103 104.037L43.9096 104.08C44.1976 104.145 44.365 104.281 44.4119 104.489C44.4479 104.679 44.4108 104.848 44.3007 104.996C44.189 105.138 44.0064 105.237 43.7527 105.294L40.7871 105.963C40.5335 106.02 40.3502 106.01 40.2371 105.933C40.1161 105.851 40.038 105.732 40.0028 105.576C39.9662 105.413 39.9889 105.271 40.071 105.15C40.1516 105.023 40.2543 104.918 40.3791 104.835L40.6942 104.641C40.8436 104.545 40.9734 104.424 41.0835 104.276C41.1923 104.122 41.2794 103.887 41.345 103.571C41.4156 103.248 41.4666 102.792 41.4981 102.204L41.9197 93.5702C41.9391 93.2924 41.9121 93.0969 41.8388 92.9836C41.7654 92.8703 41.6448 92.8052 41.477 92.7884L40.9465 92.7542C40.8017 92.7185 40.6881 92.669 40.6054 92.6056C40.5228 92.5422 40.4676 92.4487 40.4397 92.3251C40.4037 92.1351 40.4423 91.9726 40.5554 91.8378C40.667 91.6964 40.8399 91.5994 41.074 91.5466L43.9421 90.9001C44.2802 90.8238 44.5804 90.8519 44.8426 90.9841C45.1033 91.1099 45.3305 91.3901 45.5241 91.8248C45.6713 92.1743 45.8235 92.5466 45.9809 92.9417C46.1369 93.3303 46.2997 93.7343 46.4695 94.1539C46.6392 94.5735 46.8119 95.0062 46.9876 95.4518C47.1697 95.8959 47.3533 96.3466 47.5383 96.8038C47.7234 97.2609 47.9132 97.7238 48.1077 98.1926C48.3007 98.6547 48.4937 99.117 48.6868 99.5791Z" fill="white"/>
<path d="M62.2676 91.2898C63.2966 91.0646 64.2038 91.072 64.9891 91.3118C65.7744 91.5517 66.3987 92.0021 66.862 92.663C67.3239 93.3175 67.572 94.1602 67.6062 95.1913C67.6339 95.9504 67.542 96.6648 67.3308 97.3343C67.1195 98.0038 66.8006 98.6053 66.3742 99.1388C65.9542 99.6709 65.4407 100.121 64.8337 100.491C64.2253 100.853 63.5366 101.118 62.7677 101.284C61.7517 101.507 60.851 101.498 60.0657 101.258C59.2804 101.018 58.6594 100.567 58.2025 99.9046C57.7457 99.2421 57.4943 98.4001 57.4486 97.3785C57.426 96.6114 57.5178 95.897 57.7241 95.2355C57.9353 94.566 58.2509 93.9652 58.6709 93.4332C59.0908 92.9011 59.605 92.4538 60.2135 92.0911C60.8205 91.7219 61.5052 91.4548 62.2676 91.2898ZM62.3811 100.07C62.5821 100.052 62.7623 99.9872 62.9218 99.8761C63.0877 99.7635 63.2355 99.6003 63.365 99.3866C63.4995 99.1649 63.6133 98.8967 63.7064 98.5819C63.798 98.2605 63.868 97.8894 63.9167 97.4684C63.9653 97.0474 63.9924 96.5765 63.998 96.0559C64.0057 95.2409 63.9566 94.5686 63.8509 94.0389C63.7517 93.5077 63.6015 93.1144 63.4004 92.8591C63.1993 92.6037 62.9506 92.4855 62.6542 92.5045C62.4582 92.5145 62.278 92.579 62.1135 92.6981C61.9541 92.8092 61.8103 92.9749 61.6823 93.1951C61.5527 93.4088 61.4415 93.6731 61.3484 93.9879C61.2554 94.3028 61.1853 94.6739 61.1381 95.1014C61.0895 95.5224 61.0624 95.9932 61.0568 96.5139C61.0477 97.3224 61.0935 97.9954 61.1942 98.5331C61.2999 99.0628 61.4533 99.4554 61.6544 99.7107C61.8555 99.9661 62.0977 100.086 62.3811 100.07Z" fill="white"/>
<path d="M68.5674 92.7092C68.4451 92.682 68.3638 92.5944 68.3236 92.4463C68.2899 92.2967 68.3066 92.0982 68.3739 91.8507C68.5419 91.2319 68.8812 90.6907 69.3917 90.2271C69.9023 89.7635 70.5413 89.4452 71.3087 89.2722C71.7899 89.1637 72.1826 89.1777 72.4867 89.3142C72.7909 89.4506 72.9847 89.7042 73.0683 90.0749C73.1181 90.296 73.1225 90.5581 73.0815 90.8612C73.0455 91.1564 72.9926 91.4827 72.9229 91.8401C72.8516 92.191 72.783 92.5687 72.717 92.9731C72.6495 93.371 72.6157 93.7818 72.6155 94.2056L72.3374 94.0632C72.4913 93.0786 72.7238 92.2301 73.0347 91.5176C73.3442 90.7986 73.7017 90.202 74.1074 89.7279C74.5181 89.2458 74.9497 88.8717 75.4023 88.6057C75.8534 88.3331 76.2903 88.1492 76.7131 88.0539C77.3114 87.9191 77.7797 87.9502 78.118 88.1473C78.4628 88.3429 78.6937 88.6701 78.8108 89.1289C78.9279 89.5877 78.948 90.147 78.8712 90.8067L78.4833 94.1335C78.4263 94.6384 78.441 94.9767 78.5276 95.1486C78.6142 95.3204 78.7323 95.3895 78.8818 95.3557C78.9664 95.3367 79.0458 95.2949 79.1201 95.2303C79.2009 95.1642 79.2964 95.0573 79.4065 94.9094C79.5153 94.7551 79.6097 94.6586 79.6898 94.62C79.775 94.5735 79.865 94.5635 79.9598 94.5899C80.0821 94.617 80.1601 94.7054 80.1938 94.855C80.2341 95.0031 80.2213 95.2041 80.1555 95.4581C79.9925 96.0689 79.659 96.6054 79.155 97.0676C78.6574 97.5283 78.0282 97.8444 77.2673 98.0159C76.7015 98.1434 76.2564 98.1242 75.9319 97.9581C75.6075 97.7921 75.3918 97.5024 75.285 97.0891C75.1781 96.6758 75.16 96.1708 75.2305 95.574L75.6118 92.218C75.6875 91.6747 75.6737 91.2952 75.5704 91.0793C75.4721 90.8554 75.2766 90.7765 74.9839 90.8424C74.7823 90.8879 74.5766 91.006 74.3668 91.1968C74.162 91.3797 73.9646 91.6258 73.7746 91.9351C73.5847 92.2444 73.4209 92.6094 73.2833 93.0299C73.1458 93.4505 73.0395 93.9187 72.9644 94.4345C72.9185 94.807 72.8812 95.1264 72.8523 95.3925C72.8235 95.6587 72.8061 95.8848 72.8002 96.0706C72.7993 96.2485 72.8135 96.4025 72.8428 96.5326C72.8883 96.7342 72.9611 96.9057 73.0613 97.0471C73.168 97.187 73.2456 97.3643 73.294 97.579C73.3805 97.9627 73.2127 98.3251 72.7907 98.6662C72.3738 98.9994 71.7459 99.2606 70.9069 99.4497C70.3021 99.586 69.8899 99.4705 69.6704 99.1031C69.4509 98.7357 69.3931 98.161 69.4971 97.379L70.0439 93.1656C70.1139 92.6578 70.1024 92.3187 70.0093 92.1483C69.9163 91.978 69.7982 91.9089 69.6551 91.9412C69.5706 91.9602 69.4879 92.0028 69.4071 92.0688C69.3263 92.1349 69.2316 92.2451 69.1229 92.3994C69.0112 92.5408 68.9128 92.6347 68.8276 92.6812C68.7475 92.7198 68.6607 92.7291 68.5674 92.7092Z" fill="white"/>
<path d="M81.5831 88.8628L81.0287 88.8135C80.8724 88.7872 80.7475 88.7334 80.654 88.6519C80.5655 88.5625 80.5073 88.4561 80.4795 88.3325C80.4384 88.1504 80.4817 87.9937 80.6093 87.8624C80.7354 87.7247 80.9253 87.6272 81.1789 87.57L81.7447 87.4425C81.9724 87.3912 82.163 87.2969 82.3166 87.1598C82.4767 87.0212 82.6273 86.8403 82.7683 86.6172L83.8193 84.8221C83.9236 84.6483 84.0349 84.5207 84.1533 84.4393C84.2767 84.35 84.4164 84.2877 84.5725 84.2525C84.7676 84.2086 84.9216 84.2251 85.0347 84.3021C85.1477 84.3791 85.2218 84.4957 85.257 84.6518C85.279 84.7493 85.2961 84.8856 85.3082 85.0605C85.3203 85.2355 85.318 85.4376 85.3013 85.6669L84.908 92.5622C84.8757 93.1162 84.9278 93.4837 85.0643 93.6648C85.2008 93.8459 85.4316 93.8998 85.7568 93.8265C85.9779 93.7766 86.1768 93.6737 86.3535 93.5177C86.5367 93.3602 86.7175 93.1315 86.8959 92.8316C86.9801 92.6896 87.0561 92.5871 87.1239 92.524C87.1916 92.4608 87.2678 92.4198 87.3523 92.4007C87.4629 92.3758 87.5595 92.395 87.6421 92.4584C87.7313 92.5203 87.7822 92.625 87.7949 92.7725C87.8233 93.0804 87.7564 93.4201 87.5941 93.7916C87.4369 94.1551 87.1947 94.5206 86.8675 94.8882C86.5454 95.2479 86.1497 95.5694 85.6806 95.8528C85.2114 96.1363 84.6777 96.3454 84.0793 96.4803C83.494 96.6123 83.0189 96.5963 82.654 96.4326C82.2876 96.2623 82.0306 95.941 81.8831 95.4685C81.7341 94.9895 81.6874 94.3577 81.7428 93.573L81.9987 89.9787C82.0278 89.5621 82.0117 89.2787 81.9505 89.1285C81.8879 88.9718 81.7654 88.8832 81.5831 88.8628ZM84.4946 88.227L84.614 86.8469L87.004 86.3082C87.3162 86.2378 87.5053 86.3489 87.5712 86.6416C87.6299 86.9017 87.5695 87.134 87.3901 87.3385C87.2157 87.535 86.9496 87.6735 86.5919 87.7542L84.4946 88.227Z" fill="white"/>
<path d="M92.5158 88.51L92.2934 88.4781C92.5505 87.4361 92.9069 86.5767 93.3626 85.8999C93.8182 85.2231 94.3156 84.701 94.8546 84.3334C95.4002 83.9644 95.9266 83.7228 96.4338 83.6084C97.0322 83.4735 97.5005 83.5047 97.8388 83.7018C98.1835 83.8974 98.4145 84.2246 98.5316 84.6834C98.6487 85.1422 98.6688 85.7015 98.592 86.3612L98.2041 89.688C98.1471 90.1928 98.1618 90.5312 98.2484 90.703C98.335 90.8749 98.453 90.9439 98.6026 90.9102C98.6872 90.8912 98.7666 90.8493 98.8409 90.7848C98.9217 90.7187 99.0171 90.6118 99.1273 90.4639C99.236 90.3096 99.3305 90.2131 99.4106 90.1745C99.4958 90.128 99.5858 90.118 99.6806 90.1444C99.8029 90.1715 99.8842 90.2591 99.9244 90.4073C99.9646 90.5554 99.9486 90.7572 99.8763 91.0126C99.7133 91.6234 99.3798 92.1599 98.8758 92.6221C98.3782 93.0828 97.749 93.3989 96.9881 93.5704C96.4223 93.6979 95.9771 93.6787 95.6527 93.5126C95.3282 93.3466 95.1126 93.0569 95.0058 92.6436C94.8989 92.2303 94.8808 91.7253 94.9512 91.1285L95.3326 87.7725C95.3938 87.2257 95.376 86.8436 95.2792 86.6262C95.1889 86.4074 94.9974 86.3309 94.7047 86.3969C94.5031 86.4424 94.2974 86.5605 94.0875 86.7513C93.8827 86.9342 93.6853 87.1803 93.4954 87.4896C93.3054 87.7989 93.1417 88.1639 93.0041 88.5844C92.8666 89.005 92.7603 89.4731 92.6852 89.9889C92.645 90.326 92.6112 90.6309 92.5838 90.9036C92.5615 91.1684 92.5488 91.4001 92.5458 91.599C92.5479 91.7899 92.5643 91.9536 92.5951 92.0902C92.639 92.2853 92.7119 92.4568 92.8136 92.6048C92.9138 92.7462 92.9881 92.9242 93.0364 93.1388C93.1215 93.516 92.953 93.8752 92.531 94.2163C92.1076 94.551 91.4764 94.8129 90.6374 95.002C90.2472 95.0899 89.942 95.0699 89.7218 94.9418C89.5081 94.8123 89.3621 94.589 89.2837 94.2718C89.2119 93.9531 89.1872 93.5555 89.2096 93.0789L89.7388 83.785C89.7683 83.2795 89.7438 82.9433 89.6652 82.7765C89.5851 82.6032 89.4736 82.5327 89.3305 82.5649C89.2459 82.584 89.1633 82.6265 89.0825 82.6926C89.0017 82.7586 88.9095 82.8649 88.8058 83.0112C88.6891 83.1606 88.5882 83.2585 88.503 83.305C88.4228 83.3436 88.3361 83.3529 88.2427 83.3329C88.127 83.3044 88.049 83.216 88.0087 83.0679C87.9685 82.9198 87.9813 82.7187 88.047 82.4647C88.16 82.0565 88.3451 81.68 88.6022 81.335C88.8593 80.99 89.1823 80.6951 89.5713 80.4502C89.9604 80.2053 90.402 80.0272 90.8963 79.9158C91.7157 79.731 92.2689 79.866 92.5559 80.3207C92.848 80.7674 92.9639 81.4486 92.9038 82.3642L92.5158 88.51Z" fill="white"/>
<path d="M105.14 79.606L104.466 88.2148C104.423 88.7508 104.445 89.1047 104.531 89.2765C104.618 89.4483 104.742 89.5159 104.905 89.4793C105.022 89.4529 105.133 89.3972 105.236 89.3123C105.345 89.2194 105.453 89.0893 105.558 88.9219C105.664 88.7821 105.756 88.6928 105.836 88.6543C105.915 88.6092 106.001 88.5966 106.094 88.6166C106.21 88.6452 106.291 88.7328 106.338 88.8794C106.383 89.0196 106.373 89.2166 106.307 89.4707C106.215 89.8809 106.033 90.2673 105.759 90.6297C105.485 90.9921 105.136 91.3066 104.711 91.5732C104.292 91.8385 103.813 92.0319 103.273 92.1536C102.701 92.2826 102.253 92.2673 101.93 92.1078C101.612 91.9403 101.4 91.6499 101.293 91.2366C101.186 90.8233 101.157 90.3002 101.206 89.6673L101.877 81.0488C101.92 80.5403 101.898 80.2034 101.813 80.0381C101.733 79.8648 101.618 79.795 101.469 79.8287C101.391 79.8463 101.311 79.8881 101.23 79.9542C101.15 80.0202 101.054 80.1272 100.944 80.275C100.834 80.4229 100.736 80.5201 100.651 80.5666C100.564 80.6066 100.474 80.6167 100.381 80.5967C100.265 80.5681 100.187 80.4798 100.147 80.3317C100.107 80.1836 100.123 79.9818 100.195 79.7263C100.302 79.3196 100.487 78.943 100.75 78.5965C101.014 78.2501 101.34 77.9544 101.729 77.7096C102.125 77.4632 102.576 77.2829 103.083 77.1685C103.649 77.041 104.09 77.0577 104.407 77.2187C104.723 77.3797 104.935 77.6669 105.042 78.0802C105.155 78.492 105.188 79.0006 105.14 79.606Z" fill="white"/>
<path d="M113.262 83.29C113.384 82.0734 113.622 81.1416 113.975 80.4948C114.333 79.8401 114.811 79.4452 115.41 79.3104C115.826 79.2165 116.185 79.2791 116.487 79.498C116.794 79.7089 116.999 80.0387 117.1 80.4875C117.223 81.0338 117.17 81.5242 116.939 81.9588C116.709 82.3933 116.362 82.7928 115.897 83.1572C115.656 83.3279 115.44 83.5064 115.249 83.6929C115.066 83.8778 114.902 84.0924 114.759 84.3365C114.614 84.5741 114.49 84.8583 114.387 85.1891C114.291 85.5184 114.212 85.912 114.151 86.3699L113.724 89.521C113.578 90.784 113.304 91.8297 112.903 92.6582C112.509 93.4852 111.993 94.1347 111.354 94.6066C110.722 95.0771 109.974 95.4099 109.109 95.6048C108.231 95.8028 107.522 95.7677 106.983 95.4996C106.445 95.2315 106.106 94.7918 105.968 94.1805C105.873 93.7578 105.924 93.3603 106.12 92.988C106.318 92.6222 106.621 92.3932 107.031 92.3008C107.337 92.2319 107.601 92.251 107.823 92.358C108.04 92.4731 108.235 92.624 108.407 92.8107C108.587 93.0025 108.757 93.1965 108.917 93.3927C109.086 93.594 109.262 93.7525 109.445 93.8684C109.628 93.9842 109.837 94.0158 110.071 93.963C110.247 93.9234 110.4 93.8477 110.532 93.736C110.671 93.6227 110.777 93.4724 110.851 93.2849C110.926 93.1039 110.966 92.8865 110.971 92.6326C110.983 92.3838 110.952 92.0969 110.879 91.7717C110.825 91.5036 110.742 91.1774 110.628 90.793C110.522 90.4137 110.394 89.9983 110.244 89.5468C110.093 89.0888 109.932 88.6161 109.76 88.1285C109.596 87.6394 109.424 87.1519 109.246 86.6658C109.075 86.1782 108.902 85.7148 108.728 85.2757C108.559 84.8286 108.403 84.4263 108.261 84.0688C108.159 83.798 108.048 83.6078 107.927 83.4982C107.813 83.3872 107.698 83.3449 107.581 83.3713C107.503 83.3889 107.427 83.4332 107.355 83.5043C107.282 83.5754 107.204 83.6989 107.12 83.8749C107.061 83.977 107 84.0524 106.936 84.1011C106.87 84.1432 106.793 84.1673 106.706 84.1734C106.617 84.1729 106.531 84.124 106.447 84.0266C106.364 83.9293 106.332 83.7587 106.352 83.515C106.383 83.1049 106.507 82.7147 106.724 82.3446C106.947 81.9664 107.242 81.6401 107.611 81.3657C107.986 81.0898 108.417 80.8968 108.905 80.7869C109.393 80.6769 109.829 80.7461 110.213 80.9944C110.597 81.2427 110.895 81.6847 111.106 82.3204C111.209 82.6252 111.329 83.0048 111.465 83.4593C111.602 83.9137 111.745 84.4111 111.894 84.9515C112.05 85.4905 112.202 86.0439 112.35 86.6118C112.504 87.1718 112.648 87.7202 112.783 88.257C112.916 88.7874 113.035 89.2697 113.14 89.7039L112.696 89.6912L113.262 83.29Z" fill="white"/>
<path d="M46.8847 115.741C46.9094 116.487 46.7962 117.182 46.5451 117.827C46.3004 118.47 45.9417 119.046 45.4689 119.556C44.9961 120.066 44.4345 120.5 43.7841 120.858C43.1322 121.21 42.416 121.474 41.6356 121.65C40.9658 121.801 40.398 121.874 39.9323 121.87C39.4731 121.864 38.9884 121.806 38.4783 121.695L38.6647 120.567C39.0158 120.7 39.3617 120.779 39.7024 120.804C40.0481 120.822 40.403 120.79 40.7672 120.708C41.3395 120.579 41.8265 120.329 42.2281 119.958C42.6283 119.581 42.9269 119.087 43.1239 118.475C43.3194 117.857 43.3913 117.13 43.3396 116.294C43.3023 115.462 43.163 114.813 42.9215 114.348C42.6865 113.882 42.3872 113.57 42.0238 113.413C41.6588 113.249 41.265 113.215 40.8423 113.31C40.4846 113.391 40.2229 113.549 40.0573 113.785C39.8982 114.019 39.8031 114.354 39.7719 114.792C39.77 114.874 39.7634 115.088 39.7521 115.432C39.7459 115.768 39.7368 116.197 39.7246 116.72C39.711 117.235 39.6954 117.802 39.6777 118.422C39.6586 119.034 39.6392 119.66 39.6195 120.3C39.6062 120.939 39.5896 121.547 39.5697 122.126C39.5563 122.703 39.5419 123.215 39.5267 123.663C39.5099 124.104 39.499 124.435 39.4939 124.655C39.4781 124.918 39.5021 125.1 39.5661 125.202C39.6351 125.296 39.735 125.345 39.8659 125.35L40.7161 125.302C40.873 125.3 40.9943 125.338 41.0798 125.414C41.1639 125.484 41.2199 125.581 41.2477 125.705C41.2888 125.887 41.2542 126.052 41.144 126.199C41.0404 126.346 40.8649 126.447 40.6178 126.503L35.389 127.681C35.1289 127.74 34.9423 127.731 34.8293 127.654C34.7213 127.569 34.6497 127.448 34.6145 127.292C34.5793 127.136 34.6027 126.997 34.6848 126.876C34.7654 126.749 34.8714 126.643 35.0027 126.559L35.4348 126.338C35.5937 126.255 35.7011 126.155 35.7571 126.04C35.8132 125.925 35.8525 125.766 35.875 125.563C35.8881 125.348 35.9055 125.016 35.9273 124.567C35.9541 124.11 35.9785 123.581 36.0005 122.982C36.0276 122.374 36.0521 121.74 36.0739 121.079C36.1008 120.41 36.1259 119.748 36.1492 119.094C36.1711 118.433 36.1869 117.821 36.1968 117.259C36.2131 116.694 36.2251 116.217 36.2325 115.826C36.24 115.434 36.2429 115.174 36.241 115.045C36.2354 114.868 36.1978 114.747 36.1282 114.68C36.0571 114.608 35.9586 114.565 35.8328 114.552L35.324 114.524C35.1742 114.496 35.058 114.45 34.9754 114.387C34.8928 114.323 34.8375 114.23 34.8097 114.106C34.7671 113.918 34.7985 113.754 34.9036 113.614C35.0088 113.474 35.1881 113.375 35.4418 113.318L41.1778 112.025C41.9843 111.843 42.7278 111.792 43.4085 111.871C44.0957 111.948 44.6951 112.151 45.2066 112.48C45.7166 112.803 46.1157 113.239 46.4037 113.789C46.6982 114.338 46.8586 114.988 46.8847 115.741Z" fill="white"/>
<path d="M47.8501 117.881C47.7343 117.853 47.6563 117.764 47.616 117.616C47.5758 117.468 47.5893 117.27 47.6565 117.023C47.7681 116.608 47.9556 116.227 48.2192 115.881C48.4828 115.535 48.8092 115.239 49.1982 114.994C49.5937 114.748 50.0353 114.57 50.5231 114.46C50.9653 114.36 51.319 114.383 51.5841 114.528C51.8492 114.673 52.0235 114.931 52.1071 115.302C52.1642 115.556 52.18 115.853 52.1543 116.193C52.1271 116.527 52.0833 116.879 52.023 117.248C51.9691 117.616 51.9243 117.978 51.8885 118.334C51.8513 118.684 51.8537 118.998 51.8957 119.276L51.6994 119.269C51.7385 118.351 51.855 117.549 52.0489 116.863C52.2413 116.17 52.4861 115.589 52.7833 115.119C53.0805 114.648 53.4077 114.281 53.7648 114.016C54.1205 113.744 54.4804 113.568 54.8446 113.485C55.4299 113.353 55.9157 113.432 56.302 113.721C56.6948 114.008 56.9467 114.443 57.0577 115.026C57.1511 115.532 57.1373 115.986 57.0163 116.389C56.9003 116.784 56.7108 117.11 56.4477 117.368C56.1845 117.625 55.8773 117.794 55.5261 117.873C55.1359 117.961 54.834 117.94 54.6203 117.811C54.4116 117.673 54.2831 117.497 54.2347 117.282C54.1966 117.113 54.1859 116.945 54.2028 116.777C54.2261 116.608 54.2195 116.442 54.1828 116.279C54.1506 116.136 54.0899 116.034 54.0007 115.972C53.9116 115.91 53.8053 115.893 53.6817 115.921C53.4866 115.965 53.2994 116.12 53.1202 116.386C52.9395 116.645 52.7791 117.04 52.639 117.57C52.4974 118.094 52.382 118.78 52.2927 119.627C52.2392 120.117 52.2122 120.513 52.2117 120.814C52.2097 121.108 52.2344 121.369 52.2857 121.597C52.3341 121.811 52.4155 121.96 52.53 122.044C52.6431 122.121 52.7561 122.198 52.8691 122.275C52.9822 122.352 53.0622 122.495 53.1091 122.703C53.1604 122.93 53.0927 123.161 52.9062 123.394C52.7261 123.626 52.4267 123.844 52.0079 124.048C51.5891 124.252 51.0448 124.429 50.3749 124.58C49.9327 124.68 49.5877 124.665 49.34 124.536C49.0909 124.401 48.9249 124.165 48.8422 123.829C48.7645 123.484 48.7599 123.054 48.8285 122.54L49.3363 118.335C49.3999 117.829 49.3851 117.491 49.292 117.32C49.2054 117.148 49.0874 117.079 48.9378 117.113C48.8532 117.132 48.7706 117.175 48.6898 117.241C48.609 117.307 48.5175 117.416 48.4153 117.569C48.2971 117.712 48.1955 117.807 48.1103 117.853C48.0301 117.892 47.9434 117.901 47.8501 117.881Z" fill="white"/>
<path d="M59.6256 117.933C59.6256 117.933 59.7281 117.872 59.9331 117.751C60.1446 117.628 60.4175 117.474 60.7517 117.29C61.091 117.097 61.4541 116.889 61.841 116.665C62.2344 116.439 62.6162 116.223 62.9866 116.017C63.3554 115.804 63.6752 115.616 63.9458 115.452L63.7021 115.917C63.7159 115.675 63.7078 115.396 63.6779 115.082C63.653 114.76 63.5999 114.403 63.5184 114.011C63.4349 113.64 63.3039 113.362 63.1254 113.177C62.9455 112.985 62.7352 112.916 62.4946 112.971C62.2735 113.02 62.0722 113.158 61.8906 113.383C61.7076 113.602 61.5552 113.896 61.4334 114.266C61.3167 114.627 61.2406 115.047 61.2051 115.527C61.1683 116 61.1854 116.515 61.2565 117.073C61.3896 118.027 61.6729 118.708 62.1066 119.116C62.5388 119.518 63.0898 119.643 63.7597 119.492C64.1174 119.411 64.4384 119.274 64.7227 119.08C65.0055 118.88 65.2514 118.636 65.4602 118.35C65.6755 118.062 65.8495 117.743 65.9822 117.392C66.1059 117.152 66.2149 116.984 66.3093 116.888C66.4023 116.785 66.5178 116.721 66.6559 116.697C66.8134 116.668 66.9531 116.712 67.0749 116.828C67.2033 116.942 67.2629 117.161 67.2537 117.484C67.2453 118.054 67.0808 118.627 66.76 119.205C66.4443 119.775 65.9625 120.29 65.3146 120.751C64.6717 121.203 63.8429 121.544 62.8284 121.773C61.8659 121.99 61.0456 122.004 60.3674 121.815C59.6958 121.625 59.1697 121.261 58.7892 120.725C58.4086 120.189 58.1585 119.504 58.0388 118.67C57.933 117.867 57.9697 117.09 58.1489 116.339C58.3266 115.581 58.6275 114.884 59.0515 114.249C59.4819 113.612 60.0161 113.071 60.654 112.627C61.2969 112.174 62.0281 111.856 62.8475 111.671C63.4978 111.525 64.0568 111.518 64.5243 111.652C64.9904 111.779 65.3732 112.007 65.6729 112.336C65.979 112.663 66.2156 113.061 66.3826 113.529C66.4315 113.655 66.4904 113.765 66.5593 113.858C66.6334 113.944 66.7188 113.99 66.8157 113.995C66.9127 114.001 66.9937 114.027 67.0589 114.074C67.1227 114.114 67.1663 114.186 67.1898 114.29C67.222 114.433 67.1968 114.579 67.1141 114.728C67.0299 114.87 66.8453 115.021 66.5601 115.181C66.2851 115.325 65.9321 115.517 65.5011 115.758C65.0752 115.99 64.6132 116.245 64.1151 116.521C63.617 116.797 63.1221 117.073 62.6305 117.348C62.1389 117.623 61.6859 117.872 61.2715 118.095C60.8637 118.317 60.5352 118.497 60.2861 118.635C60.0436 118.772 59.9223 118.84 59.9223 118.84L59.6256 117.933Z" fill="white"/>
<path d="M74.8057 116.684L75.2527 112.801C75.3154 112.26 75.2984 111.882 75.2015 111.664C75.1097 111.439 74.9272 111.357 74.6541 111.419C74.3875 111.479 74.1147 111.663 73.8358 111.972C73.5634 112.28 73.3217 112.693 73.1107 113.212C72.9047 113.723 72.7525 114.321 72.6541 115.006C72.6082 115.379 72.5709 115.698 72.542 115.964C72.5132 116.231 72.4958 116.457 72.4899 116.642C72.489 116.82 72.5032 116.974 72.5325 117.104C72.5779 117.306 72.6508 117.477 72.751 117.619C72.8577 117.759 72.9353 117.936 72.9836 118.151C73.0701 118.534 72.9024 118.897 72.4804 119.238C72.0635 119.571 71.4355 119.832 70.5966 120.021C69.9918 120.158 69.5796 120.042 69.3601 119.675C69.1406 119.308 69.0828 118.733 69.1867 117.951L69.7336 113.737C69.8036 113.23 69.7921 112.891 69.699 112.72C69.6059 112.55 69.4879 112.481 69.3448 112.513C69.2602 112.532 69.1776 112.575 69.0968 112.641C69.016 112.707 68.9212 112.817 68.8125 112.971C68.7009 113.113 68.6025 113.207 68.5173 113.253C68.4371 113.292 68.3504 113.301 68.257 113.281C68.1348 113.254 68.0535 113.166 68.0133 113.018C67.9796 112.869 67.9963 112.67 68.0635 112.423C68.2251 111.805 68.5611 111.265 69.0717 110.801C69.5887 110.336 70.2309 110.017 70.9983 109.844C71.4796 109.736 71.8723 109.75 72.1764 109.886C72.4805 110.022 72.6744 110.276 72.7579 110.647C72.8078 110.868 72.8122 111.13 72.7712 111.433C72.7352 111.728 72.6823 112.054 72.6126 112.412C72.5413 112.763 72.4727 113.14 72.4067 113.545C72.3392 113.943 72.3054 114.354 72.3052 114.777L72.0271 114.635C72.2227 113.32 72.5582 112.246 73.0336 111.415C73.5076 110.577 74.0433 109.937 74.6406 109.494C75.2366 109.046 75.8174 108.758 76.3832 108.63C76.962 108.5 77.418 108.506 77.751 108.65C78.0891 108.785 78.3004 109.056 78.3848 109.46C78.4346 109.681 78.4408 109.936 78.4034 110.225C78.3724 110.512 78.3214 110.831 78.2501 111.182C78.1839 111.525 78.1196 111.891 78.0571 112.281C78.0012 112.67 77.9731 113.076 77.973 113.5L77.6266 113.373C77.7805 112.388 78.0097 111.54 78.3141 110.829C78.625 110.117 78.9826 109.52 79.3868 109.04C79.791 108.559 80.2161 108.186 80.6622 107.922C81.1133 107.649 81.5502 107.465 81.973 107.37C82.5583 107.238 83.0201 107.271 83.3584 107.468C83.6967 107.665 83.9244 107.993 84.0415 108.452C84.165 108.909 84.1852 109.468 84.1019 110.129L83.7237 113.454C83.6652 113.952 83.6832 114.29 83.7778 114.467C83.8708 114.637 83.9889 114.706 84.132 114.674C84.223 114.654 84.3057 114.611 84.38 114.546C84.4608 114.48 84.553 114.374 84.6567 114.228C84.7784 114.07 84.8794 113.973 84.9595 113.934C85.0447 113.887 85.1314 113.878 85.2197 113.906C85.342 113.933 85.42 114.022 85.4538 114.171C85.494 114.319 85.478 114.521 85.4057 114.777C85.2557 115.384 84.9287 115.919 84.4246 116.382C83.9271 116.842 83.2914 117.16 82.5175 117.334C81.9582 117.46 81.5163 117.44 81.1918 117.274C80.8739 117.107 80.6582 116.817 80.5449 116.405C80.4316 115.993 80.4101 115.489 80.4806 114.892L80.862 111.536C80.9377 110.993 80.9239 110.614 80.8205 110.398C80.7157 110.175 80.53 110.094 80.2634 110.154C79.9967 110.214 79.7272 110.398 79.4548 110.705C79.1824 111.013 78.9407 111.426 78.7297 111.945C78.5237 112.456 78.3748 113.054 78.2828 113.737C78.2305 114.111 78.1899 114.432 78.161 114.698C78.1322 114.964 78.1181 115.189 78.1186 115.374C78.1177 115.551 78.1319 115.705 78.1612 115.836C78.2067 116.037 78.2795 116.209 78.3797 116.35C78.48 116.491 78.5543 116.67 78.6026 116.884C78.6891 117.268 78.5247 117.63 78.1092 117.969C77.6922 118.302 77.0643 118.564 76.2253 118.753C75.8156 118.845 75.4967 118.825 75.2685 118.692C75.0388 118.552 74.8892 118.312 74.8194 117.973C74.7497 117.633 74.7451 117.204 74.8057 116.684Z" fill="white"/>
<path d="M90.3255 111.966C90.2685 112.471 90.2833 112.809 90.3699 112.981C90.4564 113.153 90.5713 113.223 90.7143 113.19C90.7989 113.171 90.8783 113.129 90.9526 113.065C91.0319 112.992 91.1266 112.882 91.2368 112.734C91.347 112.586 91.4422 112.493 91.5223 112.455C91.6075 112.408 91.7008 112.397 91.8021 112.422C91.9179 112.451 91.9959 112.539 92.0361 112.687C92.0763 112.835 92.0603 113.037 91.988 113.293C91.8301 113.896 91.4998 114.431 90.9972 114.9C90.4997 115.361 89.8672 115.677 89.0998 115.85C88.534 115.978 88.0889 115.959 87.7644 115.793C87.4385 115.62 87.2253 115.326 87.125 114.912C87.0247 114.497 87.0116 113.984 87.0856 113.373L87.5539 109.72C87.6174 109.214 87.6027 108.876 87.5096 108.705C87.423 108.533 87.3082 108.464 87.1651 108.496C87.0806 108.515 86.9979 108.557 86.9171 108.624C86.8363 108.69 86.7448 108.799 86.6426 108.952C86.5245 109.095 86.4228 109.189 86.3376 109.236C86.2575 109.275 86.1707 109.284 86.0774 109.264C85.9616 109.235 85.8836 109.147 85.8434 108.999C85.8032 108.851 85.8167 108.653 85.8839 108.405C86.0469 107.795 86.3739 107.26 86.8649 106.8C87.361 106.333 87.9797 106.016 88.7211 105.849C89.2349 105.733 89.6533 105.755 89.9763 105.914C90.2993 106.074 90.5261 106.368 90.6569 106.796C90.7927 107.217 90.8204 107.764 90.74 108.438L90.3255 111.966ZM89.0867 104.424C88.4883 104.558 87.9976 104.519 87.6144 104.304C87.2377 104.089 87.0097 103.774 86.9304 103.362C86.8592 103.016 86.8939 102.67 87.0346 102.323C87.1818 101.976 87.4234 101.669 87.7596 101.401C88.0943 101.128 88.5185 100.933 89.0323 100.817C89.6631 100.675 90.1553 100.721 90.5089 100.956C90.8675 101.183 91.0858 101.499 91.1637 101.905C91.2408 102.277 91.2057 102.637 91.0585 102.985C90.9099 103.326 90.6693 103.623 90.3367 103.875C90.0041 104.128 89.5874 104.311 89.0867 104.424Z" fill="white"/>
<path d="M103.995 109.664C104.118 109.697 104.197 109.789 104.231 109.938C104.27 110.08 104.256 110.278 104.19 110.532C104.027 111.143 103.688 111.684 103.172 112.155C102.662 112.619 102.023 112.937 101.256 113.11C100.774 113.219 100.382 113.205 100.077 113.068C99.7734 112.932 99.5788 112.675 99.4938 112.298C99.4439 112.077 99.437 111.819 99.473 111.523C99.514 111.22 99.5701 110.893 99.6413 110.542C99.7111 110.185 99.7797 109.807 99.8472 109.409C99.9147 109.011 99.9485 108.601 99.9487 108.177L100.225 108.309C100.077 109.293 99.8455 110.144 99.5295 110.865C99.2186 111.577 98.8578 112.175 98.4471 112.657C98.0429 113.137 97.6145 113.511 97.1619 113.777C96.7108 114.049 96.2739 114.233 95.8512 114.329C95.2528 114.463 94.7813 114.433 94.4365 114.237C94.0982 114.04 93.8705 113.712 93.7534 113.254C93.6348 112.788 93.614 112.226 93.6908 111.566L94.0787 108.239C94.1357 107.734 94.121 107.396 94.0344 107.224C93.9478 107.052 93.8298 106.983 93.6802 107.017C93.6021 107.035 93.5227 107.076 93.4419 107.142C93.3611 107.208 93.2664 107.319 93.1577 107.473C93.046 107.614 92.9476 107.708 92.8624 107.755C92.7823 107.793 92.6955 107.803 92.6022 107.783C92.4799 107.756 92.3994 107.671 92.3606 107.53C92.3269 107.38 92.3429 107.178 92.4087 106.924C92.5717 106.314 92.9019 105.778 93.3995 105.317C93.9035 104.855 94.536 104.538 95.2969 104.367C95.8692 104.238 96.3143 104.257 96.6323 104.424C96.9553 104.584 97.1702 104.87 97.277 105.284C97.3889 105.689 97.4078 106.197 97.3337 106.808L96.9502 110.155C96.876 110.704 96.888 111.091 96.9863 111.315C97.0896 111.531 97.2876 111.606 97.5803 111.54C97.7819 111.495 97.9844 111.377 98.1877 111.188C98.3975 110.997 98.5974 110.747 98.7874 110.438C98.9774 110.128 99.1411 109.763 99.2787 109.343C99.4162 108.922 99.5225 108.454 99.5976 107.938C99.65 107.564 99.6873 107.245 99.7097 106.98C99.7385 106.714 99.7526 106.489 99.7521 106.304C99.758 106.118 99.7471 105.964 99.7192 105.84C99.6752 105.645 99.5999 105.478 99.4932 105.338C99.3915 105.19 99.3172 105.012 99.2703 104.803C99.1838 104.42 99.349 104.061 99.7659 103.728C100.188 103.387 100.818 103.122 101.657 102.933C102.262 102.796 102.674 102.912 102.894 103.279C103.112 103.64 103.169 104.212 103.065 104.994L102.52 109.217C102.454 109.71 102.465 110.046 102.553 110.224C102.647 110.401 102.766 110.474 102.909 110.441C102.994 110.422 103.076 110.38 103.157 110.314C103.236 110.241 103.331 110.131 103.441 109.983C103.552 109.835 103.646 109.739 103.725 109.694C103.81 109.647 103.9 109.637 103.995 109.664Z" fill="white"/>
<path d="M111.546 108.402L111.993 104.519C112.055 103.979 112.038 103.6 111.941 103.382C111.85 103.157 111.667 103.075 111.394 103.137C111.127 103.197 110.854 103.381 110.576 103.69C110.303 103.998 110.062 104.411 109.85 104.93C109.645 105.441 109.492 106.039 109.394 106.724C109.348 107.097 109.311 107.416 109.282 107.682C109.253 107.949 109.236 108.175 109.23 108.36C109.229 108.538 109.243 108.692 109.272 108.822C109.318 109.024 109.391 109.196 109.491 109.337C109.598 109.477 109.675 109.654 109.723 109.869C109.81 110.252 109.642 110.615 109.22 110.956C108.803 111.289 108.175 111.55 107.336 111.74C106.732 111.876 106.319 111.76 106.1 111.393C105.88 111.026 105.823 110.451 105.927 109.669L106.473 105.455C106.543 104.948 106.532 104.609 106.439 104.438C106.346 104.268 106.228 104.199 106.085 104.231C106 104.25 105.917 104.293 105.837 104.359C105.756 104.425 105.661 104.535 105.552 104.689C105.441 104.831 105.342 104.925 105.257 104.971C105.177 105.01 105.09 105.019 104.997 104.999C104.875 104.972 104.793 104.884 104.753 104.736C104.719 104.587 104.736 104.388 104.803 104.141C104.965 103.523 105.301 102.983 105.811 102.519C106.329 102.054 106.971 101.735 107.738 101.562C108.219 101.454 108.612 101.468 108.916 101.604C109.22 101.74 109.414 101.994 109.498 102.365C109.548 102.586 109.552 102.848 109.511 103.151C109.475 103.446 109.422 103.772 109.352 104.13C109.281 104.481 109.212 104.859 109.146 105.263C109.079 105.661 109.045 106.072 109.045 106.495L108.767 106.353C108.962 105.038 109.298 103.964 109.773 103.133C110.247 102.295 110.783 101.655 111.38 101.213C111.976 100.764 112.557 100.476 113.123 100.348C113.702 100.218 114.158 100.224 114.491 100.368C114.829 100.503 115.04 100.774 115.125 101.178C115.174 101.399 115.181 101.654 115.143 101.943C115.112 102.23 115.061 102.549 114.99 102.9C114.924 103.243 114.859 103.609 114.797 103.999C114.741 104.388 114.713 104.794 114.713 105.218L114.366 105.091C114.52 104.106 114.749 103.258 115.054 102.547C115.365 101.835 115.722 101.238 116.127 100.758C116.531 100.277 116.956 99.9044 117.402 99.6398C117.853 99.3673 118.29 99.1834 118.713 99.0881C119.298 98.9562 119.76 98.9887 120.098 99.1858C120.436 99.3829 120.664 99.7109 120.781 100.17C120.905 100.627 120.925 101.186 120.842 101.847L120.464 105.172C120.405 105.67 120.423 106.008 120.518 106.185C120.611 106.355 120.729 106.424 120.872 106.392C120.963 106.372 121.046 106.329 121.12 106.264C121.201 106.198 121.293 106.092 121.397 105.946C121.518 105.789 121.619 105.691 121.699 105.652C121.785 105.605 121.871 105.596 121.96 105.624C122.082 105.651 122.16 105.74 122.194 105.889C122.234 106.037 122.218 106.239 122.146 106.495C121.996 107.102 121.668 107.637 121.164 108.1C120.667 108.56 120.031 108.878 119.257 109.052C118.698 109.178 118.256 109.158 117.932 108.992C117.614 108.825 117.398 108.535 117.285 108.123C117.171 107.711 117.15 107.207 117.22 106.61L117.602 103.254C117.677 102.711 117.664 102.332 117.56 102.116C117.456 101.893 117.27 101.812 117.003 101.872C116.737 101.932 116.467 102.116 116.195 102.424C115.922 102.731 115.681 103.144 115.469 103.663C115.264 104.174 115.115 104.772 115.023 105.455C114.97 105.829 114.93 106.15 114.901 106.416C114.872 106.682 114.858 106.907 114.858 107.092C114.858 107.269 114.872 107.423 114.901 107.554C114.947 107.755 115.019 107.927 115.12 108.068C115.22 108.21 115.294 108.388 115.342 108.602C115.429 108.986 115.264 109.348 114.849 109.687C114.432 110.02 113.804 110.282 112.965 110.471C112.555 110.563 112.236 110.543 112.008 110.41C111.779 110.27 111.629 110.03 111.559 109.691C111.49 109.351 111.485 108.922 111.546 108.402Z" fill="white"/>
<path d="M127.237 106.126C127.562 106.053 127.799 105.907 127.948 105.689C128.103 105.469 128.15 105.22 128.087 104.94C128.043 104.745 127.957 104.576 127.829 104.434C127.708 104.291 127.506 104.155 127.225 104.027C126.948 103.891 126.546 103.743 126.017 103.582C125.423 103.401 124.937 103.214 124.558 103.019C124.184 102.816 123.892 102.581 123.681 102.314C123.469 102.041 123.319 101.709 123.231 101.319C123.105 100.76 123.172 100.205 123.43 99.6546C123.689 99.1042 124.127 98.609 124.746 98.1689C125.371 97.7273 126.181 97.3944 127.176 97.1701C127.95 96.9957 128.612 96.9488 129.163 97.0296C129.713 97.1038 130.152 97.2782 130.481 97.5527C130.809 97.8272 131.021 98.1758 131.116 98.5985C131.214 99.0003 131.203 99.3308 131.083 99.59C130.969 99.8413 130.763 100.001 130.463 100.068C130.184 100.131 129.923 100.098 129.682 99.9674C129.439 99.8308 129.163 99.5583 128.852 99.1499C128.553 98.7936 128.254 98.5433 127.955 98.3988C127.654 98.2479 127.338 98.2098 127.007 98.2846C126.681 98.3579 126.444 98.5003 126.293 98.7119C126.143 98.9235 126.101 99.1789 126.169 99.4781C126.21 99.6602 126.293 99.8327 126.419 99.9958C126.549 100.151 126.759 100.309 127.048 100.469C127.343 100.628 127.755 100.802 128.283 100.99C128.947 101.209 129.469 101.43 129.847 101.652C130.23 101.867 130.513 102.107 130.696 102.373C130.884 102.632 131.02 102.946 131.104 103.317C131.233 103.889 131.158 104.436 130.879 104.956C130.6 105.477 130.147 105.941 129.522 106.349C128.901 106.749 128.132 107.052 127.215 107.258C126.344 107.455 125.607 107.508 125.006 107.418C124.411 107.327 123.944 107.135 123.605 106.842C123.271 106.542 123.057 106.183 122.963 105.767C122.894 105.4 122.916 105.091 123.031 104.839C123.145 104.588 123.348 104.429 123.641 104.363C123.973 104.289 124.273 104.33 124.541 104.489C124.809 104.647 125.088 104.916 125.378 105.294C125.72 105.689 126.037 105.945 126.331 106.064C126.622 106.176 126.924 106.196 127.237 106.126Z" fill="white"/>
</g>
<defs>
<clipPath id="clip0_1550_5954">
<rect width="149.342" height="157.202" fill="white" transform="translate(0.0986328 0.822754)"/>
</clipPath>
</defs>
</svg>
