<svg width="150" height="158" viewBox="0 0 150 158" fill="none" xmlns="http://www.w3.org/2000/svg">
<g clip-path="url(#clip0_1056_34534)">
<path d="M142.803 99.9115C153.372 90.4553 154.322 74.2143 144.927 63.6379C140.415 58.5583 138.104 51.8827 138.504 45.0803C139.333 30.9145 128.561 18.7874 114.445 17.9947C107.666 17.6144 101.324 14.547 96.8117 9.46743C87.416 -1.11112 71.2333 -2.01844 60.6646 7.4362C55.5895 11.9776 48.9297 14.3142 42.1504 13.9339C28.0325 13.1407 15.916 23.9813 15.0871 38.147C14.6893 44.95 11.6141 51.3232 6.53952 55.863C-4.02973 65.3193 -4.97866 81.5587 4.41536 92.1367C8.92766 97.2162 11.2381 103.892 10.8388 110.694C10.0098 124.86 20.7809 136.987 34.8972 137.78C41.6765 138.16 48.02 141.228 52.5307 146.307C61.9263 156.886 78.1091 157.793 88.6777 148.338C93.7529 143.797 100.413 141.46 107.191 141.842C121.308 142.635 133.424 131.794 134.253 117.629C134.651 110.826 137.726 104.452 142.801 99.9126" fill="#CEC1EA"/>
<path d="M27.8862 49.1151L33.6804 49.8444L33.5317 51.1863L27.6878 50.4508L27.8862 49.1151ZM28.7063 54.5299C28.683 54.7151 28.6014 54.856 28.4616 54.9526C28.3292 55.0435 28.1307 55.0723 27.8662 55.039L24.6912 54.6393C24.4333 54.6068 24.2448 54.5294 24.1258 54.4069C24.0143 54.2786 23.9702 54.1219 23.9935 53.9367C24.0102 53.8044 24.0574 53.6961 24.1352 53.6118C24.213 53.5275 24.3338 53.4487 24.4976 53.3752L24.7519 53.2762C24.9852 53.1846 25.1734 53.0504 25.3166 52.8736C25.4598 52.6968 25.6333 52.386 25.8371 51.9413L29.6199 43.669C29.7781 43.3193 29.8478 43.0593 29.8289 42.889C29.8167 42.7194 29.7015 42.5672 29.4833 42.4322C29.3089 42.3229 29.1887 42.2103 29.1226 42.0945C29.0632 41.9795 29.043 41.846 29.0622 41.6938C29.0863 41.502 29.1679 41.3611 29.3069 41.2711C29.4525 41.1819 29.6576 41.154 29.9222 41.1873L35.8951 41.9391C36.1596 41.9724 36.3481 42.0499 36.4605 42.1715C36.5728 42.2932 36.6169 42.4499 36.5928 42.6417C36.572 42.8071 36.5152 42.9377 36.4225 43.0335C36.3306 43.1228 36.2041 43.1942 36.0428 43.2478C35.8682 43.2997 35.7565 43.3865 35.7077 43.508C35.6596 43.6229 35.6611 43.8246 35.7121 44.1133L37.4851 53.5687C37.5591 53.9947 37.6403 54.3106 37.7286 54.5166C37.8235 54.7234 37.9615 54.8819 38.1425 54.992C38.3474 55.1253 38.4796 55.2494 38.5391 55.3644C38.606 55.4736 38.629 55.6109 38.6082 55.7763C38.5849 55.9615 38.5 56.102 38.3536 56.1978C38.2146 56.2878 38.0128 56.3162 37.7482 56.2828L32.7179 55.6497C32.4467 55.6155 32.2549 55.5376 32.1426 55.416C32.031 55.2877 31.9869 55.131 32.0103 54.9458C32.0294 54.7936 32.0845 54.6763 32.1755 54.5937C32.2732 54.5119 32.4059 54.4446 32.5738 54.3918L32.9783 54.3016C33.1594 54.2505 33.248 54.1609 33.2439 54.0327C33.2408 53.8979 33.2112 53.6792 33.1552 53.3765L31.3384 42.9882L31.7702 42.7604L27.5724 51.9279C27.4324 52.2395 27.3499 52.4946 27.3249 52.693C27.2999 52.8914 27.3382 53.0676 27.4398 53.2215C27.5488 53.3696 27.7306 53.5269 27.9852 53.6933L28.305 53.8746C28.4414 53.9657 28.5471 54.0597 28.6223 54.1565C28.6975 54.2533 28.7255 54.3778 28.7063 54.5299ZM46.1903 43.0133L44.6579 55.1872C44.6262 55.4386 44.6269 55.6201 44.6599 55.7317C44.6937 55.8368 44.7573 55.9187 44.8507 55.9775L45.1061 56.1104C45.2441 56.1883 45.3371 56.2772 45.3849 56.3773C45.4403 56.4716 45.46 56.5816 45.4442 56.7073C45.4234 56.8727 45.3505 56.9979 45.2256 57.083C45.1081 57.1622 44.927 57.1865 44.6822 57.1557L40.3067 56.6049C40.0686 56.5749 39.8992 56.5066 39.7984 56.3998C39.705 56.2873 39.6688 56.1483 39.6896 55.983C39.7054 55.8573 39.7485 55.7552 39.8189 55.6767C39.8967 55.5924 40.0121 55.5297 40.1651 55.4885L40.4355 55.4217C40.5472 55.3887 40.6291 55.3251 40.6813 55.2309C40.7409 55.1309 40.7865 54.9552 40.8182 54.7039L42.0908 44.5937C42.1158 44.3952 42.1068 44.253 42.0639 44.167C42.0218 44.0743 41.9466 44.0044 41.8383 43.9572L41.5481 43.8602C41.4209 43.8038 41.3324 43.7322 41.2829 43.6453C41.2334 43.5585 41.2161 43.4555 41.2311 43.3365C41.2494 43.1909 41.3032 43.0835 41.3926 43.0141C41.4828 42.9381 41.6424 42.8709 41.8715 42.8123L44.117 42.2685C44.4636 42.1845 44.7324 42.131 44.9234 42.108C45.1219 42.0792 45.2939 42.074 45.4394 42.0923C45.7238 42.1281 45.9259 42.2308 46.0457 42.4004C46.172 42.5709 46.2202 42.7752 46.1903 43.0133ZM53.0502 43.8768L51.5178 56.0507C51.4862 56.3021 51.4868 56.4836 51.5198 56.5952C51.5536 56.7003 51.6172 56.7822 51.7106 56.841L51.966 56.9739C52.104 57.0518 52.197 57.1407 52.2449 57.2408C52.3002 57.3351 52.3199 57.4451 52.3041 57.5708C52.2833 57.7362 52.2104 57.8614 52.0855 57.9464C51.968 58.0257 51.7869 58.05 51.5422 58.0192L47.1667 57.4684C46.9286 57.4384 46.7591 57.3701 46.6583 57.2633C46.565 57.1508 46.5287 57.0118 46.5495 56.8464C46.5653 56.7208 46.6084 56.6187 46.6788 56.5402C46.7566 56.4559 46.872 56.3932 47.025 56.352L47.2955 56.2852C47.4071 56.2522 47.489 56.1886 47.5412 56.0944C47.6008 55.9944 47.6465 55.8187 47.6781 55.5674L48.9507 45.4572C48.9757 45.2587 48.9667 45.1165 48.9238 45.0305C48.8817 44.9378 48.8065 44.8679 48.6982 44.8206L48.4081 44.7236C48.2808 44.6673 48.1924 44.5957 48.1428 44.5088C48.0933 44.422 48.076 44.319 48.091 44.1999C48.1093 44.0544 48.1632 43.947 48.2525 43.8776C48.3427 43.8016 48.5024 43.7343 48.7315 43.6758L50.977 43.132C51.3235 43.048 51.5923 42.9944 51.7833 42.9715C51.9818 42.9427 52.1538 42.9375 52.2993 42.9558C52.5838 42.9916 52.7858 43.0943 52.9056 43.2639C53.032 43.4344 53.0802 43.6386 53.0502 43.8768ZM60.2411 52.2907C60.8298 52.3648 60.9693 52.6982 60.6595 53.2908L60.2681 54.0781C60.1323 54.3566 59.9849 54.5397 59.8261 54.6272C59.6747 54.7089 59.4833 54.7352 59.2518 54.7061L54.41 54.0966C53.8213 54.0225 53.6814 53.6924 53.9903 53.1064L54.3817 52.3192C54.5184 52.034 54.6624 51.8505 54.8138 51.7688C54.9727 51.6813 55.1678 51.6521 55.3994 51.6813L60.2411 52.2907ZM67.1683 50.8848L66.2841 57.9094C66.2525 58.1607 66.2531 58.3423 66.2861 58.4539C66.3199 58.559 66.3835 58.6409 66.4769 58.6997L66.7224 58.8314C66.8604 58.9092 66.9534 58.9982 67.0012 59.0983C67.0566 59.1926 67.0763 59.3026 67.0605 59.4283C67.0397 59.5936 66.9668 59.7188 66.8419 59.8039C66.7244 59.8832 66.5466 59.9078 66.3084 59.8779L61.933 59.3271C61.6949 59.2971 61.5254 59.2288 61.4246 59.122C61.3313 59.0095 61.295 58.8705 61.3158 58.7051C61.3316 58.5795 61.3747 58.4774 61.4451 58.3989C61.5229 58.3146 61.635 58.2515 61.7814 58.2094L62.0617 58.1439C62.1734 58.1109 62.2553 58.0473 62.3075 57.9531C62.3671 57.8531 62.4128 57.6774 62.4444 57.4261L63.0688 52.4652C63.0938 52.2668 63.0853 52.1212 63.0432 52.0286C63.0011 51.936 62.9255 51.8693 62.8164 51.8287L62.5262 51.7317C62.3989 51.6754 62.3105 51.6038 62.2609 51.5169C62.2114 51.43 62.1941 51.3271 62.2091 51.208C62.2274 51.0625 62.2813 50.955 62.3706 50.8857C62.4608 50.8097 62.6205 50.7424 62.8496 50.6839L65.0951 50.1401C65.435 50.0552 65.7005 50.0013 65.8915 49.9783C66.09 49.9495 66.262 49.9443 66.4075 49.9626C66.6986 49.9992 66.904 50.1024 67.0237 50.272C67.1501 50.4424 67.1983 50.6467 67.1683 50.8848ZM65.2674 48.7709C64.5795 48.6843 64.0542 48.4535 63.6915 48.0787C63.3363 47.698 63.1937 47.2298 63.2636 46.6742C63.3335 46.1186 63.5869 45.707 64.0237 45.4395C64.468 45.1662 65.0341 45.0728 65.722 45.1594C66.4099 45.246 66.9319 45.4763 67.288 45.8504C67.6507 46.2253 67.7975 46.6872 67.7284 47.2362C67.6584 47.7918 67.4009 48.2096 66.9558 48.4895C66.5181 48.7637 65.9553 48.8575 65.2674 48.7709ZM73.9507 51.7386L73.0665 58.7631C73.0349 59.0145 73.036 59.1927 73.0698 59.2977C73.1036 59.4028 73.1668 59.488 73.2593 59.5534L73.4936 59.6938C73.6911 59.8328 73.7762 60.0115 73.7487 60.2298C73.7004 60.6134 73.4447 60.7761 72.9817 60.7178L68.7154 60.1808C68.4773 60.1509 68.3078 60.0825 68.207 59.9757C68.1137 59.8632 68.0774 59.7242 68.0982 59.5589C68.1141 59.4332 68.1571 59.3311 68.2275 59.2526C68.3053 59.1683 68.4174 59.1052 68.5638 59.0631L68.8442 58.9976C68.9558 58.9647 69.0377 58.9011 69.0899 58.8068C69.1495 58.7068 69.1952 58.5312 69.2268 58.2798L69.8513 53.319C69.8762 53.1205 69.8677 52.975 69.8256 52.8823C69.7835 52.7897 69.7079 52.7231 69.5988 52.6824L69.3086 52.5854C69.1813 52.5291 69.0929 52.4575 69.0434 52.3706C68.9938 52.2838 68.9765 52.1808 68.9915 52.0617C69.0099 51.9162 69.0637 51.8088 69.1531 51.7394C69.2433 51.6634 69.4029 51.5961 69.632 51.5376L71.8775 50.9938C72.2034 50.9139 72.4655 50.8595 72.664 50.8308C72.8625 50.802 73.051 50.7988 73.2296 50.8213C73.5008 50.8555 73.6963 50.9573 73.8161 51.127C73.9358 51.2966 73.9807 51.5004 73.9507 51.7386ZM73.3161 54.0575L72.8342 53.4021L73.1991 53.1457C74.2061 52.4057 75.0652 51.9057 75.7766 51.6459C76.4946 51.3868 77.138 51.2931 77.7068 51.3647C78.5799 51.4746 79.2448 51.8506 79.7016 52.4927C80.1657 53.129 80.3391 53.9134 80.2217 54.8461L79.6248 59.5886C79.594 59.8334 79.595 60.0116 79.628 60.1232C79.661 60.2349 79.7275 60.3205 79.8275 60.3802L80.073 60.5119C80.2044 60.5889 80.294 60.6774 80.3419 60.7775C80.3972 60.8718 80.417 60.9818 80.4011 61.1075C80.3803 61.2729 80.3108 61.3985 80.1924 61.4844C80.075 61.5637 79.8938 61.5879 79.6491 61.5571L75.3828 61.0201C74.9198 60.9618 74.7124 60.7408 74.7607 60.3572C74.7882 60.1389 74.9148 59.9869 75.1406 59.9011L75.4024 59.8232C75.5149 59.7836 75.5972 59.7167 75.6494 59.6224C75.709 59.5224 75.7543 59.3501 75.7851 59.1053L76.3133 54.9084C76.3716 54.4454 76.3058 54.0877 76.1158 53.8354C75.9333 53.5772 75.6502 53.424 75.2666 53.3757C75.0284 53.3457 74.7708 53.3637 74.4938 53.4296C74.2233 53.4964 73.9632 53.6148 73.7133 53.7849L73.3161 54.0575ZM88.3397 55.8276C88.9284 55.9017 89.0679 56.2351 88.7581 56.8277L88.3667 57.615C88.2309 57.8935 88.0835 58.0765 87.9247 58.1641C87.7733 58.2458 87.5818 58.2721 87.3503 58.2429L82.5085 57.6335C81.9199 57.5594 81.78 57.2293 82.0889 56.6433L82.4803 55.856C82.617 55.5709 82.761 55.3874 82.9124 55.3057C83.0713 55.2182 83.2664 55.189 83.4979 55.2181L88.3397 55.8276ZM98.4155 49.4258C99.5532 49.569 100.553 49.8763 101.414 50.3475C102.276 50.8121 102.983 51.4118 103.536 52.1466C104.095 52.8822 104.486 53.7243 104.709 54.673C104.933 55.6216 104.974 56.6515 104.835 57.7628C104.706 58.7814 104.418 59.7093 103.97 60.5466C103.529 61.3847 102.949 62.0945 102.231 62.676C101.52 63.2518 100.695 63.6686 99.755 63.9266C98.8162 64.178 97.7879 64.2334 96.6701 64.0927C95.539 63.9503 94.5424 63.6468 93.6804 63.1822C92.8192 62.7109 92.109 62.1075 91.5498 61.3719C90.9972 60.6371 90.606 59.795 90.3761 58.8456C90.1537 57.8903 90.1124 56.857 90.2523 55.7458C90.3805 54.7272 90.6682 53.8025 91.1155 52.9719C91.5635 52.1346 92.143 51.4281 92.8538 50.8524C93.572 50.2709 94.4005 49.8544 95.3393 49.603C96.2788 49.345 97.3042 49.286 98.4155 49.4258ZM100.195 59.7086C100.307 58.8223 100.339 57.9495 100.293 57.0903C100.253 56.232 100.15 55.4227 99.9837 54.6627C99.824 53.9035 99.6133 53.2285 99.3517 52.6379C99.0909 52.0407 98.7948 51.5633 98.4636 51.2058C98.1323 50.8483 97.7781 50.6458 97.4011 50.5983C96.9712 50.5442 96.587 50.6336 96.2486 50.8665C95.911 51.0928 95.6304 51.4539 95.4067 51.9498C95.1838 52.4392 95.0254 53.0575 94.9313 53.805C94.8197 54.6913 94.7834 55.567 94.8224 56.4319C94.8687 57.2911 94.9718 58.1003 95.1316 58.8596C95.298 59.6196 95.512 60.295 95.7736 60.8856C96.0352 61.4762 96.3312 61.9536 96.6617 62.3177C96.993 62.6752 97.3471 62.8777 97.7241 62.9252C98.1673 62.981 98.5544 62.8953 98.8853 62.6682C99.2171 62.4345 99.4944 62.0729 99.7173 61.5836C99.941 61.0877 100.1 60.4627 100.195 59.7086ZM111.157 56.4219L110.273 63.4465C110.241 63.6978 110.242 63.876 110.276 63.9811C110.31 64.0861 110.373 64.1713 110.466 64.2367L110.7 64.3771C110.898 64.5162 110.983 64.6949 110.955 64.9131C110.907 65.2968 110.651 65.4595 110.188 65.4012L105.922 64.8642C105.684 64.8342 105.514 64.7658 105.413 64.6591C105.32 64.5465 105.284 64.4076 105.305 64.2422C105.32 64.1165 105.364 64.0145 105.434 63.936C105.512 63.8517 105.624 63.7885 105.77 63.7465L106.051 63.681C106.162 63.648 106.244 63.5844 106.296 63.4902C106.356 63.3902 106.402 63.2145 106.433 62.9631L107.058 58.0023C107.083 57.8039 107.074 57.6583 107.032 57.5657C106.99 57.473 106.914 57.4064 106.805 57.3658L106.515 57.2688C106.388 57.2124 106.299 57.1408 106.25 57.054C106.2 56.9671 106.183 56.8641 106.198 56.7451C106.216 56.5996 106.27 56.4921 106.359 56.4227C106.45 56.3467 106.609 56.2795 106.838 56.221L109.084 55.6771C109.41 55.5972 109.672 55.5429 109.87 55.5141C110.069 55.4853 110.257 55.4822 110.436 55.5047C110.707 55.5388 110.903 55.6407 111.022 55.8103C111.142 55.9799 111.187 56.1838 111.157 56.4219ZM110.523 58.7408L110.041 58.0855L110.406 57.829C111.412 57.089 112.272 56.5891 112.983 56.3292C113.701 56.0702 114.344 55.9765 114.913 56.0481C115.786 56.158 116.451 56.5339 116.908 57.176C117.372 57.8123 117.546 58.5968 117.428 59.5294L116.831 64.272C116.8 64.5167 116.801 64.6949 116.834 64.8066C116.867 64.9182 116.934 65.0039 117.034 65.0635L117.279 65.1952C117.411 65.2722 117.5 65.3608 117.548 65.4608C117.604 65.5552 117.623 65.6652 117.608 65.7908C117.587 65.9562 117.517 66.0818 117.399 66.1677C117.281 66.247 117.1 66.2712 116.856 66.2404L112.589 65.7034C112.126 65.6451 111.919 65.4242 111.967 65.0405C111.995 64.8223 112.121 64.6702 112.347 64.5844L112.609 64.5065C112.721 64.4669 112.804 64.4 112.856 64.3058C112.915 64.2058 112.961 64.0334 112.991 63.7887L113.52 59.5918C113.578 59.1288 113.512 58.7711 113.322 58.5187C113.14 58.2606 112.857 58.1073 112.473 58.059C112.235 58.0291 111.977 58.047 111.7 58.113C111.43 58.1797 111.17 58.2981 110.92 58.4683L110.523 58.7408ZM129.133 61.7184C129.079 62.1483 128.918 62.4674 128.65 62.6755C128.389 62.8779 128.038 62.9512 127.594 62.8954L121.631 62.1448L121.751 61.1923L124.748 61.5695C125.105 61.6145 125.304 61.4716 125.346 61.1409C125.453 60.2876 125.419 59.655 125.242 59.243C125.066 58.8311 124.792 58.6018 124.422 58.5552C124.144 58.5202 123.884 58.5849 123.641 58.7492C123.399 58.9136 123.191 59.1797 123.017 59.5475C122.843 59.9153 122.719 60.3869 122.647 60.9624C122.492 62.1927 122.656 63.1338 123.138 63.7859C123.628 64.4321 124.349 64.8152 125.302 64.935C125.778 64.995 126.213 64.9825 126.607 64.8977C127.008 64.8071 127.385 64.6094 127.74 64.3046C127.931 64.1675 128.074 64.0779 128.166 64.0358C128.267 63.9879 128.36 63.9694 128.446 63.9802C128.571 63.996 128.653 64.0701 128.69 64.2024C128.734 64.329 128.746 64.4783 128.724 64.6502C128.644 65.2315 128.377 65.7522 127.923 66.2124C127.469 66.666 126.876 67.0012 126.143 67.218C125.417 67.4357 124.597 67.4871 123.685 67.3722C122.692 67.2473 121.828 66.9369 121.091 66.4409C120.353 65.945 119.802 65.3111 119.435 64.5393C119.07 63.7609 118.947 62.8954 119.067 61.9429C119.2 60.8846 119.524 59.9881 120.04 59.2534C120.563 58.513 121.253 57.9716 122.109 57.6291C122.972 57.2875 123.969 57.1879 125.1 57.3303C126.085 57.4544 126.891 57.7238 127.518 58.1386C128.151 58.5543 128.6 59.071 128.865 59.689C129.137 60.3011 129.227 60.9776 129.133 61.7184ZM37.4043 75.8229L36.0647 75.8962L40.2652 67.9082C40.4946 67.4735 40.7326 67.1842 40.9791 67.0406C41.2265 66.8903 41.5519 66.8405 41.9554 66.8913L45.5768 67.3472C45.8414 67.3805 46.0299 67.458 46.1422 67.5796C46.2546 67.7013 46.2987 67.858 46.2745 68.0498C46.2537 68.2152 46.1932 68.3487 46.0931 68.4503C45.9996 68.5527 45.8734 68.6209 45.7146 68.6546L45.2804 68.7411C45.0662 68.788 44.9156 68.8631 44.8287 68.9664C44.7418 69.0697 44.69 69.2413 44.6732 69.481L44.1378 79.0995C44.1211 79.3393 44.1395 79.5129 44.1932 79.6205C44.2543 79.7222 44.3704 79.8141 44.5415 79.8961L44.9308 80.0862C45.0705 80.1509 45.1696 80.244 45.2282 80.3656C45.2943 80.4814 45.3177 80.6154 45.2986 80.7675C45.2753 80.9527 45.1896 81.0998 45.0415 81.2088C44.9008 81.3121 44.6982 81.3471 44.4336 81.3138L39.0759 80.6394C38.8047 80.6052 38.6129 80.5273 38.5005 80.4057C38.389 80.2774 38.3449 80.1207 38.3682 79.9355C38.3882 79.7767 38.4384 79.6453 38.5187 79.5412C38.6056 79.4379 38.7454 79.3681 38.9381 79.3319L39.3723 79.2455C39.5865 79.1985 39.7366 79.1267 39.8227 79.03C39.9088 78.9334 39.9585 78.7784 39.9719 78.565L40.4768 68.469L41.6699 68.5184L36.2581 78.8434C36.0361 79.2724 35.8279 79.5384 35.6335 79.6416C35.4457 79.7457 35.2328 79.7827 34.9946 79.7527C34.8161 79.7302 34.6565 79.69 34.516 79.632C34.3763 79.5674 34.2536 79.4478 34.1479 79.2732C34.0422 79.0986 33.9411 78.8339 33.8447 78.4791L31.0274 67.5517L32.1897 67.446L30.1932 76.9814C30.1276 77.2889 30.1637 77.5354 30.3017 77.7207C30.4471 77.9003 30.6371 78.072 30.8718 78.2359L31.1792 78.4359C31.2784 78.5021 31.3519 78.5853 31.3998 78.6854C31.4551 78.7797 31.474 78.8963 31.4566 79.0352C31.4324 79.227 31.35 79.3746 31.2093 79.4778C31.0695 79.5744 30.8673 79.6061 30.6027 79.5728L27.6064 79.1956C27.3418 79.1623 27.1533 79.0849 27.041 78.9632C26.9295 78.8349 26.8854 78.6782 26.9087 78.493C26.932 78.3078 26.9995 78.1718 27.1112 78.0851C27.2229 77.9984 27.3664 77.9257 27.5418 77.8672L27.8036 77.7893C28.0335 77.7241 28.2316 77.618 28.398 77.471C28.5651 77.3173 28.6811 77.09 28.7458 76.7891L30.5642 68.1082C30.6448 67.7354 30.6562 67.458 30.5984 67.276C30.5482 67.0882 30.4185 66.9442 30.2093 66.844L29.8188 66.6638C29.6675 66.5843 29.5556 66.4862 29.4829 66.3696C29.4177 66.2471 29.3955 66.1032 29.4163 65.9379C29.4679 65.5278 29.755 65.3556 30.2775 65.4214L33.8593 65.8722C34.2297 65.9189 34.5173 66.0357 34.7223 66.2228C34.928 66.4032 35.0935 66.7432 35.2188 67.2428L37.4043 75.8229ZM56.8682 76.8115C56.8141 77.2414 56.653 77.5604 56.3849 77.7686C56.1243 77.9709 55.7724 78.0442 55.3292 77.9885L49.3662 77.2379L49.4861 76.2854L52.4825 76.6626C52.8397 76.7075 53.0391 76.5646 53.0807 76.2339C53.1881 75.3806 53.1535 74.748 52.9769 74.3361C52.8003 73.9241 52.5268 73.6949 52.1564 73.6482C51.8786 73.6133 51.6185 73.6779 51.376 73.8423C51.1336 74.0066 50.9254 74.2727 50.7515 74.6405C50.5775 75.0084 50.4543 75.48 50.3819 76.0555C50.227 77.2857 50.3907 78.2269 50.8731 78.8789C51.3629 79.5251 52.084 79.9082 53.0365 80.0281C53.5128 80.088 53.9477 80.0756 54.3414 79.9908C54.7425 79.9002 55.1202 79.7024 55.4743 79.3976C55.6663 79.2605 55.8086 79.1709 55.9012 79.1288C56.0013 79.081 56.0944 79.0624 56.1804 79.0733C56.306 79.0891 56.3874 79.1632 56.4245 79.2955C56.4691 79.422 56.4805 79.5713 56.4589 79.7433C56.379 80.3245 56.1119 80.8452 55.6575 81.3054C55.204 81.759 54.6108 82.0942 53.878 82.3111C53.1518 82.5287 52.3323 82.5801 51.4195 82.4652C50.4273 82.3403 49.5626 82.0299 48.8255 81.534C48.0883 81.038 47.5365 80.4041 47.17 79.6323C46.8044 78.8539 46.6815 77.9885 46.8014 77.036C46.9346 75.9777 47.2591 75.0812 47.7749 74.3465C48.2981 73.606 48.9878 73.0646 49.8439 72.7222C50.7067 72.3806 51.7036 72.281 52.8347 72.4233C53.8202 72.5474 54.6262 72.8168 55.2527 73.2317C55.8857 73.6473 56.3347 74.1641 56.5996 74.782C56.8719 75.3942 56.9615 76.0706 56.8682 76.8115ZM64.5726 82.1051L64.4362 82.0678L65.7338 71.7591C65.7588 71.5607 65.7498 71.4184 65.7069 71.3324C65.6648 71.2398 65.5896 71.1698 65.4813 71.1226L65.1911 71.0256C65.0638 70.9693 64.9754 70.8976 64.9259 70.8108C64.8764 70.7239 64.8591 70.621 64.8741 70.5019C64.8924 70.3564 64.9462 70.2489 65.0356 70.1795C65.1258 70.1035 65.2854 70.0363 65.5145 69.9778L67.76 69.434C68.0859 69.354 68.3481 69.2997 68.5466 69.2709C68.745 69.2421 68.9336 69.239 69.1122 69.2615C69.3834 69.2956 69.5788 69.3975 69.6986 69.5671C69.8249 69.7376 69.8731 69.9418 69.8432 70.18L68.3108 82.3539C68.2791 82.6052 68.2765 82.7863 68.3029 82.8972C68.3367 83.0022 68.4036 83.0845 68.5036 83.1442L68.7491 83.2758C68.8871 83.3537 68.9801 83.4427 69.0279 83.5428C69.0832 83.6371 69.103 83.7471 69.0872 83.8727C69.0664 84.0381 68.9935 84.1633 68.8686 84.2484C68.7511 84.3277 68.57 84.3519 68.3252 84.3211L65.8944 84.0151C65.4777 83.9627 65.1355 83.7718 64.8679 83.4424C64.6003 83.1131 64.4927 82.7401 64.5451 82.3234L64.5726 82.1051ZM57.7439 78.4637C57.8788 77.3922 58.2149 76.4837 58.7522 75.7383C59.2895 74.9929 59.963 74.4461 60.7729 74.0978C61.5827 73.7496 62.4605 73.635 63.4064 73.7541C64.2001 73.854 64.8726 74.1167 65.4238 74.5422C65.9758 74.9611 66.4202 75.5411 66.7569 76.2823L65.6984 76.8445C65.4524 76.3432 65.1898 75.9742 64.9105 75.7374C64.632 75.4941 64.3175 75.3503 63.967 75.3062C63.623 75.2629 63.3004 75.3433 62.9993 75.5473C62.7056 75.7455 62.4535 76.0934 62.243 76.591C62.0334 77.082 61.8761 77.7442 61.7712 78.5776C61.6755 79.3383 61.6704 79.9659 61.7559 80.4604C61.849 80.9492 62.0103 81.3223 62.24 81.5797C62.4762 81.8378 62.763 81.9882 63.1004 82.0306C63.4972 82.0806 63.874 81.997 64.2305 81.7798C64.5937 81.5635 64.9562 81.1925 65.318 80.6669L65.8632 81.3806C65.2026 82.1978 64.4897 82.817 63.7245 83.238C62.9658 83.6599 62.1433 83.8151 61.257 83.7035C60.4699 83.6044 59.7904 83.3173 59.2186 82.8422C58.6543 82.3613 58.238 81.7445 57.9699 80.9918C57.7018 80.2391 57.6265 79.3964 57.7439 78.4637ZM76.0596 76.1934L75.1754 83.218C75.1437 83.4693 75.1444 83.6508 75.1774 83.7625C75.2112 83.8675 75.2748 83.9494 75.3682 84.0082L75.6137 84.1399C75.7517 84.2178 75.8446 84.3067 75.8925 84.4068C75.9478 84.5012 75.9676 84.6111 75.9518 84.7368C75.9309 84.9022 75.8581 85.0274 75.7331 85.1125C75.6156 85.1917 75.4378 85.2164 75.1997 85.1864L70.8242 84.6357C70.5861 84.6057 70.4167 84.5373 70.3159 84.4306C70.2225 84.318 70.1863 84.1791 70.2071 84.0137C70.2229 83.888 70.266 83.786 70.3363 83.7075C70.4142 83.6232 70.5262 83.56 70.6726 83.518L70.953 83.4525C71.0647 83.4195 71.1466 83.3559 71.1988 83.2617C71.2584 83.1617 71.304 82.986 71.3357 82.7346L71.9601 77.7738C71.9851 77.5754 71.9765 77.4298 71.9344 77.3372C71.8923 77.2445 71.8167 77.1779 71.7076 77.1373L71.4175 77.0403C71.2902 76.9839 71.2018 76.9123 71.1522 76.8255C71.1027 76.7386 71.0854 76.6356 71.1004 76.5166C71.1187 76.3711 71.1725 76.2636 71.2619 76.1942C71.3521 76.1182 71.5118 76.051 71.7409 75.9925L73.9864 75.4486C74.3263 75.3638 74.5918 75.3098 74.7828 75.2868C74.9813 75.2581 75.1533 75.2528 75.2988 75.2712C75.5898 75.3078 75.7952 75.4109 75.915 75.5805C76.0414 75.751 76.0896 75.9553 76.0596 76.1934ZM74.1587 74.0794C73.4708 73.9929 72.9455 73.7621 72.5828 73.3872C72.2276 73.0065 72.0849 72.5384 72.1549 71.9828C72.2248 71.4272 72.4782 71.0156 72.915 70.748C73.3593 70.4747 73.9254 70.3814 74.6133 70.4679C75.3012 70.5545 75.8232 70.7849 76.1793 71.1589C76.542 71.5338 76.6887 71.9958 76.6196 72.5448C76.5497 73.1004 76.2922 73.5182 75.8471 73.7981C75.4094 74.0723 74.8466 74.166 74.1587 74.0794ZM87.3843 79.7959C87.3252 80.2656 87.0995 80.6437 86.7073 80.9303C86.3226 81.2111 85.8358 81.3144 85.2471 81.2403C84.6849 81.1696 84.2774 80.9637 84.0247 80.6228C83.7786 80.2828 83.6855 79.8746 83.7454 79.3984L83.7879 79.061C83.842 78.6311 83.7824 78.2775 83.609 78.0004C83.443 77.7174 83.1946 77.5551 82.8639 77.5135C82.5861 77.4786 82.3161 77.542 82.0538 77.7038C81.7982 77.8665 81.5734 78.1305 81.3796 78.4958C81.1924 78.862 81.0626 79.3328 80.9902 79.9083C80.8911 80.6954 80.9405 81.3702 81.1385 81.9326C81.3431 82.4959 81.6598 82.9423 82.0887 83.2718C82.5176 83.6013 83.0297 83.8035 83.625 83.8784C84.088 83.9367 84.5064 83.9222 84.8802 83.8348C85.2615 83.7417 85.6284 83.5494 85.9809 83.2578C86.1663 83.1198 86.3086 83.0302 86.4078 82.989C86.5079 82.9411 86.601 82.9226 86.687 82.9334C86.8126 82.9492 86.8944 83.02 86.9324 83.1457C86.9769 83.2723 86.9884 83.4215 86.9667 83.5935C86.8794 84.1805 86.6123 84.7013 86.1654 85.1557C85.7184 85.6101 85.1352 85.9465 84.4156 86.165C83.7035 86.3778 82.9042 86.4283 82.0179 86.3168C81.0191 86.1911 80.1511 85.8802 79.4139 85.3843C78.6834 84.8892 78.1349 84.2557 77.7684 83.4839C77.4085 82.7129 77.289 81.8479 77.4097 80.8888C77.5371 79.8768 77.8723 79.0018 78.4154 78.2638C78.9593 77.5193 79.6635 76.9696 80.5279 76.6147C81.3997 76.2541 82.388 76.1434 83.4926 76.2824C84.3723 76.3931 85.1126 76.6241 85.7135 76.9752C86.3218 77.3205 86.7696 77.7397 87.0569 78.2328C87.3443 78.7259 87.4534 79.2469 87.3843 79.7959ZM93.9439 86.1953L93.9714 85.977L93.6948 85.9321L94.4891 79.6219C94.5274 79.3176 94.4747 79.0691 94.331 78.8763C94.1947 78.6777 93.9877 78.561 93.7099 78.526C93.485 78.4977 93.2898 78.5269 93.1244 78.6135C92.9598 78.6936 92.867 78.8163 92.8462 78.9817L92.7163 80.0135C92.6514 80.5295 92.4257 80.9076 92.0394 81.1479C91.6538 81.3816 91.137 81.4576 90.4887 81.376C89.9397 81.3069 89.5446 81.1362 89.3034 80.864C89.0622 80.5917 88.9682 80.2439 89.0215 79.8206C89.0756 79.3907 89.3178 78.9878 89.7481 78.6119C90.1859 78.2302 90.803 77.9451 91.5995 77.7564C92.4026 77.5686 93.3763 77.5467 94.5206 77.6907C95.8765 77.8614 96.8499 78.2426 97.4406 78.8343C98.0379 79.4269 98.2816 80.1597 98.1717 81.0329L97.561 85.8846C97.5436 86.0235 97.5625 86.1401 97.6178 86.2344C97.6731 86.3287 97.7669 86.3842 97.8992 86.4008C98.0183 86.4158 98.1146 86.3977 98.1883 86.3465C98.2693 86.2895 98.3438 86.2317 98.4117 86.1731C98.4638 86.1326 98.5147 86.102 98.5643 86.0814C98.6148 86.0542 98.6698 86.0443 98.7293 86.0518C98.8351 86.0651 98.9066 86.1111 98.9438 86.1896C98.9809 86.2682 98.992 86.3671 98.977 86.4861C98.9429 86.7573 98.8078 87.0292 98.5719 87.3019C98.336 87.5746 98.0096 87.7922 97.5927 87.9547C97.1759 88.1173 96.6764 88.1619 96.0943 88.0886C95.3998 88.0012 94.853 87.7812 94.4539 87.4286C94.0548 87.076 93.8848 86.6649 93.9439 86.1953ZM88.0288 84.6645C88.1395 83.7848 88.6246 83.1336 89.4841 82.711C90.3503 82.2892 91.5043 82.1691 92.9463 82.3506C93.3431 82.4005 93.69 82.4744 93.9867 82.5722C94.2835 82.6701 94.5244 82.7844 94.7096 82.9152L94.312 83.6715C94.1575 83.5647 94.0066 83.4818 93.8595 83.423C93.7198 83.3584 93.5607 83.3148 93.3821 83.2924C93.005 83.2449 92.6924 83.3265 92.4441 83.5371C92.1967 83.7412 92.046 84.0582 91.9918 84.4881C91.9352 84.9379 91.9916 85.291 92.1609 85.5475C92.3368 85.8048 92.5934 85.9547 92.9307 85.9972C93.1622 86.0263 93.3872 86.0009 93.6055 85.9209C93.8314 85.835 94.0138 85.7203 94.1528 85.5765L94.2899 86.3295C93.9058 86.765 93.3929 87.0767 92.751 87.2647C92.1158 87.4535 91.4542 87.5046 90.7663 87.418C89.8602 87.3039 89.1543 86.9866 88.6486 86.4661C88.1496 85.9463 87.943 85.3458 88.0288 84.6645ZM104.571 83.4207C104.695 82.4285 104.931 81.6217 105.278 81.0001C105.632 80.3794 106.047 79.9378 106.524 79.6753C107.008 79.4069 107.507 79.3053 108.023 79.3702C108.705 79.456 109.202 79.7235 109.515 80.1727C109.828 80.622 109.934 81.2468 109.833 82.0472C109.733 82.8475 109.496 83.4158 109.125 83.7521C108.76 84.0891 108.323 84.2256 107.813 84.1615C107.291 84.0957 106.914 83.9139 106.683 83.616C106.459 83.3123 106.377 82.9224 106.437 82.4461L106.487 82.0493C106.503 81.8698 106.477 81.7288 106.409 81.6262C106.349 81.5179 106.239 81.4537 106.08 81.4337C105.922 81.4137 105.767 81.4649 105.618 81.5871C105.475 81.7036 105.346 81.9056 105.229 82.1933C105.113 82.4743 105.025 82.8563 104.964 83.3392L104.571 83.4207ZM105.16 79.8564L105.13 82.0196L104.514 86.911C104.487 87.1292 104.5 87.2889 104.555 87.3898C104.616 87.4915 104.756 87.5797 104.975 87.6543L105.741 87.8919C105.915 87.9541 106.039 88.0369 106.113 88.1403C106.195 88.2379 106.225 88.3694 106.205 88.5348C106.183 88.7068 106.106 88.8349 105.975 88.9191C105.844 88.9967 105.663 89.021 105.431 88.9918L100.163 88.3287C99.9249 88.2987 99.7555 88.2303 99.6547 88.1236C99.5613 88.011 99.5251 87.8721 99.5459 87.7067C99.5617 87.581 99.6048 87.479 99.6751 87.4005C99.7529 87.3162 99.865 87.253 100.011 87.211L100.292 87.1455C100.403 87.1125 100.485 87.0489 100.538 86.9547C100.597 86.8547 100.642 86.6823 100.673 86.4376L101.295 81.4966C101.32 81.2981 101.311 81.1559 101.268 81.0699C101.226 80.9772 101.151 80.9073 101.043 80.86L100.753 80.763C100.625 80.7067 100.537 80.6351 100.487 80.5482C100.438 80.4614 100.42 80.3584 100.435 80.2393C100.453 80.1004 100.507 79.993 100.597 79.917C100.695 79.8352 100.854 79.768 101.076 79.7152L103.258 79.1937C103.703 79.075 104.021 79.0042 104.212 78.9812C104.41 78.959 104.562 78.9546 104.667 78.9679C104.839 78.9896 104.964 79.0691 105.041 79.2064C105.118 79.3371 105.158 79.5538 105.16 79.8564ZM120.313 84.7975C120.259 85.2274 120.098 85.5465 119.83 85.7546C119.569 85.957 119.217 86.0303 118.774 85.9745L112.811 85.2239L112.931 84.2714L115.927 84.6486C116.284 84.6936 116.484 84.5507 116.525 84.22C116.633 83.3667 116.598 82.7341 116.422 82.3221C116.245 81.9102 115.971 81.6809 115.601 81.6343C115.323 81.5993 115.063 81.664 114.821 81.8283C114.578 81.9927 114.37 82.2588 114.196 82.6266C114.022 82.9944 113.899 83.4661 113.827 84.0415C113.672 85.2718 113.835 86.213 114.318 86.865C114.808 87.5112 115.529 87.8943 116.481 88.0142C116.957 88.0741 117.392 88.0617 117.786 87.9768C118.187 87.8862 118.565 87.6885 118.919 87.3837C119.111 87.2466 119.253 87.157 119.346 87.1149C119.446 87.067 119.539 87.0485 119.625 87.0593C119.751 87.0751 119.832 87.1492 119.869 87.2815C119.914 87.4081 119.925 87.5574 119.904 87.7293C119.824 88.3106 119.557 88.8313 119.102 89.2915C118.649 89.7451 118.055 90.0803 117.323 90.2971C116.596 90.5148 115.777 90.5662 114.864 90.4513C113.872 90.3264 113.007 90.016 112.27 89.52C111.533 89.0241 110.981 88.3902 110.615 87.6184C110.249 86.84 110.126 85.9745 110.246 85.022C110.379 83.9637 110.704 83.0672 111.22 82.3326C111.743 81.5921 112.432 81.0507 113.289 80.7082C114.151 80.3666 115.148 80.267 116.279 80.4094C117.265 80.5335 118.071 80.8029 118.697 81.2177C119.33 81.6334 119.779 82.1501 120.044 82.7681C120.317 83.3802 120.406 84.0567 120.313 84.7975ZM57.1941 98.2601C57.0851 99.1266 56.7619 99.8519 56.2248 100.436C55.6884 101.014 54.9716 101.424 54.0742 101.667C53.1776 101.904 52.1407 101.948 50.9633 101.8C50.1894 101.702 49.5086 101.533 48.9209 101.291C48.3406 101.043 47.8278 100.74 47.3824 100.381L47.6723 99.2789C47.9012 99.4891 48.1276 99.6654 48.3516 99.8079C48.5822 99.9511 48.8264 100.066 49.0843 100.152C49.3489 100.239 49.6399 100.303 49.9574 100.343C50.4733 100.408 50.9538 100.354 51.3988 100.181C51.8504 100.01 52.2307 99.7116 52.5395 99.2868C52.8483 98.862 53.0451 98.3123 53.13 97.6376C53.2283 96.8571 53.1706 96.1679 52.9569 95.5698C52.7441 94.9652 52.4088 94.4795 51.951 94.1128C51.4941 93.7395 50.9415 93.512 50.2933 93.4304L49.9262 93.3842L48.5948 103.961C48.5749 104.12 48.5942 104.26 48.6528 104.381C48.718 104.504 48.8378 104.593 49.0122 104.648L49.6608 104.861C49.8542 104.926 49.9873 105.016 50.0599 105.133C50.1326 105.25 50.1564 105.407 50.1315 105.606C50.1081 105.791 50.0266 105.932 49.8867 106.028C49.7477 106.118 49.546 106.147 49.2814 106.113L43.4772 105.383C43.2126 105.349 43.0241 105.272 42.9118 105.15C42.8003 105.022 42.7562 104.865 42.7795 104.68C42.8203 104.356 43.0102 104.155 43.3493 104.077L43.7934 103.991C43.9729 103.953 44.1086 103.89 44.2004 103.801C44.2989 103.712 44.3581 103.589 44.3781 103.43L45.6145 93.6075C45.6345 93.4487 45.6077 93.3143 45.5342 93.2043C45.4674 93.0951 45.3517 92.9999 45.1872 92.9187L44.778 92.7261C44.4689 92.5663 44.3348 92.3243 44.3756 92.0002C44.3997 91.8084 44.4813 91.6674 44.6203 91.5774C44.7593 91.4874 44.961 91.4591 45.2256 91.4924L50.5834 92.1668C52.1311 92.3616 53.4162 92.7484 54.4386 93.3273C55.4676 93.907 56.2141 94.6225 56.6781 95.4738C57.1487 96.3259 57.3207 97.2547 57.1941 98.2601ZM63.8275 93.6121L62.2951 105.786C62.2634 106.037 62.2641 106.219 62.2971 106.331C62.3309 106.436 62.3945 106.518 62.4879 106.576L62.7433 106.709C62.8813 106.787 62.9743 106.876 63.0221 106.976C63.0775 107.07 63.0972 107.18 63.0814 107.306C63.0606 107.472 62.9877 107.597 62.8628 107.682C62.7453 107.761 62.5642 107.785 62.3194 107.755L57.944 107.204C57.7058 107.174 57.5364 107.105 57.4356 106.999C57.3423 106.886 57.306 106.747 57.3268 106.582C57.3426 106.456 57.3857 106.354 57.4561 106.276C57.5339 106.191 57.6493 106.129 57.8023 106.087L58.0727 106.021C58.1844 105.988 58.2663 105.924 58.3185 105.83C58.3781 105.73 58.4237 105.554 58.4554 105.303L59.728 95.1925C59.753 94.9941 59.744 94.8518 59.7011 94.7658C59.659 94.6732 59.5838 94.6032 59.4755 94.556L59.1854 94.459C59.0581 94.4027 58.9696 94.3311 58.9201 94.2442C58.8706 94.1573 58.8533 94.0544 58.8683 93.9353C58.8866 93.7898 58.9404 93.6823 59.0298 93.613C59.12 93.537 59.2797 93.4697 59.5088 93.4112L61.7543 92.8674C62.1008 92.7833 62.3696 92.7298 62.5606 92.7068C62.7591 92.678 62.9311 92.6728 63.0766 92.6911C63.361 92.7269 63.5631 92.8296 63.6829 92.9993C63.8092 93.1697 63.8574 93.374 63.8275 93.6121ZM70.2311 107.4L70.2586 107.182L69.9821 107.137L70.7764 100.826C70.8147 100.522 70.7619 100.274 70.6182 100.081C70.482 99.8823 70.2749 99.7655 69.9971 99.7305C69.7722 99.7022 69.5771 99.7314 69.4116 99.8181C69.247 99.8982 69.1543 100.021 69.1334 100.186L69.0036 101.218C68.9386 101.734 68.713 102.112 68.3266 102.352C67.9411 102.586 67.4242 102.662 66.776 102.581C66.227 102.511 65.8319 102.341 65.5906 102.069C65.3494 101.796 65.2554 101.448 65.3087 101.025C65.3628 100.595 65.6051 100.192 66.0354 99.8164C66.4731 99.4348 67.0902 99.1496 67.8867 98.961C68.6898 98.7731 69.6635 98.7512 70.8078 98.8952C72.1638 99.0659 73.1371 99.4471 73.7278 100.039C74.3252 100.631 74.5689 101.364 74.459 102.237L73.8483 107.089C73.8308 107.228 73.8497 107.345 73.905 107.439C73.9603 107.533 74.0541 107.589 74.1864 107.605C74.3055 107.62 74.4018 107.602 74.4755 107.551C74.5566 107.494 74.631 107.436 74.6989 107.378C74.751 107.337 74.8019 107.307 74.8515 107.286C74.902 107.259 74.957 107.249 75.0165 107.256C75.1224 107.27 75.1939 107.316 75.231 107.394C75.2681 107.473 75.2792 107.572 75.2642 107.691C75.2301 107.962 75.0951 108.234 74.8592 108.506C74.6233 108.779 74.2969 108.997 73.88 109.159C73.4631 109.322 72.9636 109.366 72.3815 109.293C71.687 109.206 71.1402 108.986 70.7411 108.633C70.342 108.281 70.172 107.869 70.2311 107.4ZM64.316 105.869C64.4267 104.989 64.9119 104.338 65.7714 103.916C66.6375 103.494 67.7915 103.374 69.2335 103.555C69.6304 103.605 69.9772 103.679 70.274 103.777C70.5707 103.875 70.8117 103.989 70.9968 104.12L70.5992 104.876C70.4447 104.769 70.2938 104.686 70.1467 104.628C70.007 104.563 69.8479 104.519 69.6693 104.497C69.2923 104.449 68.9796 104.531 68.7314 104.742C68.484 104.946 68.3332 105.263 68.2791 105.693C68.2225 106.142 68.2788 106.496 68.4481 106.752C68.624 107.009 68.8806 107.159 69.218 107.202C69.4495 107.231 69.6744 107.205 69.8928 107.125C70.1186 107.04 70.301 106.925 70.4401 106.781L70.5771 107.534C70.193 107.97 69.6801 108.281 69.0383 108.469C68.403 108.658 67.7415 108.709 67.0536 108.623C66.1474 108.508 65.4415 108.191 64.9359 107.671C64.4369 107.151 64.2302 106.55 64.316 105.869ZM81.6856 101.091L80.8014 108.116C80.7698 108.367 80.7708 108.545 80.8047 108.65C80.8385 108.755 80.9017 108.84 80.9942 108.906L81.2285 109.046C81.426 109.185 81.511 109.364 81.4836 109.582C81.4353 109.966 81.1796 110.129 80.7166 110.07L76.4503 109.533C76.2122 109.503 76.0427 109.435 75.9419 109.328C75.8486 109.216 75.8123 109.077 75.8331 108.911C75.8489 108.786 75.892 108.684 75.9624 108.605C76.0402 108.521 76.1523 108.458 76.2987 108.416L76.579 108.35C76.6907 108.317 76.7726 108.253 76.8248 108.159C76.8844 108.059 76.9301 107.884 76.9617 107.632L77.5861 102.671C77.6111 102.473 77.6026 102.327 77.5605 102.235C77.5184 102.142 77.4428 102.075 77.3337 102.035L77.0435 101.938C76.9162 101.881 76.8278 101.81 76.7782 101.723C76.7287 101.636 76.7114 101.533 76.7264 101.414C76.7447 101.269 76.7986 101.161 76.8879 101.092C76.9781 101.016 77.1378 100.949 77.3669 100.89L79.6124 100.346C79.9383 100.266 80.2004 100.212 80.3989 100.183C80.5974 100.154 80.7859 100.151 80.9645 100.174C81.2357 100.208 81.4312 100.31 81.5509 100.479C81.6707 100.649 81.7156 100.853 81.6856 101.091ZM81.051 103.41L80.5691 102.755L80.934 102.498C81.941 101.758 82.8001 101.258 83.5115 100.998C84.2295 100.739 84.8729 100.646 85.4417 100.717C86.3148 100.827 86.9797 101.203 87.4365 101.845C87.9006 102.481 88.074 103.266 87.9566 104.198L87.3596 108.941C87.3288 109.186 87.3299 109.364 87.3629 109.476C87.3959 109.587 87.4624 109.673 87.5624 109.733L87.8079 109.864C87.9393 109.941 88.0289 110.03 88.0768 110.13C88.1321 110.224 88.1519 110.334 88.136 110.46C88.1152 110.625 88.0457 110.751 87.9273 110.837C87.8098 110.916 87.6287 110.94 87.384 110.909L83.1177 110.372C82.6546 110.314 82.4473 110.093 82.4956 109.71C82.5231 109.491 82.6497 109.339 82.8755 109.253L83.1373 109.176C83.2498 109.136 83.3321 109.069 83.3843 108.975C83.4439 108.875 83.4891 108.702 83.5199 108.458L84.0482 104.261C84.1065 103.798 84.0407 103.44 83.8507 103.188C83.6682 102.93 83.3851 102.776 83.0014 102.728C82.7633 102.698 82.5057 102.716 82.2287 102.782C81.9582 102.849 81.698 102.967 81.4482 103.137L81.051 103.41ZM94.6897 103.05C94.2796 102.999 93.9604 103.053 93.7321 103.212C93.5045 103.365 93.3741 103.573 93.3408 103.838C93.3208 103.997 93.3352 104.15 93.3838 104.297C93.4333 104.438 93.5568 104.578 93.7543 104.717C93.9518 104.856 94.2663 104.999 94.6979 105.148C95.8428 105.5 96.7016 105.884 97.2743 106.299C97.8544 106.708 98.2286 107.151 98.3969 107.629C98.5718 108.108 98.6235 108.632 98.5519 109.201C98.4211 110.239 97.9578 111.011 97.1619 111.515C96.3668 112.013 95.2682 112.174 93.8659 111.998C93.3764 111.936 92.9879 111.847 92.7002 111.73C92.4191 111.614 92.1939 111.508 92.0245 111.413C91.8559 111.311 91.7021 111.251 91.5632 111.234C91.4045 111.214 91.2672 111.237 91.1514 111.303C91.043 111.363 90.9309 111.427 90.8151 111.493C90.7059 111.559 90.5752 111.583 90.4231 111.564C90.2709 111.545 90.1606 111.487 90.092 111.391C90.0301 111.296 89.9802 111.132 89.9424 110.899L89.629 108.985C89.5697 108.655 89.5712 108.403 89.6333 108.229C89.703 108.05 89.835 107.936 90.0293 107.886C90.2303 107.838 90.3994 107.856 90.5366 107.94C90.6738 108.024 90.796 108.174 90.9033 108.389C91.1485 108.897 91.4177 109.321 91.7109 109.66C92.0042 109.999 92.3236 110.265 92.669 110.456C93.0145 110.647 93.3824 110.768 93.7726 110.817C94.2423 110.876 94.6074 110.831 94.868 110.682C95.1294 110.527 95.2793 110.297 95.3176 109.993C95.3417 109.801 95.3129 109.63 95.2312 109.478C95.1503 109.32 94.9714 109.167 94.6945 109.018C94.4251 108.863 94.013 108.693 93.4583 108.509C92.5482 108.213 91.8382 107.875 91.3283 107.495C90.8259 107.11 90.4843 106.674 90.3037 106.187C90.123 105.701 90.0709 105.153 90.1475 104.545C90.2283 103.903 90.4706 103.366 90.8745 102.933C91.2784 102.5 91.7947 102.189 92.4233 101.999C93.0585 101.81 93.7598 101.764 94.527 101.861C95.0297 101.924 95.4212 102.017 95.7014 102.14C95.9891 102.256 96.2168 102.369 96.3846 102.478C96.5598 102.58 96.7367 102.643 96.9153 102.665C97.0806 102.686 97.2278 102.664 97.3569 102.6C97.4868 102.529 97.6129 102.461 97.7354 102.396C97.8578 102.33 97.9918 102.307 98.1373 102.325C98.2696 102.342 98.3758 102.406 98.4559 102.517C98.5368 102.621 98.5826 102.791 98.5931 103.028L98.7181 104.837C98.7393 105.149 98.7168 105.382 98.6505 105.534C98.5908 105.688 98.4671 105.79 98.2794 105.841C98.0842 105.897 97.9188 105.876 97.7833 105.778C97.6486 105.674 97.5222 105.503 97.4042 105.267C97.0336 104.528 96.6106 103.991 96.1355 103.656C95.6611 103.314 95.1792 103.112 94.6897 103.05Z" fill="black"/>
</g>
<defs>
<clipPath id="clip0_1056_34534">
<rect width="149.342" height="157.202" fill="white"/>
</clipPath>
</defs>
</svg>
