<svg width="95" height="121" viewBox="0 0 95 121" fill="none" xmlns="http://www.w3.org/2000/svg">
<g clip-path="url(#clip0_1550_5963)">
<mask id="mask0_1550_5963" style="mask-type:luminance" maskUnits="userSpaceOnUse" x="-3" y="0" width="95" height="121">
<path d="M-2.75 0.822754H91.25V120.823H-2.75V0.822754Z" fill="white"/>
</mask>
<g mask="url(#mask0_1550_5963)">
<path d="M89.3161 82.5175C83.5339 80.8227 73.8838 78.011 71.9695 75.7577C69.3909 72.3682 66.1872 59.4265 64.898 50.972C64.898 49.8357 63.6087 48.7188 62.3194 48.7188C61.0301 48.7188 59.7409 49.8357 59.7409 50.972C58.4516 59.4265 55.2479 72.3682 52.6694 75.7577C50.7355 78.011 41.1049 81.3812 35.3227 82.5175C34.0335 83.076 33.3888 83.6345 33.3888 84.7707C33.3888 85.907 34.0335 87.024 35.3227 87.024C41.1049 88.7187 50.755 91.5305 52.6694 93.7837C55.2479 97.1733 58.4516 110.115 59.7409 118.569C59.7409 119.706 61.0301 120.823 62.3194 120.823C63.6087 120.823 64.898 119.706 64.898 118.569C66.1872 110.115 69.3909 97.1733 71.9695 93.7837C73.9034 91.5305 83.5339 88.1602 89.3161 87.024C90.6054 86.4655 91.25 85.907 91.25 84.7707C91.25 84.2122 90.6054 83.076 89.3161 82.5175Z" fill="#F3C84C"/>
<path d="M43.0584 36.6432C39.4445 35.584 33.4084 33.8315 32.2168 32.4256C30.6149 30.3072 28.6029 22.2186 27.802 16.9417C27.7824 16.2099 26.9815 15.5166 26.1806 15.5166C25.3797 15.5166 24.5788 16.2099 24.5788 16.9225C23.7779 22.1993 21.7658 30.3072 20.164 32.4063C18.9528 33.8122 12.9362 35.9307 9.32232 36.624C8.5214 36.9706 8.11118 37.3365 8.11118 38.0298C8.11118 38.7231 8.50187 39.4357 9.32232 39.4357C12.9362 40.4949 18.9724 42.2475 20.164 43.6533C21.7658 45.7718 23.7779 53.8604 24.5788 59.1372C24.5788 59.8498 25.3797 60.5431 26.1806 60.5431C26.9815 60.5431 27.7824 59.8305 27.7824 59.1372C28.5833 53.8604 30.5954 45.7525 32.1972 43.6533C33.4084 42.2475 39.425 40.129 43.0389 39.4357C43.8398 39.0891 44.25 38.7231 44.25 38.0298C44.25 37.6832 43.8593 36.9706 43.0389 36.624" fill="#B5DEC8"/>
</g>
</g>
<defs>
<clipPath id="clip0_1550_5963">
<rect width="94" height="120" fill="white" transform="matrix(-1 0 0 1 94.0986 0.822754)"/>
</clipPath>
</defs>
</svg>
