<svg width="72" height="111" viewBox="0 0 72 111" fill="none" xmlns="http://www.w3.org/2000/svg">
<path d="M55.9274 71.7987C50.1452 70.104 40.4952 67.2922 38.5808 65.039C36.0022 61.6495 32.7986 48.7078 31.5093 40.2533C31.5093 39.117 30.22 38 28.9307 38C27.6415 38 26.3522 39.117 26.3522 40.2533C25.0629 48.7078 21.8592 61.6495 19.2807 65.039C17.3468 67.2922 7.71627 70.6625 1.93406 71.7987C0.644787 72.3572 0.000144958 72.9157 0.000144958 74.052C0.000144958 75.1883 0.644787 76.3052 1.93406 76.3052C7.71627 78 17.3663 80.8117 19.2807 83.065C21.8592 86.4545 25.0629 99.3962 26.3522 107.851C26.3522 108.987 27.6415 110.104 28.9307 110.104C30.22 110.104 31.5093 108.987 31.5093 107.851C32.7986 99.3962 36.0022 86.4545 38.5808 83.065C40.5147 80.8117 50.1452 77.4415 55.9274 76.3052C57.2167 75.7467 57.8613 75.1883 57.8613 74.052C57.8613 73.4935 57.2167 72.3572 55.9274 71.7987Z" fill="#F3C84C"/>
<path d="M70.9473 21.1266C67.3334 20.0674 61.2973 18.3149 60.1057 16.909C58.5038 14.7906 56.4918 6.70197 55.6909 1.42513C55.6713 0.693308 54.8704 0 54.0695 0C53.2686 0 52.4677 0.693308 52.4677 1.40587C51.6668 6.68272 49.6547 14.7906 48.0529 16.8897C46.8417 18.2956 40.8251 20.4141 37.2112 21.1074C36.4103 21.454 36.0001 21.8199 36.0001 22.5132C36.0001 23.2065 36.3908 23.9191 37.2112 23.9191C40.8251 24.9783 46.8613 26.7309 48.0529 28.1367C49.6547 30.2552 51.6668 38.3438 52.4677 43.6206C52.4677 44.3332 53.2686 45.0265 54.0695 45.0265C54.8704 45.0265 55.6713 44.3139 55.6713 43.6206C56.4723 38.3438 58.4843 30.2359 60.0861 28.1367C61.2973 26.7309 67.3139 24.6124 70.9278 23.9191C71.7287 23.5725 72.1389 23.2065 72.1389 22.5132C72.1389 22.1666 71.7482 21.454 70.9278 21.1074" fill="#B5DEC8"/>
</svg>
