<?xml version="1.0" standalone="no"?>
<!DOCTYPE svg PUBLIC "-//W3C//DTD SVG 1.1//EN" "http://www.w3.org/Graphics/SVG/1.1/DTD/svg11.dtd" >
<svg xmlns="http://www.w3.org/2000/svg" xmlns:xlink="http://www.w3.org/1999/xlink" version="1.1">
<metadata>
Created by FontForge 20201107 at Fri Dec 13 22:47:17 2024
 By Unknown
Copyright (c) Font Awesome
</metadata>
<defs>
<font id="FontAwesome6Pro-Solid" horiz-adv-x="512" >
  <font-face 
    font-family="Font Awesome 6 Pro"
    font-weight="900"
    font-stretch="normal"
    units-per-em="512"
    panose-1="2 0 9 3 0 0 0 0 0 0"
    ascent="448"
    descent="-64"
    x-height="385.989"
    bbox="-5.94995 -66.0593 640.201 448.203"
    underline-thickness="0"
    underline-position="0"
    unicode-range="U+0020-1FAE5"
  />
<missing-glyph horiz-adv-x="384" 
d="M64 57.7002v268.6l89.5 -134.3zM102.5 0l89.5 134.3l89.5996 -134.3h-179.1zM230.5 192l89.5 134.3v-268.6zM281.5 384l-89.5 -134.3l-89.5 134.3h179zM0 400v-416c0 -26.5 21.5 -48 48 -48h288c26.5 0 48 21.5 48 48v416c0 26.5 -21.5 48 -48 48h-288
c-26.5 0 -48 -21.5 -48 -48z" />
    <glyph glyph-name="exclamation" unicode="exclamation" horiz-adv-x="128" 
d="M96 384v-256c0 -17.7002 -14.2998 -32 -32 -32s-32 14.2998 -32 32v256c0 17.7002 14.2998 32 32 32s32 -14.2998 32 -32zM64 -32c-14.291 0 -27.4961 7.62402 -34.6416 20s-7.14551 27.624 0 40s20.3506 20 34.6416 20s27.4961 -7.62402 34.6416 -20
s7.14551 -27.624 0 -40s-20.3506 -20 -34.6416 -20z" />
    <glyph glyph-name="ditto" unicode="ditto" horiz-adv-x="320" 
d="M0 352c0 35.2998 28.7002 64.1016 64 64.1016s64 -28.7002 64 -64v-2.2998c0 -3.90039 -0.299805 -7.60059 -1 -11.4004l-25.5 -146.9c-3.2002 -18.2002 -19 -31.5 -37.5 -31.5s-34.2998 13.2998 -37.5 31.5l-25.5 146.8c-0.700195 3.7998 -1 7.59961 -1 11.3994v2.2998z
M192 352.002v0.101562c0 35.2998 28.7002 64 64 64s64 -28.7002 64 -64v-2.2998c0 -3.90039 -0.299805 -7.60059 -1 -11.4004l-25.5 -146.9c-3.2002 -18.2002 -19 -31.5 -37.5 -31.5s-34.2998 13.2998 -37.5 31.5l-25.5 146.8c-0.700195 3.7998 -1 7.59961 -1 11.3994
v2.2998zM192 352.004z" />
    <glyph glyph-name="hashtag" unicode="hashtag" horiz-adv-x="448" 
d="M181.3 415.6l-0.100586 0.000976562c-17.4004 2.90039 -33.9004 -8.89941 -36.8008 -26.2998l-11.5 -69.2998h-68.9004c-17.7002 0 -32 -14.2998 -32 -32s14.2998 -32 32 -32h58.2002l-21.2998 -128h-68.9004c-17.7002 0 -32 -14.2998 -32 -32s14.2998 -32 32 -32
h58.2002l-9.59961 -58.9004c-2.90039 -17.4004 8.89941 -33.9004 26.2998 -36.8008s33.9004 8.89941 36.8008 26.2998l11.5 69.2998h95.0996l-9.7998 -58.7002c-2.90039 -17.4004 8.89941 -33.9004 26.2998 -36.8008s33.9004 8.89941 36.8008 26.2998l11.5 69.2998h68.9004
c17.7002 0 32 14.2998 32 32s-14.2998 32 -32 32h-58.2002l21.2998 128h68.9004c17.7002 0 32 14.2998 32 32s-14.2998 32 -32 32h-58.2002l9.7002 58.7998c2.90039 17.4004 -8.89941 33.9004 -26.2998 36.8008s-33.9004 -8.89941 -36.8008 -26.2998l-11.5 -69.2998
h-95.0996l9.7998 58.7998c2.90039 17.4004 -8.89941 33.9004 -26.2998 36.8008zM187.099 256.001h95.0996l-21.2998 -128h-95.0996s15.5 287.6 21.2998 128zM187.099 256.001z" />
    <glyph glyph-name="dollar-sign" unicode="dollar&#x2d;sign" horiz-adv-x="320" 
d="M160 448c-17.7002 0 -32.001 -14.2998 -32.001 -32v-35.2998c-15.2998 -2.09961 -29.8994 -5.69922 -43.1992 -10.999c-32.5 -12.9004 -61.0996 -37.7002 -68.2998 -75.9004c-4 -21.2998 -2.2998 -41.2998 6.10059 -59.2002
c8.2998 -17.5996 21.5996 -30.2998 35.7998 -39.5996c26 -17 61 -26.2998 89.5 -34.0996v0l2.7998 -0.700195c32.5 -8.59961 57.5996 -15.5996 74 -26.2998c7.40039 -4.90039 11.1006 -9.30078 13.001 -13.3008c1.7002 -3.7002 3.2002 -9.7998 1.2998 -20.3994
c-2.2002 -12 -9.90039 -22 -26.8008 -28.9004c-17.7998 -7.2998 -44.0996 -10 -76 -5.2998c-19.9004 3.09961 -54.3008 12.2998 -75.2012 21.5996c-16.0996 7.2002 -35 -0.0996094 -42.2002 -16.1992s0.0996094 -35 16.1992 -42.2002c27 -12 67.0996 -22.5 91.5 -26.2998v0
h0.200195c0.400391 -0.0996094 0.900391 -0.0996094 1.30078 -0.199219v-34.9004c0 -17.7002 14.2998 -32 32 -32s32 14.2998 32 32v33.4004c15.7998 1.7998 30.7002 5.39941 44.4004 10.999c32.5 13.2998 58.7002 38.7002 65.6006 76.7002
c3.90039 21.2998 2.10059 41.2998 -6.39941 59.2002c-8.2998 17.5996 -21.7002 30.1992 -35.9004 39.499c-26 17 -61 26.2002 -89.5996 33.7998l-2.90039 0.799805c-32.4004 8.59961 -57.4004 15.5996 -73.7002 26.2998c-7.2998 4.90039 -11 9.30078 -12.7998 13.2012
c-1.7002 3.7002 -3.2002 9.7002 -1.2002 20.4004c1.7998 9.7998 9.59961 20.3994 29 28.0996s47 10.7998 78.2998 6.2002l47.5 -8.7002c17.2998 -3.2002 34 8.39941 37.2002 25.6992s-8.2998 34 -25.7002 37.2002l-48 8.7998
c-0.400391 0.0996094 -0.700195 0.0996094 -1.10059 0.199219c-1.59961 0.299805 -3.09961 0.5 -4.69922 0.700195v35.7002c0 17.7002 -14.2998 32 -32 32z" />
    <glyph glyph-name="percent" unicode="percentage" horiz-adv-x="384" 
d="M374.6 329.4l-320 -320c-12.5 -12.5 -32.7998 -12.5 -45.2998 0s-12.5 32.7998 0 45.2998l320 320c12.5 12.5 32.7998 12.5 45.2998 0s12.5 -32.7998 0 -45.2998zM128 320c0 -22.8652 -12.1982 -43.9932 -32 -55.4258s-44.1982 -11.4326 -64 0s-32 32.5605 -32 55.4258
s12.1982 43.9932 32 55.4258s44.1982 11.4326 64 0s32 -32.5605 32 -55.4258zM384 64c0 -22.8652 -12.1982 -43.9932 -32 -55.4258s-44.1982 -11.4326 -64 0s-32 32.5605 -32 55.4258s12.1982 43.9932 32 55.4258s44.1982 11.4326 64 0s32 -32.5605 32 -55.4258z" />
    <glyph glyph-name="ampersand" unicode="ampersand" horiz-adv-x="448" 
d="M180.7 352l0.0996094 0.000976562c-20.2998 0 -36.7002 -16.4004 -36.7002 -36.7002c0 -9.40039 3.59961 -18.4004 10 -25.2002l39 -41.2998l48 36c9.40039 7.09961 14.9004 18.0996 14.9004 29.8994c0 20.5996 -16.7002 37.2998 -37.2998 37.2998h-38zM237.3 202.001
l67.2998 -71.3984l52.7002 79.0996c9.7998 14.7002 29.7002 18.7002 44.4004 8.90039s18.7002 -29.7002 8.90039 -44.4004l-60.9004 -91.4004l57.5 -60.9004c12.0996 -12.7998 11.5 -33.0996 -1.2998 -45.1992s-33.0996 -11.5 -45.1992 1.2998l-47.4004 50.2998
l-6.90039 -10.4004c-20.7998 -31.2002 -55.7998 -49.9004 -93.2002 -49.9004h-74.5c-58.9004 0 -106.7 47.7998 -106.7 106.7c0 33.5 15.7998 65.2002 42.7002 85.2998l66.7998 50.2002l-34 36c-17.7002 18.7002 -27.5 43.4004 -27.5 69.1006
c0 55.5996 45.0996 100.699 100.699 100.699h38c55.9004 0 101.301 -45.4004 101.301 -101.301c0 -31.9004 -15 -62 -40.5 -81.0996c0 0 -98.7998 118.4 -42.2002 -31.5996zM185.8 163.403c51.5 38.5996 0.000976562 -0.100586 0.000976562 -0.100586l-72.7002 -54.5
c-10.7998 -8 -17.0996 -20.7002 -17.0996 -34.1006c0 -23.5996 19.0996 -42.6992 42.6992 -42.6992h74.5c16 0 31 8 39.9004 21.4004l15.0996 22.5996s-30.9004 126 -82.4004 87.4004zM185.801 163.402z" />
    <glyph glyph-name="apostrophe" unicode="apostrophe" horiz-adv-x="192" 
d="M72 96h-8c-17.7002 0 -32 14.2998 -32 32s14.2998 32 32 32h8c30.9004 0 56 25.0996 56 56v8h-64c-35.2998 0 -64 28.7002 -64 64v64c0 35.2998 28.7002 64 64 64h64c35.2998 0 64 -28.7002 64 -64v-32v-32v-72c0 -66.2998 -53.7002 -120 -120 -120z" />
    <glyph glyph-name="bracket-round" unicode="bracket&#x2d;round" horiz-adv-x="192" 
d="M154.6 401.8v-0.101562c-9.7998 14.7002 -29.7002 18.7002 -44.4004 8.90039c-38.2998 -25.5 -110.2 -102.8 -110.2 -218.6s71.9004 -193.1 110.301 -218.699c14.7002 -9.7998 34.6006 -5.7998 44.4004 8.90039s5.7998 34.6006 -8.90039 44.4004
c-25.7002 17.0996 -81.7998 76.3994 -81.7998 165.399s56.0996 148.3 81.6992 165.399c14.7002 9.7998 18.7002 29.7002 8.90039 44.4004zM154.6 401.798z" />
    <glyph glyph-name="bracket-round-right" unicode="bracket&#x2d;round&#x2d;right" horiz-adv-x="192" 
d="M37.4004 401.8c9.7998 14.7002 29.6006 18.6006 44.4004 8.80078c38.2998 -25.5 110.2 -102.8 110.2 -218.6s-71.9004 -193 -110.301 -218.7c-14.7002 -9.7998 -34.6006 -5.7998 -44.4004 8.90039s-5.7998 34.6006 8.90039 44.4004
c25.7002 17.0996 81.7998 76.3994 81.7998 165.399s-56.0996 148.3 -81.6992 165.399c-14.7998 9.7998 -18.7002 29.5996 -8.90039 44.3994z" />
    <glyph glyph-name="asterisk" unicode="asterisk" horiz-adv-x="384" 
d="M192 416c-17.7002 0 -32 -14.2998 -32 -32v-135.5l-111.6 67c-15.2002 9.09961 -34.7998 4.19922 -43.8994 -11.001s-4.19922 -34.7998 11.001 -43.8994l114.3 -68.5996l-114.2 -68.5c-15.2002 -9.09961 -20.1006 -28.6992 -11.001 -43.8994
s28.6992 -20.1006 43.8994 -11.001l111.5 66.9004v-135.5c0 -17.7002 14.2998 -32 32 -32s32 14.2998 32 32v135.5l111.6 -67c15.2002 -9.09961 34.7998 -4.19922 43.8994 11.001s4.19922 34.7998 -11.001 43.8994l-114.3 68.5996l114.2 68.5
c15.2002 9.09961 20.1006 28.6992 11.001 43.8994s-28.6992 20.1006 -43.8994 11.001l-111.5 -66.9004v135.5c0 17.7002 -14.2998 32 -32 32z" />
    <glyph glyph-name="plus" unicode="add" horiz-adv-x="448" 
d="M256 368v-144h144c17.7002 0 32 -14.2998 32 -32s-14.2998 -32 -32 -32h-144v-144c0 -17.7002 -14.2998 -32 -32 -32s-32 14.2998 -32 32v144h-144c-17.7002 0 -32 14.2998 -32 32s14.2998 32 32 32h144v144c0 17.7002 14.2998 32 32 32s32 -14.2998 32 -32z" />
    <glyph glyph-name="comma" unicode="comma" horiz-adv-x="192" 
d="M160 97.5996c0 -11.5 -3.20117 -22.7988 -9.20117 -32.5986l-68.2998 -111.8c-6.5 -10.7002 -18.0996 -17.2002 -30.5996 -17.2002c-19.7998 0 -35.8994 16.0996 -35.8994 35.7998v8.2002c0 2.7002 0.200195 5.2998 0.700195 7.89941l22.2002 122
c5.2998 29 30.5996 50.0996 60.0996 50.0996c33.7002 0 61 -27.2998 61 -61v-1.40039z" />
    <glyph glyph-name="hyphen" unicode="hyphen" horiz-adv-x="320" 
d="M0 192c0 -17.7002 14.2998 -32 32 -32h256c17.7002 0 32 14.2998 32 32s-14.2998 32 -32 32h-256c-17.7002 0 -32 -14.2998 -32 -32z" />
    <glyph glyph-name="period" unicode="period" horiz-adv-x="192" 
d="M32 32c0 -22.8652 12.1982 -43.9932 32 -55.4258s44.1982 -11.4326 64 0s32 32.5605 32 55.4258s-12.1982 43.9932 -32 55.4258s-44.1982 11.4326 -64 0s-32 -32.5605 -32 -55.4258z" />
    <glyph glyph-name="slash-forward" unicode="slash&#x2d;forward" horiz-adv-x="320" 
d="M303.9 443.8c-15.4004 8.7998 -34.9004 3.39941 -43.7002 -11.9004l-256 -448c-8.7998 -15.4004 -3.5 -34.9004 11.9004 -43.7002s34.9004 -3.39941 43.7002 11.9004l256 448c8.7998 15.4004 3.39941 34.9004 -11.9004 43.7002z" />
    <glyph glyph-name="colon" unicode="colon" horiz-adv-x="192" 
d="M96 256c-22.8652 0 -43.9932 12.1982 -55.4258 32s-11.4326 44.1982 0 64s32.5605 32 55.4258 32s43.9932 -12.1982 55.4258 -32s11.4326 -44.1982 0 -64s-32.5605 -32 -55.4258 -32zM96 0c-22.8652 0 -43.9932 12.1982 -55.4258 32s-11.4326 44.1982 0 64
s32.5605 32 55.4258 32s43.9932 -12.1982 55.4258 -32s11.4326 -44.1982 0 -64s-32.5605 -32 -55.4258 -32z" />
    <glyph glyph-name="semicolon" unicode="semicolon" horiz-adv-x="192" 
d="M96 384c-22.8652 0 -43.9932 -12.1982 -55.4258 -32s-11.4326 -44.1982 0 -64s32.5605 -32 55.4258 -32s43.9932 12.1982 55.4258 32s11.4326 44.1982 0 64s-32.5605 32 -55.4258 32zM150.8 65c6 9.7998 9.2002 21.2002 9.2002 32.7002
c0 34.2002 -27.7002 62.2998 -61.9004 62.2998c-29.2002 0 -54.5 -20.4004 -60.5996 -49l-27.0996 -126.6c-5.40039 -24.9004 13.5996 -48.4004 39.0996 -48.4004c14 0 26.9004 7.2998 34.2002 19.2002z" />
    <glyph glyph-name="less-than" unicode="less&#x2d;than" horiz-adv-x="384" 
d="M380.6 366.3c-7.90039 15.7998 -27.1006 22.1982 -42.9004 14.2979l-320 -160c-10.9004 -5.40039 -17.7002 -16.5 -17.7002 -28.5996s6.7998 -23.1992 17.7002 -28.5996l320 -160c15.7998 -7.90039 35 -1.5 42.9004 14.2998s1.5 35 -14.2998 42.9004l-262.7 131.4
l262.7 131.4c15.7998 7.90039 22.2002 27.1006 14.2998 42.9004z" />
    <glyph glyph-name="equals" unicode="equals" horiz-adv-x="448" 
d="M48 320h352c17.7002 0 32 -14.2998 32 -32s-14.2998 -32 -32 -32h-352c-17.7002 0 -32 14.2998 -32 32s14.2998 32 32 32zM48 128h352c17.7002 0 32 -14.2998 32 -32s-14.2998 -32 -32 -32h-352c-17.7002 0 -32 14.2998 -32 32s14.2998 32 32 32z" />
    <glyph glyph-name="greater-than" unicode="greater&#x2d;than" horiz-adv-x="384" 
d="M3.40039 366.3c7.90039 15.7998 27.1006 22.1982 42.9004 14.2979l320 -160c10.9004 -5.40039 17.7002 -16.5 17.7002 -28.5996s-6.90039 -23.1992 -17.7002 -28.5996l-320 -160c-15.7998 -7.90039 -35 -1.5 -42.9004 14.2998s-1.5 35 14.2998 42.9004l262.8 131.4
l-262.8 131.4c-15.7998 7.90039 -22.2002 27.1006 -14.2998 42.9004zM3.40039 366.298z" />
    <glyph glyph-name="question" unicode="question" horiz-adv-x="320" 
d="M80 288c0 -17.7002 -14.2998 -32.001 -32 -32.001s-32 14.2998 -32 32c0 70.7002 57.2998 128 128 128.1h32c70.7002 0 128 -57.2998 128 -128v-3.59961c0 -43.5996 -22.2002 -84.0996 -58.7998 -107.699l-42.2002 -27.0996c-6.7998 -4.40039 -11 -12 -11 -20.2002
v-1.40039c0 -17.7002 -14.2998 -32 -32 -32s-32 14.2998 -32 32v1.40039c0 29.9004 15.2002 57.8008 40.4004 74.001l42.2002 27.0996c18.2998 11.7002 29.3994 32 29.3994 53.7998v3.59961c0 35.2998 -28.7002 64 -64 64h-32c-35.2998 0 -64 -28.7002 -64 -64zM160 -32.001
c-14.291 0 -27.4961 7.62402 -34.6416 20s-7.14551 27.624 0 40s20.3506 20 34.6416 20s27.4961 -7.62402 34.6416 -20s7.14551 -27.624 0 -40s-20.3506 -20 -34.6416 -20z" />
    <glyph glyph-name="at" unicode="at" 
d="M256 384c106 0 192.002 -86.001 192.002 -192.001v-32c0 -17.7002 -14.2998 -32 -32 -32s-32 14.2998 -32 32v32v80c0 17.7002 -14.2998 32 -32 32c-8.2002 0 -15.6006 -3.09961 -21.3008 -8.09961c-21 15.2002 -46.7998 24.1006 -74.7002 24.1006
c-70.7002 0 -128 -57.2998 -128 -128s57.2998 -128 128 -128c33.5 0 64 12.9004 86.7998 33.9004c17.5996 -20.7002 43.8994 -33.9004 73.1992 -33.9004c53 0 96 43 96 96v32c0 141.4 -114.6 256 -256 256s-256 -114.6 -256 -256s114.6 -256 256 -256
c17.7002 0 32 14.2998 32 32s-14.2998 32 -32 32c-106 0 -192 86 -192 192s86 192 192 192zM320.002 191.999c0 -22.8652 -12.1982 -43.9932 -32 -55.4258s-44.1982 -11.4326 -64 0s-32 32.5605 -32 55.4258s12.1982 43.9932 32 55.4258s44.1982 11.4326 64 0
s32 -32.5605 32 -55.4258z" />
    <glyph glyph-name="bracket-square" unicode="bracket&#x2d;square" horiz-adv-x="192" 
d="M0 352v-320c0 -35.2998 28.7002 -64 64 -64h64c17.7002 0 32 14.2998 32 32s-14.2998 32 -32 32h-64v320h64c17.7002 0 32 14.2998 32 32s-14.2998 32 -32 32h-64c-35.2998 0 -64 -28.7002 -64 -64z" />
    <glyph glyph-name="slash-back" unicode="slash&#x2d;back" horiz-adv-x="320" 
d="M16.0996 443.8c15.4004 8.7998 34.9004 3.39941 43.7002 -11.9004l256 -448c8.7998 -15.4004 3.5 -34.9004 -11.9004 -43.7002s-34.9004 -3.39941 -43.7002 11.9004l-256 448c-8.7998 15.4004 -3.39941 34.9004 11.9004 43.7002z" />
    <glyph glyph-name="bracket-square-right" unicode="bracket&#x2d;square&#x2d;right" horiz-adv-x="192" 
d="M192 352v-320c0 -35.2998 -28.7002 -64 -64 -64h-64c-17.7002 0 -32 14.2998 -32 32s14.2998 32 32 32h64v320h-64c-17.7002 0 -32 14.2998 -32 32s14.2998 32 32 32h64c35.2998 0 64 -28.7002 64 -64z" />
    <glyph glyph-name="accent-grave" unicode="accent&#x2d;grave" horiz-adv-x="192" 
d="M108.3 243.2c7.2998 -11.9004 20.2012 -19.2002 34.2012 -19.2002c25.5 0 44.5 23.5 39.0996 48.4004l-27.0996 126.6c-6.2002 28.5996 -31.4004 49 -60.6006 49c-34.2002 0 -61.9004 -28.0996 -61.9004 -62.2998c0 -11.5 3.2002 -22.9004 9.2002 -32.7002z" />
    <glyph glyph-name="bracket-curly" unicode="bracket&#x2d;curly&#x2d;left" horiz-adv-x="256" 
d="M64 320l0.0996094 -37.4014c0 -8.5 -3.40039 -16.5996 -9.40039 -22.5996l-45.2998 -45.2998c-12.5 -12.5 -12.5 -32.7998 0 -45.2998l45.2002 -45.2998c6 -6 9.40039 -14.0996 9.40039 -22.5996v-37.5c0 -53 43 -96 96 -96h32c17.7002 0 32 14.2998 32 32
s-14.2998 32 -32 32h-32c-17.7002 0 -32 14.2998 -32 32v37.5c0 25.5 -10.0996 49.9004 -28.0996 67.9004l-22.5996 22.5996l22.5996 22.5996c18 18 28.0996 42.4004 28.0996 67.9004v37.5c0 17.7002 14.2998 32 32 32h32c17.7002 0 32 14.2998 32 32s-14.2998 32 -32 32
h-32c-53 0 -96 -43 -96 -96z" />
    <glyph glyph-name="pipe" unicode="pipe" horiz-adv-x="64" 
d="M32 448c-17.7002 0 -32 -14.2998 -32 -32v-448c-0 -17.7002 14.2998 -32 32 -32s32 14.2998 32 32v448c0 17.7002 -14.2998 32 -32 32z" />
    <glyph glyph-name="bracket-curly-right" unicode="bracket&#x2d;curly&#x2d;right" horiz-adv-x="256" 
d="M192 320v0.0986328v-37.5c0 -8.5 3.40039 -16.5996 9.40039 -22.5996l45.2998 -45.2998c12.5 -12.5 12.5 -32.7998 0 -45.2998l-45.2998 -45.2998c-6 -6 -9.40039 -14.0996 -9.40039 -22.5996v-37.5c0 -53 -43 -96 -96 -96h-32c-17.7002 0 -32 14.2998 -32 32
s14.2998 32 32 32h32c17.7002 0 32 14.2998 32 32v37.5c0 25.5 10.0996 49.9004 28.0996 67.9004l22.5996 22.5996l-22.5996 22.5996c-18 18 -28.0996 42.4004 -28.0996 67.9004v37.5c0 17.7002 -14.2998 32 -32 32h-32c-17.7002 0 -32 14.2998 -32 32s14.2998 32 32 32h32
c53 0 96 -43 96 -96zM192 319.999z" />
    <glyph glyph-name="tilde" unicode="tilde" horiz-adv-x="448" 
d="M99.9004 256c9.5 0 18.7002 -3.7998 25.4004 -10.5l152.2 -152.2c18.7002 -18.7998 44.1006 -29.2998 70.6006 -29.2998c55.2002 0 99.9004 44.7002 99.9004 99.9004v92.0996c0 17.7002 -14.2998 32 -32 32s-32 -14.2998 -32 -32v-92.0996
c0 -19.7998 -16.0996 -35.8994 -35.8994 -35.8994c-9.5 0 -18.7002 3.7998 -25.4004 10.5l-152.2 152.2c-18.7002 18.7998 -44.1006 29.2998 -70.6006 29.2998c-55.2002 0 -99.9004 -44.7002 -99.9004 -99.9004v-92.0996c0 -17.7002 14.2998 -32 32 -32s32 14.2998 32 32
v92.0996c0 19.7998 16.0996 35.8994 35.8994 35.8994z" />
    <glyph glyph-name="caravan-simple" unicode="caravan&#x2d;simple" horiz-adv-x="640" 
d="M80 416h336c88.4004 0 160 -71.5996 160 -160v-160h32c17.7002 0 32 -14.2998 32 -32s-14.2998 -32 -32 -32h-32h-288c0 -53 -43 -96 -96 -96s-96 43 -96 96h-16c-44.2002 0 -80 35.7998 -80 80v224c-0 44.2002 35.7998 80 80 80zM64 288v-64
c0 -17.7002 14.2998 -32 32 -32h128c17.7002 0 32 14.2998 32 32v64c0 17.7002 -14.2998 32 -32 32h-128c-17.7002 0 -32 -14.2998 -32 -32zM352 320c-17.7002 0 -32 -14.2998 -32 -32v-64c0 -17.7002 14.2998 -32 32 -32h64c17.7002 0 32 14.2998 32 32v64
c0 17.7002 -14.2998 32 -32 32h-64zM144 32c0 -17.1484 9.14844 -32.9941 24 -41.5684s33.1494 -8.57422 48.001 0s24 24.4199 24 41.5684s-9.14844 32.9941 -24 41.5684s-33.1494 8.57422 -48.001 0s-24 -24.4199 -24 -41.5684z" />
    <glyph glyph-name="cat-space" unicode="cat&#x2d;space" horiz-adv-x="640" 
d="M576 288c0 32.5 -12.0996 62.0996 -32 84.6992v-84.7002c0 -53 -43 -96 -96 -96s-96 43 -96 96v84.7002c-19.9004 -22.5996 -32 -52.1992 -32 -84.6992c0 -70.7002 57.2998 -128 128 -128s128 57.2998 128 128zM411.2 358.4c3 -4 7.7998 -6.40039 12.7998 -6.40039h48
c5 0 9.7998 2.40039 12.7998 6.40039l29.4004 39.2002c-19.2998 11.7002 -42 18.4004 -66.2002 18.4004s-46.9004 -6.7002 -66.2002 -18.4004zM480 131.2l-0.000976562 -163.2c0 -17.7002 -14.2998 -32 -32 -32s-32 14.2998 -32 32v140.8l-136 -108.8h56
c17.7002 0 32 -14.2998 32 -32s-14.2998 -32 -32 -32h-144c-53 0 -96 43 -96 96l-0.0996094 223.5c0 16.2002 -12 29.7998 -28 31.7998l-7.90039 1c-17.5996 2.2002 -30 18.2002 -27.7998 35.7002s18.2002 29.9004 35.7998 27.7002l7.90039 -1
c48 -6 84.0996 -46.9004 84.0996 -95.3008v-85.2998c29.4004 44.2998 76.7002 75.7002 131.601 83.7998c-2.2998 11 -3.59961 22.4004 -3.59961 34.1006c0 88.4004 71.5996 160 160 160s160 -71.5996 160 -160c0 -77.4004 -55 -142 -128 -156.8zM399.999 288
c0 -8.83691 7.16309 -16 16 -16s16 7.16309 16 16s-7.16309 16 -16 16s-16 -7.16309 -16 -16zM479.999 304c-8.83691 0 -16 -7.16309 -16 -16s7.16309 -16 16 -16s16 7.16309 16 16s-7.16309 16 -16 16zM231.499 435.7l10.7002 -28.7998
c0.799805 -2.2002 2.5 -3.90039 4.7002 -4.7002l28.7998 -10.7002c7 -2.59961 7 -12.3994 0 -14.999l-28.7998 -10.7002c-2.2002 -0.799805 -3.90039 -2.5 -4.7002 -4.7002l-10.7002 -28.7998c-2.59961 -7 -12.3994 -7 -14.999 0l-10.7002 28.7998
c-0.799805 2.2002 -2.5 3.90039 -4.7002 4.7002l-28.7998 10.7002c-7 2.59961 -7 12.3994 0 14.999l28.7998 10.7002c2.2002 0.799805 3.90039 2.5 4.7002 4.7002l10.7002 28.7998c2.59961 7 12.3994 7 14.999 0z" />
    <glyph glyph-name="coffee-pot" unicode="coffee&#x2d;pot" 
d="M64 320v-64c0 -17.7002 -14.2998 -32 -32 -32s-32 14.2998 -32 32v64c0 53 43 96 96 96h26.7998h69.2002h261.2c14.7998 0 26.7998 -12 26.7998 -26.7998c0 -3.40039 -0.599609 -6.80078 -1.89941 -10.001l-44.9004 -112.1
c47.7998 -35 78.7998 -91.4004 78.7998 -155.101v-8c0 -55.5 -34.5996 -99.4004 -55.8994 -121.2c-10 -10.0996 -23.9004 -14.7998 -38.1006 -14.7998h-260c-14.2002 0 -28.2002 4.59961 -38.1006 14.7998c-21.2998 21.7998 -55.8994 65.7002 -55.8994 121.2v8
c0 63.7002 31 120.101 78.7998 155.101l-34 84.9004h-12.7998c-17.7002 0 -32 -14.2998 -32 -32zM129 128h318.002c-5.2002 41.4004 -30.1006 76.6006 -65.001 96.001h-188c-34.9004 -19.4004 -59.8008 -54.6006 -65.001 -96.001z" />
    <glyph glyph-name="comet" unicode="comet" 
d="M299.4 372.4l2.29883 29.2988c1 12.9004 -12.9004 21.6006 -24 15.1006l-176.4 -102.1c-62.7002 -36.2998 -101.3 -103.3 -101.3 -175.7c0 -112.1 90.9004 -203 203 -203c72.4004 0 139.301 38.5996 175.601 101.3l102.2 176.4c6.40039 11.2002 -2.2998 25 -15.0996 24
l-29.2998 -2.2998l74.7002 194.3c0.599609 1.5 0.899414 3.09961 0.899414 4.7998c0 7.5 -6 13.5 -13.5 13.5c-1.59961 0 -3.2998 -0.299805 -4.7998 -0.899414zM191.999 247.999c107.4 124.4 -0.0986328 0 -0.0986328 0c6 0 11.5996 -3.40039 14.2998 -8.90039
l29.2002 -59.2002l65.2998 -9.5c6 -0.900391 11 -5.10059 12.9004 -10.9004s0.400391 -12.0996 -4 -16.3994l-47.2002 -46l11.2002 -65c1 -6.09961 -1.5 -12.0996 -6.40039 -15.6992s-11.4004 -4 -16.8008 -1.2002l-58.4004 30.7002l-58.5 -30.7002
c-5.2998 -2.90039 -11.7998 -2.40039 -16.7998 1.19922s-7.40039 9.69922 -6.40039 15.6992l11.2002 65l-47.2002 46c-4.2998 4.2002 -5.89941 10.6006 -3.99902 16.4004s6.90039 10 12.9004 10.9004l65.2998 9.5l29.2002 59.2002
c2.59961 5.40039 8.19922 8.90039 14.2988 8.90039zM192 247.999z" />
    <glyph glyph-name="fan-table" unicode="fan&#x2d;table" horiz-adv-x="448" 
d="M256 34.4004v-34.4004h96c17.7002 0 32 -14.2998 32 -32s-14.2998 -32 -32 -32h-128h-128c-17.7002 0 -32 14.2998 -32 32s14.2998 32 32 32h96v34.4004c-99.7002 15.4004 -176 101.601 -176 205.601c0 114.9 93.0996 208 208 208s208 -93.0996 208 -208
c0 -104 -76.2998 -190.2 -176 -205.601zM184.9 379.5c-3.2998 8.2002 -12.6006 12.1016 -20.8008 8.80176c-45.0996 -18.2002 -66.8994 -69.4004 -48.6992 -114.5c12.5996 -31.0996 40.8994 -51.0996 72.0996 -54.5l-64.7998 -82.9004
c-5.40039 -7 -4.2002 -17.0996 2.7998 -22.5c38.2998 -29.9004 93.5996 -23.1006 123.5 15.1992c20.7002 26.5 23.7998 61 11.2002 89.7002l104.2 -14.7002c8.7998 -1.2002 16.8994 4.7998 18.0996 13.5996c6.7998 48.0996 -26.7998 92.5996 -74.8994 99.3994
c-33.2998 4.7002 -64.7998 -9.7998 -83.2998 -35.0996zM223.999 224.001c-8.83691 0 -16 7.16309 -16 16s7.16309 16 16 16s16 -7.16309 16 -16s-7.16309 -16 -16 -16z" />
    <glyph glyph-name="faucet" unicode="faucet" 
d="M192 352c0 17.7002 14.2998 32 32 32s32 -14.2998 32 -32v-12l96 12c17.7002 0 32 -14.2998 32 -32s-14.2998 -32 -32 -32l-96 12l-31 3.90039l-1 0.0996094l-1 -0.0996094l-31 -3.90039l-96 -12c-17.7002 0 -32 14.2998 -32 32s14.2998 32 32 32l96 -12v12zM32 192
h96.001l22.7002 22.5996c6 6 14.0996 9.40039 22.5996 9.40039h18.7002v43.7998l32 4l32 -4v-43.7998h18.7998c8.5 0 16.5996 -3.40039 22.5996 -9.40039l22.5996 -22.5996h32c88.4004 0 160 -71.5996 160 -160c0 -17.7002 -14.2998 -32 -32 -32h-64
c-17.7002 -0 -32 14.2998 -32 32s-14.2998 32 -32 32h-36.0996c-20.2002 -29 -53.9004 -48 -91.9004 -48s-71.7002 19 -91.9004 48h-100.1c-17.7002 0 -32 14.2998 -32 32v64c-0 17.7002 14.2998 32 32 32z" />
    <glyph glyph-name="faucet-drip" unicode="faucet&#x2d;drip" 
d="M224 448c-17.7002 0 -32 -14.2998 -32 -32v-12l-96 12c-17.7002 0 -32 -14.2998 -32 -32s14.2998 -32 32 -32l96 12l31 3.90039l1 0.0996094l1 -0.0996094l31 -3.90039l96 -12c17.7002 0 32 14.2998 32 32s-14.2998 32 -32 32l-96 -12v12c0 17.7002 -14.2998 32 -32 32z
M0 224l-0.000976562 -64c0 -17.7002 14.2998 -32 32 -32h100.1c20.2002 -29 53.9004 -48 91.9004 -48s71.7002 19 91.9004 48h36.0996c17.7002 0 32 -14.2998 32 -32s14.2998 -32 32 -32h64c17.7002 0 32 14.2998 32 32c0 88.4004 -71.5996 160 -160 160h-32
l-22.7998 22.5996c-6 6 -14.0996 9.40039 -22.5996 9.40039h-18.7002v43.7998l-32 4l-32 -4v-43.7998h-18.7002c-8.5 0 -16.5996 -3.40039 -22.5996 -9.40039l-22.5996 -22.5996h-96c-17.7002 0 -32 -14.2998 -32 -32zM436.799 24.5996l0.202148 0.000976562
l-18.2002 -42.4004c-1.7998 -4.2002 -2.7002 -8.60059 -2.7002 -13.1006v-1.2002c0 -17.7002 14.2998 -32 32 -32s32 14.2998 32 32v1.2002c0 4.5 -0.900391 9 -2.7002 13.0996l-18.2002 42.4004c-2 4.5 -6.2998 7.40039 -11.2002 7.40039
s-9.30078 -2.90039 -11.2012 -7.40039zM436.801 24.6006z" />
    <glyph glyph-name="galaxy" unicode="galaxy" 
d="M320 448c-106 0 -192 -86 -192 -192.1c0 -22.2002 3.7998 -43.6006 10.7998 -63.501c-38.2002 12.4004 -71.4004 38.1006 -93.1006 73.3008l-7.7002 12.5c-3.7998 6.09961 -10.3994 9.7998 -17.499 9.7998c-11.2998 0 -20.5 -9.2002 -20.5 -20.5v-11.5
c0 -106 86 -192 192 -191.9c22.2002 0 43.6006 3.7998 63.501 10.7998c-12.4004 -38.2002 -38.1006 -71.4004 -73.3008 -93.1006l-12.5 -7.7002c-6.09961 -3.7998 -9.7998 -10.3994 -9.7998 -17.499c0 -11.2998 9.2002 -20.5 20.5 -20.5h11.5c106 0 192 86 192 192
c0 22.2002 -3.7998 43.6006 -10.7998 63.501c38.2002 -12.4004 71.4004 -38.1006 93.1006 -73.3008l7.7002 -12.5c3.7998 -6.09961 10.3994 -9.7998 17.499 -9.7998c11.2998 0 20.5 9.2002 20.5 20.5v11.5c0 106 -86 192 -192 192
c-22.2002 0 -43.6006 -3.7998 -63.501 -10.7998c12.4004 38.2002 38.1006 71.4004 73.3008 93.1006l12.5 7.7002c6.09961 3.7998 9.7998 10.3994 9.7998 17.499c0 11.2998 -9.2002 20.5 -20.5 20.5h-11.5zM256 160c-17.6729 0 -32 14.3271 -32 32s14.3271 32 32 32
s32 -14.3271 32 -32s-14.3271 -32 -32 -32z" />
    <glyph glyph-name="garage" unicode="garage" horiz-adv-x="640" 
d="M0 276.7c0 26.0996 15.8994 49.7002 40.1992 59.4004l267.9 107.1c7.7002 3.09961 16.2002 3.09961 23.7998 0l267.9 -107.1c24.2998 -9.7002 40.2002 -33.2002 40.2002 -59.4004v-316.7c0 -13.2998 -10.7002 -24 -24 -24h-48c-13.2998 0 -24 10.7002 -24 24v264
c0 17.7002 -14.2998 32 -32 32h-384c-17.7002 0 -32 -14.2998 -32 -32v-264c0 -13.2998 -10.7002 -24 -24 -24h-48c-13.2998 0 -24 10.7002 -24 24v316.7zM127.999 224.001h384v-96h-384v96zM127.999 96.001h384v-160h-384v160zM255.999 16.001c0 -8.7998 7.2002 -16 16 -16
h96c8.7998 0 16 7.2002 16 16s-7.2002 16 -16 16h-96c-8.7998 0 -16 -7.2002 -16 -16z" />
    <glyph glyph-name="garage-car" unicode="garage&#x2d;car" horiz-adv-x="640" 
d="M0 -40c0 -13.2998 10.7012 -23.999 24.001 -23.999h48c13.2998 0 24 10.7002 24 24v264c0 17.7002 14.2998 32 32 32h384c17.7002 0 32 -14.2998 32 -32v-264c0 -13.2998 10.7002 -24 24 -24h48c13.2998 0 24 10.7002 24 24v316.7
c0 26.0996 -15.9004 49.6992 -40.2002 59.3994l-267.9 107.1c-7.7002 3.09961 -16.2002 3.09961 -23.7998 0l-267.9 -107.1c-24.2998 -9.7002 -40.2002 -33.2002 -40.2002 -59.4004v-316.7zM254.301 154.601h-0.0996094c1.2002 3.2002 4.2002 5.40039 7.60059 5.40039h116.3
c3.40039 0 6.5 -2.2002 7.59961 -5.40039l12.0996 -34.5996h-155.6zM188.9 113.001c-17.2002 -9.5 -28.8994 -27.9004 -28.8994 -49v-96c0 -17.7002 14.2998 -32 32 -32s32 14.2998 32 32v16h192v-16c0 -17.7002 14.2998 -32 32 -32s32 14.2998 32 32v96
c0 21.0996 -11.7002 39.5 -28.9004 49l-20 57.5c-7.90039 22.4004 -29.1006 37.5 -52.9004 37.5h-116.3c-23.7998 0 -45 -15 -52.9004 -37.5c0 0 45.3008 -15.9004 -20.0996 -57.5zM240.001 24.001c-13.2549 0 -24 10.7451 -24 24s10.7451 24 24 24s24 -10.7451 24 -24
s-10.7451 -24 -24 -24zM424.001 48.001c0 -13.2549 -10.7451 -24 -24 -24s-24 10.7451 -24 24s10.7451 24 24 24s24 -10.7451 24 -24z" />
    <glyph glyph-name="garage-open" unicode="garage&#x2d;open" horiz-adv-x="640" 
d="M0 276.7c0 26.0996 15.8994 49.7002 40.1992 59.4004l267.9 107.1c7.7002 3.09961 16.2002 3.09961 23.7998 0l267.9 -107.1c24.2998 -9.7002 40.2002 -33.2002 40.2002 -59.4004v-316.7c0 -13.2998 -10.7002 -24 -24 -24h-48c-13.2998 0 -24 10.7002 -24 24v264
c0 17.7002 -14.2998 32 -32 32h-384c-17.7002 0 -32 -14.2998 -32 -32v-264c0 -13.2998 -10.7002 -24 -24 -24h-48c-13.2998 0 -24 10.7002 -24 24v316.7zM194.099 128.001h0.0986328h50.7998l-2.7998 -8h155.6l-2.7998 8h50.9004l5.2002 -15
c17.2002 -9.5 28.9004 -27.9004 28.9004 -49v-96c0 -17.7002 -14.2998 -32 -32 -32s-32 14.2998 -32 32v16h-192v-16c0 -17.7002 -14.2998 -32 -32 -32s-32 14.2998 -32 32v96c0 21.0996 11.7002 39.5 28.9004 49zM239.998 72.001c-13.2549 0 -24 -10.7451 -24 -24
s10.7451 -24 24 -24s24 10.7451 24 24s-10.7451 24 -24 24zM375.998 48.001c0 -13.2549 10.7451 -24 24 -24s24 10.7451 24 24s-10.7451 24 -24 24s-24 -10.7451 -24 -24zM511.998 224.001v-64h-384v64h384z" />
    <glyph glyph-name="heat" unicode="heat" horiz-adv-x="448" 
d="M176 416c-17.7002 0 -32 -14.2998 -32 -32v-80c0 -48.5 15.7002 -95.5996 44.7998 -134.399l19.2002 -25.5996c20.7998 -27.7002 32 -61.4004 32 -96v-48c0 -17.7002 14.2998 -32 32 -32s32 14.2998 32 32v48c0 48.5 -15.7002 95.5996 -44.7998 134.399l-19.2002 25.5996
c-20.7998 27.7002 -32 61.4004 -32 96v80c0 17.7002 -14.2998 32 -32 32zM32 352c-17.7002 0 -32 -14.2998 -32 -32v-32c0 -48.5 15.7002 -95.5996 44.7998 -134.399l19.2002 -25.5996c20.7998 -27.7002 32 -61.4004 32 -96v-32c0 -17.7002 14.2998 -32 32 -32
s32 14.2998 32 32v32c0 48.5 -15.7002 95.5996 -44.7998 134.399l-19.2002 25.5996c-20.7998 27.7002 -32 61.4004 -32 96v32c0 17.7002 -14.2998 32 -32 32zM352 320c0 17.7002 -14.2998 32 -32 32s-32 -14.2998 -32 -32v-32c0 -48.5 15.7002 -95.5996 44.7998 -134.399
l19.2002 -25.5996c20.7998 -27.7002 32 -61.4004 32 -96v-32c0 -17.7002 14.2998 -32 32 -32s32 14.2998 32 32v32c0 48.5 -15.7002 95.5996 -44.7998 134.399l-19.2002 25.5996c-20.7998 27.7002 -32 61.4004 -32 96v32z" />
    <glyph glyph-name="house-chimney-window" unicode="house&#x2d;chimney&#x2d;window" horiz-adv-x="576" 
d="M575.8 192.5l-0.000976562 0.0996094c1 9 -3 17 -11 24l-52.7998 46.4004v121c0 17.7002 -14.2998 32 -32 32h-32c-17.7002 0 -32 -14.2998 -32 -32v-36.7002l-106.6 93.7002c-6 5 -14 7 -21 7s-15 -1 -22 -8l-256.3 -223.6c-7 -7 -10 -15 -10 -24
c0 -18.0996 14 -32.0996 32 -32.0996h32v-160.4c0 -35.2998 28.7002 -64 64 -64h320.4c35.5 0 64.2002 28.7998 64 64.2998l-0.700195 160.2h32c17 0 32 14.0996 32 32.0996zM247.999 256h80c13.2998 0 24 -10.7002 24 -24v-80c0 -13.2998 -10.7002 -24 -24 -24h-80
c-13.2998 0 -24 10.7002 -24 24v80c0 13.2998 10.7002 24 24 24z" />
    <glyph glyph-name="house-day" unicode="house&#x2d;day" horiz-adv-x="640" 
d="M174.2 439.7l27.6025 -51.2002l55.7002 16.5996c5.59961 1.7002 11.7998 0.200195 15.8994 -4s5.69922 -10.2998 3.99902 -15.8994l-16.7002 -55.7002l35.2998 -19l-64.7002 -59.7998c5.59961 10.9004 8.69922 23.2002 8.69922 36.2998c0 44.2002 -35.7998 80 -80 80
s-80 -35.7998 -80 -80s35.7998 -80 80 -80c10.7998 0 21.0996 2.09961 30.5 6l-57.4004 -53l-14.7002 27.2002l-55.7002 -16.7002c-5.59961 -1.7002 -11.7998 -0.200195 -15.8994 4s-5.69922 10.2998 -3.99902 15.8994l16.7002 55.7002l-51.2002 27.5996
c-5.2002 2.7998 -8.40039 8.2002 -8.40039 14.1006s3.2002 11.3008 8.40039 14.1006l51.2998 27.5996l-16.7002 55.7002c-1.7002 5.59961 -0.200195 11.7998 4 15.8994s10.2998 5.69922 15.8994 3.99902l55.5996 -16.5996l27.5996 51.2002
c2.7998 5.2002 8.2002 8.40039 14.1006 8.40039s11.3008 -3.2998 14.1006 -8.39941zM112.003 288c0 -17.1484 9.14844 -32.9941 24 -41.5684s33.1494 -8.57422 48.001 0s24 24.4199 24 41.5684s-9.14844 32.9941 -24 41.5684s-33.1494 8.57422 -48.001 0
s-24 -24.4199 -24 -41.5684zM421.703 343.5l207.998 -192c9.7002 -9 12.9004 -23 8.10059 -35.2002s-16.5996 -20.2998 -29.7998 -20.2998h-32v-112c0 -26.5 -21.5 -48 -48 -48h-256c-26.5 0 -48 21.5 -48 48v112h-32c-13.2002 0 -25 8 -29.7998 20.2998
s-1.59961 26.2998 8.10059 35.2002l208 192c12.2002 11.2998 31.1006 11.2998 43.4004 0zM352.001 144v-64c0 -8.7998 7.2002 -16 16 -16h64c8.7998 0 16 7.2002 16 16v64c0 8.7998 -7.2002 16 -16 16h-64c-8.7998 0 -16 -7.2002 -16 -16z" />
    <glyph glyph-name="house-person-leave" unicode="house&#x2d;person&#x2d;depart" horiz-adv-x="640" 
d="M218.3 439.5l-207.999 -192c-9.7002 -9 -12.9004 -23 -8.10059 -35.2002s16.5996 -20.2998 29.7998 -20.2998h32v-112c0 -26.5 21.5 -48 48 -48h205.5l44 44l32.5996 81.5996c-14.0996 -6.2998 -30.5 -7.59961 -46.2998 -2.2998
c-33.5996 11.2002 -51.6992 47.5 -40.499 81l2.59961 7.7998c12.0996 36.5 37 67.2002 69.5996 86.7002l-117.8 108.7c-12.2002 11.2998 -31.1006 11.2998 -43.4004 0zM128.001 240c0 8.7998 7.2002 16 16 16h64c8.7998 0 16 -7.2002 16 -16v-64
c0 -8.7998 -7.2002 -16 -16 -16h-64c-8.7998 0 -16 7.2002 -16 16v64zM528.001 448c-17.1484 0 -32.9941 -9.14844 -41.5684 -24s-8.57422 -33.1494 0 -48.001s24.4199 -24 41.5684 -24s32.9941 9.14844 41.5684 24s8.57422 33.1494 0 48.001s-24.4199 24 -41.5684 24z
M443.701 247.5l-0.200195 -0.00390625c1 0.400391 1.90039 0.800781 2.90039 1.20117l-16.9004 -63.5c-5.59961 -21.0996 -0.0996094 -43.5996 14.7002 -59.6992l70.7002 -77.0996l22 -88.0996c4.2998 -17.2002 21.5996 -27.6006 38.7998 -23.3008
s27.6006 21.7002 23.3008 38.7998l-23 92.0996c-2 7.7998 -5.7998 14.8994 -11.2002 20.7998l-49.5 54l19.2998 65.5l9.59961 -23c4.40039 -10.7002 12.5 -19.2998 22.7998 -24.5l26.7998 -13.2998c15.7998 -7.90039 35 -1.5 42.9004 14.2998s1.5 35 -14.2998 42.9004
l-21.4004 10.7002l-15.2998 36.9004c-17.0996 41.0996 -57.2998 67.8994 -101.899 67.8994c-22.7998 0 -45.2998 -4.7998 -66.0996 -14l-8 -3.5c-32.7998 -14.5996 -58 -42.3994 -69.4004 -76.499l-2.59961 -7.7998c-5.59961 -16.7998 3.40039 -34.8994 20.2002 -40.499
s34.8994 3.40039 40.499 20.2002l2.59961 7.7998c5.7002 17 18.2998 30.9004 34.7002 38.2002zM413.701 112.396l-24.999 -62.4004l-59.4004 -59.2998c-12.5 -12.5 -12.5 -32.7998 0 -45.2998s32.7998 -12.5 45.2998 0l61.7002 61.7002
c4.59961 4.59961 8.19922 10.0996 10.5996 16.0996l14.5 36.2002l-40.7002 44.4004c-2.5 2.7998 -4.90039 5.59961 -7 8.59961z" />
    <glyph glyph-name="house-night" unicode="house&#x2d;night" horiz-adv-x="640" 
d="M125.2 431.9l-0.0986328 0.00195312c-22.5 -16 -37.2002 -42.2002 -37.2002 -71.9004c0 -48.5996 39.4004 -88 88 -88c3.09961 0 6.09961 0.0996094 9 0.399414c7.59961 0.799805 13.7998 -7.60059 8.59961 -13.2002c-20.4004 -21.7002 -49.4004 -35.2002 -81.5 -35.2002
c-61.9004 0 -112 50.0996 -112 112s50.0996 112 112 112c3.7002 0 7.40039 -0.0996094 11 -0.5c7.59961 -0.799805 8.39941 -11.2002 2.19922 -15.6006zM263.501 435.702l11.9004 -32.2998l32.2998 -11.9004c7 -2.59961 7 -12.3994 0 -14.999l-32.2998 -11.9004
l-11.9004 -32.2998c-2.59961 -7 -12.3994 -7 -14.999 0l-11.9004 32.2998l-32.2998 11.9004c-7 2.59961 -7 12.3994 0 14.999l32.2998 11.9004l11.9004 32.2998c2.59961 7 12.3994 7 14.999 0zM421.701 343.502l207.998 -192c9.7002 -9 12.9004 -23 8.10059 -35.2002
s-16.5996 -20.2998 -29.7998 -20.2998h-32v-112c0 -26.5 -21.5 -48 -48 -48h-256c-26.5 0 -48 21.5 -48 48v112h-32c-13.2002 0 -25 8 -29.7998 20.2998s-1.59961 26.2998 8.10059 35.2002l208 192c12.2002 11.2998 31.1006 11.2998 43.4004 0zM351.999 144.002v-64
c0 -8.7998 7.2002 -16 16 -16h64c8.7998 0 16 7.2002 16 16v64c0 8.7998 -7.2002 16 -16 16h-64c-8.7998 0 -16 -7.2002 -16 -16zM88.499 115.702c2.59961 7 12.3994 7 14.999 0l11.9004 -32.2998l32.2998 -11.9004c7 -2.59961 7 -12.3994 0 -14.999l-32.2998 -11.9004
l-11.9004 -32.2998c-2.59961 -7 -12.3994 -7 -14.999 0l-11.9004 32.2998l-32.2998 11.9004c-7 2.59961 -7 12.3994 0 14.999l32.2998 11.9004zM88.499 115.702z" />
    <glyph glyph-name="house-person-return" unicode="house&#x2d;person&#x2d;return" horiz-adv-x="640" 
d="M218.3 439.5l-208 -192.002c-9.7002 -9 -12.9004 -23 -8.10059 -35.2002s16.5996 -20.2998 29.7998 -20.2998h32v-112c0 -26.5 21.5 -48 48 -48h230l11 43.4004c3.2002 13 9.60059 24.9004 18.6006 34.7002l6.7998 7.5
c-31.0996 -14.0996 -68.1992 -1.19922 -83.5996 29.7012c-15.7998 31.5996 -3 70.0996 28.5996 85.8994l10.7002 5.40039l10.7002 25.7998c9.7002 23.2002 25.1006 42.9004 44.1006 57.7002l-127.2 117.4c-12.2002 11.2998 -31.1006 11.2998 -43.4004 0zM128 239.998
c0 8.7998 7.2002 16 16 16h64c8.7998 0 16 -7.2002 16 -16v-64c0 -8.7998 -7.2002 -16 -16 -16h-64c-8.7998 0 -16 7.2002 -16 16v64zM432 447.998c-17.1484 0 -32.9941 -9.14844 -41.5684 -24s-8.57422 -33.1494 0 -48.001s24.4199 -24 41.5684 -24
s32.9941 9.14844 41.5684 24s8.57422 33.1494 0 48.001s-24.4199 24 -41.5684 24zM516.3 247.498v-0.0966797l8 -3.5c16.4004 -7.2998 29 -21.0996 34.7002 -38.1992l2.59961 -7.7998c5.59961 -16.7002 23.7998 -25.7998 40.5 -20.2002s25.7998 23.6992 20.2002 40.499
l-2.59961 7.7998c-11.2998 34.0996 -36.5 61.8994 -69.4004 76.499l-8 3.5c-20.7998 9.2002 -43.2998 14 -66.0996 14c-44.5996 0 -84.7998 -26.7998 -101.899 -67.8994l-15.2998 -36.7998l-21.5 -10.7002c-15.7998 -7.90039 -22.2002 -27.1006 -14.2998 -42.9004
s27.1006 -22.2002 42.9004 -14.2998l26.7002 13.2998c10.2998 5.2002 18.3994 13.9004 22.7998 24.5l9.59961 23l19.2998 -65.5l-49.5 -54c-5.40039 -5.90039 -9.30078 -13 -11.2012 -20.7998l-23 -92.0996c-4.2998 -17.0996 6.2002 -34.5 23.2998 -38.7998
s34.5 6.2002 38.7998 23.2998l22 88.0996l70.7002 77.0996c14.7998 16.0996 20.2998 38.5996 14.7002 59.6992l-16.9004 63.5c1 -0.400391 1.90039 -0.800781 2.90039 -1.20117zM546.3 112.401c-30 135.1 0.000976562 -0.0996094 0.000976562 -0.0996094
c-2.2002 -3 -4.5 -5.90039 -7 -8.60059l-40.7002 -44.4004l14.5 -36.2002c2.40039 -6 6 -11.5 10.5996 -16.0996l61.7002 -61.7002c12.5 -12.5 32.7998 -12.5 45.2998 0s12.5 32.7998 0 45.2998l-59.4004 59.4004s-55 197.5 -25 62.4004zM546.301 112.401z" />
    <glyph glyph-name="house-signal" unicode="house&#x2d;signal" horiz-adv-x="576" 
d="M357.7 439.5l207.999 -192.001c9.7002 -9 12.9004 -23 8.10059 -35.2002s-16.5996 -20.2998 -29.7998 -20.2998h-32v-112c0 -26.5 -21.5 -48 -48 -48l-185.9 -0.0996094c-24.7002 87.4004 -93.2002 156.301 -180.3 181.601c-4.2002 12 -0.900391 25.4004 8.5 34l208 192
c12.2002 11.2998 31.1006 11.2998 43.4004 0zM287.999 239.999v-64c0 -8.7998 7.2002 -16 16 -16h64c8.7998 0 16 7.2002 16 16v64c0 8.7998 -7.2002 16 -16 16h-64c-8.7998 0 -16 -7.2002 -16 -16zM23.999 191.999c128.1 0 232 -103.9 232 -232
c0 -13.2998 -10.7002 -24 -24 -24s-24 10.7002 -24 24c0 101.6 -82.4004 184 -184 184c-13.2998 0 -24 10.7002 -24 24s10.7002 24 24 24zM31.999 -64.001c-17.6729 0 -32 14.3271 -32 32s14.3271 32 32 32s32 -14.3271 32 -32s-14.3271 -32 -32 -32zM-0.000976562 71.999
c0 13.2998 10.7002 24 24 24c75.0996 0 136 -60.9004 136 -136c0 -13.2998 -10.7002 -24 -24 -24s-24 10.7002 -24 24c0 48.5996 -39.4004 88 -88 88c-13.2998 0 -24 10.7002 -24 24z" />
    <glyph glyph-name="lamp-desk" unicode="lamp&#x2d;desk" 
d="M192 382.1c0 -17.5 6.90137 -34.2988 19.3018 -46.6992l7.40039 -7.40039l-113.3 -113.4c-7.90039 -8 -11.1006 -19.5 -8.40039 -30.4004l46 -184.2h-111c-17.7002 0 -32 -14.2998 -32 -32s14.2998 -32 32 -32h151.3h1.40039h167.3c17.7002 0 32 14.2998 32 32
s-14.2998 32 -32 32h-143l-45.7002 182l92.5996 92.5996v-114.7c0 -13 7.7998 -24.5996 19.7998 -29.5996s25.7002 -2.2998 34.9004 6.90039l73.5 73.5l45.0996 45.0996l73.5 73.5c9.09961 9.2002 11.8994 22.9004 6.89941 34.9004s-16.7002 19.7998 -29.6006 19.7998
h-130.7l-44.7998 44.7002c-12.2998 12.4004 -29.0996 19.3008 -46.5996 19.3008c-36.4004 0 -65.9004 -29.5 -65.9004 -65.9004zM432.001 160.001c26.5 0 48 21.5 48 48c0 14.7002 -6.59961 27.7998 -16.8994 36.5996l-67.7002 -67.7002
c8.7998 -10.2998 21.8994 -16.8994 36.5996 -16.8994zM432.001 160.001z" />
    <glyph glyph-name="lamp-floor" unicode="lamp&#x2d;floor" horiz-adv-x="384" 
d="M66.2998 427.9l-64.002 -160c-4 -9.7998 -2.7998 -21 3.2002 -29.7998s15.9004 -14.0996 26.5 -14.0996h320c10.5996 0 20.5996 5.2998 26.5 14.0996s7.10059 19.8994 3.2002 29.7998l-64 160c-4.7998 12.0996 -16.5996 20.0996 -29.6992 20.0996h-192
c-13.0996 0 -24.8994 -8 -29.6992 -20.0996zM159.998 192v-192h-64c-17.7002 0 -32 -14.2998 -32 -32s14.2998 -32 32 -32h96h96c17.7002 0 32 14.2998 32 32s-14.2998 32 -32 32h-64v192s-157.7 235.9 -64 0z" />
    <glyph glyph-name="light-ceiling" unicode="light&#x2d;ceiling" 
d="M256 448c-17.7002 0 -31.999 -14.2998 -31.999 -32v-130c-115.8 -14.4004 -207.6 -106.2 -222 -222.101c-2.2002 -17.5 12.2998 -31.9004 30 -31.9004h448c17.5996 0 32.1992 14.4004 29.999 31.9004c-14.4004 115.8 -106.2 207.7 -222 222.101v130
c0 17.7002 -14.2998 32 -32 32zM256.001 -64c35.2998 0 64 28.7002 64 64h-128c0 -35.2998 28.7002 -64 64 -64z" />
    <glyph glyph-name="light-switch" unicode="light&#x2d;switch" horiz-adv-x="384" 
d="M64 448h256c35.2998 0 64 -28.7002 64 -64v-384c0 -35.2998 -28.7002 -64 -64 -64h-256c-35.2998 0 -64 28.7002 -64 64v384c0 35.2998 28.7002 64 64 64zM160 352c-35.2998 0 -64 -28.7002 -64 -64v-80h192v80c0 35.2998 -28.7002 64 -64 64h-64zM288 176h-192v-80
c0 -35.2998 28.7002 -64 64 -64h64c35.2998 0 64 28.7002 64 64v80zM192 416c-8.83691 0 -16 -7.16309 -16 -16s7.16309 -16 16 -16s16 7.16309 16 16s-7.16309 16 -16 16zM192 0c-8.83691 0 -16 -7.16309 -16 -16s7.16309 -16 16 -16s16 7.16309 16 16s-7.16309 16 -16 16z
" />
    <glyph glyph-name="light-switch-off" unicode="light&#x2d;switch&#x2d;off" horiz-adv-x="384" 
d="M64 -64h256c35.2998 0 64 28.7002 64 64v384c0 35.2998 -28.7002 64 -64 64h-256c-35.2998 0 -64 -28.7002 -64 -64v-384c0 -35.2998 28.7002 -64 64 -64zM160 32c-35.2998 0 -64 28.7002 -64 64v192c0 35.2998 28.7002 64 64 64h64c35.2998 0 64 -28.7002 64 -64v-192
c0 -35.2998 -28.7002 -64 -64 -64h-64zM192 0c8.83691 0 16 -7.16309 16 -16s-7.16309 -16 -16 -16s-16 7.16309 -16 16s7.16309 16 16 16zM192 416c8.83691 0 16 -7.16309 16 -16s-7.16309 -16 -16 -16s-16 7.16309 -16 16s7.16309 16 16 16zM160 64h64
c17.7002 0 32 14.2998 32 32v96h-128v-96c0 -17.7002 14.2998 -32 32 -32z" />
    <glyph glyph-name="light-switch-on" unicode="light&#x2d;switch&#x2d;on" horiz-adv-x="384" 
d="M64 448h256c35.2998 0 64 -28.7002 64 -64v-384c0 -35.2998 -28.7002 -64 -64 -64h-256c-35.2998 0 -64 28.7002 -64 64v384c0 35.2998 28.7002 64 64 64zM160 352c-35.2998 0 -64 -28.7002 -64 -64v-192c0 -35.2998 28.7002 -64 64 -64h64c35.2998 0 64 28.7002 64 64
v192c0 35.2998 -28.7002 64 -64 64h-64zM192 416c-8.83691 0 -16 -7.16309 -16 -16s7.16309 -16 16 -16s16 7.16309 16 16s-7.16309 16 -16 16zM192 0c-8.83691 0 -16 -7.16309 -16 -16s7.16309 -16 16 -16s16 7.16309 16 16s-7.16309 16 -16 16zM160 320h64
c17.7002 0 32 -14.2998 32 -32v-96h-128v96c0 17.7002 14.2998 32 32 32z" />
    <glyph glyph-name="microwave" unicode="microwave" horiz-adv-x="576" 
d="M0 352v-288c0 -35.2998 28.7002 -64 64 -64c0 -17.7002 14.2998 -32 32 -32s32 14.2998 32 32h320c0 -17.7002 14.2998 -32 32 -32s32 14.2998 32 32c35.2998 0 64 28.7002 64 64v288c0 35.2998 -28.7002 64 -64 64h-448c-35.2998 0 -64 -28.7002 -64 -64zM96 296
c0 13.2998 10.7002 24 24 24h272c13.2998 0 24 -10.7002 24 -24v-176c0 -13.2998 -10.7002 -24 -24 -24h-272c-13.2998 0 -24 10.7002 -24 24v176zM496 336c8.7998 0 16 -7.2002 16 -16v-224c0 -8.7998 -7.2002 -16 -16 -16s-16 7.2002 -16 16v224c0 8.7998 7.2002 16 16 16
z" />
    <glyph glyph-name="outlet" unicode="outlet" horiz-adv-x="448" 
d="M64 416h320c35.2998 0 64 -28.7002 64 -64v-320c0 -35.2998 -28.7002 -64 -64 -64h-320c-35.2998 0 -64 28.7002 -64 64v320c0 35.2998 28.7002 64 64 64zM64 192c0 -61.0996 30.7998 -99 49.7998 -116.6c8.7002 -8.09961 20.6006 -11.3994 32.6006 -11.3994h155.3
c11.9004 0 23.8008 3.2002 32.6006 11.4004c18.9004 17.5996 49.7002 55.5 49.7002 116.6s-30.7998 99.0996 -49.7998 116.6c-8.7002 8.09961 -20.6006 11.3994 -32.6006 11.3994h-155.3c-11.9004 0 -23.8008 -3.2002 -32.6006 -11.4004
c-18.9004 -17.5 -49.7002 -55.5 -49.7002 -116.6zM160 256c8.7998 0 16 -7.2002 16 -16v-48c0 -8.7998 -7.2002 -16 -16 -16s-16 7.2002 -16 16v48c0 8.7998 7.2002 16 16 16zM288 256c8.7998 0 16 -7.2002 16 -16v-48c0 -8.7998 -7.2002 -16 -16 -16s-16 7.2002 -16 16v48
c0 8.7998 7.2002 16 16 16zM224 160c13.2998 0 24 -10.7002 24 -24v-16c0 -4.40039 -3.59961 -8 -8 -8h-32c-4.40039 0 -8 3.59961 -8 8v16c0 13.2998 10.7002 24 24 24z" />
    <glyph glyph-name="oven" unicode="oven" horiz-adv-x="448" 
d="M0 352c0 53 43 96 96 96h256c53 0 96 -43 96 -96v-64h-448v64zM56 368c0 -13.2549 10.7451 -24 24 -24s24 10.7451 24 24s-10.7451 24 -24 24s-24 -10.7451 -24 -24zM176 392c-13.2549 0 -24 -10.7451 -24 -24s10.7451 -24 24 -24s24 10.7451 24 24s-10.7451 24 -24 24z
M248 368c0 -13.2549 10.7451 -24 24 -24s24 10.7451 24 24s-10.7451 24 -24 24s-24 -10.7451 -24 -24zM368 392c-13.2549 0 -24 -10.7451 -24 -24s10.7451 -24 24 -24s24 10.7451 24 24s-10.7451 24 -24 24zM384 192h-320v-192h320v192zM64 256h320h64v-64v-192
c0 -35.2998 -28.7002 -64 -64 -64h-320c-35.2998 0 -64 28.7002 -64 64v192v64h64zM112 160h224c8.7998 0 16 -7.2002 16 -16s-7.2002 -16 -16 -16h-224c-8.7998 0 -16 7.2002 -16 16s7.2002 16 16 16z" />
    <glyph glyph-name="planet-moon" unicode="planet&#x2d;moon" horiz-adv-x="576" 
d="M512 448c-22.8652 0 -43.9932 -12.1982 -55.4258 -32s-11.4326 -44.1982 0 -64s32.5605 -32 55.4258 -32s43.9932 12.1982 55.4258 32s11.4326 44.1982 0 64s-32.5605 32 -55.4258 32zM0 160c0 -80.0273 42.6943 -153.976 112 -193.989s154.694 -40.0137 224 0
s112 113.962 112 193.989s-42.6943 153.976 -112 193.989s-154.694 40.0137 -224 0s-112 -113.962 -112 -193.989zM236.2 335.6l-0.100586 -0.101562c11.5 -0.799805 19.7998 -10.8994 19.7998 -22.499v-13.5c0 -7.5 -2.59961 -14.7002 -7.39941 -20.5l-52.7002 -63.2002
c-11.2998 -13.5 -10.3994 -33.4004 2.10059 -45.9004c6.40039 -6.40039 15.1006 -10 24.1006 -10h65.9004c17.7002 0 32 -14.2998 32 -32v-15.9004c0 -10.5 -2.59961 -21 -7.59961 -30.2998l-41.2998 -76.5996c-4.2998 -8.09961 -12.7998 -13.1992 -22 -13.1992
c-13.7998 0 -25 11.2002 -25 25v23c0 12.4004 -10.5996 22.2002 -19.8994 30.7998l-1.90039 1.7998c-6.2998 5.7998 -10.2002 14.2002 -10.2002 23.4004v22.0996c0 6.40039 -2.5 12.5 -7 17l-43 42.9004c-9 9 -21.2002 14.0996 -33.9004 14.0996h-28.4004
c-15 0 -26.4004 13.7002 -21.3008 27.7998c24.5 67.7998 89.4004 116.2 165.601 116.2c4.09961 0 8.19922 -0.0996094 12.1992 -0.399414zM236.199 335.598z" />
    <glyph glyph-name="planet-ringed" unicode="planet&#x2d;ringed" 
d="M456.1 416.9c0 0.0996094 0.0996094 -0.299805 0 -1.2002c-0.0996094 0.700195 0 1.2002 0 1.2002zM414.699 364.102c41.4004 52.7998 0.101562 -0.100586 0.101562 -0.100586c-7.40039 -4.2998 -15.1006 -9.2002 -23.1006 -14.4004
c7.90039 -6.7998 15.2002 -14.0996 22 -22c5.2002 8 10 15.7002 14.4004 23.1006c6.2998 10.7002 11.3994 20.4004 15.499 28.9004c-8.5 -4 -18.2002 -9.09961 -28.9004 -15.5zM65.7012 107.801c-11.4004 25.7998 -17.7002 54.2002 -17.7002 84.2002
c0 114.9 93.0996 208 208 208c30 0 58.4004 -6.2998 84.2002 -17.7002c78.0996 55.2998 141.5 79.7002 163.7 57.6006c35.2002 -35.2002 -47.2998 -174.7 -184.2 -311.601s-276.4 -219.4 -311.601 -184.2c-22.0996 22.2002 2.30078 85.6006 57.6006 163.7zM98.3008 56.3008
l-0.101562 0.100586c-5.2002 -8 -10 -15.7002 -14.4004 -23.1006c-6.2998 -10.7002 -11.3994 -20.4004 -15.499 -28.9004c8.5 4 18.2002 9.09961 28.9004 15.5c7.40039 4.2998 15.1006 9.2002 23.1006 14.4004c-7.90039 6.7998 -15.2002 14.0996 -22 22zM31.0986 -8.09863
c0 0 0.400391 0.0996094 1.2002 0c-0.799805 -0.0996094 -1.2002 0 -1.2002 0zM55.999 -31.6982c0.0996094 -0.700195 0 -1.10156 0 -1.20117s-0.0996094 0.300781 0 1.20117zM479.699 392.001c0.799805 0.0996094 1.2002 0 1.2002 0s-0.400391 -0.0996094 -1.2002 0z
M255.999 -15.999c-16.2002 0 -31.7988 1.80078 -46.8984 5.30078c42.5996 31.7998 88.1992 71.3994 133.199 116.399s84.5996 90.5996 116.399 133.199c3.5 -15.0996 5.2998 -30.7998 5.2998 -46.8994c0 -114.9 -93.0996 -208 -208 -208zM256 -15.998z" />
    <glyph glyph-name="police-box" unicode="police&#x2d;box" horiz-adv-x="384" 
d="M192 448c-8.7998 0 -16 -7.2002 -16 -16v-16h-80c-17.7002 0 -32 -14.2998 -32 -32c-17.7002 0 -32 -14.2998 -32 -32v-368h-8c-13.2998 0 -24 -10.7002 -24 -24s10.7002 -24 24 -24h336c13.2998 0 24 10.7002 24 24s-10.7002 24 -24 24h-8v368
c0 17.7002 -14.2998 32 -32 32c0 17.7002 -14.2998 32 -32 32h-80v16c0 8.7998 -7.2002 16 -16 16zM96 312c0 4.40039 3.59961 8 8 8h24v-32h-32v24zM96 272h32v-32h-24c-4.40039 0 -8 3.59961 -8 8v24zM168 320c4.40039 0 8 -3.59961 8 -8v-24h-32v32h24zM144 272h32v-24
c0 -4.40039 -3.59961 -8 -8 -8h-24v32zM216 320h24v-32h-32v24c0 4.40039 3.59961 8 8 8zM240 272v-32h-24c-4.40039 0 -8 3.59961 -8 8v24h32zM256 320h24c4.40039 0 8 -3.59961 8 -8v-24h-32v32zM288 272v-24c0 -4.40039 -3.59961 -8 -8 -8h-24v32h32zM96 192
c0 8.7998 7.2002 16 16 16h48c8.7998 0 16 -7.2002 16 -16v-48c0 -8.7998 -7.2002 -16 -16 -16h-48c-8.7998 0 -16 7.2002 -16 16v48z" />
    <glyph glyph-name="person-to-portal" unicode="person&#x2d;to&#x2d;portal" 
d="M272 448c-17.1484 0 -32.9941 -9.14844 -41.5684 -24s-8.57422 -33.1494 0 -48.001s24.4199 -24 41.5684 -24s32.9941 9.14844 41.5684 24s8.57422 33.1494 0 48.001s-24.4199 24 -41.5684 24zM163.2 288c1.90039 0 3.69824 -0.100586 5.59863 -0.300781
l-31.2002 -93.7002c-9.2998 -28 1.7002 -58.7998 26.7998 -74.5l86.2002 -53.9004l-25.4004 -88.7998c-4.7998 -17 5 -34.7998 22 -39.5996s34.7002 5 39.6006 22l28.5996 100.5c5.90039 20.5996 -2.59961 42.5996 -20.6992 53.8994l-56.7002 35.4004l31 82.2998
l5.09961 -12.2998c13.5996 -32.5996 43.8994 -54.8994 78.499 -58.499c4.7998 -126.5 38.5 -224.5 79.4004 -224.5c44.2002 0 80 114.6 80 256s-35.7998 256 -80 256c-40.5996 0 -74.1992 -96.9004 -79.2988 -222.4c-8.7002 2.90039 -16 9.40039 -19.5996 18.1006
l-6.2998 15c-14.5996 35.0996 -44.0996 61.8994 -80.5 73.0996l-48.7002 15c-11.0996 3.5 -22.6992 5.2002 -34.3994 5.2002c-31 0 -60.7998 -12.2998 -82.7998 -34.2002l-23.0996 -23.0996c-12.5 -12.5 -12.5 -32.7998 0 -45.2998s32.7998 -12.5 45.2998 0l23.0996 23.0996
c10 9.90039 23.4004 15.5 37.5 15.5zM109.498 137.299l-18.2998 -41.2998h-59.2002c-17.7002 0 -32 -14.2998 -32 -32s14.2998 -32 32 -32h69.5c19 0 36.2002 11.2002 43.9004 28.5l11.5 25.9004l-9.5 6c-17.5 11 -30.5 26.7998 -37.9004 44.8994z" />
    <glyph glyph-name="person-from-portal" unicode="person&#x2d;from&#x2d;portal" 
d="M154.2 96l33.002 0.000976562l18.4004 41.2998c7.40039 -18.0996 20.4004 -34 37.9004 -44.9004l9.5 -6l-11.5 -25.9004c-7.7002 -17.2998 -24.9004 -28.5 -43.9004 -28.5h-55.0996c-14.7002 -58.5 -37.2002 -96 -62.5 -96c-44.2002 0 -80 114.6 -80 256
s35.7998 256 80 256c32.7998 0 61 -63.0996 73.4004 -153.5l0.0996094 0.0996094l23.0996 23.0996c21.9004 22 51.7002 34.2998 82.7002 34.2998c11.7002 0 23.2998 -1.7998 34.3994 -5.2002l48.7002 -15c36.4004 -11.2002 65.9004 -38 80.5 -73.0996l6.2998 -15
c4.90039 -11.9004 16.6006 -19.7002 29.501 -19.7002h21.2998c17.7002 0 32 -14.2998 32 -32s-14.2998 -32 -32 -32h-21.2998c-38.7998 0 -73.7002 23.2998 -88.7002 59.0996l-5.09961 12.2998l-30.9004 -82.4004l56.7998 -35.5
c18.0996 -11.2998 26.5996 -33.2998 20.6992 -53.8994l-28.7002 -100.4c-4.90039 -17 -22.6006 -26.9004 -39.6006 -22s-26.9004 22.6006 -22 39.6006l25.4004 88.7998l-86.2002 53.9004c-25.0996 15.7002 -36.0996 46.5 -26.7998 74.5l31.2998 93.7002
c-1.7998 0.200195 -3.7002 0.299805 -5.60059 0.299805c-14.0996 0 -27.5996 -5.59961 -37.5 -15.5l-23.0996 -23.0996c-11 -11 -28 -12.2998 -40.4004 -4c1.09961 -17.2998 1.69922 -35.0996 1.69922 -53.3994c0 -33.9004 -2 -66.4004 -5.7998 -96zM368.002 352.001
c-17.1484 0 -32.9941 9.14844 -41.5684 24s-8.57422 33.1494 0 48.001s24.4199 24 41.5684 24s32.9941 -9.14844 41.5684 -24s8.57422 -33.1494 0 -48.001s-24.4199 -24 -41.5684 -24z" />
    <glyph glyph-name="radar" unicode="radar" 
d="M304.8 274.7l0.000976562 0.101562l-23.7998 -23.7998c-7.7002 3.2998 -16.1006 5.09961 -25.001 5.09961c-35.2998 0 -64 -28.7002 -64 -64s28.7002 -64 64 -64s64 28.7002 64 64c0 8.90039 -1.7998 17.3008 -5.09961 25.001l182 182
c9.40039 9.2998 9.30078 24.5 0.000976562 33.9004s-24.5 9.40039 -33.9004 0l-43.7002 -43.7998c-44.4004 36.7002 -101.2 58.7998 -163.3 58.7998c-141.4 0 -256 -114.6 -256 -256s114.6 -256 256 -256s256 114.6 256 256h-64
c0 -89.9004 -61.7002 -165.301 -145.101 -186.201c-4.7002 -21.5996 -23.9004 -37.7998 -46.9004 -37.7998s-42.2002 16.2002 -46.9004 37.7002c-65.5 16.5 -117.7 66.5996 -137 130.899c-22.7998 3.7998 -40.0996 23.5996 -40.0996 47.3994
c0 22.2998 15.2002 41.0996 35.9004 46.3994c17.7998 87.7002 95.2002 153.601 188.101 153.601c44.4004 0 85.2002 -15 117.7 -40.4004l-22.7998 -22.7998c-26.5996 19.5996 -59.3994 31.1992 -94.8994 31.1992c-76.0996 0 -139.8 -53.0996 -156.1 -124.199
c16.5 -7.59961 28 -24.2998 28 -43.7002c0 -17.9004 -9.7002 -33.4004 -24.1006 -41.7002c16.5996 -50.7002 57.6992 -90.2998 109.399 -104.6c8 15.5 24.0996 26.2002 42.7998 26.2002s34.7998 -10.7002 42.7998 -26.2002c67.5996 18.7002 117.199 80.7002 117.199 154.2
h-64c0 -53 -43 -96 -96 -96s-96 43 -96 96s43 96 96 96c17.7998 0 34.5 -4.90039 48.7998 -13.3008zM304.801 274.702z" />
    <glyph glyph-name="raygun" unicode="raygun" horiz-adv-x="576" 
d="M192 384l-89.8018 59.9004c-4 2.7002 -8.7998 4.10059 -13.5996 4.10059c-13.5996 0 -24.5996 -11 -24.5996 -24.5996v-50.2002c-37.7998 -18 -64 -56.5 -64 -101.2c0 -61.9004 50.0996 -112 112 -112h8.2002l-68.7998 -137.7
c-7.90039 -15.7998 -1.5 -35 14.2998 -42.9004l80 -40c15.7998 -7.90039 35 -1.5 42.9004 14.2998l99.4004 198.7v-0.400391c0 -13.2998 10.7002 -24 24 -24s24 10.7002 24 24v240c0 13.2998 -10.7002 24 -24 24s-24 -10.7002 -24 -24v-8h-96zM391.998 384
c-13.2998 0 -24 -10.7002 -24 -24v-176c0 -13.2998 10.7002 -24 24 -24s24 10.7002 24 24v56h60.9004l77.0996 -30.7002c4.90039 -2 10.5 -1.2998 14.9004 1.60059s7 7.90039 7 13.2002v96c0 5.2998 -2.59961 10.2002 -7 13.2002s-10 3.59961 -14.9004 1.59961
l-77.0996 -30.9004h-60.9004v56c0 13.2998 -10.7002 24 -24 24zM135.998 272c0 -13.2549 -10.7451 -24 -24 -24s-24 10.7451 -24 24s10.7451 24 24 24s24 -10.7451 24 -24zM207.998 248c-13.2549 0 -24 10.7451 -24 24s10.7451 24 24 24s24 -10.7451 24 -24
s-10.7451 -24 -24 -24z" />
    <glyph glyph-name="refrigerator" unicode="refrigerator" horiz-adv-x="384" 
d="M96 448h192c53 0 96 -43 96 -96v-64h-64v48c0 8.7998 -7.2002 16 -16 16s-16 -7.2002 -16 -16v-48h-288v64c0 53 43 96 96 96zM384 256v-256c0 -35.2998 -28.7002 -64 -64 -64h-256c-35.2998 0 -64 28.7002 -64 64v256h288v-176c0 -8.7998 7.2002 -16 16 -16
s16 7.2002 16 16v176h64z" />
    <glyph glyph-name="rocket-launch" unicode="rocket&#x2d;launch" 
d="M117.8 320l-0.101562 0.000976562c-25.4004 0 -48.9004 -13.4004 -61.9004 -35.3008l-52.5 -88.5c-4.40039 -7.40039 -4.5 -16.6006 -0.200195 -24.1006s12.2998 -12.0996 20.8994 -12.0996h114.7c22.5996 0 44.2998 -9 60.2998 -25s25 -37.7002 25 -60.2998v-114.7
c0 -8.7002 4.59961 -16.6006 12.0996 -20.9004s16.7002 -4.2002 24.1006 0.200195l88.5 52.5c21.9004 12.9004 35.3008 36.5 35.3008 61.9004v89.2998c131.7 79.9004 136.5 202.5 122.7 276.9c-2.09961 11.5996 -11.1992 20.5996 -22.7988 22.7998
c-74.4004 13.7998 -197 9 -276.8 -122.7h-89.2998zM423.998 320.001c0 -14.291 -7.62402 -27.4961 -20 -34.6416s-27.624 -7.14551 -40 0s-20 20.3506 -20 34.6416s7.62402 27.4961 20 34.6416s27.624 7.14551 40 0s20 -20.3506 20 -34.6416zM166.498 -21.999
c34.4004 34.4004 34.4023 90.0986 0.00195312 124.499s-90.1006 34.4004 -124.501 0c-34.2998 -34.2002 -41 -100.5 -41.9004 -138.2c-0.400391 -16 12.1992 -28.5996 28.1992 -28.1992c37.7002 0.900391 104 7.60059 138.2 41.9004zM119.8 14.3994l0.0996094 -0.0986328
c-10.0996 -10 -28.5 -13 -41.2998 -13.7002c-8 -0.400391 -14.4004 5.89941 -13.9004 13.8994c0.700195 12.7998 3.60059 31.2002 13.7002 41.2998c11.4004 11.4004 30 11.4004 41.4004 0s11.4004 -30 0 -41.4004zM119.8 14.4004z" />
    <glyph glyph-name="sensor" unicode="sensor" horiz-adv-x="448" 
d="M64 416h320c35.2998 0 64 -28.7002 64 -64v-320c0 -35.2998 -28.7002 -64 -64 -64h-320c-35.2998 0 -64 28.7002 -64 64v320c0 35.2998 28.7002 64 64 64zM112 328c0 13.2998 -10.7002 24 -24 24s-24 -10.7002 -24 -24v-144c0 -13.2998 10.7002 -24 24 -24
s24 10.7002 24 24v144zM208 328c0 13.2998 -10.7002 24 -24 24s-24 -10.7002 -24 -24v-144c0 -13.2998 10.7002 -24 24 -24s24 10.7002 24 24v144z" />
    <glyph glyph-name="sensor-triangle-exclamation" unicode="sensor&#x2d;triangle&#x2d;exclamation" horiz-adv-x="640" 
d="M64 416l320.001 0.100586c35.2998 0 64 -28.7002 64 -64v-32c-26.4004 0 -50.7002 -14.2002 -63.7002 -37.1006l-150.4 -265c-6.5 -11.5 -9.90039 -24.5 -9.90039 -37.7002c0 -4.2002 0.400391 -8.2998 1 -12.2998h-161c-35.2998 0 -64 28.7002 -64 64v320
c0 35.2998 28.7002 64 64 64zM112.001 328.001c0 13.2998 -10.7002 24 -24 24s-24 -10.7002 -24 -24v-144c0 -13.2998 10.7002 -24 24 -24s24 10.7002 24 24v144zM208.001 328.001c0 13.2998 -10.7002 24 -24 24s-24 -10.7002 -24 -24v-144c0 -13.2998 10.7002 -24 24 -24
s24 10.7002 24 24v144zM261.801 2.20117v-0.100586l150.4 265c7.2998 12.9004 21 20.9004 35.7998 20.9004s28.5 -8 35.7998 -20.7998l150.4 -265c3.7998 -6.7002 5.7998 -14.2002 5.7998 -21.9004c0 -24.5 -19.7998 -44.2998 -44.2998 -44.2998h-295.4
c-24.5 0 -44.2998 19.7998 -44.2998 44.2998c0 7.7002 2 15.2002 5.7998 21.9004zM464.001 176c0 8.7998 -7.2002 16 -16 16s-16 -7.2002 -16 -16v-88c0 -8.7998 7.2002 -16 16 -16s16 7.2002 16 16c0 0 -202.2 -85.7998 0 88zM448.001 40c-13.2549 0 -24 -10.7451 -24 -24
s10.7451 -24 24 -24s24 10.7451 24 24s-10.7451 24 -24 24z" />
    <glyph glyph-name="sensor-fire" unicode="sensor&#x2d;fire" horiz-adv-x="640" 
d="M64 416l320.001 0.00195312c35.2998 0 64 -28.7002 64 -64v-32.2002c-12.5 1.09961 -25.5 -2.80078 -35.5 -11.7012c-35.4004 -31.5996 -65.6006 -67.5996 -87.3008 -102.8c-20.9004 -33.7998 -37.2002 -72.2002 -37.2002 -107.4
c0 -49.2998 18.5996 -95.2002 49.5996 -129.9h-273.6c-35.2998 0 -64 28.7002 -64 64v320c0 35.2998 28.7002 64 64 64zM112.001 328.002c0 13.2998 -10.7002 24 -24 24s-24 -10.7002 -24 -24v-144c0 -13.2998 10.7002 -24 24 -24s24 10.7002 24 24v144zM208.001 328.002
c0 13.2998 -10.7002 24 -24 24s-24 -10.7002 -24 -24v-144c0 -13.2998 10.7002 -24 24 -24s24 10.7002 24 24v144zM505.701 239.902l0.000976562 -0.0976562l12.2998 13.7998c5.40039 6.09961 13.3008 8.89941 20.9004 8.89941c7.09961 0 14.2998 -2.59961 19.8994 -7.7998
c19.7002 -18.2998 39.7998 -43.2002 55 -70.6006c15.2002 -27.2002 26.2002 -58.1006 26.2002 -88.1006c0 -88.5996 -71.2998 -159.8 -160 -159.8c-89.5996 0 -160 71.2002 -160 159.8c0 37.2998 16 73.3994 36.7998 104.399c20.9004 31.2998 47.5 59.0996 70.9004 80.1992
c5.7002 5.2002 13 7.7002 20.2998 7.5c14.0996 -0.299805 23.6992 -11.3994 32.6992 -21.5996v0c2 -2.2998 4 -4.59961 6 -6.69922zM544.002 48.0039c0 36.5 -36.999 73 -54.6992 88.4004c-5.40039 4.7002 -13.1006 4.7002 -18.501 0
c-17.7998 -15.4004 -54.7998 -51.9004 -54.7998 -88.4004c0 -35.2998 28.7002 -64 64 -64s64 28.7002 64 64z" />
    <glyph glyph-name="sensor-on" unicode="sensor&#x2d;on" horiz-adv-x="640" 
d="M0 352v-320c0 -35.2998 28.7002 -64 64 -64h320c35.2998 0 64 28.7002 64 64v320c0 35.2998 -28.7002 64 -64 64h-320c-35.2998 0 -64 -28.7002 -64 -64zM88 352c13.2998 0 24 -10.7002 24 -24v-144c0 -13.2998 -10.7002 -24 -24 -24s-24 10.7002 -24 24v144
c0 13.2998 10.7002 24 24 24zM184 352c13.2998 0 24 -10.7002 24 -24v-144c0 -13.2998 -10.7002 -24 -24 -24s-24 10.7002 -24 24v144c0 13.2998 10.7002 24 24 24zM597.3 340c11.0996 7.40039 14.0996 22.2002 6.69922 33.2998s-22.3008 14.0996 -33.3008 6.69922l-48 -32
c-11.0996 -7.40039 -14.0996 -22.2002 -6.69922 -33.2998s22.3008 -14.0996 33.3008 -6.69922zM536 216c-13.2998 0 -24 -10.7002 -24 -24s10.7002 -24 24 -24h80c13.2998 0 24 10.7002 24 24s-10.7002 24 -24 24h-80zM549.3 76c-11 7.2998 -26 4.2998 -33.2998 -6.7002
s-4.2998 -25.9004 6.7002 -33.3008l48 -32c11 -7.2998 26 -4.2998 33.2998 6.7002s4.2998 25.9004 -6.7002 33.3008z" />
    <glyph glyph-name="sensor-cloud" unicode="sensor&#x2d;cloud" horiz-adv-x="640" 
d="M64 416l319.999 -0.000976562c35.2998 0 64 -28.7002 64 -64v-138.8c-14.5 6.90039 -30.7998 10.8008 -48 10.8008c-60.0996 0 -109.1 -47.2998 -111.899 -106.7c-37.9004 -18 -64.1006 -56.5996 -64.1006 -101.3c0 -17.2002 3.90039 -33.5 10.8008 -48h-170.8
c-35.2998 0 -64 28.7002 -64 64v320c0 35.2998 28.7002 64 64 64zM111.999 327.999c0 13.2998 -10.7002 24 -24 24s-24 -10.7002 -24 -24v-144c0 -13.2998 10.7002 -24 24 -24s24 10.7002 24 24v144zM207.999 327.999c0 13.2998 -10.7002 24 -24 24s-24 -10.7002 -24 -24
v-144c0 -13.2998 10.7002 -24 24 -24s24 10.7002 24 24v144zM335.999 -64.001c-44.2002 0 -80.001 35.7979 -80.001 79.998c0 39.4004 28.4004 72.1006 65.9004 78.8008c-1.2998 5.5 -1.89941 11.2998 -1.89941 17.2002c0 44.2002 35.7998 80 80 80
c35 0 64.7998 -22.5 75.5996 -53.7998c10.2998 13.2002 26.2998 21.7998 44.3994 21.7998c30.9004 0 56 -25.0996 56 -56c0 -3.2002 -0.299805 -6.2998 -0.799805 -9.39941c36.9004 -7.09961 64.8008 -39.5996 64.8008 -78.5996c0 -44.2002 -35.7998 -80 -80 -80h-224z" />
    <glyph glyph-name="siren" unicode="siren" horiz-adv-x="448" 
d="M73 295.9c4 32.0996 31.2012 56.1006 63.501 56.1006h175c32.2998 0 59.5 -24 63.5 -56.0996l25 -199.9h-261.9l21.7998 174c1.09961 8.7998 -5.10059 16.7998 -13.9004 17.8994s-16.7998 -5.10059 -17.8994 -13.9004l-22.2002 -178h-57.9004zM32.001 64.001h384
c17.7002 0 32 -14.2998 32 -32v-32c0 -17.7002 -14.2998 -32 -32 -32h-384c-17.7002 0 -32 14.2998 -32 32v32c0 17.7002 14.2998 32 32 32z" />
    <glyph glyph-name="siren-on" unicode="siren&#x2d;on" horiz-adv-x="640" 
d="M69.2998 412c-11 7.2998 -26 4.2998 -33.2998 -6.7002s-4.2998 -25.9004 6.7002 -33.3008l48 -32c11 -7.2998 26 -4.2998 33.2998 6.7002s4.2998 25.9004 -6.7002 33.3008zM597.3 372c11.0996 7.40039 14.0996 22.2002 6.69922 33.2998
s-22.3008 14.0996 -33.3008 6.69922l-48 -32c-11.0996 -7.40039 -14.0996 -22.2002 -6.69922 -33.2998s22.3008 -14.0996 33.3008 -6.69922c0 0 -480 72 48 32zM24 256c-13.2998 0 -24 -10.7002 -24 -24s10.7002 -24 24 -24h64c13.2998 0 24 10.7002 24 24
s-10.7002 24 -24 24h-64zM552 256c-13.2998 0 -24 -10.7002 -24 -24s10.7002 -24 24 -24h64c13.2998 0 24 10.7002 24 24s-10.7002 24 -24 24h-64zM144 96l57.8994 -0.000976562l22.2002 178c1.09961 8.7998 9.09961 15 17.8994 13.9004s15 -9.09961 13.9004 -17.8994
l-21.7998 -174h261.9l-25 199.9c-4 32.0996 -31.2002 56.0996 -63.5 56.0996h-175c-32.2998 0 -59.5 -24.0996 -63.5 -56.0996zM95.999 31.999v-32c0 -17.7002 14.2998 -32 32 -32h384c17.7002 0 32 14.2998 32 32v32c0 17.7002 -14.2998 32 -32 32h-384
c-17.7002 0 -32 -14.2998 -32 -32z" />
    <glyph glyph-name="solar-system" unicode="solar&#x2d;system" 
d="M448 192c0 106 -85.999 192.001 -191.999 192.001c-29 0 -56.5996 -6.40039 -81.1992 -18c-4 22.5 -17.4004 41.7998 -36 53.5996c35.0996 18.2002 74.8994 28.4004 117.199 28.4004c141.4 0 256 -114.6 256 -256c0 -56.2998 -18.2002 -108.3 -48.9004 -150.6
c0.599609 -3 0.899414 -6.2002 0.899414 -9.40039c0 -26.5 -21.5 -48 -48 -48s-48 21.5 -48 48c0 25.0996 19.2998 45.6992 43.7998 47.7988c22.7998 31.5996 36.2002 70.2998 36.2002 112.2zM256.001 0.000976562c29 0 56.498 6.39941 81.1982 17.8994
c3.7998 -22.5 17.0996 -41.9004 35.5996 -53.8008c-35.0996 -18 -74.6992 -28.0996 -116.799 -28.0996c-141.4 0 -256 114.6 -256 256c0 56.2998 18.2002 108.3 48.9004 150.6c-0.599609 3 -0.899414 6.2002 -0.899414 9.40039c0 26.5 21.5 48 48 48s48 -21.5 48 -48
c0 -25.0996 -19.2998 -45.6992 -43.7998 -47.7988c-22.7998 -31.5996 -36.2002 -70.2998 -36.2002 -112.2c0 -106 86 -192 192 -192zM389.199 265.3c12 -21.7998 18.8008 -46.6992 18.8008 -73.2988c0 -83.9004 -68.0996 -152 -152 -152s-152 68.0996 -152 152
s68.0996 152 152 152c31.2998 0 60.3994 -9.5 84.499 -25.7002c3.7002 1.09961 7.5 1.69922 11.5 1.69922c22.0996 0 40 -17.9004 40 -40c0 -5.2002 -1 -10.1006 -2.7998 -14.7002zM312 279.601v-0.101562c-16.2002 10.4004 -35.4004 16.4004 -56 16.4004
c-57.4004 0 -104 -46.5996 -104 -104s46.5996 -104 104 -104s104 46.5996 104 104c0 17.4004 -4.2998 33.8008 -11.7998 48.2012c-20.2002 1.90039 -36 18.9004 -36.2002 39.5zM320 191.999c0 -22.8652 -12.1982 -43.9932 -32 -55.4258s-44.1982 -11.4326 -64 0
s-32 32.5605 -32 55.4258s12.1982 43.9932 32 55.4258s44.1982 11.4326 64 0s32 -32.5605 32 -55.4258z" />
    <glyph glyph-name="circle-sort" unicode="circle&#x2d;sort" 
d="M0 192c0 -91.46 48.793 -175.973 128 -221.703s176.794 -45.7305 256.001 0s128 130.243 128 221.703s-48.793 175.973 -128 221.703s-176.794 45.7305 -256.001 0s-128 -130.243 -128 -221.703zM267.3 347.3l96.001 -96c4.59961 -4.5 6 -11.4004 3.5 -17.4004
s-8.2998 -9.90039 -14.7998 -9.90039h-192c-6.5 0 -12.4004 4 -14.8008 9.90039s-1.10059 12.8008 3.49902 17.4004l96 96c6.2002 6.2002 16.4004 6.2002 22.6006 0zM244.701 36.7002l-96.001 96c-4.59961 4.5 -6 11.4004 -3.5 17.4004s8.2998 9.90039 14.7998 9.90039h192
c6.5 0 12.4004 -4 14.8008 -9.90039s1.10059 -12.8008 -3.49902 -17.4004l-96 -96c-6.2002 -6.2002 -16.4004 -6.2002 -22.6006 0z" />
    <glyph glyph-name="circle-sort-down" unicode="circle&#x2d;sort&#x2d;down" 
d="M512 192c0 -91.46 -48.793 -175.973 -128 -221.703s-176.794 -45.7305 -256.001 0s-128 130.243 -128 221.703s48.793 175.973 128 221.703s176.794 45.7305 256.001 0s128 -130.243 128 -221.703zM267.3 36.7002l96.001 96c4.59961 4.5 6 11.4004 3.5 17.4004
s-8.2998 9.90039 -14.7998 9.90039h-192c-6.5 0 -12.4004 -4 -14.8008 -9.90039s-1.10059 -12.8008 3.49902 -17.4004l96 -96c6.2002 -6.2002 16.4004 -6.2002 22.6006 0zM267.301 347.3c-6.2002 6.2002 -16.4014 6.2002 -22.6016 0l-96 -96
c-4.59961 -4.5 -6 -11.4004 -3.5 -17.4004s8.2998 -9.90039 14.7998 -9.90039h192c6.5 0 12.4004 4 14.8008 9.90039s1.10059 12.8008 -3.49902 17.4004zM313.399 256h-0.100586h-114.7l57.4004 57.4004zM313.398 256z" />
    <glyph glyph-name="circle-sort-up" unicode="circle&#x2d;sort&#x2d;up" 
d="M0 192c0 -91.46 48.793 -175.973 128 -221.703s176.794 -45.7305 256.001 0s128 130.243 128 221.703s-48.793 175.973 -128 221.703s-176.794 45.7305 -256.001 0s-128 -130.243 -128 -221.703zM267.3 347.3l96.001 -96c4.59961 -4.5 6 -11.4004 3.5 -17.4004
s-8.2998 -9.90039 -14.7998 -9.90039h-192c-6.5 0 -12.4004 4 -14.8008 9.90039s-1.10059 12.8008 3.49902 17.4004l96 96c6.2002 6.2002 16.4004 6.2002 22.6006 0zM267.301 36.7002c-6.2002 -6.2002 -16.4014 -6.2002 -22.6016 0l-96 96
c-4.59961 4.5 -6 11.4004 -3.5 17.4004s8.2998 9.90039 14.7998 9.90039h192c6.5 0 12.4004 -4 14.8008 -9.90039s1.10059 -12.8008 -3.49902 -17.4004zM313.399 128h-0.100586h-114.7l57.4004 -57.4004zM313.398 128z" />
    <glyph glyph-name="space-station-moon" unicode="space&#x2d;station&#x2d;moon" 
d="M512 192c0 141.4 -114.6 256 -256 256s-256 -114.6 -256 -256c-0 -7.7998 0.299805 -15.5 1 -23.0996c72.2002 -25.5996 159.8 -40.8994 255 -40.8994s182.8 15.2998 255 40.8994c0.700195 7.59961 1 15.2998 1 23.0996zM256 -64c121.1 0 222.6 84.0996 249.199 197.199
c-72.5996 -23.5996 -157.899 -37.1992 -249.199 -37.1992s-176.6 13.5996 -249.199 37.1992c26.5996 -113.1 128.1 -197.199 249.199 -197.199zM160 288c0 -17.6729 14.3271 -32 32 -32s32 14.3271 32 32s-14.3271 32 -32 32s-32 -14.3271 -32 -32zM272 288
c0 -28.5811 -15.248 -54.9912 -40 -69.2822s-55.248 -14.291 -80 0s-40 40.7012 -40 69.2822s15.248 54.9912 40 69.2822s55.248 14.291 80 0s40 -40.7012 40 -69.2822z" />
    <glyph glyph-name="space-station-moon-construction" unicode="space&#x2d;station&#x2d;moon&#x2d;construction" 
d="M512 192c0 6 -0.200195 12 -0.600586 17.9004c-0.599609 8.09961 -7.39941 14.0996 -15.499 14.0996h-31.9004c-8.7998 0 -16 7.2002 -16 16v32c0 8.7998 -7.2002 16 -16 16h-16h-48c-8.7998 0 -16 7.2002 -16 16v32c0 8.7998 7.2002 16 16 16h32
c8.7998 0 16 7.2002 16 16v16.2002c0 4.90039 -2.2002 9.5 -6.10059 12.4004c-42.7998 32.2998 -96.0996 51.3994 -153.899 51.3994c-141.4 0 -256 -114.6 -256 -256c-0 -7.7998 0.299805 -15.5 1 -23.0996c72.2002 -25.5996 159.8 -40.8994 255 -40.8994
s182.8 15.2998 255 40.8994c0.700195 7.59961 1 15.2998 1 23.0996zM256 -64c74.2998 0 141.199 31.6006 187.899 82.2002c2.7002 2.7998 4.10059 6.59961 4.10059 10.5v19.2998c0 8.7998 -7.2002 16 -16 16h-32c-8.7998 0 -16 7.2002 -16 16v25.2002
c-40.7002 -6 -83.7002 -9.2002 -128 -9.2002c-91.2998 0 -176.6 13.5996 -249.199 37.1992c26.5996 -113.1 128.1 -197.199 249.199 -197.199zM159.999 288.001c0 -17.6729 14.3271 -32 32 -32s32 14.3271 32 32s-14.3271 32 -32 32s-32 -14.3271 -32 -32zM271.999 288.001
c0 -28.5811 -15.248 -54.9912 -40 -69.2822s-55.248 -14.291 -80 0s-40 40.7012 -40 69.2822s15.248 54.9912 40 69.2822s55.248 14.291 80 0s40 -40.7012 40 -69.2822z" />
    <glyph glyph-name="sprinkler" unicode="sprinkler" 
d="M24 448c-13.2549 0 -24 -10.7451 -24 -24s10.7451 -24 24 -24s24 10.7451 24 24s-10.7451 24 -24 24zM0 320c0 -13.2549 10.7451 -24 24 -24s24 10.7451 24 24s-10.7451 24 -24 24s-24 -10.7451 -24 -24zM0 216c0 -13.2549 10.7451 -24 24 -24s24 10.7451 24 24
s-10.7451 24 -24 24s-24 -10.7451 -24 -24zM64 376c0 -13.2549 10.7451 -24 24 -24s24 10.7451 24 24s-10.7451 24 -24 24s-24 -10.7451 -24 -24zM88 288c-13.2549 0 -24 -10.7451 -24 -24s10.7451 -24 24 -24s24 10.7451 24 24s-10.7451 24 -24 24zM128 320
c0 -13.2549 10.7451 -24 24 -24s24 10.7451 24 24s-10.7451 24 -24 24s-24 -10.7451 -24 -24zM488 240c-13.2549 0 -24 -10.7451 -24 -24s10.7451 -24 24 -24s24 10.7451 24 24s-10.7451 24 -24 24zM512 320c0 13.2549 -10.7451 24 -24 24s-24 -10.7451 -24 -24
s10.7451 -24 24 -24s24 10.7451 24 24zM488 448c-13.2549 0 -24 -10.7451 -24 -24s10.7451 -24 24 -24s24 10.7451 24 24s-10.7451 24 -24 24zM448 376c0 13.2549 -10.7451 24 -24 24s-24 -10.7451 -24 -24s10.7451 -24 24 -24s24 10.7451 24 24zM424 288
c-13.2549 0 -24 -10.7451 -24 -24s10.7451 -24 24 -24s24 10.7451 24 24s-10.7451 24 -24 24zM384 320c0 13.2549 -10.7451 24 -24 24s-24 -10.7451 -24 -24s10.7451 -24 24 -24s24 10.7451 24 24zM256 384c-17.7002 0 -31.999 -14.3008 -31.999 -32.001v-160h-100.2
c-15.4004 0 -27.8008 -12.5 -27.8008 -27.7998c0 -7.7998 3.2998 -15.2002 9 -20.5l87 -79.7002v-96c0 -17.7002 14.2998 -32 32 -32h64c17.7002 0 32 14.2998 32 32v96l87 79.7002c5.7002 5.2998 9 12.7002 9 20.5c0 15.4004 -12.5 27.8008 -27.7998 27.8008h-100.2v160
c0 17.7002 -14.2998 32 -32 32z" />
    <glyph glyph-name="star-shooting" unicode="star&#x2d;shooting" 
d="M313 407l-0.0996094 0.0996094c9.40039 9.2998 9.30078 24.5 0.000976562 33.9004s-24.5 9.40039 -33.9004 0l-47.9004 -48.0996c-9.40039 -9.2998 -9.30078 -24.5 -0.000976562 -33.9004s24.5 -9.40039 33.9004 0zM170.4 290.6c142.6 116.4 -0.0986328 0 -0.0986328 0
l-46.2998 -94l-103.5 -15.0996c-19.5996 -2.7998 -27.5 -27 -13.2998 -40.9004l75 -73.2002l-17.7002 -103.3c-3.40039 -19.5996 17.1992 -34.5996 34.7988 -25.2998l92.7002 48.7998l92.5996 -48.7998c17.5996 -9.2998 38.1992 5.7002 34.7988 25.2998l-17.7002 103.3
l74.9004 73.2002c14.2002 13.9004 6.40039 38 -13.2998 40.9004l-103.5 15.0996l-46.2998 94c-8.7998 17.9004 -34.2998 17.9004 -43.0996 0zM505.001 249c-9.2998 9.40039 -24.499 9.40039 -33.8994 0l-48 -48c-9.40039 -9.2998 -9.30078 -24.5 -0.000976562 -33.9004
s24.5 -9.40039 33.9004 0l48 48c9.40039 9.2998 9.40039 24.5 0 33.9004zM505.002 407l-0.0996094 0.0996094c9.40039 9.2998 9.30078 24.5 0.000976562 33.9004s-24.5 9.40039 -33.9004 0l-143.9 -144.1c-9.40039 -9.2998 -9.30078 -24.5 -0.000976562 -33.9004
s24.5 -9.40039 33.9004 0zM505.002 407z" />
    <glyph glyph-name="starfighter" unicode="starfighter" horiz-adv-x="640" 
d="M353.8 434c-1 8 -7.80078 14 -15.9004 14h-35.7998c-8.09961 0 -14.8994 -6 -15.8994 -14l-30.2002 -242v-208c0 -8.7998 7.2002 -16 16 -16h96c8.7998 0 16 7.2002 16 16v208zM287.999 192c0 17.7002 14.2998 32 32 32s32 -14.2998 32 -32v-48
c0 -8.7998 -7.2002 -16 -16 -16h-32c-8.7998 0 -16 7.2002 -16 16v48zM47.999 376c-13.2998 0 -24 -10.7002 -24 -24v-24c-13.2998 0 -24 -10.7002 -24 -24s10.7002 -24 24 -24v-280c0 -13.2998 10.7002 -24 24 -24s24 10.7002 24 24v4l88 -26.4004v-9.59961
c0 -17.7002 14.2998 -32 32 -32s32 14.2998 32 32v32v32v64v32c0 17.7002 -14.2998 32 -32 32h-32c-17.7002 0 -32 -14.2998 -32 -32v-32h-56v184c13.2998 0 24 10.7002 24 24s-10.7002 24 -24 24v24c0 13.2998 -10.7002 24 -24 24zM591.999 376
c-13.2998 0 -24 -10.7002 -24 -24v-24c-13.2998 0 -24 -10.7002 -24 -24s10.7002 -24 24 -24v-184h-56v32c0 17.7002 -14.2998 32 -32 32h-32c-17.7002 0 -32 -14.2998 -32 -32v-32v-64v-32v-32c0 -17.7002 14.2998 -32 32 -32s32 14.2998 32 32v9.59961l88 26.4004v-4
c0 -13.2998 10.7002 -24 24 -24s24 10.7002 24 24v280c13.2998 0 24 10.7002 24 24s-10.7002 24 -24 24v24c0 13.2998 -10.7002 24 -24 24z" />
    <glyph glyph-name="starfighter-twin-ion-engine" unicode="starfighter&#x2d;twin&#x2d;ion&#x2d;engine" horiz-adv-x="576" 
d="M32 416c-17.7002 0 -32 -14.2998 -32 -32v-160v-64v-160c-0 -17.7002 14.2998 -32 32 -32s32 14.2998 32 32v147.2l75.5996 -15.0996c23.7002 -58.7002 81.2002 -100.101 148.4 -100.101s124.7 41.4004 148.4 100.101l75.5996 15.0996v-147.2
c0 -17.7002 14.2998 -32 32 -32s32 14.2998 32 32v160v64v160c0 17.7002 -14.2998 32 -32 32s-32 -14.2998 -32 -32v-147.2l-75.5996 15.0996c-23.7002 58.7002 -81.2002 100.101 -148.4 100.101s-124.7 -41.4004 -148.4 -100.101l-75.5996 -15.0996v147.2
c0 17.7002 -14.2998 32 -32 32zM272 97.2998c-14.5996 2.40039 -28 8.2002 -39.5996 16.4004l23.0996 23.0996c5.09961 -3 10.5996 -5.2998 16.5 -6.7998v-32.7002zM209.7 136.3c-8.2002 11.5 -14 25 -16.4004 39.5996h32.7002c1.5 -5.90039 3.7998 -11.4004 6.7998 -16.5z
M193.3 208c2.40039 14.5996 8.2002 28 16.4004 39.5996l23.0996 -23.0996c-3 -5.09961 -5.2998 -10.5996 -6.7998 -16.5h-32.7002zM232.3 270.3c11.5 8.2002 25 14 39.5996 16.4004v-32.7002c-5.90039 -1.5 -11.4004 -3.7998 -16.5 -6.7998zM343.6 113.7
c-11.5 -8.2002 -25 -14 -39.5996 -16.4004v32.7002c5.90039 1.5 11.4004 3.7998 16.5 6.7998c0 0 -88.2002 133.5 23.0996 -23.0996zM366.199 136.3l0.100586 0.0996094l-23.0996 23.0996c3 5.09961 5.2998 10.5996 6.7998 16.5l32.5996 -0.0996094
c-2.40039 -14.5996 -8.2002 -28 -16.4004 -39.5996zM350 208c-1.5 5.90039 -3.7998 11.4004 -6.7998 16.5l23.0996 23.0996c8.2002 -11.5 14 -25 16.4004 -39.5996c0 0 -16.5 -71.7002 -32.7002 0zM343.6 270.3l-23.0996 -23.0996c-5.09961 3 -10.5996 5.2998 -16.5 6.7998
v32.7002c14.5996 -2.40039 28 -8.2002 39.5996 -16.4004zM310.8 169.5l-0.299805 -0.299805c-5.7998 -5.7002 -13.7002 -9.2002 -22.5 -9.2002c-17.7002 0 -32 14.2998 -32 32s14.2998 32 32 32s32 -14.2998 32 -32c0 -8.7998 -3.5 -16.7002 -9.2002 -22.5z" />
    <glyph glyph-name="starship" unicode="starship" horiz-adv-x="640" 
d="M448 256c-22.8652 0 -43.9932 -12.1982 -55.4258 -32s-11.4326 -44.1982 0 -64s32.5605 -32 55.4258 -32s43.9932 12.1982 55.4258 32s11.4326 44.1982 0 64s-32.5605 32 -55.4258 32zM448 0c-68.5947 0 -131.979 36.5947 -166.277 96s-34.2979 132.596 0 192.001
s97.6826 96 166.277 96s131.979 -36.5947 166.277 -96s34.2979 -132.596 0 -192.001s-97.6826 -96 -166.277 -96zM480 192c0 -17.6729 -14.3271 -32 -32 -32s-32 14.3271 -32 32s14.3271 32 32 32s32 -14.3271 32 -32zM188.9 242.6l43 8.60156
c-5.2002 -18.9004 -7.90039 -38.7002 -7.90039 -59.2002s2.7002 -40.2998 7.90039 -59.2002l-43 8.59961l-51.9004 -45.4004h71c17.7002 0 32 -14.2998 32 -32s-14.2998 -32 -32 -32h-176c-17.7002 0 -32 14.2998 -32 32s14.2998 32 32 32h32.0996l65.5 57.2998
l-2.2002 0.400391c-18.2998 3.7002 -31.3994 19.7002 -31.3994 38.2998s13.0996 34.5996 31.3994 38.2998l2.2002 0.400391l-65.5 57.2998h-32.0996c-17.7002 0 -32 14.2998 -32 32s14.2998 32 32 32h176c17.7002 0 32 -14.2998 32 -32s-14.2998 -32 -32 -32h-71z
M188.9 242.602z" />
    <glyph glyph-name="starship-freighter" unicode="starship&#x2d;freighter" horiz-adv-x="576" 
d="M224 -32c34.2002 0 68.2021 5.09961 100.702 15.2998c5.7002 -9.09961 15.7998 -15.1992 27.2998 -15.1992h80c26.5 0 48 21.5 48 48c0 8.7998 -2.40039 17 -6.5 24.0996l82.0996 31.9004c12.2998 4.7998 20.3994 16.5996 20.3994 29.7998v42.0996
c0 8.7998 -7.2002 16 -16 16h-114.3h-13.7002c-8.7998 0 -16 7.2002 -16 16v32c0 8.7998 7.2002 16 16 16h13.5996h114.3c8.7998 0 16 7.2002 16 16v42.0996c0 13.2002 -8.09961 25 -20.3994 29.7998l-207.9 80.9004c-39.4004 15.2998 -81.3008 23.2002 -123.601 23.2002
c-123.7 0 -224 -100.3 -224 -224s100.3 -224 224 -224zM224.002 240c-17.1484 0 -32.9941 -9.14844 -41.5684 -24s-8.57422 -33.1494 0 -48.001s24.4199 -24 41.5684 -24s32.9941 9.14844 41.5684 24s8.57422 33.1494 0 48.001s-24.4199 24 -41.5684 24zM224.002 112
c-28.5811 0 -54.9912 15.248 -69.2822 40s-14.291 55.248 0 80s40.7012 40 69.2822 40s54.9912 -15.248 69.2822 -40s14.291 -55.248 0 -80s-40.7012 -40 -69.2822 -40zM80.002 176c-8.83691 0 -16 7.16309 -16 16s7.16309 16 16 16s16 -7.16309 16 -16
s-7.16309 -16 -16 -16zM128.002 288c0 -8.83691 -7.16309 -16 -16 -16s-16 7.16309 -16 16s7.16309 16 16 16s16 -7.16309 16 -16zM112.002 80c-8.83691 0 -16 7.16309 -16 16s7.16309 16 16 16s16 -7.16309 16 -16s-7.16309 -16 -16 -16z" />
    <glyph glyph-name="sword-laser" unicode="sword&#x2d;laser" 
d="M505 441c-9.09961 9 -23.7012 9.40137 -33.2012 0.701172l-241 -220.6l54.4004 -54.4004l220.5 241.1c8.7002 9.5 8.40039 24.0996 -0.699219 33.1992zM195.298 211.301c-6.2002 6.2002 -16.3994 6.2002 -22.5996 0c-6.09961 -6.09961 -6.2998 -15.7998 -0.5 -22.0996
l81 -81c6.2998 -5.7002 16 -5.60059 22.0996 0.499023c6.2002 6.2002 6.2002 16.4004 0 22.6006zM137.599 153.601l80 -80l23.7002 23.7002l-80 80s34 34 -23.7002 -23.7002zM126.299 142.301l-20.7002 -20.7002l80 -80l20.7002 20.7002zM86.999 117.701
l-0.102539 -0.0986328l-2.2998 -2.2998l-74.2998 -74.2998c-6.59961 -6.7002 -10.2998 -15.6006 -10.2998 -25.001s3.7002 -18.3008 10.2998 -25.001l44.7002 -44.7002c6.7002 -6.59961 15.6006 -10.2998 25.001 -10.2998s18.3008 3.7002 25.001 10.2998l74.4004 74.4004
l2.2998 2.2998zM86.9961 117.702z" />
    <glyph glyph-name="sword-laser-alt" unicode="sword&#x2d;laser&#x2d;alt" 
d="M505.7 407.8l-175.501 -191.802h-105.1l246.7 225.7c9.5 8.7002 24.2002 8.40039 33.2002 -0.699219s9.40039 -23.6992 0.700195 -33.1992zM189.299 191.998l114.697 0.00195312c6.5 0 12.4004 -4 14.8008 -9.90039s1.10059 -12.8008 -3.49902 -17.4004l-122.3 -122.4
l-27.2998 27.2998l-32 32l-27.2998 27.2998l49 49c9 9 21.2002 14.0996 33.9004 14.0996zM181.696 31l-87.7012 -87.5c-4.7998 -4.7998 -11.2998 -7.5 -18.0996 -7.5s-13.2998 2.7002 -18.0996 7.5l-3.5 3.5l105.7 105.7zM42.9951 -41.7002l-20.7002 20.7002l105.7 105.7
l20.7002 -20.7002zM10.9951 -9.7002v0.101562l-3.5 3.5c-4.7998 4.7998 -7.5 11.2998 -7.5 18.0996s2.7002 13.2998 7.5 18.0996l87.5 87.5996l21.7002 -21.7002zM10.9951 -9.69824z" />
    <glyph glyph-name="swords-laser" unicode="swords&#x2d;laser" horiz-adv-x="640" 
d="M135 441c9.09961 9.09961 23.7012 9.40039 33.2012 0.700195l191.8 -175.5v-105.1l-225.7 246.7c-8.7002 9.5 -8.40039 24.0996 0.699219 33.1992zM398.002 91.3008l0.0986328 0.0976562c-9 9 -14.0996 21.2002 -14.0996 33.9004v114.7c0 6.5 4 12.4004 9.90039 14.8008
s12.8008 1.10059 17.4004 -3.49902l122.4 -122.3l-27.4004 -27.4004l-32 -32l-27.2998 -27.2998zM523.301 95.999l21.7002 21.6992l87.5 -87.7002c4.7998 -4.7998 7.5 -11.2998 7.5 -18.0996s-2.7002 -13.2998 -7.5 -18.0996l-3.5 -3.5s-231 101 -105.7 105.7z
M512.001 84.6982l105.7 -105.7l-20.7002 -20.7002l-105.7 105.7zM480.001 52.6982l105.499 -105.7l-3.5 -3.5c-4.7998 -4.7998 -11.2998 -7.5 -18.0996 -7.5s-13.2998 2.7002 -18.0996 7.5l-87.5 87.5zM247.6 236.599l-0.00195312 -0.0986328l50.7002 -55.5
l-74.2998 -81.2002v-6.59961c0 -12.7002 -5.09961 -24.9004 -14.0996 -33.9004l-115.9 -115.7c-4.7998 -4.7998 -11.2998 -7.5 -18.0996 -7.5s-13.2998 2.7002 -18.0996 7.5l-50.2998 50.2998c-4.7998 4.7998 -7.5 11.2998 -7.5 18.0996s2.7002 13.2998 7.5 18.0996
l118.7 118.5l-4.7002 4.7002c-12.5 12.5 -12.5 32.7998 0 45.2998c12.4004 12.4004 32.5 12.5 45 0.200195l4.90039 -4.90039l25.4004 25.4004c4.5 4.59961 11.4004 6 17.4004 3.5c4 -1.59961 7.09961 -4.89941 8.69922 -8.7998zM390.397 281.8l-46.7002 42.6982
l128.1 117.2c9.5 8.7002 24.2002 8.40039 33.2002 -0.699219s9.40039 -23.6992 0.700195 -33.1992c0 0 -258.1 -171.2 -115.3 -126zM151.997 103.998c0 -8.83691 7.16309 -16 16 -16s16 7.16309 16 16s-7.16309 16 -16 16s-16 -7.16309 -16 -16z" />
    <glyph glyph-name="telescope" unicode="telescope" horiz-adv-x="576" 
d="M375.7 408l55.4014 32c15.2998 8.7998 34.8994 3.59961 43.6992 -11.7002l96 -166.3c8.7998 -15.2998 3.59961 -34.8994 -11.7002 -43.6992l-55.4004 -32c-15.2998 -8.7998 -34.8994 -3.59961 -43.6992 11.7002l-96 166.3
c-8.90039 15.2998 -3.60059 34.8994 11.6992 43.6992zM11.8008 104.4l44.1992 25.3984l-4 6.90039c-8.59961 14.7998 -4 33.7002 10.4004 42.9004l271.1 174.1c0.799805 -1.7998 1.7998 -3.59961 2.7998 -5.39941l96 -166.3l0.200195 -0.299805l-86.0996 -46.2002
l67.9004 -166.4c5 -12.2998 -0.900391 -26.2998 -13.2002 -31.2998s-26.2998 0.900391 -31.2998 13.2002l-65.7998 161.4l-65.7002 -161.4c-5 -12.2998 -19 -18.2002 -31.2998 -13.2002s-18.2002 19 -13.2002 31.2998l44.0996 108.1l-88.4004 -47.4004
c-15.2002 -8.2002 -34.2002 -2.7998 -42.7998 12.2002l-0.799805 1.40039l-44.0996 -25.5c-11.5 -6.59961 -26.2002 -2.69922 -32.7998 8.80078l-25.9004 44.9004c-6.7002 11.5 -2.7002 26.0996 8.7002 32.7998z" />
    <glyph glyph-name="temperature-arrow-down" unicode="temperature&#x2d;arrow&#x2d;down" horiz-adv-x="576" 
d="M128 336v-164.6c0 -17.2998 -7.09961 -31.8994 -15.2998 -42.499c-10.5 -13.5 -16.7002 -30.4004 -16.7002 -48.9004c0 -44.2002 35.7998 -80 80 -80s80 35.7998 80 80c0 18.5 -6.2002 35.4004 -16.7002 49c-8.2002 10.5996 -15.2998 25.1992 -15.2998 42.499v164.5
c0 26.5 -21.5 48 -48 48s-48 -21.5 -48 -48zM176 448c61.9004 0 112 -50.1006 112 -112.001v-164.5c0 -0.0996094 0.0996094 -0.299805 0.199219 -0.599609c0.200195 -0.599609 0.799805 -1.59961 1.7002 -2.7998c18.9004 -24.2998 30.1006 -54.8994 30.1006 -88.0996
c0 -79.5 -64.5 -144 -144 -144s-144 64.5 -144 144c0 33.2002 11.2002 63.7998 30.1006 88.2002c0.900391 1.2002 1.5 2.2002 1.7002 2.7998c0.0996094 0.299805 0.199219 0.5 0.199219 0.599609v164.4c0 61.9004 50.0996 112 112 112zM176 31.999c-26.5 0 -48 21.5 -48 48
c0 20.9004 13.4004 38.7002 32 45.2998v50.7002c0 8.7998 7.2002 16 16 16s16 -7.2002 16 -16v-50.7002c18.5996 -6.59961 32 -24.3994 32 -45.2998c0 -26.5 -21.5 -48 -48 -48zM512 95.999h-0.201172c13 0 24.5996 -7.7998 29.5996 -19.7998
s2.2998 -25.7002 -6.90039 -34.9004l-64 -64c-6 -6 -14.0996 -9.40039 -22.5996 -9.40039s-16.5996 3.40039 -22.5996 9.40039l-64 64c-9.09961 9.2002 -11.8994 22.9004 -6.89941 34.9004s16.7002 19.7998 29.6006 19.7998h32v288c0 17.7002 14.2998 32 32 32
s32 -14.2998 32 -32v-288h32zM511.999 95.999z" />
    <glyph glyph-name="temperature-arrow-up" unicode="temperature&#x2d;arrow&#x2d;up" horiz-adv-x="576" 
d="M128 336v-164.6c0 -17.2998 -7.09961 -31.8994 -15.2998 -42.499c-10.5 -13.5 -16.7002 -30.4004 -16.7002 -48.9004c0 -44.2002 35.7998 -80 80 -80s80 35.7998 80 80c0 18.5 -6.2002 35.4004 -16.7002 49c-8.2002 10.5996 -15.2998 25.1992 -15.2998 42.499v164.5
c0 26.5 -21.5 48 -48 48s-48 -21.5 -48 -48zM176 448c61.9004 0 112 -50.1006 112 -112.001v-164.5c0 -0.0996094 0.0996094 -0.299805 0.199219 -0.599609c0.200195 -0.599609 0.799805 -1.59961 1.7002 -2.7998c18.9004 -24.2998 30.1006 -54.8994 30.1006 -88.0996
c0 -79.5 -64.5 -144 -144 -144s-144 64.5 -144 144c0 33.2002 11.2002 63.7998 30.1006 88.2002c0.900391 1.2002 1.5 2.2002 1.7002 2.7998c0.0996094 0.299805 0.199219 0.5 0.199219 0.599609v164.4c0 61.9004 50.0996 112 112 112zM176 31.999c-26.5 0 -48 21.5 -48 48
c0 20.9004 13.4004 38.7002 32 45.2998v210.7c0 8.7998 7.2002 16 16 16s16 -7.2002 16 -16v-210.7c18.5996 -6.59961 32 -24.3994 32 -45.2998c0 -26.5 -21.5 -48 -48 -48zM480 287.999h0.100586v-288c0 -17.7002 -14.2998 -32 -32 -32s-32 14.2998 -32 32v288h-32
c-13 0 -24.5996 7.7998 -29.5996 19.7998s-2.2998 25.7002 6.90039 34.9004l64 64c12.5 12.5 32.7998 12.5 45.2998 0l64 -64c9.09961 -9.2002 11.8994 -22.9004 6.89941 -34.9004s-16.7002 -19.7998 -29.6006 -19.7998h-32zM480.001 287.999z" />
    <glyph glyph-name="trailer" unicode="trailer" horiz-adv-x="640" 
d="M48 416h447.998c26.5 0 48 -21.5 48 -48v-240h64c17.7002 0 32 -14.2998 32 -32s-14.2998 -32 -32 -32h-112h-8h-201.1c-7.7998 54.2998 -54.3994 96 -110.899 96s-103.1 -41.7002 -110.899 -96h-17.0996c-26.5 0 -48 21.5 -48 48v256c0 26.5 21.5 48 48 48zM79.998 352
c-8.7998 0 -16 -7.2002 -16 -16v-152.2c9.7998 8.09961 20.5996 15.0996 32 21v131.2c0 8.7998 -7.2002 16 -16 16zM175.998 224c5.40039 0 10.7002 -0.200195 16 -0.700195v112.7c0 8.7998 -7.2002 16 -16 16s-16 -7.2002 -16 -16v-112.7
c5.2998 0.5 10.5996 0.700195 16 0.700195zM255.998 204.8c11.4004 -5.7998 22.2002 -12.9004 32 -21v152.2c0 8.7998 -7.2002 16 -16 16s-16 -7.2002 -16 -16v-131.2zM367.998 351.999c-8.7998 0 -16 -7.2002 -16 -16v-192c0 -8.7998 7.2002 -16 16 -16s16 7.2002 16 16
v192c0 8.7998 -7.2002 16 -16 16zM479.998 335.999c0 8.7998 -7.2002 16 -16 16s-16 -7.2002 -16 -16v-192c0 -8.7998 7.2002 -16 16 -16s16 7.2002 16 16v192zM175.998 -32.001c-28.5811 0 -54.9912 15.248 -69.2822 40s-14.291 55.248 0 80s40.7012 40 69.2822 40
s54.9912 -15.248 69.2822 -40s14.291 -55.248 0 -80s-40.7012 -40 -69.2822 -40zM175.998 79.999c-17.6729 0 -32 -14.3271 -32 -32s14.3271 -32 32 -32s32 14.3271 32 32s-14.3271 32 -32 32z" />
    <glyph glyph-name="transporter" unicode="transporter" 
d="M208 400c0 -17.1484 9.14844 -32.9941 24 -41.5684s33.1494 -8.57422 48.001 0s24 24.4199 24 41.5684s-9.14844 32.9941 -24 41.5684s-33.1494 8.57422 -48.001 0s-24 -24.4199 -24 -41.5684zM248 128l16.001 0.000976562v-96h64v178.7l31 -38.7002
c11.0996 -13.7998 31.1992 -16.0996 44.999 -5s16 31.1992 5 44.999l-57.7998 72c-18.2002 22.7998 -45.7998 36 -74.8994 36h-40.7002c-29.0996 0 -56.6992 -13.2998 -74.8994 -36l-57.7002 -72c-11 -13.7998 -8.7998 -34 5 -45s33.8994 -8.7998 44.999 5l31 38.7002
v-178.7h64v96zM216.001 -63.999h80h88c17.7002 0 32 14.2998 32 32s-14.2998 32 -32 32h-256c-17.7002 0 -32 -14.2998 -32 -32s14.2998 -32 32 -32h88zM64.001 352.001l-7.2998 25.4004c-1.09961 3.90039 -4.59961 6.60059 -8.69922 6.60059
s-7.59961 -2.7002 -8.69922 -6.60059l-7.2998 -25.4004l-25.4004 -7.2998c-3.90039 -1.09961 -6.60059 -4.59961 -6.60059 -8.69922s2.7002 -7.59961 6.60059 -8.69922l25.4004 -7.2998l7.2998 -25.4004c1.09961 -3.90039 4.69922 -6.60059 8.69922 -6.60059
s7.59961 2.7002 8.69922 6.60059l7.2998 25.4004l25.4004 7.2998c3.90039 1.09961 6.60059 4.69922 6.60059 8.69922s-2.7002 7.59961 -6.60059 8.69922zM472.701 441.401c-1.09961 3.90039 -4.59961 6.60059 -8.69922 6.60059s-7.59961 -2.7002 -8.69922 -6.60059
l-7.2998 -25.4004l-25.4004 -7.2998c-3.90039 -1.09961 -6.60059 -4.69922 -6.60059 -8.69922s2.7002 -7.59961 6.60059 -8.69922l25.4004 -7.2998l7.2998 -25.4004c1.09961 -3.90039 4.69922 -6.60059 8.69922 -6.60059s7.59961 2.7002 8.69922 6.60059l7.2998 25.4004
l25.4004 7.2998c3.90039 1.09961 6.60059 4.69922 6.60059 8.69922s-2.7002 7.59961 -6.60059 8.69922l-25.4004 7.2998z" />
    <glyph glyph-name="transporter-1" unicode="transporter&#x2d;&#x31;" 
d="M256 448c-17.1484 0 -32.9941 -9.14844 -41.5684 -24s-8.57422 -33.1494 0 -48.001s24.4199 -24 41.5684 -24s32.9941 9.14844 41.5684 24s8.57422 33.1494 0 48.001s-24.4199 24 -41.5684 24zM128 -64h88h80h88c17.7002 0 32 14.2998 32 32s-14.2998 32 -32 32h-256
c-17.7002 0 -32 -14.2998 -32 -32s14.2998 -32 32 -32zM383.7 160h0.299805v0c7 0 14.0996 2.2998 20 7c13.7998 11.0996 16 31.1992 5 44.999l-57.7998 72c-18.2002 22.7998 -45.7998 36 -74.8994 36h-40.7002c-29.0996 0 -56.6992 -13.2998 -74.8994 -36l-57.7002 -72
c-11 -13.7998 -8.7998 -33.8994 5 -44.999c5.90039 -4.7002 13 -7 20 -7v0h0.299805c9.2998 0.0996094 18.3994 4.19922 24.6992 11.999l31 38.7002v-50.7002h144v50.7002l31 -38.7002c6.2002 -7.7998 15.4004 -11.8994 24.7002 -11.999zM56.7002 121.4
c-1.09961 3.90039 -4.69922 6.60059 -8.69922 6.60059s-7.59961 -2.7002 -8.69922 -6.60059l-7.2998 -25.4004l-25.4004 -7.2998c-3.90039 -1.09961 -6.60059 -4.59961 -6.60059 -8.69922s2.7002 -7.59961 6.60059 -8.69922l25.4004 -7.2998l7.2998 -25.4004
c1.09961 -3.90039 4.69922 -6.60059 8.69922 -6.60059s7.59961 2.7002 8.69922 6.60059l7.2998 25.4004l25.4004 7.2998c3.90039 1.09961 6.60059 4.69922 6.60059 8.69922s-2.7002 7.59961 -6.60059 8.69922l-25.4004 7.2998zM480 288l-7.2998 25.4004
c-1.09961 3.90039 -4.69922 6.60059 -8.69922 6.60059s-7.59961 -2.7002 -8.69922 -6.60059l-7.2998 -25.4004l-25.4004 -7.2998c-3.90039 -1.09961 -6.60059 -4.69922 -6.60059 -8.69922s2.7002 -7.59961 6.60059 -8.69922l25.4004 -7.2998l7.2998 -25.4004
c1.09961 -3.90039 4.69922 -6.60059 8.69922 -6.60059s7.59961 2.7002 8.69922 6.60059l7.2998 25.4004l25.4004 7.2998c3.90039 1.09961 6.60059 4.69922 6.60059 8.69922s-2.7002 7.59961 -6.60059 8.69922c0 0 -448.7 -159.3 -25.4004 7.2998zM176 128
c-8.7998 0 -16 -7.2002 -16 -16s7.2002 -16 16 -16h160c8.7998 0 16 7.2002 16 16s-7.2002 16 -16 16h-160zM176 64c-8.7998 0 -16 -7.2002 -16 -16s7.2002 -16 16 -16h160c8.7998 0 16 7.2002 16 16s-7.2002 16 -16 16h-160z" />
    <glyph glyph-name="transporter-2" unicode="transporter&#x2d;&#x32;" 
d="M56.7002 441.4l7.2998 -25.4004l25.4004 -7.2998c3.90039 -1.09961 6.60059 -4.59961 6.60059 -8.69922s-2.7002 -7.59961 -6.60059 -8.69922l-25.4004 -7.2998l-7.2998 -25.4004c-1.09961 -3.90039 -4.59961 -6.60059 -8.69922 -6.60059
s-7.59961 2.7002 -8.69922 6.60059l-7.2998 25.4004l-25.4004 7.2998c-3.90039 1.09961 -6.60059 4.59961 -6.60059 8.69922s2.7002 7.59961 6.60059 8.69922l25.4004 7.2998l7.2998 25.4004c1.09961 3.90039 4.59961 6.60059 8.69922 6.60059
s7.59961 -2.7002 8.69922 -6.60059zM256 352c-17.1484 0 -32.9941 9.14844 -41.5684 24s-8.57422 33.1494 0 48.001s24.4199 24 41.5684 24s32.9941 -9.14844 41.5684 -24s8.57422 -33.1494 0 -48.001s-24.4199 -24 -41.5684 -24zM128 -64c-17.7002 0 -32 14.2998 -32 32
s14.2998 32 32 32h256c17.7002 0 32 -14.2998 32 -32s-14.2998 -32 -32 -32h-88h-80h-88zM399.4 224h-286.698l48.0996 60c18.2002 22.7998 45.7998 36 74.8994 36h40.7002c29.0996 0 56.6992 -13.2998 74.8994 -36zM480.002 96l25.4004 -7.2998
c3.90039 -1.09961 6.60059 -4.69922 6.60059 -8.69922s-2.7002 -7.59961 -6.60059 -8.69922l-25.4004 -7.2998l-7.2998 -25.4004c-1.09961 -3.90039 -4.69922 -6.60059 -8.69922 -6.60059s-7.59961 2.7002 -8.69922 6.60059l-7.2998 25.4004l-25.4004 7.2998
c-3.90039 1.09961 -6.60059 4.69922 -6.60059 8.69922s2.7002 7.59961 6.60059 8.69922l25.4004 7.2998l7.2998 25.4004c1.09961 3.90039 4.69922 6.60059 8.69922 6.60059s7.59961 -2.7002 8.69922 -6.60059zM112.002 192h288c8.7998 0 16 -7.2002 16 -16
s-7.2002 -16 -16 -16h-288c-8.7998 0 -16 7.2002 -16 16s7.2002 16 16 16zM176.002 128h160c8.7998 0 16 -7.2002 16 -16s-7.2002 -16 -16 -16h-160c-8.7998 0 -16 7.2002 -16 16s7.2002 16 16 16zM176.002 64h160c8.7998 0 16 -7.2002 16 -16s-7.2002 -16 -16 -16h-160
c-8.7998 0 -16 7.2002 -16 16s7.2002 16 16 16z" />
    <glyph glyph-name="transporter-3" unicode="transporter&#x2d;&#x33;" 
d="M256 352c-17.1484 0 -32.9941 9.14844 -41.5684 24s-8.57422 33.1494 0 48.001s24.4199 24 41.5684 24s32.9941 -9.14844 41.5684 -24s8.57422 -33.1494 0 -48.001s-24.4199 -24 -41.5684 -24zM128 -64c-17.7002 0 -32 14.2998 -32 32s14.2998 32 32 32h256
c17.7002 0 32 -14.2998 32 -32s-14.2998 -32 -32 -32h-88h-80h-88zM56.7002 345.4l7.2998 -25.4004l25.4004 -7.2998c3.90039 -1.09961 6.60059 -4.69922 6.60059 -8.69922s-2.7002 -7.59961 -6.60059 -8.69922l-25.4004 -7.2998l-7.2998 -25.4004
c-1.09961 -3.90039 -4.69922 -6.60059 -8.69922 -6.60059s-7.59961 2.7002 -8.69922 6.60059l-7.2998 25.4004l-25.4004 7.2998c-3.90039 1.09961 -6.60059 4.59961 -6.60059 8.69922s2.7002 7.59961 6.60059 8.69922l25.4004 7.2998l7.2998 25.4004
c1.09961 3.90039 4.59961 6.60059 8.69922 6.60059s7.59961 -2.7002 8.69922 -6.60059zM480 416l25.4004 -7.2998c3.90039 -1.09961 6.60059 -4.69922 6.60059 -8.69922s-2.7002 -7.59961 -6.60059 -8.69922l-25.4004 -7.2998l-7.2998 -25.4004
c-1.09961 -3.90039 -4.69922 -6.60059 -8.69922 -6.60059s-7.59961 2.7002 -8.69922 6.60059l-7.2998 25.4004l-25.4004 7.2998c-3.90039 1.09961 -6.60059 4.69922 -6.60059 8.69922s2.7002 7.59961 6.60059 8.69922l25.4004 7.2998l7.2998 25.4004
c1.09961 3.90039 4.59961 6.60059 8.69922 6.60059s7.59961 -2.7002 8.69922 -6.60059zM176 320h160c8.7998 0 16 -7.2002 16 -16s-7.2002 -16 -16 -16h-160c-8.7998 0 -16 7.2002 -16 16s7.2002 16 16 16zM144 256h224c8.7998 0 16 -7.2002 16 -16s-7.2002 -16 -16 -16
h-224c-8.7998 0 -16 7.2002 -16 16s7.2002 16 16 16zM112 192h288c8.7998 0 16 -7.2002 16 -16s-7.2002 -16 -16 -16h-288c-8.7998 0 -16 7.2002 -16 16s7.2002 16 16 16zM176 128h160c8.7998 0 16 -7.2002 16 -16s-7.2002 -16 -16 -16h-160c-8.7998 0 -16 7.2002 -16 16
s7.2002 16 16 16zM176 64h160c8.7998 0 16 -7.2002 16 -16s-7.2002 -16 -16 -16h-160c-8.7998 0 -16 7.2002 -16 16s7.2002 16 16 16z" />
    <glyph glyph-name="transporter-empty" unicode="transporter&#x2d;empty" 
d="M296 -64h-80h-88c-17.7002 0 -32 14.2998 -32 32s14.2998 32 32 32h256c17.7002 0 32 -14.2998 32 -32s-14.2998 -32 -32 -32h-88z" />
    <glyph glyph-name="ufo" unicode="ufo" horiz-adv-x="640" 
d="M320 336c-59.2998 0 -109.599 -37.9004 -128.299 -90.7002c-5 -14.2002 -7.7002 -29.4004 -7.7002 -45.3008c0 0 40 -40 136 -40s136 40 136 40c0 15.9004 -2.7002 31.1006 -7.7002 45.3008c-18.7002 52.7998 -69.1006 90.7002 -128.301 90.7002zM320.001 384
c90.2002 0 165.201 -64.7998 180.901 -150.399c84 -23.0996 139.1 -61.7998 139.1 -105.6c0 -70.7002 -143.3 -128 -320 -128s-320 57.2998 -320 128c0 43.7998 55.0996 82.5 139.1 105.6c15.7002 85.5996 90.7998 150.399 180.899 150.399zM320.002 96
c-13.2549 0 -24 -10.7451 -24 -24s10.7451 -24 24 -24s24 10.7451 24 24s-10.7451 24 -24 24zM104.002 120c0 -13.2549 10.7451 -24 24 -24s24 10.7451 24 24s-10.7451 24 -24 24s-24 -10.7451 -24 -24zM512.002 144c-13.2549 0 -24 -10.7451 -24 -24s10.7451 -24 24 -24
s24 10.7451 24 24s-10.7451 24 -24 24z" />
    <glyph glyph-name="ufo-beam" unicode="ufo&#x2d;beam" horiz-adv-x="576" 
d="M184 296c0 48 33.2998 104 104 104s104 -56 104 -104c0 0 -24 -40 -104 -40s-104 40 -104 40zM141.4 336.4c-84.5996 -19.5 -141.399 -55.4004 -141.399 -96.4004c0 -61.9004 128.9 -112 288 -112s288 50.0996 288 112c0 41 -56.7998 76.9004 -141.399 96.4004
c-17.7002 64.4004 -76.7002 111.601 -146.601 111.601s-128.9 -47.2002 -146.601 -111.601zM120 240c0 -13.2549 -10.7451 -24 -24 -24s-24 10.7451 -24 24s10.7451 24 24 24s24 -10.7451 24 -24zM480 216c-13.2549 0 -24 10.7451 -24 24s10.7451 24 24 24
s24 -10.7451 24 -24s-10.7451 -24 -24 -24zM312 192c0 -13.2549 -10.7451 -24 -24 -24s-24 10.7451 -24 24s10.7451 24 24 24s24 -10.7451 24 -24zM74.2998 122.3l-71.999 -151.999c-5.7002 -12 -0.600586 -26.2998 11.3994 -32s26.2998 -0.600586 32 11.3994l72 152
l6.7998 14.5c-16.2998 4.40039 -31.7002 9.40039 -46 15zM458.301 101.701l72.001 -152.001c5.7002 -12 20 -17.0996 32 -11.3994s17.0996 20 11.3994 32l-72 152l-4.2002 8.90039c-14.2998 -5.59961 -29.7002 -10.5996 -46 -15c0 0 -377.2 6.09961 6.7998 -14.5z" />
    <glyph glyph-name="user-alien" unicode="user&#x2d;alien" horiz-adv-x="448" 
d="M64 281c0 -101.1 106.602 -185 139.201 -208.3c6.09961 -4.40039 13.3994 -6.5 20.7998 -6.5s14.7002 2.2002 20.7998 6.5c32.5996 23.2998 139.199 107.3 139.199 208.3c0 92.2002 -71.5996 167 -160 167s-160 -74.7998 -160 -167zM308.602 272h16
c6.2998 0 11.3994 -5.09961 11.3994 -11.3994c0 -37.9004 -30.7002 -68.6006 -68.6006 -68.6006h-16c-6.2998 0 -11.3994 5.09961 -11.3994 11.3994c0 37.9004 30.7002 68.6006 68.6006 68.6006zM208.002 203.4c0 -6.2998 -5.09961 -11.3994 -11.3994 -11.3994h-16
c-37.9004 0 -68.6006 30.7002 -68.6006 68.6006c0 6.2998 5.09961 11.3994 11.3994 11.3994h16c37.9004 0 68.6006 -30.7002 68.6006 -68.6006zM0.00195312 -38.3994c0 -14.0996 11.5029 -25.6006 25.6025 -25.6006h396.8c14.0996 0 25.5996 11.5 25.5996 25.5996
c0 71.4004 -55.7002 129.801 -126.101 134.101c-23.7998 -23.2998 -46.0996 -40.2998 -58.5 -49.0996c-12 -8.59961 -25.9004 -12.3994 -39.4004 -12.3994s-27.4004 3.7998 -39.4004 12.3994c-12.4004 8.90039 -34.7002 25.9004 -58.5 49.1006
c-70.4004 -4.2998 -126.101 -62.7002 -126.101 -134.101z" />
    <glyph glyph-name="user-robot" unicode="user&#x2d;robot" horiz-adv-x="448" 
d="M224 448c-8.7998 0 -16 -7.2002 -16 -16v-48h-64c-35.2998 0 -64 -28.7002 -64 -64v-128c0 -35.2998 28.7002 -64 64 -64h160c35.2998 0 64 28.7002 64 64v128c0 35.2998 -28.7002 64 -64 64h-64v48c0 8.7998 -7.2002 16 -16 16zM16 304v-96c0 -8.7998 7.2002 -16 16 -16
s16 7.2002 16 16v96c0 8.7998 -7.2002 16 -16 16s-16 -7.2002 -16 -16zM416 320c-8.7998 0 -16 -7.2002 -16 -16v-96c0 -8.7998 7.2002 -16 16 -16s16 7.2002 16 16v96c0 8.7998 -7.2002 16 -16 16zM160 256c-17.6729 0 -32 14.3271 -32 32s14.3271 32 32 32
s32 -14.3271 32 -32s-14.3271 -32 -32 -32zM320 288c0 -17.6729 -14.3271 -32 -32 -32s-32 14.3271 -32 32s14.3271 32 32 32s32 -14.3271 32 -32zM160 208c8.83691 0 16 -7.16309 16 -16s-7.16309 -16 -16 -16s-16 7.16309 -16 16s7.16309 16 16 16zM208 192
c0 8.83691 7.16309 16 16 16s16 -7.16309 16 -16s-7.16309 -16 -16 -16s-16 7.16309 -16 16zM288 208c8.83691 0 16 -7.16309 16 -16s-7.16309 -16 -16 -16s-16 7.16309 -16 16s7.16309 16 16 16zM96 96c-53 0 -96 -43 -96 -96v-32c-0 -17.7002 14.2998 -32 32 -32h64v64
c0 17.7002 14.2998 32 32 32h192c17.7002 0 32 -14.2998 32 -32v-64h64c17.7002 0 32 14.2998 32 32v32c0 53 -43 96 -96 96h-256zM176 -16c0 8.7998 -7.2002 16 -16 16s-16 -7.2002 -16 -16v-48h32v48zM224 0c-8.7998 0 -16 -7.2002 -16 -16v-48h32v48
c0 8.7998 -7.2002 16 -16 16zM304 -16c0 8.7998 -7.2002 16 -16 16s-16 -7.2002 -16 -16v-48h32v48z" />
    <glyph glyph-name="user-visor" unicode="user&#x2d;visor" horiz-adv-x="448" 
d="M343 272.8c14.2998 3.2002 25 15.9004 25 31.2002v64c0 17.7002 -14.2998 32 -32 32h-12.0996c-23.4004 29.2998 -59.5 48 -99.9004 48s-76.5 -18.7002 -99.9004 -48h-12.0996c-17.7002 0 -32 -14.2998 -32 -32v-64c0 -15.2002 10.7002 -28 25 -31.2002
c18.7998 -47.2998 65 -80.7998 119 -80.7998s100.2 33.5 119 80.7998zM0 -34.2998c0 -16.4004 13.2998 -29.7002 29.7002 -29.7002h388.6c16.4004 0 29.7002 13.2998 29.7002 29.7002c0 98.5 -79.7998 178.3 -178.3 178.3h-91.4004c-98.5 0 -178.3 -79.7998 -178.3 -178.3z
M348.7 -14.3994l-0.000976562 -0.0996094c-12.2998 17.2002 -17.5996 23 -19.8994 25c-9.40039 0 -22.5 -11.4004 -31.7002 -19.5c-2.5 -2.2002 -4.7998 -4.2002 -6.59961 -5.60059c-2.7998 -2 -6.7998 0 -6.5 3.5c3.90039 36.5 15.9004 66.5 35.8008 89.5
c1.5 1.7998 4.90039 1.89941 6.10059 -0.100586c18.7998 -24.5996 29 -54.8994 30.0996 -90.1992c0 -3.90039 -4.90039 -5.7002 -7.30078 -2.5zM143.999 352.001h160c8.7998 0 16 -7.2002 16 -16s-7.2002 -16 -16 -16h-160c-8.7998 0 -16 7.2002 -16 16s7.2002 16 16 16z
" />
    <glyph glyph-name="vacuum" unicode="vacuum" horiz-adv-x="640" 
d="M301.6 384c-30.2002 0 -56.1992 -21.0996 -62.5996 -50.5996l-23.4004 -109.4h-65.5l26.2998 122.8c12.7002 59 64.9004 101.2 125.2 101.2h210.4c70.7002 0 128 -57.2998 128 -128c0 -42.7998 -21 -80.7002 -53.2998 -104
c13.5996 -26.2998 21.2998 -56.2998 21.2998 -88v-128c0 -35.2998 -28.7002 -64 -64 -64h-75.2998c26.5 23.5 43.2998 57.7998 43.2998 96c0 70.7002 -57.2998 128 -128 128c-11 0 -21.7998 -1.40039 -32 -4v100c0 35.2998 28.7002 64 64 64
c51.2002 0 97.7998 -20.0996 132.2 -52.7998c16.7998 11.5996 27.7998 30.8994 27.7998 52.7998c0 35.2998 -28.7002 64 -64 64h-210.4zM208.7 192l-34.2998 -160h1.59961c26.5 0 48 -21.5 48 -48s-21.5 -48 -48 -48h-47.2998h-1.30078h-95.4004
c-17.7002 0 -32 14.2998 -32 32c0 5.40039 1.40039 10.5 3.80078 15c15.2998 30.0996 46.2002 49 80 49h25.2002l34.2002 160h65.5zM480 32c0 -34.2979 -18.2979 -65.9902 -48 -83.1387s-66.2969 -17.1484 -95.999 0s-48 48.8408 -48 83.1387s18.2979 65.9902 48 83.1387
s66.2969 17.1484 95.999 0s48 -48.8408 48 -83.1387zM352 32c0 -17.6729 14.3271 -32 32 -32s32 14.3271 32 32s-14.3271 32 -32 32s-32 -14.3271 -32 -32z" />
    <glyph glyph-name="vacuum-robot" unicode="vacuum&#x2d;robot" 
d="M256 -64c-91.46 0 -175.973 48.793 -221.703 128s-45.7305 176.794 0 256.001s130.243 128 221.703 128s175.973 -48.793 221.703 -128s45.7305 -176.794 0 -256.001s-130.243 -128 -221.703 -128zM356.7 91.2998
c-6.2002 -6.2002 -6.20117 -16.3994 -0.000976562 -22.5996s16.4004 -6.2002 22.6006 0c68.0996 68.0996 68.0996 178.5 0 246.6s-178.5 68.0996 -246.6 0c-6.2002 -6.2002 -6.2002 -16.4004 0 -22.6006s16.4004 -6.2002 22.6006 0c55.5996 55.5996 145.8 55.5996 201.399 0
s55.5996 -145.8 0 -201.399zM212.699 235.301c-6.2002 -6.2002 -6.2002 -16.4004 0 -22.6006l64 -64c6.2002 -6.2002 16.4004 -6.2002 22.6006 0s6.2002 16.4004 0 22.6006l-64 64c-6.2002 6.2002 -16.4004 6.2002 -22.6006 0zM132.699 219.301
c-6.2002 -6.2002 -6.2002 -16.4004 0 -22.6006l128 -128c6.2002 -6.2002 16.4004 -6.2002 22.6006 0s6.2002 16.4004 0 22.6006l-128 128c-6.2002 6.2002 -16.4004 6.2002 -22.6006 0zM116.699 116.701l64 -64c6.2002 -6.2002 16.4004 -6.2002 22.6006 0
s6.2002 16.4004 0 22.6006l-64 64c-6.2002 6.2002 -16.4004 6.2002 -22.6006 0s-6.2002 -16.4004 0 -22.6006z" />
    <glyph glyph-name="window-frame" unicode="window&#x2d;frame" 
d="M32 192v-192c-17.7002 0 -32 -14.2998 -32 -32s14.2998 -32 32 -32h64h320h64c17.7002 0 32 14.2998 32 32s-14.2998 32 -32 32v192v192c0 35.2998 -28.7002 64 -64 64h-320c-35.2998 0 -64 -28.7002 -64 -64v-192zM416 160v-160h-136v160h136zM232 160v-160h-136v160
h136zM280 224v160h136v-160h-136zM232 384v-160h-136v160h136z" />
    <glyph glyph-name="window-frame-open" unicode="window&#x2d;frame&#x2d;open" 
d="M480 224v-64h-64h-320h-64v64v160c0 35.2998 28.7002 64 64 64h320c35.2998 0 64 -28.7002 64 -64v-160zM416 224v160h-136v-160h136zM232 224v160h-136v-160h136zM96 0h320v128h64v-128c17.7002 0 32 -14.2998 32 -32s-14.2998 -32 -32 -32h-32h-384h-32
c-17.7002 0 -32 14.2998 -32 32s14.2998 32 32 32v128h64v-128z" />
    <glyph glyph-name="coffin-cross" unicode="coffin&#x2d;cross" horiz-adv-x="384" 
d="M102.4 437.1c6.09961 6.90039 14.9004 10.8994 24.1006 10.8994h131c9.2002 0 18 -4 23.9004 -10.7998l91 -104c7.40039 -8.5 11.5 -19.4004 11.5 -30.6006c0 -4.40039 -0.599609 -8.7002 -1.7998 -12.9004l-95.5 -330.6
c-3.90039 -13.7002 -16.4004 -23.1006 -30.7002 -23.1006h-127.9c-14.2002 0 -26.7002 9.40039 -30.7002 23.1006l-95.5 330.6c-1.2002 4.2002 -1.7998 8.5 -1.7998 12.9004c0 11.2002 4.09961 22.1006 11.3994 30.501zM216.001 327.999c0 13.2998 -10.7002 24 -24 24
s-24 -10.7002 -24 -24v-40h-48c-13.2998 0 -24 -10.7002 -24 -24s10.7002 -24 24 -24h48v-120c0 -13.2998 10.7002 -24 24 -24s24 10.7002 24 24v120h48c13.2998 0 24 10.7002 24 24s-10.7002 24 -24 24h-48v40z" />
    <glyph glyph-name="folder-arrow-down" unicode="folder&#x2d;arrow&#x2d;down" 
d="M512 32l-0.000976562 256.001c0 35.2998 -28.7002 64 -64 64h-160c-10.0996 0 -19.5996 4.7002 -25.5996 12.7998l-19.2002 25.5996c-12.0996 16.0996 -31.0996 25.5996 -51.1992 25.5996h-128c-35.2998 0 -64 -28.7002 -64 -64v-320c0 -35.2998 28.7002 -64 64 -64h384
c35.2998 0 64 28.7002 64 64zM279.999 248.001l0.100586 -102.101l31 31c9.2998 9.40039 24.5 9.30078 33.9004 0.000976562s9.40039 -24.5 0 -33.9004l-72 -72c-9.2998 -9.40039 -24.5 -9.40039 -33.9004 0l-72 72c-9.40039 9.2998 -9.30078 24.5 -0.000976562 33.9004
s24.5 9.40039 33.9004 0l31 -31v102.1c0 13.2998 10.7002 24 24 24s24 -10.7002 24 -24z" />
    <glyph glyph-name="folder-arrow-up" unicode="folder&#x2d;arrow&#x2d;up" 
d="M512 32l-0.000976562 256.001c0 35.2998 -28.7002 64 -64 64h-160c-10.0996 0 -19.5996 4.7002 -25.5996 12.7998l-19.2002 25.5996c-12.0996 16.0996 -31.0996 25.5996 -51.1992 25.5996h-128c-35.2998 0 -64 -28.7002 -64 -64v-320c0 -35.2998 28.7002 -64 64 -64h384
c35.2998 0 64 28.7002 64 64zM279.999 72.001c0 -13.2998 -10.7012 -23.999 -24.001 -23.999s-24 10.7002 -24 24l-0.0996094 102.1l-31 -31c-9.2998 -9.40039 -24.5 -9.30078 -33.9004 -0.000976562s-9.40039 24.5 0 33.9004l72 72c9.2998 9.40039 24.5 9.40039 33.9004 0
l72 -72c9.40039 -9.2998 9.30078 -24.5 0.000976562 -33.9004s-24.5 -9.40039 -33.9004 0l-31 31v-102.1z" />
    <glyph glyph-name="user-unlock" unicode="user&#x2d;unlock" horiz-adv-x="640" 
d="M96 320c0 -45.7305 24.3965 -87.9863 64 -110.852s88.3965 -22.8652 128 0s64 65.1211 64 110.852s-24.3965 87.9863 -64 110.852s-88.3965 22.8652 -128 0s-64 -65.1211 -64 -110.852zM0 -34.2998c0 -16.4004 13.2988 -29.7002 29.6992 -29.7002h362.9
c-5.5 9.40039 -8.59961 20.3008 -8.59961 32.001v128c0 2.09961 0.0996094 4.19922 0.299805 6.29883c-31 26 -71 41.7002 -114.6 41.7002h-91.4004c-98.5 0 -178.3 -79.7998 -178.3 -178.3zM495.999 176c0 17.7002 14.2998 32 32 32s32 -14.2998 32 -32h48
c0 44.2002 -35.7998 80 -80 80s-80 -35.7998 -80 -80v-48c-17.7002 0 -32 -14.2998 -32 -32v-128c0 -17.7002 14.2998 -32 32 -32h160c17.7002 0 32 14.2998 32 32v128c0 17.7002 -14.2998 32 -32 32h-48h-48h-16v48z" />
    <glyph glyph-name="bacteria" unicode="bacteria" horiz-adv-x="640" 
d="M304.9 447.3c9.59961 -2.7998 15.1006 -12.6963 12.4004 -22.2959l-4.5 -15.5996c13.5 -7.5 24.9004 -18.7002 32.6006 -32.6006l15.5996 4.5c9.59961 2.7002 19.7998 -2.5 22.5 -12.0996s-2.7998 -19.5996 -12.3994 -22.2998l-15.2002 -4.2998
c1.2002 -16.5 -2.5 -32.7002 -10.0996 -46.6006l9 -9c7 -7.09961 7.09961 -18.5 0 -25.5s-18.5 -7 -25.5 0l-7.2002 7.2002c-9 -6.7002 -19.5 -11.7002 -31.0996 -14.4004c-4.2002 -1 -8.10059 -2 -11.9004 -3.09961l2.2998 -8.09961
c2.7002 -9.59961 -2.7998 -19.5996 -12.3994 -22.2998s-19.5996 2.7998 -22.2998 12.3994l-1.2998 4.40039c-19.5996 -10.9004 -30.5 -23.4004 -36.9004 -33.3008l8.59961 -3.7002c9.2002 -3.90039 13.4004 -14.4004 9.5 -23.6006s-14.5 -13.4004 -23.5996 -9.5l-7.09961 3
c-1.09961 -16.7002 -7 -31.9004 -16.2998 -44.5l7.2002 -7.2002c7 -7.09961 7.09961 -18.5 0 -25.5s-18.5 -7 -25.5 0l-9 9c-12.7002 -6.90039 -27.4004 -10.7002 -43 -10.2002c-1.2002 0 -2.40039 0.0996094 -3.60059 0.199219l-4.2998 -15.2002
c-2.7998 -9.59961 -12.7002 -15.1992 -22.2998 -12.3994s-15.0996 12.7002 -12.3994 22.2998l4.5 15.5996c-13.7002 7.59961 -25 19 -32.5996 32.5996l-15.5996 -4.5c-9.59961 -2.7002 -19.5996 2.89941 -22.2998 12.3994s2.7998 19.5 12.2998 22.2002l15.2002 4.2998
c-0.200195 3 -0.299805 6 -0.200195 9.09961l29.0996 -0.799805h0.0996094c-29.0996 0.900391 -29.0996 1 -29.0996 1v0.0996094v0.200195v0.5l0.0996094 1.09961c0.0996094 0.799805 0.0996094 1.7002 0.199219 2.7998c0.200195 2.09961 0.400391 4.69922 0.800781 7.79883
c0.700195 6.09961 1.90039 14.0996 4.10059 23.3994c0.0996094 0.799805 0.299805 1.5 0.5 2.2998l-10.4004 4.2002c-9.2002 3.7002 -13.7002 14.2002 -10 23.4004s14.2002 13.7002 23.4004 10l8 -3.2002c4.2002 10.4004 9.40039 21.6006 16 33.001
c1.59961 2.7998 3.2998 5.7002 5.09961 8.5l-11.2002 9c-7.7998 6.2002 -9 17.5 -2.7998 25.2998s17.5 9 25.2998 2.7998l10 -8c10.2998 12.0996 22.0996 23.8994 35.7998 34.8994l-6 9c-5.5 8.2998 -3.2998 19.5 5 25s19.5 3.2998 25 -5l5.40039 -8.2998
c13.7002 8.40039 28.7998 16.1006 45.3994 22.8008l-4.40039 10.4004c-3.90039 9.09961 0.399414 19.6992 9.49902 23.5996s19.6992 -0.399414 23.5996 -9.49902l5.5 -12.7002c6.7998 2 13.7998 3.7998 21.0996 5.5c8.40039 1.90039 16.9004 2.5 25.2002 1.90039
l4.2998 15.2002c2.7998 9.59961 12.7002 15.0996 22.2998 12.3994zM112.001 176.004c192.9 271.3 0 -0.100586 0 -0.100586c-20.7002 0.700195 -36.2998 1.2002 -48 1.60059v0s240.9 269.8 48 -1.5zM128.001 256.003c-17.6729 0 -32 -14.3271 -32 -32s14.3271 -32 32 -32
s32 14.3271 32 32s-14.3271 32 -32 32zM192.001 304.003c0 -8.83691 7.16309 -16 16 -16s16 7.16309 16 16s-7.16309 16 -16 16s-16 -7.16309 -16 -16zM322.701 -40.9971l4.39844 15.3945c-13.5 7.5 -24.9004 18.7002 -32.6006 32.6006l-15.5996 -4.5
c-9.59961 -2.7002 -19.5996 2.89941 -22.2998 12.3994s2.7998 19.5 12.3994 22.2002l15.2002 4.2998c-1.2002 16.5 2.5 32.7002 10.0996 46.6006l-9 9c-7 7.09961 -7.09961 18.5 0 25.5s18.5 7 25.5 0l7.2002 -7.2002c9 6.7002 19.5 11.7002 31.0996 14.4004
c4.2002 1 8.10059 2 11.9004 3.09961l-2.2998 8.09961c-2.7002 9.59961 2.7998 19.5996 12.3994 22.2998s19.5996 -2.7998 22.2998 -12.3994l1.2998 -4.40039c19.5996 10.9004 30.5 23.4004 36.9004 33.3008l-8.59961 3.7002c-9.2002 3.90039 -13.4004 14.4004 -9.5 23.6006
s14.5 13.4004 23.5996 9.5l7.09961 -3c1.09961 16.7002 7 31.9004 16.2998 44.5l-7.2002 7.2002c-7 7.09961 -7.09961 18.5 0 25.5s18.5 7 25.5 0l9 -9c12.7002 6.90039 27.4004 10.7002 43 10.2002c1.2002 0 2.40039 -0.0996094 3.60059 -0.199219l4.2998 15.2002
c2.7998 9.59961 12.7002 15.1992 22.2998 12.3994s15.0996 -12.7002 12.3994 -22.2998l-4.5 -15.5996c13.7002 -7.59961 25 -19 32.5996 -32.5996l15.5996 4.5c9.59961 2.7002 19.5996 -2.7998 22.2998 -12.3994s-2.7998 -19.5996 -12.3994 -22.2998l-15.2002 -4.2998
c0.200195 -3 0.299805 -6 0.200195 -9.09961l-29.0996 0.900391h-0.0996094c29.0996 -0.900391 29.0996 -1 29.0996 -1v-0.0996094v-0.200195v-0.5l-0.0996094 -1.09961c-0.0996094 -0.799805 -0.0996094 -1.7002 -0.199219 -2.7998
c-0.200195 -2.09961 -0.400391 -4.69922 -0.800781 -7.79883c-0.700195 -6.09961 -1.90039 -14.0996 -4.10059 -23.3994c-0.0996094 -0.799805 -0.299805 -1.5 -0.5 -2.2998l10.4004 -4.2002c9.2002 -3.7002 13.7002 -14.2002 10 -23.4004s-14.2002 -13.7002 -23.4004 -10
l-8 3.2002c-4.2002 -10.4004 -9.40039 -21.6006 -16 -33.001c-1.59961 -2.7998 -3.2998 -5.7002 -5.09961 -8.5l11.2002 -9c7.7998 -6.2002 9 -17.5 2.7998 -25.2998s-17.5 -9 -25.2998 -2.7998l-10 8c-10.2998 -12.0996 -22.0996 -23.8994 -35.7998 -34.8994l6 -9
c5.5 -8.2998 3.2998 -19.5 -5 -25s-19.5 -3.2998 -25 5l-5.5 8.2998c-13.7002 -8.40039 -28.7998 -16.1006 -45.3994 -22.8008l4.40039 -10.4004c3.90039 -9.09961 -0.399414 -19.6992 -9.49902 -23.5996s-19.6992 0.399414 -23.5996 9.49902l-5.5 12.7002
c-6.7998 -2 -13.7998 -3.7998 -21.0996 -5.5c-8.40039 -1.90039 -16.9004 -2.5 -25.2002 -1.90039l-4.2998 -15.2002c-2.7002 -9.59961 -12.6006 -15.1992 -22.2002 -12.3994s-15.0996 12.7002 -12.3994 22.2998zM575.999 206.497v0.100586l-48 1.5
c20.7002 -0.700195 36.2998 -1.2002 48 -1.60059v0zM447.999 63.998c0 17.6729 -14.3271 32 -32 32s-32 -14.3271 -32 -32s14.3271 -32 32 -32s32 14.3271 32 32z" />
    <glyph glyph-name="bacterium" unicode="bacterium" 
d="M423.1 417.4l-3.90137 -13.8008c20.5 -10.5 37.7002 -27.2998 48.5 -48.5l13.7002 3.90039c12.7998 3.59961 26.0996 -3.7002 29.6992 -16.5s-3.80078 -26.0996 -16.501 -29.6992l-14.7002 -4.2002c1 -23.5 -5.40039 -46.0996 -17.6006 -65.0996l10.5996 -10.5996
c9.40039 -9.2998 9.30078 -24.5 0.000976562 -33.9004s-24.5 -9.40039 -33.9004 0l-10.5996 10.7002c-10.5 -6.7998 -22.2998 -11.7998 -35.2002 -14.7998c-7.90039 -1.7998 -15.3008 -3.89941 -22.2012 -6.09961l4 -14.4004
c3.59961 -12.7998 -3.7002 -26.0996 -16.5 -29.6992s-26.0996 3.80078 -29.6992 16.501l-2.09961 7.5c-23.7002 -14.4004 -38.7002 -31.1006 -48.6006 -46.001l11.2998 -4.7998c12.2002 -5.2002 17.7998 -19.2998 12.5996 -31.5s-19.2998 -17.7998 -31.5 -12.5996
l-12.5996 5.40039l-0.200195 -0.799805c-1.2998 -4.7002 -2 -8.10059 -2.2998 -9.80078l-0.0996094 -0.799805c-1.90039 -17.7998 -7.90039 -34.2002 -17 -48.2998l10.5996 -10.5996c9.40039 -9.2998 9.30078 -24.5 0.000976562 -33.9004s-24.5 -9.40039 -33.9004 0
l-10.5 10.7002c-18.7998 -12.0996 -41.2998 -18.5996 -65.0996 -17.5996l-4.2002 -14.7002c-3.7002 -12.7998 -16.9004 -20.2002 -29.7002 -16.5s-20.0996 17 -16.5 29.7002l3.90039 13.7002c-20.9004 10.7002 -37.9004 27.7998 -48.5 48.5l-13.7998 -3.90039
c-12.7998 -3.59961 -26.0996 3.7002 -29.6992 16.5s3.80078 26 16.501 29.7002l14.7002 4.2002c-0.200195 4.90039 -0.100586 9.90039 0.399414 14.9004l39.2002 -3.59961v0c-39.2002 3.59961 -39.2002 3.69922 -39.2002 3.69922v0.0996094v0.299805l0.0996094 0.599609
l0.0996094 1.40039c0.0996094 1 0.199219 2.2002 0.399414 3.60059c0.400391 2.7998 0.900391 6.2002 1.60059 10.2998c1.40039 8.09961 3.60059 18.7998 7.10059 31.2998c0.299805 1 0.599609 2 0.899414 3.09961l-11.5996 4.59961
c-12.2998 4.90039 -18.2998 18.9004 -13.3994 31.2002s18.9004 18.2998 31.2002 13.3994l9.90039 -3.90039c6.2002 14.2998 13.7998 29.5996 23.2002 45.2998c1.90039 3.2002 3.90039 6.5 6 9.7002l-15 12c-10.2998 8.2002 -11.8994 23.4004 -3.69922 33.7002
s23.2998 12 33.7002 3.7002l13.5 -10.7002c13.5996 16.2998 29.2998 32.0996 47.2998 47.0996l-7.7998 11.5996c-7.2998 11 -4.2998 26 6.7002 33.2998s25.9004 4.2998 33.3008 -6.7002l6.59961 -9.90039c18.2002 11.7002 38.2002 22.4004 60.2002 31.8008l-4.90039 11.2998
c-5.2002 12.2002 0.399414 26.2998 12.5996 31.5s26.2998 -0.399414 31.5 -12.5996l5.90039 -13.7002c11.2002 3.5 22.7998 6.59961 34.8994 9.39941c10 2.2998 20.0996 3.2002 29.8994 2.7998l4.2002 14.7002c3.7002 12.7998 16.9004 20.2002 29.7002 16.5
s20.0996 -17 16.5 -29.7002zM92.0986 84.6992l51.9004 -4.7002l-51.9004 4.7002v0zM111.999 127.999c0 -17.1484 9.14844 -32.9941 24 -41.5684s33.1494 -8.57422 48.001 0s24 24.4199 24 41.5684s-9.14844 32.9941 -24 41.5684s-33.1494 8.57422 -48.001 0
s-24 -24.4199 -24 -41.5684zM239.999 263.999c-13.2549 0 -24 -10.7451 -24 -24s10.7451 -24 24 -24s24 10.7451 24 24s-10.7451 24 -24 24z" />
    <glyph glyph-name="box-tissue" unicode="box&#x2d;tissue" 
d="M92.5 448c-15.7002 0 -28.499 -12.8018 -28.499 -28.502c0 -2.2998 0.299805 -4.59961 0.899414 -6.89941l47.0996 -188.6l16 -64h256l25.5996 64l36.5 91.2002c1.2002 3.2002 1.90039 6.60059 1.90039 10.001c0 14.7998 -12 26.7998 -26.7998 26.7998h-85.2002
c-40 0 -52 24 -64 48s-24 48 -64 48h-115.5zM79.001 223.998h-31c-26.5 0 -48 -21.5 -48 -48v-112h512v112c0 26.5 -21.5 48 -48 48h-19.9004l-25.5996 -64h13.5c8.7998 0 16 -7.2002 16 -16s-7.2002 -16 -16 -16h-48h-256h-48c-8.7998 0 -16 7.2002 -16 16s7.2002 16 16 16
h15zM0.000976562 31.998v-48c0 -26.5 21.5 -48 48 -48h416c26.5 0 48 21.5 48 48v48h-512z" />
    <glyph glyph-name="hand-holding-medical" unicode="hand&#x2d;holding&#x2d;medical" horiz-adv-x="576" 
d="M224 424c0 13.2998 10.7002 24 24 24h48c13.2998 0 24 -10.7002 24 -24v-56h56c13.2998 0 24 -10.7002 24 -24v-48c0 -13.2998 -10.7002 -24 -24 -24h-56v-56c0 -13.2998 -10.7002 -24 -24 -24h-48c-13.2998 0 -24 10.7002 -24 24v56h-56c-13.2998 0 -24 10.7002 -24 24
v48c0 13.2998 10.7002 24 24 24h56v56zM559.7 55.7998l0.100586 -0.000976562l-126.6 -93.2998c-23.4004 -17.2002 -51.7002 -26.5 -80.7002 -26.5h-160.5h-160c-17.7002 0 -32 14.2998 -32 32v64c0 17.7002 14.2998 32 32 32h36.7998l44.9004 36
c22.7002 18.0996 50.9004 28 80 28h78.2998h16h64c17.7002 0 32 -14.2998 32 -32s-14.2998 -32 -32 -32h-64h-16c-8.7998 0 -16 -7.2002 -16 -16s7.2002 -16 16 -16h120.6l119.7 88.2002c17.7998 13.0996 42.7998 9.2998 55.8994 -8.5s9.2998 -42.7998 -8.5 -55.8994z
M192.701 63.999h0.900391v0s366.1 -8.2002 -0.900391 0z" />
    <glyph glyph-name="hand-sparkles" unicode="hand&#x2d;sparkles" horiz-adv-x="640" 
d="M320 448c-17.7002 0 -32 -14.2998 -32 -32v-208c0 -8.7998 -7.2002 -16 -16 -16s-16 7.2002 -16 16v176c0 17.7002 -14.2998 32 -32 32s-32 -14.2998 -32 -32v-272c0 -1.5 0.0996094 -3.09961 0.0996094 -4.59961l-60.5 57.5996
c-16 15.2002 -41.4004 14.6006 -56.6006 -1.39941s-14.6006 -41.4004 1.39941 -56.6006l112.4 -107c43.0996 -41.0996 100.399 -64 159.999 -64h19.2002c41.9004 0 80.4004 14.5996 110.601 39.0996c-18.0996 5.2998 -30.5996 22 -30.5996 40.9004
c0 19 12.5996 35.7002 30.8994 41l31.2002 8.90039l8.90039 31.2002c3.7002 12.9004 13.1006 23 25.001 27.7998v195.1c0 17.7002 -14.2998 32 -32 32s-32 -14.2998 -32 -32v-112c0 -8.7998 -7.2002 -16 -16 -16s-16 7.2002 -16 16v176c0 17.7002 -14.2998 32 -32 32
s-32 -14.2998 -32 -32v-176c0 -8.7998 -7.2002 -16 -16 -16s-16 7.2002 -16 16v208c0 17.7002 -14.2998 32 -32 32zM312.7 121.4l7.2998 -25.4004l25.4004 -7.2998c3.90039 -1.09961 6.60059 -4.69922 6.60059 -8.69922s-2.7002 -7.59961 -6.60059 -8.69922
l-25.4004 -7.2998l-7.2998 -25.4004c-1.09961 -3.90039 -4.69922 -6.60059 -8.69922 -6.60059s-7.59961 2.7002 -8.69922 6.60059l-7.2998 25.4004l-25.4004 7.2998c-3.90039 1.09961 -6.60059 4.69922 -6.60059 8.69922s2.7002 7.59961 6.60059 8.69922l25.4004 7.2998
l7.2998 25.4004c1.09961 3.90039 4.69922 6.60059 8.69922 6.60059s7.59961 -2.7002 8.69922 -6.60059zM104 328l-13.7998 48.2998c-1.2998 4.59961 -5.5 7.69922 -10.2002 7.69922s-8.90039 -3.09961 -10.2002 -7.69922l-13.7998 -48.2998l-48.2998 -13.7998
c-4.59961 -1.2998 -7.69922 -5.5 -7.69922 -10.2002s3.09961 -8.90039 7.69922 -10.2002l48.2998 -13.7998l13.7998 -48.2998c1.2998 -4.59961 5.5 -7.69922 10.2002 -7.69922s8.90039 3.09961 10.2002 7.69922l13.7998 48.2998l48.2998 13.7998
c4.59961 1.2998 7.69922 5.5 7.69922 10.2002s-3.09961 8.90039 -7.69922 10.2002zM584 40l-13.7998 48.2998c-1.2998 4.59961 -5.5 7.69922 -10.2002 7.69922s-8.90039 -3.09961 -10.2002 -7.69922l-13.7998 -48.2998l-48.2998 -13.7998
c-4.59961 -1.2998 -7.69922 -5.5 -7.69922 -10.2002s3.09961 -8.90039 7.69922 -10.2002l48.2998 -13.7998l13.7998 -48.2998c1.2998 -4.59961 5.5 -7.69922 10.2002 -7.69922s8.90039 3.09961 10.2002 7.69922l13.7998 48.2998l48.2998 13.7998
c4.59961 1.2998 7.69922 5.5 7.69922 10.2002s-3.09961 8.90039 -7.69922 10.2002z" />
    <glyph glyph-name="hands-bubbles" unicode="hands&#x2d;bubbles" horiz-adv-x="576" 
d="M416 384c-17.6729 0 -32 14.3271 -32 32s14.3271 32 32 32s32 -14.3271 32 -32s-14.3271 -32 -32 -32zM512 256c-17.6729 0 -32 14.3271 -32 32s14.3271 32 32 32s32 -14.3271 32 -32s-14.3271 -32 -32 -32zM160 -16c0 -17.1484 -9.14844 -32.9941 -24 -41.5684
s-33.1494 -8.57422 -48.001 0s-24 24.4199 -24 41.5684s9.14844 32.9941 24 41.5684s33.1494 8.57422 48.001 0s24 -24.4199 24 -41.5684zM32 288c0 17.5996 14.4004 32 32 32s32 -14.2998 32 -32l0.0996094 -49.2998l43.2998 75v0v0l68 117.8
c6.59961 11.5 21.1992 15.4004 32.6992 8.80078s15.4004 -21.2998 8.80078 -32.7998l-62 -107.4c-3.2998 -5.7002 -1.2998 -13.1006 4.40039 -16.4004s13.1006 -1.2998 16.4004 4.40039l78 135.1c6.59961 11.5 21.2998 15.4004 32.7998 8.80078
s15.4004 -21.2998 8.80078 -32.7998l-45.9004 -79.5c-9.40039 -1 -18.7002 -4 -27.2998 -9.40039l-60.2002 -37.5996c-60.9004 -38.0996 -97.9004 -104.899 -97.9004 -176.699v-8c0 -1.90039 0 -3.80078 0.0996094 -5.70117c-40 32.0996 -63.9004 80.8994 -64 133.1z
M332.1 359.5l-0.0986328 0.0986328c6.59961 11.5 21.2998 15.4004 32.7998 8.80078s15.4004 -21.2998 8.80078 -32.7998l-28.9004 -50c-0.700195 1.5 -1.60059 2.90039 -2.50098 4.40039c-8.2998 13.2998 -20.7998 22.5 -34.7002 27zM378.501 295.799
c-46.4004 63.7002 0.0996094 -0.000976562 0.0996094 -0.000976562c6.59961 11.5 21.2998 15.4004 32.7998 8.80078s15.4004 -21.2998 8.80078 -32.7998l-23 -39.7998h-31.7998v0h-13.2998h-4.7002c2.2002 5.59961 3.7002 11.3994 4.2998 17.3994
c0 0 -19.6006 110.101 26.7998 46.4004zM315.101 272.998c63.4004 22.7998 0.100586 0.000976562 0.100586 0.000976562c9.2998 -15 4.7998 -34.7002 -10.2002 -44.1006l-46.2002 -28.9004h93.2002v0v0h136c13.2998 0 24 -10.7002 24 -24s-10.7002 -24 -24 -24h-124
c-6.59961 0 -12 -5.40039 -12 -12s5.40039 -12 12 -12h156c13.2998 0 24 -10.7002 24 -24s-10.7002 -24 -24 -24h-156c-6.59961 0 -12 -5.40039 -12 -12s5.40039 -12 12 -12h124c13.2998 0 24 -10.7002 24 -24s-10.7002 -24 -24 -24h-124c-6.59961 0 -12 -5.40039 -12 -12
s5.40039 -12 12 -12h92c13.2998 0 24 -10.7002 24 -24s-10.7002 -24 -24 -24h-176c-33.7002 0 -64.9004 11 -90.1006 29.5996c1.40039 5.90039 2.10059 12.1006 2.10059 18.4004c0 37.9004 -26.4004 69.7002 -61.8008 77.9004c-1.40039 8.5 -2.2002 17.2002 -2.2002 26.1006
v8c0 60.7998 31.2998 117.3 82.7998 149.6l60.2002 37.5996c15 9.2998 34.7002 4.7998 44.1006 -10.2002zM315.102 272.999z" />
    <glyph glyph-name="handshake-simple-slash" unicode="handshake&#x2d;simple&#x2d;slash" horiz-adv-x="640" 
d="M38.7998 442.9l125.698 -98.5986l35.5 23.7002c15.7002 10.4004 34 16 52.9004 16.0996c12.7002 0 25.2002 -2.5 36.7998 -7.40039l-81.7998 -66.2002l25.7998 -20.2998l89.7002 72.5996c17 13.7002 38.2002 21.2002 60 21.2002c18.2002 0 36.1006 -5.2002 51.4004 -15
l72.5996 -46.5l3.90039 -2.5h0.700195h4h76c26.5 0 48 -21.5 48 -48v-128c0 -26.5 -21.5 -48 -48 -48h-41.7998l-177.3 163.1l20.9004 16.2002c7 5.5 8.2998 15.5 2.7998 22.5s-15.5 8.2002 -22.5 2.7998l-77.2002 -60.0996l26 -20.2998l23.4004 18.2002l134.2 -123
c9 -8.40039 14.2002 -19.3008 15.2998 -30.7012l135 -105.8c10.4004 -8.2002 12.3008 -23.2998 4.10059 -33.7002s-23.2998 -12.3008 -33.7002 -4.10059l-592 464c-10.4004 8.2002 -12.3008 23.2998 -4.10059 33.7002s23.2998 12.3008 33.7002 4.10059zM-0.00195312 272.001
c0 24.2002 17.9023 44.1992 41.2021 47.499l372.3 -293.3c-0.700195 -0.900391 -1.40039 -1.80078 -2.2002 -2.60059c-17.9004 -19.5 -48.3008 -20.7998 -67.8008 -2.89941l-17 15.5996c-1.90039 -7.40039 -5.60059 -14.5 -11.1006 -20.5996
c-17.9004 -19.5996 -48.2002 -21 -67.7998 -3.09961l-91.4004 83.4004h-108.2c-26.5 0 -48 21.5 -48 48v128z" />
    <glyph glyph-name="handshake-slash" unicode="handshake&#x2d;slash" horiz-adv-x="640" 
d="M38.7998 442.9l125.698 -98.5996l35.5 23.7002c15.7002 10.4004 34 16 52.9004 16.0996c12.7002 0 25.2002 -2.5 36.7998 -7.40039l-81.7998 -66.2002l25.7998 -20.2998l89.7002 72.5996c17 13.7002 38.2002 21.2002 60 21.2002c18.2002 0 36.1006 -5.2002 51.4004 -15
l72.5996 -46.5l3.90039 -2.5h0.700195v-188.8l-139.1 127.9l20.9004 16.2002c7 5.5 8.2998 15.5 2.7998 22.5s-15.5 8.2002 -22.5 2.7998l-77.2002 -60.0996l26 -20.2998l23.4004 18.2002l134.2 -123c9 -8.40039 14.2002 -19.3008 15.2998 -30.7012l135 -105.8
c10.4004 -8.2002 12.3008 -23.2998 4.10059 -33.7002s-23.2998 -12.3008 -33.7002 -4.10059l-592 464c-10.4004 8.2002 -12.3008 23.2998 -4.10059 33.7002s23.2998 12.3008 33.7002 4.10059zM95.998 276.4v-180.4c0 -17.7002 -14.2998 -32 -32 -32h-32
c-17.7002 0 -32 14.2998 -32 32v224h40.5996zM413.598 26.1006l-0.0976562 0.0996094c-0.700195 -0.900391 -1.40039 -1.80078 -2.2002 -2.60059c-17.9004 -19.5 -48.3008 -20.7998 -67.8008 -2.89941l-17 15.5996c-1.90039 -7.40039 -5.60059 -14.5 -11.1006 -20.5996
c-17.9004 -19.5996 -48.2002 -21 -67.7998 -3.09961l-91.4004 83.4004h-28.2002v155.1zM48 128.001c-8.83691 0 -16 -7.16309 -16 -16s7.16309 -16 16 -16s16 7.16309 16 16s-7.16309 16 -16 16zM544 320.001h96v-224c0 -17.7002 -14.2998 -32 -32 -32h-32
c-17.7002 0 -32 14.2998 -32 32v224zM576 112.001c0 -8.83691 7.16309 -16 16 -16s16 7.16309 16 16s-7.16309 16 -16 16s-16 -7.16309 -16 -16z" />
    <glyph glyph-name="head-side-cough" unicode="head&#x2d;side&#x2d;cough" horiz-adv-x="640" 
d="M0 223.8c0 -49.9004 16.5996 -98.1992 46.8994 -137.299c10.2002 -13.2998 17.1006 -29.0996 17.1006 -45.7998v-72.7002c0 -17.7002 14.2998 -32 32 -32h160v0h40c13.2998 0 24 10.7002 24 24v8h80c26.5 0 48 21.5 48 48v16l-107.4 6.7002
c-11.5996 0.700195 -20.5996 10.2998 -20.5996 21.8994c0 11.0996 8.2002 20.3994 19.2002 21.7998l108.8 13.5996v32v0h20.2002c24.2002 0 43.7998 19.5996 43.7998 43.7998c0 10 -3.40039 19.5996 -9.60059 27.3994l-42 52.5996c-8.2998 10.2998 -12.7998 23 -15.0996 36
c-16.0996 90.9004 -102.1 160.2 -197.3 160.2h-24c-123.8 0 -224 -100.6 -224 -224.199zM352 224.001c-17.6729 0 -32 14.3271 -32 32s14.3271 32 32 32s32 -14.3271 32 -32s-14.3271 -32 -32 -32zM464 64.001c0 -13.2549 10.7451 -24 24 -24s24 10.7451 24 24
s-10.7451 24 -24 24s-24 -10.7451 -24 -24zM616 88.001c-13.2549 0 -24 -10.7451 -24 -24s10.7451 -24 24 -24s24 10.7451 24 24s-10.7451 24 -24 24zM592 -31.999c0 -13.2549 10.7451 -24 24 -24s24 10.7451 24 24s-10.7451 24 -24 24s-24 -10.7451 -24 -24zM552 136.001
c-13.2549 0 -24 -10.7451 -24 -24s10.7451 -24 24 -24s24 10.7451 24 24s-10.7451 24 -24 24zM592 160.001c0 -13.2549 10.7451 -24 24 -24s24 10.7451 24 24s-10.7451 24 -24 24s-24 -10.7451 -24 -24zM552 40.001c-13.2549 0 -24 -10.7451 -24 -24s10.7451 -24 24 -24
s24 10.7451 24 24s-10.7451 24 -24 24z" />
    <glyph glyph-name="head-side-cough-slash" unicode="head&#x2d;side&#x2d;cough&#x2d;slash" horiz-adv-x="640" 
d="M448 122.2l-0.00195312 5.80176v0h20.2002c24.2002 0 43.7998 19.5996 43.7998 43.7998c0 10 -3.40039 19.5996 -9.60059 27.3994l-42 52.5996c-8.2998 10.2998 -12.7998 23 -15.0996 36c-16.0996 90.9004 -102.1 160.2 -197.3 160.2h-24
c-50.5 0 -97 -16.7002 -134.4 -44.9004l-50.7998 39.7998c-10.4004 8.2002 -25.5 6.2998 -33.7002 -4.10059s-6.2998 -25.5 4.10059 -33.7002l592 -463.9c10.4004 -8.2002 25.5 -6.2998 33.7002 4.10059c6.7998 8.59961 6.59961 20.5 0.399414 29h3.90039
c-2.7998 10.2998 -12.0996 17.7998 -23.1992 17.7998c-0.599609 0 -1.19922 -0.0996094 -1.79883 -0.0996094l-39.0996 30.5996c-2.7002 9.7998 -11.6006 17 -22.2002 17.4004l-42.9004 33.5996c-3.2002 7.2998 -9.90039 12.7002 -18 14.1006zM-0.00195312 223.802
c0 -49.9004 16.5986 -98.1992 46.8984 -137.299c10.2002 -13.2998 17.1006 -29.0996 17.1006 -45.7998v-72.7002c0 -17.7002 14.2998 -32 32 -32h160v0h40c13.2998 0 24 10.7002 24 24v8h80c21.2002 0 39.2998 13.7998 45.7002 32.8994l-43 33.9004l-62 3.90039
c-11.5996 0.700195 -20.5996 10.2998 -20.5996 21.8994c0 11.0996 8.2002 20.3994 19.2002 21.7998l2.5 0.299805l-314.7 248c-17.2998 -31.7998 -27.0996 -68.2002 -27.0996 -106.9zM615.997 88.0029c-13.2549 0 -24 -10.7451 -24 -24s10.7451 -24 24 -24s24 10.7451 24 24
s-10.7451 24 -24 24zM551.997 136.003c-13.2549 0 -24 -10.7451 -24 -24s10.7451 -24 24 -24s24 10.7451 24 24s-10.7451 24 -24 24zM591.997 160.003c0 -13.2549 10.7451 -24 24 -24s24 10.7451 24 24s-10.7451 24 -24 24s-24 -10.7451 -24 -24z" />
    <glyph glyph-name="head-side-mask" unicode="head&#x2d;side&#x2d;mask" horiz-adv-x="576" 
d="M32 223.8c0 -49.9004 16.5996 -98.2002 46.8994 -137.3c10.2002 -13.2998 17.1006 -29.0996 17.1006 -45.7998v-72.7002c0 -17.7002 14.2998 -32 32 -32h128v160c0 11 2.2002 21.5 6.2002 31l-221 160.7c-6 -20.2998 -9.2002 -41.7002 -9.2002 -63.9004zM280.3 153.399
c14.4004 14 34 22.5996 55.7002 22.5996h207.8c-0.799805 8.40039 -4 16.5 -9.40039 23.2002l-42 52.5996c-8.2998 10.2998 -12.7998 23 -15.0996 36c-16.0996 90.9004 -102.1 160.2 -197.3 160.2h-24c-89.7998 0 -167.3 -53 -203 -129.3zM336 143.999
c-12.5 0 -23.9004 -4.7998 -32.4004 -12.5996v0c-9.59961 -8.7002 -15.5996 -21.4004 -15.5996 -35.4004v-160h144.7c28.0996 0 52.8994 18.2998 61.1992 45.2002l0.900391 2.7998h-126.8c-8.7998 0 -16 7.2002 -16 16s7.2002 16 16 16h136.7l9.7998 32h-146.5
c-8.7998 0 -16 7.2002 -16 16s7.2002 16 16 16h156.3l19.7002 64h-10v0h-198zM384 223.999c-17.6729 0 -32 14.3271 -32 32s14.3271 32 32 32s32 -14.3271 32 -32s-14.3271 -32 -32 -32z" />
    <glyph glyph-name="head-side-virus" unicode="head&#x2d;side&#x2d;virus" 
d="M0 223.8c0 -49.9004 16.5996 -98.2002 46.8994 -137.3c10.2002 -13.2998 17.1006 -29.0996 17.1006 -45.7998v-72.7002c0 -17.7002 14.2998 -32 32 -32h192c17.7002 0 32 14.2998 32 32v32h64c35.2998 0 64 28.7002 64 64v64h20.2002
c24.2002 0 43.7998 19.5996 43.7998 43.7998c0 10 -3.40039 19.5996 -9.60059 27.3994l-42 52.5996c-8.2998 10.2998 -12.7998 23 -15.0996 36c-16.0996 90.9004 -102.1 160.2 -197.3 160.2h-24c-123.8 0 -224 -100.6 -224 -224.199zM224 384c8.7998 0 16 -7.2002 16 -16
c0 -33 39.9004 -49.5 63.2002 -26.2002c6.2002 6.2002 16.4004 6.2002 22.6006 0s6.2002 -16.4004 0 -22.6006c-23.2998 -23.2998 -6.7998 -63.2002 26.2002 -63.2002c8.7998 0 16 -7.2002 16 -16s-7.2002 -16 -16 -16c-33 0 -49.5 -39.9004 -26.2002 -63.2002
c6.2002 -6.2002 6.2002 -16.4004 0 -22.6006s-16.4004 -6.2002 -22.6006 0c-23.2998 23.2998 -63.2002 6.7998 -63.2002 -26.2002c0 -8.7998 -7.2002 -16 -16 -16s-16 7.2002 -16 16c0 33 -39.9004 49.5 -63.2002 26.2002c-6.2002 -6.2002 -16.4004 -6.2002 -22.6006 0
s-6.2002 16.4004 0 22.6006c23.2998 23.2998 6.7998 63.2002 -26.2002 63.2002c-8.7998 0 -16 7.2002 -16 16s7.2002 16 16 16c33 0 49.5 39.9004 26.2002 63.2002c-6.2002 6.2002 -6.2002 16.4004 0 22.6006s16.4004 6.2002 22.6006 0
c23.2998 -23.2998 63.2002 -6.7998 63.2002 26.2002c0 8.7998 7.2002 16 16 16zM200 288c-13.2549 0 -24 -10.7451 -24 -24s10.7451 -24 24 -24s24 10.7451 24 24s-10.7451 24 -24 24zM240 208c0 -8.83691 7.16309 -16 16 -16s16 7.16309 16 16s-7.16309 16 -16 16
s-16 -7.16309 -16 -16z" />
    <glyph glyph-name="house-chimney-user" unicode="house&#x2d;chimney&#x2d;user" horiz-adv-x="576" 
d="M543.8 160.4l-0.0996094 0.0996094h-32l0.700195 -160.2c0.200195 -35.5 -28.5 -64.2998 -64 -64.2998h-320.4c-35.2998 0 -64 28.7002 -64 64v160.4h-32c-18 0 -32 14.0996 -32 32.0996c0 9 3 17 10 24l256.5 223.5c7 7 15 8 22 8s15 -2 21 -7l106.5 -93.7002v36.7002
c0 17.7002 14.2998 32 32 32h32c17.7002 0 32 -14.2998 32 -32v-121l52.7998 -46.5c8 -7 12 -15 11 -24c0 -18.0996 -15 -32.0996 -32 -32.0996zM288 288c-22.8652 0 -43.9932 -12.1982 -55.4258 -32s-11.4326 -44.1982 0 -64s32.5605 -32 55.4258 -32
s43.9932 12.1982 55.4258 32s11.4326 44.1982 0 64s-32.5605 32 -55.4258 32zM176 48c0 -8.7998 7.2002 -16 16 -16h192c8.7998 0 16 7.2002 16 16c0 44.2002 -35.7998 80 -80 80h-64c-44.2002 0 -80 -35.7998 -80 -80z" />
    <glyph glyph-name="house-laptop" unicode="house&#x2d;laptop" horiz-adv-x="640" 
d="M218.3 439.5l-207.999 -192c-9.7002 -9 -12.9004 -23 -8.10059 -35.2002s16.5996 -20.2998 29.7998 -20.2998h32v-112c0 -26.5 21.5 -48 48 -48h160v128h-64c-8.7998 0 -16 7.2002 -16 16v64c0 8.7998 7.2002 16 16 16h64c8.7998 0 16 -7.2002 16 -16v-37.7002
c11.7002 13.2998 28.9004 21.7002 48 21.7002h144c0 8.7002 -3.59961 17.2998 -10.2998 23.5l-208 192c-12.2002 11.2998 -31.1006 11.2998 -43.4004 0zM352.001 144h192v-144h-192v144zM304.001 160v-160h-32c-8.7998 -0 -16 -7.2002 -16 -16c0 -26.5 21.5 -48 48 -48h48
h192h48c26.5 0 48 21.5 48 48c0 8.7998 -7.2002 16 -16 16h-32v160c0 17.7002 -14.2998 32 -32 32h-224c-17.7002 0 -32 -14.2998 -32 -32z" />
    <glyph glyph-name="lungs-virus" unicode="lungs&#x2d;virus" horiz-adv-x="640" 
d="M320 448c-17.7002 0 -32 -14.2998 -32 -32v-124.2c8.5 7.59961 19.7002 12.1992 32 12.1992s23.5 -4.59961 32 -12.1992v124.2c0 17.7002 -14.2998 32 -32 32zM444.5 252.5l-0.199219 -0.100586c18.7002 -18.7998 18.7002 -49.2002 0 -67.9004
c-1.09961 -1.09961 -1.39941 -1.89941 -1.49902 -2.49902c-0.0996094 -0.700195 -0.0996094 -1.7998 0.400391 -2.89941s1.2002 -1.89941 1.7998 -2.2998c0.5 -0.400391 1.2998 -0.800781 2.89941 -0.800781c26.5 0 48 -21.5 48 -48s-21.5 -48 -48 -48
c-1.59961 0 -2.39941 -0.5 -2.89941 -0.799805c-0.599609 -0.400391 -1.2998 -1.2002 -1.7998 -2.2998s-0.5 -2.09961 -0.400391 -2.89941c0.0996094 -0.5 0.399414 -1.40039 1.49902 -2.5c18.7002 -18.7998 18.7002 -49.2002 0 -67.9004l-22.5996 22.5996l22.5996 -22.5996
c-10.7002 -10.7998 -25.2002 -15.2998 -39.2002 -13.7998c12.7998 -15.7998 30.5996 -27.7002 51.5 -32.9004l72.7002 -18.2002c7.09961 -1.7998 14.2998 -2.7002 21.5996 -2.7002c49.2002 0 89 39.9004 89 89v7c0 1.40039 0 2.7002 -0.200195 4
c-7.2002 57.7998 -33.1006 119.399 -59.6006 170.3c-26.7002 51.5 -55.6006 94.7998 -71.001 116.899c-13 18.5996 -34.0996 28.7998 -55.7998 28.7998c-38.2998 0 -69.2998 -31 -69.2998 -69.2998v-24.0996c18.7002 12.4004 44.1006 10.3008 60.501 -6.09961z
M421.801 26.1992c6.2002 6.2002 6.2002 16.4004 0 22.6006c-23.2998 23.2998 -6.7998 63.2002 26.2002 63.2002c8.7998 0 16 7.2002 16 16s-7.2002 16 -16 16c-33 0 -49.5 39.9004 -26.2002 63.2002c6.2002 6.2002 6.2002 16.4004 0 22.6006s-16.4004 6.2002 -22.6006 0
c-23.2998 -23.2998 -63.2002 -6.7998 -63.2002 26.2002c0 8.7998 -7.2002 16 -16 16s-16 -7.2002 -16 -16c0 -33 -39.9004 -49.5 -63.2002 -26.2002c-6.2002 6.2002 -16.4004 6.2002 -22.6006 0s-6.2002 -16.4004 0 -22.6006
c23.2998 -23.2998 6.7998 -63.2002 -26.2002 -63.2002c-8.7998 0 -16 -7.2002 -16 -16s7.2002 -16 16 -16c33 0 49.5 -39.9004 26.2002 -63.2002c-6.2002 -6.2002 -6.2002 -16.4004 0 -22.6006s16.4004 -6.2002 22.6006 0c23.2998 23.2998 63.2002 6.7998 63.2002 -26.2002
c0 -8.7998 7.2002 -16 16 -16s16 7.2002 16 16c0 33 39.9004 49.5 63.2002 26.2002c6.2002 -6.2002 16.4004 -6.2002 22.6006 0zM183.301 -43.2012c238.5 69.4004 -0.0996094 0.201172 -0.0996094 0.201172c20.9004 5.2002 38.7002 17 51.5 32.9004
c-13.9004 -1.5 -28.5 3.09961 -39.2002 13.7998c-18.7002 18.7998 -18.7002 49.2002 0 67.9004c1.09961 1.09961 1.39941 1.89941 1.49902 2.49902c0.0996094 0.700195 0.0996094 1.7998 -0.400391 2.89941s-1.2002 1.89941 -1.7998 2.2998
c-0.5 0.400391 -1.2998 0.800781 -2.89941 0.800781c-26.5 0 -48 21.5 -48 48s21.5 48 48 48c1.59961 0 2.39941 0.5 2.89941 0.799805c0.599609 0.400391 1.2998 1.2002 1.7998 2.2998s0.5 2.09961 0.400391 2.89941c-0.0996094 0.5 -0.399414 1.40039 -1.49902 2.5
c-18.7002 18.7998 -18.7002 49.2002 0 67.9004c16.5 16.4004 41.9004 18.5 60.5 6.09961v24.0996c0 38.2998 -31 69.2998 -69.4004 69.2002c-21.7998 0 -42.7998 -10.2002 -55.7998 -28.7998c-15.4004 -22.0996 -44.2002 -65.3994 -71 -116.899
c-26.5 -50.9004 -52.4004 -112.4 -59.6006 -170.301c-0.0996094 -1.2998 -0.199219 -2.7002 -0.199219 -4v-7c0 -49.2002 39.9004 -89 89 -89c7.2998 0 14.5 0.900391 21.5996 2.7002c0 0 311.2 87.6006 72.7002 18.2002zM296.001 128c-13.2549 0 -24 10.7451 -24 24
s10.7451 24 24 24s24 -10.7451 24 -24s-10.7451 -24 -24 -24zM368.001 96c0 -8.83691 -7.16309 -16 -16 -16s-16 7.16309 -16 16s7.16309 16 16 16s16 -7.16309 16 -16z" />
    <glyph glyph-name="people-arrows" unicode="people&#x2d;arrows&#x2d;left&#x2d;right" horiz-adv-x="640" 
d="M64 384c0 -22.8652 12.1982 -43.9932 32 -55.4258s44.1982 -11.4326 64 0s32 32.5605 32 55.4258s-12.1982 43.9932 -32 55.4258s-44.1982 11.4326 -64 0s-32 -32.5605 -32 -55.4258zM25.9004 214.6l-4.10059 -49.3008c-2.5 -29.7998 15.7002 -56.0996 42.2002 -65.5996
v-115.7c0 -26.5 21.5 -48 48 -48h32c26.5 0 48 21.5 48 48v72.7998l-47.5996 47.5996c-21.9004 21.9004 -21.9004 57.3008 0 79.2012l64 64c2.2998 2.2998 4.7998 4.39941 7.5 6.2998c-14.5 20.7002 -38.5 34.1006 -65.5 34.1006h-44.7998
c-41.5996 0 -76.2998 -31.9004 -79.7002 -73.4004zM447.999 383.999c0 -22.8652 12.1982 -43.9932 32 -55.4258s44.1982 -11.4326 64 0s32 32.5605 32 55.4258s-12.1982 43.9932 -32 55.4258s-44.1982 11.4326 -64 0s-32 -32.5605 -32 -55.4258zM431.599 247.599l64 -63.999
c21.9004 -21.9004 21.9004 -57.3008 0 -79.2012l-47.5996 -47.5996v-72.7998c0 -26.5 21.5 -48 48 -48h32c26.5 0 48 21.5 48 48v115.7c26.5 9.5 44.7002 35.7998 42.2002 65.5996l-4.09961 49.2998c-3.40039 41.5 -38.1006 73.4004 -79.7002 73.4004h-44.7998
c-26.9004 0 -51 -13.4004 -65.5 -34.1006c2.59961 -1.90039 5.19922 -4 7.49902 -6.2998zM271.999 208c0 9.7002 -5.7998 18.5 -14.7998 22.2002s-19.2998 1.7002 -26.2002 -5.2002l-64 -64c-9.40039 -9.2998 -9.40039 -24.5 0 -33.9004l64 -64
c6.90039 -6.90039 17.2002 -8.90039 26.2002 -5.2002s14.7998 12.5 14.7998 22.2002v32h96v-32c0 -9.7002 5.7998 -18.5 14.7998 -22.2002s19.2998 -1.7002 26.2002 5.2002l64 64c9.40039 9.2998 9.40039 24.5 0 33.9004l-64 64
c-6.90039 6.90039 -17.2002 8.90039 -26.2002 5.2002s-14.7998 -12.5 -14.7998 -22.2002v-32h-96s159.6 71.5996 0 32z" />
    <glyph glyph-name="plane-slash" unicode="plane&#x2d;slash" horiz-adv-x="640" 
d="M514.3 256h-116.601l-100.5 175.9c-5.7002 9.90039 -16.2998 16.1006 -27.7998 16.1006h-56.2002c-10.5996 0 -18.2998 -10.2002 -15.3994 -20.4004l40.2998 -140.9l-199.3 156.2c-10.4004 8.2002 -25.5 6.2998 -33.7002 -4.10059s-6.2998 -25.5 4.10059 -33.7002
l592 -464c10.4004 -8.2002 25.5 -6.2998 33.7002 4.10059s6.2998 25.5 -4.10059 33.7002l-190.3 149.1h73.7998c34.2002 0 93.7002 28 93.7002 64c0 35 -59.5 64 -93.7002 64zM41.499 319.3c-5.5 -1.90039 -9.49902 -7.10156 -9.49902 -13.3018
c0 -1.2998 0.0996094 -2.59961 0.5 -3.89941l31.5 -110.1l-31.5 -110.1c-0.299805 -1.2998 -0.5 -2.59961 -0.5 -3.89941c0 -7.7002 6.2002 -14 14 -14h42c5 0 9.7998 2.40039 12.7998 6.40039l43.2002 57.5996h102.8l-49 -171.6
c-2.90039 -10.2002 4.7998 -20.4004 15.3994 -20.4004h56.2002c11.5 0 22.0996 6.09961 27.7998 16.0996l65.2998 114.3z" />
    <glyph glyph-name="pump-medical" unicode="pump&#x2d;medical" horiz-adv-x="448" 
d="M128 416c0 17.7002 14.2988 32 31.999 32h64c17.7002 0 32 -14.2998 32 -32h60.0996c21.2002 0 41.6006 -8.40039 56.6006 -23.4004l33.9004 -33.9004c12.5 -12.5 12.5 -32.7998 0 -45.2998s-32.7998 -12.5 -45.2998 0l-33.9004 33.9004
c-3 3 -7.09961 4.7002 -11.2998 4.7002h-60.0996v-32h-128v96zM117.399 288h149.103c33.2998 0 61 -25.5 63.7998 -58.7002l18.7002 -224c3.09961 -37.2998 -26.4004 -69.2998 -63.8008 -69.2998h-186.4c-37.5 0 -66.9004 32 -63.8008 69.2998l18.5996 224
c2.7998 33.2002 30.5 58.7002 63.7998 58.7002zM216.002 168c0 13.2998 -10.7002 24 -24 24s-24 -10.7002 -24 -24v-32h-32c-13.2998 0 -24 -10.7002 -24 -24s10.7002 -24 24 -24h32v-32c0 -13.2998 10.7002 -24 24 -24s24 10.7002 24 24v32h32c13.2998 0 24 10.7002 24 24
s-10.7002 24 -24 24h-32s-98.5996 152 0 32z" />
    <glyph glyph-name="pump-soap" unicode="pump&#x2d;soap" horiz-adv-x="448" 
d="M128 416c0 17.7002 14.2988 32 31.999 32h64c17.7002 0 32 -14.2998 32 -32h60.0996c21.2002 0 41.6006 -8.40039 56.6006 -23.4004l33.9004 -33.9004c12.5 -12.5 12.5 -32.7998 0 -45.2998s-32.7998 -12.5 -45.2998 0l-33.9004 33.9004
c-3 3 -7.09961 4.7002 -11.2998 4.7002h-60.0996v-32h-128v96zM117.399 288h149.103c33.2998 0 61 -25.5 63.7998 -58.7002l18.7002 -224c3.09961 -37.2998 -26.4004 -69.2998 -63.8008 -69.2998h-186.4c-37.5 0 -66.9004 32 -63.8008 69.2998l18.5996 224
c2.7998 33.2002 30.5 58.7002 63.7998 58.7002zM256.002 88c0 32.5 -36.998 80.9004 -50.8984 97.9004c-3.2002 3.90039 -8.10059 6.10059 -13.1006 6.10059s-9.90039 -2.2002 -13.1006 -6.10059c-13.9004 -17 -50.9004 -65.4004 -50.9004 -97.9004
c0 -35.2998 28.7002 -56 64 -56s64 20.7002 64 56z" />
    <glyph glyph-name="shield-virus" unicode="shield&#x2d;virus" 
d="M269.4 445.1l188.298 -79.9004c22 -9.2998 38.4004 -31 38.3008 -57.2002c-0.5 -99.2002 -41.2998 -280.7 -213.6 -363.2c-16.7002 -8 -36.1006 -8 -52.8008 0c-172.3 82.5 -213.1 264 -213.6 363.2c-0.0996094 26.2002 16.3008 47.9004 38.3008 57.2002l188.3 79.9004
c4.2002 1.90039 8.7002 2.90039 13.4004 2.90039s9.2002 -1 13.4004 -2.90039zM255.998 336c-8.7998 0 -16 -7.2002 -16 -16c0 -33 -39.9004 -49.5 -63.2002 -26.2002c-6.2002 6.2002 -16.4004 6.2002 -22.6006 0s-6.2002 -16.4004 0 -22.6006
c23.2998 -23.2998 6.7998 -63.2002 -26.2002 -63.2002c-8.7998 0 -16 -7.2002 -16 -16s7.2002 -16 16 -16c33 0 49.5 -39.9004 26.2002 -63.2002c-6.2002 -6.2002 -6.2002 -16.4004 0 -22.6006s16.4004 -6.2002 22.6006 0c23.2998 23.2998 63.2002 6.7998 63.2002 -26.2002
c0 -8.7998 7.2002 -16 16 -16s16 7.2002 16 16c0 33 39.9004 49.5 63.2002 26.2002c6.2002 -6.2002 16.4004 -6.2002 22.6006 0s6.2002 16.4004 0 22.6006c-23.2998 23.2998 -6.7998 63.2002 26.2002 63.2002c8.7998 0 16 7.2002 16 16s-7.2002 16 -16 16
c-33 0 -49.5 39.9004 -26.2002 63.2002c6.2002 6.2002 6.2002 16.4004 0 22.6006s-16.4004 6.2002 -22.6006 0c-23.2998 -23.2998 -63.2002 -6.7998 -63.2002 26.2002c0 8.7998 -7.2002 16 -16 16zM231.998 192c-13.2549 0 -24 10.7451 -24 24s10.7451 24 24 24
s24 -10.7451 24 -24s-10.7451 -24 -24 -24zM303.998 160c0 -8.83691 -7.16309 -16 -16 -16s-16 7.16309 -16 16s7.16309 16 16 16s16 -7.16309 16 -16z" />
    <glyph glyph-name="sink" unicode="sink" 
d="M288 352v-192h64v24c0 30.9004 25.0996 56 56 56h56c13.2998 0 24 -10.7002 24 -24s-10.7002 -24 -24 -24h-56c-4.40039 0 -8 -3.59961 -8 -8v-24h80c17.7002 0 32 -14.2998 32 -32s-14.2998 -32 -32 -32h-224h-224c-17.7002 0 -32 14.2998 -32 32s14.2998 32 32 32h80
v24c0 4.40039 -3.59961 8 -8 8h-48c-13.2998 0 -24 10.7002 -24 24s10.7002 24 24 24h48c30.9004 0 56 -25.0996 56 -56v-24h64v192c0 53 43 96 96 96s96 -43 96 -96c0 -17.7002 -14.2998 -32 -32 -32s-32 14.2998 -32 32s-14.2998 32 -32 32s-32 -14.2998 -32 -32zM480 32
c0 -53 -43 -96 -96 -96h-256c-53 0 -96 43 -96 96v32h448v-32z" />
    <glyph glyph-name="soap" unicode="soap" 
d="M208 352c-17.1484 0 -32.9941 9.14844 -41.5684 24s-8.57422 33.1494 0 48.001s24.4199 24 41.5684 24s32.9941 -9.14844 41.5684 -24s8.57422 -33.1494 0 -48.001s-24.4199 -24 -41.5684 -24zM320 192c-22.8652 0 -43.9932 12.1982 -55.4258 32s-11.4326 44.1982 0 64
s32.5605 32 55.4258 32s43.9932 -12.1982 55.4258 -32s11.4326 -44.1982 0 -64s-32.5605 -32 -55.4258 -32zM416 416c0 -17.6729 -14.3271 -32 -32 -32s-32 14.3271 -32 32s14.3271 32 32 32s32 -14.3271 32 -32zM416 256c53 0 96 -42.999 96 -95.999v-128
c0 -53 -43 -96 -96 -96h-320c-53 0 -96 43 -96 96v128c0 53 43 96 96 96h128c0 -24.5996 9.2002 -47 24.4004 -64h-88.4004c-53 0 -96 -43 -96 -96s43 -96 96 -96h192c53 0 96 43 96 96c0 41.2002 -25.9004 76.2998 -62.4004 89.8994
c18.7002 17.5996 30.4004 42.5 30.4004 70.0996zM160 160.001h160h32c35.2998 0 64 -28.7002 64 -64s-28.7002 -64 -64 -64h-192c-35.2998 0 -64 28.7002 -64 64s28.7002 64 64 64z" />
    <glyph glyph-name="stopwatch-20" unicode="stopwatch&#x2d;&#x32;&#x30;" horiz-adv-x="448" 
d="M176 448l96.001 -0.000976562c17.7002 0 32 -14.2998 32 -32s-14.2998 -32 -32 -32h-16v-34.4004c37.5 -5.7998 71.5996 -21.5996 99.6992 -44.5996l21.5996 21.5996c12.5 12.5 32.7998 12.5 45.2998 0s12.5 -32.7998 0 -45.2998l-24.0996 -24.0996
c21.2002 -32.5 33.5 -71.4004 33.5 -113.2c0 -114.9 -93.0996 -208 -208 -208s-208 93.0996 -208 208c0 104 76.2998 190.2 176 205.601v34.4004h-16c-17.7002 0 -32 14.2998 -32 32s14.2998 32 32 32zM288.001 243.999c-28.7002 0 -52 -23.2998 -52 -52v-96
c0 -28.7002 23.2998 -52 52 -52s52 23.2998 52 52v96c0 28.7002 -23.2998 52 -52 52zM276.001 191.999c0 6.59961 5.40039 12 12 12s12 -5.40039 12 -12v-96c0 -6.59961 -5.40039 -12 -12 -12s-12 5.40039 -12 12v96zM159.501 203.999
c6.90039 0 12.499 -5.59961 12.499 -12.5v-2.2002c0 -3.59961 -1.2998 -7.09961 -3.7002 -9.7998l-39 -43.9004c-13.7002 -15.4004 -21.2002 -35.2002 -21.2002 -55.7998v-15.7002c0 -11 9 -20 20 -20h64c11 0 20 9 20 20s-9 20 -20 20h-43.7998
c0.900391 9.2002 4.7002 17.9004 10.9004 24.9004l39 43.9004c8.90039 10 13.8008 23 13.8008 36.4004v2.2002c0 29 -23.5 52.5 -52.5 52.5c-22.5996 0 -42.5996 -14.4004 -49.7998 -35.9004l-0.599609 -1.7002c-3.5 -10.5 2.09961 -21.7998 12.5996 -25.2998
s21.7998 2.09961 25.2998 12.5996l0.599609 1.7002c1.7002 5.09961 6.5 8.59961 11.9004 8.59961z" />
    <glyph glyph-name="shop-slash" unicode="store&#x2d;alt&#x2d;slash" horiz-adv-x="640" 
d="M38.7998 442.9l35.2998 -27.7012l7.7002 11.4004c8.90039 13.4004 23.9004 21.4004 39.9004 21.4004h396.6c16.0996 0 31 -8 39.9004 -21.4004l75.5 -113.4c4 -6 6.2002 -13.0996 6.2002 -20.3994c0 -20.2998 -16.5 -36.7998 -36.7998 -36.7998h-325.9l42.7998 -33.5v1.5
h64v-51.7002l128 -100.3v152h64v-202.1l54.7998 -43c10.4004 -8.2002 12.3008 -23.2998 4.10059 -33.7002s-23.2998 -12.3008 -33.7002 -4.10059l-592 464c-10.4004 8.2002 -12.3008 23.2998 -4.10059 33.7002s23.2998 12.3008 33.7002 4.10059zM36.7998 255.999
c-20.2998 0 -36.7998 16.5 -36.7998 36.9004c0 7.2002 2.2002 14.2998 6.2002 20.3994l14.7998 22.2002l100.8 -79.5h-85zM320 63.999v35.9004l64 -50.4004v-65.5c0 -26.5 -21.5 -48 -48 -48h-224c-26.5 0 -48 21.5 -48 48v80v160h64v-160h192z" />
    <glyph glyph-name="store-slash" unicode="store&#x2d;slash" horiz-adv-x="640" 
d="M38.7998 442.9l56.2002 -43.999l22.7002 36c5.09961 8.09961 14.1992 13.0996 23.8994 13.0996h356.8c9.7002 0 18.7998 -5 23.8994 -13.0996l57.5 -90.7002c29.7002 -46.9004 3.40039 -112 -52.0996 -119.4c-4 -0.5 -8 -0.799805 -12.0996 -0.799805
c-26.0996 0 -49.1992 11.4004 -65.1992 29c-15.9004 -17.5996 -39 -29 -65.2002 -29c-26.0996 0 -49.2998 11.4004 -65.2002 29c-5.5 -6 -11.7998 -11.2998 -18.7998 -15.7002l178.8 -140.3v100.3c11.0996 -3.40039 23 -5.30078 35.4004 -5.30078
c5.5 0 10.9004 0.400391 16.2002 1.10059h0.0996094c4.2998 0.5 8.2998 1.2998 12.2998 2.2998v-131.4v-17.0996l86.7998 -68c10.4004 -8.2002 12.3008 -23.2998 4.10059 -33.7002s-23.2998 -12.3008 -33.7002 -4.10059l-592 464
c-10.4004 8.2002 -12.3008 23.2998 -4.10059 33.7002s23.2998 12.3008 33.7002 4.10059zM112.2 224.802c-43.7998 5.90039 -69.4004 48.1006 -63.3008 88.7002l106.4 -83.9004c-9.59961 -3.59961 -20 -5.59961 -31 -5.59961c-4 0 -8.09961 0.299805 -12.0996 0.799805z
M159.999 64.002h205.5l149.4 -117.7c-10.0996 -6.5 -22 -10.2998 -34.9004 -10.2998h-320c-35.2998 0 -64 28.7002 -64 64v64v131.4c3.90039 -1 7.90039 -1.7002 12 -2.2998h0.0996094c5.2998 -0.700195 10.7998 -1.10059 16.2998 -1.10059
c12.4004 0 24.4004 1.90039 35.6006 5.40039c0 0 -47.7998 27.3994 0 -133.4z" />
    <glyph glyph-name="toilet-paper-slash" unicode="toilet&#x2d;paper&#x2d;slash" horiz-adv-x="640" 
d="M38.7998 442.9l56.7998 -44.5c17 30.7998 39.5996 49.5996 64.3994 49.5996l284.2 -0.0996094c-47 -49.5996 -60.2002 -126.5 -60.2002 -192c0 -29.5996 -1 -56.7998 -2.59961 -81.5996l59 -46.2002c-15.2002 34 -24.4004 78.7998 -24.4004 127.899c0 106 43 192 96 192
s96 -86 96 -192c0 -99.9004 -38.0996 -182 -86.8994 -191.1l109.7 -86c10.4004 -8.2002 12.3008 -23.2998 4.10059 -33.7002s-23.2998 -12.3008 -33.7002 -4.10059l-592 464c-10.4004 8.2002 -12.3008 23.2998 -4.10059 33.7002s23.2998 12.3008 33.7002 4.10059z
M367.3 62.6006l0.000976562 0.101562c-8.5 -43.4004 -18.5996 -72.9004 -26 -90.6006c-10 -24 -33.0996 -36.0996 -55.3994 -36.0996h-237.9c-11.5 0 -22.2002 6.09961 -27.9004 16.1992s-5.5 22.2998 0.400391 32.2002c9.7998 17.7998 15.3994 38.2998 20.499 57.7002
c11.2998 43.0996 23 112.399 23 213.899c0 15 0.900391 29.5996 2.5 43.5996zM544.001 256.003c0 35.2998 -14.2998 64 -32 64s-32 -28.7002 -32 -64s14.2998 -64 32 -64s32 28.7002 32 64z" />
    <glyph glyph-name="users-slash" unicode="users&#x2d;slash" horiz-adv-x="640" 
d="M38.7998 442.9l38.7002 -30.4004c14.4004 21.4004 38.8008 35.5 66.501 35.5c44.2002 0 80 -35.7998 80 -80c0 -20.7998 -7.90039 -39.7002 -20.9004 -53.9004l40.5996 -31.7998c17.5996 22.9004 45.1992 37.7002 76.2988 37.7002c53 0 96 -43 96 -96
c0 -22.7998 -7.90039 -43.7002 -21.3008 -60.2002l25.2002 -19.7002c17.5 21.9004 28 49.7002 28 79.9004c0 7.59961 -0.599609 15.0996 -1.89941 22.2998c13.5996 6.2002 28.6992 9.7002 44.5996 9.7002h42.7002c58.9004 0 106.7 -47.7998 106.7 -106.7
c0 -11.7002 -9.5 -21.2998 -21.2998 -21.2998h-178.1l190.2 -149.1c10.4004 -8.2002 12.3008 -23.2998 4.10059 -33.7002s-23.2998 -12.3008 -33.7002 -4.10059l-592 464c-10.4004 8.2002 -12.3008 23.2998 -4.10059 33.7002s23.2998 12.3008 33.7002 4.10059zM106.7 256
h-0.0996094h15.2002l72.7002 -57.2002c5.59961 -28 20.1992 -52.5996 40.7988 -70.7998h-0.700195h-213.3c-11.7002 0 -21.2998 9.59961 -21.2998 21.2998c-0 58.9004 47.7998 106.7 106.7 106.7zM261.3 96h63.6006l184.4 -145.2
c-4.40039 -8.7998 -13.4004 -14.7998 -23.9004 -14.7998h-330.7c-14.7998 0 -26.7002 12 -26.7002 26.7002c0 73.5996 59.7002 133.3 133.3 133.3zM512.001 288c-28.5811 0 -54.9912 15.248 -69.2822 40s-14.291 55.248 0 80s40.7012 40 69.2822 40
s54.9912 -15.248 69.2822 -40s14.291 -55.248 0 -80s-40.7012 -40 -69.2822 -40z" />
    <glyph glyph-name="virus" unicode="virus" 
d="M288 416v-11.501c0 -49.9004 60.2998 -74.9004 95.7002 -39.6006l8.2002 8.2002c12.5 12.5 32.7998 12.5 45.2998 0s12.5 -32.7998 0 -45.2998l-8.2002 -8.2002c-35.2998 -35.2998 -10.2998 -95.5996 39.6006 -95.5996h11.5c17.7002 0 32 -14.2998 32 -32
s-14.2998 -32 -32 -32h-11.5c-49.9004 0 -74.9004 -60.2998 -39.6006 -95.5996l8.2002 -8.2002c12.5 -12.5 12.5 -32.7998 0 -45.2998s-32.7998 -12.5 -45.2998 0l-8.2002 8.2002c-35.2998 35.2998 -95.5996 10.2998 -95.5996 -39.6006v-11.5
c0 -17.7002 -14.2998 -32 -32 -32s-32 14.2998 -32 32v11.5c0 49.9004 -60.2998 74.9004 -95.5996 39.6006l-8.2002 -8.2002c-12.5 -12.5 -32.7998 -12.5 -45.2998 0s-12.5 32.7998 0 45.2998l8.09961 8.2002c35.2998 35.2998 10.2998 95.5996 -39.6006 95.5996h-11.5
c-17.7002 0 -32 14.2998 -32 32s14.2998 32 32 32h11.5c49.9004 0 74.9004 60.2998 39.7002 95.5l-8.2002 8.2002c-12.5 12.5 -12.5 32.7998 0 45.2998s32.7002 12.5 45.2002 0l8.2002 -8.09961c35.2998 -35.2998 95.5996 -10.2998 95.5996 39.6006v11.5
c0 17.7002 14.2998 32 32 32s32 -14.2998 32 -32zM176 223.999c0 -17.1484 9.14844 -32.9941 24 -41.5684s33.1494 -8.57422 48.001 0s24 24.4199 24 41.5684s-9.14844 32.9941 -24 41.5684s-33.1494 8.57422 -48.001 0s-24 -24.4199 -24 -41.5684zM304 167.999
c-13.2549 0 -24 -10.7451 -24 -24s10.7451 -24 24 -24s24 10.7451 24 24s-10.7451 24 -24 24z" />
    <glyph glyph-name="virus-slash" unicode="virus&#x2d;slash" horiz-adv-x="640" 
d="M38.7998 442.9l95.8008 -75.2012c1.2002 1.90039 2.7002 3.7002 4.2998 5.2998c12.5 12.5 32.7998 12.5 45.2998 0l8.2002 -8.09961c35.2998 -35.2998 95.5996 -10.2998 95.5996 39.6006v11.5c0 17.7002 14.2998 32 32 32s32 -14.2998 32 -32v-11.5
c0 -49.9004 60.2998 -74.9004 95.5996 -39.6006l8.2002 8.2002c12.5 12.5 32.7998 12.5 45.2998 0s12.5 -32.7998 0 -45.2998l-8.2002 -8.2002c-35.2998 -35.2998 -10.2998 -95.5996 39.6006 -95.5996h11.5c17.7002 0 32 -14.2998 32 -32s-14.2998 -32 -32 -32h-11.5
c-35.2002 0 -58 -30 -56 -60.0996l154.3 -121c10.4004 -8.2002 12.3008 -23.2998 4.10059 -33.7002s-23.2998 -12.3008 -33.7002 -4.10059l-592 464c-10.4004 8.2002 -12.3008 23.2998 -4.10059 33.7002s23.2998 12.3008 33.7002 4.10059zM264.601 265.899l69.7012 -54.5996
c1.09961 4 1.69922 8.2998 1.69922 12.7002c0 26.5 -21.5 48 -48 48c-8.5 0 -16.5 -2.2002 -23.4004 -6.10059zM402.002 35.2998c-137.4 230.6 0 -0.0996094 0 -0.0996094c-26.4004 -3 -50 -24.5 -50 -55.7002v-11.5c0 -17.7002 -14.2998 -32 -32 -32s-32 14.2998 -32 32
v11.5c0 49.9004 -60.2998 74.9004 -95.5996 39.6006l-8.2002 -8.2002c-12.5 -12.5 -32.7998 -12.5 -45.2998 0s-12.5 32.7998 0 45.2998l8.2002 8.2002c35.2998 35.2998 10.2998 95.5996 -39.6006 95.5996h-11.5c-17.7002 0 -32 14.2998 -32 32s14.2998 32 32 32h11.5
c15 0 27.7002 5.5 37.2002 14c0 0 119.899 27.8994 257.3 -202.7zM402.002 35.2998z" />
    <glyph glyph-name="viruses" unicode="viruses" horiz-adv-x="640" 
d="M192 448c-13.2998 0 -24 -10.7002 -24 -24v-13.5c0 -35.5996 -43.0996 -53.5 -68.2998 -28.2998l-9.5 9.5c-9.2998 9.40039 -24.5 9.30078 -33.9004 0.000976562s-9.40039 -24.5 0 -33.9004l9.5 -9.5c25.2002 -25.2002 7.2998 -68.2998 -28.2998 -68.2998h-13.5
c-13.2998 0 -24 -10.7002 -24 -24s10.7002 -24 24 -24h13.5c35.5996 0 53.5 -43.0996 28.2998 -68.2998l-9.5 -9.5c-9.40039 -9.2998 -9.30078 -24.5 -0.000976562 -33.9004s24.5 -9.40039 33.9004 0l9.5 9.5c25.2002 25.2002 68.2998 7.2998 68.2998 -28.2998v-13.5
c0 -13.2998 10.7002 -24 24 -24s24 10.7002 24 24v13.5c0 35.5996 43.0996 53.5 68.2998 28.2998l9.5 -9.5c9.2998 -9.40039 24.5 -9.30078 33.9004 -0.000976562s9.40039 24.5 0 33.9004l-9.5 9.5c-25.2002 25.2002 -7.2998 68.2998 28.2998 68.2998h13.5
c13.2998 0 24 10.7002 24 24s-10.7002 24 -24 24h-13.5c-35.5996 0 -53.5 43.0996 -28.2998 68.2998l9.5 9.5c9.40039 9.2998 9.30078 24.5 0.000976562 33.9004s-24.5 9.40039 -33.9004 0l-9.5 -9.5c-25.2002 -25.2002 -68.2998 -7.2998 -68.2998 28.2998v13.5
c0 13.2998 -10.7002 24 -24 24zM240 224c-8.83691 0 -16 7.16309 -16 16s7.16309 16 16 16s16 -7.16309 16 -16s-7.16309 -16 -16 -16zM192 288c0 -17.6729 -14.3271 -32 -32 -32s-32 14.3271 -32 32s14.3271 32 32 32s32 -14.3271 32 -32zM512 208
c0 8.7998 -7.2002 16 -16 16s-16 -7.2002 -16 -16c0 -33 -39.9004 -49.5 -63.2002 -26.2002c-6.2002 6.2002 -16.4004 6.2002 -22.6006 0s-6.2002 -16.4004 0 -22.6006c23.2998 -23.2998 6.7998 -63.2002 -26.2002 -63.2002c-8.7998 0 -16 -7.2002 -16 -16
s7.2002 -16 16 -16c33 0 49.5 -39.9004 26.2002 -63.2002c-6.2002 -6.2002 -6.2002 -16.4004 0 -22.6006s16.4004 -6.2002 22.6006 0c23.2998 23.2998 63.2002 6.7998 63.2002 -26.2002c0 -8.7998 7.2002 -16 16 -16s16 7.2002 16 16c0 33 39.9004 49.5 63.2002 26.2002
c6.2002 -6.2002 16.4004 -6.2002 22.6006 0s6.2002 16.4004 0 22.6006c-23.2998 23.2998 -6.7998 63.2002 26.2002 63.2002c8.7998 0 16 7.2002 16 16s-7.2002 16 -16 16c-33 0 -49.5 39.9004 -26.2002 63.2002c6.2002 6.2002 6.2002 16.4004 0 22.6006
s-16.4004 6.2002 -22.6006 0c-23.2998 -23.2998 -63.2002 -6.7998 -63.2002 26.2002zM512 96c0 -17.6729 -14.3271 -32 -32 -32s-32 14.3271 -32 32s14.3271 32 32 32s32 -14.3271 32 -32z" />
    <glyph glyph-name="vest" unicode="vest" horiz-adv-x="448" 
d="M207.1 210.6l-11 -33.1006c-2.7002 -8.2002 -4.10059 -16.7002 -4.10059 -25.2998v-168.2c0 -14.5 3.90039 -28.2002 10.7002 -39.9004c-7.7002 -5.09961 -16.7998 -8.09961 -26.7002 -8.09961h-128c-26.5 0 -48 21.5 -48 48v193.5
c0 9.40039 2.7998 18.7002 8.09961 26.6006l47.7998 71.7998c5.2998 7.90039 8.09961 17.1006 8.09961 26.6006v17.5v73.7002v6.2998c0 26.5 21.5 48 48 48h4.5h0.600586h1.20117c18.7002 0 34 -9.7002 44 -18.7998c9.2998 -8.40039 28.5 -21.2002 61.7002 -21.2002
s52.4004 12.7998 61.7002 21.2002c10 9.09961 25.2998 18.7998 43.8994 18.7998h1.20117h0.600586h4.5c26.5 0 48 -21.5 48 -48v-6.2998v-73.7002v-17.5c0 -9.5 2.7998 -18.7002 8.09961 -26.6006l47.9004 -71.7998c5.2998 -7.90039 8.09961 -17.1006 8.09961 -26.6006
v-193.5c0 -26.5 -21.5 -48 -48 -48h-128c-26.5 0 -48 21.5 -48 48v168.2c0 5.2002 0.900391 10.2998 2.5 15.2002l70.2998 210.9c-17.4004 -10 -41.4004 -18.2998 -72.8008 -18.2998s-55.4004 8.2998 -72.8008 18.2998zM347.3 91.2988
c-6.2002 6.2002 -16.4004 6.2002 -22.6006 0s-6.2002 -16.4004 0 -22.6006l48 -48c6.2002 -6.2002 16.4004 -6.2002 22.6006 0s6.2002 16.4004 0 22.6006zM52.7002 43.2988c-6.2002 -6.2002 -6.2002 -16.4004 0 -22.6006s16.4004 -6.2002 22.6006 0l48 48
c6.2002 6.2002 6.2002 16.4004 0 22.6006s-16.4004 6.2002 -22.6006 0z" />
    <glyph glyph-name="vest-patches" unicode="vest&#x2d;patches" horiz-adv-x="448" 
d="M151.2 378.3c17.4004 -10 41.4023 -18.2988 72.8027 -18.2988s55.4004 8.2998 72.8008 18.2998l-70.2998 -210.9c-1.7002 -4.90039 -2.5 -10 -2.5 -15.2002v-168.2c0 -26.5 21.5 -48 48 -48h128c26.5 0 48 21.5 48 48l0.0996094 193.5
c0 9.5 -2.7998 18.7002 -8.09961 26.6006l-47.9004 71.7998c-5.2998 7.90039 -8.09961 17.1006 -8.09961 26.6006v17.5v73.7002v6.2998c0 26.5 -21.5 48 -48 48h-4.5h-0.600586h-1.20117c-18.7002 0 -34 -9.7002 -44 -18.7998
c-9.2998 -8.40039 -28.5 -21.2002 -61.7002 -21.2002s-52.4004 12.7998 -61.6006 21.2002c-10 9.09961 -25.2998 18.7998 -44.0996 18.7998h-1.20117h-0.600586h-4.5c-26.5 0 -48 -21.5 -48 -48v-6.2998v-73.7002l0.0996094 -17.5
c0 -9.5 -2.7998 -18.7002 -8.09961 -26.6006l-47.9004 -71.7998c-5.2998 -7.90039 -8.09961 -17.1006 -8.09961 -26.6006v-193.5c0 -26.5 21.5 -48 48 -48h128c9.90039 0 19 3 26.7002 8.09961c-6.7998 11.7002 -10.7002 25.4004 -10.7002 39.9004v168.2
c0 8.59961 1.40039 17.0996 4.10059 25.2998l11 33.0996zM96.002 -7.99902c-14.291 0 -27.4961 7.62402 -34.6416 20s-7.14551 27.624 0 40s20.3506 20 34.6416 20s27.4961 -7.62402 34.6416 -20s7.14551 -27.624 0 -40s-20.3506 -20 -34.6416 -20zM63.502 192.501
c4.7002 4.7002 12.2998 4.7002 17 0l15.5 -15.5l15.5 15.5c4.7002 4.7002 12.2998 4.7002 17 0s4.7002 -12.2998 0 -17l-15.5 -15.5l15.5 -15.5c4.7002 -4.7002 4.7002 -12.2998 0 -17s-12.2998 -4.7002 -17 0l-15.5 15.5l-15.5 -15.5
c-4.7002 -4.7002 -12.2998 -4.7002 -17 0s-4.7002 12.2998 0 17l15.5 15.5l-15.5 15.5c-4.7002 4.7002 -4.7002 12.2998 0 17zM304.002 168.001c0 13.2998 10.7002 24 24 24s24 -10.7002 24 -24v-8h8c13.2998 0 24 -10.7002 24 -24s-10.7002 -24 -24 -24h-8h-32
c-8.7998 0 -16 7.2002 -16 16v32v8z" />
    <glyph glyph-name="airplay" unicode="airplay" horiz-adv-x="576" 
d="M480 352c17.7002 0 32 -14.2998 32 -32v-192c0 -17.7002 -14.2998 -32 -32 -32h-69.5l50.7002 -50.7002c4 -4.09961 7.40039 -8.5 10.2002 -13.2998h8.59961c53 0 96 43 96 96v192c0 53 -43 96 -96 96h-384c-53 0 -96 -43 -96 -96v-192c0 -53 43 -96 96 -96h8.59961
c2.7998 4.7998 6.2002 9.2998 10.2002 13.2998l50.7002 50.7002h-69.5c-17.7002 0 -32 14.2998 -32 32v192c0 17.7002 14.2998 32 32 32h384zM265.4 150.6h-0.100586l-128 -128c-9.09961 -9.2002 -11.8994 -22.9004 -6.89941 -34.9004s16.7002 -19.7998 29.6006 -19.7998
h256c13 0 24.5996 7.7998 29.5996 19.7998s2.2998 25.7002 -6.90039 34.9004l-128 128c-12.5 12.5 -32.7998 12.5 -45.2998 0zM265.399 150.6z" />
    <glyph glyph-name="alt" unicode="alt" horiz-adv-x="640" 
d="M448 384h160c17.7002 0 32 -14.2998 32 -32s-14.2998 -32 -32 -32h-144.6l-246.4 -308c-6.09961 -7.59961 -15.2998 -12 -25 -12h-160c-17.7002 -0 -32 14.2998 -32 32s14.2998 32 32 32h144.6l246.4 308c6.09961 7.59961 15.2998 12 25 12zM448 64h160
c17.7002 0 32 -14.2998 32 -32s-14.2998 -32 -32 -32h-160c-17.7002 -0 -32 14.2998 -32 32s14.2998 32 32 32z" />
    <glyph glyph-name="angle" unicode="angle" horiz-adv-x="448" 
d="M252.6 369.7l-168.802 -337.7h332.2c17.7002 0 32 -14.2998 32 -32s-14.2998 -32 -32 -32h-384c-11.0996 0 -21.3994 5.7998 -27.1992 15.2002s-6.39941 21.2002 -1.39941 31.1006l192 384c7.90039 15.7998 27.1006 22.2002 42.9004 14.2998
s22.2002 -27.1006 14.2998 -42.9004zM240.397 273.7c29 -22.2002 54.3994 -48.8008 75.0996 -78.9004l-40.7998 -25.2998c-15.7998 22.7002 -34.7998 43 -56.2002 60.4004zM321.097 63.999c-80.7002 209.7 0.100586 0.100586 0.100586 0.100586
c-6.2002 27.7998 -16.2002 54.0996 -29.5 78.2998l40.7998 25.2998c17.7998 -31.7998 30.5996 -66.7002 37.5996 -103.7c0 0 -129.7 209.7 -49 0zM321.098 64z" />
    <glyph glyph-name="angle-90" unicode="angle&#x2d;&#x39;&#x30;" horiz-adv-x="448" 
d="M64 384v-352h352c17.7002 0 32 -14.2998 32 -32s-14.2998 -32 -32 -32h-384c-17.7002 0 -32 14.2998 -32 32v384c-0 17.7002 14.2998 32 32 32s32 -14.2998 32 -32zM96 350.4c40.2002 -4 78.2002 -15.4004 112.7 -32.9004l-25.2998 -41.0996
c-27 13.2002 -56.4004 22.1006 -87.4004 25.7002v48.2998zM211.2 260.7l25.2002 40.9004c39 -25 72.2002 -58.2002 97.2002 -97.2002l-40.9004 -25.2002c-21 32.5996 -48.9004 60.5 -81.5 81.5zM334.101 64c-122.9 196.7 0 -0.0996094 0 -0.0996094
c-3.7002 31.0996 -12.5 60.5 -25.7002 87.4004l41.0996 25.2998c17.5 -34.4004 28.9004 -72.4004 32.9004 -112.601c0 0 -171.2 196.7 -48.2998 0zM334.101 64z" />
    <glyph glyph-name="apple-core" unicode="apple&#x2d;core" horiz-adv-x="384" 
d="M192 336h16c44.2002 0 80 35.7998 80 80v16c0 8.7998 -7.2002 16 -16 16h-16c-44.2002 0 -80 -35.7998 -80 -80v-16c0 -8.7998 7.2002 -16 16 -16zM30.5 281c39.9004 -32.2998 65.498 -81.5996 65.498 -137c0 -54.4004 -24.7002 -103 -63.4004 -135.3
c-7.09961 -5.7998 -8.89941 -16.2998 -2.69922 -23.0996c28.2998 -31.2998 63.2002 -49.5996 98.1006 -49.5996c16.5 0 38.0996 6.59961 51.5 11.2998c8.09961 2.7998 16.8994 2.7998 24.999 0c13.4004 -4.7002 35 -11.2998 51.5 -11.2998
c34.9004 0 69.8008 18.2998 98.3008 49.5996c6.09961 6.7998 4.2998 17.2002 -2.7002 23.1006c-38.7002 32.2998 -63.4004 80.8994 -63.4004 135.3c0 55.2998 25.5 104.7 65.5 137c8 6.40039 9.2998 18.7002 0.700195 24.2998c-14.2002 9.2998 -31 14.7002 -50.2998 14.7002
c-27.2998 0 -59.7998 -10.4004 -82.7002 -19.3008c-18.7998 -7.2998 -39.8994 -7.2998 -58.6992 0c-23 9 -55.4004 19.2998 -82.7002 19.2998c-19.2998 0 -36.0996 -5.40039 -50.1992 -14.7002c-8.59961 -5.59961 -7.2998 -17.7998 0.700195 -24.2998z" />
    <glyph glyph-name="arrow-down-from-dotted-line" unicode="arrow&#x2d;down&#x2d;from&#x2d;dotted&#x2d;line" horiz-adv-x="448" 
d="M32 352c17.6729 0 32 14.3271 32 32s-14.3271 32 -32 32s-32 -14.3271 -32 -32s14.3271 -32 32 -32zM128 352c17.6729 0 32 14.3271 32 32s-14.3271 32 -32 32s-32 -14.3271 -32 -32s14.3271 -32 32 -32zM256 384c0 17.6729 -14.3271 32 -32 32s-32 -14.3271 -32 -32
s14.3271 -32 32 -32s32 14.3271 32 32zM320 352c17.6729 0 32 14.3271 32 32s-14.3271 32 -32 32s-32 -14.3271 -32 -32s14.3271 -32 32 -32zM448 384c0 17.6729 -14.3271 32 -32 32s-32 -14.3271 -32 -32s14.3271 -32 32 -32s32 14.3271 32 32zM374.6 105.4h0.100586
c12.5 12.5 12.5 32.7998 0 45.2998s-32.7998 12.5 -45.2998 0l-73.4004 -73.4004v66.7002v112c0 17.7002 -14.2998 32 -32 32s-32 -14.2998 -32 -32v-112v-66.7002l-73.4004 73.4004c-12.5 12.5 -32.7998 12.5 -45.2998 0s-12.5 -32.7998 0 -45.2998l128 -128
c12.5 -12.5 32.7998 -12.5 45.2998 0zM374.601 105.4z" />
    <glyph glyph-name="arrow-down-left" unicode="arrow&#x2d;down&#x2d;left" horiz-adv-x="384" 
d="M32 64v224c0 17.7002 14.2998 32 32 32s32 -14.2998 32 -32v-146.7l201.3 201.4c12.5 12.5 32.7998 12.5 45.2998 0s12.5 -32.7998 0 -45.2998l-201.3 -201.4h146.7c17.7002 0 32 -14.2998 32 -32s-14.2998 -32 -32 -32h-224c-17.7002 0 -32 14.2998 -32 32z" />
    <glyph glyph-name="arrow-down-left-and-arrow-up-right-to-center" unicode="arrow&#x2d;down&#x2d;left&#x2d;and&#x2d;arrow&#x2d;up&#x2d;right&#x2d;to&#x2d;center" 
d="M502.6 393.4l-121.3 -121.4h50.7002c17.7002 0 32 -14.2998 32 -32s-14.2998 -32 -32 -32h-128c-17.7002 0 -32 14.2998 -32 32v128c0 17.7002 14.2998 32 32 32s32 -14.2998 32 -32v-50.7002l121.3 121.4c12.5 12.5 32.7998 12.5 45.2998 0s12.5 -32.7998 0 -45.2998z
M80 176h128c17.7002 0 32 -14.2998 32 -32v-128c0 -17.7002 -14.2998 -32 -32 -32s-32 14.2998 -32 32v50.7002l-121.3 -121.4c-12.5 -12.5 -32.7998 -12.5 -45.2998 0s-12.5 32.7998 0 45.2998l121.3 121.4h-50.7002c-17.7002 0 -32 14.2998 -32 32s14.2998 32 32 32z" />
    <glyph glyph-name="arrow-down-right" unicode="arrow&#x2d;down&#x2d;right" horiz-adv-x="384" 
d="M320 32h-224c-17.7002 0 -32 14.2998 -32 32s14.2998 32 32 32h146.7l-201.4 201.3c-12.5 12.5 -12.5 32.7998 0 45.2998s32.7998 12.5 45.2998 0l201.4 -201.3v146.7c0 17.7002 14.2998 32 32 32s32 -14.2998 32 -32v-224c0 -17.7002 -14.2998 -32 -32 -32z" />
    <glyph glyph-name="arrow-down-to-bracket" unicode="arrow&#x2d;down&#x2d;to&#x2d;bracket" horiz-adv-x="448" 
d="M374.6 233.4h0.100586c12.5 12.5 12.5 32.7998 0 45.2998s-32.7998 12.5 -45.2998 0l-73.4004 -73.4004v210.7c0 17.7002 -14.2998 32 -32 32s-32 -14.2998 -32 -32v-210.7l-73.4004 73.4004c-12.5 12.5 -32.7998 12.5 -45.2998 0s-12.5 -32.7998 0 -45.2998l128 -128
c12.5 -12.5 32.7998 -12.5 45.2998 0zM64.001 96c0 17.7002 -14.2998 32 -32 32s-32 -14.2998 -32 -32v-64c0 -53 43 -96 96 -96h256c53 0 96 43 96 96v64c0 17.7002 -14.2998 32 -32 32s-32 -14.2998 -32 -32v-64c0 -17.7002 -14.2998 -32 -32 -32h-256
c-17.7002 -0 -32 14.2998 -32 32c0 0 310.6 201.4 0 64z" />
    <glyph glyph-name="arrow-down-to-dotted-line" unicode="arrow&#x2d;down&#x2d;to&#x2d;dotted&#x2d;line" horiz-adv-x="448" 
d="M374.6 233.4h0.100586c12.5 12.5 12.5 32.7998 0 45.2998s-32.7998 12.5 -45.2998 0l-73.4004 -73.4004v66.7002v112c0 17.7002 -14.2998 32 -32 32s-32 -14.2998 -32 -32v-112v-66.7002l-73.4004 73.4004c-12.5 12.5 -32.7998 12.5 -45.2998 0
s-12.5 -32.7998 0 -45.2998l128 -128c12.5 -12.5 32.7998 -12.5 45.2998 0zM32.001 -32c17.6729 0 32 14.3271 32 32s-14.3271 32 -32 32s-32 -14.3271 -32 -32s14.3271 -32 32 -32zM128.001 -32c17.6729 0 32 14.3271 32 32s-14.3271 32 -32 32s-32 -14.3271 -32 -32
s14.3271 -32 32 -32zM224.001 32c-17.6729 0 -32 -14.3271 -32 -32s14.3271 -32 32 -32s32 14.3271 32 32s-14.3271 32 -32 32zM320.001 -32c17.6729 0 32 14.3271 32 32s-14.3271 32 -32 32s-32 -14.3271 -32 -32s14.3271 -32 32 -32zM448.001 0
c0 17.6729 -14.3271 32 -32 32s-32 -14.3271 -32 -32s14.3271 -32 32 -32s32 14.3271 32 32z" />
    <glyph glyph-name="arrow-down-to-square" unicode="arrow&#x2d;down&#x2d;to&#x2d;square" 
d="M374.6 201.4l-96 -96c-12.5 -12.5 -32.7998 -12.5 -45.2998 0l-96 96c-12.5 12.5 -12.5 32.7998 0 45.2998s32.7998 12.5 45.2998 0l41.4004 -41.4004v210.7c0 17.7002 14.2998 32 32 32s32 -14.2998 32 -32v-210.7l41.2998 41.4004c12.5 12.5 32.7998 12.5 45.2998 0
s12.5 -32.7998 0 -45.2998zM80 416h32c17.7002 0 32 -14.2998 32 -32s-14.2998 -32 -32 -32h-32c-8.7998 0 -16 -7.2002 -16 -16v-320c0 -8.7998 7.2002 -16 16 -16h352c8.7998 0 16 7.2002 16 16v320c0 8.7998 -7.2002 16 -16 16h-32c-17.7002 0 -32 14.2998 -32 32
s14.2998 32 32 32h32c44.2002 0 80 -35.7998 80 -80v-320c0 -44.2002 -35.7998 -80 -80 -80h-352c-44.2002 0 -80 35.7998 -80 80v320c-0 44.2002 35.7998 80 80 80z" />
    <glyph glyph-name="arrow-trend-down" unicode="arrow&#x2d;trend&#x2d;down" horiz-adv-x="576" 
d="M384 96h82.7002l-146.7 146.7l-105.4 -105.4c-12.5 -12.5 -32.7998 -12.5 -45.2998 0l-160 160c-12.5 12.5 -12.5 32.7998 0 45.2998s32.7998 12.5 45.2998 0l137.4 -137.3l105.3 105.3c12.5 12.5 32.7998 12.5 45.2998 0l169.4 -169.3v82.7002
c0 17.7002 14.2998 32 32 32s32 -14.2998 32 -32v-160c0 -17.7002 -14.2998 -32 -32 -32h-160c-17.7002 0 -32 14.2998 -32 32s14.2998 32 32 32z" />
    <glyph glyph-name="arrow-trend-up" unicode="arrow&#x2d;trend&#x2d;up" horiz-adv-x="576" 
d="M384 288h82.7002l-146.7 -146.7l-105.4 105.4c-12.5 12.5 -32.7998 12.5 -45.2998 0l-160 -160c-12.5 -12.5 -12.5 -32.7998 0 -45.2998s32.7998 -12.5 45.2998 0l137.4 137.3l105.3 -105.3c12.5 -12.5 32.7998 -12.5 45.2998 0l169.4 169.3v-82.7002
c0 -17.7002 14.2998 -32 32 -32s32 14.2998 32 32v160c0 17.7002 -14.2998 32 -32 32h-160c-17.7002 0 -32 -14.2998 -32 -32s14.2998 -32 32 -32z" />
    <glyph glyph-name="arrow-up-arrow-down" unicode="arrow&#x2d;up&#x2d;arrow&#x2d;down" horiz-adv-x="576" 
d="M182.6 406.6h0.100586l96 -96c12.5 -12.5 12.5 -32.7998 0 -45.2998s-32.7998 -12.5 -45.2998 0l-41.4004 41.4004v-306.7c0 -17.7002 -14.2998 -32 -32 -32s-32 14.2998 -32 32v306.7l-41.4004 -41.4004c-12.5 -12.5 -32.7998 -12.5 -45.2998 0s-12.5 32.7998 0 45.2998
l96 96c12.5 12.5 32.7998 12.5 45.2998 0zM534.601 73.2998c-352 333.3 0 0.100586 0 0.100586l-96 -96c-12.5 -12.5 -32.7998 -12.5 -45.2998 0l-96 96c-12.5 12.5 -12.5 32.7998 0 45.2998s32.7998 12.5 45.2998 0l41.4004 -41.4004v306.7c0 17.7002 14.2998 32 32 32
s32 -14.2998 32 -32v-306.7l41.2998 41.2998c12.5 12.5 32.7998 12.5 45.2998 0s12.5 -32.7998 0 -45.2998zM534.601 73.3008z" />
    <glyph glyph-name="arrow-up-from-bracket" unicode="arrow&#x2d;up&#x2d;from&#x2d;bracket" horiz-adv-x="448" 
d="M246.6 438.6h0.100586l128 -128c12.5 -12.5 12.5 -32.7998 0 -45.2998s-32.7998 -12.5 -45.2998 0l-73.4004 73.4004v-210.7c0 -17.7002 -14.2998 -32 -32 -32s-32 14.2998 -32 32v210.7l-73.4004 -73.4004c-12.5 -12.5 -32.7998 -12.5 -45.2998 0
s-12.5 32.7998 0 45.2998l128 128c12.5 12.5 32.7998 12.5 45.2998 0zM64.001 96v-64c0 -17.7002 14.2998 -32 32 -32h256c17.7002 -0 32 14.2998 32 32v64c0 17.7002 14.2998 32 32 32s32 -14.2998 32 -32v-64c0 -53 -43 -96 -96 -96h-256c-53 0 -96 43 -96 96v64
c0 17.7002 14.2998 32 32 32s32 -14.2998 32 -32z" />
    <glyph glyph-name="arrow-up-from-dotted-line" unicode="arrow&#x2d;up&#x2d;from&#x2d;dotted&#x2d;line" horiz-adv-x="448" 
d="M246.6 406.6h0.100586l128 -128c12.5 -12.5 12.5 -32.7998 0 -45.2998s-32.7998 -12.5 -45.2998 0l-73.4004 73.4004v-66.7002v-112c0 -17.7002 -14.2998 -32 -32 -32s-32 14.2998 -32 32v112v66.7002l-73.4004 -73.4004c-12.5 -12.5 -32.7998 -12.5 -45.2998 0
s-12.5 32.7998 0 45.2998l128 128c12.5 12.5 32.7998 12.5 45.2998 0zM32.001 32c17.6729 0 32 -14.3271 32 -32s-14.3271 -32 -32 -32s-32 14.3271 -32 32s14.3271 32 32 32zM128.001 32c17.6729 0 32 -14.3271 32 -32s-14.3271 -32 -32 -32s-32 14.3271 -32 32
s14.3271 32 32 32zM256.001 0c0 -17.6729 -14.3271 -32 -32 -32s-32 14.3271 -32 32s14.3271 32 32 32s32 -14.3271 32 -32zM320.001 32c17.6729 0 32 -14.3271 32 -32s-14.3271 -32 -32 -32s-32 14.3271 -32 32s14.3271 32 32 32zM384.001 0c0 17.6729 14.3271 32 32 32
s32 -14.3271 32 -32s-14.3271 -32 -32 -32s-32 14.3271 -32 32z" />
    <glyph glyph-name="arrow-up-from-square" unicode="arrow&#x2d;up&#x2d;from&#x2d;square" 
d="M278.6 438.6h0.100586l96 -96c12.5 -12.5 12.5 -32.7998 0 -45.2998s-32.7998 -12.5 -45.2998 0l-41.4004 41.4004v-210.7c0 -17.7002 -14.2998 -32 -32 -32s-32 14.2998 -32 32v210.7l-41.4004 -41.4004c-12.5 -12.5 -32.7998 -12.5 -45.2998 0s-12.5 32.7998 0 45.2998
l96 96c12.5 12.5 32.7998 12.5 45.2998 0zM64.001 336v-320c0 -8.7998 7.2002 -16 16 -16h352c8.7998 0 16 7.2002 16 16v320c0 8.7998 -7.2002 16 -16 16h-8c-17.7002 0 -32 14.2998 -32 32s14.2998 32 32 32h8c44.2002 0 80 -35.7998 80 -80v-320
c0 -44.2002 -35.7998 -80 -80 -80h-352c-44.2002 0 -80 35.7998 -80 80v320c0 44.2002 35.7998 80 80 80h8c17.7002 0 32 -14.2998 32 -32s-14.2998 -32 -32 -32h-8c-8.7998 0 -16 -7.2002 -16 -16z" />
    <glyph glyph-name="arrow-up-left" unicode="arrow&#x2d;up&#x2d;left" horiz-adv-x="384" 
d="M64 352h224c17.7002 0 32 -14.2998 32 -32s-14.2998 -32 -32 -32h-146.7l201.4 -201.3c12.5 -12.5 12.5 -32.7998 0 -45.2998s-32.7998 -12.5 -45.2998 0l-201.4 201.3v-146.7c0 -17.7002 -14.2998 -32 -32 -32s-32 14.2998 -32 32v224c0 17.7002 14.2998 32 32 32z" />
    <glyph glyph-name="arrow-up-left-from-circle" unicode="arrow&#x2d;up&#x2d;left&#x2d;from&#x2d;circle" 
d="M192 448c17.7002 0 32 -14.2998 32 -32s-14.2998 -32 -32 -32h-82.7002l233.4 -233.3c12.5 -12.5 12.5 -32.7998 0 -45.2998s-32.7998 -12.5 -45.2998 0l-233.4 233.3v-82.7002c0 -17.7002 -14.2998 -32 -32 -32s-32 14.2998 -32 32v160c-0 17.7002 14.2998 32 32 32h160
zM325.3 380.9c106 -17.7998 186.698 -109.901 186.698 -220.901c0 -123.7 -100.3 -224 -224 -224c-111 0 -203.1 80.7002 -221 186.7c-2.90039 17.5 8.7998 34 26.2998 36.9004s34 -8.89941 36.9004 -26.2998c12.7002 -75.7002 78.6006 -133.3 157.801 -133.3
c88.4004 -0 160 71.5996 160 160c0 79.2002 -57.5996 145.101 -133.3 157.7c-17.5 3 -29.2998 19.4004 -26.2998 36.9004s19.5 29.2002 36.9004 26.2998zM325.298 380.898z" />
    <glyph glyph-name="arrow-up-right" unicode="arrow&#x2d;up&#x2d;right" horiz-adv-x="384" 
d="M352 320v-224c0 -17.7002 -14.2998 -32 -32 -32s-32 14.2998 -32 32v146.7l-201.3 -201.4c-12.5 -12.5 -32.7998 -12.5 -45.2998 0s-12.5 32.7998 0 45.2998l201.3 201.4h-146.7c-17.7002 0 -32 14.2998 -32 32s14.2998 32 32 32h224c17.7002 0 32 -14.2998 32 -32z" />
    <glyph glyph-name="arrow-up-right-and-arrow-down-left-from-center" unicode="arrow&#x2d;up&#x2d;right&#x2d;and&#x2d;arrow&#x2d;down&#x2d;left&#x2d;from&#x2d;center" 
d="M352 448h128c17.7002 0 32 -14.2998 32 -32v-128c0 -17.7002 -14.2998 -32 -32 -32s-32 14.2998 -32 32v50.7002l-105.3 -105.4c-12.5 -12.5 -32.7998 -12.5 -45.2998 0s-12.5 32.7998 0 45.2998l105.3 105.4h-50.7002c-17.7002 0 -32 14.2998 -32 32s14.2998 32 32 32z
M214.6 150.6v0.100586c12.5 -12.5 12.5 -32.7998 0 -45.2998l-105.3 -105.4h50.7002c17.7002 0 32 -14.2998 32 -32s-14.2998 -32 -32 -32h-128c-17.7002 0 -32 14.2998 -32 32v128c-0 17.7002 14.2998 32 32 32s32 -14.2998 32 -32v-50.7002l105.3 105.3
c12.5 12.5 32.7998 12.5 45.2998 0zM214.6 150.601z" />
    <glyph glyph-name="arrow-up-to-dotted-line" unicode="arrow&#x2d;up&#x2d;to&#x2d;dotted&#x2d;line" horiz-adv-x="448" 
d="M32 416c17.6729 0 32 -14.3271 32 -32s-14.3271 -32 -32 -32s-32 14.3271 -32 32s14.3271 32 32 32zM128 416c17.6729 0 32 -14.3271 32 -32s-14.3271 -32 -32 -32s-32 14.3271 -32 32s14.3271 32 32 32zM192 384c0 17.6729 14.3271 32 32 32s32 -14.3271 32 -32
s-14.3271 -32 -32 -32s-32 14.3271 -32 32zM320 416c17.6729 0 32 -14.3271 32 -32s-14.3271 -32 -32 -32s-32 14.3271 -32 32s14.3271 32 32 32zM384 384c0 17.6729 14.3271 32 32 32s32 -14.3271 32 -32s-14.3271 -32 -32 -32s-32 14.3271 -32 32zM374.6 150.6h0.100586
c12.5 -12.5 12.5 -32.7998 0 -45.2998s-32.7998 -12.5 -45.2998 0l-73.4004 73.4004v-66.7002v-112c0 -17.7002 -14.2998 -32 -32 -32s-32 14.2998 -32 32v112v66.7002l-73.4004 -73.4004c-12.5 -12.5 -32.7998 -12.5 -45.2998 0s-12.5 32.7998 0 45.2998l128 128
c12.5 12.5 32.7998 12.5 45.2998 0zM374.601 150.6z" />
    <glyph glyph-name="arrows-cross" unicode="arrows&#x2d;cross" horiz-adv-x="448" 
d="M288 416h128c17.7002 0 32 -14.2998 32 -32v-128c0 -17.7002 -14.2998 -32 -32 -32s-32 14.2998 -32 32v50.7002l-329.3 -329.4c-12.5 -12.5 -32.7998 -12.5 -45.2998 0s-12.5 32.7998 0 45.2998l329.3 329.4h-50.7002c-17.7002 0 -32 14.2998 -32 32s14.2998 32 32 32z
M54.5996 406.6l146.8 -146.7l-45.2998 -45.2998l-146.7 146.8c-12.5 12.5 -12.5996 32.7002 -0.0996094 45.2002s32.7998 12.5 45.2998 0zM338.699 32l-92.0996 92.0996l45.2998 45.2998l92.0996 -92.0996v50.7002c0 17.7002 14.2998 32 32 32s32 -14.2998 32 -32v-128
c0 -17.7002 -14.2998 -32 -32 -32h-128c-17.7002 0 -32 14.2998 -32 32s14.2998 32 32 32h50.7002z" />
    <glyph glyph-name="arrows-from-dotted-line" unicode="arrows&#x2d;from&#x2d;dotted&#x2d;line" horiz-adv-x="448" 
d="M246.6 438.6h0.100586l64 -64c9.09961 -9.2002 11.8994 -22.9004 6.89941 -34.9004s-16.7002 -19.7998 -29.6006 -19.7998h-32v-32c0 -17.7002 -14.2998 -32 -32 -32s-32 14.2998 -32 32v32h-32c-13 0 -24.5996 7.7998 -29.5996 19.7998s-2.2998 25.7002 6.90039 34.9004
l64 64c12.5 12.5 32.7998 12.5 45.2998 0zM192.001 96c54.5996 342.6 -0.100586 0 -0.100586 0c0 17.7002 14.2998 32 32 32s32 -14.2998 32 -32v-32h32c13 0 24.5996 -7.7998 29.5996 -19.7998s2.2998 -25.7002 -6.90039 -34.9004l-64 -64
c-12.5 -12.5 -32.7998 -12.5 -45.2998 0l-64 64c-9.09961 9.2002 -11.8994 22.9004 -6.89941 34.9004s16.7002 19.7998 29.6006 19.7998h32s54.5996 374.6 0 32zM32 224c17.6729 0 32 -14.3271 32 -32s-14.3271 -32 -32 -32s-32 14.3271 -32 32s14.3271 32 32 32zM128 224
c17.6729 0 32 -14.3271 32 -32s-14.3271 -32 -32 -32s-32 14.3271 -32 32s14.3271 32 32 32zM224 160c-17.6729 0 -32 14.3271 -32 32s14.3271 32 32 32s32 -14.3271 32 -32s-14.3271 -32 -32 -32zM320 224c17.6729 0 32 -14.3271 32 -32s-14.3271 -32 -32 -32
s-32 14.3271 -32 32s14.3271 32 32 32zM384 192c0 17.6729 14.3271 32 32 32s32 -14.3271 32 -32s-14.3271 -32 -32 -32s-32 14.3271 -32 32z" />
    <glyph glyph-name="arrows-from-line" unicode="arrows&#x2d;from&#x2d;line" horiz-adv-x="448" 
d="M246.6 438.6h0.100586l64 -64c9.09961 -9.2002 11.8994 -22.9004 6.89941 -34.9004s-16.7002 -19.7998 -29.6006 -19.7998h-32v-32c0 -17.7002 -14.2998 -32 -32 -32s-32 14.2998 -32 32v32h-32c-13 0 -24.5996 7.7998 -29.5996 19.7998s-2.2998 25.7002 6.90039 34.9004
l64 64c12.5 12.5 32.7998 12.5 45.2998 0zM192.001 96c54.5996 342.6 -0.100586 0 -0.100586 0c0 17.7002 14.2998 32 32 32s32 -14.2998 32 -32v-32h32c13 0 24.5996 -7.7998 29.5996 -19.7998s2.2998 -25.7002 -6.90039 -34.9004l-64 -64
c-12.5 -12.5 -32.7998 -12.5 -45.2998 0l-64 64c-9.09961 9.2002 -11.8994 22.9004 -6.89941 34.9004s16.7002 19.7998 29.6006 19.7998h32s54.5996 374.6 0 32zM32 224h384c17.7002 0 32 -14.2998 32 -32s-14.2998 -32 -32 -32h-384c-17.7002 0 -32 14.2998 -32 32
s14.2998 32 32 32z" />
    <glyph glyph-name="arrows-minimize" unicode="arrows&#x2d;minimize" 
d="M9.40039 438.6c-12.5 -12.5 -12.499 -32.6992 0.000976562 -45.1992l105.3 -105.4h-50.7002c-17.7002 0 -32 -14.2998 -32 -32s14.2998 -32 32 -32h128c17.7002 0 32 14.2998 32 32v128c0 17.7002 -14.2998 32 -32 32s-32 -14.2998 -32 -32v-50.7002l-105.4 105.3
c-12.5 12.5 -32.7002 12.5 -45.2002 0zM457.401 438.601l-105.4 -105.3v50.7002c0 17.7002 -14.2998 32 -32 32s-32 -14.2998 -32 -32v-128c0 -17.7002 14.2998 -32 32 -32h128c17.7002 0 32 14.2998 32 32s-14.2998 32 -32 32h-50.7002l105.4 105.3
c12.5 12.5 12.5 32.7998 0 45.2998s-32.7998 12.5 -45.2998 0zM32.001 128.001c0 -17.7002 14.2998 -32 32 -32h50.7002l-105.4 -105.3c-12.5 -12.5 -12.5 -32.7998 0 -45.2998s32.7998 -12.5 45.2998 0l105.4 105.3v-50.7002c0 -17.7002 14.2998 -32 32 -32
s32 14.2998 32 32v128c0 17.7002 -14.2998 32 -32 32h-128c-17.7002 0 -32 -14.2998 -32 -32zM288.001 128.001v-128c0 -17.7002 14.2998 -32 32 -32s32 14.2998 32 32v50.7002l105.3 -105.4c12.5 -12.5 32.7998 -12.5 45.2998 0s12.5 32.7998 0 45.2998l-105.3 105.4
h50.7002c17.7002 0 32 14.2998 32 32s-14.2998 32 -32 32h-128c-17.7002 0 -32 -14.2998 -32 -32z" />
    <glyph glyph-name="arrows-to-dotted-line" unicode="arrows&#x2d;to&#x2d;dotted&#x2d;line" horiz-adv-x="448" 
d="M256 416h-0.100586v-32h32c13 0 24.5996 -7.7998 29.5996 -19.7998s2.2998 -25.7002 -6.90039 -34.9004l-64 -64c-12.5 -12.5 -32.7998 -12.5 -45.2998 0l-64 64c-9.09961 9.2002 -11.8994 22.9004 -6.89941 34.9004s16.7002 19.7998 29.6006 19.7998h32v32
c0 17.7002 14.2998 32 32 32s32 -14.2998 32 -32zM201.399 118.6c54.5996 297.4 0.100586 0 0.100586 0c12.5 12.5 32.7998 12.5 45.2998 0l64 -64c9.09961 -9.2002 11.8994 -22.9004 6.89941 -34.9004s-16.7002 -19.7998 -29.6006 -19.7998h-32v-32
c0 -17.7002 -14.2998 -32 -32 -32s-32 14.2998 -32 32v32h-32c-13 0 -24.5996 7.7998 -29.5996 19.7998s-2.2998 25.7002 6.90039 34.9004c0 0 118.6 361.4 64 64zM32 224c17.6729 0 32 -14.3271 32 -32s-14.3271 -32 -32 -32s-32 14.3271 -32 32s14.3271 32 32 32zM128 224
c17.6729 0 32 -14.3271 32 -32s-14.3271 -32 -32 -32s-32 14.3271 -32 32s14.3271 32 32 32zM224 160c-17.6729 0 -32 14.3271 -32 32s14.3271 32 32 32s32 -14.3271 32 -32s-14.3271 -32 -32 -32zM320 224c17.6729 0 32 -14.3271 32 -32s-14.3271 -32 -32 -32
s-32 14.3271 -32 32s14.3271 32 32 32zM384 192c0 17.6729 14.3271 32 32 32s32 -14.3271 32 -32s-14.3271 -32 -32 -32s-32 14.3271 -32 32z" />
    <glyph glyph-name="arrows-to-line" unicode="arrows&#x2d;to&#x2d;line" horiz-adv-x="448" 
d="M256 416h-0.100586v-32h32c13 0 24.5996 -7.7998 29.5996 -19.7998s2.2998 -25.7002 -6.90039 -34.9004l-64 -64c-12.5 -12.5 -32.7998 -12.5 -45.2998 0l-64 64c-9.09961 9.2002 -11.8994 22.9004 -6.89941 34.9004s16.7002 19.7998 29.6006 19.7998h32v32
c0 17.7002 14.2998 32 32 32s32 -14.2998 32 -32zM201.399 118.6c54.5996 297.4 0.100586 0 0.100586 0c12.5 12.5 32.7998 12.5 45.2998 0l64 -64c9.09961 -9.2002 11.8994 -22.9004 6.89941 -34.9004s-16.7002 -19.7998 -29.6006 -19.7998h-32v-32
c0 -17.7002 -14.2998 -32 -32 -32s-32 14.2998 -32 32v32h-32c-13 0 -24.5996 7.7998 -29.5996 19.7998s-2.2998 25.7002 6.90039 34.9004c0 0 118.6 361.4 64 64zM32 224h384c17.7002 0 32 -14.2998 32 -32s-14.2998 -32 -32 -32h-384c-17.7002 0 -32 14.2998 -32 32
s14.2998 32 32 32z" />
    <glyph glyph-name="audio-description-slash" unicode="audio&#x2d;description&#x2d;slash" horiz-adv-x="640" 
d="M38.7998 442.9l37.999 -29.8008c6.09961 1.90039 12.5 2.90039 19.2002 2.90039h448c35.2998 0 64 -28.7002 64 -64v-320c0 -10.7002 -2.59961 -20.7998 -7.19922 -29.5996l30 -23.5c10.4004 -8.2002 12.3008 -23.2998 4.10059 -33.7002
s-23.2998 -12.3008 -33.7002 -4.10059l-592 464c-10.4004 8.2002 -12.3008 23.2998 -4.10059 33.7002s23.2998 12.3008 33.7002 4.10059zM335.999 209.999l48.1006 -37.7002v67.7002h32c26.5 0 48 -21.5 48 -48c0 -25.0996 -19.4004 -45.7998 -44.1006 -47.7998l44.5996 -35
c28.4004 16.7002 47.4004 47.5 47.4004 82.7998c0 53 -43 96 -96 96h-56c-13.2998 0 -24 -10.7002 -24 -24v-54zM487.4 -32.001l-391.403 -0.000976562c-35.2998 0 -64 28.7002 -64 64v294.8l141.2 -111.1l-42.5 -85c-6 -11.9004 -1.2002 -26.2002 10.7002 -32.2002
s26.3008 -1.2002 32.2012 10.7002l9.40039 18.9004h82.2002l9.40039 -18.9004c5.90039 -11.7998 20.3008 -16.5996 32.2012 -10.6992c2.90039 1.5 5.5 3.5 7.5 5.90039zM233.397 168.198h-30.3994l8.59961 17.2002zM233.398 168.198z" />
    <glyph glyph-name="austral-sign" unicode="austral&#x2d;sign" horiz-adv-x="448" 
d="M253.5 396.3l71.7969 -172.3h90.7002c17.7002 0 32 -14.2998 32 -32s-14.2998 -32 -32 -32h-64l13.2998 -32h50.7002c17.7002 0 32 -14.2998 32 -32s-14.2998 -32 -32 -32h-24l21.4004 -51.7002c6.7998 -16.2998 -0.900391 -35 -17.2002 -41.7998
s-35 0.900391 -41.7998 17.2002l-31.7998 76.2998h-197.3l-31.7998 -76.2998c-6.7998 -16.2998 -25.5 -24 -41.7998 -17.2002s-24 25.5 -17.2002 41.7998l21.5 51.7002h-24c-17.7002 0 -32 14.2998 -32 32s14.2998 32 32 32h50.7002l13.2998 32h-64
c-17.7002 0 -32 14.2998 -32 32s14.2998 32 32 32h90.7002l71.7998 172.3c4.90039 11.9004 16.6006 19.7002 29.501 19.7002s24.6006 -7.7998 29.501 -19.7002zM255.997 224l-32 76.7998l-32 -76.7998h64zM165.297 160l-13.2998 -32h144l-13.4004 32h-117.3z" />
    <glyph glyph-name="avocado" unicode="avocado" 
d="M459.4 192.7c32.0996 26.4004 52.5996 66.499 52.5996 111.299c0 79.5 -64.5 144 -144 144c-44.7998 0 -84.8994 -20.5 -111.399 -52.5c-15.2002 -18.5 -35.6006 -33.5 -59.1006 -38.0996c-51.7998 -10.2002 -104.399 -34 -136.699 -66.2998
c-81.2002 -81.2998 -81.2998 -213 0 -294.2s213 -81.2002 294.2 0c32.2998 32.2002 56.0996 84.7998 66.2998 136.7c4.59961 23.5 19.5996 43.9004 38.0996 59.1006zM283.2 100.799c-41.7998 -41.7002 -102.099 -49.1006 -134.799 -16.4004
s-25.4004 93.1006 16.3994 134.801s102.1 49.1006 134.8 16.4004s25.2998 -93.1006 -16.4004 -134.801z" />
    <glyph glyph-name="award-simple" unicode="award&#x2d;simple" horiz-adv-x="384" 
d="M173.3 442.7l-18 -11.001c-5.90039 -3.5 -12.7002 -5.40039 -19.6006 -5.2002l-20.9004 0.5c-13.5 0.400391 -26 -6.89941 -32.5 -18.6992l-10 -18.4004c-3.2998 -6 -8.2002 -11 -14.2998 -14.2998l-18.4004 -9.90039c-11.7998 -6.5 -19 -19 -18.7002 -32.5l0.5 -20.9004
c0.200195 -6.90039 -1.59961 -13.7002 -5.19922 -19.6006l-10.9004 -17.9004c-7 -11.5 -7 -26 0 -37.5l11 -18c3.5 -5.90039 5.40039 -12.7002 5.2002 -19.6006l-0.5 -20.9004c-0.400391 -13.5 6.89941 -26 18.6992 -32.5l18.4004 -10
c6 -3.2998 11 -8.2002 14.2998 -14.2998l10 -18.2998c6.5 -11.7998 19 -19 32.5 -18.7002l20.9004 0.5c6.90039 0.200195 13.7002 -1.59961 19.6006 -5.19922l17.9004 -10.9004c11.5 -7 26 -7 37.5 0l17.9004 10.9004c5.90039 3.5 12.7002 5.40039 19.6006 5.2002
l20.9004 -0.5c13.5 -0.400391 26 6.89941 32.5 18.6992l10 18.4004c3.2998 6 8.2002 11 14.2998 14.2998l18.4004 10c11.7998 6.5 19 19 18.7002 32.5l-0.5 20.9004c-0.200195 6.90039 1.59961 13.7002 5.19922 19.6006l10.9004 17.9004c7 11.5 7 26 0 37.5
l-10.9004 17.9004c-3.5 5.90039 -5.40039 12.7002 -5.2002 19.6006l0.5 20.9004c0.400391 13.5 -6.89941 26 -18.6992 32.5l-18.4004 10c-6 3.2998 -11 8.2002 -14.2998 14.2998l-10 18.4004c-6.5 11.7998 -19 19 -32.5 18.7002l-20.9004 -0.5
c-6.90039 -0.200195 -13.7002 1.59961 -19.6006 5.19922l-17.9004 10.9004c-11.5 7 -26 7 -37.5 0zM272 255.999c0 -28.5811 -15.248 -54.9912 -40 -69.2822s-55.248 -14.291 -80 0s-40 40.7012 -40 69.2822s15.248 54.9912 40 69.2822s55.248 14.291 80 0
s40 -40.7012 40 -69.2822zM64.4004 -44.4014c-1.2002 -5.5 0.50293 -11.2998 4.60254 -15.2002s10 -5.40039 15.4004 -3.80078l107.6 30.7998l107.6 -30.7002c5.40039 -1.5 11.3008 -0.0996094 15.4004 3.80078s5.89941 9.7002 4.59961 15.2002l-23.5996 102.4
c-8.90039 -3.7002 -18.6006 -5.60059 -28.6006 -5.40039l-20.7002 0.5c-0.200195 0 -0.400391 -0.0996094 -0.600586 -0.199219l-17.7002 -10.7998c-22.4004 -13.5996 -50.5 -13.5996 -72.9004 0l-17.5996 10.7002
c-0.200195 0.0996094 -0.400391 0.199219 -0.600586 0.199219l-20.7002 -0.5c-10 -0.200195 -19.7002 1.7002 -28.6006 5.40039z" />
    <glyph glyph-name="baht-sign" unicode="baht&#x2d;sign" horiz-adv-x="320" 
d="M144 448c17.7002 0 32.001 -14.2998 32.001 -32v-32c61.9004 0 112 -50.0996 112 -112c0 -24.2002 -7.7002 -46.6006 -20.7002 -64.9004c31.5996 -19.7998 52.6992 -55 52.6992 -95.0996c0 -61.9004 -50.0996 -112 -112 -112h-32v-32c0 -17.7002 -14.2998 -32 -32 -32
s-32 14.2998 -32 32v32h-70.2998c-23 0 -41.7002 18.7002 -41.7002 41.7002v118.3v22.2998v41.7002v122.4c-0 20.7998 16.7998 37.5996 37.5996 37.5996h74.4004v32c0 17.7002 14.2998 32 32 32zM112.001 320h-48v-96h48v96zM176.001 224c26.5 0 48 21.5 48 48
s-21.5 48 -48 48v-96zM112.001 160h-48v-96h48v96zM176.001 64h32c26.5 0 48 21.5 48 48s-21.5 48 -48 48h-32v-96z" />
    <glyph glyph-name="bars-filter" unicode="bars&#x2d;filter" horiz-adv-x="448" 
d="M0 352c0 -17.7002 14.2998 -32 32 -32h384c17.7002 0 32 14.2998 32 32s-14.2998 32 -32 32h-384c-17.7002 0 -32 -14.2998 -32 -32zM64 192c0 -17.7002 14.2998 -32 32 -32h256c17.7002 0 32 14.2998 32 32s-14.2998 32 -32 32h-256c-17.7002 0 -32 -14.2998 -32 -32z
M288 32c0 17.7002 -14.2998 32 -32 32h-64c-17.7002 0 -32 -14.2998 -32 -32s14.2998 -32 32 -32h64c17.7002 -0 32 14.2998 32 32z" />
    <glyph glyph-name="bars-sort" unicode="bars&#x2d;sort" horiz-adv-x="448" 
d="M0 352c0 -17.7002 14.2998 -32 32 -32h384c17.7002 0 32 14.2998 32 32s-14.2998 32 -32 32h-384c-17.7002 0 -32 -14.2998 -32 -32zM0 192c0 -17.7002 14.2998 -32 32 -32h256c17.7002 0 32 14.2998 32 32s-14.2998 32 -32 32h-256c-17.7002 0 -32 -14.2998 -32 -32z
M192 32c0 17.7002 -14.2998 32 -32 32h-128c-17.7002 0 -32 -14.2998 -32 -32s14.2998 -32 32 -32h128c17.7002 -0 32 14.2998 32 32z" />
    <glyph glyph-name="basket-shopping-simple" unicode="basket&#x2d;shopping&#x2d;simple" horiz-adv-x="576" 
d="M243.1 445.3c-11.7998 6.09961 -26.3008 1.59961 -32.4004 -10.2002l-93.0996 -179.1h-85.5996c-17.7002 0 -32 -14.2998 -32 -32s14.2998 -32 32 -32l51.9004 -207.5c7.09961 -28.5 32.6992 -48.5 62.0996 -48.5h284c29.4004 0 55 20 62.0996 48.5l51.9004 207.5
c17.7002 0 32 14.2998 32 32s-14.2998 32 -32 32h-85.5996l-93.0996 179.1c-6.2002 11.7002 -20.7002 16.2998 -32.4004 10.2002s-16.2998 -20.5996 -10.2002 -32.3994l81.5996 -156.9h-232.6l81.5996 156.9c6.09961 11.7998 1.59961 26.2998 -10.2002 32.3994zM143.999 152
c-13.2549 0 -24 10.7451 -24 24s10.7451 24 24 24s24 -10.7451 24 -24s-10.7451 -24 -24 -24zM455.999 176c0 -13.2549 -10.7451 -24 -24 -24s-24 10.7451 -24 24s10.7451 24 24 24s24 -10.7451 24 -24z" />
    <glyph glyph-name="battery-exclamation" unicode="battery&#x2d;exclamation" horiz-adv-x="576" 
d="M208 352h-128c-44.2002 0 -80 -35.7998 -80 -80v-160c-0 -44.2002 35.7998 -80 80 -80h118.7c-4.2998 9.7998 -6.7002 20.5996 -6.7002 32s2.40039 22.2002 6.7002 32h-118.7c-8.7998 0 -16 7.2002 -16 16v160c0 8.7998 7.2002 16 16 16h128v64zM464 32
c44.2002 0 80 35.7998 80 80v16c17.7002 0 32 14.2998 32 32v64c0 17.7002 -14.2998 32 -32 32v16c0 44.2002 -35.7998 80 -80 80h-128v-64h128c8.7998 0 16 -7.2002 16 -16v-160c0 -8.7998 -7.2002 -16 -16 -16h-118.7c4.2998 -9.7998 6.7002 -20.5996 6.7002 -32
s-2.40039 -22.2002 -6.7002 -32h118.7zM272 352c-13.2998 0 -24 -10.7002 -24 -24v-176c0 -13.2998 10.7002 -24 24 -24s24 10.7002 24 24v176c0 13.2998 -10.7002 24 -24 24zM240 64c0 -17.6729 14.3271 -32 32 -32s32 14.3271 32 32s-14.3271 32 -32 32
s-32 -14.3271 -32 -32z" />
    <glyph glyph-name="battery-low" unicode="battery&#x2d;low" horiz-adv-x="576" 
d="M464 288h-384c-8.7998 0 -16 -7.2002 -16 -16v-160c0 -8.7998 7.2002 -16 16 -16h384c8.7998 0 16 7.2002 16 16v160c0 8.7998 -7.2002 16 -16 16zM80 352h384c44.2002 0 80 -35.7998 80 -80v-16c17.7002 0 32 -14.2998 32 -32v-64c0 -17.7002 -14.2998 -32 -32 -32v-16
c0 -44.2002 -35.7998 -80 -80 -80h-384c-44.2002 0 -80 35.7998 -80 80v160c-0 44.2002 35.7998 80 80 80zM160 256v-128h-64v128h64z" />
    <glyph glyph-name="bee" unicode="bee" horiz-adv-x="576" 
d="M196.7 443.3c-6.2002 -6.2002 -6.20312 -16.4004 -0.00292969 -22.6006l31.5 -31.5c-12.5996 -14.2002 -20.1992 -32.7998 -20.1992 -53.2002c0 -3 0.200195 -6 0.5 -8.90039c-22.7998 15.9004 -51.5 24.9004 -80.5 24.9004c-65 0 -128 -44.9004 -128 -112
c0 -61.9004 53.5996 -104.9 112.899 -111.2c-0.599609 5.09961 -0.899414 10.1992 -0.899414 15.1992c0 16.7998 2.40039 33.0996 6.80078 48.5c-35.2998 3.59961 -54.7998 27.8994 -54.7998 47.499c0 21.2998 22.9004 48 64 48
c34.7998 0 56.5996 -19.2002 62.3994 -38.1006c-28.5 -26.2998 -46.4004 -64 -46.4004 -105.9c0 -83.7998 103.6 -179.7 129.899 -202.8c3.90039 -3.40039 8.90039 -5.2002 14.1006 -5.2002s10.2002 1.7998 14.1006 5.2002c26.2998 23.0996 129.899 119 129.899 202.8
c0 41.9004 -17.7998 79.6006 -46.3994 105.9c5.7998 18.9004 27.5996 38.1006 62.3994 38.1006c41.0996 0 64 -26.7002 64 -48c0 -19.5996 -19.5996 -43.8994 -54.7998 -47.499c4.40039 -15.4004 6.80078 -31.7002 6.80078 -48.5
c0 -5 -0.299805 -10.0996 -0.899414 -15.1992c59.2998 6.2998 112.899 49.2998 112.899 111.2c0 67.0996 -63 112 -128 112c-29 0 -57.7002 -9 -80.5 -24.9004c0.299805 2.90039 0.5 5.90039 0.5 8.90039c0 20.4004 -7.59961 39 -20.1992 53.2002l31.5 31.5
c6.2002 6.2002 6.2002 16.4004 0 22.6006s-16.4004 6.2002 -22.6006 0l-34.7998 -34.7998c-10.2998 4.7998 -21.7998 7.5 -33.8994 7.5s-23.5996 -2.7002 -33.8994 -7.5l-34.7998 34.7998c-6.2002 6.2002 -16.4004 6.2002 -22.6006 0zM249.497 59.2002
c-52.7998 384.1 0.100586 0 0.100586 0c-1.2998 1.59961 -2.5 3.19922 -3.7002 4.79883h84.2998c-1.2002 -1.59961 -2.5 -3.19922 -3.7002 -4.79883c-12.7998 -16.4004 -26.5 -31.3008 -38.5 -43.4004c-12 12.0996 -25.7002 27 -38.5 43.4004zM359.598 112h-143.201
c-5.59961 12.5996 -8.39941 23.3994 -8.39941 31.999h160c0 -8.59961 -2.7998 -19.3994 -8.39941 -31.999zM351.997 192h-128c14.5996 19.4004 37.7998 32 64 32s49.4004 -12.5996 64 -32z" />
    <glyph glyph-name="beer-mug" unicode="beer&#x2d;foam" 
d="M267.7 314.7c6.90039 7.7002 21.4004 8.60059 29.6006 2.30078c10.7002 -8.09961 24.1006 -13 38.7002 -13c35.2998 0 64 28.7002 64 64s-28.7002 64 -64 64c-14.5996 0 -28 -4.90039 -38.7002 -13c-8.2002 -6.2998 -22.7002 -5.39941 -29.6006 2.30078
c-14.7002 16.4004 -36 26.7002 -59.7002 26.7002s-45 -10.2998 -59.7002 -26.7002c-6.90039 -7.7002 -21.4004 -8.60059 -29.6006 -2.30078c-10.7002 8.09961 -24.1006 13 -38.7002 13c-35.2998 0 -64 -28.7002 -64 -64s28.7002 -64 64 -64c14.5996 0 28 4.90039 38.7002 13
c8.2002 6.2998 22.7002 5.39941 29.6006 -2.30078c14.7002 -16.4004 36 -26.7002 59.7002 -26.7002s45 10.2998 59.7002 26.7002zM32 0c0 -35.2998 28.6992 -63.999 63.999 -63.999h224c35.2998 0 64 28.7002 64 64v2.2998l82.4004 36.5996
c27.7002 12.2998 45.6006 39.8994 45.6006 70.1992v102.1c0 42.4004 -34.4004 76.8008 -76.8008 76.8008h-46.0996c-15.2002 -10.0996 -33.5 -16 -53.0996 -16c-18.7002 0 -36.2002 5.40039 -51 14.7002c-20 -19 -47.2002 -30.7002 -77 -30.7002s-57 11.7002 -77 30.7002
c-14.7998 -9.2998 -32.2998 -14.7002 -51 -14.7002c-17.5 0 -33.9004 4.7002 -48 12.7998c0 0 235.7 29.9004 0 -284.8zM383.999 72.4014v151.599l51.2002 0.0996094c7.09961 0 12.7998 -5.7002 12.7998 -12.7998v-102.1c0 -5.09961 -3 -9.59961 -7.59961 -11.6992z
M159.999 208v-160c0 -8.7998 -7.2002 -16 -16 -16s-16 7.2002 -16 16v160c0 8.7998 7.2002 16 16 16s16 -7.2002 16 -16zM223.999 208v-160c0 -8.7998 -7.2002 -16 -16 -16s-16 7.2002 -16 16v160c0 8.7998 7.2002 16 16 16s16 -7.2002 16 -16zM287.999 208v-160
c0 -8.7998 -7.2002 -16 -16 -16s-16 7.2002 -16 16v160c0 8.7998 7.2002 16 16 16s16 -7.2002 16 -16z" />
    <glyph glyph-name="bitcoin-sign" unicode="bitcoin&#x2d;sign" horiz-adv-x="320" 
d="M48 416l0.000976562 -32.001h-10.4004c-20.7998 0 -37.5996 -16.7998 -37.5996 -37.5996v-122.4v-41.7002v-22.2998v-118.3c0 -23 18.7002 -41.7002 41.7002 -41.7002h6.2998v-32c0 -17.7002 14.2998 -32 32 -32s32 14.2998 32 32v32h32v-32
c0 -17.7002 14.2998 -32 32 -32s32 14.2998 32 32v32c61.9004 0 112 50.0996 112 112c0 40.0996 -21 75.2998 -52.7002 95.0996c13 18.2998 20.7002 40.7002 20.7002 64.9004c0 50.9004 -33.9004 93.8008 -80.3008 107.501c0.200195 1.40039 0.299805 3 0.299805 4.5v32
c0 17.7002 -14.2998 32 -32 32s-32 -14.2998 -32 -32v-32h-32v32c0 17.7002 -14.2998 32 -32 32s-32 -14.2998 -32 -32zM64.001 223.999v96h112c26.5 0 48 -21.5 48 -48s-21.5 -48 -48 -48h-112zM176.001 159.999h32c26.5 0 48 -21.5 48 -48s-21.5 -48 -48 -48h-144v96h112z
" />
    <glyph glyph-name="block-quote" unicode="block&#x2d;quote" horiz-adv-x="448" 
d="M32 384h384c17.7002 0 32 -14.2998 32 -32s-14.2998 -32 -32 -32h-384c-17.7002 0 -32 14.2998 -32 32s14.2998 32 32 32zM160 224h256c17.7002 0 32 -14.2998 32 -32s-14.2998 -32 -32 -32h-256c-17.7002 0 -32 14.2998 -32 32s14.2998 32 32 32zM128 32
c0 17.7002 14.2998 32 32 32h256c17.7002 0 32 -14.2998 32 -32s-14.2998 -32 -32 -32h-256c-17.7002 -0 -32 14.2998 -32 32zM32 224c17.7002 0 32 -14.2998 32 -32v-160c0 -17.7002 -14.2998 -32 -32 -32s-32 14.2998 -32 32v160c-0 17.7002 14.2998 32 32 32z" />
    <glyph glyph-name="bolt-auto" unicode="bolt&#x2d;auto" horiz-adv-x="576" 
d="M317.4 403.4l-76.9033 -179.5h111.5c13.4004 0 25.3008 -8.2998 30.001 -20.7002s1.10059 -26.5 -8.89941 -35.2998l-256 -224c-11.2998 -9.7998 -27.7998 -10.5996 -39.8994 -1.7998s-16.5 24.7998 -10.5996 38.5l76.9004 179.4h-111.5
c-13.2998 0 -25.3994 8.2002 -29.999 20.7002s-1.09961 26.5996 8.90039 35.3994l256 224c11.2998 9.7998 27.7998 10.5996 39.8994 1.7998s16.5 -24.7998 10.5996 -38.5zM463.997 160c12.0996 0 23.2012 -6.7998 28.6016 -17.7002l80 -160
c7.90039 -15.7998 1.5 -35 -14.2998 -42.9004s-35 -1.5 -42.9004 14.2998l-7.2002 14.2998h-88.4004l-7.2002 -14.2998c-7.90039 -15.7998 -27.1006 -22.2002 -42.9004 -14.2998s-22.2002 27.1006 -14.2998 42.9004l80 160c5.40039 10.9004 16.5 17.7002 28.5996 17.7002z
M447.799 24h32.4004l-16.2002 32.4004zM447.799 24z" />
    <glyph glyph-name="bolt-lightning" unicode="bolt&#x2d;lightning" horiz-adv-x="384" 
d="M0 192c0 -17.7002 14.2979 -32 31.998 -32h144l-47 -188.7c-0.599609 -2.2998 -0.899414 -4.59961 -0.899414 -6.89941c0 -15.7002 12.7998 -28.5 28.5 -28.5h2.90039c10.2998 0 20 5.09961 25.9004 13.6992l192.2 281c4.2002 6.09961 6.40039 13.2998 6.40039 20.7002
c0 20.2998 -16.5 36.7002 -36.7002 36.7002h-139.3l46.2998 123.4c1.09961 3 1.69922 6.2998 1.69922 9.5c0 15 -12.0996 27.0996 -27.0996 27.0996h-168.6c-16.2002 0 -29.7998 -12 -31.7998 -28z" />
    <glyph glyph-name="bolt-slash" unicode="bolt&#x2d;slash" horiz-adv-x="640" 
d="M38.7998 442.9l189.6 -148.6l166.5 145.8c11.2998 9.7998 27.7998 10.5996 39.8994 1.7998s16.5 -24.7998 10.5996 -38.5l-76.9004 -179.4h111.5c13.4004 0 25.3008 -8.2998 30.001 -20.7002s1.10059 -26.5 -8.89941 -35.2998l-52.7002 -46.0996l182.4 -143
c10.4004 -8.2002 12.3008 -23.2998 4.10059 -33.7002s-23.2998 -12.3008 -33.7002 -4.10059l-592 464c-10.4004 8.2002 -12.3008 23.2998 -4.10059 33.7002s23.2998 12.3008 33.7002 4.10059zM138.899 216.101l0.000976562 0.0996094l15.9004 13.9004l88.9004 -70h-83.7002
c-13.4004 0 -25.3008 8.2998 -30.001 20.7002s-1.10059 26.5 8.89941 35.2998zM194.601 -19.3994l69.8984 162.999l109.9 -86.5996l-129.3 -113.1c-11.2998 -9.7998 -27.7998 -10.5996 -39.8994 -1.7998s-16.5 24.7998 -10.5996 38.5zM194.599 -19.4004z" />
    <glyph glyph-name="book-arrow-right" unicode="book&#x2d;arrow&#x2d;right" horiz-adv-x="640" 
d="M96 448l288.001 0.000976562h32c17.7002 0 32 -14.2998 32 -32v-152l110.1 0.0996094l-39 39c-9.40039 9.2998 -9.30078 24.5 -0.000976562 33.9004s24.5 9.40039 33.9004 0l80 -80c9.40039 -9.2998 9.40039 -24.5 0 -33.9004l-80 -80
c-9.2998 -9.40039 -24.5 -9.30078 -33.9004 -0.000976562s-9.40039 24.5 0 33.9004l39 39h-110.1v-120c0 -17.7002 -14.2998 -32 -32 -32v-64c17.7002 0 32 -14.2998 32 -32s-14.2998 -32 -32 -32h-32h-288c-53 0 -96 43 -96 96v320c0 53 43 96 96 96zM448.001 264.001h-200
c-13.2998 0 -24 -10.7002 -24 -24s10.7002 -24 24 -24h200v48zM96.001 64.001c-17.7002 0 -32 -14.2998 -32 -32s14.2998 -32 32 -32h256v64h-256z" />
    <glyph glyph-name="book-arrow-up" unicode="book&#x2d;arrow&#x2d;up" horiz-adv-x="448" 
d="M0 352v-320c0 -53 43 -96 96 -96h288h32c17.7002 0 32 14.2998 32 32s-14.2998 32 -32 32v64c17.7002 0 32 14.2998 32 32v320c0 17.7002 -14.2998 32 -32 32h-32h-288c-53 0 -96 -43 -96 -96zM64 32c0 17.7002 14.2988 32.001 31.999 32.001h120l-0.0996094 174.1
l-39 -39c-9.2998 -9.40039 -24.5 -9.30078 -33.9004 -0.000976562s-9.40039 24.5 0 33.9004l80 80c9.2998 9.40039 24.5 9.40039 33.9004 0l80 -80c9.40039 -9.2998 9.30078 -24.5 0.000976562 -33.9004s-24.5 -9.40039 -33.9004 0l-39 39v-174.1h88v-64h-256
c-17.7002 -0 -32 14.2998 -32 32z" />
    <glyph glyph-name="book-bookmark" unicode="book&#x2d;bookmark" horiz-adv-x="448" 
d="M0 352v-320c0 -53 43 -96 96 -96h288h32c17.7002 0 32 14.2998 32 32s-14.2998 32 -32 32v64c17.7002 0 32 14.2998 32 32v320c0 17.7002 -14.2998 32 -32 32h-32h-32v-190.7c0 -13.4004 -15.5 -20.9004 -26 -12.5l-54 43.2002l-54 -43.2002
c-10.5 -8.40039 -26 -0.900391 -26 12.5v190.7h-96c-53 0 -96 -43 -96 -96zM64 32c0 17.7002 14.2998 32 32 32h256v-64h-256c-17.7002 -0 -32 14.2998 -32 32z" />
    <glyph glyph-name="book-circle-arrow-right" unicode="book&#x2d;circle&#x2d;arrow&#x2d;right" horiz-adv-x="640" 
d="M96 448h288h32c17.7002 0 32 -14.2998 32 -32v-166.6c-73.9004 -20.9004 -128 -88.8008 -128 -169.4c0 -5.40039 0.200195 -10.7002 0.700195 -16h-224.7c-17.7002 0 -32 -14.2998 -32 -32s14.2998 -32 32 -32h243.2c13.0996 -25.5996 32.2998 -47.5996 55.5996 -64
h-10.7998h-288c-53 0 -96 43 -96 96v320c0 53 43 96 96 96zM640 80c0 -51.4463 -27.4463 -98.9844 -72 -124.707s-99.4463 -25.7227 -144 0s-72 73.2607 -72 124.707s27.4463 98.9844 72 124.707s99.4463 25.7227 144 0s72 -73.2607 72 -124.707zM492.7 147.3
c-6.2002 -6.2002 -6.2002 -16.3994 0 -22.5996l28.7002 -28.7002h-89.4004c-8.7998 0 -16 -7.2002 -16 -16s7.2002 -16 16 -16h89.4004l-28.7002 -28.7002c-6.2002 -6.2002 -6.2002 -16.4004 0 -22.6006s16.4004 -6.2002 22.6006 0l56 56
c6.2002 6.2002 6.2002 16.4004 0 22.6006l-56 56c-6.2002 6.2002 -16.4004 6.2002 -22.6006 0zM492.7 147.301z" />
    <glyph glyph-name="book-circle-arrow-up" unicode="book&#x2d;circle&#x2d;arrow&#x2d;up" horiz-adv-x="640" 
d="M96 448h288h32c17.7002 0 32 -14.2998 32 -32v-166.6c-73.9004 -20.9004 -128 -88.8008 -128 -169.4c0 -5.40039 0.200195 -10.7002 0.700195 -16h-224.7c-17.7002 0 -32 -14.2998 -32 -32s14.2998 -32 32 -32h243.2c13.0996 -25.5996 32.2998 -47.5996 55.5996 -64
h-10.7998h-288c-53 0 -96 43 -96 96v320c0 53 43 96 96 96zM496 224c51.4463 0 98.9844 -27.4463 124.707 -72s25.7227 -99.4463 0 -144s-73.2607 -72 -124.707 -72s-98.9844 27.4463 -124.707 72s-25.7227 99.4463 0 144s73.2607 72 124.707 72zM428.7 76.7002
c6.2002 -6.2002 16.3994 -6.2002 22.5996 0l28.7002 28.7002v-89.4004c0 -8.7998 7.2002 -16 16 -16s16 7.2002 16 16v89.4004l28.7002 -28.7002c6.2002 -6.2002 16.4004 -6.2002 22.6006 0s6.2002 16.4004 0 22.6006l-56 56c-6.2002 6.2002 -16.4004 6.2002 -22.6006 0
l-56 -56c-6.2002 -6.2002 -6.2002 -16.4004 0 -22.6006zM428.699 76.7002z" />
    <glyph glyph-name="book-copy" unicode="book&#x2d;copy" horiz-adv-x="576" 
d="M160 352l-0.000976562 -224c0 -23.2998 6.2002 -45.2002 17.1006 -64h-81.0996c-17.7002 0 -32 -14.2998 -32 -32s14.2998 -32 32 -32h192h32h32c17.7002 0 32 -14.2998 32 -32s-14.2998 -32 -32 -32h-32h-224c-53 0 -96 43 -96 96v224c0 53 43 96 96 96h64zM319.999 32
h-32c-28.5 0 -54 12.4004 -71.5996 32c-15.2002 17 -24.4004 39.4004 -24.4004 64v224c0 53 43 96 96 96h224h32c17.7002 0 32 -14.2998 32 -32v-224c0 -17.7002 -14.2998 -32 -32 -32v-64c17.7002 0 32 -14.2998 32 -32s-14.2998 -32 -32 -32h-32h-160h-32zM255.999 128
c0 -17.7002 14.2998 -32 32 -32h96h96v64h-96h-96c-17.7002 0 -32 -14.2998 -32 -32z" />
    <glyph glyph-name="book-font" unicode="book&#x2d;font" horiz-adv-x="448" 
d="M0 352v-320c0 -53 43 -96 96 -96h288h32c17.7002 0 32 14.2998 32 32s-14.2998 32 -32 32v64c17.7002 0 32 14.2998 32 32v320c0 17.7002 -14.2998 32 -32 32h-32h-288c-53 0 -96 -43 -96 -96zM64 32c0 17.7002 14.2998 32 32 32h256v-64h-256
c-17.7002 -0 -32 14.2998 -32 32zM254.3 375.2l0.100586 -0.0996094l64 -128l32 -64c3.90039 -7.90039 0.700195 -17.6006 -7.2002 -21.501s-17.5 -0.700195 -21.5 7.2002l-27.5996 55.2002h-108.2l-27.5 -55.0996c-4 -7.90039 -13.5996 -11.2002 -21.5 -7.2002
s-11.2002 13.5996 -7.2002 21.5l32 64l64 128c2.7002 5.40039 8.2998 8.80078 14.2998 8.80078s11.5996 -3.40039 14.2998 -8.80078zM240.001 332.2l-38.1006 -76.2002h76.2002s-23.7998 119.2 -38.0996 76.2002z" />
    <glyph glyph-name="book-open-cover" unicode="book&#x2d;open&#x2d;cover" horiz-adv-x="640" 
d="M304 416l-170.7 28.8994c-19.5 3.2998 -37.2998 -11.7998 -37.2998 -31.5996v-333.3l208 -40v376zM89.7002 42.8994v-0.0986328c-14.9004 3 -25.7002 16.0996 -25.7002 31.3994v345l-25.7002 5.09961c-19.7998 4 -38.2998 -11.0996 -38.2998 -31.2998v-366.8
c-0 -15.2002 10.7998 -28.4004 25.7002 -31.3008l294.3 -58.9004l294.3 58.9004c14.9004 3 25.7002 16.0996 25.7002 31.3994v366.7c0 20.2002 -18.5 35.2998 -38.2998 31.3994l-25.7002 -5.09961v-345c0 -15.2998 -10.7002 -28.3994 -25.7002 -31.3994l-230.3 -46.0996z
M336 40l208 40.001v333.3c0 19.7998 -17.7998 34.8994 -37.2998 31.5996l-170.7 -28.9004s-246.3 -373.1 0 -376z" />
    <glyph glyph-name="book-section" unicode="book&#x2d;section" horiz-adv-x="448" 
d="M0 352v-320c0 -53 43 -96 96 -96h288h32c17.7002 0 32 14.2998 32 32s-14.2998 32 -32 32v64c17.7002 0 32 14.2998 32 32v320c0 17.7002 -14.2998 32 -32 32h-32h-288c-53 0 -96 -43 -96 -96zM64 32c0 17.7002 14.2998 32 32 32h256v-64h-256
c-17.7002 -0 -32 14.2998 -32 32zM228.5 206.7l0.196289 -0.0996094c-22.0996 5.90039 -68 18.1006 -59.5 62.7002c2.2002 11.0996 8 20.3994 16.7002 27.499c-12.2998 9.40039 -20.7998 23.2002 -16.7002 44.5c6 31.7002 40.4004 48 87.5 41.2998
c8.2998 -1.09961 18 -3.5 30.2002 -7.2998c8.40039 -2.59961 13.1006 -11.5996 10.501 -20s-11.6992 -13.1006 -19.999 -10.501c-10.5996 3.2998 -18.5996 5.2998 -25.1992 6.2002c-27.7998 4 -49.0996 -2.5 -51.5996 -15.7002
c-1.7998 -9.2998 -0.299805 -16.0996 36.2002 -25.7998l7.2998 -1.90039v0c30.0996 -7.7998 75.5996 -19.5996 67 -64.6992c-2.2002 -11.2002 -8 -20.5 -16.7002 -27.5996c12.7002 -9.5 20.7998 -23.2002 16.7002 -44.4004
c-5.09961 -27 -30.7998 -42.7998 -67.2998 -42.7998c-6.40039 0 -13.2002 0.5 -20.2002 1.5c-12.9004 1.7998 -26.6006 6.2002 -38.6006 10.1006l-5.7998 1.90039c-8.40039 2.7002 -13.1006 11.7002 -10.4004 20.1006c2.7002 8.5 11.7002 13.0996 20.1006 10.3994
l5.90039 -1.90039c10.7002 -3.5 22.9004 -7.5 33.1006 -8.90039c28 -3.90039 49.2002 2.5 51.7002 15.7002c2.5 12.7002 -5.7002 17.9004 -43.6006 27.7002zM225.596 279.5c2.90039 -72.7998 0.00195312 0.0996094 0.00195312 0.0996094
c-8.7002 -1.2002 -23 -4.7998 -25.2002 -16.0996c-1.7998 -9.2998 -0.299805 -16.0996 36.2002 -25.7998c0 0 14.0996 -3.7002 17.6992 -4.7002c8.7002 1.2002 23 4.7998 25.2002 16.0996c2.5 12.7002 -5.7002 17.9004 -43.6006 27.7002c0 0 -9.40039 2.5 -10.3008 2.7002z
M225.598 279.5z" />
    <glyph glyph-name="bookmark-slash" unicode="bookmark&#x2d;slash" horiz-adv-x="640" 
d="M38.7998 442.9l89.2002 -69.9004v27c0 26.5 21.5 48 48 48h288c26.5 0 48 -21.5 48 -48v-328l118.8 -93.0996c10.4004 -8.2002 12.3008 -23.2998 4.10059 -33.7002s-23.2998 -12.3008 -33.7002 -4.10059l-592 464c-10.4004 8.2002 -12.3008 23.2998 -4.10059 33.7002
s23.2998 12.3008 33.7002 4.10059zM128 -39.6992l0.000976562 290.8l381.9 -300.8c-3.7998 -8.40039 -12.2998 -14.3008 -22.2002 -14.3008c-5 0 -9.90039 1.5 -14 4.40039l-153.7 107.6l-153.7 -107.6c-4.09961 -2.90039 -9 -4.40039 -14 -4.40039
c-13.4004 0 -24.3008 10.9004 -24.3008 24.3008zM128.001 -39.6992z" />
    <glyph glyph-name="bowling-ball-pin" unicode="bowling&#x2d;ball&#x2d;pin" horiz-adv-x="576" 
d="M416 384v-1.09961c0 -7.40039 0.900391 -14.8008 2.90039 -22.001l17.7002 -64.7998c0.700195 -2.7002 1.2998 -5.40039 1.7998 -8.10059h83.0996c0.5 2.7002 1.09961 5.40039 1.7998 8.10059l17.7002 64.7998c2 7.2002 3 14.6006 3 22.001v1.09961
c0 35.2998 -28.7002 64 -64 64s-64 -28.7002 -64 -64zM438.8 256l0.100586 -0.00195312c-1 -6.2998 -2.59961 -12.3994 -4.7998 -18.3994l-2.40039 -6.5c10.5 -27 16.2998 -56.4004 16.2998 -87.1006c0 -53.7998 -17.7002 -103.399 -47.5 -143.399l17.7998 -44.5
c4.7998 -12.0996 16.5996 -20.0996 29.6992 -20.0996h64c13.0996 0 24.8994 8 29.7998 20.0996l22.7002 56.9004c7.59961 19 11.5 39.4004 11.5 59.9004c0 19 -3.40039 37.9004 -10 55.8008l-40.0996 108.9c-2.2002 6 -3.7998 12.0996 -4.7998 18.3994h-82.2998z
M0.000976562 143.998c0 -74.3115 39.6445 -142.978 104 -180.133s143.645 -37.1553 208 0s104 105.821 104 180.133s-39.6445 142.978 -104 180.133s-143.645 37.1553 -208 0s-104 -105.821 -104 -180.133zM224.001 275.998c0 -15.4639 -12.5361 -28 -28 -28
s-28 12.5361 -28 28s12.5361 28 28 28s28 -12.5361 28 -28zM196.001 159.998c-15.4639 0 -28 12.5361 -28 28s12.5361 28 28 28s28 -12.5361 28 -28s-12.5361 -28 -28 -28zM152.001 227.998c0 -15.4639 -12.5361 -28 -28 -28s-28 12.5361 -28 28s12.5361 28 28 28
s28 -12.5361 28 -28z" />
    <glyph glyph-name="box-circle-check" unicode="box&#x2d;circle&#x2d;check" horiz-adv-x="576" 
d="M93.7002 416c-18.2002 0 -34.7998 -10.2998 -43 -26.5l-50.7002 -101.5h208v128h-114.3zM240 416l-0.000976562 -128h176h32l-50.7998 101.5c-8.09961 16.2002 -24.6992 26.5 -42.8994 26.5h-114.3zM-0.000976562 32c0 -35.2998 28.6992 -64 63.999 -64h232.2
c-25.0996 30.4004 -40.1992 69.5 -40.1992 112c0 91.7998 70.2998 167.2 160 175.3v0.700195h-416v-224zM287.998 80c0 -51.4463 27.4463 -98.9844 72 -124.707s99.4463 -25.7227 144 0s72 73.2607 72 124.707s-27.4463 98.9844 -72 124.707s-99.4463 25.7227 -144 0
s-72 -73.2607 -72 -124.707zM499.298 123.3c6.2002 -6.2002 6.19922 -16.4004 -0.000976562 -22.6006l-72 -72c-6.2002 -6.2002 -16.4004 -6.2002 -22.6006 0l-40 40c-6.2002 6.2002 -6.2002 16.4004 0 22.6006s16.4004 6.2002 22.6006 0l28.7002 -28.7002l60.7002 60.7002
c6.2002 6.2002 16.4004 6.2002 22.6006 0zM499.297 123.3z" />
    <glyph glyph-name="brackets-round" unicode="brackets&#x2d;round" 
d="M145.8 357.4c-25.7002 -17.0996 -81.7998 -76.3975 -81.7998 -165.397s56.0996 -148.3 81.6992 -165.3c14.7002 -9.7998 18.7002 -29.7002 8.90039 -44.4004s-29.7002 -18.7002 -44.4004 -8.90039c-38.2998 25.5996 -110.2 102.8 -110.2 218.6
s71.9004 193.1 110.301 218.699c14.7002 9.7998 34.6006 5.7998 44.4004 -8.90039s5.7998 -34.6006 -8.90039 -44.4004zM366.3 357.402c-220.5 0 0 -0.101562 0 -0.101562c-14.7002 9.7998 -18.7002 29.7002 -8.90039 44.4004s29.7002 18.7002 44.4004 8.90039
c38.2998 -25.5 110.2 -102.8 110.2 -218.6s-71.9004 -193.1 -110.301 -218.699c-14.7002 -9.7998 -34.6006 -5.7998 -44.4004 8.90039s-5.7998 34.6006 8.90039 44.4004c25.7002 17.0996 81.7998 76.3994 81.7998 165.399s-56.0996 148.3 -81.6992 165.399zM366.3 357.4z
" />
    <glyph glyph-name="brain-circuit" unicode="brain&#x2d;circuit" 
d="M240 392l0.00195312 -72.002h-34.7002c-6.59961 18.5996 -24.3994 32 -45.2998 32c-26.5 0 -48 -21.5 -48 -48s21.5 -48 48 -48c20.9004 0 38.7002 13.4004 45.2998 32h34.7002v-80h-48c-26.5 0 -48 -21.5 -48 -48v-34.7002c-18.5996 -6.59961 -32 -24.3994 -32 -45.2998
c0 -26.5 21.5 -48 48 -48s48 21.5 48 48c0 20.9004 -13.4004 38.7002 -32 45.2998v34.7002c0 8.7998 7.2002 16 16 16h48v-184c0 -30.9004 -25.0996 -56 -56 -56c-28.9004 0 -52.8008 21.9004 -55.7012 50.1006c-5.2002 -1.40039 -10.7002 -2.10059 -16.2998 -2.10059
c-35.2998 0 -64 28.7002 -64 64c0 7.40039 1.2998 14.6006 3.59961 21.2002c-30.2002 11.4004 -51.6006 40.6006 -51.6006 74.8008c0 31.9004 18.7002 59.5 45.7998 72.2998c-8.7002 10.9004 -13.7998 24.7002 -13.7998 39.7002c0 30.7002 21.5996 56.2998 50.3994 62.5996
c-1.59961 5.5 -2.39941 11.4004 -2.39941 17.4004c0 29.9004 20.5996 55.1006 48.2998 62.1006c3 28 26.7998 49.9004 55.7002 49.9004c30.9004 0 56 -25.0996 56 -56zM272.002 287.998l48.001 0.00195312c8.7998 0 16 -7.2002 16 -16v-2.7002
c-18.5996 -6.59961 -32 -24.3994 -32 -45.2998c0 -26.5 21.5 -48 48 -48s48 21.5 48 48c0 20.9004 -13.4004 38.7002 -32 45.2998v2.7002c0 26.5 -21.5 48 -48 48h-48v72c0 30.9004 25.0996 56 56 56c28.9004 0 52.6006 -21.9004 55.7002 -49.9004
c27.7002 -7 48.2998 -32.2002 48.2998 -62.1006c0 -6 -0.799805 -11.9004 -2.39941 -17.4004c28.7998 -6.2998 50.3994 -31.8994 50.3994 -62.5996c0 -15 -5.09961 -28.7998 -13.7998 -39.7002c27.0996 -12.7998 45.7998 -40.3994 45.7998 -72.2998
c0 -34.2002 -21.4004 -63.4004 -51.6006 -74.8008c2.2998 -6.59961 3.59961 -13.7998 3.59961 -21.2002c0 -35.2998 -28.7002 -64 -64 -64c-5.59961 0 -11.0996 0.700195 -16.2998 2.10059c-3 -28.2002 -26.7998 -50.1006 -55.7002 -50.1006c-30.9004 0 -56 25.0996 -56 56
v72h34.7002c6.59961 -18.5996 24.3994 -32 45.2998 -32c26.5 0 48 21.5 48 48s-21.5 48 -48 48c-20.9004 0 -38.7002 -13.4004 -45.2998 -32h-34.7002v192zM144.003 304c0 8.83691 7.16309 16 16 16s16 -7.16309 16 -16s-7.16309 -16 -16 -16s-16 7.16309 -16 16z
M352.003 240c8.83691 0 16 -7.16309 16 -16s-7.16309 -16 -16 -16s-16 7.16309 -16 16s7.16309 16 16 16zM144.003 80c0 8.83691 7.16309 16 16 16s16 -7.16309 16 -16s-7.16309 -16 -16 -16s-16 7.16309 -16 16zM336.003 80c0 8.83691 7.16309 16 16 16s16 -7.16309 16 -16
s-7.16309 -16 -16 -16s-16 7.16309 -16 16z" />
    <glyph glyph-name="brake-warning" unicode="brake&#x2d;warning" horiz-adv-x="640" 
d="M96 192c0 -80.0273 42.6943 -153.976 112 -193.989s154.694 -40.0137 224 0s112 113.962 112 193.989s-42.6943 153.976 -112 193.989s-154.694 40.0137 -224 0s-112 -113.962 -112 -193.989zM344 296v-112c0 -13.2998 -10.7002 -24 -24 -24s-24 10.7002 -24 24v112
c0 13.2998 10.7002 24 24 24s24 -10.7002 24 -24zM320 64c-17.6729 0 -32 14.3271 -32 32s14.3271 32 32 32s32 -14.3271 32 -32s-14.3271 -32 -32 -32zM91.0996 339c7.2002 11.2002 4 25.999 -7.2002 33.1992s-26 3.90039 -33.2002 -7.19922
c-32.0996 -49.9004 -50.6992 -109.301 -50.6992 -173.001s18.5996 -123.101 50.6992 -173.001c7.2002 -11.2002 22 -14.4004 33.2002 -7.2002s14.4004 22.1006 7.2002 33.2002c-27.2998 42.4004 -43.0996 92.8008 -43.0996 147.001s15.7998 104.601 43.0996 147.001z
M589.3 364.999c-7.2002 11.2002 -22 14.4014 -33.2002 7.20117s-14.4004 -22.1006 -7.2002 -33.2002c27.2998 -42.4004 43.0996 -92.8008 43.0996 -147.001s-15.7998 -104.601 -43.0996 -147.001c-7.2002 -11.2002 -4 -26 7.2002 -33.2002s26 -3.90039 33.2002 7.19922
c32.0996 49.9004 50.6992 109.301 50.6992 173.001s-18.5996 123.101 -50.6992 173.001z" />
    <glyph glyph-name="briefcase-blank" unicode="briefcase&#x2d;blank" 
d="M176 392c0 4.40039 3.59961 8 8 8h144c4.40039 0 8 -3.59961 8 -8v-40h-160v40zM128 352h-64c-35.2998 0 -64 -28.7002 -64 -64v-256c0 -35.2998 28.7002 -64 64 -64h384c35.2998 0 64 28.7002 64 64v256c0 35.2998 -28.7002 64 -64 64h-64v40
c0 30.9004 -25.0996 56 -56 56h-144c-30.9004 0 -56 -25.0996 -56 -56v-40z" />
    </font>
</defs>
</svg>
